<svg id="Layer_1" data-name="Layer 1" xmlns="http://www.w3.org/2000/svg" viewBox="0 0 420 487.83"><defs><style>.cls-1{fill:#575756;}</style></defs><path class="cls-1" d="M48.17,320.39V439.66h50V267.93a14.62,14.62,0,0,1,25.94-9.26l170.79,181h61.36a33.55,33.55,0,1,1,0,29.24H288.62v0A14.54,14.54,0,0,1,278,464.27L127.39,304.67V454.28a14.63,14.63,0,0,1-14.62,14.62H33.55a14.62,14.62,0,0,1-14.62-14.62V320.39a33.55,33.55,0,1,1,29.24,0ZM370.85,0a33.55,33.55,0,1,1-30.2,48.17h-61.8l-155.23,173a14.55,14.55,0,0,1-25.4-9.71h-.07V48.17h-50V167.45a33.55,33.55,0,1,1-29.24,0V33.55A14.62,14.62,0,0,1,33.55,18.93h79.22a14.63,14.63,0,0,1,14.62,14.62V173.41L260.67,24.84a14.6,14.6,0,0,1,11.74-5.91h68.24A33.54,33.54,0,0,1,370.85,0ZM340.48,380.13a14.58,14.58,0,1,1-21.12,20.1L173.62,247.36a14.59,14.59,0,0,1-.11-20h0L303,87.72a14.59,14.59,0,1,1,21.36,19.88L204.2,237.18l136.28,143Z"/></svg>