<?xml version="1.0" encoding="utf-8"?>
<!-- Generator: Adobe Illustrator 25.4.1, SVG Export Plug-In . SVG Version: 6.00 Build 0)  -->
<svg version="1.1" id="Layer_1" xmlns="http://www.w3.org/2000/svg" xmlns:xlink="http://www.w3.org/1999/xlink" x="0px" y="0px"
	 viewBox="0 0 124 124" style="enable-background:new 0 0 124 124;" xml:space="preserve">
<g>
	<g>
		<g>
			<path d="M63.4,124c-0.3,0-0.7-0.1-1-0.2C16.5,98.4,0.3,54.6,0.1,54.2c-0.3-0.7-0.1-1.5,0.5-2.1l1.6-1.6c1.8-1.9,4.5-2.7,7-2.2
				c8.4,1.6,31.3,3.3,61.3-14.3c0.8-0.5,1.8-0.3,2.4,0.3l17.7,18.1c0.8,0.8,0.8,2,0,2.8c-19.5,20-19.8,49.6-19.5,58.2
				c0.1,2.2-0.7,4.4-2.3,6l-4,4C64.4,123.8,63.9,124,63.4,124z M4.3,54c2.8,6.9,19.2,43.1,58.7,65.5l2.9-2.9c0.8-0.8,1.2-1.9,1.2-3
				c-0.4-8.8-0.1-38.7,19.2-59.7L71.1,38.2c-30.5,17.4-53.9,15.6-62.7,14C7.2,52,5.9,52.4,5,53.3L4.3,54z"/>
			<path d="M27.5,95.6c-0.6,0-1.2-0.3-1.6-0.8c-0.7-0.9-0.5-2.1,0.3-2.8c1.5-1.2,3-2.4,4.5-3.6c6.9-5.7,13.5-11.8,19.7-18.3
				c0.8-0.8,2-0.8,2.8-0.1c0.8,0.8,0.8,2,0.1,2.8c-6.3,6.6-13,12.8-20,18.6c-1.5,1.2-3,2.5-4.6,3.7C28.4,95.5,28,95.6,27.5,95.6z"/>
			<path d="M11.7,73.6c-1,0-1.9-0.7-2-1.8c-0.1-1.1,0.6-2.1,1.7-2.2c3-0.4,6-0.9,8.9-1.5c10.5-2.4,20.6-6.9,30-13.3
				c0.9-0.6,2.2-0.4,2.8,0.5c0.6,0.9,0.4,2.2-0.5,2.8C42.8,64.8,32.3,69.4,21.3,72c-3,0.7-6.2,1.2-9.3,1.6
				C11.9,73.6,11.8,73.6,11.7,73.6z"/>
			<path d="M51.3,116c-0.1,0-0.2,0-0.2,0c-1.1-0.1-1.9-1.1-1.8-2.2c0.4-3.2,0.9-6.3,1.6-9.4c2.5-11.2,7.1-21.8,13.7-31.8
				c0.6-0.9,1.9-1.2,2.8-0.6c0.9,0.6,1.2,1.9,0.6,2.8c-6.3,9.5-10.7,19.8-13.1,30.4c-0.7,2.9-1.2,6-1.5,9
				C53.2,115.3,52.3,116,51.3,116z"/>
		</g>
		<path d="M85.9,52.5c-0.5,0-1-0.2-1.4-0.6c-0.8-0.8-0.8-2,0-2.8l33.7-34.4c2.4-2.4,2.4-6.4,0-8.9c-1.1-1.2-2.7-1.8-4.3-1.8
			s-3.1,0.6-4.3,1.8L75.9,40.3c-0.8,0.8-2,0.8-2.8,0s-0.8-2,0-2.8L106.8,3c1.9-1.9,4.4-3,7.1-3l0,0c2.7,0,5.2,1.1,7.1,3
			c3.9,4,3.9,10.5,0,14.5L87.4,51.9C87,52.3,86.4,52.5,85.9,52.5z"/>
	</g>
</g>
</svg>
