<svg id="Layer_1" data-name="Layer 1" xmlns="http://www.w3.org/2000/svg" viewBox="0 0 553.51 231.98"><defs><style>.cls-1{fill:#231f20;}.cls-2{fill:#cbdedc;}.cls-3{fill:#a8b8b7;}</style></defs><rect class="cls-1" x="543.75" y="86.26" width="1.45" height="2.36"/><rect class="cls-1" x="543.33" y="83.06" width="1.44" height="2.36" transform="translate(-3.29 143.47) rotate(-14.98)"/><rect class="cls-1" x="542.09" y="80.08" width="1.45" height="2.36" transform="translate(32.24 282.68) rotate(-30.04)"/><rect class="cls-1" x="540.13" y="77.52" width="1.44" height="2.36" transform="translate(102.57 405.24) rotate(-44.97)"/><rect class="cls-1" x="537.57" y="75.56" width="1.45" height="2.36" transform="translate(202.73 504.58) rotate(-60.01)"/><rect class="cls-1" x="534.59" y="74.32" width="1.45" height="2.36" transform="translate(323.73 573) rotate(-74.99)"/><rect class="cls-1" x="530.94" y="74.36" width="2.36" height="1.45"/><rect class="cls-1" x="527.74" y="74.78" width="2.36" height="1.45" transform="translate(-1.46 139.99) rotate(-15.06)"/><rect class="cls-1" x="524.76" y="76.02" width="2.36" height="1.45" transform="translate(32.08 273.21) rotate(-29.99)"/><rect class="cls-1" x="522.2" y="77.98" width="2.36" height="1.44" transform="translate(97.64 393.14) rotate(-45)"/><rect class="cls-1" x="520.24" y="80.54" width="2.36" height="1.45" transform="translate(189.83 491.79) rotate(-59.93)"/><rect class="cls-1" x="519.01" y="83.52" width="2.36" height="1.44" transform="matrix(0.26, -0.97, 0.97, 0.26, 304.3, 564.95)"/><rect class="cls-1" x="519.04" y="86.26" width="1.45" height="2.36"/><rect class="cls-1" x="519.47" y="89.45" width="1.44" height="2.36" transform="matrix(0.97, -0.26, 0.26, 0.97, -5.75, 137.52)"/><rect class="cls-1" x="520.7" y="92.43" width="1.44" height="2.36" transform="translate(22.93 272.92) rotate(-29.96)"/><rect class="cls-1" x="522.66" y="94.99" width="1.44" height="2.36" transform="translate(85.12 398.01) rotate(-44.97)"/><rect class="cls-1" x="525.22" y="96.95" width="1.44" height="2.36" transform="translate(177.99 504.55) rotate(-60)"/><rect class="cls-1" x="528.2" y="98.19" width="1.44" height="2.36" transform="translate(295.74 584.4) rotate(-74.96)"/><rect class="cls-1" x="530.94" y="99.06" width="2.36" height="1.45"/><rect class="cls-1" x="534.13" y="98.65" width="2.36" height="1.44" transform="translate(-7.44 142.42) rotate(-15.05)"/><rect class="cls-1" x="537.11" y="97.41" width="2.36" height="1.44" transform="translate(23.04 282.25) rotate(-29.99)"/><rect class="cls-1" x="539.67" y="95.45" width="2.36" height="1.44" transform="translate(90.43 410.64) rotate(-45)"/><rect class="cls-1" x="541.63" y="92.89" width="2.36" height="1.44" transform="translate(190.95 517.41) rotate(-60.08)"/><rect class="cls-1" x="542.87" y="89.91" width="2.36" height="1.44" transform="translate(315.82 592.74) rotate(-75.01)"/><path class="cls-1" d="M520.19,87.44a11.93,11.93,0,1,1,11.93,11.92A11.94,11.94,0,0,1,520.19,87.44Zm23.26,0a11.34,11.34,0,1,0-11.33,11.33A11.35,11.35,0,0,0,543.45,87.44Z"/><rect class="cls-1" x="524.81" y="85.13" width="0.59" height="4.6"/><rect class="cls-1" x="527.83" y="80.04" width="0.59" height="14.79"/><rect class="cls-1" x="524.81" y="87.14" width="14.58" height="0.59"/><polygon class="cls-1" points="536.47 90.25 539.28 87.44 536.47 84.62 536.88 84.2 540.12 87.44 536.88 90.67 536.47 90.25"/><polygon class="cls-1" points="534.33 90.25 537.15 87.44 534.33 84.62 534.74 84.2 537.98 87.44 534.74 90.67 534.33 90.25"/><polygon class="cls-1" points="532.19 90.25 535 87.44 532.19 84.62 532.6 84.2 535.84 87.44 532.6 90.67 532.19 90.25"/><polygon class="cls-1" points="530.05 90.25 532.87 87.44 530.05 84.62 530.46 84.2 533.7 87.44 530.46 90.67 530.05 90.25"/><path class="cls-1" d="M501.69,87.44a1.23,1.23,0,1,1,1.23,1.23A1.23,1.23,0,0,1,501.69,87.44Zm1.87,0a.64.64,0,1,0-1.28,0,.64.64,0,0,0,1.28,0Z"/><path class="cls-1" d="M509.28,87.44A2.69,2.69,0,1,1,512,90.12,2.69,2.69,0,0,1,509.28,87.44Zm4.79,0a2.1,2.1,0,1,0-2.1,2.09A2.1,2.1,0,0,0,514.07,87.44Z"/><path class="cls-1" d="M552,89a1.52,1.52,0,1,0-1.51-1.51A1.52,1.52,0,0,0,552,89Z"/><rect class="cls-1" x="503.56" y="87.14" width="15.78" height="0.59"/><rect class="cls-1" x="544.9" y="87.14" width="5.88" height="0.59"/><polygon class="cls-1" points="506.35 82.53 506.76 82.11 506.97 82.32 516.99 92.34 516.58 92.76 516.37 92.55 506.35 82.53"/><path class="cls-1" d="M401.28,128.91A13.91,13.91,0,1,1,415.19,115,13.93,13.93,0,0,1,401.28,128.91Zm0-.63A13.29,13.29,0,1,0,388,115,13.31,13.31,0,0,0,401.28,128.28Z"/><path class="cls-1" d="M401.28,27.82a13.91,13.91,0,1,1,13.91-13.91A13.93,13.93,0,0,1,401.28,27.82Zm0-.62A13.29,13.29,0,1,0,388,13.91,13.31,13.31,0,0,0,401.28,27.2Z"/><path class="cls-1" d="M300.19,128.91A13.91,13.91,0,1,1,314.1,115,13.93,13.93,0,0,1,300.19,128.91Zm0-.63A13.29,13.29,0,1,0,286.91,115,13.3,13.3,0,0,0,300.19,128.28Z"/><path class="cls-2" d="M300.19,88a5.38,5.38,0,1,1,5.38-5.37A5.37,5.37,0,0,1,300.19,88Z"/><path class="cls-2" d="M300.19,69.55a2.89,2.89,0,1,1,2.89-2.89A2.89,2.89,0,0,1,300.19,69.55Z"/><rect class="cls-1" x="299.88" y="87.71" width="0.62" height="14"/><rect class="cls-1" x="299.88" y="69.24" width="0.62" height="8.34"/><rect class="cls-1" x="299.88" y="47.51" width="0.62" height="16.58"/><path class="cls-1" d="M300.19,48.13a4,4,0,1,1,4-4A4,4,0,0,1,300.19,48.13Zm0-.62a3.35,3.35,0,1,0-3.34-3.35A3.34,3.34,0,0,0,300.19,47.51Z"/><rect class="cls-1" x="299.88" y="128.28" width="0.62" height="19.9"/><rect class="cls-1" x="299.88" y="154.92" width="0.62" height="19.9"/><path class="cls-1" d="M300.19,155.7l-4.13-4.13,4.13-4.14,4.13,4.14Zm-3.25-4.13,3.25,3.25,3.25-3.25-3.25-3.25Z"/><polygon class="cls-1" points="304.44 171.59 303.12 170.27 300.19 173.19 297.27 170.27 295.95 171.59 300.19 175.83 304.44 171.59"/><polygon class="cls-1" points="304.44 176.26 303.12 174.94 300.19 177.86 297.27 174.94 295.95 176.26 300.19 180.5 304.44 176.26"/><polygon class="cls-1" points="304.44 180.93 303.12 179.6 300.19 182.53 297.27 179.6 295.95 180.93 300.19 185.17 304.44 180.93"/><path class="cls-1" d="M401.28,160.77A45.78,45.78,0,1,1,447.05,115,45.83,45.83,0,0,1,401.28,160.77Zm0-.62A45.15,45.15,0,1,0,356.13,115,45.2,45.2,0,0,0,401.28,160.15Z"/><rect class="cls-1" x="353.25" y="113.75" width="2.56" height="2.49"/><rect class="cls-1" x="354" y="105.6" width="2.49" height="2.56" transform="translate(188.29 438.16) rotate(-80)"/><rect class="cls-1" x="356.11" y="97.73" width="2.49" height="2.56" transform="translate(142.17 401) rotate(-70.01)"/><rect class="cls-1" x="359.55" y="90.34" width="2.49" height="2.56" transform="matrix(0.5, -0.87, 0.87, 0.5, 100.94, 358.16)"/><rect class="cls-1" x="364.23" y="83.67" width="2.49" height="2.56" transform="translate(65.44 310.26) rotate(-49.99)"/><rect class="cls-1" x="369.99" y="77.91" width="2.49" height="2.56" transform="translate(35.94 257.13) rotate(-40)"/><rect class="cls-1" x="376.66" y="73.23" width="2.49" height="2.56" transform="translate(13.36 198.91) rotate(-30)"/><rect class="cls-1" x="384.05" y="69.79" width="2.49" height="2.56" transform="translate(-1.09 135.96) rotate(-19.99)"/><rect class="cls-1" x="391.92" y="67.68" width="2.49" height="2.56" transform="translate(-6 69.37) rotate(-10.01)"/><rect class="cls-1" x="400.03" y="66.97" width="2.49" height="2.56"/><rect class="cls-1" x="408.11" y="67.72" width="2.56" height="2.49" transform="translate(270.3 460.13) rotate(-79.99)"/><rect class="cls-1" x="415.98" y="69.83" width="2.56" height="2.49" transform="translate(207.81 438.89) rotate(-70.01)"/><rect class="cls-1" x="423.37" y="73.27" width="2.56" height="2.49" transform="translate(147.97 405.16) rotate(-60.03)"/><rect class="cls-1" x="430.04" y="77.94" width="2.56" height="2.49" transform="translate(93.37 358.65) rotate(-49.99)"/><rect class="cls-1" x="435.8" y="83.71" width="2.56" height="2.49" transform="translate(47.67 300.85) rotate(-40)"/><rect class="cls-1" x="440.48" y="90.38" width="2.56" height="2.49" transform="translate(13.43 233.33) rotate(-30.02)"/><rect class="cls-1" x="443.92" y="97.76" width="2.56" height="2.49" transform="translate(-7.02 158.17) rotate(-19.99)"/><rect class="cls-1" x="446.03" y="105.63" width="2.56" height="2.49" transform="translate(-11.77 79.45) rotate(-10.02)"/><rect class="cls-1" x="446.74" y="113.75" width="2.56" height="2.49"/><rect class="cls-1" x="446.07" y="121.83" width="2.49" height="2.56" transform="translate(248.34 542.23) rotate(-79.99)"/><rect class="cls-1" x="443.96" y="129.7" width="2.49" height="2.56" transform="translate(169.98 504.63) rotate(-70.02)"/><rect class="cls-1" x="440.51" y="137.09" width="2.49" height="2.56" transform="translate(100.91 451.61) rotate(-59.98)"/><rect class="cls-1" x="435.84" y="143.76" width="2.49" height="2.56" transform="translate(45.04 386.67) rotate(-50)"/><rect class="cls-1" x="430.08" y="149.52" width="2.49" height="2.56" transform="translate(3.95 312.47) rotate(-39.99)"/><rect class="cls-1" x="423.4" y="154.2" width="2.49" height="2.56" transform="translate(-20.88 232.93) rotate(-29.97)"/><rect class="cls-1" x="416.02" y="157.64" width="2.49" height="2.56" transform="translate(-29.19 152.14) rotate(-19.98)"/><rect class="cls-1" x="408.15" y="159.75" width="2.49" height="2.56" transform="translate(-21.75 73.59) rotate(-10.01)"/><rect class="cls-1" x="400.03" y="160.46" width="2.49" height="2.56"/><rect class="cls-1" x="391.88" y="159.78" width="2.56" height="2.49" transform="matrix(0.17, -0.98, 0.98, 0.17, 166.23, 520.2)"/><rect class="cls-1" x="384.01" y="157.68" width="2.56" height="2.49" transform="translate(104.22 466.66) rotate(-70.01)"/><rect class="cls-1" x="376.63" y="154.23" width="2.56" height="2.49" transform="translate(54.33 405.04) rotate(-60.01)"/><rect class="cls-1" x="369.95" y="149.56" width="2.56" height="2.49" transform="translate(17.06 338.2) rotate(-49.99)"/><rect class="cls-1" x="364.19" y="143.8" width="2.56" height="2.49" transform="translate(-7.72 268.88) rotate(-40)"/><rect class="cls-1" x="359.52" y="137.12" width="2.56" height="2.49" transform="translate(-20.82 199.09) rotate(-30.02)"/><rect class="cls-1" x="356.07" y="129.74" width="2.56" height="2.49" transform="translate(-23.25 130.08) rotate(-19.99)"/><rect class="cls-1" x="353.96" y="121.87" width="2.56" height="2.49" transform="translate(-16 63.68) rotate(-10.02)"/><rect class="cls-1" x="400.97" y="27.2" width="0.62" height="40.09"/><rect class="cls-1" x="400.97" y="162.71" width="0.62" height="53.69"/><circle class="cls-1" cx="401.28" cy="216.08" r="2.89"/><circle class="cls-1" cx="388.92" cy="228.44" r="1.74"/><path class="cls-1" d="M422.64,196.46a1.74,1.74,0,1,1,1.74-1.74A1.74,1.74,0,0,1,422.64,196.46Z"/><path class="cls-1" d="M401.28,222.28a6.2,6.2,0,1,1,6.2-6.2A6.21,6.21,0,0,1,401.28,222.28Zm0-.62a5.58,5.58,0,1,0-5.58-5.58A5.58,5.58,0,0,0,401.28,221.66Z"/><path class="cls-1" d="M401.59,224.06v-.63h-.31a7.35,7.35,0,0,1-7.35-7.35v-.31h-.63v.31a8,8,0,0,0,8,8Z"/><path class="cls-1" d="M409.25,216.39v-.31a8,8,0,0,0-8-8H401v.62h.31a7.36,7.36,0,0,1,7.35,7.35v.31Z"/><polygon class="cls-1" points="401.72 216.08 401.28 215.64 401.06 215.86 389.63 227.29 390.07 227.73 390.29 227.51 401.72 216.08"/><polygon class="cls-1" points="421.85 195.96 421.41 195.51 421.19 195.73 405.1 211.82 405.54 212.26 405.76 212.04 421.85 195.96"/><polygon class="cls-1" points="462.44 54.07 462.2 53.83 462.08 53.95 400.84 115.2 401.08 115.44 401.2 115.32 462.44 54.07"/><polygon class="cls-1" points="514.21 227.49 513.99 227.26 401.28 114.56 400.84 115 401.06 115.22 513.77 227.93 514.21 227.49"/><rect class="cls-1" x="313.48" y="114.68" width="40.09" height="0.62"/><path class="cls-1" d="M300.19,123.11A8.12,8.12,0,1,1,308.3,115,8.12,8.12,0,0,1,300.19,123.11Zm0-.63A7.49,7.49,0,1,0,292.7,115,7.5,7.5,0,0,0,300.19,122.48Z"/><path class="cls-1" d="M280.21,121.69a6.7,6.7,0,1,1,6.7-6.69A6.7,6.7,0,0,1,280.21,121.69Zm0-.62a6.08,6.08,0,1,0-6.08-6.07A6.07,6.07,0,0,0,280.21,121.07Z"/><path class="cls-1" d="M280.21,118.64a3.65,3.65,0,1,1,3.64-3.64A3.64,3.64,0,0,1,280.21,118.64Z"/><path class="cls-1" d="M300.19,158.54l-7-7,7-7,7,7Zm-6.09-7,6.09,6.09,6.09-6.09-6.09-6.1Z"/><rect class="cls-1" x="333.21" y="112.45" width="0.62" height="5.09"/><rect class="cls-1" x="334.7" y="112.45" width="0.62" height="5.09"/><rect class="cls-1" x="336.19" y="112.45" width="0.62" height="5.09"/><polygon class="cls-1" points="462.74 58.31 462.74 53.47 457.9 53.47 457.9 54.1 462.11 54.1 462.11 58.31 462.74 58.31"/><polygon class="cls-1" points="464.28 56.76 464.28 51.93 459.45 51.93 459.45 52.55 463.66 52.55 463.66 56.76 464.28 56.76"/><circle class="cls-1" cx="515.67" cy="229.39" r="2.59"/><path class="cls-1" d="M474,190.34a2.59,2.59,0,1,1,2.59-2.58A2.59,2.59,0,0,1,474,190.34Z"/><path class="cls-1" d="M470.53,194.16a2.9,2.9,0,1,1,2.9-2.9A2.9,2.9,0,0,1,470.53,194.16Zm0-.62a2.28,2.28,0,1,0-2.28-2.28A2.28,2.28,0,0,0,470.53,193.54Z"/><path class="cls-1" d="M466.87,197.51a2.59,2.59,0,1,1,2.59-2.59A2.59,2.59,0,0,1,466.87,197.51Z"/><polygon class="cls-1" points="483.67 211.29 483.45 211.07 450.5 178.12 450.06 178.56 450.28 178.78 483.23 211.73 483.67 211.29"/><polygon class="cls-1" points="495.37 166.86 494.93 166.42 494.71 166.64 452.48 208.88 452.92 209.32 453.14 209.1 495.37 166.86"/><path class="cls-1" d="M451.49,212.33a2,2,0,1,1,2-2A2,2,0,0,1,451.49,212.33Zm0-.62a1.4,1.4,0,1,0-1.41-1.4A1.4,1.4,0,0,0,451.49,211.71Z"/><path class="cls-1" d="M496.24,167.58a2,2,0,1,1,2-2A2,2,0,0,1,496.24,167.58Zm0-.62a1.41,1.41,0,1,0-1.4-1.41A1.41,1.41,0,0,0,496.24,167Z"/><path class="cls-1" d="M449.22,179.29a2,2,0,1,1,2-2A2,2,0,0,1,449.22,179.29Zm0-.62a1.4,1.4,0,1,0-1.41-1.4A1.4,1.4,0,0,0,449.22,178.67Z"/><path class="cls-1" d="M484.65,214.73a2,2,0,1,1,2-2A2,2,0,0,1,484.65,214.73Zm0-.62a1.4,1.4,0,1,0-1.4-1.4A1.41,1.41,0,0,0,484.65,214.11Z"/><path class="cls-1" d="M360.8,116.68a1.69,1.69,0,1,1,1.68-1.68A1.69,1.69,0,0,1,360.8,116.68Zm0-.62a1.07,1.07,0,1,0-1.07-1.06A1.07,1.07,0,0,0,360.8,116.06Z"/><path class="cls-1" d="M362.82,109.93a1.7,1.7,0,0,1-1.9,1.45h0a1.65,1.65,0,0,1-1.11-.64,1.63,1.63,0,0,1-.34-1.25,1.69,1.69,0,0,1,3.36.22C362.83,109.78,362.82,109.86,362.82,109.93Zm-2.52.43a1.08,1.08,0,0,0,.7.41h0a1.06,1.06,0,1,0,.28-2.11,1.06,1.06,0,0,0-1.19.91.71.71,0,0,0,0,.14A1.08,1.08,0,0,0,360.3,110.36Z"/><path class="cls-1" d="M363.8,105a1.66,1.66,0,0,1-.78,1,1.73,1.73,0,0,1-1.28.17h0a1.69,1.69,0,1,1,2.12-1.63A1.72,1.72,0,0,1,363.8,105Zm-1.9.58h0a1,1,0,0,0,1.3-.75,1.06,1.06,0,0,0-.75-1.3,1.07,1.07,0,0,0-1.3.75.84.84,0,0,0,0,.27A1.06,1.06,0,0,0,361.9,105.54Z"/><path class="cls-1" d="M365.44,100.15a1.69,1.69,0,0,1-2.21.91h0a1.68,1.68,0,0,1-.91-2.2,1.68,1.68,0,0,1,2.2-.91,1.68,1.68,0,0,1,.92.91,1.79,1.79,0,0,1,0,1.29Zm-2,.34h0a1.07,1.07,0,0,0,1.39-.58,1,1,0,0,0,0-.81,1.06,1.06,0,0,0-.58-.58,1,1,0,0,0-.81,0,1,1,0,0,0-.57.58,1,1,0,0,0-.08.4A1.06,1.06,0,0,0,363.47,100.49Z"/><path class="cls-1" d="M367.68,95.6a1.69,1.69,0,0,1-2.3.62h0a1.69,1.69,0,0,1-.62-2.31,1.7,1.7,0,0,1,2.3-.62,1.71,1.71,0,0,1,.85,1.47A1.74,1.74,0,0,1,367.68,95.6ZM365.19,95a1.09,1.09,0,0,0,.5.65h0a1.07,1.07,0,1,0-.39-1.46,1.13,1.13,0,0,0-.14.53A1.27,1.27,0,0,0,365.19,95Z"/><path class="cls-1" d="M370.5,91.38a1.69,1.69,0,0,1-2.68-2,1.7,1.7,0,0,1,2.37-.32,1.69,1.69,0,0,1,.31,2.37Zm-2-.19a1.06,1.06,0,1,0-.2-1.48,1,1,0,0,0,.2,1.48Z"/><path class="cls-1" d="M373.84,87.56a1.66,1.66,0,0,1-1.19.5,1.67,1.67,0,0,1-1.19-.5h0a1.69,1.69,0,1,1,2.38,0Zm-1.94-.44h0a1.07,1.07,0,0,0,.75.32,1.07,1.07,0,0,0,.75-1.82,1.07,1.07,0,0,0-1.5,0,1.06,1.06,0,0,0,0,1.5Z"/><path class="cls-1" d="M377.66,84.22a1.69,1.69,0,0,1-2.36-.31h0A1.69,1.69,0,1,1,378,81.85a1.67,1.67,0,0,1,.35,1A1.7,1.7,0,0,1,377.66,84.22Zm-1.87-.69A1.07,1.07,0,1,0,376,82a1,1,0,0,0-.42.84A1,1,0,0,0,375.79,83.53Z"/><path class="cls-1" d="M382.67,80.37a1.71,1.71,0,0,1-.79,1,1.69,1.69,0,0,1-2.3-.62,1.67,1.67,0,0,1,.62-2.3,1.61,1.61,0,0,1,1.27-.17,1.71,1.71,0,0,1,1,.79,1.64,1.64,0,0,1,.22.83A2.12,2.12,0,0,1,382.67,80.37Zm-2.55.1a1.07,1.07,0,0,0,.64.5,1.09,1.09,0,0,0,.81-.11,1,1,0,0,0,.49-.65,1,1,0,0,0-.1-.8,1.05,1.05,0,0,0-1.45-.39,1,1,0,0,0-.5.64,1.35,1.35,0,0,0,0,.28A1,1,0,0,0,380.12,80.47Z"/><path class="cls-1" d="M386.43,79.15a1.68,1.68,0,0,1-2.2-.91,1.7,1.7,0,0,1,0-1.29,1.66,1.66,0,0,1,.91-.91,1.7,1.7,0,0,1,1.29,0,1.66,1.66,0,0,1,.91.91,1.63,1.63,0,0,1,.13.64A1.68,1.68,0,0,1,386.43,79.15ZM384.8,78h0a1.06,1.06,0,0,0,1.38.58,1.07,1.07,0,0,0,0-2,1.13,1.13,0,0,0-.81,0,1,1,0,0,0-.57.58,1,1,0,0,0-.09.41A1.14,1.14,0,0,0,384.8,78Z"/><path class="cls-1" d="M391.24,77.52a1.64,1.64,0,0,1-1.28-.17,1.69,1.69,0,0,1-.79-1h0a1.68,1.68,0,0,1,.17-1.28,1.66,1.66,0,0,1,1-.78,1.69,1.69,0,0,1,2.07,1.19,1.59,1.59,0,0,1,.06.43A1.69,1.69,0,0,1,391.24,77.52Zm-1.47-1.35a1.12,1.12,0,0,0,.5.65,1,1,0,0,0,.81.1,1.06,1.06,0,1,0-.55-2,1,1,0,0,0-.65.49,1.13,1.13,0,0,0-.14.53A1.33,1.33,0,0,0,389.77,76.17Z"/><path class="cls-1" d="M396.21,76.53a1.69,1.69,0,0,1-1.89-1.45,1.71,1.71,0,0,1,.34-1.25,1.69,1.69,0,1,1,1.55,2.7ZM394.94,75h0a1.06,1.06,0,1,0,.91-1.19,1,1,0,0,0-.7.4,1.11,1.11,0,0,0-.22.65S394.94,75,394.94,75Z"/><path class="cls-1" d="M401.28,76.2a1.69,1.69,0,1,1,0-3.37,1.69,1.69,0,0,1,0,3.37Zm0-.62a1.07,1.07,0,1,0-1.07-1.07A1.07,1.07,0,0,0,401.28,75.58Z"/><path class="cls-1" d="M408.23,75.08a1.67,1.67,0,0,1-.64,1.12,1.69,1.69,0,0,1-2.7-1.56h0a1.71,1.71,0,0,1,.65-1.12,1.67,1.67,0,0,1,1.24-.33,1.71,1.71,0,0,1,1.12.64,1.68,1.68,0,0,1,.35,1A1.64,1.64,0,0,1,408.23,75.08Zm-2.72-.36a1.07,1.07,0,0,0,.91,1.2,1.08,1.08,0,0,0,.79-.22,1,1,0,0,0,.4-.7,1,1,0,0,0-.21-.79,1.06,1.06,0,0,0-1.89.51Z"/><path class="cls-1" d="M413.39,76.33a1.69,1.69,0,0,1-.79,1,1.64,1.64,0,0,1-1.28.17,1.69,1.69,0,0,1-1.19-2.06h0a1.66,1.66,0,0,1,.78-1,1.68,1.68,0,0,1,1.28-.16,1.66,1.66,0,0,1,1,.78,1.67,1.67,0,0,1,.22.84A2.12,2.12,0,0,1,413.39,76.33Zm-1.91.59a1,1,0,0,0,.81-.1,1.1,1.1,0,0,0,.49-.65,1.06,1.06,0,1,0-2-.55A1.06,1.06,0,0,0,411.48,76.92Z"/><path class="cls-1" d="M418.33,78.24a1.68,1.68,0,1,1,0-1.29,1.84,1.84,0,0,1,.13.65A1.78,1.78,0,0,1,418.33,78.24Zm-2,.34a1.07,1.07,0,0,0,.82-2,1.11,1.11,0,0,0-.82,0,1,1,0,0,0-.57.57h0a1,1,0,0,0-.08.4A1.06,1.06,0,0,0,416.36,78.58Z"/><path class="cls-1" d="M423,80.78a1.69,1.69,0,0,1-3.09-.41,1.61,1.61,0,0,1,.17-1.27,1.69,1.69,0,0,1,3.09.4,1.61,1.61,0,0,1,.05.44A1.67,1.67,0,0,1,423,80.78Zm-2.49-.57a1,1,0,0,0,.5.65,1.06,1.06,0,0,0,1.45-.39,1.09,1.09,0,0,0,.11-.81,1.11,1.11,0,0,0-.5-.64,1.06,1.06,0,0,0-1.45.39,1,1,0,0,0-.14.53A1.24,1.24,0,0,0,420.49,80.21Z"/><path class="cls-1" d="M427.26,83.91a1.69,1.69,0,0,1-2.36.31,1.7,1.7,0,0,1-.32-2.37h0a1.71,1.71,0,0,1,2.37-.31,1.69,1.69,0,0,1,.66,1.34A1.73,1.73,0,0,1,427.26,83.91Zm-2.18-1.68a1.06,1.06,0,1,0,1.68,1.3,1.06,1.06,0,1,0-1.68-1.3Z"/><circle class="cls-2" cx="401.28" cy="115" r="10.48"/><circle class="cls-1" cx="401.28" cy="115" r="5.6"/><circle class="cls-1" cx="401.28" cy="51.93" r="5.6"/><path class="cls-1" d="M401.28,184a5.92,5.92,0,1,1,5.91-5.91A5.92,5.92,0,0,1,401.28,184Zm0-.62a5.3,5.3,0,1,0-5.29-5.29A5.3,5.3,0,0,0,401.28,183.36Z"/><rect class="cls-1" x="384.05" y="177.75" width="29.54" height="0.62"/><polygon class="cls-1" points="413.88 180.45 416.26 178.06 413.88 175.68 414.32 175.24 417.14 178.06 414.32 180.89 413.88 180.45"/><polygon class="cls-1" points="416.24 180.45 418.62 178.06 416.24 175.68 416.68 175.24 419.5 178.06 416.68 180.89 416.24 180.45"/><polygon class="cls-1" points="418.6 180.45 420.98 178.06 418.6 175.68 419.04 175.24 421.86 178.06 419.04 180.89 418.6 180.45"/><rect class="cls-1" x="384.05" y="175.67" width="0.62" height="4.78"/><rect class="cls-1" x="382.44" y="175.67" width="0.62" height="4.78"/><rect class="cls-1" x="380.82" y="175.67" width="0.62" height="4.78"/><rect class="cls-1" x="473.84" y="114.68" width="0.62" height="73.5"/><path class="cls-1" d="M474.15,122.59a7.6,7.6,0,1,1,7.59-7.59A7.6,7.6,0,0,1,474.15,122.59Zm0-.62a7,7,0,1,0-7-7A7,7,0,0,0,474.15,122Z"/><path class="cls-1" d="M474.15,117.24A2.25,2.25,0,1,1,476.4,115,2.24,2.24,0,0,1,474.15,117.24Z"/><polygon class="cls-1" points="493.06 96.53 492.61 96.09 492.39 96.31 473.71 115 474.15 115.44 474.37 115.22 493.06 96.53"/><rect class="cls-1" x="485.61" y="98.3" width="0.62" height="9.86" transform="translate(69.28 373.76) rotate(-44.99)"/><rect class="cls-1" x="483.98" y="99.92" width="0.62" height="9.86" transform="translate(67.75 373.23) rotate(-45.01)"/><path class="cls-1" d="M494.57,98.53l-3.95-4,6.7-2.74Zm-.22-1.11L496.18,93l-4.46,1.83Z"/><circle class="cls-2" cx="128.47" cy="114.97" r="24.03"/><path class="cls-1" d="M128.47,126.56A11.6,11.6,0,1,1,140.06,115,11.61,11.61,0,0,1,128.47,126.56Zm0-22.6a11,11,0,1,0,11,11A11,11,0,0,0,128.47,104Z"/><path class="cls-1" d="M73,135A20.07,20.07,0,1,1,93.1,115,20.09,20.09,0,0,1,73,135Zm0-39.55A19.48,19.48,0,1,0,92.51,115,19.5,19.5,0,0,0,73,95.49Z"/><circle class="cls-1" cx="128.47" cy="114.97" r="7.15"/><rect class="cls-1" x="128.17" y="89.01" width="0.59" height="14.65"/><path class="cls-1" d="M128.47,89.43,118.25,79.22,128.47,69l10.22,10.22-.21.2Zm-9.38-10.21,9.38,9.38,9.38-9.38-9.38-9.38Z"/><rect class="cls-1" x="128.17" y="126.26" width="0.59" height="31.78"/><path class="cls-1" d="M145.18,162.58H111.76v-4.83h33.42ZM112.35,162h32.24v-3.65H112.35Z"/><rect class="cls-1" x="234.93" y="113.79" width="16.42" height="2.36"/><rect class="cls-1" x="234.93" y="107.05" width="16.42" height="2.36"/><rect class="cls-1" x="234.93" y="120.52" width="16.42" height="2.36"/><path class="cls-1" d="M145.18,171.05H111.76v-4.82h33.42Zm-32.83-.59h32.24v-3.64H112.35Z"/><path class="cls-1" d="M145.18,179.53H111.76V174.7h33.42Zm-32.83-.59h32.24v-3.65H112.35Z"/><rect class="cls-1" x="128.17" y="179.23" width="0.59" height="22.95"/><polygon class="cls-1" points="134.83 202.18 122.11 202.18 128.47 214.89 134.83 202.18"/><polygon class="cls-1" points="29.13 223.29 20.14 214.3 15.65 227.78 29.13 223.29"/><rect class="cls-1" x="128.17" y="33.93" width="0.59" height="35.49"/><polygon class="cls-1" points="118.53 44.29 118.11 43.87 128.47 33.51 138.83 43.87 138.41 44.29 128.47 34.35 118.53 44.29"/><polygon class="cls-1" points="138.41 39.22 128.47 29.27 118.53 39.22 118.11 38.8 128.47 28.44 138.83 38.8 138.41 39.22"/><polygon class="cls-1" points="119.15 34.77 117.48 33.09 128.47 22.11 139.46 33.09 137.78 34.77 128.47 25.45 119.15 34.77"/><polygon class="cls-1" points="119.15 29.69 117.48 28.02 128.47 17.03 139.46 28.02 137.78 29.69 128.47 20.38 119.15 29.69"/><rect class="cls-1" x="92.81" y="114.67" width="24.36" height="0.59"/><path class="cls-1" d="M73,130.44A15.48,15.48,0,1,1,88.51,115,15.5,15.5,0,0,1,73,130.44Zm0-30.36A14.89,14.89,0,1,0,87.92,115,14.9,14.9,0,0,0,73,100.08Z"/><rect class="cls-1" x="57.85" y="114.67" width="30.37" height="0.59" transform="translate(-59.83 84.98) rotate(-44.85)"/><rect class="cls-1" x="55.1" y="111.92" width="30.37" height="0.59" transform="translate(-58.69 82.24) rotate(-44.85)"/><rect class="cls-1" x="54.49" y="109.17" width="26.08" height="0.59" transform="translate(-57.54 79.46) rotate(-44.84)"/><rect class="cls-1" x="55.07" y="106.42" width="19.44" height="0.59" transform="translate(-56.49 77.07) rotate(-45)"/><rect class="cls-1" x="60.6" y="117.42" width="30.37" height="0.59" transform="translate(-60.95 87.64) rotate(-44.82)"/><rect class="cls-1" x="65.49" y="120.17" width="26.08" height="0.59" transform="translate(-62.1 90.42) rotate(-44.84)"/><rect class="cls-1" x="71.56" y="122.92" width="19.44" height="0.59" transform="translate(-63.24 93.16) rotate(-44.84)"/><rect class="cls-1" x="6.65" y="114.67" width="46.61" height="0.59"/><path class="cls-1" d="M3.47,118.44A3.48,3.48,0,1,1,7,115,3.48,3.48,0,0,1,3.47,118.44Zm0-6.36A2.89,2.89,0,1,0,6.36,115,2.89,2.89,0,0,0,3.47,112.08Z"/><path class="cls-1" d="M15.39,102.12a3.18,3.18,0,1,0-3.18,3.18A3.18,3.18,0,0,0,15.39,102.12Z"/><path class="cls-1" d="M15.39,127.81A3.18,3.18,0,1,0,12.21,131,3.18,3.18,0,0,0,15.39,127.81Z"/><rect class="cls-1" x="11.92" y="105.3" width="0.59" height="19.33"/><rect class="cls-1" x="139.77" y="114.67" width="14.39" height="0.59"/><polygon class="cls-1" points="151.15 118.4 150.73 117.98 157.17 111.54 157.59 111.95 151.15 118.4"/><polygon class="cls-1" points="155.43 118.4 155.01 117.98 161.45 111.54 161.87 111.95 155.43 118.4"/><polygon class="cls-1" points="159.71 118.4 159.29 117.98 165.73 111.54 166.15 111.95 159.71 118.4"/><rect class="cls-1" x="162.72" y="114.67" width="28.42" height="0.59"/><circle class="cls-1" cx="198.29" cy="114.97" r="7.15"/><path class="cls-1" d="M196.57,98.06a1.73,1.73,0,1,1,1.72,1.72A1.72,1.72,0,0,1,196.57,98.06Z"/><path class="cls-1" d="M192.26,99.08a1.72,1.72,0,1,1,2.11,1.22A1.71,1.71,0,0,1,192.26,99.08Z"/><path class="cls-1" d="M188.35,101.19a1.72,1.72,0,0,1,.63-2.35,1.72,1.72,0,0,1,1.72,3A1.73,1.73,0,0,1,188.35,101.19Z"/><circle class="cls-1" cx="186.34" cy="103.01" r="1.72"/><path class="cls-1" d="M182.79,108a1.73,1.73,0,1,1,2.36-.63A1.74,1.74,0,0,1,182.79,108Z"/><path class="cls-1" d="M181.52,112.25a1.72,1.72,0,1,1,2.11-1.21A1.72,1.72,0,0,1,181.52,112.25Z"/><path class="cls-1" d="M181.39,116.69a1.72,1.72,0,1,1,1.72-1.72A1.72,1.72,0,0,1,181.39,116.69Z"/><path class="cls-1" d="M182.41,121a1.72,1.72,0,1,1,1.22-2.1A1.72,1.72,0,0,1,182.41,121Z"/><path class="cls-1" d="M184.52,124.91a1.72,1.72,0,1,1-1.73-3,1.72,1.72,0,1,1,1.73,3Z"/><path class="cls-1" d="M187.56,128.14a1.73,1.73,0,1,1,0-2.44A1.73,1.73,0,0,1,187.56,128.14Z"/><path class="cls-1" d="M191.33,130.47a1.72,1.72,0,1,1-.63-2.35A1.71,1.71,0,0,1,191.33,130.47Z"/><path class="cls-1" d="M109.21,172.73a1.72,1.72,0,1,1-.42-2.39A1.72,1.72,0,0,1,109.21,172.73Z"/><path class="cls-1" d="M104.25,170.84a1.72,1.72,0,1,1-.21-2.43A1.72,1.72,0,0,1,104.25,170.84Z"/><path class="cls-1" d="M99.47,168.51a1.7,1.7,0,0,1-2.43,0,1.72,1.72,0,0,1,2.43-2.43A1.7,1.7,0,0,1,99.47,168.51Z"/><path class="cls-1" d="M94.92,165.78a1.72,1.72,0,1,1,.21-2.42A1.73,1.73,0,0,1,94.92,165.78Z"/><path class="cls-1" d="M90.62,162.66a1.72,1.72,0,1,1,.42-2.39A1.72,1.72,0,0,1,90.62,162.66Z"/><path class="cls-1" d="M86.6,159.18a1.71,1.71,0,0,1-2.35-.63,1.72,1.72,0,0,1,3-1.72A1.71,1.71,0,0,1,86.6,159.18Z"/><path class="cls-1" d="M82.91,155.37a1.72,1.72,0,1,1,.83-2.29A1.72,1.72,0,0,1,82.91,155.37Z"/><path class="cls-1" d="M79.56,151.24a1.72,1.72,0,1,1,1-2.2A1.71,1.71,0,0,1,79.56,151.24Z"/><path class="cls-1" d="M76.59,146.84a1.72,1.72,0,1,1,1.21-2.11A1.72,1.72,0,0,1,76.59,146.84Z"/><path class="cls-1" d="M74,142.2a1.72,1.72,0,1,1,1.39-2A1.73,1.73,0,0,1,74,142.2Z"/><path class="cls-1" d="M200,131.87a1.73,1.73,0,1,1-1.73-1.72A1.72,1.72,0,0,1,200,131.87Z"/><path class="cls-1" d="M204.33,130.85a1.72,1.72,0,1,1-2.11-1.22A1.72,1.72,0,0,1,204.33,130.85Z"/><path class="cls-1" d="M208.24,128.75a1.72,1.72,0,1,1-3,1.72,1.72,1.72,0,0,1,3-1.72Z"/><path class="cls-1" d="M211.47,125.7a1.73,1.73,0,1,1-2.44,0A1.73,1.73,0,0,1,211.47,125.7Z"/><path class="cls-1" d="M213.8,121.93a1.72,1.72,0,1,1-2.36.63A1.73,1.73,0,0,1,213.8,121.93Z"/><path class="cls-1" d="M215.07,117.68a1.72,1.72,0,1,1-.89,3.32,1.72,1.72,0,1,1,.89-3.32Z"/><path class="cls-1" d="M215.2,113.25a1.72,1.72,0,1,1-1.72,1.72A1.72,1.72,0,0,1,215.2,113.25Z"/><path class="cls-1" d="M214.18,108.93A1.72,1.72,0,1,1,213,111,1.72,1.72,0,0,1,214.18,108.93Z"/><path class="cls-1" d="M212.07,105a1.73,1.73,0,1,1-.63,2.36A1.74,1.74,0,0,1,212.07,105Z"/><path class="cls-1" d="M209,101.8a1.72,1.72,0,0,1,2.44,2.43A1.72,1.72,0,0,1,209,101.8Z"/><path class="cls-1" d="M205.26,99.47a1.71,1.71,0,0,1,2.35-.63,1.72,1.72,0,1,1-2.35.63Z"/><path class="cls-1" d="M201,98.19a1.72,1.72,0,1,1,1.21,2.11A1.71,1.71,0,0,1,201,98.19Z"/><rect class="cls-1" x="205.44" y="114.67" width="29.75" height="0.59"/><path class="cls-1" d="M256.22,121l-.42-.42a8,8,0,0,0,0-11.25l.42-.42A8.55,8.55,0,0,1,256.22,121Z"/><path class="cls-1" d="M259.47,121l-.42-.42a8,8,0,0,0,0-11.25l.42-.42A8.56,8.56,0,0,1,259.47,121Z"/><path class="cls-1" d="M262.72,121l-.42-.42a8,8,0,0,0,0-11.25l.42-.42A8.56,8.56,0,0,1,262.72,121Z"/><path class="cls-1" d="M266,121l-.42-.42a8,8,0,0,0,0-11.25l.42-.42A8.56,8.56,0,0,1,266,121Z"/><path class="cls-1" d="M182.76,105.27l0-.29A55.16,55.16,0,0,0,76.82,95.61l-.1.27-.55-.2.1-.28a55.75,55.75,0,0,1,107,9.48l.05.29Z"/><path class="cls-1" d="M144.89,168.23a.28.28,0,0,1-.28-.21.29.29,0,0,1,.19-.37,54.93,54.93,0,0,0,37.91-42.71.3.3,0,0,1,.58.11A55.49,55.49,0,0,1,145,168.21Z"/><path class="cls-1" d="M112.26,168.3l-.28-.08a56.1,56.1,0,0,1-35.71-33.69l-.11-.28.56-.2.1.27a55.5,55.5,0,0,0,35.33,33.33l.29.09Z"/><path class="cls-1" d="M128.47,202.48A87.61,87.61,0,0,1,41,115h.59a87,87,0,0,0,86.92,86.92Z"/><path class="cls-1" d="M128.47,210.6A95.74,95.74,0,0,1,32.84,115h.59a95.15,95.15,0,0,0,95,95Z"/><polygon class="cls-1" points="24.34 219.52 23.92 219.1 66.59 176.43 67.01 176.85 24.34 219.52"/><rect class="cls-1" x="28.33" y="162.59" width="25.63" height="2.36" transform="translate(-74.7 40.91) rotate(-29.21)"/><rect class="cls-1" x="85.33" y="196.29" width="8.12" height="2.36" transform="translate(-127.34 193.86) rotate(-64.69)"/><rect class="cls-1" x="88.95" y="197.91" width="8.13" height="2.36" transform="translate(-126.58 207.47) rotate(-67.14)"/><circle class="cls-1" cx="45.05" cy="198.39" r="3.44"/><rect class="cls-1" x="61.83" y="10.06" width="0.59" height="77.13" transform="translate(-16.18 58.17) rotate(-45)"/><path class="cls-1" d="M32.62,23.46a4.76,4.76,0,1,1,4.76-4.76A4.76,4.76,0,0,1,32.62,23.46Zm0-7.15A2.4,2.4,0,1,0,35,18.7,2.39,2.39,0,0,0,32.62,16.31Z"/><path class="cls-1" d="M27,24.31A7.93,7.93,0,1,1,38.23,13.1l-.42.41A7.34,7.34,0,0,0,27.43,23.89Z"/><path class="cls-1" d="M25.08,26.25A10.67,10.67,0,0,1,40.16,11.16l-.41.42A10.08,10.08,0,1,0,25.5,25.83Z"/><path class="cls-1" d="M23.14,28.18a13.41,13.41,0,0,1,19-19l-.42.42A12.81,12.81,0,0,0,23.56,27.76Z"/><rect class="cls-1" x="38.4" y="24.45" width="0.59" height="7.05" transform="translate(-8.45 35.56) rotate(-45)"/><rect class="cls-1" x="41.59" y="21.25" width="0.59" height="7.05" transform="translate(-5.25 36.88) rotate(-45)"/><rect class="cls-1" x="36.83" y="26.01" width="0.59" height="7.05" transform="translate(-10.01 34.91) rotate(-45)"/><rect class="cls-1" x="35.27" y="27.58" width="0.59" height="7.05" transform="translate(-11.58 34.26) rotate(-45)"/><rect class="cls-1" x="40.68" y="21.57" width="8.25" height="0.59" transform="translate(-2.34 38.09) rotate(-45)"/><polygon class="cls-1" points="172.08 71.78 171.66 71.36 207.75 35.26 208.18 35.68 172.08 71.78"/><path class="cls-1" d="M213.94,32.15a2.65,2.65,0,1,0-2.65,2.65A2.65,2.65,0,0,0,213.94,32.15Z"/><path class="cls-1" d="M211.29,37.15a5,5,0,1,1,5-5A5,5,0,0,1,211.29,37.15Zm0-9.41a4.41,4.41,0,1,0,4.41,4.41A4.42,4.42,0,0,0,211.29,27.74Z"/><polygon class="cls-1" points="214.83 29.03 214.41 28.61 234.16 8.86 234.58 9.28 214.83 29.03"/><path class="cls-1" d="M236.38,9.07a2,2,0,1,0-2,2A2,2,0,0,0,236.38,9.07Z"/><path class="cls-1" d="M202.82,20.61a2,2,0,1,0-2,2A2,2,0,0,0,202.82,20.61Z"/><path class="cls-1" d="M211.29,48h-.1v-.6h.1c.36,0,.71,0,1.06,0l0,.59C212,48,211.66,48,211.29,48ZM210,48c-.41,0-.81-.08-1.2-.14l.09-.58c.38.06.76.1,1.15.13Zm3.6-.11-.09-.59a10.43,10.43,0,0,0,1.14-.21l.13.58C214.38,47.71,214,47.78,213.59,47.84Zm-6-.26c-.39-.1-.78-.2-1.16-.33l.18-.56c.37.12.74.22,1.12.31Zm8.32-.27-.17-.56c.37-.11.74-.24,1.1-.38l.21.55C216.7,47.06,216.32,47.2,215.93,47.31Zm-10.61-.47c-.37-.15-.74-.31-1.09-.49l.26-.53q.51.26,1,.48Zm12.86-.41-.26-.53q.53-.26,1-.54l.3.51C218.9,46.07,218.54,46.26,218.18,46.43Zm-15-.66c-.35-.21-.68-.42-1-.66l.34-.48c.32.22.64.43,1,.63Zm17.09-.54-.34-.49q.48-.33.93-.69l.37.46Q220.76,44.89,220.26,45.23Zm-19.06-.84c-.31-.26-.6-.53-.9-.8l.42-.43c.27.27.56.52.86.77Zm20.93-.67-.4-.43c.28-.27.55-.54.81-.83l.44.4C222.71,43.16,222.42,43.44,222.13,43.72Zm-22.66-1c-.27-.3-.53-.61-.77-.93l.47-.36c.24.31.48.61.74.9Zm24.29-.78-.47-.36c.24-.3.47-.62.69-.94l.49.33C224.24,41.31,224,41.63,223.76,41.94ZM198,40.81c-.22-.33-.43-.68-.63-1l.52-.29c.19.34.39.68.6,1ZM225.1,40l-.51-.29c.19-.34.36-.68.53-1l.53.25C225.48,39.24,225.3,39.6,225.1,40ZM196.84,38.7q-.24-.54-.45-1.11l.55-.21c.14.37.29.73.44,1.08Zm29.28-.93-.55-.21c.13-.36.26-.73.37-1.1l.56.18C226.39,37,226.26,37.4,226.12,37.77ZM196,36.44c-.11-.38-.2-.77-.28-1.17l.58-.12c.08.39.17.76.27,1.13Zm30.78-1-.58-.12c.08-.37.15-.75.2-1.14l.59.08C227,34.68,226.88,35.07,226.8,35.46Zm-31.25-1.38c-.05-.39-.08-.79-.1-1.2l.59,0c0,.38.05.77.1,1.15Zm31.57-1-.59,0q0-.45,0-.9c0-.39,0-.78-.05-1.16l.59,0c0,.4.05.8.05,1.21S227.14,32.77,227.12,33.08ZM196,31.7l-.59,0c0-.4,0-.8.08-1.2l.58.06C196.06,30.92,196,31.31,196,31.7Zm30.35-1.86c-.06-.39-.13-.76-.21-1.14l.57-.13c.09.39.17.78.23,1.18Zm-30.11-.45-.58-.1c.07-.4.16-.79.26-1.18l.57.15C196.42,28.63,196.34,29,196.27,29.39Zm29.59-1.81a10.9,10.9,0,0,0-.39-1.09l.55-.22c.15.36.28.74.41,1.14Zm-29-.43L196.3,27a11.81,11.81,0,0,1,.44-1.12l.54.24A10.78,10.78,0,0,0,196.86,27.15ZM225,25.43c-.17-.35-.35-.69-.55-1l.51-.3a10.81,10.81,0,0,1,.57,1.06ZM197.78,25l-.52-.27c.18-.36.39-.71.6-1.05l.5.32C198.15,24.36,198,24.69,197.78,25Zm26.05-1.6c-.23-.31-.46-.62-.7-.92l.45-.38c.26.32.5.64.73,1ZM199,23.07l-.48-.35c.24-.32.5-.63.76-.94l.44.39Q199.36,22.61,199,23.07Zm23.35-1.43c-.26-.28-.54-.55-.83-.81l.4-.44c.3.27.59.55.86.84Zm-21.83-.32-.42-.42c.28-.28.58-.55.88-.81l.39.45C201.08,20.79,200.8,21.05,200.53,21.32Zm20.12-1.24c-.31-.23-.62-.46-1-.67l.33-.49c.33.22.66.45,1,.7Zm-18.37-.26-.34-.48c.32-.24.66-.46,1-.67l.31.5C202.92,19.37,202.6,19.59,202.28,19.82Zm16.44-1c-.34-.19-.69-.37-1-.53l.25-.54c.36.17.72.35,1.07.55Zm-14.47-.22-.27-.52c.36-.19.72-.36,1.09-.52l.23.55C205,18.25,204.6,18.42,204.25,18.59Zm12.36-.76c-.36-.13-.72-.25-1.1-.36l.17-.57c.38.11.76.24,1.14.38Zm-10.22-.15-.19-.55c.38-.13.76-.25,1.15-.35l.15.57Q206.93,17.5,206.39,17.68Zm8-.48c-.38-.08-.76-.15-1.14-.2l.07-.58c.41,0,.8.12,1.19.2Zm-5.76-.09-.1-.58c.39-.07.79-.12,1.19-.16l.06.58C209.39,17,209,17,208.63,17.11Zm3.47-.21a11.39,11.39,0,0,0-1.17,0v-.6c.42,0,.81,0,1.2,0Z"/><path class="cls-1" d="M190.14,115h-.59a61.15,61.15,0,0,0-61.08-61.08V53.3A61.74,61.74,0,0,1,190.14,115Z"/><rect class="cls-1" x="164.24" y="100.03" width="0.59" height="102" transform="translate(-58.6 160.57) rotate(-45)"/><rect class="cls-1" x="117.14" y="99.63" width="0.59" height="8.61" transform="translate(-39.1 113.48) rotate(-45)"/><polygon class="cls-1" points="114.6 129.26 114.18 128.84 120.27 122.75 120.69 123.17 114.6 129.26"/><polygon class="cls-1" points="136.67 107.19 136.25 106.77 142.34 100.68 142.76 101.1 136.67 107.19"/><path class="cls-1" d="M208.47,206.78A11.82,11.82,0,1,1,220.29,195,11.83,11.83,0,0,1,208.47,206.78Zm0-21.27a9.46,9.46,0,1,0,9.45,9.45A9.46,9.46,0,0,0,208.47,185.51Z"/><path class="cls-1" d="M208.47,201.42a6.45,6.45,0,1,1,6.45-6.46A6.46,6.46,0,0,1,208.47,201.42Zm0-12.31a5.86,5.86,0,1,0,5.86,5.85A5.87,5.87,0,0,0,208.47,189.11Z"/><path class="cls-1" d="M179.46,200a3.77,3.77,0,0,1,0-7.53,3.7,3.7,0,0,1,2.66,1.11,3.76,3.76,0,0,1-2.66,6.42Zm0-6.93a3.17,3.17,0,1,0,2.24.93A3.14,3.14,0,0,0,179.46,193Z"/><circle class="cls-1" cx="172.08" cy="203.59" r="1.73"/><path class="cls-1" d="M209.69,166a1.73,1.73,0,1,1-2.45,0A1.73,1.73,0,0,1,209.69,166Z"/><rect class="cls-1" x="176.49" y="180.17" width="37.44" height="0.59" transform="translate(-70.44 190.81) rotate(-44.98)"/><rect class="cls-1" x="171.06" y="200.83" width="6.97" height="0.59" transform="translate(-91.09 182.33) rotate(-45)"/><rect class="cls-1" x="177.17" y="157.73" width="0.59" height="12.45"/><rect class="cls-1" x="180.01" y="160.58" width="0.59" height="12.45"/><rect class="cls-1" x="182.86" y="163.43" width="0.59" height="12.45"/><rect class="cls-3" x="124.34" y="75.09" width="8.25" height="8.25" transform="translate(-18.39 114.04) rotate(-45)"/></svg>