<svg id="Layer_1" data-name="Layer 1" xmlns="http://www.w3.org/2000/svg" viewBox="0 0 175.5 190.34"><defs><style>.cls-1{fill:#c5c5c5;}.cls-2,.cls-6{fill:none;stroke:#222221;stroke-linecap:round;stroke-linejoin:round;}.cls-2{stroke-width:1.25px;}.cls-3{fill:#e5e5e5;}.cls-4{fill:#070707;}.cls-5{fill:#fff;}.cls-6{stroke-width:0.63px;}</style></defs><path class="cls-1" d="M164.78,68.7A7.06,7.06,0,0,1,167,61.47a10.73,10.73,0,0,1,7.74-2.37c-1.55.7-2,1.9-2.79,3.41a21.35,21.35,0,0,1-2.54,4.4c-1.12,1.28-2.87,2.57-4.5,2.07C164.84,68.89,164.81,68.79,164.78,68.7Z"/><path class="cls-1" d="M160.45,68.32c.43,2.21-.18,4.36-.55,6.58a11.5,11.5,0,0,1-3.45-11.36A6,6,0,0,1,160.45,68.32Z"/><path class="cls-1" d="M165.76,77.61c2.25,0,4.25-1,6.36-1.78a11.47,11.47,0,0,0-11.81-1.23A6,6,0,0,0,165.76,77.61Z"/><path class="cls-1" d="M164.06,83.66c-1.65,1.94-2.53,4.41-5,5.1a7,7,0,0,1-6.72-2l.31-.49a7.15,7.15,0,0,1,2-2.06c2.82-1.67,6.66.4,9.65-1Z"/><path class="cls-1" d="M152.14,79.66a11,11,0,0,1,.17,7.24,9.63,9.63,0,0,1-5-12.56A10.82,10.82,0,0,1,152.14,79.66Z"/><path class="cls-1" d="M164.54,94.57a28.41,28.41,0,0,1-3.27,5.46,8.7,8.7,0,0,1-5,3.22c-2.74.53-4.85-1.09-7.23-2.56A15.08,15.08,0,0,1,164.54,94.57Z"/><path class="cls-1" d="M132.92,98.29a28.56,28.56,0,0,0,4.63,4.37,8.68,8.68,0,0,0,5.63,1.76c2.79-.23,4.38-2.36,6.27-4.42A15.08,15.08,0,0,0,132.92,98.29Z"/><path class="cls-1" d="M169.29,106.51a36,36,0,0,1-4,6.73,10.82,10.82,0,0,1-6.11,4c-3.39.66-6-1.34-8.92-3.15A18.57,18.57,0,0,1,169.29,106.51Z"/><path class="cls-1" d="M130.27,111.1a36.84,36.84,0,0,0,5.71,5.39,10.81,10.81,0,0,0,7,2.16c3.43-.28,5.4-2.91,7.73-5.45A18.59,18.59,0,0,0,130.27,111.1Z"/><path class="cls-2" d="M165,68.87c-5.4,6-9.34,13-13.25,20-4.19,7.54-2.59,29.46,0,37.09"/><path class="cls-2" d="M174.88,58.88a10.72,10.72,0,0,0-7.74,2.38,7,7,0,0,0-2.09,7.51c1.62.5,3.38-.8,4.49-2.07a21.16,21.16,0,0,0,2.54-4.41C172.86,60.79,173.33,59.58,174.88,58.88Z"/><path class="cls-2" d="M160.05,74.71a11.5,11.5,0,0,1-3.44-11.36,6,6,0,0,1,4,4.78C161,70.34,160.43,72.48,160.05,74.71Z"/><path class="cls-2" d="M156.86,63.48a71,71,0,0,1,2.77,9.59"/><path class="cls-2" d="M172,76a11.5,11.5,0,0,0-11.8-1.23,6,6,0,0,0,5.45,3C167.85,77.8,169.84,76.8,172,76Z"/><path class="cls-2" d="M160.33,75a71.86,71.86,0,0,0,9.93.9"/><path class="cls-2" d="M165.4,68.09a35.36,35.36,0,0,1,8.14-9.27"/><path class="cls-2" d="M164.22,83.45l.3-.36c-3,1.35-6.83-.72-9.65,1a8.43,8.43,0,0,0-2.37,2.53,6.94,6.94,0,0,0,6.74,2C161.69,87.85,162.57,85.39,164.22,83.45Z"/><path class="cls-2" d="M152.47,86.69a9.64,9.64,0,0,1-5-12.56,10.78,10.78,0,0,1,4.79,5.32A11,11,0,0,1,152.47,86.69Z"/><path class="cls-2" d="M147.8,74.35a38,38,0,0,0,3.89,11.37"/><path class="cls-2" d="M153.05,86.43a24,24,0,0,0,9.79-2.32"/><path class="cls-2" d="M164.77,94.28a15.09,15.09,0,0,0-15.46,6.12c2.38,1.47,4.49,3.09,7.24,2.56a8.71,8.71,0,0,0,4.94-3.22A28.45,28.45,0,0,0,164.77,94.28Z"/><path class="cls-2" d="M149.76,100.37c4.8-1.43,10.52-3.19,14.78-5.8"/><path class="cls-2" d="M132.62,98.08a15.06,15.06,0,0,1,16.54,1.7c-1.89,2.06-3.49,4.19-6.27,4.42a8.78,8.78,0,0,1-5.64-1.76A29.83,29.83,0,0,1,132.62,98.08Z"/><path class="cls-2" d="M149.31,100.4a70.07,70.07,0,0,1-16.39-2.11"/><path class="cls-2" d="M168.68,107.07a18,18,0,0,0-18.48,7.32c2.85,1.76,5.37,3.69,8.65,3.06a10.47,10.47,0,0,0,5.91-3.85A34.8,34.8,0,0,0,168.68,107.07Z"/><path class="cls-2" d="M150.2,114.39c6.66.32,13.11-3.85,18.21-7"/><path class="cls-2" d="M130.25,111.61a18,18,0,0,1,19.77,2c-2.26,2.46-4.16,5-7.5,5.28a10.51,10.51,0,0,1-6.73-2.1A35.52,35.52,0,0,1,130.25,111.61Z"/><path class="cls-2" d="M149.92,113.87c-6.64,1.85-13.56-.38-19.31-2"/><path class="cls-3" d="M149.87,93.78l.11.09a.48.48,0,0,1-.21.19,2,2,0,0,1-.8,0c-2-.6-3.95-1.1-5.92-1.67-.38-.1-.74-.22-1.12-.33a4.32,4.32,0,0,1-2.9-3.33,2.3,2.3,0,0,1,.06-.73l.08,0C143.17,87.55,148.38,92,149.87,93.78Z"/><path class="cls-3" d="M148,89.24c1.14,1.13,2.21,2.56,2.1,4.17a1.16,1.16,0,0,1-.12.46l-.11-.09c-1.49-1.8-6.7-6.23-10.7-5.71l-.08,0a4,4,0,0,1,2.74-2.79.89.89,0,0,1,.23,0,1.19,1.19,0,0,1,.41.11A20.3,20.3,0,0,1,148,89.24Z"/><path class="cls-4" d="M129.59,82.79a3,3,0,0,1,0,1.08A1.24,1.24,0,0,1,128.26,85a1,1,0,0,1-.32-.14,1.73,1.73,0,0,1-.61-1.41,1.77,1.77,0,0,1,.44-1.27,1.08,1.08,0,0,1,1.14-.27A1.26,1.26,0,0,1,129.59,82.79Z"/><path class="cls-5" d="M79,37.87l.3.28Zm-61-5c-.19-.4-.36-.83-.53-1.17A4.29,4.29,0,0,1,17,30.33c-.05-.48,0-.61.38-.89s1.56-.73,2-.31a4.82,4.82,0,0,1,.93,1.71C27.49,47.56,40.21,61.74,55,72.35q4.8,3.45,9.82,6.53v0c-.13-3.28,4-5.62,6.27-5.53a6.93,6.93,0,0,1-3-2.84,4.26,4.26,0,0,1,.24-4c.8-1.16,2.91-2.07,4.18-1.49-2.35-1.14-4.41-3.08-3.41-5.43.86-2.06,2.59-2.8,4.75-2.62a8.91,8.91,0,0,0,1,.13c-.32-.06-.64-.1-1-.13-2.08-.33-3.13-1-3.84-2.39a5.88,5.88,0,0,1-.47-4.34,5.27,5.27,0,0,1,1.64-3,3.61,3.61,0,0,1,3-.66,2.5,2.5,0,0,0,.49.1c-.17,0-.34-.08-.49-.1-1.68-.52-2.61-2.74-2.73-4.33a5.24,5.24,0,0,1,2.31-4.81,4.45,4.45,0,0,1,5.3.46c-1.55-1.5-3.18-2.86-3.58-5-.47-2.52.25-5.55,2.88-6.56a5.16,5.16,0,0,1,2.91-.18,11.37,11.37,0,0,1,2.61,1.17c-3.78-1.87-4.42-7.47-3.25-11.1.58-1.82,2.26-4,4.35-3.93,1.87,0,4.34.73,5.38,2.43s1.12,3.9,1.95,6.26c-.68-3.7-2-6.84-1.8-10.37.1-1.93.59-4.06,2.22-5.07a4.47,4.47,0,0,1,5.29.94,9.27,9.27,0,0,1,2.27,5.24c.28,1.92.52,4.52,1,6.41-.52-4.3-1.41-7.93-.67-11.87a9.17,9.17,0,0,1,1.39-3.73,3.75,3.75,0,0,1,6.42,0,10,10,0,0,1,1.44,3.31,35.57,35.57,0,0,1,1.22,10.06,21.07,21.07,0,0,0-.17,3.07c.1-1,.16-2,.17-3.07a20.73,20.73,0,0,1,3-8.41c.93-1.47,2.38-3,4.1-2.73,2.49.34,3,3.68,2.91,6.19a648.3,648.3,0,0,1-7.49,72l.09.07A12.32,12.32,0,0,1,116.32,80c4.34-3,9.24-5.12,14.85-4,4.23.86,9.93,4.36,10.91,8.9l0,.37a.89.89,0,0,0-.23,0,4,4,0,0,0-2.74,2.79,2.3,2.3,0,0,0-.06.73,4.32,4.32,0,0,0,2.9,3.33c.38.11.74.23,1.12.33l0,.06c-4.36.27-7.17,1.65-10.51,4.46a20.87,20.87,0,0,0-6.49,9.91.11.11,0,0,0,0,0,26.22,26.22,0,0,0-.42,7.71c.3,5.37.33,13.47-1.78,18.47-5.1,12.07-14.33,20-26.62,23.66-10.44,3.12-25.56,3.83-36.43,1.51l-7.9,19.32A6.81,6.81,0,0,1,50.59,181a2.16,2.16,0,0,1-3.23-.85,34.4,34.4,0,0,1-3,6,3.86,3.86,0,0,1-2.61,1.43c-1,0-2.46-1.46-2.12-2.58l.07-.16,0,.09a.64.64,0,0,1,0,.07,10,10,0,0,1-2,3.28A4.41,4.41,0,0,1,34,189.68a3.39,3.39,0,0,1-2.65-2.39,4.39,4.39,0,0,1,.72-3.56c-.8,1.13-1.73,1.94-3,1.82a2.84,2.84,0,0,1-2.67-2.33,3.77,3.77,0,0,1,.71-2.56l0,0a2.76,2.76,0,0,1-2.54.75,2.16,2.16,0,0,1-1.21-2,4.14,4.14,0,0,1,.86-2.17,16.9,16.9,0,0,1,3.85-3.9c.16-.15.38-.35.62-.59a6.58,6.58,0,0,1-2.93,1.12,4.75,4.75,0,0,1-2,0,2.76,2.76,0,0,1-1.64-1.28,2.85,2.85,0,0,1,.34-2.76,12.46,12.46,0,0,1,3.39-3.32c2.29-1.74,4.51-3.61,6.86-5.28L47.55,150.8c9.26-9.58,12.58-21.15,17.59-29.71l0,0a7.5,7.5,0,0,1-4.49,1.85c-1.88-.15-3.9-1.7-4-3.58a3.41,3.41,0,0,1-4,1.62,3.06,3.06,0,0,1-2-3.44,4.16,4.16,0,0,1-4.19,1,4.24,4.24,0,0,1-2.61-3.46,3.64,3.64,0,0,1-4.15.55,3.93,3.93,0,0,1-1.83-4,4,4,0,0,1-4.51.09,3.51,3.51,0,0,1-1.21-4,3.34,3.34,0,0,1-4.45.49c-1.31-1-2-2.9-1-4.24-.93.63-2.14-.23-2.89-1.08a2.44,2.44,0,0,1,0-3.1,2.58,2.58,0,0,1-3.09-.52,2.63,2.63,0,0,1-.11-3.17,4.1,4.1,0,0,1-3.64-1.9,5.27,5.27,0,0,1-.9-4.6,5.11,5.11,0,0,1-4.37-2.4,4.93,4.93,0,0,1-.29-4.87A6.43,6.43,0,0,1,6.7,78.65a6.76,6.76,0,0,1,0-6.1C4.79,72.33,2.81,69.87,2.38,68a4.8,4.8,0,0,1,2.07-5,11.41,11.41,0,0,1-4-4.2,4,4,0,0,1-.34-2.72c.1-.47.77-.93,1.19-1.16,1.24-.67,2.13.74,3.21,1.61a13,13,0,0,1-3.75-7.4,5.76,5.76,0,0,1,.51-4A2.8,2.8,0,0,1,4.81,44l0,0c-1-2.39-3-5.09-3.46-7.62a6.82,6.82,0,0,1-.06-3,3,3,0,0,1,1.87-2.18c.86-.26,2.8-.05,3.39.7l.15.28a.76.76,0,0,0-.15-.28,6.94,6.94,0,0,1-1.16-3,1.76,1.76,0,0,1,1.84-1.71c1,.07,3.4,3.29,3.81,4.23-.43-1.38-.87-2.77-1.32-4.15-.25-.8-.45-1.82.19-2.37a1.42,1.42,0,0,1,1.26-.24,3.24,3.24,0,0,1,1.17.63C14.93,27.23,16.54,30,18,32.85Zm0,0c.11.24.23.46.34.65Zm111.56,51a3,3,0,0,0,0-1.08,1.26,1.26,0,0,0-.68-.86,1.08,1.08,0,0,0-1.14.27,1.77,1.77,0,0,0-.44,1.27,1.73,1.73,0,0,0,.61,1.41,1,1,0,0,0,.32.14A1.24,1.24,0,0,0,129.6,83.87Z"/><path class="cls-6" d="M51.52,177.46c-.14.36-.28.72-.41,1.08"/><path class="cls-6" d="M44.29,183.67l-.48,1.05"/><path class="cls-6" d="M48.21,175.19c-1.21,2.67-2.36,5.09-3.54,7.66"/><path class="cls-6" d="M36.9,185.48l-.7,1.21"/><path class="cls-6" d="M31.56,181.39c-.35.46-.71.94-1.07,1.44"/><path class="cls-6" d="M27.31,178.43l-.85.86"/><path class="cls-2" d="M127.62,104.13c-1.63,3.26-1.63,6.94-1.43,10.5.3,5.37.34,13.47-1.78,18.47-5.1,12.07-14.33,20-26.62,23.66-10.44,3.11-25.55,3.83-36.43,1.51"/><path class="cls-2" d="M128.53,84.88a1,1,0,0,0,.32.14,1.24,1.24,0,0,0,1.34-1.15,3,3,0,0,0,0-1.08,1.26,1.26,0,0,0-.68-.86,1.1,1.1,0,0,0-1.14.27,2,2,0,0,0,.17,2.68Z"/><path class="cls-6" d="M82.66,155.23a46,46,0,0,0,21-6,39.52,39.52,0,0,0,17.62-24"/><path class="cls-6" d="M76.5,155.13a46.69,46.69,0,0,0,4.9.14"/><path class="cls-6" d="M73,154.69c.75.12,1.5.23,2.27.32"/><path class="cls-2" d="M114.08,82.83a646,646,0,0,0,7.49-72c.12-2.52-.42-5.86-2.91-6.2-1.72-.23-3.17,1.26-4.1,2.73a20.77,20.77,0,0,0-3.19,11.48,37,37,0,0,0-1.06-13.13,10,10,0,0,0-1.44-3.31,3.74,3.74,0,0,0-6.41,0,9.18,9.18,0,0,0-1.4,3.74c-.74,3.93.15,7.56.67,11.86-.43-1.89-.66-4.49-1-6.41a9.27,9.27,0,0,0-2.26-5.23,4.46,4.46,0,0,0-5.3-1c-1.63,1-2.12,3.15-2.22,5.06-.19,3.54,1.12,6.69,1.8,10.38-.82-2.36-.85-4.47-1.94-6.26s-3.52-2.4-5.39-2.44c-2.09,0-3.77,2.12-4.35,3.94-1.19,3.72-.49,9.52,3.54,11.23a15.11,15.11,0,0,0-2.9-1.3,5.12,5.12,0,0,0-2.9.18c-2.64,1-3.36,4-2.89,6.56.43,2.29,2.3,3.7,4,5.33a4.49,4.49,0,0,0-5.67-.81,5.26,5.26,0,0,0-2.31,4.8c.14,1.76,1.23,4.25,3.23,4.44a3.82,3.82,0,0,0-3.45.56,5.26,5.26,0,0,0-1.63,3,5.78,5.78,0,0,0,.47,4.34c.8,1.57,2,2.23,4.8,2.52-2.61-.5-4.74.13-5.72,2.49S70.7,63.83,73.05,65c-1.27-.58-3.38.33-4.17,1.49a4.24,4.24,0,0,0-.25,4,6.93,6.93,0,0,0,3,2.84c-2.3-.1-6.39,2.25-6.26,5.53"/><path class="cls-2" d="M11.67,31.45c-.42-.94-2.79-4.16-3.81-4.23A1.76,1.76,0,0,0,6,28.92c0,1,.84,2.38,1.3,3.25-.26-1-2.57-1.27-3.53-1a3,3,0,0,0-1.87,2.18,6.82,6.82,0,0,0,.06,3C2.46,38.9,4.47,41.6,5.45,44"/><path class="cls-2" d="M103.26,98.56C86.84,90.79,70.31,83,55.56,72.35S28.08,47.56,21,30.85A5,5,0,0,0,20,29.13c-.46-.41-1.52-.06-2,.31s-.43.41-.38.89a4.53,4.53,0,0,0,.49,1.36c.27.53.55,1.32.88,1.82-1.61-3-3.26-6.13-6-8.19a3.41,3.41,0,0,0-1.17-.63,1.44,1.44,0,0,0-1.27.24c-.64.55-.44,1.57-.18,2.37l1.32,4.15"/><path class="cls-2" d="M5.4,44a2.8,2.8,0,0,0-3.51,1.2,5.77,5.77,0,0,0-.51,4,13,13,0,0,0,3.75,7.39c-1.08-.86-2-2.27-3.21-1.59-.42.22-1.09.68-1.19,1.15a4,4,0,0,0,.34,2.71A11.47,11.47,0,0,0,5,63,4.76,4.76,0,0,0,3,68c.42,1.86,2.4,4.32,4.31,4.54a6.76,6.76,0,0,0,0,6.1A6.41,6.41,0,0,0,12,82.3a4.93,4.93,0,0,0,.29,4.87,5.12,5.12,0,0,0,4.37,2.4,5.27,5.27,0,0,0,.9,4.6,4.1,4.1,0,0,0,3.65,1.9,2.64,2.64,0,0,0,.1,3.17,2.59,2.59,0,0,0,3.1.52,2.43,2.43,0,0,0,0,3.1c.75.85,2,1.72,2.89,1.08-1,1.35-.28,3.23,1,4.24a3.37,3.37,0,0,0,4.46-.49,3.47,3.47,0,0,0,1.2,4,3.94,3.94,0,0,0,4.52-.08,3.93,3.93,0,0,0,1.82,4,3.66,3.66,0,0,0,4.16-.57,4.19,4.19,0,0,0,2.61,3.47,4.13,4.13,0,0,0,4.18-1,3.05,3.05,0,0,0,2,3.45,3.43,3.43,0,0,0,3.95-1.62c.08,1.89,2.1,3.44,4,3.58,1.67.14,4.4-1.42,5.69-3a3,3,0,0,1,1.39-1,4.18,4.18,0,0,1,2.45,0c1.11.35,2.55.48,3.24-.46"/><path class="cls-2" d="M74,118.38A21.83,21.83,0,0,1,86.81,106.5"/><path class="cls-2" d="M29.37,74.26c-.75-.81-3.15.19-3.65,1.18a2.72,2.72,0,0,0,.65,3,5.69,5.69,0,0,0,3,1.41A2.25,2.25,0,0,0,26.78,82a3.27,3.27,0,0,0,2.08,2.66,9.53,9.53,0,0,0,3.49.6A3.73,3.73,0,0,0,33,89.41a5,5,0,0,0,5,.52c-1.19,1.17-.68,3.09.53,4.24A3.26,3.26,0,0,0,43,94a4,4,0,0,0,.3,4.92,3.89,3.89,0,0,0,4.78.74c-.81,1.57.69,3.74,2.2,4.66a3.66,3.66,0,0,0,4.72-.93c-.58,1.69,1.38,3.77,2.93,4.66a4,4,0,0,0,4.87-.85c-.93,1.63.67,4.15,2.24,5.19a3.88,3.88,0,0,0,5-.82"/><path class="cls-2" d="M112.13,50.44c.17-1.72-.61-3.53-2.33-3.72a3.45,3.45,0,0,0-3.67,2.9,3.6,3.6,0,0,0-3.68-3.33,3.67,3.67,0,0,0-3.52,3.57c-1.48-.62-3.39.41-4.23,1.77A3.53,3.53,0,0,0,95.36,56c-1.36-.06-2.34-.5-3.47.28s-1.83,3.67-.71,4.44c-1.28-.19-2.61,1.19-3,2.41a2.92,2.92,0,0,0,1.22,3.39,3.55,3.55,0,0,0-3,2.35,3.31,3.31,0,0,0,1,3.49,4.15,4.15,0,0,0-3.16,5.33c-1.22-.44-2.7.42-3.5,1.44a3.23,3.23,0,0,0-.18,3.65"/><path class="cls-2" d="M65.73,121.09c-5,8.6-8.35,20.23-17.7,29.82"/><path class="cls-2" d="M62.66,140.52l-29.3,20.73c-2.36,1.67-4.57,3.54-6.87,5.28a12.61,12.61,0,0,0-3.39,3.32,2.88,2.88,0,0,0-.34,2.76,2.84,2.84,0,0,0,1.64,1.29,5.12,5.12,0,0,0,2-.06,6.61,6.61,0,0,0,3.08-1.22"/><path class="cls-2" d="M28.77,179.31c-1.11,1.27-1.95,2.58-1.74,3.91a2.82,2.82,0,0,0,2.66,2.33c1.34.12,2.31-.8,3.15-2"/><path class="cls-2" d="M32.8,183.57a4.49,4.49,0,0,0-.83,3.72,3.37,3.37,0,0,0,2.65,2.38,4.31,4.31,0,0,0,3.67-1.39,10.06,10.06,0,0,0,2-3.46"/><path class="cls-2" d="M40.33,184.82c-.58,1.13,1,2.81,2.05,2.77a3.86,3.86,0,0,0,2.6-1.43c1.4-1.54,5.55-12.57,6.49-14.42"/><path class="cls-2" d="M48,180.1a2.05,2.05,0,0,0,3.17.87,6.75,6.75,0,0,0,2.28-3.38l7.9-19.32"/><path class="cls-2" d="M106.59,92c3.56-1.22,6.9-9.76,10.32-12.08,4.34-2.95,9.24-5.12,14.86-4,4.23.86,9.92,4.36,10.9,8.9"/><path class="cls-2" d="M142.42,85.26a1.17,1.17,0,0,1,.64.09,20.56,20.56,0,0,1,5.53,3.89c1.15,1.12,2.22,2.56,2.1,4.17a.7.7,0,0,1-.33.65,1.91,1.91,0,0,1-.79,0c-2.36-.71-4.69-1.28-7-2a4.32,4.32,0,0,1-2.9-3.33A3.84,3.84,0,0,1,142.42,85.26Z"/><path class="cls-2" d="M126.34,107.92a20.77,20.77,0,0,1,6.77-11c3.35-2.81,6.15-4.19,10.51-4.47"/><path class="cls-2" d="M139.76,88.07c4-.52,9.21,3.9,10.7,5.71"/><path class="cls-2" d="M32.84,183.51c2.8-3.86,7-9.85,9.84-13.7"/><path class="cls-2" d="M28.77,179.31c1.72-2.07,8.3-9.18,10.13-11.15"/><path class="cls-2" d="M36.49,165.84c-1.42,1.32-6.41,6.16-7.83,7.48a16.87,16.87,0,0,0-3.85,3.89,4.19,4.19,0,0,0-.86,2.18,2.15,2.15,0,0,0,1.21,2,2.76,2.76,0,0,0,2.54-.75"/><path class="cls-2" d="M40.28,185c1-2.22,6.63-12,7.81-14.08"/><path class="cls-6" d="M88.09,95.11c1.19.47,2.39.92,3.58,1.35"/><path class="cls-6" d="M88.09,95.11"/><path class="cls-6" d="M21.74,40.69C35.09,64,60,83.36,85.23,94"/><path class="cls-6" d="M117.82,17.92l-7.08,63.3"/><path class="cls-6" d="M59.44,159c-2,5.37-5.2,11.75-7.48,17.36"/><path class="cls-6" d="M43.62,174.29c-2.45,4.26-4,6.62-6.2,10.32"/><path class="cls-6" d="M39.4,171.07c-2.58,3.52-4.64,6.08-7,9.21"/><path class="cls-6" d="M35.89,169"/><path class="cls-6" d="M36.7,167.79a113.69,113.69,0,0,1-8.6,9.83"/><path class="cls-6" d="M27.66,171.32l-1.13,1.09"/><path class="cls-6" d="M33.84,165.33l-5.42,5.26"/><path class="cls-6" d="M59.45,138.22l7.36-14.38"/><path class="cls-6" d="M59.45,138.22"/><path class="cls-6" d="M58.71,139.65"/><path class="cls-6" d="M57.72,141.6l1-1.95"/><path class="cls-6" d="M4.72,51.35A28,28,0,0,0,10,59.47"/><path class="cls-6" d="M11,60.93l.64.64"/><path class="cls-6" d="M8.78,75.49a10.77,10.77,0,0,0,4.92,5.67"/><path class="cls-6" d="M14.61,82.34l1.12,1"/><path class="cls-6" d="M93.69,10a29.47,29.47,0,0,0,.89,8"/><path class="cls-6" d="M95.09,20.06l.48,1.43"/><path class="cls-6" d="M78.33,30.75a10.27,10.27,0,0,0,1.91,4.64"/><path class="cls-6" d="M81.2,37.14a1.71,1.71,0,0,0,.64,1.12"/><path class="cls-6" d="M3.89,35.24q2,3.88,3.94,7.77"/><path class="cls-6" d="M8.7,44.57l.5,1"/></svg>