<svg xmlns="http://www.w3.org/2000/svg" viewBox="0 0 476.52 189.01"><defs><style>.cls-1{isolation:isolate;}.cls-2{fill:#b3b3b3;}.cls-3{fill:#575756;}.cls-4{fill:#e2899f;opacity:0.2;}.cls-4,.cls-5{mix-blend-mode:multiply;}.cls-6{fill:#4d4d4d;}</style></defs><g class="cls-1"><g id="Layer_1" data-name="Layer 1"><path class="cls-2" d="M421.78,176.65a1.66,1.66,0,0,1-1.52-1.74l-7.87-121c0-.41-.19-.6-.3-.6s-.27.19-.3.61l-3.92,66.21a1.67,1.67,0,0,1-1.51,1.75,1.71,1.71,0,0,1-1.53-1.69l-3.2-46.22c0-.38-.2-.56-.3-.56s-.27.18-.3.59l-3.43,53.21a1.68,1.68,0,0,1-1.47,1.73c-.64,0-1.37-.45-1.54-1.54l-3-31.3c-.05-.31-.23-.47-.29-.47H370.25c-.07,0-.26.2-.3.58l-1.79,30c-.12,1.16-.86,1.69-1.51,1.69a1.64,1.64,0,0,1-1.52-1.64l-3.8-46.38c0-.36-.2-.54-.29-.54s-.27.19-.31.59l-6.43,70.48a1.65,1.65,0,0,1-1.52,1.69c-.7,0-1.45-.57-1.52-1.78L347,75c0-.42-.2-.62-.31-.63s-.23.16-.29.51l-1.65,10.62A1.61,1.61,0,0,1,343.17,87a1.67,1.67,0,0,1-1.47-1.72l-5.38-70.07c0-.41-.2-.64-.3-.6s-.28.21-.31.63l-4.2,81.16c-.13,2.54-.22,4.63-.3,6.26-.21,4.87-.21,4.87-.88,4.89s-.68,0-1.23-5.19q-.24-2.31-.63-5.81l-2-17.79c0-.38-.2-.56-.3-.56s-.27.19-.3.59l-3.7,54.62c-.11,1.18-.86,1.71-1.52,1.71a1.65,1.65,0,0,1-1.52-1.76L315.83,65.5c0-.41-.2-.61-.3-.61s-.26.17-.3.56l-3.1,28.48a1.67,1.67,0,0,1-1.51,1.65H290.11a1.57,1.57,0,0,1-1.43-1.22l-2.52-8.42c-.08-.26-.22-.36-.26-.36s-.27.18-.3.6l-5.28,81.31a1.65,1.65,0,0,1-1.52,1.73c-.68,0-1.44-.55-1.52-1.75l-7-117c0-.41-.23-.58-.31-.6s-.26.18-.3.58l-5.84,76.13a1.52,1.52,0,1,1-3,0l-1.27-14.23c0-.4-.2-.59-.3-.59s-.28.2-.31.61l-2.19,31.36a1.53,1.53,0,1,1-3,0l-3.46-55.91c0-.4-.2-.59-.31-.59s-.24.16-.29.53l-1.94,26.5a1.65,1.65,0,0,1-1.47,1.62c-.61.06-1.31-.41-1.51-1.43L243.38,96a.5.5,0,0,0-.27-.38H219.89c-.07,0-.26.2-.3.58l-4.73,58.35a1.53,1.53,0,1,1-3,0L207.6,94.86c0-.39-.2-.58-.3-.59s-.25.16-.3.53l-2.8,32.9a1.67,1.67,0,0,1-1.55,1.62,1.69,1.69,0,0,1-1.48-1.77L196,28.93c0-.41-.2-.61-.31-.61s-.27.18-.3.58l-5.27,59.31a1.67,1.67,0,0,1-1.5,1.7c-.67,0-1.38-.49-1.53-1.61l-.17-1.41c0-.38-.24-.52-.3-.54s-.28.2-.31.61l-1.67,31.1a1.67,1.67,0,0,1-1.5,1.76,1.64,1.64,0,0,1-1.53-1.66l-4.24-46.4a.64.64,0,0,0-.3-.56c-.11,0-.29.2-.31.63l-3,68.3a1.67,1.67,0,0,1-1.49,1.8c-.65.06-1.42-.5-1.54-1.66l-4-44.13c0-.36-.23-.56-.3-.56H144.21a1.66,1.66,0,0,1-1.51-1.65l-1.41-13.31c0-.39-.17-.53-.3-.57s-.27.19-.3.59l-6.45,88c-.1,1.18-.85,1.71-1.51,1.71a1.67,1.67,0,0,1-1.53-1.78l-3.31-73.1c0-.41-.2-.62-.31-.62s-.23.14-.29.5l-.6,15.89c-.19,1.16-.94,1.6-1.55,1.6a1.67,1.67,0,0,1-1.47-1.7l-3.08-47.45a.69.69,0,0,0-.3-.57c-.11,0-.28.19-.31.61l-3.29,59.93a1.66,1.66,0,0,1-1.49,1.75,1.64,1.64,0,0,1-1.54-1.61c0-.37-.2-.61-.3-.54s-.26.18-.3.57l-2.2,22.7a1.52,1.52,0,1,1-3,0l-6.65-91c0-.39-.2-.58-.31-.58s-.28.2-.3.62l-3.26,65.17a1.53,1.53,0,1,1-3,.08L92,84.54c0-.37-.2-.56-.3-.57s-.23.15-.29.48l-1.78,9.66a1.63,1.63,0,0,1-1.49,1.47H76.1s-.2.11-.27.4L71,112.72A1.52,1.52,0,0,1,69.45,114,1.68,1.68,0,0,1,68,112.34L60.12,32.73c0-.39-.2-.57-.3-.57s-.29.21-.31.64l-5.9,99.83a1.67,1.67,0,0,1-1.48,1.8c-.67,0-1.43-.49-1.55-1.66l-3-41a.67.67,0,0,0-.3-.55c-.1,0-.25.17-.3.55l-1.7,26c-.14,1.15-.86,1.65-1.51,1.65a1.66,1.66,0,0,1-1.52-1.68L39.4,76.51c0-.37-.2-.56-.3-.56s-.29.21-.3.65L36.08,150a1.68,1.68,0,0,1-1.48,1.81,1.64,1.64,0,0,1-1.55-1.64l-4.78-54c0-.35-.23-.54-.3-.54H18.53V94.36H28A1.66,1.66,0,0,1,29.48,96l4.78,54c0,.37.2.54.3.54s.29-.21.3-.64l2.72-73.36c.05-1.22.81-1.8,1.49-1.81s1.43.5,1.55,1.67l2.83,41.26c0,.38.2.56.3.56s.25-.17.3-.54l1.7-26c.14-1.15.85-1.65,1.51-1.65a1.65,1.65,0,0,1,1.51,1.66l3,41c0,.37.2.55.3.55s.29-.21.31-.64l5.89-99.84a1.67,1.67,0,0,1,1.49-1.79,1.64,1.64,0,0,1,1.55,1.67l7.91,79.61c0,.41.23.57.3.57s.2-.11.27-.39l4.85-16.75a1.59,1.59,0,0,1,1.44-1.29H88.18c.06,0,.23-.14.29-.47l1.79-9.66c.19-1.06.9-1.51,1.53-1.47a1.65,1.65,0,0,1,1.47,1.68l2.23,36.2c0,.39.2.6.3.57s.28-.2.31-.62l3.25-65.17a1.67,1.67,0,0,1,1.51-1.77c.66,0,1.43.52,1.53,1.71l6.66,91c0,.4.2.59.3.59s.26-.19.3-.58l2.2-22.69a1.52,1.52,0,1,1,3-.07c0,.37.2.54.3.54s.27-.19.3-.61l3.3-59.93a1.53,1.53,0,1,1,3-.05L124.88,111c0,.38.2.57.3.57s.24-.15.29-.5l.61-15.89c.19-1.18.94-1.62,1.57-1.6a1.68,1.68,0,0,1,1.46,1.78l3.31,73.1c0,.42.2.62.31.62s.26-.19.3-.59l6.45-87.95a1.52,1.52,0,1,1,3-.05l1.41,13.31c0,.37.23.56.3.56h22.17A1.68,1.68,0,0,1,167.89,96l4,44.13c0,.38.2.52.3.56s.28-.21.3-.64l3-68.29A1.67,1.67,0,0,1,177,70a1.63,1.63,0,0,1,1.54,1.66l4.24,46.4c0,.38.2.56.3.56s.28-.2.3-.62l1.68-31.1a1.66,1.66,0,0,1,1.48-1.75c.63,0,1.4.47,1.55,1.61l.17,1.4c.05.37.21.55.3.55s.27-.19.3-.59l5.27-59.31a1.53,1.53,0,1,1,3,.07l5.22,98.62c0,.41.2.61.31.62s.24-.16.29-.53l2.8-32.9c.15-1.15.83-1.65,1.54-1.62a1.67,1.67,0,0,1,1.48,1.72L213,154.4c0,.4.2.59.3.59s.27-.19.31-.58l4.73-58.35a1.68,1.68,0,0,1,1.51-1.7h23.22a1.62,1.62,0,0,1,1.48,1.43l1.28,18.54c.06.23.19.37.27.37s.25-.17.3-.53l1.94-26.5c.15-1.15.88-1.65,1.54-1.62a1.66,1.66,0,0,1,1.48,1.72l3.46,55.92c0,.39.2.58.3.58s.28-.19.31-.61l2.2-31.35a1.66,1.66,0,0,1,1.51-1.75,1.64,1.64,0,0,1,1.52,1.7L262,126.49c0,.4.21.59.31.59s.26-.19.3-.59l5.84-76.13c.1-1.18.85-1.74,1.53-1.7s1.42.56,1.5,1.75l7,117c0,.42.2.61.31.61s.27-.19.3-.6l5.28-81.3a1.7,1.7,0,0,1,1.39-1.73,1.5,1.5,0,0,1,1.56,1.22L289.85,94c.08.25.21.35.26.35h20.51c.07,0,.26-.19.3-.56L314,65.32c.13-1.16.91-1.69,1.55-1.65a1.66,1.66,0,0,1,1.49,1.76l3.32,67.87c0,.41.2.61.31.61s.27-.18.3-.58l3.7-54.62A1.67,1.67,0,0,1,326.19,77c.66-.06,1.39.51,1.52,1.65l2,17.78c.15,1.42.29,2.7.41,3.83,0-1.15.12-2.45.19-3.9l4.21-81.16c.06-1.22.82-1.78,1.5-1.79a1.65,1.65,0,0,1,1.54,1.73l5.38,70.06c0,.41.2.6.3.61s.24-.16.29-.51l1.66-10.62c.17-1.11.9-1.57,1.55-1.54a1.69,1.69,0,0,1,1.47,1.78l4.28,75.32c0,.43.2.63.31.63s.26-.19.3-.59l6.44-70.48A1.66,1.66,0,0,1,361,78.1c.63,0,1.4.51,1.53,1.65l3.8,46.37c0,.36.2.54.29.54s.26-.18.3-.57l1.79-30a1.69,1.69,0,0,1,1.52-1.7h21.06a1.66,1.66,0,0,1,1.5,1.54l3,31.3c.05.32.2.5.28.47s.27-.2.31-.6l3.42-53.21c.1-1.18.85-1.72,1.51-1.72a1.64,1.64,0,0,1,1.52,1.68L406.05,120c0,.39.2.57.3.57s.27-.2.3-.61l3.92-66.21c.09-1.2.85-1.75,1.52-1.75a1.65,1.65,0,0,1,1.52,1.74l7.87,121.05c0,.4.2.6.3.6s.28-.19.31-.61l5.75-89c.08-1.2.84-1.74,1.51-1.74a1.65,1.65,0,0,1,1.52,1.73l3.23,53.75c0,.39.2.58.31.58s.26-.18.3-.57l3.28-47a1.69,1.69,0,0,1,1.39-1.69,1.51,1.51,0,0,1,1.55,1.2l2.82,21.29c.05.15.22.22.23.25s.21-.11.28-.43l1.19-17.36c.21-.91.79-1.47,1.48-1.47h11.36v1.22H446.93c-.05,0-.21.13-.28.43l-1.19,17.36a1.65,1.65,0,0,1-1.43,1.47,1.59,1.59,0,0,1-1.47-1.21l-2.82-21.29c-.05-.15-.17-.29-.23-.25s-.27.17-.31.58l-3.28,47a1.53,1.53,0,1,1-3,0l-3.23-53.75c-.07-.8-.55-.81-.61,0l-5.75,89.05A1.65,1.65,0,0,1,421.78,176.65Z"/><path class="cls-3" d="M140.8,152.44a1.5,1.5,0,0,1-1.52-1.36l-5.38-49.17a.29.29,0,0,0-.29-.28.28.28,0,0,0-.31.24l-1.66,7.45a1.52,1.52,0,0,1-3-.2l-4.29-52.88a.27.27,0,0,0-.29-.28.3.3,0,0,0-.32.27l-6.44,49.47a1.53,1.53,0,0,1-3,0l-3.79-24a.33.33,0,0,0-.31-.26.28.28,0,0,0-.3.27l-1.79,12.54a1.54,1.54,0,0,1-1.51,1.31H85.51A1.51,1.51,0,0,1,84,94.42L81,81a.28.28,0,0,0-.31-.24.28.28,0,0,0-.29.27L77,109.87a1.51,1.51,0,0,1-1.51,1.35A1.49,1.49,0,0,1,74,109.9L70.77,86a.3.3,0,0,0-.31-.27.29.29,0,0,0-.3.28L66.24,124a1.52,1.52,0,0,1-3,0l-7.87-76.4a.3.3,0,0,0-.31-.28.28.28,0,0,0-.3.28L49,101.5a1.53,1.53,0,0,1-3,0L42.72,72.34c0-.24-.2-.3-.31-.27a.27.27,0,0,0-.3.26L38.82,96.74a1.53,1.53,0,0,1-2.91.42l-2.79-6.32a.31.31,0,0,0-.3-.18.3.3,0,0,0-.28.21l-1.2,3.69a1.54,1.54,0,0,1-1.46,1.06H18.53V94.4H29.88a.32.32,0,0,0,.3-.21l1.21-3.7a1.52,1.52,0,0,1,2.84-.14L37,96.66a.27.27,0,0,0,.32.18.28.28,0,0,0,.26-.26L40.9,72.17a1.47,1.47,0,0,1,1.53-1.32,1.5,1.5,0,0,1,1.5,1.36l3.23,29.16a.27.27,0,0,0,.3.27.28.28,0,0,0,.31-.27l5.74-53.95a1.53,1.53,0,0,1,3,0l7.87,76.4a.28.28,0,0,0,.31.27.27.27,0,0,0,.3-.27L69,85.9a1.5,1.5,0,0,1,1.5-1.37A1.47,1.47,0,0,1,72,85.86l3.21,23.87c0,.24.21.29.3.27a.28.28,0,0,0,.3-.27l3.43-28.81a1.5,1.5,0,0,1,1.44-1.34,1.49,1.49,0,0,1,1.56,1.19l3,13.39a.3.3,0,0,0,.3.24h21.06a.31.31,0,0,0,.3-.27l1.79-12.54a1.53,1.53,0,0,1,3,0l3.8,24c0,.23.2.3.3.26a.28.28,0,0,0,.3-.27l6.44-49.47a1.53,1.53,0,0,1,3,.07L129.85,109a.27.27,0,0,0,.28.28.29.29,0,0,0,.32-.24l1.66-7.45a1.52,1.52,0,0,1,3,.16L140.49,151a.3.3,0,0,0,.31.28.29.29,0,0,0,.3-.29l4.21-57a1.49,1.49,0,0,1,1.46-1.41,1.51,1.51,0,0,1,1.57,1.29l2,12.48a.31.31,0,0,0,.61,0l3.7-29.79a1.56,1.56,0,0,1,1.55-1.34,1.52,1.52,0,0,1,1.49,1.4L161,115.66a.28.28,0,0,0,.3.28.27.27,0,0,0,.31-.26l3.1-20a1.51,1.51,0,0,1,1.5-1.29h20.52a1.52,1.52,0,0,1,1.4.92l2.52,5.91a.28.28,0,0,0,.33.18.29.29,0,0,0,.26-.27l5.28-48.51a1.53,1.53,0,0,1,3,0l7,73.55a.27.27,0,0,0,.31.28.28.28,0,0,0,.3-.27L213,81.32a1.52,1.52,0,0,1,3,0l1.28,10a.28.28,0,0,0,.3.26.28.28,0,0,0,.31-.27l2.19-22a1.49,1.49,0,0,1,1.51-1.38,1.51,1.51,0,0,1,1.53,1.36L226.63,100a.27.27,0,0,0,.29.27.27.27,0,0,0,.31-.25l1.94-10.06a1.53,1.53,0,0,1,3-.14l1.27,4.4a.31.31,0,0,0,.3.22h23.21a.31.31,0,0,0,.31-.27L262,58.3A1.52,1.52,0,0,1,263.49,57a1.48,1.48,0,0,1,1.5,1.35L269.22,95a.29.29,0,0,0,.29.28.27.27,0,0,0,.31-.25l2.8-14.56a1.53,1.53,0,0,1,3,.16l5.22,60.66a.31.31,0,0,0,.61,0l5.27-41.63a1.51,1.51,0,0,1,1.48-1.34,1.49,1.49,0,0,1,1.54,1.26l.18,1a.27.27,0,0,0,.31.25.28.28,0,0,0,.29-.28l1.68-17.55a1.53,1.53,0,0,1,3-.08l4.23,28.28a.28.28,0,0,0,.32.26.27.27,0,0,0,.29-.28l3-43.66a1.53,1.53,0,0,1,3-.12l4,26.68a.3.3,0,0,0,.3.27h22.17a1.54,1.54,0,0,1,1.51,1.3l1.4,9.34a.27.27,0,0,0,.31.26.28.28,0,0,0,.3-.27l6.45-52.33a1.54,1.54,0,0,1,1.54-1.33,1.49,1.49,0,0,1,1.49,1.4l3.32,41.9a.28.28,0,0,0,.28.28.29.29,0,0,0,.32-.24l.62-2.65a1.48,1.48,0,0,1,1.56-1.18,1.52,1.52,0,0,1,1.44,1.33L356.22,117a.27.27,0,0,0,.31.27.28.28,0,0,0,.3-.28l3.3-33.51a1.5,1.5,0,0,1,1.46-1.38,1.54,1.54,0,0,1,1.56,1.26.29.29,0,0,0,.31.25.27.27,0,0,0,.3-.26L366,67.37a1.52,1.52,0,0,1,3,0l6.66,55.3a.27.27,0,0,0,.31.27.28.28,0,0,0,.3-.28l3.26-37.19a1.52,1.52,0,0,1,3-.06l2.23,16.84a.27.27,0,0,0,.29.26.27.27,0,0,0,.31-.22l1.79-6.78a1.52,1.52,0,0,1,1.47-1.14h20.62a.31.31,0,0,0,.29-.2L410.72,91a1.48,1.48,0,0,1,1.59-1,1.51,1.51,0,0,1,1.35,1.3l5.48,38.76a.28.28,0,0,0,.31.27.3.3,0,0,0,.3-.29l3.45-52.95a1.5,1.5,0,0,1,1.46-1.43,1.52,1.52,0,0,1,1.58,1.3l3,20.2a.27.27,0,0,0,.3.26c.07,0,.26,0,.3-.25l1.7-9.74a1.47,1.47,0,0,1,1.54-1.26,1.52,1.52,0,0,1,1.48,1.32l2.83,20.39a.29.29,0,0,0,.32.27.28.28,0,0,0,.29-.29L440.73,65a1.49,1.49,0,0,1,1.45-1.43,1.46,1.46,0,0,1,1.58,1.28l4.78,29.34a.3.3,0,0,0,.3.26h9.45v1.22h-9.45a1.52,1.52,0,0,1-1.5-1.28L442.56,65a.28.28,0,0,0-.32-.25A.28.28,0,0,0,442,65L439.24,108a1.53,1.53,0,0,1-3,.12l-2.83-20.39a.28.28,0,0,0-.3-.27.28.28,0,0,0-.3.25l-1.71,9.74a1.52,1.52,0,0,1-3,0l-3-20.2a.27.27,0,0,0-.32-.26.27.27,0,0,0-.29.28l-3.46,53a1.52,1.52,0,0,1-3,.11L412.45,91.5a.31.31,0,0,0-.59-.06l-1.18,3.18a1.53,1.53,0,0,1-1.43,1H388.63a.29.29,0,0,0-.29.23l-1.79,6.78a1.53,1.53,0,0,1-3-.19L381.33,85.6c0-.24-.19-.29-.31-.27a.28.28,0,0,0-.3.28l-3.26,37.19a1.52,1.52,0,0,1-3,0l-6.66-55.31c0-.23-.18-.22-.3-.27a.29.29,0,0,0-.31.27L365,83.47a1.5,1.5,0,0,1-1.49,1.31A1.53,1.53,0,0,1,362,83.52a.26.26,0,0,0-.31-.25.29.29,0,0,0-.3.28l-3.29,33.51a1.5,1.5,0,0,1-1.5,1.38A1.52,1.52,0,0,1,355,117.1l-3.07-24.74a.28.28,0,0,0-.29-.26.28.28,0,0,0-.32.23L350.72,95a1.46,1.46,0,0,1-1.6,1.18,1.49,1.49,0,0,1-1.41-1.4L344.4,52.87a.3.3,0,0,0-.3-.29c-.1,0-.28,0-.31.27l-6.45,52.33a1.5,1.5,0,0,1-1.5,1.34,1.48,1.48,0,0,1-1.53-1.3l-1.4-9.34a.3.3,0,0,0-.3-.26H310.44a1.52,1.52,0,0,1-1.51-1.3l-4-26.69a.28.28,0,0,0-.31-.26.28.28,0,0,0-.3.28l-3,43.66a1.53,1.53,0,0,1-3,.12L294,83.15a.28.28,0,0,0-.31-.26.28.28,0,0,0-.3.27l-1.67,17.56a1.5,1.5,0,0,1-1.46,1.38,1.46,1.46,0,0,1-1.56-1.26l-.18-1a.31.31,0,0,0-.61,0l-5.27,41.63a1.53,1.53,0,0,1-3-.06l-5.21-60.66a.27.27,0,0,0-.29-.28.26.26,0,0,0-.32.24L271,95.3a1.57,1.57,0,0,1-1.56,1.24A1.51,1.51,0,0,1,268,95.18l-4.22-36.71a.28.28,0,0,0-.31-.27.27.27,0,0,0-.3.26l-4.73,35.83a1.53,1.53,0,0,1-1.52,1.33H233.71a1.55,1.55,0,0,1-1.47-1.1L231,90.12a.29.29,0,0,0-.31-.22.28.28,0,0,0-.29.25l-1.94,10.06a1.53,1.53,0,0,1-3-.11L222,69.41a.31.31,0,0,0-.61,0l-2.2,22a1.53,1.53,0,0,1-3,0l-1.28-10a.28.28,0,0,0-.3-.27.3.3,0,0,0-.31.27l-5.83,44.89a1.45,1.45,0,0,1-1.54,1.33,1.47,1.47,0,0,1-1.49-1.38l-7.05-73.56c0-.24-.14-.26-.3-.27a.28.28,0,0,0-.31.27l-5.28,48.51a1.49,1.49,0,0,1-1.29,1.35,1.51,1.51,0,0,1-1.63-.91L187,95.8a.31.31,0,0,0-.28-.18H166.19a.3.3,0,0,0-.3.26l-3.09,20a1.53,1.53,0,0,1-3-.1l-3.33-39.08a.28.28,0,0,0-.3-.28.29.29,0,0,0-.31.27l-3.7,29.79a1.5,1.5,0,0,1-1.49,1.34,1.54,1.54,0,0,1-1.53-1.29l-2-12.48a.27.27,0,0,0-.31-.26.29.29,0,0,0-.3.28l-4.2,57A1.5,1.5,0,0,1,140.8,152.44Z"/><path class="cls-3" d="M470,56.52,476.52,50l-.64-.65L470,55.22V31.91h1.53V22.59l-9-9-1.08,1.07-3.57-3.57-1.3,1.29L460.18,16,459.1,17l7.59,7.59v7.3h1.53V57.05l-10.5,10.5V122l10.5,10.5v25.14h-1.53v7.29l-7.59,7.6,1.08,1.07-3.58,3.58,1.3,1.29,3.57-3.57,1.08,1.07,9-9v-9.31H470V134.32l5.84,5.84.64-.65L470,133Zm-11.41,65.1V100.37L460,99V90.52l-1.35-1.34V67.93l9.59-9.58V131.2Z"/><path class="cls-3" d="M18.62,11.08l-3.57,3.57L14,13.58l-9,9v9.32H6.48V55.22L.65,49.39,0,50l6.48,6.48V133L0,139.51l.65.65,5.83-5.83v23.31H5V167l9,9,1.08-1.07,3.57,3.57,1.3-1.29-3.58-3.58,1.08-1.07-7.59-7.6v-7.29H8.31V132.5L18.8,122V67.55L8.31,57.05V31.91H9.83v-7.3L17.42,17,16.34,16l3.58-3.58Zm-.73,56.85V89.18l-1.35,1.34V99l1.35,1.34v21.25L8.31,131.2V58.34Z"/><rect class="cls-3" x="210.65" y="10.35" width="117.74" height="1.67"/><rect class="cls-3" x="210.65" y="176.99" width="117.74" height="1.67"/><rect class="cls-4" x="211.02" y="11.19" width="116.99" height="166.64"/><polygon class="cls-3" points="203.27 0 207.09 0 207.09 11.19 203.27 6.82 203.27 0"/><polygon class="cls-3" points="335.77 0 331.95 0 331.95 11.19 335.77 6.82 335.77 0"/><polygon class="cls-3" points="203.27 189.01 207.09 189.01 207.09 177.82 203.27 182.2 203.27 189.01"/><polygon class="cls-3" points="335.77 189.01 331.95 189.01 331.95 177.82 335.77 182.2 335.77 189.01"/><g class="cls-5"><path class="cls-3" d="M208.14,27.33a2.85,2.85,0,0,1-.42,1.69,1.47,1.47,0,0,1-1.27.57,1.49,1.49,0,0,1-1.27-.56,2.69,2.69,0,0,1-.44-1.64v-.9a2.83,2.83,0,0,1,.42-1.69,1.74,1.74,0,0,1,2.55,0,2.64,2.64,0,0,1,.43,1.63Zm-.87-1a2.14,2.14,0,0,0-.2-1.07.67.67,0,0,0-.63-.34.71.71,0,0,0-.63.32,2.12,2.12,0,0,0-.21,1v1.18a2.21,2.21,0,0,0,.21,1.09.69.69,0,0,0,.64.35.66.66,0,0,0,.61-.33,2,2,0,0,0,.21-1Z"/><path class="cls-3" d="M212.19,25.69a1.23,1.23,0,0,1-.2.68,1.46,1.46,0,0,1-.54.47,1.35,1.35,0,0,1,.63.51,1.3,1.3,0,0,1,.22.75,1.38,1.38,0,0,1-.46,1.09,1.86,1.86,0,0,1-1.24.4,1.82,1.82,0,0,1-1.24-.41,1.44,1.44,0,0,1-.25-1.83,1.39,1.39,0,0,1,.63-.51,1.43,1.43,0,0,1-.53-.47,1.23,1.23,0,0,1-.2-.68,1.34,1.34,0,0,1,.43-1.06,1.92,1.92,0,0,1,2.32,0A1.38,1.38,0,0,1,212.19,25.69Zm-.76,2.36a.84.84,0,0,0-.23-.62.88.88,0,0,0-1.21,0,1,1,0,0,0,0,1.24,1,1,0,0,0,1.22,0A.83.83,0,0,0,211.43,28.05Zm-.11-2.33a.79.79,0,0,0-.19-.56.67.67,0,0,0-.53-.22.69.69,0,0,0-.53.21,1,1,0,0,0,0,1.14.77.77,0,0,0,1.06,0A.8.8,0,0,0,211.32,25.72Z"/><path class="cls-3" d="M215.53,27.34a1.42,1.42,0,0,1-2.11,0,1.89,1.89,0,0,1-.41-1.26,2.06,2.06,0,0,1,.21-.94,1.61,1.61,0,0,1,.59-.65,1.71,1.71,0,0,1,.89-.23,1.49,1.49,0,0,1,1.24.59,2.45,2.45,0,0,1,.46,1.57v.24a3.24,3.24,0,0,1-.63,2.15,2.43,2.43,0,0,1-1.9.75h-.1v-.72h.12a1.79,1.79,0,0,0,1.18-.37A1.55,1.55,0,0,0,215.53,27.34Zm-.83-.22a.91.91,0,0,0,.49-.15,1,1,0,0,0,.35-.41v-.34a1.62,1.62,0,0,0-.24-.93.71.71,0,0,0-.61-.35.72.72,0,0,0-.6.31,1.38,1.38,0,0,0-.22.78,1.28,1.28,0,0,0,.23.79A.71.71,0,0,0,214.7,27.12Z"/><path class="cls-3" d="M217.46,26.94l.28-2.63h2.8v.75h-2.08l-.14,1.25a1.59,1.59,0,0,1,.82-.21,1.46,1.46,0,0,1,1.15.47,1.88,1.88,0,0,1,.42,1.28,1.78,1.78,0,0,1-.46,1.27,1.71,1.71,0,0,1-1.26.47,1.75,1.75,0,0,1-1.18-.41,1.5,1.5,0,0,1-.51-1.07h.84a.88.88,0,0,0,.27.58.8.8,0,0,0,.58.2.72.72,0,0,0,.62-.28,1.23,1.23,0,0,0,.23-.78,1.09,1.09,0,0,0-.25-.75.84.84,0,0,0-.68-.28,1.16,1.16,0,0,0-.4.06,1.18,1.18,0,0,0-.36.25Z"/><path class="cls-3" d="M222.39,26.52h.53a.89.89,0,0,0,.63-.21.73.73,0,0,0,.24-.59.82.82,0,0,0-.2-.58.79.79,0,0,0-.59-.2.87.87,0,0,0-.58.2.68.68,0,0,0-.22.53h-.87a1.32,1.32,0,0,1,.21-.73,1.43,1.43,0,0,1,.6-.51,1.8,1.8,0,0,1,.85-.19,1.77,1.77,0,0,1,1.22.39,1.37,1.37,0,0,1,.45,1.09,1.13,1.13,0,0,1-.23.66,1.38,1.38,0,0,1-.57.47,1.2,1.2,0,0,1,.87,1.21,1.39,1.39,0,0,1-.48,1.11,1.84,1.84,0,0,1-1.26.42,1.89,1.89,0,0,1-1.23-.4,1.32,1.32,0,0,1-.48-1.07h.87a.74.74,0,0,0,.23.56.88.88,0,0,0,.62.21.89.89,0,0,0,.63-.21.78.78,0,0,0,.24-.62.77.77,0,0,0-.25-.63,1,1,0,0,0-.72-.23h-.51Z"/><path class="cls-3" d="M207.1,40.69h-.86V36.52L205,37v-.73l2-.74h.11Z"/><path class="cls-3" d="M209.14,38.12l.29-2.63h2.79v.75h-2.07L210,37.49a1.61,1.61,0,0,1,.82-.21,1.49,1.49,0,0,1,1.16.47,1.93,1.93,0,0,1,.41,1.28,1.78,1.78,0,0,1-.46,1.27,1.67,1.67,0,0,1-1.25.47,1.77,1.77,0,0,1-1.19-.41,1.5,1.5,0,0,1-.51-1.07h.84a1,1,0,0,0,.27.58.8.8,0,0,0,.58.2.75.75,0,0,0,.63-.28,1.23,1.23,0,0,0,.22-.78,1,1,0,0,0-.25-.75.84.84,0,0,0-.68-.28,1.2,1.2,0,0,0-.4.06,1,1,0,0,0-.35.25Z"/><path class="cls-3" d="M215.77,35.47v.72h-.11a1.57,1.57,0,0,0-1.68,1.5,1.43,1.43,0,0,1,1.07-.44,1.33,1.33,0,0,1,1.09.49,1.93,1.93,0,0,1,.4,1.25,1.81,1.81,0,0,1-.47,1.29,1.63,1.63,0,0,1-1.22.49,1.61,1.61,0,0,1-1.27-.58,2.26,2.26,0,0,1-.48-1.51v-.29a3.16,3.16,0,0,1,.67-2.15,2.39,2.39,0,0,1,1.91-.77ZM214.84,38a.87.87,0,0,0-.52.16.92.92,0,0,0-.35.43v.26a1.55,1.55,0,0,0,.24.92.76.76,0,0,0,1.24.06,1.44,1.44,0,0,0,0-1.53A.74.74,0,0,0,214.84,38Z"/><path class="cls-3" d="M220.69,36l-2.08,4.71h-.91l2.08-4.5h-2.69v-.7h3.6Z"/><path class="cls-3" d="M223.85,38.52a1.42,1.42,0,0,1-2.11,0,1.89,1.89,0,0,1-.41-1.26,2.06,2.06,0,0,1,.21-.94,1.61,1.61,0,0,1,.59-.65,1.7,1.7,0,0,1,.88-.23,1.51,1.51,0,0,1,1.25.59,2.45,2.45,0,0,1,.46,1.57v.24a3.19,3.19,0,0,1-.64,2.15,2.39,2.39,0,0,1-1.89.75h-.11V40h.13a1.81,1.81,0,0,0,1.18-.37A1.55,1.55,0,0,0,223.85,38.52ZM223,38.3a.86.86,0,0,0,.49-.15,1.1,1.1,0,0,0,.36-.41V37.4a1.62,1.62,0,0,0-.24-.93.72.72,0,0,0-.61-.35.7.7,0,0,0-.6.31,1.31,1.31,0,0,0-.22.78,1.28,1.28,0,0,0,.22.79A.71.71,0,0,0,223,38.3Z"/><path class="cls-3" d="M207.21,49.7a1.34,1.34,0,0,1-1,.46,1.37,1.37,0,0,1-1.1-.48,1.89,1.89,0,0,1-.41-1.26,2.06,2.06,0,0,1,.21-.94,1.61,1.61,0,0,1,.59-.65,1.73,1.73,0,0,1,.89-.23,1.49,1.49,0,0,1,1.24.59,2.45,2.45,0,0,1,.47,1.57V49a3.24,3.24,0,0,1-.64,2.15,2.42,2.42,0,0,1-1.9.75h-.1v-.72h.12a1.77,1.77,0,0,0,1.18-.37A1.51,1.51,0,0,0,207.21,49.7Zm-.83-.22a.91.91,0,0,0,.49-.15,1,1,0,0,0,.35-.41v-.34a1.68,1.68,0,0,0-.23-.93.74.74,0,0,0-.62-.35.68.68,0,0,0-.59.31,1.31,1.31,0,0,0-.23.78,1.28,1.28,0,0,0,.23.79A.71.71,0,0,0,206.38,49.48Z"/><path class="cls-3" d="M211.61,46.65v.72h-.11a1.57,1.57,0,0,0-1.68,1.5,1.43,1.43,0,0,1,1.07-.44,1.33,1.33,0,0,1,1.09.49,1.93,1.93,0,0,1,.4,1.25,1.77,1.77,0,0,1-.47,1.28,1.71,1.71,0,0,1-2.49-.08,2.28,2.28,0,0,1-.48-1.51v-.29a3.16,3.16,0,0,1,.67-2.15,2.39,2.39,0,0,1,1.91-.77Zm-.93,2.48a.89.89,0,0,0-.52.16.92.92,0,0,0-.35.43V50a1.55,1.55,0,0,0,.24.92.76.76,0,0,0,1.24.06,1.39,1.39,0,0,0,0-1.53A.74.74,0,0,0,210.68,49.13Z"/><path class="cls-3" d="M216.35,48a1.24,1.24,0,0,1-.2.69,1.36,1.36,0,0,1-.54.46,1.49,1.49,0,0,1,.63.52,1.3,1.3,0,0,1,.22.75,1.34,1.34,0,0,1-.46,1.08,2.08,2.08,0,0,1-2.48,0,1.44,1.44,0,0,1-.25-1.83,1.41,1.41,0,0,1,.63-.52,1.26,1.26,0,0,1-.53-.46,1.24,1.24,0,0,1-.2-.69,1.34,1.34,0,0,1,.43-1,1.64,1.64,0,0,1,1.16-.39,1.68,1.68,0,0,1,1.16.39A1.37,1.37,0,0,1,216.35,48Zm-.76,2.37a.84.84,0,0,0-.23-.62.88.88,0,0,0-1.21,0,1,1,0,0,0,0,1.23,1,1,0,0,0,1.23,0A.83.83,0,0,0,215.59,50.41Zm-.11-2.33a.79.79,0,0,0-.19-.56.76.76,0,0,0-1.06,0,.8.8,0,0,0-.19.57.79.79,0,0,0,.19.56.75.75,0,0,0,1.06,0A.79.79,0,0,0,215.48,48.08Z"/><path class="cls-3" d="M220.17,50h.64v.7h-.64v1.15h-.87V50.72h-2.25l0-.53,2.24-3.52h.9Zm-2.23,0h1.36V47.85l-.07.11Z"/><path class="cls-3" d="M224.89,51.87h-3.5v-.59l1.73-1.89a3.87,3.87,0,0,0,.53-.7,1.11,1.11,0,0,0,.16-.56.89.89,0,0,0-.2-.6.71.71,0,0,0-.57-.23.82.82,0,0,0-.65.25,1,1,0,0,0-.23.71h-.87a1.77,1.77,0,0,1,.21-.86,1.53,1.53,0,0,1,.62-.59,2,2,0,0,1,.93-.21,1.77,1.77,0,0,1,1.19.38,1.31,1.31,0,0,1,.44,1.05,1.74,1.74,0,0,1-.22.82,4.27,4.27,0,0,1-.72,1l-1.27,1.36h2.42Z"/><path class="cls-3" d="M232.82,24.12a1.44,1.44,0,0,0-1.25.63,2.86,2.86,0,0,0-.43,1.69v.94a2.91,2.91,0,0,0,.44,1.7,1.55,1.55,0,0,0,2.49,0,2.93,2.93,0,0,0,.43-1.69v-.94a2.89,2.89,0,0,0-.44-1.7A1.43,1.43,0,0,0,232.82,24.12Zm1.24,2.32v.93a2.57,2.57,0,0,1-.33,1.42,1.09,1.09,0,0,1-1.81,0,2.44,2.44,0,0,1-.34-1.4v-.94a2.57,2.57,0,0,1,.33-1.42,1.09,1.09,0,0,1,1.81,0A2.45,2.45,0,0,1,234.06,26.44Z"/><path class="cls-3" d="M237.72,26.85a1.78,1.78,0,0,0,.45-.37,1.34,1.34,0,0,0,.29-.84,1.42,1.42,0,0,0-.46-1.11,1.89,1.89,0,0,0-2.35,0,1.42,1.42,0,0,0-.45,1.11,1.29,1.29,0,0,0,.29.83,1.38,1.38,0,0,0,.45.38,1.48,1.48,0,0,0-.56.42,1.32,1.32,0,0,0-.32.89,1.41,1.41,0,0,0,.49,1.14,2.22,2.22,0,0,0,2.57,0,1.41,1.41,0,0,0,.49-1.14,1.35,1.35,0,0,0-.33-.89A1.56,1.56,0,0,0,237.72,26.85Zm-.88,2.42a1.5,1.5,0,0,1-1-.3,1,1,0,0,1,0-1.58,1.44,1.44,0,0,1,1-.32,1.48,1.48,0,0,1,1,.32,1,1,0,0,1,.36.79,1,1,0,0,1-.35.79A1.51,1.51,0,0,1,236.84,29.27Zm0-2.63a1.29,1.29,0,0,1-.87-.29.91.91,0,0,1-.32-.73,1,1,0,0,1,.32-.77,1.28,1.28,0,0,1,.86-.29,1.3,1.3,0,0,1,.87.3,1,1,0,0,1,.34.76.93.93,0,0,1-.33.73A1.3,1.3,0,0,1,236.83,26.64Z"/><path class="cls-3" d="M239.85,27.71a1.46,1.46,0,0,0,.84.25,1.88,1.88,0,0,0,1-.26,2,2,0,0,0,.38-.33,2.33,2.33,0,0,1-.49,1.31,1.89,1.89,0,0,1-1.5.59h-.27l0,.44h.3a2.28,2.28,0,0,0,1.82-.75,3.14,3.14,0,0,0,.62-2.09v-.6a2.52,2.52,0,0,0-.46-1.58,1.58,1.58,0,0,0-1.32-.57,1.46,1.46,0,0,0-.85.27,1.72,1.72,0,0,0-.59.71,2.34,2.34,0,0,0-.21,1,2.09,2.09,0,0,0,.21.94A1.59,1.59,0,0,0,239.85,27.71Zm-.34-1.62a1.83,1.83,0,0,1,.16-.77,1.47,1.47,0,0,1,.45-.56,1,1,0,0,1,.62-.2,1.15,1.15,0,0,1,1,.43,2.08,2.08,0,0,1,.35,1.3v.21a1.42,1.42,0,0,1-.5.74,1.4,1.4,0,0,1-.87.29,1,1,0,0,1-.6-.18,1.28,1.28,0,0,1-.42-.52A1.64,1.64,0,0,1,239.51,26.09Z"/><path class="cls-3" d="M245,29.27a1.22,1.22,0,0,1-.86-.28,1.29,1.29,0,0,1-.36-.86V28h-.44v.14a1.68,1.68,0,0,0,.5,1.13,1.64,1.64,0,0,0,1.16.42,1.47,1.47,0,0,0,1.18-.48,2.07,2.07,0,0,0,.41-1.37,1.77,1.77,0,0,0-.45-1.26,1.59,1.59,0,0,0-1.21-.48,2,2,0,0,0-.63.1,1.81,1.81,0,0,0-.31.13l.17-1.72h2.38v-.44h-2.77l-.26,2.68.3.12.06,0a1.29,1.29,0,0,1,.45-.29,1.93,1.93,0,0,1,.62-.09,1.12,1.12,0,0,1,.88.35,1.34,1.34,0,0,1,.33.95,1.69,1.69,0,0,1-.29,1.07A1,1,0,0,1,245,29.27Z"/><path class="cls-3" d="M248,29.49a1.92,1.92,0,0,0,.92.22,1.68,1.68,0,0,0,1.21-.43,1.48,1.48,0,0,0,.47-1.15,1.36,1.36,0,0,0-.32-.92,1.41,1.41,0,0,0-.54-.37,1.49,1.49,0,0,0,.45-.37,1.3,1.3,0,0,0,.29-.82,1.49,1.49,0,0,0-.43-1.12,1.64,1.64,0,0,0-1.16-.41,1.86,1.86,0,0,0-.84.2,1.51,1.51,0,0,0-.6.55,1.58,1.58,0,0,0-.22.81v.12h.44v-.12a1,1,0,0,1,.34-.81,1.25,1.25,0,0,1,.88-.31,1.14,1.14,0,0,1,.85.29,1,1,0,0,1,.3.79.86.86,0,0,1-.33.71,1.38,1.38,0,0,1-.91.29h-.56v.44h.53a1.71,1.71,0,0,1,1.05.28.94.94,0,0,1,.34.79,1.08,1.08,0,0,1-.32.82,1.31,1.31,0,0,1-.92.3,1.48,1.48,0,0,1-1-.34,1.1,1.1,0,0,1-.38-.87v-.12h-.44v.12a1.64,1.64,0,0,0,.22.84A1.52,1.52,0,0,0,248,29.49Z"/><polygon class="cls-3" points="233.29 40.82 233.29 35.36 233.17 35.36 231.36 36 231.36 36.47 232.85 35.91 232.85 40.82 233.29 40.82"/><path class="cls-3" d="M236.94,37.3a2,2,0,0,0-.63.1,1.81,1.81,0,0,0-.31.13l.17-1.72h2.38v-.44h-2.77l-.26,2.68.3.12.06-.05a1.29,1.29,0,0,1,.45-.29,1.93,1.93,0,0,1,.62-.09,1.12,1.12,0,0,1,.88.35,1.34,1.34,0,0,1,.33.95,1.71,1.71,0,0,1-.29,1.07,1,1,0,0,1-.86.34,1.22,1.22,0,0,1-.86-.28,1.29,1.29,0,0,1-.36-.86v-.1h-.44v.13a1.68,1.68,0,0,0,.5,1.13,1.64,1.64,0,0,0,1.16.42,1.47,1.47,0,0,0,1.18-.48A2.07,2.07,0,0,0,238.6,39a1.77,1.77,0,0,0-.45-1.26A1.59,1.59,0,0,0,236.94,37.3Z"/><path class="cls-3" d="M241.83,35.74H242V35.3h-.12a2.48,2.48,0,0,0-2,.81,3.36,3.36,0,0,0-.68,2.23V39a2.26,2.26,0,0,0,.24,1,1.7,1.7,0,0,0,.65.68,1.84,1.84,0,0,0,.93.24,1.4,1.4,0,0,0,.82-.26,1.61,1.61,0,0,0,.57-.69,2.32,2.32,0,0,0,.2-1,2,2,0,0,0-.44-1.32,1.55,1.55,0,0,0-1.19-.51,1.93,1.93,0,0,0-.92.23,1.82,1.82,0,0,0-.38.29,2.4,2.4,0,0,1,.58-1.33A2.12,2.12,0,0,1,241.83,35.74Zm-2.24,2.77a1.06,1.06,0,0,1,.48-.65,1.43,1.43,0,0,1,.85-.27,1.08,1.08,0,0,1,.88.37,1.49,1.49,0,0,1,.33,1A1.7,1.7,0,0,1,241.8,40a1,1,0,0,1-.82.41,1.29,1.29,0,0,1-1-.41,1.61,1.61,0,0,1-.38-1.11Z"/><polygon class="cls-3" points="243.75 40.82 244.22 40.82 246.54 35.66 246.55 35.37 242.98 35.37 242.98 35.81 246.02 35.81 243.75 40.82"/><path class="cls-3" d="M247.86,38.89a1.48,1.48,0,0,0,.84.25,1.79,1.79,0,0,0,1-.27,2,2,0,0,0,.38-.32,2.36,2.36,0,0,1-.49,1.31,2,2,0,0,1-1.5.59h-.27l0,.44h.3a2.28,2.28,0,0,0,1.82-.75,3.14,3.14,0,0,0,.62-2.09v-.6a2.52,2.52,0,0,0-.46-1.58,1.59,1.59,0,0,0-1.32-.57,1.52,1.52,0,0,0-.85.26,1.82,1.82,0,0,0-.59.72,2.34,2.34,0,0,0-.21,1,2.09,2.09,0,0,0,.21.94A1.59,1.59,0,0,0,247.86,38.89Zm1.86-2.72a2.08,2.08,0,0,1,.35,1.3v.21a1.42,1.42,0,0,1-.5.74,1.4,1.4,0,0,1-.87.29,1,1,0,0,1-.6-.18,1.28,1.28,0,0,1-.42-.52,1.67,1.67,0,0,1-.16-.74,1.83,1.83,0,0,1,.16-.77,1.4,1.4,0,0,1,.45-.56,1,1,0,0,1,.62-.2A1.15,1.15,0,0,1,249.72,36.17Z"/><path class="cls-3" d="M232.71,46.48a1.52,1.52,0,0,0-.85.26,1.82,1.82,0,0,0-.59.72,2.31,2.31,0,0,0-.21,1,2.09,2.09,0,0,0,.21.94,1.59,1.59,0,0,0,.57.68,1.46,1.46,0,0,0,.84.25,1.79,1.79,0,0,0,1-.27,2,2,0,0,0,.38-.32,2.29,2.29,0,0,1-.5,1.31,1.86,1.86,0,0,1-1.49.59h-.27l0,.44h.3a2.28,2.28,0,0,0,1.82-.75,3.16,3.16,0,0,0,.62-2.09v-.6a2.52,2.52,0,0,0-.46-1.58A1.59,1.59,0,0,0,232.71,46.48Zm1.34,2.17v.21a1.42,1.42,0,0,1-.5.74,1.4,1.4,0,0,1-.87.29,1,1,0,0,1-.6-.18,1.38,1.38,0,0,1-.43-.52,1.81,1.81,0,0,1-.15-.74,1.83,1.83,0,0,1,.16-.77,1.4,1.4,0,0,1,.45-.56,1,1,0,0,1,.62-.21,1.17,1.17,0,0,1,1,.44A2.08,2.08,0,0,1,234.05,48.65Z"/><path class="cls-3" d="M236.94,48.33a1.87,1.87,0,0,0-.92.23,1.65,1.65,0,0,0-.39.29,2.47,2.47,0,0,1,.58-1.33,2.12,2.12,0,0,1,1.61-.61h.12v-.43h-.12a2.46,2.46,0,0,0-2,.81,3.36,3.36,0,0,0-.68,2.23v.64a2.16,2.16,0,0,0,.23,1,1.73,1.73,0,0,0,.66.68,1.78,1.78,0,0,0,.92.24,1.46,1.46,0,0,0,.83-.26,1.77,1.77,0,0,0,.57-.69,2.32,2.32,0,0,0,.19-1,2,2,0,0,0-.44-1.32A1.51,1.51,0,0,0,236.94,48.33Zm1.18,1.83a1.7,1.7,0,0,1-.33,1.06,1,1,0,0,1-.82.41,1.26,1.26,0,0,1-1-.41,1.57,1.57,0,0,1-.39-1.11v-.43a1.08,1.08,0,0,1,.47-.64,1.46,1.46,0,0,1,.85-.27,1.11,1.11,0,0,1,.89.37A1.54,1.54,0,0,1,238.12,50.16Z"/><path class="cls-3" d="M241.72,49.2a1.33,1.33,0,0,0,.45-.37,1.27,1.27,0,0,0,.3-.84,1.41,1.41,0,0,0-.46-1.1,1.71,1.71,0,0,0-1.18-.41,1.69,1.69,0,0,0-1.17.41,1.41,1.41,0,0,0-.45,1.1,1.26,1.26,0,0,0,.29.84,1.3,1.3,0,0,0,.44.37,1.71,1.71,0,0,0-.56.43,1.37,1.37,0,0,0-.32.89,1.44,1.44,0,0,0,.49,1.14,2,2,0,0,0,1.29.41,1.93,1.93,0,0,0,1.28-.41,1.42,1.42,0,0,0,.5-1.14,1.35,1.35,0,0,0-.33-.89A1.65,1.65,0,0,0,241.72,49.2Zm-.89-2.29a1.28,1.28,0,0,1,.86.31A1,1,0,0,1,242,48a.9.9,0,0,1-.32.72,1.25,1.25,0,0,1-.87.29,1.28,1.28,0,0,1-.87-.28.92.92,0,0,1-.33-.73,1,1,0,0,1,.33-.77A1.23,1.23,0,0,1,240.83,46.91Zm0,2.52a1.47,1.47,0,0,1,1,.32,1,1,0,0,1,.37.79,1,1,0,0,1-.36.78,1.44,1.44,0,0,1-1,.31,1.52,1.52,0,0,1-1-.3,1.06,1.06,0,0,1,0-1.58A1.41,1.41,0,0,1,240.84,49.43Z"/><path class="cls-3" d="M246,46.55h-.19v-.08l-.05.08h-.18L243,50.31v.27h2.52V52H246V50.58h.9v-.44H246Zm-2.31,3.59,1.8-2.68.07-.12v2.8Z"/><path class="cls-3" d="M247.9,51.56l1.4-1.63.33-.4a2.56,2.56,0,0,0,.71-1.53,1.48,1.48,0,0,0-.43-1.12,1.6,1.6,0,0,0-1.16-.4,1.59,1.59,0,0,0-.83.22,1.55,1.55,0,0,0-.58.61,1.68,1.68,0,0,0-.21.83v.12h.44v-.12a1.33,1.33,0,0,1,.15-.63,1.21,1.21,0,0,1,.43-.44,1.22,1.22,0,0,1,.6-.16,1.17,1.17,0,0,1,.85.29,1,1,0,0,1,.3.8,1.49,1.49,0,0,1-.2.67,5.31,5.31,0,0,1-.63.88l-1.81,2.09V52h3.36v-.44Z"/></g><rect class="cls-2" x="235.81" y="142.02" width="5.7" height="1.78"/><rect class="cls-2" x="232.96" y="142.02" width="2.05" height="1.78"/><rect class="cls-2" x="229.12" y="142.02" width="2.83" height="1.78"/><rect class="cls-2" x="226.19" y="142.02" width="1.9" height="1.78"/><rect class="cls-2" x="222.12" y="142.02" width="3" height="1.78"/><rect class="cls-2" x="216.18" y="142.02" width="4.96" height="1.78"/><rect class="cls-2" x="213.64" y="142.02" width="1.71" height="1.78"/><rect class="cls-2" x="208.47" y="142.02" width="4.18" height="1.78"/><rect class="cls-2" x="205.39" y="142.02" width="2.27" height="1.78"/><rect class="cls-2" x="205.39" y="146.52" width="6.5" height="1.78" transform="translate(417.29 294.83) rotate(180)"/><rect class="cls-2" x="212.69" y="146.52" width="1.25" height="1.78" transform="translate(426.64 294.83) rotate(180)"/><rect class="cls-2" x="214.94" y="146.52" width="2.83" height="1.78" transform="translate(432.72 294.83) rotate(180)"/><rect class="cls-2" x="218.8" y="146.52" width="1.9" height="1.78" transform="translate(439.5 294.83) rotate(180)"/><rect class="cls-2" x="221.78" y="146.52" width="7.08" height="1.78" transform="translate(450.64 294.83) rotate(180)"/><rect class="cls-2" x="229.84" y="146.52" width="0.88" height="1.78" transform="translate(460.55 294.83) rotate(180)"/><rect class="cls-2" x="231.55" y="146.52" width="1.71" height="1.78" transform="translate(464.8 294.83) rotate(180)"/><rect class="cls-2" x="234.26" y="146.52" width="4.18" height="1.78" transform="translate(472.69 294.83) rotate(180)"/><rect class="cls-2" x="239.24" y="146.52" width="2.27" height="1.78" transform="translate(480.74 294.83) rotate(180)"/><rect class="cls-2" x="235.01" y="151.03" width="6.5" height="1.78"/><rect class="cls-2" x="232.96" y="151.03" width="1.25" height="1.78"/><rect class="cls-2" x="229.12" y="151.03" width="2.83" height="1.78"/><rect class="cls-2" x="226.19" y="151.03" width="1.9" height="1.78"/><rect class="cls-2" x="218.04" y="151.03" width="7.08" height="1.78"/><rect class="cls-2" x="216.18" y="151.03" width="0.88" height="1.78"/><rect class="cls-2" x="213.64" y="151.03" width="1.71" height="1.78"/><rect class="cls-2" x="208.47" y="151.03" width="4.18" height="1.78"/><rect class="cls-2" x="205.39" y="151.03" width="2.27" height="1.78"/><rect class="cls-2" x="218.8" y="155.53" width="1.9" height="1.78" transform="translate(439.5 312.85) rotate(180)"/><rect class="cls-2" x="221.78" y="155.53" width="7.08" height="1.78" transform="translate(450.64 312.85) rotate(180)"/><rect class="cls-2" x="229.84" y="155.53" width="0.88" height="1.78" transform="translate(460.55 312.85) rotate(180)"/><rect class="cls-2" x="231.55" y="155.53" width="1.71" height="1.78" transform="translate(464.8 312.85) rotate(180)"/><rect class="cls-2" x="234.26" y="155.53" width="4.18" height="1.78" transform="translate(472.69 312.85) rotate(180)"/><rect class="cls-2" x="239.24" y="155.53" width="2.27" height="1.78" transform="translate(480.74 312.85) rotate(180)"/><rect class="cls-6" x="280.01" y="142.02" width="5.7" height="1.78"/><rect class="cls-6" x="277.16" y="142.02" width="2.05" height="1.78"/><rect class="cls-6" x="273.33" y="142.02" width="2.83" height="1.78"/><rect class="cls-6" x="270.4" y="142.02" width="1.9" height="1.78"/><rect class="cls-6" x="266.32" y="142.02" width="3" height="1.78"/><rect class="cls-6" x="260.39" y="142.02" width="4.96" height="1.78"/><rect class="cls-6" x="257.85" y="142.02" width="1.71" height="1.78"/><rect class="cls-6" x="252.67" y="142.02" width="4.18" height="1.78"/><rect class="cls-6" x="249.6" y="142.02" width="2.27" height="1.78"/><rect class="cls-6" x="249.6" y="146.52" width="6.5" height="1.78" transform="translate(505.69 294.83) rotate(180)"/><rect class="cls-6" x="256.9" y="146.52" width="1.25" height="1.78" transform="translate(515.04 294.83) rotate(180)"/><rect class="cls-6" x="259.14" y="146.52" width="2.83" height="1.78" transform="translate(521.12 294.83) rotate(180)"/><rect class="cls-6" x="263" y="146.52" width="1.9" height="1.78" transform="translate(527.91 294.83) rotate(180)"/><rect class="cls-6" x="265.98" y="146.52" width="7.08" height="1.78" transform="translate(539.05 294.83) rotate(180)"/><rect class="cls-6" x="274.04" y="146.52" width="0.88" height="1.78" transform="translate(548.96 294.83) rotate(180)"/><rect class="cls-6" x="275.75" y="146.52" width="1.71" height="1.78" transform="translate(553.21 294.83) rotate(180)"/><rect class="cls-6" x="278.46" y="146.52" width="4.18" height="1.78" transform="translate(561.1 294.83) rotate(180)"/><rect class="cls-6" x="283.44" y="146.52" width="2.27" height="1.78" transform="translate(569.15 294.83) rotate(180)"/><rect class="cls-6" x="279.21" y="151.03" width="6.5" height="1.78"/><rect class="cls-6" x="277.16" y="151.03" width="1.25" height="1.78"/><rect class="cls-6" x="273.33" y="151.03" width="2.83" height="1.78"/><rect class="cls-6" x="270.4" y="151.03" width="1.9" height="1.78"/><rect class="cls-6" x="262.24" y="151.03" width="7.08" height="1.78"/><rect class="cls-6" x="260.39" y="151.03" width="0.88" height="1.78"/><rect class="cls-6" x="257.85" y="151.03" width="1.71" height="1.78"/><rect class="cls-6" x="252.67" y="151.03" width="4.18" height="1.78"/><rect class="cls-6" x="249.6" y="151.03" width="2.27" height="1.78"/><rect class="cls-6" x="263" y="155.53" width="1.9" height="1.78" transform="translate(527.91 312.85) rotate(180)"/><rect class="cls-6" x="265.98" y="155.53" width="7.08" height="1.78" transform="translate(539.05 312.85) rotate(180)"/><rect class="cls-6" x="274.04" y="155.53" width="0.88" height="1.78" transform="translate(548.96 312.85) rotate(180)"/><rect class="cls-6" x="275.75" y="155.53" width="1.71" height="1.78" transform="translate(553.21 312.85) rotate(180)"/><rect class="cls-6" x="278.46" y="155.53" width="4.18" height="1.78" transform="translate(561.1 312.85) rotate(180)"/><rect class="cls-6" x="283.44" y="155.53" width="2.27" height="1.78" transform="translate(569.15 312.85) rotate(180)"/></g></g></svg>