<svg id="Layer_1" data-name="Layer 1" xmlns="http://www.w3.org/2000/svg" xmlns:xlink="http://www.w3.org/1999/xlink" viewBox="0 0 407.43 380.86"><defs><style>.cls-1,.cls-14,.cls-15,.cls-23,.cls-6,.cls-9{fill:none;}.cls-11,.cls-16,.cls-19,.cls-2,.cls-20,.cls-4{fill:#fff;}.cls-17,.cls-24,.cls-3,.cls-8{fill:#e6ee9c;}.cls-4{opacity:0.7;}.cls-17,.cls-20,.cls-4,.cls-8{isolation:isolate;}.cls-20,.cls-5{opacity:0.4;}.cls-15,.cls-6{stroke:#fff;}.cls-18,.cls-19,.cls-6{stroke-miterlimit:10;}.cls-6{stroke-width:0.99px;}.cls-7{clip-path:url(#clip-path);}.cls-8{opacity:0.5;}.cls-10,.cls-11,.cls-14,.cls-16,.cls-18,.cls-19,.cls-21,.cls-22,.cls-23,.cls-24,.cls-9{stroke:#333;}.cls-10,.cls-11,.cls-14,.cls-15,.cls-16,.cls-21,.cls-22,.cls-23,.cls-24,.cls-9{stroke-linecap:round;stroke-linejoin:round;}.cls-10,.cls-11,.cls-9{stroke-width:0.83px;}.cls-10,.cls-18,.cls-21,.cls-22,.cls-25{fill:#333;}.cls-12{clip-path:url(#clip-path-2);}.cls-13{clip-path:url(#clip-path-3);}.cls-14,.cls-15{stroke-width:0.55px;}.cls-16,.cls-18,.cls-19,.cls-21,.cls-24{stroke-width:1.11px;}.cls-17{opacity:0.44;}.cls-22{stroke-width:1.01px;}.cls-23{stroke-width:2.21px;}.cls-26{clip-path:url(#clip-path-4);}.cls-27{clip-path:url(#clip-path-5);}.cls-28{clip-path:url(#clip-path-6);}</style><clipPath id="clip-path"><polygon class="cls-1" points="90.89 30.7 77.95 42 89.75 79.53 116.96 79.03 123.01 32.99 103.68 27.74 90.89 30.7"/></clipPath><clipPath id="clip-path-2"><path class="cls-1" d="M78,42,67.83,67.89s7.86,4.59,8,4.09S84,61,84,61Z"/></clipPath><clipPath id="clip-path-3"><polygon class="cls-1" points="123.01 32.99 147.87 52.9 138.19 58.61 121.05 48.72 123.01 32.99"/></clipPath><clipPath id="clip-path-4"><path class="cls-1" d="M382.49,299.51,376,310.69a36.25,36.25,0,0,1,5.53,10c1.53,4.42,8,29.28,11.9,40.68a14.29,14.29,0,0,0,2,4,4.59,4.59,0,0,1,1,2.72,2.21,2.21,0,0,1-2,2.39h0c-2.34.34-15.41,1.49-16.08.94-.43-.36,6.11-3.1,8.85-4.9a7.45,7.45,0,0,0,2.22-2.11s-18.69-40.35-20.67-45.25a29.42,29.42,0,0,1-2.15-12.37,97.85,97.85,0,0,1,1-10.8Z"/></clipPath><clipPath id="clip-path-5"><path class="cls-1" d="M360.29,256.24s-3.32,8.41-8,21.43-.35,32.71-.35,32.71,3.43,2.14,12.71-.44,17.08-5.25,17.08-5.25,6-14.52,6.35-23.78-5.85-20.61-5.85-20.61S369.62,244.73,360.29,256.24Z"/></clipPath><clipPath id="clip-path-6"><path class="cls-1" d="M369.7,219.28a60.74,60.74,0,0,0-9.23-1c-3.93,0-11.19.4-14.91-1.37s-8.69-6.38-8.69-6.38l-8.38-25-3.71.26s3.55,21,3.55,24.72a13,13,0,0,0,3.14,8.44c1.77,2.36,14.09,9.32,18.6,11.67l2,1s-3.53,5.3-2.94,7.65,5.29,5.3,6.28,7.06,4.42,11.38,4.42,11.38a172,172,0,0,0,7.59-15.49C372.05,231.66,375.78,223.81,369.7,219.28Z"/></clipPath></defs><g id="freepik--background-simple--inject-12"><path class="cls-2" d="M36.15,276.35c57,50.17,107.91,50.67,179.92,54.78s122.32-12,155.76-51.33c38.6-45.39,24.82-135.86-46.59-159.24-22.32-7.32-47.69-7.07-68-18.84-38.68-22.47-72.66-60.92-130-61.4S36.92,82.7,36.92,82.7C-2.57,139.51-20.87,226.18,36.15,276.35Z"/></g><g id="freepik--Shadow--inject-12"><g id="freepik--shadow--inject-12-2" data-name="freepik--shadow--inject-12"><ellipse class="cls-3" cx="193.02" cy="362.89" rx="156.32" ry="7.84"/><ellipse class="cls-4" cx="193.02" cy="362.89" rx="156.32" ry="7.84"/><ellipse class="cls-3" cx="377" cy="373.95" rx="30.43" ry="6.91"/><ellipse class="cls-4" cx="377" cy="373.95" rx="30.43" ry="6.91"/></g></g><g id="freepik--Plants--inject-12"><g id="freepik--plants--inject-12-2" data-name="freepik--plants--inject-12"><path class="cls-3" d="M98.6,340.3c-1.39-2.15-3.31-5.26-5.53-9.08-.63-1.1-1.27-2.27-1.92-3.49.47-.3,4.33-2.74,5.53-4.54,1.11-1.61,2-4,1.3-5.92A3.45,3.45,0,0,0,93.66,315l-.35.13c-2.64,1.25-3.5,6.43-3.17,9,0,.15.5,2.08.76,3.06L89.72,325c-.57-1.11-1.11-2.3-1.71-3.44l-.82-1.85c-.29-.62-.5-1.24-.75-1.87-.35-.93-.67-1.91-1-2.89,1.11-.52,4.56-2.1,5.82-3.49s2.56-3.64,2.21-5.67a3.45,3.45,0,0,0-3.92-2.88l-.38.08c-2.79.83-4.43,5.82-4.49,8.42a11.2,11.2,0,0,0,.1,1.3c-.28-1-.57-1.93-.82-2.91-.72-2.8-1.36-5.67-2-8.53-.13-.6-.27-1.2-.42-1.79,1-.43,4.67-2.13,6-3.59s2.57-3.64,2.21-5.66a3.45,3.45,0,0,0-3.94-2.88l-.36.08c-2.79.83-4.43,5.83-4.49,8.43a9.68,9.68,0,0,0,.12,1.48c-.38-1.55-.78-3.1-1.22-4.62a62,62,0,0,0-2.75-7.67c.35-.14,4.71-2,6.18-3.66,1.31-1.44,2.57-3.64,2.21-5.65a3.45,3.45,0,0,0-3.93-2.89,2.45,2.45,0,0,0-.37.08c-2.79.83-4.42,5.83-4.49,8.43,0,.17.21,2.55.32,3.4v-.08a45.49,45.49,0,0,0-4-6.93,64.57,64.57,0,0,0-4.43-5.61c-1.45-1.67-2.88-3.11-4.15-4.42-.7-.68-1.35-1.29-2-1.85h0s-1.36-3.25-1.47-3.45c-1.3-2.22-5.14-5.83-8-5.21a3.45,3.45,0,0,0-2.52,4.16,1.24,1.24,0,0,0,.11.36c.63,2,2.8,3.32,4.64,3.92s6,.33,7,.24c.62.6,1.28,1.24,2,2,1.24,1.29,2.64,2.75,4,4.42.38.45.76,1,1.11,1.43-.82-.67-1.95-1.58-2.07-1.66-2.21-1.39-7.26-2.8-9.49-.94a3.43,3.43,0,0,0-.35,4.84h0a1.79,1.79,0,0,0,.27.28c1.47,1.44,4,1.62,5.92,1.33s5.53-2.53,6.37-3c.83,1.11,1.66,2.21,2.46,3.42a44.64,44.64,0,0,1,3.8,6.91c.06.14.1.29.17.43-.34-.39-2.39-2.46-2.56-2.6-2-1.62-6.9-3.58-9.33-2a3.47,3.47,0,0,0-.84,4.83,2,2,0,0,0,.22.27c1.29,1.6,3.79,2,5.73,2,2.21-.07,6.64-2.3,6.81-2.39A58.56,58.56,0,0,1,78.93,293c.51,1.87.94,3.8,1.35,5.73-.45-.51-2.36-2.43-2.51-2.55-2-1.63-6.9-3.59-9.34-2a3.46,3.46,0,0,0-.86,4.8l.23.3c1.31,1.59,3.8,2,5.74,2,2.22-.08,6.42-2.22,6.77-2.37.19.87.39,1.76.57,2.63.6,2.89,1.18,5.78,1.85,8.61.22,1,.48,2,.74,2.91-.71-.75-2-2.08-2.16-2.21-2-1.64-6.91-3.59-9.34-2a3.47,3.47,0,0,0-.86,4.81,3.25,3.25,0,0,0,.23.29c1.31,1.6,3.8,2.05,5.74,2s5.54-1.77,6.55-2.21c.45,1.59.92,3.18,1.46,4.7.26.66.47,1.34.73,2s.52,1.25.79,1.86c.57,1.25,1.1,2.41,1.67,3.56.28.58.56,1.11.84,1.68-.61-.86-1.59-2.21-1.7-2.32-1.76-1.93-6.29-4.59-8.93-3.38a3.45,3.45,0,0,0-1.58,4.6h0c0,.11.12.22.18.33,1.11,1.78,3.45,2.6,5.38,2.82,2.13.25,6.5-1.11,7-1.31.69,1.38,1.38,2.7,2,3.94,2.12,3.91,4,7.07,5.38,9.28s2.21,3.44,2.21,3.44h0a1,1,0,0,0,1.39.28l0,0a1,1,0,0,0,.28-1.39l0,0h0S100,342.44,98.6,340.3Z"/><path class="cls-3" d="M70,274s4-3.17,5.06-5.21c.87-1.72,1.5-4.18.59-6a3.44,3.44,0,0,0-4.54-1.74l-.34.17c-2.47,1.54-2.74,6.79-2.11,9.32C68.79,270.77,70,274.07,70,274Z"/><path class="cls-3" d="M96.31,342.18c-2.34-1-5.68-2.53-9.6-4.52-1.1-.57-2.32-1.19-3.54-1.86.25-.5,2.11-4.67,2.1-6.82,0-1.94-.54-4.43-2.21-5.65a3.44,3.44,0,0,0-4.84.49l-.23.31c-1.51,2.5.62,7.3,2.33,9.26.11.14,1.57,1.47,2.32,2.15l-2.21-1.22c-1.11-.61-2.21-1.28-3.32-1.93l-1.68-1.11c-.59-.35-1.11-.76-1.66-1.11-.81-.57-1.62-1.21-2.41-1.85.68-1.11,2.63-4.27,2.92-6.13s.12-4.43-1.31-5.92a3.45,3.45,0,0,0-4.86-.28l-.27.28c-1.87,2.21-.49,7.3.89,9.5a9.73,9.73,0,0,0,.8,1c-.76-.65-1.54-1.3-2.29-2-2.13-1.94-4.26-4-6.38-6l-1.36-1.26c.58-.89,2.73-4.34,3-6.28s.12-4.43-1.31-5.93a3.43,3.43,0,0,0-4.85-.27h0l-.26.26c-1.87,2.21-.49,7.31.9,9.51a11.45,11.45,0,0,0,.91,1.17c-1.17-1.09-2.36-2.16-3.56-3.18a60.81,60.81,0,0,0-6.52-4.88c.21-.32,2.81-4.29,3.14-6.46.29-1.93.12-4.43-1.31-5.93a3.45,3.45,0,0,0-4.87-.25h0l-.24.24c-1.87,2.21-.49,7.31.89,9.51.1.16,1.6,2,2.15,2.67l-.08-.06a45.81,45.81,0,0,0-7.15-3.56,64,64,0,0,0-6.79-2.21c-2.13-.6-4.12-1-5.88-1.36L25,300.05h0s-2.94-1.95-3.14-2.05c-2.32-1.16-7.51-2-9.54.05a3.46,3.46,0,0,0,.2,4.88l.28.23c1.61,1.29,4.14,1.19,6,.71s5.19-3,6-3.67c.85.15,1.76.33,2.75.54,1.75.39,3.72.84,5.83,1.48.57.17,1.11.38,1.74.56-1-.11-2.49-.25-2.62-.24-2.61,0-7.6,1.66-8.45,4.43a3.43,3.43,0,0,0,2.39,4.22h0a1.55,1.55,0,0,0,.36.08c2,.4,4.23-.85,5.67-2.21s3.32-5.2,3.64-6c1.28.43,2.6.91,3.93,1.49a44,44,0,0,1,7,3.67l.37.28c-.51-.14-3.32-.74-3.55-.76-2.6-.23-7.74.82-8.85,3.51a3.45,3.45,0,0,0,2,4.46h0a2.3,2.3,0,0,0,.34.12c2,.61,4.29-.39,5.87-1.52,1.82-1.3,4.27-5.6,4.36-5.75a60.45,60.45,0,0,1,6.2,4.85c1.46,1.3,2.89,2.66,4.3,4-.67-.16-3.32-.72-3.52-.74-2.58-.24-7.74.82-8.85,3.5a3.46,3.46,0,0,0,1.93,4.47l.36.12c2,.62,4.3-.38,5.88-1.52,1.77-1.27,4.14-5.36,4.33-5.71l1.93,1.9c2.09,2.06,4.17,4.16,6.28,6.15.73.69,1.49,1.35,2.22,2-1-.23-2.85-.61-3-.63-2.6-.23-7.75.83-8.85,3.51A3.44,3.44,0,0,0,58.73,335h0l.37.12c2,.61,4.29-.39,5.87-1.52S68.62,329,69.19,328c1.25,1.11,2.51,2.15,3.8,3.12.58.41,1.11.86,1.69,1.23l1.68,1.1c1.17.72,2.21,1.4,3.31,2l1.63.94c-1-.39-2.56-1-2.7-1-2.53-.63-7.74-.36-9.31,2.12a3.46,3.46,0,0,0,1.24,4.72h0a2.59,2.59,0,0,0,.33.17c1.84.89,4.3.26,6-.61,1.91-1,4.79-4.54,5.14-5,1.34.77,2.64,1.5,3.88,2.15,3.91,2.09,7.25,3.69,9.61,4.78s3.72,1.66,3.72,1.66h0a1,1,0,1,0,.73-1.92h0A32.92,32.92,0,0,1,96.31,342.18Z"/><path class="cls-3" d="M36,302.66s1.6-4.86,1.34-7.12c-.23-1.94-1.11-4.33-2.82-5.37a3.46,3.46,0,0,0-4.77,1.06l-.18.32c-1.22,2.66,1.46,7.18,3.39,8.93C33.09,300.64,36,302.72,36,302.66Z"/><g class="cls-5"><path class="cls-2" d="M98.6,340.3c-1.39-2.15-3.31-5.26-5.53-9.08-.63-1.1-1.27-2.27-1.92-3.49.47-.3,4.33-2.74,5.53-4.54,1.11-1.61,2-4,1.3-5.92A3.45,3.45,0,0,0,93.66,315l-.35.13c-2.64,1.25-3.5,6.43-3.17,9,0,.15.5,2.08.76,3.06L89.72,325c-.57-1.11-1.11-2.3-1.71-3.44l-.82-1.85c-.29-.62-.5-1.24-.75-1.87-.35-.93-.67-1.91-1-2.89,1.11-.52,4.56-2.1,5.82-3.49s2.56-3.64,2.21-5.67a3.45,3.45,0,0,0-3.92-2.88l-.38.08c-2.79.83-4.43,5.82-4.49,8.42a11.2,11.2,0,0,0,.1,1.3c-.28-1-.57-1.93-.82-2.91-.72-2.8-1.36-5.67-2-8.53-.13-.6-.27-1.2-.42-1.79,1-.43,4.67-2.13,6-3.59s2.57-3.64,2.21-5.66a3.45,3.45,0,0,0-3.94-2.88l-.36.08c-2.79.83-4.43,5.83-4.49,8.43a9.68,9.68,0,0,0,.12,1.48c-.38-1.55-.78-3.1-1.22-4.62a62,62,0,0,0-2.75-7.67c.35-.14,4.71-2,6.18-3.66,1.31-1.44,2.57-3.64,2.21-5.65a3.45,3.45,0,0,0-3.93-2.89,2.45,2.45,0,0,0-.37.08c-2.79.83-4.42,5.83-4.49,8.43,0,.17.21,2.55.32,3.4v-.08a45.49,45.49,0,0,0-4-6.93,64.57,64.57,0,0,0-4.43-5.61c-1.45-1.67-2.88-3.11-4.15-4.42-.7-.68-1.35-1.29-2-1.85h0s-1.36-3.25-1.47-3.45c-1.3-2.22-5.14-5.83-8-5.21a3.45,3.45,0,0,0-2.52,4.16,1.24,1.24,0,0,0,.11.36c.63,2,2.8,3.32,4.64,3.92s6,.33,7,.24c.62.6,1.28,1.24,2,2,1.24,1.29,2.64,2.75,4,4.42.38.45.76,1,1.11,1.43-.82-.67-1.95-1.58-2.07-1.66-2.21-1.39-7.26-2.8-9.49-.94a3.43,3.43,0,0,0-.35,4.84h0a1.79,1.79,0,0,0,.27.28c1.47,1.44,4,1.62,5.92,1.33s5.53-2.53,6.37-3c.83,1.11,1.66,2.21,2.46,3.42a44.64,44.64,0,0,1,3.8,6.91c.06.14.1.29.17.43-.34-.39-2.39-2.46-2.56-2.6-2-1.62-6.9-3.58-9.33-2a3.47,3.47,0,0,0-.84,4.83,2,2,0,0,0,.22.27c1.29,1.6,3.79,2,5.73,2,2.21-.07,6.64-2.3,6.81-2.39A58.56,58.56,0,0,1,78.93,293c.51,1.87.94,3.8,1.35,5.73-.45-.51-2.36-2.43-2.51-2.55-2-1.63-6.9-3.59-9.34-2a3.46,3.46,0,0,0-.86,4.8l.23.3c1.31,1.59,3.8,2,5.74,2,2.22-.08,6.42-2.22,6.77-2.37.19.87.39,1.76.57,2.63.6,2.89,1.18,5.78,1.85,8.61.22,1,.48,2,.74,2.91-.71-.75-2-2.08-2.16-2.21-2-1.64-6.91-3.59-9.34-2a3.47,3.47,0,0,0-.86,4.81,3.25,3.25,0,0,0,.23.29c1.31,1.6,3.8,2.05,5.74,2s5.54-1.77,6.55-2.21c.45,1.59.92,3.18,1.46,4.7.26.66.47,1.34.73,2s.52,1.25.79,1.86c.57,1.25,1.1,2.41,1.67,3.56.28.58.56,1.11.84,1.68-.61-.86-1.59-2.21-1.7-2.32-1.76-1.93-6.29-4.59-8.93-3.38a3.45,3.45,0,0,0-1.58,4.6h0c0,.11.12.22.18.33,1.11,1.78,3.45,2.6,5.38,2.82,2.13.25,6.5-1.11,7-1.31.69,1.38,1.38,2.7,2,3.94,2.12,3.91,4,7.07,5.38,9.28s2.21,3.44,2.21,3.44h0a1,1,0,0,0,1.39.28l0,0a1,1,0,0,0,.28-1.39l0,0h0S100,342.44,98.6,340.3Z"/><path class="cls-2" d="M70,274s4-3.17,5.06-5.21c.87-1.72,1.5-4.18.59-6a3.44,3.44,0,0,0-4.54-1.74l-.34.17c-2.47,1.54-2.74,6.79-2.11,9.32C68.79,270.77,70,274.07,70,274Z"/><path class="cls-2" d="M96.31,342.18c-2.34-1-5.68-2.53-9.6-4.52-1.1-.57-2.32-1.19-3.54-1.86.25-.5,2.11-4.67,2.1-6.82,0-1.94-.54-4.43-2.21-5.65a3.44,3.44,0,0,0-4.84.49l-.23.31c-1.51,2.5.62,7.3,2.33,9.26.11.14,1.57,1.47,2.32,2.15l-2.21-1.22c-1.11-.61-2.21-1.28-3.32-1.93l-1.68-1.11c-.59-.35-1.11-.76-1.66-1.11-.81-.57-1.62-1.21-2.41-1.85.68-1.11,2.63-4.27,2.92-6.13s.12-4.43-1.31-5.92a3.45,3.45,0,0,0-4.86-.28l-.27.28c-1.87,2.21-.49,7.3.89,9.5a9.73,9.73,0,0,0,.8,1c-.76-.65-1.54-1.3-2.29-2-2.13-1.94-4.26-4-6.38-6l-1.36-1.26c.58-.89,2.73-4.34,3-6.28s.12-4.43-1.31-5.93a3.43,3.43,0,0,0-4.85-.27h0l-.26.26c-1.87,2.21-.49,7.31.9,9.51a11.45,11.45,0,0,0,.91,1.17c-1.17-1.09-2.36-2.16-3.56-3.18a60.81,60.81,0,0,0-6.52-4.88c.21-.32,2.81-4.29,3.14-6.46.29-1.93.12-4.43-1.31-5.93a3.45,3.45,0,0,0-4.87-.25h0l-.24.24c-1.87,2.21-.49,7.31.89,9.51.1.16,1.6,2,2.15,2.67l-.08-.06a45.81,45.81,0,0,0-7.15-3.56,64,64,0,0,0-6.79-2.21c-2.13-.6-4.12-1-5.88-1.36L25,300.05h0s-2.94-1.95-3.14-2.05c-2.32-1.16-7.51-2-9.54.05a3.46,3.46,0,0,0,.2,4.88l.28.23c1.61,1.29,4.14,1.19,6,.71s5.19-3,6-3.67c.85.15,1.76.33,2.75.54,1.75.39,3.72.84,5.83,1.48.57.17,1.11.38,1.74.56-1-.11-2.49-.25-2.62-.24-2.61,0-7.6,1.66-8.45,4.43a3.43,3.43,0,0,0,2.39,4.22h0a1.55,1.55,0,0,0,.36.08c2,.4,4.23-.85,5.67-2.21s3.32-5.2,3.64-6c1.28.43,2.6.91,3.93,1.49a44,44,0,0,1,7,3.67l.37.28c-.51-.14-3.32-.74-3.55-.76-2.6-.23-7.74.82-8.85,3.51a3.45,3.45,0,0,0,2,4.46h0a2.3,2.3,0,0,0,.34.12c2,.61,4.29-.39,5.87-1.52,1.82-1.3,4.27-5.6,4.36-5.75a60.45,60.45,0,0,1,6.2,4.85c1.46,1.3,2.89,2.66,4.3,4-.67-.16-3.32-.72-3.52-.74-2.58-.24-7.74.82-8.85,3.5a3.46,3.46,0,0,0,1.93,4.47l.36.12c2,.62,4.3-.38,5.88-1.52,1.77-1.27,4.14-5.36,4.33-5.71l1.93,1.9c2.09,2.06,4.17,4.16,6.28,6.15.73.69,1.49,1.35,2.22,2-1-.23-2.85-.61-3-.63-2.6-.23-7.75.83-8.85,3.51A3.44,3.44,0,0,0,58.73,335h0l.37.12c2,.61,4.29-.39,5.87-1.52S68.62,329,69.19,328c1.25,1.11,2.51,2.15,3.8,3.12.58.41,1.11.86,1.69,1.23l1.68,1.1c1.17.72,2.21,1.4,3.31,2l1.63.94c-1-.39-2.56-1-2.7-1-2.53-.63-7.74-.36-9.31,2.12a3.46,3.46,0,0,0,1.24,4.72h0a2.59,2.59,0,0,0,.33.17c1.84.89,4.3.26,6-.61,1.91-1,4.79-4.54,5.14-5,1.34.77,2.64,1.5,3.88,2.15,3.91,2.09,7.25,3.69,9.61,4.78s3.72,1.66,3.72,1.66h0a1,1,0,1,0,.73-1.92h0A32.92,32.92,0,0,1,96.31,342.18Z"/><path class="cls-2" d="M36,302.66s1.6-4.86,1.34-7.12c-.23-1.94-1.11-4.33-2.82-5.37a3.46,3.46,0,0,0-4.77,1.06l-.18.32c-1.22,2.66,1.46,7.18,3.39,8.93C33.09,300.64,36,302.72,36,302.66Z"/></g><path class="cls-3" d="M266.19,292.51c.12,28.66,22.89,51.83,22.89,51.83s22.6-23.33,22.48-52-22.93-51.83-22.93-51.83S266.06,263.8,266.19,292.51Z"/><line class="cls-6" x1="289.13" y1="344.27" x2="288.67" y2="240.46"/><line class="cls-6" x1="288.84" y1="277.36" x2="276.07" y2="266.31"/><line class="cls-6" x1="289.1" y1="294.51" x2="304.76" y2="271.64"/><line class="cls-6" x1="288.95" y1="304.4" x2="270.11" y2="287.73"/><line class="cls-6" x1="289.21" y1="317.72" x2="307.7" y2="301.09"/><line class="cls-6" x1="289.26" y1="329.22" x2="274.68" y2="317.78"/><path class="cls-3" d="M250.65,336.74c11.06,12.38,29.87,13.66,29.87,13.66s.83-18.81-10.26-31.22-29.83-13.61-29.83-13.61S239.56,324.38,250.65,336.74Z"/><line class="cls-6" x1="280.53" y1="350.4" x2="240.39" y2="305.53"/><line class="cls-6" x1="254.65" y1="321.48" x2="244.88" y2="321.59"/><line class="cls-6" x1="261.38" y1="328.81" x2="259.37" y2="312.87"/><line class="cls-6" x1="265.11" y1="333.16" x2="250.53" y2="333.18"/><line class="cls-6" x1="270.35" y1="338.84" x2="271.98" y2="324.51"/><line class="cls-6" x1="274.8" y1="343.81" x2="264.07" y2="344.46"/><path class="cls-3" d="M308.43,318.58c-11.53,12-11.38,30.82-11.38,30.82s18.8-.57,30.35-12.56S338.79,306,338.79,306,320,306.61,308.43,318.58Z"/><line class="cls-6" x1="297.05" y1="349.4" x2="338.79" y2="306.02"/><line class="cls-6" x1="323.95" y1="321.45" x2="323.11" y2="311.7"/><line class="cls-6" x1="317.14" y1="328.69" x2="332.89" y2="325.49"/><line class="cls-6" x1="313.08" y1="332.74" x2="311.97" y2="318.19"/><line class="cls-6" x1="307.81" y1="338.39" x2="322.21" y2="338.94"/><line class="cls-6" x1="303.19" y1="343.19" x2="301.74" y2="332.54"/><g class="cls-5"><path class="cls-2" d="M266.19,292.51c.12,28.66,22.89,51.83,22.89,51.83s22.6-23.33,22.48-52-22.93-51.83-22.93-51.83S266.06,263.8,266.19,292.51Z"/><line class="cls-1" x1="289.13" y1="344.27" x2="288.67" y2="240.46"/><line class="cls-1" x1="288.84" y1="277.36" x2="276.07" y2="266.31"/><line class="cls-1" x1="289.1" y1="294.51" x2="304.76" y2="271.64"/><line class="cls-1" x1="288.95" y1="304.4" x2="270.11" y2="287.73"/><line class="cls-1" x1="289.21" y1="317.72" x2="307.7" y2="301.09"/><line class="cls-1" x1="289.26" y1="329.22" x2="274.68" y2="317.78"/><path class="cls-2" d="M250.65,336.74c11.06,12.38,29.87,13.66,29.87,13.66s.83-18.81-10.26-31.22-29.83-13.61-29.83-13.61S239.56,324.38,250.65,336.74Z"/><line class="cls-1" x1="280.53" y1="350.4" x2="240.39" y2="305.53"/><line class="cls-1" x1="254.65" y1="321.48" x2="244.88" y2="321.59"/><line class="cls-1" x1="261.38" y1="328.81" x2="259.37" y2="312.87"/><line class="cls-1" x1="265.11" y1="333.16" x2="250.53" y2="333.18"/><line class="cls-1" x1="270.35" y1="338.84" x2="271.98" y2="324.51"/><line class="cls-1" x1="274.8" y1="343.81" x2="264.07" y2="344.46"/><path class="cls-2" d="M308.43,318.58c-11.53,12-11.38,30.82-11.38,30.82s18.8-.57,30.35-12.56S338.79,306,338.79,306,320,306.61,308.43,318.58Z"/><line class="cls-1" x1="297.05" y1="349.4" x2="338.79" y2="306.02"/><line class="cls-1" x1="323.95" y1="321.45" x2="323.11" y2="311.7"/><line class="cls-1" x1="317.14" y1="328.69" x2="332.89" y2="325.49"/><line class="cls-1" x1="313.08" y1="332.74" x2="311.97" y2="318.19"/><line class="cls-1" x1="307.81" y1="338.39" x2="322.21" y2="338.94"/><line class="cls-1" x1="303.19" y1="343.19" x2="301.74" y2="332.54"/></g><path class="cls-3" d="M236.92,43.45c.1,23.94,19.16,43.28,19.16,43.28S275,67.24,274.89,43.29,255.73,0,255.73,0,236.81,19.51,236.92,43.45Z"/><line class="cls-6" x1="256.08" y1="86.73" x2="255.71"/><line class="cls-6" x1="255.84" y1="30.83" x2="245.17" y2="21.6"/><line class="cls-6" x1="256.07" y1="45.15" x2="269.14" y2="26.05"/><line class="cls-6" x1="255.94" y1="53.42" x2="240.2" y2="39.49"/><line class="cls-6" x1="256.15" y1="64.55" x2="271.6" y2="50.65"/><line class="cls-6" x1="256.19" y1="74.16" x2="244.01" y2="64.6"/><path class="cls-3" d="M223.93,80.44c9.26,10.35,25,11.41,25,11.41s.7-15.73-8.56-26.07-25-11.41-25-11.41S214.67,70.09,223.93,80.44Z"/><line class="cls-6" x1="248.89" y1="91.85" x2="215.37" y2="54.37"/><line class="cls-6" x1="227.29" y1="67.69" x2="219.11" y2="67.79"/><line class="cls-6" x1="232.89" y1="73.82" x2="231.21" y2="60.5"/><line class="cls-6" x1="236.02" y1="77.45" x2="223.83" y2="77.47"/><line class="cls-6" x1="240.39" y1="82.19" x2="241.76" y2="70.22"/><line class="cls-6" x1="244.11" y1="86.35" x2="235.15" y2="86.89"/><path class="cls-3" d="M272.21,65.27C262.59,75.27,262.7,91,262.7,91s15.73-.51,25.36-10.51,9.52-25.74,9.52-25.74S281.85,55.27,272.21,65.27Z"/><line class="cls-6" x1="262.7" y1="91.02" x2="297.58" y2="54.78"/><line class="cls-6" x1="285.18" y1="67.66" x2="284.47" y2="59.51"/><line class="cls-6" x1="279.49" y1="73.72" x2="292.64" y2="71.04"/><line class="cls-6" x1="276.09" y1="77.1" x2="275.16" y2="64.95"/><line class="cls-6" x1="271.69" y1="81.82" x2="283.73" y2="82.28"/><line class="cls-6" x1="267.83" y1="85.83" x2="266.61" y2="76.94"/><g class="cls-5"><path class="cls-2" d="M236.92,43.45c.1,23.94,19.16,43.28,19.16,43.28S275,67.24,274.89,43.29,255.73,0,255.73,0,236.81,19.51,236.92,43.45Z"/><line class="cls-1" x1="256.08" y1="86.73" x2="255.71"/><line class="cls-1" x1="255.84" y1="30.83" x2="245.17" y2="21.6"/><line class="cls-1" x1="256.07" y1="45.15" x2="269.14" y2="26.05"/><line class="cls-1" x1="255.94" y1="53.42" x2="240.2" y2="39.49"/><line class="cls-1" x1="256.15" y1="64.55" x2="271.6" y2="50.65"/><line class="cls-1" x1="256.19" y1="74.16" x2="244.01" y2="64.6"/><path class="cls-2" d="M223.93,80.44c9.26,10.35,25,11.41,25,11.41s.7-15.73-8.56-26.07-25-11.41-25-11.41S214.67,70.09,223.93,80.44Z"/><line class="cls-1" x1="248.89" y1="91.85" x2="215.37" y2="54.37"/><line class="cls-1" x1="227.29" y1="67.69" x2="219.11" y2="67.79"/><line class="cls-1" x1="232.89" y1="73.82" x2="231.21" y2="60.5"/><line class="cls-1" x1="236.02" y1="77.45" x2="223.83" y2="77.47"/><line class="cls-1" x1="240.39" y1="82.19" x2="241.76" y2="70.22"/><line class="cls-1" x1="244.11" y1="86.35" x2="235.15" y2="86.89"/><path class="cls-2" d="M272.21,65.27C262.59,75.27,262.7,91,262.7,91s15.73-.51,25.36-10.51,9.52-25.74,9.52-25.74S281.85,55.27,272.21,65.27Z"/><line class="cls-1" x1="262.7" y1="91.02" x2="297.58" y2="54.78"/><line class="cls-1" x1="285.18" y1="67.66" x2="284.47" y2="59.51"/><line class="cls-1" x1="279.49" y1="73.72" x2="292.64" y2="71.04"/><line class="cls-1" x1="276.09" y1="77.1" x2="275.16" y2="64.95"/><line class="cls-1" x1="271.69" y1="81.82" x2="283.73" y2="82.28"/><line class="cls-1" x1="267.83" y1="85.83" x2="266.61" y2="76.94"/></g><path class="cls-3" d="M102.5,312.69c.08,18.66,14.92,33.71,14.92,33.71s14.72-15.18,14.63-33.84-14.93-33.71-14.93-33.71S102.43,294,102.5,312.69Z"/><line class="cls-6" x1="117.42" y1="346.4" x2="117.12" y2="278.85"/><line class="cls-6" x1="117.23" y1="302.86" x2="108.93" y2="295.68"/><line class="cls-6" x1="117.41" y1="314.02" x2="127.59" y2="299.14"/><line class="cls-6" x1="117.31" y1="320.46" x2="105.04" y2="309.62"/><line class="cls-6" x1="117.48" y1="329.13" x2="129.51" y2="318.31"/><line class="cls-6" x1="117.51" y1="336.61" x2="108.02" y2="329.17"/><path class="cls-3" d="M92.43,341.51c7.2,8.06,19.43,8.85,19.43,8.85s.55-12.25-6.63-20.31-19.45-8.85-19.45-8.85S85.17,333.45,92.43,341.51Z"/><line class="cls-6" x1="111.82" y1="350.4" x2="85.71" y2="321.2"/><line class="cls-6" x1="95" y1="331.58" x2="88.63" y2="331.66"/><line class="cls-6" x1="99.37" y1="336.35" x2="98.05" y2="325.97"/><line class="cls-6" x1="101.8" y1="339.18" x2="92.31" y2="339.19"/><line class="cls-6" x1="105.21" y1="342.87" x2="106.26" y2="333.55"/><line class="cls-6" x1="108.1" y1="346.12" x2="101.12" y2="346.54"/><path class="cls-3" d="M130,329.69c-7.5,7.8-7.41,20.05-7.41,20.05s12.25-.37,19.76-8.16,7.35-20.07,7.35-20.07S137.52,321.9,130,329.69Z"/><line class="cls-6" x1="122.58" y1="349.74" x2="149.74" y2="321.52"/><line class="cls-6" x1="140.09" y1="331.56" x2="139.54" y2="325.21"/><line class="cls-6" x1="135.65" y1="336.27" x2="145.9" y2="334.19"/><line class="cls-6" x1="133.01" y1="338.9" x2="132.29" y2="329.44"/><line class="cls-6" x1="129.58" y1="342.58" x2="138.96" y2="342.94"/><line class="cls-6" x1="126.57" y1="345.71" x2="125.63" y2="338.78"/><g class="cls-5"><path class="cls-2" d="M102.5,312.69c.08,18.66,14.92,33.71,14.92,33.71s14.72-15.18,14.63-33.84-14.93-33.71-14.93-33.71S102.43,294,102.5,312.69Z"/><line class="cls-1" x1="117.42" y1="346.4" x2="117.12" y2="278.85"/><line class="cls-1" x1="117.23" y1="302.86" x2="108.93" y2="295.68"/><line class="cls-1" x1="117.41" y1="314.02" x2="127.59" y2="299.14"/><line class="cls-1" x1="117.31" y1="320.46" x2="105.04" y2="309.62"/><line class="cls-1" x1="117.48" y1="329.13" x2="129.51" y2="318.31"/><line class="cls-1" x1="117.51" y1="336.61" x2="108.02" y2="329.17"/><path class="cls-2" d="M92.43,341.51c7.2,8.06,19.43,8.85,19.43,8.85s.55-12.25-6.63-20.31-19.45-8.85-19.45-8.85S85.17,333.45,92.43,341.51Z"/><line class="cls-1" x1="111.82" y1="350.4" x2="85.71" y2="321.2"/><line class="cls-1" x1="95" y1="331.58" x2="88.63" y2="331.66"/><line class="cls-1" x1="99.37" y1="336.35" x2="98.05" y2="325.97"/><line class="cls-1" x1="101.8" y1="339.18" x2="92.31" y2="339.19"/><line class="cls-1" x1="105.21" y1="342.87" x2="106.26" y2="333.55"/><line class="cls-1" x1="108.1" y1="346.12" x2="101.12" y2="346.54"/><path class="cls-2" d="M130,329.69c-7.5,7.8-7.41,20.05-7.41,20.05s12.25-.37,19.76-8.16,7.35-20.07,7.35-20.07S137.52,321.9,130,329.69Z"/><line class="cls-1" x1="122.58" y1="349.74" x2="149.74" y2="321.52"/><line class="cls-1" x1="140.09" y1="331.56" x2="139.54" y2="325.21"/><line class="cls-1" x1="135.65" y1="336.27" x2="145.9" y2="334.19"/><line class="cls-1" x1="133.01" y1="338.9" x2="132.29" y2="329.44"/><line class="cls-1" x1="129.58" y1="342.58" x2="138.96" y2="342.94"/><line class="cls-1" x1="126.57" y1="345.71" x2="125.63" y2="338.78"/></g></g></g><g id="freepik--character-2--inject-12"><g id="freepik--character-2--inject-12-2" data-name="freepik--character-2--inject-12"><polygon class="cls-2" points="90.89 30.7 77.95 42 89.75 79.53 116.96 79.03 123.01 32.99 103.68 27.74 90.89 30.7"/><g class="cls-7"><path class="cls-8" d="M113.43,34c-2.3-.51-5.88-1.79-5.88-1.79S93,31.94,90.65,41.4l-.76,3.84,3.84-1-4.87,7.43c-.52.78-1-6.4-2-5.63s-3.28,10.47-3.28,10.47L85,64.45l4.74,15.1,27.2-.5,5.35-40.66C120.86,37.51,115.43,34.42,113.43,34Z"/></g><polygon class="cls-9" points="90.89 30.7 77.95 42 89.75 79.53 116.96 79.03 123.01 32.99 103.68 27.74 90.89 30.7"/><polygon class="cls-10" points="93.36 38.56 97.77 43.81 96.64 75.27 100.89 81 105.32 72.48 99.09 43.81 102.7 37.74 101.23 32.67 93.36 38.56"/><path class="cls-11" d="M89.75,29.51a25.11,25.11,0,0,0-1.1,6.71A30.36,30.36,0,0,0,90.12,44s3.32-4.27,5.53-5.08,6.72-1.31,8.2-.66a57.68,57.68,0,0,1,5.08,3,26.52,26.52,0,0,0-1.64-10.17c-2-4.91-2.79-6.72-4.11-7.2S92,22.66,89.75,29.51Z"/><path class="cls-2" d="M78,42,67.83,67.89s7.86,4.59,8,4.09S84,61,84,61Z"/><g class="cls-12"><path class="cls-8" d="M80.2,56s-6.56-2.54-4.86-1a66.56,66.56,0,0,1,4.86,5.36l-6.14,3.08,4.31,5C80.75,65.22,84,61,84,61L79.68,47.44l-.25.1Z"/></g><path class="cls-9" d="M78,42,67.83,67.89s7.86,4.59,8,4.09S84,61,84,61Z"/><polygon class="cls-2" points="123.01 32.99 147.87 52.9 138.19 58.61 121.05 48.72 123.01 32.99"/><g class="cls-13"><path class="cls-8" d="M139.56,55.73l-8.44-6.14s3.84-.77,4.6-1.79-9-.76-9-.76l3.07-4.1-5.88,2V42.42l-1.62-4L121,48.7l17.14,9.89,1.48-.88Z"/></g><polygon class="cls-9" points="123.01 32.99 147.87 52.9 138.19 58.61 121.05 48.72 123.01 32.99"/><path class="cls-11" d="M89.75,29.51s2.13,5.74,4.58,8,4.6,1.8,6.23-.33S104,28,104.5,27.67s2.29-2,2.29-3.6-2.12-.82-2.46-.16l-.33.65-1.63-3.44a32.57,32.57,0,0,1-2.79,5.53c-1.31,1.81-1.64,3.12-2.94,2.14s-2.31-2.46-3.32-.82S89.75,29.51,89.75,29.51Z"/><path class="cls-8" d="M104.33,24l-.33.65-1.63-3.44a32.57,32.57,0,0,1-2.79,5.53c-1.31,1.81-1.64,3.12-2.94,2.14S94.33,26.4,93.32,28s-3.61,1.47-3.61,1.47.5,1.35,1.29,3c4.23.22,11.07-.18,12.64-4.8v1.94a6.83,6.83,0,0,1,.79-1.94c.48-.32,2.29-2,2.29-3.61S104.67,23.32,104.33,24Z"/><path class="cls-14" d="M91.62,31.43s2.29,1,3.11.35c0,0,.17,4.56,1.31,4.15l1.45-1"/><path class="cls-14" d="M98.12,31.57s1.2,1,3.07-.65"/><path class="cls-14" d="M97.29,30.74s0-2.49,3.94-2.28"/><path class="cls-14" d="M94.73,31.78a3.73,3.73,0,0,0-2.63-2.7"/><path class="cls-14" d="M95.21,36.75A3.21,3.21,0,0,0,99,35.92"/><path class="cls-10" d="M106,24.14s4.53-4.76,2-10.23c-1.63-3.59-1.88-3.45-5.82-7.63s-12-1.9-14.7,1-.83,8.08-1.87,8.7-7.26,2.49-7,5,7,3.73,6.22,4.56-6.22.62-3.73,2.7,9.67,3.13,15.57.67,5.53-6.07,5.53-6.07S102.9,26.9,106,24.14Z"/><path class="cls-15" d="M91.48,28.44s3.5.62,7.6-2.67S100.31,18,100.31,18"/><path class="cls-15" d="M103,14.69s2.22,7.17.21,9.13"/><path class="cls-15" d="M84.8,25.51s6.64,1.48,10-2.21"/><path class="cls-11" d="M69.75,71.35s-5-1.1-4.15-3.87,0-5.81,6.09-5.26,8.57,1.94,8.57,4.71-.83,7.46-4.15,6.08A24.05,24.05,0,0,0,69.75,71.35Z"/><polyline class="cls-14" points="128.01 44.17 121.05 48.72 133.2 45.9"/><line class="cls-14" x1="83.19" y1="59.37" x2="77.68" y2="54.1"/><line class="cls-14" x1="80.72" y1="58.42" x2="77.04" y2="56.47"/><polyline class="cls-14" points="116.35 51.73 109.87 51.94 109.87 53.88 115.92 53.88"/><path class="cls-8" d="M68.68,69.29s-3.06-1.57-1.79-2.56a9.61,9.61,0,0,1,6.64-1.28A17.44,17.44,0,0,1,77.36,67s-3.31-2.56-1.28-2.56S79.4,67,78.64,69.55s-3.84,1.79-3.84,1.79Z"/><path class="cls-16" d="M216.72,330V294.12H159V330a23.19,23.19,0,0,1-6.75,16.41l-13.16,13.28h97.56l-13.15-13.28A23.2,23.2,0,0,1,216.72,330Z"/><path class="cls-17" d="M159,294.12V330a22.87,22.87,0,0,1-1.49,8.14h60.72a23.55,23.55,0,0,1-1.49-8.14V294.12Z"/><rect class="cls-18" x="158.98" y="295.74" width="57.74" height="26.62"/><rect class="cls-16" x="139.07" y="359.69" width="97.55" height="1.9"/><path class="cls-18" d="M47.82,74.51H327.89A13.53,13.53,0,0,1,341.43,88v0h0V297.15a14.69,14.69,0,0,1-14.73,14.64H49a14.68,14.68,0,0,1-14.68-14.68h0V88A13.54,13.54,0,0,1,47.82,74.51Z"/><path class="cls-19" d="M34.29,284.33H341.43v12.78a14.68,14.68,0,0,1-14.68,14.68H49a14.68,14.68,0,0,1-14.68-14.68V284.33Z"/><rect class="cls-11" x="78.92" y="89.49" width="274.59" height="183.05"/><rect class="cls-3" x="78.92" y="89.49" width="274.59" height="59.32"/><path class="cls-3" d="M106.9,260.21H95.84v-96.7H106.9Zm21.68-96.76h-11v96.76h11.06Zm21.69,0H139.2v96.76h11.07Zm21.67,0H160.88v96.76h11.06Zm21.68,0H182.56v96.76h11.06Zm21.67,0H204.23v96.76h11.06Zm21.69,0H225.91v96.76H237Zm21.68,0H247.6v96.76h11.06Zm21.67,0H269.27v96.76h11.06Zm21.68,0H291v96.76H302Z"/><path class="cls-20" d="M106.9,260.21H95.84v-96.7H106.9Zm21.68-96.76h-11v96.76h11.06Zm21.69,0H139.2v96.76h11.07Zm21.67,0H160.88v96.76h11.06Zm21.68,0H182.56v96.76h11.06Zm21.67,0H204.23v96.76h11.06Zm21.69,0H225.91v96.76H237Zm21.68,0H247.6v96.76h11.06Zm21.67,0H269.27v96.76h11.06Zm21.68,0H291v96.76H302Z"/><path class="cls-11" d="M164.57,111.7H91.86a2.43,2.43,0,0,1-2.43-2.43h0a2.44,2.44,0,0,1,2.43-2.42h72.71a2.42,2.42,0,0,1,2.42,2.42h0a2.41,2.41,0,0,1-2.41,2.43Z"/><path class="cls-21" d="M142.57,111.7H91.86a2.43,2.43,0,0,1-2.43-2.43h0a2.44,2.44,0,0,1,2.43-2.42h50.71Z"/><path class="cls-11" d="M164.57,121.21H91.86a2.42,2.42,0,0,1-2.43-2.41h0a2.43,2.43,0,0,1,2.42-2.42h72.72a2.42,2.42,0,0,1,2.42,2.42h0a2.42,2.42,0,0,1-2.42,2.42Z"/><path class="cls-21" d="M151.9,121.21h-60a2.42,2.42,0,0,1-2.43-2.41h0a2.43,2.43,0,0,1,2.42-2.42h60Z"/><path class="cls-11" d="M164.57,130.78H91.86a2.42,2.42,0,0,1-2.43-2.41h0a2.43,2.43,0,0,1,2.43-2.43h72.71a2.42,2.42,0,0,1,2.42,2.42h0a2.42,2.42,0,0,1-2.42,2.42Z"/><path class="cls-21" d="M129.6,130.78H91.86a2.42,2.42,0,0,1-2.43-2.41h0a2.43,2.43,0,0,1,2.43-2.43H129.6Z"/><path class="cls-11" d="M164.57,140.24H91.86a2.44,2.44,0,0,1-2.43-2.42h0a2.45,2.45,0,0,1,2.43-2.44h72.71a2.44,2.44,0,0,1,2.42,2.44h0a2.42,2.42,0,0,1-2.42,2.42Z"/><path class="cls-21" d="M162,140.24H91.86a2.44,2.44,0,0,1-2.43-2.42h0a2.45,2.45,0,0,1,2.43-2.44H162Z"/><line class="cls-9" x1="89.96" y1="260.24" x2="307.85" y2="260.24"/><line class="cls-9" x1="111.75" y1="260.24" x2="111.75" y2="258.05"/><line class="cls-9" x1="133.54" y1="260.24" x2="133.54" y2="258.05"/><line class="cls-9" x1="155.33" y1="260.24" x2="155.33" y2="258.05"/><line class="cls-9" x1="177.12" y1="260.24" x2="177.12" y2="258.05"/><line class="cls-9" x1="198.91" y1="260.24" x2="198.91" y2="258.05"/><line class="cls-9" x1="220.7" y1="260.24" x2="220.7" y2="258.05"/><line class="cls-9" x1="242.49" y1="260.24" x2="242.49" y2="258.05"/><line class="cls-9" x1="264.28" y1="260.24" x2="264.28" y2="258.05"/><line class="cls-9" x1="286.07" y1="260.24" x2="286.07" y2="258.05"/><line class="cls-9" x1="307.85" y1="260.24" x2="307.85" y2="258.05"/><polyline class="cls-9" points="89.96 260.24 89.96 251.6 89.96 163.79"/><line class="cls-9" x1="89.96" y1="251.6" x2="95.41" y2="251.6"/><line class="cls-9" x1="89.96" y1="236.96" x2="95.41" y2="236.96"/><line class="cls-9" x1="89.96" y1="222.32" x2="95.41" y2="222.32"/><line class="cls-9" x1="89.96" y1="207.7" x2="95.41" y2="207.7"/><line class="cls-9" x1="89.96" y1="193.06" x2="95.41" y2="193.06"/><line class="cls-9" x1="89.96" y1="178.43" x2="95.41" y2="178.43"/><line class="cls-9" x1="89.96" y1="163.79" x2="95.41" y2="163.79"/><rect class="cls-11" x="311.85" y="105.04" width="35.54" height="36.6"/><rect class="cls-22" x="311.85" y="105.04" width="35.54" height="6.28"/><line class="cls-9" x1="315.11" y1="116.44" x2="315.11" y2="137.23"/><line class="cls-9" x1="319.91" y1="116.44" x2="319.91" y2="137.23"/><line class="cls-9" x1="324.7" y1="116.44" x2="324.7" y2="137.23"/><line class="cls-9" x1="329.5" y1="116.44" x2="329.5" y2="137.23"/><line class="cls-9" x1="334.31" y1="116.44" x2="334.31" y2="137.23"/><line class="cls-9" x1="339.11" y1="116.44" x2="339.11" y2="137.23"/><line class="cls-9" x1="343.91" y1="116.44" x2="343.91" y2="137.23"/><line class="cls-9" x1="343.59" y1="119.16" x2="315.27" y2="119.16"/><line class="cls-9" x1="343.59" y1="123" x2="315.27" y2="123"/><line class="cls-9" x1="343.59" y1="126.84" x2="315.27" y2="126.84"/><line class="cls-9" x1="343.59" y1="130.68" x2="315.27" y2="130.68"/><line class="cls-9" x1="343.59" y1="134.52" x2="315.27" y2="134.52"/><line class="cls-23" x1="122.64" y1="216.34" x2="100.86" y2="260.24"/><line class="cls-23" x1="144.44" y1="245.6" x2="122.64" y2="216.34"/><line class="cls-23" x1="166.23" y1="222.19" x2="144.44" y2="245.6"/><line class="cls-23" x1="188.01" y1="172.44" x2="166.23" y2="222.19"/><line class="cls-23" x1="209.81" y1="187.07" x2="188.01" y2="172.44"/><line class="cls-23" x1="231.59" y1="238.29" x2="209.81" y2="187.07"/><line class="cls-23" x1="253.38" y1="233.9" x2="231.59" y2="238.29"/><line class="cls-23" x1="275.18" y1="228.04" x2="253.38" y2="233.9"/><line class="cls-23" x1="296.96" y1="201.7" x2="275.18" y2="228.04"/><path class="cls-11" d="M100.86,258h0a2.28,2.28,0,0,1,2.28,2.28h0a2.29,2.29,0,0,1-2.28,2.29h0a2.3,2.3,0,0,1-2.29-2.29h0A2.29,2.29,0,0,1,100.86,258Z"/><path class="cls-11" d="M122.64,214.06h0a2.29,2.29,0,0,1,2.29,2.28h0a2.29,2.29,0,0,1-2.29,2.28h0a2.28,2.28,0,0,1-2.28-2.28h0A2.28,2.28,0,0,1,122.64,214.06Z"/><path class="cls-11" d="M144.43,243.32h0a2.28,2.28,0,0,1,2.28,2.28h0a2.29,2.29,0,0,1-2.28,2.29h0a2.29,2.29,0,0,1-2.28-2.29h0A2.28,2.28,0,0,1,144.43,243.32Z"/><path class="cls-11" d="M166.29,219.91h0a2.28,2.28,0,0,1,2.27,2.28h0a2.27,2.27,0,0,1-2.27,2.28h0a2.29,2.29,0,0,1-2.29-2.28h0A2.29,2.29,0,0,1,166.29,219.91Z"/><path class="cls-11" d="M188,170.15h0a2.29,2.29,0,0,1,2.29,2.29h0a2.29,2.29,0,0,1-2.29,2.28h0a2.28,2.28,0,0,1-2.28-2.28h0A2.29,2.29,0,0,1,188,170.15Z"/><path class="cls-11" d="M209.81,184.79h0a2.29,2.29,0,0,1,2.28,2.28h0a2.29,2.29,0,0,1-2.28,2.29h0a2.29,2.29,0,0,1-2.28-2.29h0A2.28,2.28,0,0,1,209.81,184.79Z"/><path class="cls-11" d="M231.56,236h0a2.29,2.29,0,0,1,2.29,2.28h0a2.29,2.29,0,0,1-2.29,2.28h0a2.28,2.28,0,0,1-2.28-2.28h0A2.28,2.28,0,0,1,231.56,236Z"/><path class="cls-11" d="M253.43,231.62h0a2.28,2.28,0,0,1,2.28,2.28h0a2.29,2.29,0,0,1-2.28,2.29h0a2.29,2.29,0,0,1-2.28-2.29h0A2.28,2.28,0,0,1,253.43,231.62Z"/><path class="cls-11" d="M275.18,225.76h0a2.28,2.28,0,0,1,2.27,2.28h0a2.27,2.27,0,0,1-2.27,2.28h0a2.29,2.29,0,0,1-2.29-2.28h0A2.29,2.29,0,0,1,275.18,225.76Z"/><path class="cls-11" d="M297,199.42h0a2.29,2.29,0,0,1,2.29,2.28h0A2.29,2.29,0,0,1,297,204h0a2.28,2.28,0,0,1-2.28-2.28h0A2.28,2.28,0,0,1,297,199.42Z"/><path class="cls-11" d="M128.82,206.17h-11.9a3,3,0,0,1-3-3h0a3,3,0,0,1,3-3h11.91a3,3,0,0,1,3,3h0a3,3,0,0,1-3,3Z"/><line class="cls-9" x1="122.64" y1="214.06" x2="122.64" y2="206.46"/><path class="cls-11" d="M193.94,162.35H182a3,3,0,0,1-3-3h0a3,3,0,0,1,3-3h12a3,3,0,0,1,3,3h0a3,3,0,0,1-3,3Z"/><line class="cls-9" x1="187.73" y1="170.24" x2="187.73" y2="162.64"/><path class="cls-11" d="M302.64,191.17H290.75a3,3,0,0,1-3-3h0a3,3,0,0,1,3-3h11.89a3,3,0,0,1,3,2.9v.07h0a3,3,0,0,1-3,3Z"/><line class="cls-9" x1="296.47" y1="199.06" x2="296.47" y2="191.46"/><path class="cls-11" d="M197.12,105a17.19,17.19,0,1,0,17.19,17.19h0A17.2,17.2,0,0,0,197.12,105Zm0,29.32a12.17,12.17,0,1,1,12.17-12.17h0a12.15,12.15,0,0,1-12.16,12.16Z"/><path class="cls-22" d="M197.12,105a17,17,0,0,0-12.4,5.3l3.64,3.49a12,12,0,0,1,8.76-3.75,12.17,12.17,0,0,1,0,24.34h0v5a17.19,17.19,0,0,0,.87-34.37h-.87Z"/><line class="cls-9" x1="192.34" y1="121.32" x2="201.91" y2="121.32"/><line class="cls-9" x1="192.34" y1="123.14" x2="201.91" y2="123.14"/><line class="cls-9" x1="90.78" y1="101.49" x2="100.35" y2="101.49"/><line class="cls-9" x1="90.78" y1="103.3" x2="100.35" y2="103.3"/><line class="cls-9" x1="102.61" y1="101.49" x2="112.18" y2="101.49"/><line class="cls-9" x1="102.61" y1="103.3" x2="112.18" y2="103.3"/><line class="cls-9" x1="114.42" y1="101.49" x2="123.99" y2="101.49"/><line class="cls-9" x1="114.42" y1="103.3" x2="123.99" y2="103.3"/><line class="cls-9" x1="90.78" y1="154.71" x2="100.35" y2="154.71"/><line class="cls-9" x1="90.78" y1="156.51" x2="100.35" y2="156.51"/><line class="cls-9" x1="102.61" y1="154.71" x2="112.18" y2="154.71"/><line class="cls-9" x1="102.61" y1="156.51" x2="112.18" y2="156.51"/><line class="cls-9" x1="114.42" y1="154.71" x2="123.99" y2="154.71"/><line class="cls-9" x1="114.42" y1="156.51" x2="123.99" y2="156.51"/><line class="cls-9" x1="314.17" y1="163.86" x2="323.74" y2="163.86"/><line class="cls-9" x1="326" y1="163.86" x2="335.57" y2="163.86"/><line class="cls-9" x1="337.81" y1="163.86" x2="347.38" y2="163.86"/><line class="cls-9" x1="314.17" y1="166.08" x2="323.74" y2="166.08"/><line class="cls-9" x1="326" y1="166.08" x2="335.57" y2="166.08"/><line class="cls-9" x1="337.81" y1="166.08" x2="347.38" y2="166.08"/><line class="cls-9" x1="314.17" y1="168.32" x2="323.74" y2="168.32"/><line class="cls-9" x1="326" y1="168.32" x2="335.57" y2="168.32"/><line class="cls-9" x1="337.81" y1="168.32" x2="347.38" y2="168.32"/><line class="cls-9" x1="314.17" y1="170.54" x2="323.74" y2="170.54"/><line class="cls-9" x1="326" y1="170.54" x2="335.57" y2="170.54"/><line class="cls-9" x1="337.81" y1="170.54" x2="347.38" y2="170.54"/><line class="cls-9" x1="314.17" y1="172.77" x2="323.74" y2="172.77"/><line class="cls-9" x1="326" y1="172.77" x2="335.57" y2="172.77"/><line class="cls-9" x1="337.81" y1="172.77" x2="347.38" y2="172.77"/><line class="cls-9" x1="314.17" y1="175.01" x2="323.74" y2="175.01"/><line class="cls-9" x1="326" y1="175.01" x2="335.57" y2="175.01"/><line class="cls-9" x1="337.81" y1="175.01" x2="347.38" y2="175.01"/><line class="cls-9" x1="314.17" y1="177.23" x2="323.74" y2="177.23"/><line class="cls-9" x1="326" y1="177.23" x2="335.57" y2="177.23"/><line class="cls-9" x1="337.81" y1="177.23" x2="347.38" y2="177.23"/><line class="cls-9" x1="314.17" y1="179.47" x2="323.74" y2="179.47"/><line class="cls-9" x1="326" y1="179.47" x2="335.57" y2="179.47"/><line class="cls-9" x1="337.81" y1="179.47" x2="347.38" y2="179.47"/><line class="cls-9" x1="314.17" y1="181.69" x2="323.74" y2="181.69"/><line class="cls-9" x1="326" y1="181.69" x2="335.57" y2="181.69"/><line class="cls-9" x1="337.81" y1="181.69" x2="347.38" y2="181.69"/><line class="cls-9" x1="314.17" y1="183.93" x2="323.74" y2="183.93"/><line class="cls-9" x1="326" y1="183.93" x2="335.57" y2="183.93"/><line class="cls-9" x1="337.81" y1="183.93" x2="347.38" y2="183.93"/><line class="cls-9" x1="314.17" y1="186.16" x2="323.74" y2="186.16"/><line class="cls-9" x1="326" y1="186.16" x2="335.57" y2="186.16"/><line class="cls-9" x1="337.81" y1="186.16" x2="347.38" y2="186.16"/><line class="cls-9" x1="314.17" y1="188.38" x2="323.74" y2="188.38"/><line class="cls-9" x1="326" y1="188.38" x2="335.57" y2="188.38"/><line class="cls-9" x1="337.81" y1="188.38" x2="347.38" y2="188.38"/><line class="cls-9" x1="314.17" y1="190.62" x2="323.74" y2="190.62"/><line class="cls-9" x1="326" y1="190.62" x2="335.57" y2="190.62"/><line class="cls-9" x1="337.81" y1="190.62" x2="347.38" y2="190.62"/><line class="cls-9" x1="314.17" y1="192.84" x2="323.74" y2="192.84"/><line class="cls-9" x1="326" y1="192.84" x2="335.57" y2="192.84"/><line class="cls-9" x1="337.81" y1="192.84" x2="347.38" y2="192.84"/><line class="cls-9" x1="314.17" y1="195.08" x2="323.74" y2="195.08"/><line class="cls-9" x1="326" y1="195.08" x2="335.57" y2="195.08"/><line class="cls-9" x1="337.81" y1="195.08" x2="347.38" y2="195.08"/><path class="cls-11" d="M237.43,105a17.19,17.19,0,1,0,17.18,17.2h0A17.21,17.21,0,0,0,237.43,105Zm0,29.32a12.17,12.17,0,1,1,12.17-12.17h0a12.15,12.15,0,0,1-12.16,12.16Z"/><path class="cls-22" d="M249.26,119.34l4.75-1.78a17.18,17.18,0,0,0-28.94-7.22l3.64,3.49a12.13,12.13,0,0,1,20.55,5.51Z"/><line class="cls-9" x1="232.42" y1="121.32" x2="241.99" y2="121.32"/><line class="cls-9" x1="232.42" y1="123.14" x2="241.99" y2="123.14"/><path class="cls-11" d="M293.16,111.82a17.18,17.18,0,1,0-3.26,24.08,17.17,17.17,0,0,0,3.26-24.08Zm-23.33,17.77a12.17,12.17,0,1,1,17.06,2.28h0A12.17,12.17,0,0,1,269.83,129.59Z"/><path class="cls-22" d="M288.92,129.85l4.3,2.71a17.19,17.19,0,0,0-11.79-27.41l-.58,5a12.16,12.16,0,0,1,8.06,19.69Z"/><line class="cls-9" x1="274.47" y1="121.32" x2="284.04" y2="121.32"/><line class="cls-9" x1="274.47" y1="123.14" x2="284.04" y2="123.14"/><path class="cls-24" d="M344.05,232a17.18,17.18,0,1,0-3.26,24.08A17.17,17.17,0,0,0,344.05,232Zm-23.33,17.75a12.17,12.17,0,1,1,17.06,2.3h0a12.16,12.16,0,0,1-17-2.29Z"/><path class="cls-22" d="M339.8,250.07l4.31,2.7a17.17,17.17,0,0,0-11.78-27.4l-.58,5a12.15,12.15,0,0,1,8.05,19.69Z"/><line class="cls-9" x1="325.36" y1="241.54" x2="334.93" y2="241.54"/><line class="cls-9" x1="325.36" y1="243.34" x2="334.93" y2="243.34"/><path class="cls-11" d="M144,49.58s-6.1,2.35-7.86,5.45c-1.11,1.88-.1,5.86,4.27,7.38,1.88.67,4.58-.19,7.62-1.29S148.43,48.2,144,49.58Z"/><path class="cls-8" d="M142,61.43s-4-.84-4-4.16,5.37-5.38,6.91-5.38,2.3,1.54,2.3,4.1S144.16,62.28,142,61.43Z"/><path class="cls-11" d="M67.83,67.89l10.85,35-1.44,7.91,4,5.75,1.44-.72.72-5.4v-4.31l1.8,5.75L87,110.76l-1.1-8.27-3.6-5.76-5-27.3S72.43,66.92,67.83,67.89Z"/><line class="cls-14" x1="81.04" y1="116" x2="78.27" y2="109.72"/><line class="cls-14" x1="82.6" y1="115.78" x2="80.31" y2="108.27"/><path class="cls-11" d="M148.14,54.56l19.64,24.72,6.13,5.2.6,7-1.58.36-4-3.71-2.74-3.32,2.27,5.53-2.08.31L162,83.51l.09-4.89L142,61.4c-1.66-1.44-1.34-5.73.56-6.83A6.3,6.3,0,0,1,148.14,54.56Z"/><line class="cls-14" x1="173.85" y1="91.75" x2="169.04" y2="83.29"/><line class="cls-14" x1="173.71" y1="88.69" x2="171.52" y2="84.02"/></g></g><g id="freepik--Character--inject-12"><g id="freepik--character--inject-12-2" data-name="freepik--character--inject-12"><polygon class="cls-11" points="368.52 193.38 356.94 177.29 354.18 178.47 361.84 196.91 368.52 193.38"/><path class="cls-11" d="M346.61,173.74l2.66,1.6.73-1-3.43-5.65c-.47-1.52.75-.47.75-.47l2.68,3.71-2.5-6.64c.5-1.4,1.42-.36,1.42-.36l2.77,5.65L351,164.5c.45-1.25,1.11,0,1.11,0l1.79,6.52c.09-1.17.25-2,.41-3.15.09-.71-.13-1,.48-1.11,1.1-.16.84,1.39.88,2.09.09,1.37.18,2.74.26,4.1l1,4.89-2.81,1.25-4.31-1.41-3.77-2.85C345.5,173.42,346.61,173.74,346.61,173.74Z"/><path class="cls-11" d="M367.14,193.84s-3.32.19-4.7,1.37-2.21,2.16-3.32,2a1.48,1.48,0,0,0-2,1.37c-.19,1.17.39,2,.39,2.55s-1.08,4.68-1.08,6.44.58,2.21,2.15,3a11.49,11.49,0,0,0,3.53,1,37.42,37.42,0,0,1,.2,5.7,5.53,5.53,0,0,1-1,2.74,57.39,57.39,0,0,0,6.28.4,16.85,16.85,0,0,0,4.31-.4s-5.1-5.29-5.1-11.77,1.38-10.59,2.22-12S369.31,194.37,367.14,193.84Z"/><path class="cls-25" d="M358.71,205.63h0a3.25,3.25,0,0,1-2.28-1.33A.31.31,0,0,1,357,204h0a2.53,2.53,0,0,0,1.83,1,.31.31,0,0,1,.26.35.29.29,0,0,1-.31.28h0Z"/><path class="cls-25" d="M360.76,198.86a.47.47,0,0,1-.47-.46.48.48,0,0,1,.22-.41h0l1.28-.79a.46.46,0,0,1,.63.15h0a.48.48,0,0,1-.16.65l-1.27.77A.36.36,0,0,1,360.76,198.86Z"/><path class="cls-11" d="M352.82,305.92s.39,9.06,1.3,14.53,9.08,42.35,9.08,44.63-7.77,8.43-7.77,8.43-2.21,2.77.53,2.06c2.22-.57,11.61-3,15-5.91,1.48-1.25-1.81-6.37-1.81-6.37s-2.21-34.63-3.62-40.08a93,93,0,0,0-2.72-9.09l4.52-9.61Z"/><path class="cls-8" d="M365.48,323.17a93,93,0,0,0-2.72-9.09l4.55-9.54-14.49,1.38s.15,3.32.47,7.24a27,27,0,0,0,3.47,1.23,16.63,16.63,0,0,0,3.44.45,38.13,38.13,0,0,1,2.53,11.24c.46,6.42,4.82,38.53,4.82,38.53l.72,6.64a14.11,14.11,0,0,0,2.68-1.63c1.47-1.25-1.82-6.37-1.82-6.37S366.85,328.62,365.48,323.17Z"/><path class="cls-25" d="M369.33,363.64a11.28,11.28,0,0,0-4.15,1.75l-2-.31c0,2.21-7.8,8.39-7.8,8.39s-2.21,2.77.53,2.06c2.21-.57,11.61-3,15-5.91C372.14,368.63,370.05,364.83,369.33,363.64Z"/><path class="cls-11" d="M355.91,375.51c2.21-.57,11.61-3,15-5.91a1.57,1.57,0,0,0,.33-1.51l-16.59,6.45C354.35,375.27,354.35,375.93,355.91,375.51Z"/><path class="cls-2" d="M382.49,299.51,376,310.69a36.25,36.25,0,0,1,5.53,10c1.53,4.42,8,29.28,11.9,40.68a14.29,14.29,0,0,0,2,4,4.59,4.59,0,0,1,1,2.72,2.21,2.21,0,0,1-2,2.39h0c-2.34.34-15.41,1.49-16.08.94-.43-.36,6.11-3.1,8.85-4.9a7.45,7.45,0,0,0,2.22-2.11s-18.69-40.35-20.67-45.25a29.42,29.42,0,0,1-2.15-12.37,97.85,97.85,0,0,1,1-10.8Z"/><g class="cls-26"><path class="cls-8" d="M393.43,361.41c-3.94-11.4-10.36-36.28-11.89-40.68a36.25,36.25,0,0,0-5.53-10l6.42-11.22L370,296.57l-2.7.81a84.32,84.32,0,0,0-.79,9.39,41,41,0,0,0,.15,4.15,17.59,17.59,0,0,0,3.55,1.1,23.35,23.35,0,0,0,3.2.49,27.33,27.33,0,0,1,2.52,6.88C377.06,324,391.3,363,391.77,364.1s2.29,1.37,0,5.53l-.68,1.2c1.45-.13,2.6-.27,3.16-.34a2.2,2.2,0,0,0,2-2.38h0a4.59,4.59,0,0,0-1-2.72A14.94,14.94,0,0,1,393.43,361.41Z"/></g><path class="cls-9" d="M382.49,299.51,376,310.69a36.25,36.25,0,0,1,5.53,10c1.53,4.42,8,29.28,11.9,40.68a14.29,14.29,0,0,0,2,4,4.59,4.59,0,0,1,1,2.72,2.21,2.21,0,0,1-2,2.39h0c-2.34.34-15.41,1.49-16.08.94-.43-.36,6.11-3.1,8.85-4.9a7.45,7.45,0,0,0,2.22-2.11s-18.69-40.35-20.67-45.25a29.42,29.42,0,0,1-2.15-12.37,97.85,97.85,0,0,1,1-10.8Z"/><path class="cls-25" d="M396.43,368.12a4.59,4.59,0,0,0-1-2.72l-.15-.21a7.2,7.2,0,0,1-4.65,1.32v-1.6c0-1.63-1.23-.5-1.23-.5a7.35,7.35,0,0,1-2.27,2.1c-2.75,1.8-9.29,4.54-8.85,4.9.67.55,13.74-.6,16.08-.94a2.21,2.21,0,0,0,2-2.39Z"/><path class="cls-11" d="M396.43,368.63c-4.43.46-11.69,1-15.49,1.25-1.59.79-2.75,1.41-2.56,1.57.67.55,13.73-.6,16.08-.94A2.1,2.1,0,0,0,396.43,368.63Z"/><path class="cls-2" d="M360.29,256.24s-3.32,8.41-8,21.43-.35,32.71-.35,32.71,3.43,2.14,12.71-.44,17.08-5.25,17.08-5.25,6-14.52,6.35-23.78-5.85-20.61-5.85-20.61S369.62,244.73,360.29,256.24Z"/><g class="cls-27"><path class="cls-3" d="M365.43,252.51,362.57,264s6.64,12.61,7.34,15.6,2.06,3.21-2.29,8.72-8.95,10.77-7.11,10.08,8.91-8.2,8-5.27-6.18,6.19-8,9.4a36.33,36.33,0,0,0-3.24,8.74,31.56,31.56,0,0,0,7.47-1.26c9.29-2.57,17.08-5.26,17.08-5.26s6-14.51,6.35-23.77-5.85-20.61-5.85-20.61S373.62,249.68,365.43,252.51Z"/></g><path class="cls-9" d="M360.29,256.24s-3.32,8.41-8,21.43-.35,32.71-.35,32.71,3.43,2.14,12.71-.44,17.08-5.25,17.08-5.25,6-14.52,6.35-23.78-5.85-20.61-5.85-20.61S369.62,244.73,360.29,256.24Z"/><path class="cls-14" d="M367.63,299.73s12.24-8.49,15.71-17.91"/><path class="cls-14" d="M363.2,298.79s7.23-3.46,11-7.24"/><line class="cls-14" x1="361.94" y1="299.42" x2="358.8" y2="300.04"/><path class="cls-11" d="M358.88,218.64a14.23,14.23,0,0,1,11.06-1.13c6.64,1.74,3.62,4.2.8,4.56S358.88,218.64,358.88,218.64Z"/><path class="cls-2" d="M369.7,219.28a60.74,60.74,0,0,0-9.23-1c-3.93,0-11.19.4-14.91-1.37s-8.69-6.38-8.69-6.38l-8.38-25-3.71.26s3.55,21,3.55,24.72a13,13,0,0,0,3.14,8.44c1.77,2.36,14.09,9.32,18.6,11.67l2,1s-3.53,5.3-2.94,7.65,5.29,5.3,6.28,7.06,4.42,11.38,4.42,11.38a172,172,0,0,0,7.59-15.49C372.05,231.66,375.78,223.81,369.7,219.28Z"/><g class="cls-28"><path class="cls-8" d="M367.34,242.26c4.71-10.6,8.44-18.45,2.36-23a63.39,63.39,0,0,0-9.23-1h-2.69c1.39.72,4.9,2.92,4.71,6.64-.22,4.59-4.34,2.75-11.23,2.52s-4.82.23-2.3,2.52l.35.29.76.4,2,1-.2.32c3.38,2,8,4.33,8.14,5.36.23,1.37-3.21,2.74-2.29,5.73.57,1.81,1.46,7,3,11.26A68.09,68.09,0,0,0,367.34,242.26Z"/></g><path class="cls-9" d="M369.7,219.28a60.74,60.74,0,0,0-9.23-1c-3.93,0-11.19.4-14.91-1.37s-8.69-6.38-8.69-6.38l-8.38-25-3.71.26s3.55,21,3.55,24.72a13,13,0,0,0,3.14,8.44c1.77,2.36,14.09,9.32,18.6,11.67l2,1s-3.53,5.3-2.94,7.65,5.29,5.3,6.28,7.06,4.42,11.38,4.42,11.38a172,172,0,0,0,7.59-15.49C372.05,231.66,375.78,223.81,369.7,219.28Z"/><path class="cls-11" d="M330.82,175.92l-1,3.19-1.32-.31-1.25-7c-.7-1.56-.93.15-.93.15l.46,4.93-2.73-7.18c-1.41-.79-1.41.69-1.41.69l1.8,6.56-3.84-5.44c-1.25-.7-.94.78-.94.78l3.2,6.55a30.2,30.2,0,0,0-2.57-2.21c-.59-.5-.59-.88-1.11-.51-1,.65.3,1.71.77,2.32l2.71,3.5,2.15,3.91,3.71-.25,2.49-4.22,1-5C331.43,174.9,330.82,175.92,330.82,175.92Z"/><line class="cls-14" x1="352.03" y1="231.66" x2="357.55" y2="235.63"/><line class="cls-14" x1="353.78" y1="233.43" x2="356.29" y2="238.14"/><path class="cls-25" d="M370.68,222s-6.08-5.54-8.64-12.36.18-15,3.51-18.09,14.74,1,17.7,8.85-2,15.49-3.53,17.27-6.48,4.31-6.48,4.31a52.57,52.57,0,0,1,12.36,17.87c4.52,11,3.32,17.7.59,25.12s-13.54,16.1-13.54,16.1-11.22-13.55-13.74-24.54S367,226.36,370.68,222Z"/><path class="cls-15" d="M371.06,213.63c-9.74-5-7.23-17.59-7.23-17.59s4.43,10.67,10.06,11.3"/><path class="cls-15" d="M370.43,226.2a212.45,212.45,0,0,0-4.09,23c-1.57,12.89,3.8,28.45,6.3,32"/><path class="cls-15" d="M372.05,224.62s5.34,17.3,3.77,28.92a161.13,161.13,0,0,1-3.14,17.59"/><path class="cls-15" d="M373.57,225.92s11,18.22,9.42,32.37-5.65,17.91-5.65,17.91"/></g></g></svg>