<?xml version="1.0" encoding="utf-8"?>
<!-- Generator: Adobe Illustrator 25.2.1, SVG Export Plug-In . SVG Version: 6.00 Build 0)  -->
<svg version="1.1" id="Layer_1" xmlns="http://www.w3.org/2000/svg" xmlns:xlink="http://www.w3.org/1999/xlink" x="0px" y="0px"
	 viewBox="0 0 394 308.3" style="enable-background:new 0 0 394 308.3;" xml:space="preserve">
<style type="text/css">
	.st0{fill:#FFFFFF;}
	.st1{fill:#333333;}
	.st2{fill:none;stroke:#333333;stroke-miterlimit:10;}
	.st3{fill:#FFFFFF;stroke:#333333;stroke-linecap:round;stroke-linejoin:round;}
	.st4{fill:#333333;stroke:#333333;stroke-linecap:round;stroke-linejoin:round;}
	.st5{fill:#FFCC33;stroke:#333333;stroke-linecap:round;stroke-linejoin:round;}
	.st6{fill:none;stroke:#333333;stroke-linecap:round;stroke-linejoin:round;}
	.st7{fill:none;stroke:#FFFFFF;stroke-width:0.5;stroke-linecap:round;stroke-linejoin:round;}
	.st8{fill:#FFCC33;}
	.st9{fill:none;stroke:#FFCC33;stroke-miterlimit:10;}
	.st10{clip-path:url(#SVGID_2_);}
	.st11{opacity:0.4;enable-background:new    ;}
	.st12{fill:none;stroke:#707070;stroke-linecap:round;stroke-linejoin:round;}
	.st13{clip-path:url(#SVGID_4_);}
	.st14{clip-path:url(#SVGID_6_);}
	.st15{clip-path:url(#SVGID_8_);}
</style>
<g>
	<g id="freepik--background-simple--inject-2">
		<path class="st0" d="M35.6,199c0,0,14.3,57.7,70.9,85.3s124,15.1,178.9,6.4s89.9-49,86.1-97s-48-52.2-81.8-100s-35.6-65.7-90-87.5
			S75.3,21.5,48.3,86.3S35.6,199,35.6,199z"/>
	</g>
	<g id="freepik--Plants--inject-2">
		<path class="st1" d="M364.1,255.3c-3.6,4.5-5.4,7.1-6.1,8.2c0.9-5,2.3-9.9,4.1-14.6c1.4-3.7,2.2-7.5,2.5-11.4l-0.3,0.2l-0.3-0.6
			c0.1-0.1,12.5-6.6,16-12.8l0.6,0.3c-3.1,5.6-12.9,11.2-15.5,12.7c2.5-0.2,10.4-1.4,15.1-7.2c3.4-4.5,5.1-10,4.6-15.6
			c0,0-10.6,7.3-15,12.9c-2,2.6-3.7,5.4-5,8.4c0.2-4.6-0.1-9.2-1-13.7c3.6-2.8,16.6-13.5,18-21.6c1.7-9.3-0.7-25.2-0.7-25.2
			c-1.3,3.3-2.9,6.5-4.6,9.6c-3,5.3-12.3,13.6-14,22.6c-0.4,2.2-0.6,4.5-0.7,6.8c-1.5-5-3.3-9.9-5.4-14.7c-0.6-1.3-1-2.6-1.3-4l0,0
			l-0.3-0.2c0.1-0.1,6-10.2,6-13.1h0.7c0,2.7-4.6,10.8-5.8,12.9c2.1-1.2,5.5-3.8,6.8-7.8c1.1-3.8,0.8-7.8-0.9-11.3
			c0,0-5,7.4-6.4,12.2c-0.7,2.2-1,4.4-1.2,6.7c-1-2.8-2.4-5.6-4.1-8.1c-2.1-3.1-3.8-6.5-5-10c0,0-3.6,6.3-1,13
			c2.2,5.5,8.4,7.6,10.5,8.1c0.2,0.7,0.5,1.4,0.8,2.1c2.9,6.6,5.2,13.4,6.9,20.5c-2.1-2.9-4.5-5.5-7.2-7.7c-2.9-2.3-5.5-5.1-7.7-8.1
			c0,0-1.7,7.1,2.8,12.7c3.7,4.6,10.2,4.8,12.4,4.7c1.5,8,1.7,16.4-0.9,24.6c-0.2-1.6-1.1-5.9-6.3-10.7c-6.6-6-19.8-25.4-19.8-25.4
			s1.1,22.9,7.4,30.4c5.8,6.9,16.7,6.5,18.5,6.4c-0.1,0.4-0.2,0.7-0.4,1.1c-4.2,11.2-5,19-5.1,23.2h-7.9V308h21.6v-36.2h-12.4
			c0.1-2.4,0.3-4.7,0.7-7l-0.2,0.1l-0.2-0.7c0.1,0,13.7-3.9,23.1-13.6l0.5,0.5c-7.6,7.9-17.9,11.9-21.8,13.2
			c3.9-0.5,13.4-1.9,17.9-4.8c5.6-3.7,10.6-14.6,10.6-14.6S369.5,248.7,364.1,255.3z M353.9,196.5c-4.5-2.4-7.7-6.6-8.7-11.6
			l0.7-0.1c1,4.8,4,8.8,8.3,11.1L353.9,196.5z M363.4,222.3l-0.1,0.2l-0.2-0.1c-0.4-0.1-9.2-3.8-12.8-9l0.6-0.4
			c3.1,4.6,10.8,8,12.2,8.7c1.1-1.8,8.3-12.9,10.8-19.9l0.6,0.2C371.7,209.7,363.5,222.2,363.4,222.3L363.4,222.3z M360.3,247.1
			c-0.1,0-10.6-4-15.3-13.1l0.6-0.3c4.6,8.9,14.9,12.7,15,12.8L360.3,247.1z"/>
	</g>
	<g id="freepik--Table--inject-2">
		<rect x="149.3" y="131.2" class="st2" width="155.8" height="176.6"/>
		<rect x="149.3" y="146.2" class="st2" width="142.6" height="161.6"/>
		<polygon class="st1" points="291.9,146.2 305.1,131.2 305.1,307.8 291.9,307.8 		"/>
		<rect x="298.7" y="275.3" class="st3" width="6.4" height="32.5"/>
		<polygon class="st4" points="333.1,307.8 333.1,252.7 305.1,275.3 305.1,307.8 		"/>
		<rect x="79.7" y="275.3" class="st3" width="6.4" height="32.5"/>
		<polygon class="st4" points="114.1,307.8 114.1,252.7 86.2,275.3 86.2,307.8 		"/>
		<polygon class="st3" points="312.9,281 54.9,281 54.8,278.9 353.7,247.6 353.7,249.7 		"/>
		<polygon class="st3" points="312.9,278.9 54.9,278.9 120,247.6 353.7,247.6 		"/>
		<polygon class="st5" points="297.9,273.6 270.5,273.6 286.3,261 315.1,261 		"/>
		<polygon class="st4" points="312.9,281 312.9,278.9 353.7,247.6 353.7,249.7 		"/>
		<path class="st6" d="M278.9,249H326c0,0,7-0.6,5.7,2.8s-7.4,3.7-20.9,4.1s-17,8.7-17,8.7"/>
		<path class="st1" d="M297.3,261.9c0,0-4.4-0.8-7.6,0.8c-2,1-3.7,4.5-4.8,6.9c-0.4,0.9,0.1,2,1,2.4c0.2,0.1,0.5,0.1,0.7,0.1h6
			c0.5,0,1-0.2,1.4-0.6l6-6.7C299.9,264.8,299.7,262.2,297.3,261.9z"/>
		<path class="st7" d="M293.6,270.3c-0.2-2.7,1.3-5.3,3.7-6.5"/>
		<polygon class="st3" points="262,275.4 166,275.4 189.3,256.8 285.3,256.8 		"/>
		<polygon class="st6" points="285.3,257.9 285.3,256.8 262,275.4 262,276.5 		"/>
		<rect x="166" y="275.4" class="st3" width="96" height="1.2"/>
		<polygon class="st6" points="197.3,267.3 194.2,269.8 200.5,269.8 203.6,267.3 		"/>
		<polygon class="st6" points="203.6,267.3 200.5,269.8 206.9,269.8 209.9,267.3 		"/>
		<polygon class="st6" points="190.9,267.3 187.9,269.8 194.2,269.8 197.3,267.3 		"/>
		<polygon class="st6" points="200.4,264.9 194,264.9 190.9,267.3 197.3,267.3 		"/>
		<polygon class="st6" points="206.7,264.9 209.8,262.4 203.4,262.4 200.4,264.9 		"/>
		<polygon class="st6" points="203.4,262.4 197.1,262.4 194,264.9 200.4,264.9 		"/>
		<polygon class="st6" points="209.9,267.3 206.9,269.8 213.2,269.8 216.3,267.3 		"/>
		<polygon class="st6" points="241.6,267.3 238.6,269.8 244.9,269.8 248,267.3 		"/>
		<polygon class="st6" points="213,264.9 216.1,262.4 209.8,262.4 206.7,264.9 		"/>
		<polygon class="st6" points="216.3,267.3 213.2,269.8 219.5,269.8 222.6,267.3 		"/>
		<polygon class="st6" points="251.2,269.8 257.6,269.8 260.6,267.3 254.3,267.3 		"/>
		<polygon class="st6" points="254.3,267.3 260.6,267.3 263.7,264.9 257.4,264.9 		"/>
		<polygon class="st6" points="248,267.3 244.9,269.8 251.2,269.8 254.3,267.3 		"/>
		<polygon class="st6" points="235.3,267.3 232.2,269.8 238.6,269.8 241.6,267.3 		"/>
		<polygon class="st6" points="222.6,267.3 219.5,269.8 225.9,269.8 229,267.3 		"/>
		<polygon class="st6" points="229,267.3 225.9,269.8 232.2,269.8 235.3,267.3 		"/>
		<polygon class="st6" points="238.4,264.9 241.5,262.4 235.1,262.4 232.1,264.9 		"/>
		<polygon class="st6" points="244.7,264.9 241.6,267.3 248,267.3 251.1,264.9 		"/>
		<polygon class="st6" points="232.1,264.9 229,267.3 235.3,267.3 238.4,264.9 		"/>
		<polygon class="st6" points="219.4,264.9 216.3,267.3 222.6,267.3 225.7,264.9 		"/>
		<polygon class="st6" points="238.4,264.9 235.3,267.3 241.6,267.3 244.7,264.9 		"/>
		<polygon class="st6" points="219.4,264.9 222.5,262.4 216.1,262.4 213,264.9 		"/>
		<polygon class="st6" points="200.4,264.9 197.3,267.3 203.6,267.3 206.7,264.9 		"/>
		<polygon class="st6" points="213,264.9 209.9,267.3 216.3,267.3 219.4,264.9 		"/>
		<polygon class="st6" points="206.7,264.9 203.6,267.3 209.9,267.3 213,264.9 		"/>
		<polygon class="st6" points="225.7,264.9 222.6,267.3 229,267.3 232.1,264.9 		"/>
		<polygon class="st6" points="232.1,264.9 235.1,262.4 228.8,262.4 225.7,264.9 		"/>
		<polygon class="st6" points="257.4,264.9 263.7,264.9 266.8,262.4 260.5,262.4 		"/>
		<polygon class="st6" points="225.7,264.9 228.8,262.4 222.5,262.4 219.4,264.9 		"/>
		<polygon class="st6" points="251.1,264.9 254.1,262.4 247.8,262.4 244.7,264.9 		"/>
		<polygon class="st6" points="257.4,264.9 260.5,262.4 254.1,262.4 251.1,264.9 		"/>
		<polygon class="st6" points="248,267.3 254.3,267.3 257.4,264.9 251.1,264.9 		"/>
		<polygon class="st6" points="244.7,264.9 247.8,262.4 241.5,262.4 238.4,264.9 		"/>
		<polygon class="st6" points="225.9,269.8 222.8,272.3 229.1,272.3 232.2,269.8 		"/>
		<polygon class="st6" points="232.2,269.8 229.1,272.3 235.5,272.3 238.6,269.8 		"/>
		<polygon class="st6" points="219.5,269.8 216.5,272.3 222.8,272.3 225.9,269.8 		"/>
		<polygon class="st6" points="238.6,269.8 235.5,272.3 241.8,272.3 244.9,269.8 		"/>
		<polygon class="st6" points="213.2,269.8 210.1,272.3 216.5,272.3 219.5,269.8 		"/>
		<polygon class="st6" points="206.9,269.8 203.8,272.3 210.1,272.3 213.2,269.8 		"/>
		<polygon class="st6" points="244.9,269.8 241.8,272.3 248.1,272.3 251.2,269.8 		"/>
		<polygon class="st6" points="194.2,269.8 191.1,272.3 197.4,272.3 200.5,269.8 		"/>
		<polygon class="st6" points="200.5,269.8 197.4,272.3 203.8,272.3 206.9,269.8 		"/>
		<polygon class="st6" points="260.6,267.3 267,267.3 270.1,264.9 263.7,264.9 		"/>
		<polygon class="st6" points="269.9,259.9 266.8,262.4 273.1,262.4 276.2,259.9 		"/>
		<polygon class="st6" points="263.7,264.9 270.1,264.9 273.1,262.4 266.8,262.4 		"/>
		<polygon class="st6" points="187.9,269.8 184.8,272.3 191.1,272.3 194.2,269.8 		"/>
		<polygon class="st6" points="251.2,269.8 248.1,272.3 254.5,272.3 257.6,269.8 		"/>
		<polygon class="st6" points="254.5,272.3 260.8,272.3 263.9,269.8 257.6,269.8 		"/>
		<polygon class="st6" points="257.6,269.8 263.9,269.8 267,267.3 260.6,267.3 		"/>
		<polygon class="st6" points="194,264.9 187.7,264.9 184.6,267.3 190.9,267.3 		"/>
		<polygon class="st6" points="235.1,262.4 238.2,259.9 231.9,259.9 228.8,262.4 		"/>
		<polygon class="st6" points="241.5,262.4 244.6,259.9 238.2,259.9 235.1,262.4 		"/>
		<polygon class="st6" points="228.8,262.4 231.9,259.9 225.5,259.9 222.5,262.4 		"/>
		<polygon class="st6" points="247.8,262.4 250.9,259.9 244.6,259.9 241.5,262.4 		"/>
		<polygon class="st6" points="260.5,262.4 263.6,259.9 257.2,259.9 254.1,262.4 		"/>
		<polygon class="st6" points="254.1,262.4 257.2,259.9 250.9,259.9 247.8,262.4 		"/>
		<polygon class="st6" points="222.5,262.4 225.5,259.9 219.2,259.9 216.1,262.4 		"/>
		<polygon class="st6" points="190.9,267.3 184.6,267.3 181.5,269.8 187.9,269.8 		"/>
		<polygon class="st6" points="197.1,262.4 190.8,262.4 187.7,264.9 194,264.9 		"/>
		<polygon class="st6" points="266.8,262.4 269.9,259.9 263.6,259.9 260.5,262.4 		"/>
		<polygon class="st6" points="181.5,269.8 178.4,272.3 184.8,272.3 187.9,269.8 		"/>
		<polygon class="st6" points="200.2,259.9 193.9,259.9 190.8,262.4 197.1,262.4 		"/>
		<polygon class="st6" points="209.8,262.4 212.9,259.9 206.5,259.9 203.4,262.4 		"/>
		<polygon class="st6" points="203.4,262.4 206.5,259.9 200.2,259.9 197.1,262.4 		"/>
		<polygon class="st6" points="216.1,262.4 219.2,259.9 212.9,259.9 209.8,262.4 		"/>
	</g>
	<g id="freepik--device-3--inject-2">
		<path class="st4" d="M288.7,254.3h-33.1c-0.3,0-0.5-0.2-0.5-0.5l0,0c0-0.2,0.1-0.4,0.3-0.5l6.8-3.3c0.1,0,0.2,0,0.2,0H293
			c0.3,0,0.5,0.2,0.5,0.5l0,0c0,0.2-0.1,0.3-0.2,0.4l-4.3,3.3C288.9,254.3,288.8,254.3,288.7,254.3z"/>
		<rect x="272.9" y="229.4" class="st3" width="6.1" height="23.2"/>
		<rect x="272" y="229.4" class="st4" width="8" height="16.8"/>
		<rect x="227.1" y="152.3" class="st3" width="100.7" height="78.8"/>
		<rect x="232.4" y="156.5" class="st4" width="89.9" height="70.3"/>
		<path class="st8" d="M241,161.3h-2.3c-0.3,0-0.6-0.3-0.6-0.6l0,0l0,0c0-0.3,0.3-0.6,0.6-0.6l0,0h2.3c0.3,0,0.6,0.3,0.6,0.6
			S241.3,161.3,241,161.3L241,161.3L241,161.3z M241.6,163.4c0-0.3-0.3-0.6-0.6-0.6l0,0h-2.3c-0.3,0-0.6,0.2-0.6,0.5l0,0
			c0,0.3,0.3,0.6,0.6,0.6l0,0h2.3C241.3,164,241.5,163.7,241.6,163.4L241.6,163.4z M241.6,166c0-0.3-0.3-0.6-0.6-0.6l0,0h-2.3
			c-0.3,0-0.6,0.2-0.6,0.5l0,0l0,0c0,0.3,0.3,0.6,0.6,0.6h2.3C241.3,166.6,241.5,166.4,241.6,166L241.6,166z M241.6,168.7
			c0-0.3-0.3-0.6-0.6-0.6l0,0h-2.3c-0.3,0-0.6,0.2-0.6,0.5l0,0l0,0c0,0.3,0.3,0.6,0.6,0.6h2.3C241.3,169.2,241.5,169,241.6,168.7
			L241.6,168.7z M241.6,171.3c0-0.3-0.3-0.6-0.6-0.6h-2.3c-0.3,0-0.5,0.3-0.5,0.6s0.2,0.5,0.5,0.5h2.3
			C241.3,171.9,241.5,171.7,241.6,171.3L241.6,171.3z M241.6,174c0-0.3-0.3-0.6-0.6-0.6h-2.3c-0.3,0-0.5,0.3-0.5,0.6
			s0.2,0.5,0.5,0.5h2.3C241.3,174.5,241.5,174.3,241.6,174L241.6,174z M241.6,176.6c0-0.3-0.3-0.6-0.6-0.6h-2.3
			c-0.3,0-0.6,0.3-0.6,0.6s0.3,0.6,0.6,0.6h2.3C241.3,177.2,241.5,177,241.6,176.6L241.6,176.6z M241.6,179.3c0-0.3-0.3-0.6-0.6-0.6
			h-2.3c-0.3,0-0.6,0.3-0.6,0.6s0.3,0.6,0.6,0.6h2.3C241.3,179.8,241.5,179.6,241.6,179.3L241.6,179.3z M250.3,160.8
			c0-0.3-0.3-0.6-0.6-0.6h-6.1c-0.3,0-0.6,0.3-0.6,0.6s0.3,0.6,0.6,0.6l0,0h6.1C250,161.4,250.3,161.1,250.3,160.8L250.3,160.8z
			 M250.3,163.4c0-0.3-0.3-0.6-0.6-0.6l0,0h-6.1c-0.3,0-0.6,0.2-0.6,0.5l0,0c0,0.3,0.3,0.6,0.6,0.6l0,0h6.1
			C250,164,250.3,163.8,250.3,163.4L250.3,163.4z M250.3,166.1c0-0.3-0.3-0.6-0.6-0.6l0,0h-6.1c-0.3,0-0.6,0.2-0.6,0.5l0,0l0,0
			c0,0.3,0.3,0.6,0.6,0.6h6.1C250,166.6,250.3,166.4,250.3,166.1L250.3,166.1L250.3,166.1z M250.3,168.7c0-0.3-0.3-0.6-0.6-0.6l0,0
			h-6.1c-0.3,0-0.6,0.2-0.6,0.5l0,0l0,0c0,0.3,0.3,0.6,0.6,0.6h6.1C250,169.3,250.3,169.1,250.3,168.7L250.3,168.7L250.3,168.7z
			 M250.3,171.4c0-0.3-0.3-0.6-0.6-0.6h-6.1c-0.3,0-0.6,0.2-0.6,0.5l0,0c0,0.3,0.2,0.6,0.5,0.6h6.2C250,172,250.3,171.7,250.3,171.4
			L250.3,171.4L250.3,171.4z M257.6,174c0-0.3-0.3-0.6-0.6-0.6l0,0h-6.1c-0.3,0-0.5,0.3-0.5,0.6s0.2,0.5,0.5,0.5h6.1
			C257.3,174.6,257.5,174.3,257.6,174L257.6,174z M257.6,176.7c0-0.3-0.3-0.6-0.6-0.6l0,0h-6.1c-0.3,0-0.6,0.2-0.6,0.5l0,0l0,0
			c0,0.3,0.2,0.6,0.5,0.6l0,0h6.1C257.3,177.2,257.5,177,257.6,176.7L257.6,176.7z M257.6,179.3c0-0.3-0.3-0.6-0.6-0.6l0,0h-6.1
			c-0.3,0-0.6,0.2-0.6,0.5l0,0l0,0c0,0.3,0.2,0.6,0.5,0.6l0,0h6.1C257.3,179.9,257.5,179.6,257.6,179.3L257.6,179.3z M253,160.8
			c0-0.4-0.3-0.7-0.7-0.7s-0.7,0.3-0.7,0.7s0.3,0.7,0.7,0.7l0,0C252.7,161.4,252.9,161.1,253,160.8L253,160.8z M255,160.8
			c0-0.4-0.3-0.7-0.7-0.7s-0.7,0.3-0.7,0.7s0.3,0.7,0.7,0.7C254.7,161.4,254.9,161.1,255,160.8L255,160.8z M257,160.8
			c0-0.4-0.3-0.7-0.7-0.7c-0.4,0-0.7,0.3-0.7,0.7s0.3,0.7,0.7,0.7S257,161.1,257,160.8L257,160.8z M259,160.8c0-0.4-0.4-0.6-0.7-0.6
			c-0.3,0-0.5,0.3-0.6,0.6c0,0.4,0.4,0.6,0.7,0.6C258.7,161.3,259,161.1,259,160.8z M261,160.8c0-0.4-0.3-0.7-0.7-0.7
			c-0.4,0-0.7,0.3-0.7,0.7s0.3,0.7,0.7,0.7c0.3-0.1,0.6-0.3,0.5-0.7H261z M263,160.8c0-0.4-0.3-0.7-0.7-0.7c-0.4,0-0.7,0.3-0.7,0.7
			s0.3,0.7,0.7,0.7S263,161.1,263,160.8L263,160.8z M253.1,166.1c0-0.4-0.4-0.6-0.7-0.6s-0.5,0.3-0.6,0.6c0,0.4,0.4,0.6,0.7,0.6
			C252.8,166.6,253,166.4,253.1,166.1L253.1,166.1z M255.1,166.1c0-0.4-0.3-0.7-0.7-0.7s-0.7,0.3-0.7,0.7s0.3,0.7,0.7,0.7
			C254.7,166.7,255,166.4,255.1,166.1L255.1,166.1z M257.1,166.1c0-0.4-0.3-0.7-0.7-0.7c-0.4,0-0.7,0.3-0.7,0.7s0.3,0.7,0.7,0.7
			c0.3-0.1,0.5-0.3,0.5-0.7H257.1z M259.1,166.1c0-0.4-0.3-0.7-0.7-0.7c-0.4,0-0.7,0.3-0.7,0.7s0.3,0.7,0.7,0.7l0,0
			c0.3-0.1,0.5-0.3,0.5-0.7H259.1z M261.1,166.1c0-0.4-0.3-0.7-0.7-0.7c-0.4,0-0.7,0.3-0.7,0.7s0.3,0.7,0.7,0.7
			C260.7,166.7,261,166.4,261.1,166.1L261.1,166.1z M263.1,166.1c0-0.4-0.3-0.7-0.7-0.7c-0.4,0-0.7,0.3-0.7,0.7s0.3,0.7,0.7,0.7
			c0.3-0.1,0.5-0.4,0.5-0.7H263.1z M259.9,173.7c0-0.4-0.3-0.7-0.7-0.7c-0.4,0-0.7,0.3-0.7,0.7s0.3,0.7,0.7,0.7
			C259.6,174.3,259.9,174,259.9,173.7L259.9,173.7z M261.9,173.7c0-0.4-0.3-0.7-0.7-0.6l0,0c-0.4,0-0.7,0.3-0.7,0.6l0,0
			c0,0.4,0.3,0.7,0.7,0.6c0.3-0.1,0.5-0.4,0.5-0.7L261.9,173.7L261.9,173.7z M263.9,173.7c0-0.4-0.3-0.7-0.7-0.7
			c-0.4,0-0.7,0.3-0.7,0.7s0.3,0.7,0.7,0.7l0,0c0.3-0.1,0.5-0.4,0.5-0.7H263.9z M265.9,173.7c0-0.4-0.3-0.7-0.7-0.7
			c-0.4,0-0.7,0.3-0.7,0.7s0.3,0.7,0.7,0.7C265.6,174.3,265.9,174,265.9,173.7L265.9,173.7z M267.9,173.7c0-0.4-0.3-0.7-0.7-0.6l0,0
			c-0.4,0-0.7,0.3-0.7,0.6l0,0c0,0.4,0.3,0.7,0.7,0.6c0.3-0.1,0.4-0.4,0.4-0.7L267.9,173.7L267.9,173.7z M269.9,173.7
			c0.3,0.1,0.5,0.4,0.4,0.7s-0.4,0.5-0.7,0.4c-0.3-0.1-0.5-0.4-0.4-0.7c0-0.2,0.2-0.4,0.4-0.4H269.9z M260,179.1
			c0-0.4-0.3-0.7-0.7-0.7c-0.4,0-0.7,0.3-0.7,0.7s0.3,0.7,0.7,0.7c0.3-0.1,0.4-0.4,0.4-0.7H260z M262,179.1c0-0.4-0.3-0.7-0.7-0.7
			c-0.4,0-0.7,0.3-0.7,0.7s0.3,0.7,0.7,0.7S262,179.5,262,179.1L262,179.1z M264,179.1c0-0.4-0.3-0.7-0.7-0.7
			c-0.4,0-0.7,0.3-0.7,0.7s0.3,0.7,0.7,0.7l0,0c0.3-0.1,0.4-0.4,0.4-0.7H264z M266,179.1c0.3,0.1,0.5,0.4,0.4,0.7s-0.4,0.5-0.7,0.4
			c-0.3-0.1-0.5-0.4-0.4-0.7c0.1-0.2,0.2-0.3,0.4-0.4H266z M268,179.1c0-0.4-0.3-0.7-0.7-0.7c-0.4,0-0.7,0.3-0.7,0.7
			s0.3,0.7,0.7,0.7S268,179.5,268,179.1L268,179.1z M270,179.1c0-0.4-0.3-0.7-0.7-0.7c-0.4,0-0.7,0.3-0.7,0.7s0.3,0.7,0.7,0.7l0,0
			c0.2-0.1,0.4-0.4,0.4-0.7H270z"/>
		<path class="st8" d="M241,182.5h-2.3c-0.3,0-0.5-0.3-0.5-0.6s0.2-0.5,0.5-0.5h2.3c0.3,0,0.5,0.3,0.5,0.6S241.3,182.5,241,182.5z
			 M241.6,184.6c0-0.3-0.2-0.6-0.5-0.6l0,0h-2.3c-0.3,0-0.5,0.3-0.5,0.6s0.2,0.5,0.5,0.5h2.3C241.3,185.1,241.5,184.9,241.6,184.6z
			 M241.6,187.3c0-0.3-0.3-0.6-0.6-0.6h-2.3c-0.3,0-0.6,0.3-0.6,0.6s0.3,0.6,0.6,0.6h2.3C241.3,187.8,241.5,187.6,241.6,187.3
			L241.6,187.3z M241.6,189.9c0-0.3-0.3-0.6-0.6-0.6h-2.3c-0.3,0-0.6,0.3-0.6,0.6s0.3,0.6,0.6,0.6h2.3
			C241.3,190.5,241.6,190.2,241.6,189.9L241.6,189.9z M241.6,192.6c0-0.3-0.3-0.6-0.6-0.6h-2.3c-0.3,0-0.6,0.2-0.6,0.5l0,0
			c0,0.3,0.3,0.6,0.6,0.6l0,0h2.3C241.3,193.1,241.6,192.9,241.6,192.6L241.6,192.6z M241.6,195.2c0-0.3-0.3-0.6-0.6-0.6l0,0h-2.3
			c-0.3,0-0.6,0.2-0.6,0.5l0,0c0,0.3,0.3,0.6,0.6,0.6l0,0h2.3C241.3,195.8,241.6,195.5,241.6,195.2z M241.6,197.9
			c0-0.3-0.3-0.6-0.6-0.6l0,0h-2.3c-0.3,0-0.6,0.2-0.6,0.5l0,0l0,0c0,0.3,0.3,0.6,0.6,0.6h2.3C241.3,198.4,241.6,198.2,241.6,197.9z
			 M241.6,200.5c0-0.3-0.3-0.6-0.6-0.6h-2.3c-0.3,0-0.5,0.3-0.5,0.6s0.2,0.5,0.5,0.5h2.3C241.3,201.1,241.6,200.8,241.6,200.5
			L241.6,200.5z M250.3,182c0-0.3-0.3-0.6-0.6-0.6h-6.1c-0.3,0-0.6,0.2-0.6,0.5l0,0c0,0.3,0.2,0.6,0.5,0.6h6.2
			C250,182.6,250.3,182.3,250.3,182L250.3,182z M250.3,184.6c0-0.3-0.3-0.6-0.6-0.6h-6.1c-0.3,0-0.6,0.2-0.6,0.5l0,0
			c0,0.3,0.2,0.6,0.5,0.6h6.2C250,185.2,250.3,185,250.3,184.6L250.3,184.6L250.3,184.6z M250.3,187.3c0-0.3-0.3-0.6-0.6-0.6h-6.1
			c-0.3,0-0.6,0.3-0.6,0.6s0.3,0.6,0.6,0.6l0,0h6.1C250,187.9,250.3,187.7,250.3,187.3L250.3,187.3L250.3,187.3z M250.3,189.9
			c0-0.3-0.3-0.6-0.6-0.6h-6.1c-0.3,0-0.6,0.3-0.6,0.6s0.3,0.6,0.6,0.6l0,0h6.1C250,190.5,250.3,190.3,250.3,189.9L250.3,189.9
			L250.3,189.9z M250.3,192.6c0-0.3-0.3-0.6-0.6-0.6l0,0h-6.1c-0.3,0-0.6,0.2-0.6,0.5l0,0c0,0.3,0.3,0.6,0.6,0.6l0,0h6.1
			C250,193.2,250.3,193,250.3,192.6L250.3,192.6z M257.6,195.2c0-0.3-0.2-0.6-0.5-0.6l0,0H251c-0.3,0-0.6,0.2-0.6,0.5l0,0
			c0,0.3,0.3,0.6,0.6,0.6l0,0h6.1C257.3,195.8,257.5,195.5,257.6,195.2L257.6,195.2z M257.6,197.9c0-0.3-0.2-0.6-0.5-0.6l0,0H251
			c-0.3,0-0.6,0.2-0.6,0.5l0,0l0,0c0,0.3,0.3,0.6,0.6,0.6l0,0h6.1C257.3,198.4,257.5,198.2,257.6,197.9L257.6,197.9z M257.6,200.5
			c0-0.3-0.2-0.6-0.6-0.6l0,0h-6.1c-0.3,0-0.5,0.3-0.5,0.6s0.2,0.5,0.5,0.5h6.1C257.3,201.1,257.5,200.8,257.6,200.5L257.6,200.5z
			 M253,182c0-0.4-0.3-0.7-0.7-0.7s-0.7,0.3-0.7,0.7s0.3,0.7,0.7,0.7l0,0C252.7,182.6,252.9,182.3,253,182L253,182z M255,182
			c0-0.4-0.3-0.7-0.7-0.7s-0.7,0.3-0.7,0.7s0.3,0.7,0.7,0.7C254.7,182.6,254.9,182.3,255,182L255,182z M257,182
			c0-0.4-0.3-0.7-0.7-0.7c-0.4,0-0.7,0.3-0.7,0.7s0.3,0.7,0.7,0.7S257,182.4,257,182L257,182z M259,182c0-0.4-0.3-0.7-0.7-0.7
			c-0.4,0-0.7,0.3-0.7,0.7s0.3,0.7,0.7,0.7l0,0c0.3,0,0.6-0.3,0.6-0.7H259z M261,182c0-0.4-0.3-0.7-0.7-0.7c-0.4,0-0.7,0.3-0.7,0.7
			s0.3,0.7,0.7,0.7c0.3-0.1,0.6-0.3,0.5-0.7H261z M263,182c0-0.4-0.3-0.7-0.7-0.7c-0.4,0-0.7,0.3-0.7,0.7s0.3,0.7,0.7,0.7
			S263,182.4,263,182L263,182z M252.9,187.3c0-0.4-0.3-0.7-0.7-0.7s-0.7,0.3-0.7,0.7s0.3,0.7,0.7,0.7l0,0l0,0
			C252.6,188,252.9,187.7,252.9,187.3L252.9,187.3z M254.9,187.3c0-0.4-0.3-0.7-0.7-0.7s-0.7,0.3-0.7,0.7s0.3,0.7,0.7,0.7
			C254.7,188,254.9,187.7,254.9,187.3L254.9,187.3L254.9,187.3z M257,187.3c0-0.4-0.3-0.7-0.7-0.6l0,0c-0.4,0-0.7,0.3-0.7,0.6l0,0
			c0,0.4,0.3,0.7,0.7,0.6C256.6,188,256.9,187.7,257,187.3L257,187.3z M259,187.3c0-0.4-0.3-0.7-0.7-0.7c-0.4,0-0.7,0.3-0.7,0.7
			s0.3,0.7,0.7,0.7C258.6,188,258.9,187.7,259,187.3L259,187.3z M261,187.3c0-0.4-0.3-0.7-0.7-0.7c-0.4,0-0.7,0.3-0.7,0.7
			s0.3,0.7,0.7,0.7S260.9,187.7,261,187.3C260.9,187.3,260.9,187.3,261,187.3L261,187.3z M263,187.3c0-0.4-0.3-0.7-0.7-0.6l0,0
			c-0.4,0-0.7,0.3-0.7,0.6l0,0c0,0.4,0.3,0.7,0.7,0.6C262.6,188,262.9,187.7,263,187.3L263,187.3z M259.8,194.9
			c0-0.4-0.3-0.7-0.7-0.7c-0.4,0-0.7,0.3-0.7,0.7s0.3,0.7,0.7,0.7C259.5,195.6,259.8,195.3,259.8,194.9L259.8,194.9L259.8,194.9z
			 M261.8,194.9c0-0.4-0.3-0.7-0.7-0.7c-0.4,0-0.7,0.3-0.7,0.7s0.3,0.7,0.7,0.7C261.5,195.6,261.7,195.3,261.8,194.9L261.8,194.9z
			 M263.8,194.9c0-0.4-0.4-0.6-0.7-0.6c-0.3,0-0.5,0.3-0.6,0.6c0,0.4,0.4,0.6,0.7,0.6S263.7,195.2,263.8,194.9L263.8,194.9z
			 M265.8,194.9c0-0.4-0.3-0.7-0.7-0.7c-0.4,0-0.7,0.3-0.7,0.7s0.3,0.7,0.7,0.7C265.5,195.6,265.8,195.3,265.8,194.9L265.8,194.9
			L265.8,194.9z M267.8,194.9c0-0.4-0.3-0.7-0.7-0.7c-0.4,0-0.7,0.3-0.7,0.7s0.3,0.7,0.7,0.7c0.3-0.1,0.6-0.4,0.5-0.7H267.8z
			 M269.8,194.9c0-0.4-0.3-0.7-0.7-0.7c-0.4,0-0.7,0.3-0.7,0.7s0.3,0.7,0.7,0.7l0,0c0.3-0.1,0.6-0.4,0.5-0.7H269.8z M259.7,200.3
			c0-0.4-0.3-0.7-0.7-0.7c-0.4,0-0.7,0.3-0.7,0.7s0.3,0.7,0.7,0.7S259.7,200.7,259.7,200.3L259.7,200.3z M261.7,200.3
			c0-0.4-0.3-0.7-0.7-0.7c-0.4,0-0.7,0.3-0.7,0.7s0.3,0.7,0.7,0.7S261.7,200.7,261.7,200.3L261.7,200.3z M263.7,200.3
			c0-0.4-0.3-0.7-0.7-0.7c-0.4,0-0.7,0.3-0.7,0.7s0.3,0.7,0.7,0.7l0,0C263.4,200.9,263.7,200.7,263.7,200.3L263.7,200.3z
			 M265.7,200.3c0-0.4-0.3-0.7-0.7-0.7c-0.4,0-0.7,0.3-0.7,0.7s0.3,0.7,0.7,0.7S265.7,200.7,265.7,200.3L265.7,200.3z M267.7,200.3
			c0-0.4-0.3-0.7-0.7-0.7c-0.4,0-0.7,0.3-0.7,0.7s0.3,0.7,0.7,0.7C267.4,200.9,267.6,200.6,267.7,200.3L267.7,200.3z M269.7,200.3
			c0-0.4-0.3-0.7-0.7-0.7c-0.4,0-0.7,0.3-0.7,0.7s0.3,0.7,0.7,0.7l0,0C269.4,200.9,269.6,200.6,269.7,200.3L269.7,200.3z"/>
		<path class="st8" d="M241,204.2h-2.3c-0.3,0-0.6-0.3-0.6-0.6l0,0l0,0c0-0.3,0.3-0.6,0.6-0.6l0,0h2.3c0.3,0,0.6,0.3,0.6,0.6
			C241.6,204,241.3,204.2,241,204.2L241,204.2z M241.6,206.3c0-0.3-0.3-0.6-0.6-0.6l0,0h-2.3c-0.3,0-0.6,0.2-0.6,0.5l0,0
			c0,0.3,0.3,0.6,0.6,0.6l0,0h2.3C241.3,206.9,241.6,206.6,241.6,206.3L241.6,206.3z M241.6,209c0-0.3-0.3-0.6-0.6-0.6l0,0h-2.3
			c-0.3,0-0.6,0.2-0.6,0.5l0,0l0,0c0,0.3,0.3,0.6,0.6,0.6h2.3C241.3,209.5,241.6,209.3,241.6,209z M241.6,211.6
			c0-0.3-0.3-0.6-0.6-0.6l0,0h-2.3c-0.3,0-0.6,0.2-0.6,0.5l0,0l0,0c0,0.3,0.3,0.6,0.6,0.6h2.3C241.3,212.2,241.6,211.9,241.6,211.6z
			 M241.6,214.3c0-0.3-0.3-0.6-0.6-0.6h-2.3c-0.3,0-0.5,0.3-0.5,0.6s0.2,0.5,0.5,0.5h2.3C241.3,214.8,241.5,214.6,241.6,214.3
			L241.6,214.3z M241.6,216.9c0-0.3-0.3-0.6-0.6-0.6h-2.3c-0.3,0-0.5,0.3-0.5,0.6s0.2,0.5,0.5,0.5h2.3
			C241.3,217.5,241.6,217.2,241.6,216.9L241.6,216.9z M241.6,219.6c0-0.3-0.3-0.6-0.6-0.6h-2.3c-0.3,0-0.5,0.3-0.5,0.6
			s0.2,0.5,0.5,0.5h2.3C241.3,220.1,241.6,219.9,241.6,219.6L241.6,219.6z M241.6,222.2c0-0.3-0.3-0.6-0.6-0.6h-2.3
			c-0.3,0-0.6,0.3-0.6,0.6s0.3,0.6,0.6,0.6l0,0h2.3C241.3,222.8,241.6,222.5,241.6,222.2L241.6,222.2z M250.3,203.7
			c0-0.3-0.3-0.6-0.6-0.6h-6.1c-0.3,0-0.6,0.3-0.6,0.6s0.3,0.6,0.6,0.6l0,0h6.1C250,204.3,250.3,204,250.3,203.7L250.3,203.7z
			 M250.3,206.3c0-0.3-0.3-0.6-0.6-0.6l0,0h-6.1c-0.3,0-0.6,0.2-0.6,0.5l0,0c0,0.3,0.3,0.6,0.6,0.6l0,0h6.1
			C250,206.9,250.3,206.7,250.3,206.3L250.3,206.3L250.3,206.3z M250.3,209c0-0.3-0.3-0.6-0.6-0.6l0,0h-6.1c-0.3,0-0.6,0.2-0.6,0.5
			l0,0l0,0c0,0.3,0.3,0.6,0.6,0.6h6.1C250,209.5,250.3,209.3,250.3,209L250.3,209L250.3,209z M250.3,211.6c0-0.3-0.3-0.6-0.6-0.6
			l0,0h-6.1c-0.3,0-0.6,0.2-0.6,0.5l0,0l0,0c0,0.3,0.3,0.6,0.6,0.6h6.1C250,212.2,250.3,212,250.3,211.6L250.3,211.6L250.3,211.6z
			 M250.3,214.3c0-0.3-0.3-0.6-0.6-0.6h-6.1c-0.3,0-0.6,0.2-0.6,0.5l0,0c0,0.3,0.2,0.6,0.5,0.6h6.2
			C250,214.9,250.3,214.6,250.3,214.3L250.3,214.3L250.3,214.3z M257.6,216.9c0-0.3-0.2-0.6-0.6-0.6l0,0h-6.1
			c-0.3,0-0.5,0.3-0.5,0.6s0.2,0.5,0.5,0.5h6.1C257.3,217.5,257.5,217.2,257.6,216.9L257.6,216.9z M257.6,219.6
			c0-0.3-0.3-0.6-0.6-0.6h-6.1c-0.3,0-0.5,0.3-0.5,0.6s0.2,0.5,0.5,0.5h6.1C257.3,220.1,257.5,219.9,257.6,219.6L257.6,219.6z
			 M257.6,222.2c0-0.3-0.3-0.6-0.6-0.6l0,0h-6.1c-0.3,0-0.6,0.2-0.6,0.5l0,0l0,0c0,0.3,0.2,0.6,0.5,0.6l0,0h6.1
			C257.3,222.8,257.5,222.5,257.6,222.2L257.6,222.2z M253,203.7c0-0.4-0.3-0.7-0.7-0.7s-0.7,0.3-0.7,0.7s0.3,0.7,0.7,0.7l0,0
			C252.7,204.3,252.9,204,253,203.7L253,203.7z M255,203.7c0-0.4-0.3-0.7-0.7-0.7s-0.7,0.3-0.7,0.7s0.3,0.7,0.7,0.7
			C254.7,204.3,254.9,204,255,203.7L255,203.7z M257,203.7c0-0.4-0.3-0.7-0.7-0.7c-0.4,0-0.7,0.3-0.7,0.7s0.3,0.7,0.7,0.7
			S257,204,257,203.7L257,203.7z M259,203.7c0-0.4-0.4-0.6-0.7-0.6c-0.3,0-0.5,0.3-0.6,0.6c0,0.4,0.4,0.6,0.7,0.6
			C258.7,204.2,259,204,259,203.7z M261,203.7c0-0.4-0.3-0.7-0.7-0.7c-0.4,0-0.7,0.3-0.7,0.7s0.3,0.7,0.7,0.7
			c0.3-0.1,0.6-0.3,0.5-0.7H261z M263,203.7c0-0.4-0.3-0.7-0.7-0.7c-0.4,0-0.7,0.3-0.7,0.7s0.3,0.7,0.7,0.7S263,204,263,203.7
			L263,203.7z M253,209c0-0.4-0.4-0.6-0.7-0.6s-0.5,0.3-0.6,0.6c0,0.4,0.4,0.6,0.7,0.6C252.7,209.5,253,209.3,253,209z M255,209
			c0-0.4-0.3-0.7-0.7-0.7s-0.7,0.3-0.7,0.7s0.3,0.7,0.7,0.7S255,209.4,255,209L255,209z M257,209c0-0.4-0.3-0.7-0.7-0.7
			c-0.4,0-0.7,0.3-0.7,0.7s0.3,0.7,0.7,0.7c0.3-0.1,0.5-0.3,0.5-0.7H257z M259,209c0-0.4-0.3-0.7-0.7-0.7c-0.4,0-0.7,0.3-0.7,0.7
			s0.3,0.7,0.7,0.7l0,0c0.3-0.1,0.5-0.3,0.5-0.7H259z M261,209c0-0.4-0.3-0.7-0.7-0.7c-0.4,0-0.7,0.3-0.7,0.7s0.3,0.7,0.7,0.7
			S261,209.4,261,209L261,209z M263,209c0-0.4-0.3-0.7-0.7-0.7c-0.4,0-0.7,0.3-0.7,0.7s0.3,0.7,0.7,0.7c0.3-0.1,0.5-0.4,0.5-0.7H263
			z M259.9,216.6c0-0.4-0.3-0.7-0.7-0.7c-0.4,0-0.7,0.3-0.7,0.7s0.3,0.7,0.7,0.7S259.9,217,259.9,216.6L259.9,216.6z M261.9,216.6
			c0-0.4-0.3-0.7-0.7-0.6l0,0c-0.4,0-0.7,0.3-0.7,0.6l0,0c0,0.4,0.3,0.7,0.7,0.6c0.3-0.1,0.5-0.4,0.5-0.7L261.9,216.6L261.9,216.6z
			 M263.9,216.6c0-0.4-0.3-0.7-0.7-0.7c-0.4,0-0.7,0.3-0.7,0.7s0.3,0.7,0.7,0.7l0,0c0.3-0.1,0.5-0.4,0.5-0.7H263.9z M265.9,216.6
			c0-0.4-0.3-0.7-0.7-0.7c-0.4,0-0.7,0.3-0.7,0.7s0.3,0.7,0.7,0.7S265.9,217,265.9,216.6L265.9,216.6z M267.9,216.6
			c0-0.4-0.3-0.7-0.7-0.6l0,0c-0.4,0-0.7,0.3-0.7,0.6l0,0c0,0.4,0.3,0.7,0.7,0.6c0.3-0.1,0.4-0.4,0.4-0.7L267.9,216.6L267.9,216.6z
			 M269.9,216.6c0.3,0.1,0.5,0.4,0.4,0.7s-0.4,0.5-0.7,0.4c-0.3-0.1-0.5-0.4-0.4-0.7c0-0.2,0.2-0.4,0.4-0.4H269.9z M260,222.1
			c0-0.4-0.3-0.7-0.7-0.7c-0.4,0-0.7,0.3-0.7,0.7s0.3,0.7,0.7,0.7c0.3-0.1,0.4-0.4,0.4-0.7H260z M262,222.1c0-0.4-0.3-0.7-0.7-0.7
			c-0.4,0-0.7,0.3-0.7,0.7s0.3,0.7,0.7,0.7S262,222.4,262,222.1L262,222.1z M264,222.1c0-0.4-0.3-0.7-0.7-0.7
			c-0.4,0-0.7,0.3-0.7,0.7s0.3,0.7,0.7,0.7l0,0c0.3-0.1,0.4-0.4,0.4-0.7H264z M266,222.1c0.3,0.1,0.5,0.4,0.4,0.7s-0.4,0.5-0.7,0.4
			c-0.3-0.1-0.5-0.4-0.4-0.7c0.1-0.2,0.2-0.3,0.4-0.4H266z M268,222.1c0-0.4-0.3-0.7-0.7-0.7c-0.4,0-0.7,0.3-0.7,0.7
			s0.3,0.7,0.7,0.7S268,222.4,268,222.1L268,222.1z M270,222.1c0-0.4-0.3-0.7-0.7-0.7c-0.4,0-0.7,0.3-0.7,0.7s0.3,0.7,0.7,0.7l0,0
			c0.2-0.1,0.4-0.4,0.4-0.7H270z"/>
		<path class="st8" d="M276.6,161.3h-2.3c-0.3,0-0.6-0.3-0.6-0.6l0,0l0,0c0-0.3,0.3-0.6,0.6-0.6l0,0h2.3c0.3,0,0.6,0.3,0.6,0.6l0,0
			l0,0C277.2,161,276.9,161.3,276.6,161.3L276.6,161.3z M277.1,163.4c0-0.3-0.2-0.6-0.5-0.6l0,0h-2.3c-0.3,0-0.6,0.2-0.6,0.5l0,0
			c0,0.3,0.3,0.6,0.6,0.6l0,0h2.3C276.9,163.9,277.1,163.7,277.1,163.4L277.1,163.4z M277.1,166c0-0.3-0.2-0.6-0.5-0.6l0,0h-2.3
			c-0.3,0-0.6,0.2-0.6,0.5l0,0l0,0c0,0.3,0.3,0.6,0.6,0.6h2.3C276.9,166.6,277.1,166.4,277.1,166L277.1,166z M277.1,168.7
			c0-0.3-0.2-0.6-0.5-0.6l0,0h-2.3c-0.3,0-0.6,0.2-0.6,0.5l0,0l0,0c0,0.3,0.3,0.6,0.6,0.6h2.3C276.9,169.2,277.1,169,277.1,168.7
			L277.1,168.7z M277.1,171.3c0-0.3-0.2-0.6-0.6-0.6l0,0h-2.3c-0.3,0-0.5,0.3-0.5,0.6s0.2,0.5,0.5,0.5h2.3
			C276.9,171.9,277.1,171.7,277.1,171.3L277.1,171.3z M277.1,174c0-0.3-0.3-0.6-0.6-0.6l0,0h-2.3c-0.3,0-0.5,0.3-0.5,0.6
			s0.2,0.5,0.5,0.5h2.3C276.9,174.5,277.1,174.3,277.1,174L277.1,174z M277.1,176.6c0-0.3-0.3-0.6-0.6-0.6l0,0h-2.3
			c-0.3,0-0.6,0.3-0.6,0.6s0.3,0.6,0.6,0.6l0,0h2.3C276.9,177.2,277.1,176.9,277.1,176.6L277.1,176.6z M277.1,179.3
			c0-0.3-0.3-0.6-0.6-0.6l0,0h-2.3c-0.3,0-0.6,0.3-0.6,0.6s0.3,0.6,0.6,0.6h2.3C276.9,179.8,277.1,179.6,277.1,179.3L277.1,179.3z
			 M285.8,160.7c0-0.3-0.3-0.6-0.6-0.6l0,0h-6.1c-0.3,0-0.6,0.3-0.6,0.6s0.3,0.6,0.6,0.6l0,0h6.1
			C285.6,161.3,285.8,161.1,285.8,160.7L285.8,160.7z M285.8,163.4c0-0.3-0.2-0.6-0.5-0.6l0,0h-6.1c-0.3,0-0.6,0.2-0.6,0.5l0,0
			c0,0.3,0.3,0.6,0.6,0.6l0,0h6.1C285.6,163.9,285.8,163.7,285.8,163.4L285.8,163.4z M285.8,166c0-0.3-0.2-0.6-0.5-0.6l0,0h-6.1
			c-0.3,0-0.6,0.2-0.6,0.5l0,0l0,0c0,0.3,0.3,0.6,0.6,0.6h6.1C285.6,166.6,285.8,166.3,285.8,166L285.8,166z M285.8,168.7
			c0-0.3-0.2-0.6-0.5-0.6l0,0h-6.1c-0.3,0-0.6,0.2-0.6,0.5l0,0l0,0c0,0.3,0.3,0.6,0.6,0.6h6.1C285.6,169.2,285.8,169,285.8,168.7
			L285.8,168.7z M285.8,171.3c0-0.3-0.2-0.6-0.6-0.6l0,0h-6.1c-0.3,0-0.6,0.2-0.6,0.5l0,0c0,0.3,0.2,0.6,0.5,0.6h6.3
			C285.6,171.9,285.8,171.7,285.8,171.3L285.8,171.3z M293.1,174c0-0.3-0.3-0.6-0.6-0.6h-6.1c-0.3,0-0.5,0.3-0.5,0.6
			s0.2,0.5,0.5,0.5h6.1C292.8,174.5,293.1,174.3,293.1,174L293.1,174z M293.1,176.6c0-0.3-0.3-0.6-0.6-0.6h-6.1
			c-0.3,0-0.6,0.2-0.6,0.5l0,0l0,0c0,0.3,0.2,0.6,0.5,0.6l0,0h6.1C292.8,177.2,293.1,177,293.1,176.6L293.1,176.6z M293.1,179.3
			c0-0.3-0.3-0.6-0.6-0.6h-6.1c-0.3,0-0.6,0.2-0.6,0.5l0,0l0,0c0,0.3,0.2,0.6,0.5,0.6l0,0h6.1C292.8,179.8,293.1,179.6,293.1,179.3
			L293.1,179.3z M288.5,160.7c0-0.4-0.3-0.7-0.7-0.7c-0.4,0-0.7,0.3-0.7,0.7s0.3,0.7,0.7,0.7l0,0
			C288.2,161.4,288.4,161.1,288.5,160.7L288.5,160.7z M290.5,160.7c0-0.4-0.4-0.6-0.7-0.6c-0.3,0-0.5,0.3-0.6,0.6
			c0,0.4,0.4,0.6,0.7,0.6S290.5,161,290.5,160.7L290.5,160.7z M292.5,160.7c0-0.4-0.3-0.7-0.7-0.7c-0.4,0-0.7,0.3-0.7,0.7
			s0.3,0.7,0.7,0.7S292.4,161.1,292.5,160.7L292.5,160.7z M294.5,160.7c0-0.4-0.3-0.7-0.7-0.7c-0.4,0-0.7,0.3-0.7,0.7
			s0.3,0.7,0.7,0.7l0,0C294.2,161.4,294.4,161.1,294.5,160.7L294.5,160.7z M296.5,160.7c0-0.4-0.3-0.7-0.7-0.7
			c-0.4,0-0.7,0.3-0.7,0.7s0.3,0.7,0.7,0.7S296.4,161.1,296.5,160.7L296.5,160.7z M298.5,160.7c0-0.4-0.3-0.7-0.7-0.7
			c-0.4,0-0.7,0.3-0.7,0.7s0.3,0.7,0.7,0.7S298.5,161.1,298.5,160.7L298.5,160.7z M288.6,166c0-0.4-0.4-0.6-0.7-0.6
			c-0.3,0-0.5,0.3-0.6,0.6c0,0.4,0.4,0.6,0.7,0.6C288.3,166.6,288.5,166.3,288.6,166L288.6,166z M290.6,166c0-0.4-0.3-0.7-0.7-0.7
			c-0.4,0-0.7,0.3-0.7,0.7s0.3,0.7,0.7,0.7l0,0C290.2,166.7,290.5,166.4,290.6,166L290.6,166z M292.6,166c0.6,0,1,0.5,1,1.1
			s-0.5,1-1.1,1s-1-0.5-1-1.1c0-0.5,0.5-1,1-1H292.6z M294.6,166c0-0.4-0.4-0.6-0.7-0.6c-0.3,0-0.5,0.3-0.6,0.6
			c0,0.4,0.4,0.6,0.7,0.6C294.3,166.6,294.5,166.3,294.6,166L294.6,166z M296.6,166c0-0.4-0.3-0.7-0.7-0.7c-0.4,0-0.7,0.3-0.7,0.7
			s0.3,0.7,0.7,0.7S296.6,166.4,296.6,166L296.6,166z M298.6,166c0-0.4-0.3-0.7-0.7-0.7c-0.4,0-0.7,0.3-0.7,0.7s0.3,0.7,0.7,0.7
			c0.3-0.1,0.5-0.3,0.5-0.6L298.6,166z M295.3,173.7c0-0.4-0.3-0.7-0.7-0.7c-0.4,0-0.7,0.3-0.7,0.7s0.3,0.7,0.7,0.7
			S295.3,174,295.3,173.7L295.3,173.7z M297.3,173.7c0-0.4-0.3-0.7-0.7-0.6l0,0c-0.4,0-0.7,0.3-0.7,0.6l0,0c0,0.4,0.3,0.7,0.7,0.6
			C297,174.3,297.3,174.1,297.3,173.7L297.3,173.7z M299.3,173.7c0-0.4-0.3-0.7-0.7-0.7c-0.4,0-0.7,0.3-0.7,0.7s0.3,0.7,0.7,0.7l0,0
			C299,174.3,299.3,174,299.3,173.7L299.3,173.7z M301.3,173.7c0-0.4-0.3-0.7-0.7-0.7c-0.4,0-0.7,0.3-0.7,0.7s0.3,0.7,0.7,0.7
			S301.3,174,301.3,173.7L301.3,173.7z M303.3,173.7c0-0.4-0.3-0.7-0.7-0.6l0,0c-0.4,0-0.7,0.3-0.7,0.6l0,0c0,0.4,0.3,0.7,0.7,0.6
			C303,174.3,303.2,174,303.3,173.7L303.3,173.7z M305.3,173.7c0-0.4-0.3-0.7-0.7-0.7c-0.4,0-0.7,0.3-0.7,0.7s0.3,0.7,0.7,0.7l0,0
			C305,174.3,305.2,174,305.3,173.7L305.3,173.7z M295.3,179.1c0-0.4-0.3-0.7-0.7-0.7c-0.4,0-0.7,0.3-0.7,0.7s0.3,0.7,0.7,0.7l0,0
			C295,179.8,295.3,179.5,295.3,179.1L295.3,179.1z M297.3,179.1c0-0.4-0.3-0.7-0.7-0.7c-0.4,0-0.7,0.3-0.7,0.7s0.3,0.7,0.7,0.7
			S297.3,179.5,297.3,179.1L297.3,179.1z M299.3,179.1c0-0.4-0.3-0.7-0.7-0.7c-0.4,0-0.7,0.3-0.7,0.7s0.3,0.7,0.7,0.7l0,0
			C299,179.8,299.3,179.5,299.3,179.1L299.3,179.1z M301.3,179.1c0-0.4-0.3-0.7-0.7-0.7c-0.4,0-0.7,0.3-0.7,0.7s0.3,0.7,0.7,0.7l0,0
			C301,179.8,301.3,179.5,301.3,179.1L301.3,179.1z M303.3,179.1c0-0.4-0.3-0.7-0.7-0.7c-0.4,0-0.7,0.3-0.7,0.7s0.3,0.7,0.7,0.7
			S303.2,179.5,303.3,179.1L303.3,179.1z M305.3,179.1c0-0.4-0.3-0.7-0.7-0.7c-0.4,0-0.7,0.3-0.7,0.7s0.3,0.7,0.7,0.7l0,0
			C304.9,179.8,305.2,179.5,305.3,179.1L305.3,179.1z"/>
		<path class="st8" d="M276.6,183.1h-2.3c-0.3,0-0.6-0.3-0.6-0.6s0.2-0.6,0.5-0.6l0,0h2.3c0.3,0,0.6,0.2,0.6,0.5l0,0l0,0
			C277.2,182.8,276.9,183,276.6,183.1L276.6,183.1z M277.1,185.1c0-0.3-0.2-0.6-0.6-0.6l0,0h-2.3c-0.3,0-0.5,0.3-0.5,0.6
			s0.2,0.5,0.5,0.5h2.3C276.9,185.7,277.1,185.4,277.1,185.1L277.1,185.1z M277.1,187.8c0-0.3-0.3-0.6-0.6-0.6l0,0h-2.3
			c-0.3,0-0.5,0.3-0.5,0.6s0.2,0.5,0.5,0.5h2.3C276.9,188.3,277.1,188.1,277.1,187.8L277.1,187.8z M277.1,190.4
			c0-0.3-0.3-0.6-0.6-0.6l0,0h-2.3c-0.3,0-0.6,0.3-0.6,0.6s0.3,0.6,0.6,0.6h2.3C276.9,191,277.2,190.7,277.1,190.4L277.1,190.4z
			 M277.1,193.1c0-0.3-0.3-0.6-0.6-0.6l0,0h-2.3c-0.3,0-0.6,0.3-0.6,0.6s0.3,0.6,0.6,0.6h2.3C276.9,193.6,277.2,193.4,277.1,193.1
			L277.1,193.1z M277.1,195.7c0-0.3-0.2-0.6-0.5-0.6l0,0h-2.3c-0.3,0-0.6,0.2-0.6,0.5l0,0c0,0.3,0.3,0.6,0.6,0.6l0,0h2.3
			C276.9,196.3,277.2,196,277.1,195.7L277.1,195.7z M277.1,198.4c0-0.3-0.2-0.6-0.5-0.6l0,0h-2.3c-0.3,0-0.6,0.2-0.6,0.5l0,0
			c0,0.3,0.3,0.6,0.6,0.6l0,0h2.3C276.9,198.9,277.2,198.7,277.1,198.4L277.1,198.4z M277.1,201c0-0.3-0.2-0.6-0.5-0.6l0,0h-2.3
			c-0.3,0-0.6,0.2-0.6,0.5l0,0l0,0c0,0.3,0.3,0.6,0.6,0.6h2.3C276.9,201.6,277.1,201.3,277.1,201L277.1,201z M285.8,182.5
			c0-0.3-0.2-0.6-0.5-0.6l0,0h-6.1c-0.3,0-0.6,0.2-0.6,0.5l0,0l0,0c0,0.3,0.3,0.6,0.6,0.6h6.1C285.6,183,285.8,182.8,285.8,182.5
			L285.8,182.5z M285.8,185.1c0-0.3-0.2-0.6-0.6-0.6l0,0h-6.1c-0.3,0-0.6,0.2-0.6,0.5l0,0c0,0.3,0.2,0.6,0.5,0.6h6.3
			C285.6,185.7,285.8,185.4,285.8,185.1L285.8,185.1z M285.8,187.8c0-0.3-0.3-0.6-0.6-0.6l0,0h-6.1c-0.3,0-0.6,0.2-0.6,0.5l0,0
			c0,0.3,0.2,0.6,0.5,0.6h6.3C285.6,188.3,285.8,188.1,285.8,187.8L285.8,187.8z M285.8,190.4c0-0.3-0.3-0.6-0.6-0.6l0,0h-6.1
			c-0.3,0-0.6,0.3-0.6,0.6s0.3,0.6,0.6,0.6l0,0h6.1C285.6,191,285.8,190.7,285.8,190.4L285.8,190.4z M285.8,193.1
			c0-0.3-0.3-0.6-0.6-0.6l0,0h-6.1c-0.3,0-0.6,0.3-0.6,0.6s0.3,0.6,0.6,0.6l0,0h6.1C285.6,193.6,285.8,193.4,285.8,193.1
			L285.8,193.1z M293.1,195.7c0-0.3-0.3-0.6-0.6-0.6l0,0h-6.1c-0.3,0-0.6,0.2-0.6,0.5l0,0c0,0.3,0.3,0.6,0.6,0.6l0,0h6.1
			C292.8,196.3,293.1,196,293.1,195.7L293.1,195.7z M293.1,198.4c0-0.3-0.3-0.6-0.6-0.6l0,0h-6.1c-0.3,0-0.6,0.2-0.6,0.5l0,0
			c0,0.3,0.3,0.6,0.6,0.6l0,0h6.1C292.8,198.9,293.1,198.7,293.1,198.4L293.1,198.4z M293.1,201c0-0.3-0.3-0.6-0.6-0.6l0,0h-6.1
			c-0.3,0-0.6,0.2-0.6,0.5l0,0l0,0c0,0.3,0.3,0.6,0.6,0.6l0,0h6.1C292.8,201.6,293.1,201.3,293.1,201L293.1,201z M288.5,182.5
			c0-0.4-0.4-0.6-0.7-0.6c-0.3,0-0.5,0.3-0.6,0.6c0,0.4,0.4,0.6,0.7,0.6C288.2,183,288.5,182.8,288.5,182.5L288.5,182.5z
			 M290.5,182.5c0-0.4-0.3-0.7-0.7-0.7c-0.4,0-0.7,0.3-0.7,0.7s0.3,0.7,0.7,0.7l0,0C290.2,183.1,290.5,182.8,290.5,182.5
			L290.5,182.5z M292.5,182.5c0-0.4-0.3-0.7-0.7-0.7c-0.4,0-0.7,0.3-0.7,0.7s0.3,0.7,0.7,0.7S292.5,182.8,292.5,182.5L292.5,182.5z
			 M294.5,182.5c0-0.4-0.4-0.6-0.7-0.6c-0.3,0-0.5,0.3-0.6,0.6c0,0.4,0.4,0.6,0.7,0.6C294.2,183,294.5,182.8,294.5,182.5
			L294.5,182.5z M296.5,182.5c0-0.4-0.3-0.7-0.7-0.7c-0.4,0-0.7,0.3-0.7,0.7s0.3,0.7,0.7,0.7C296.2,183.1,296.5,182.8,296.5,182.5
			L296.5,182.5z M298.5,182.5c0-0.4-0.3-0.7-0.7-0.7c-0.4,0-0.7,0.3-0.7,0.7s0.3,0.7,0.7,0.7C298.2,183.1,298.4,182.8,298.5,182.5
			L298.5,182.5z M288.6,187.8c0-0.4-0.3-0.7-0.7-0.7c-0.4,0-0.7,0.3-0.7,0.7s0.3,0.7,0.7,0.7l0,0
			C288.2,188.4,288.5,188.1,288.6,187.8L288.6,187.8z M290.6,187.8c0.3,0,0.6,0.3,0.6,0.7c0,0.3-0.3,0.6-0.7,0.6
			c-0.3,0-0.6-0.3-0.6-0.7C289.9,188,290.2,187.8,290.6,187.8L290.6,187.8z M292.6,187.8c0-0.4-0.3-0.7-0.7-0.6l0,0
			c-0.4,0-0.7,0.3-0.7,0.6l0,0c0,0.3,0.3,0.6,0.6,0.6c0.3,0,0.6-0.3,0.6-0.6H292.6z M294.6,187.8c0-0.4-0.3-0.7-0.7-0.7
			c-0.4,0-0.7,0.3-0.7,0.7s0.3,0.7,0.7,0.7l0,0c0.3-0.1,0.6-0.3,0.5-0.7H294.6z M296.6,187.8c0-0.4-0.3-0.7-0.7-0.7
			c-0.4,0-0.7,0.3-0.7,0.7s0.3,0.7,0.7,0.7C296.3,188.4,296.6,188.1,296.6,187.8L296.6,187.8z M298.6,187.8c0-0.4-0.3-0.7-0.7-0.6
			l0,0c-0.4,0-0.7,0.3-0.7,0.6l0,0c0,0.4,0.3,0.7,0.7,0.6c0.3-0.1,0.5-0.4,0.5-0.7L298.6,187.8L298.6,187.8z M295.3,195.4
			c0-0.4-0.3-0.7-0.7-0.7c-0.4,0-0.7,0.3-0.7,0.7s0.3,0.7,0.7,0.7l0,0C295,196.1,295.3,195.8,295.3,195.4L295.3,195.4z M297.3,195.4
			c0-0.4-0.3-0.7-0.7-0.7c-0.4,0-0.7,0.3-0.7,0.7s0.3,0.7,0.7,0.7S297.3,195.8,297.3,195.4L297.3,195.4z M299.3,195.4
			c0-0.4-0.3-0.7-0.7-0.7c-0.4,0-0.7,0.3-0.7,0.7s0.3,0.7,0.7,0.7l0,0C299,196,299.3,195.8,299.3,195.4L299.3,195.4z M301.3,195.4
			c0-0.4-0.3-0.7-0.7-0.7c-0.4,0-0.7,0.3-0.7,0.7s0.3,0.7,0.7,0.7l0,0C301,196.1,301.3,195.8,301.3,195.4L301.3,195.4z M303.3,195.4
			c0.3,0,0.6,0.3,0.6,0.7c0,0.3-0.3,0.6-0.7,0.6c-0.3,0-0.6-0.3-0.6-0.7C302.6,195.7,302.9,195.4,303.3,195.4L303.3,195.4z
			 M305.3,195.4c0-0.4-0.3-0.7-0.7-0.7c-0.4,0-0.7,0.3-0.7,0.7s0.3,0.7,0.7,0.7l0,0C304.9,196,305.2,195.7,305.3,195.4L305.3,195.4z
			 M295.3,200.8c0-0.4-0.4-0.6-0.7-0.6c-0.3,0-0.5,0.3-0.6,0.6c0,0.4,0.4,0.6,0.7,0.6C295,201.4,295.2,201.2,295.3,200.8
			L295.3,200.8z M297.3,200.8c0-0.4-0.3-0.7-0.7-0.7c-0.4,0-0.7,0.3-0.7,0.7s0.3,0.7,0.7,0.7S297.3,201.2,297.3,200.8L297.3,200.8z
			 M299.3,200.8c0-0.4-0.3-0.7-0.7-0.7c-0.4,0-0.7,0.3-0.7,0.7s0.3,0.7,0.7,0.7l0,0C299,201.5,299.3,201.2,299.3,200.8L299.3,200.8z
			 M301.3,200.8c0-0.4-0.4-0.6-0.7-0.6c-0.3,0-0.5,0.3-0.6,0.6c0,0.4,0.4,0.6,0.7,0.6C301,201.4,301.2,201.2,301.3,200.8
			L301.3,200.8z M303.3,200.8c0-0.4-0.3-0.7-0.7-0.7c-0.4,0-0.7,0.3-0.7,0.7s0.3,0.7,0.7,0.7S303.2,201.2,303.3,200.8L303.3,200.8z
			 M305.3,200.8c0-0.4-0.3-0.7-0.7-0.7c-0.4,0-0.7,0.3-0.7,0.7s0.3,0.7,0.7,0.7l0,0C304.9,201.5,305.2,201.2,305.3,200.8
			L305.3,200.8z"/>
	</g>
	<g id="freepik--device-2--inject-2">
		<path class="st4" d="M238.6,139.5h-33.1c-0.3,0-0.5-0.2-0.5-0.5l0,0c0-0.2,0.1-0.4,0.3-0.5l6.8-3.3c0.1,0,0.1-0.1,0.2-0.1h30.6
			c0.3,0,0.5,0.2,0.5,0.5l0,0c0,0.2-0.1,0.3-0.2,0.4l-4.3,3.3C238.8,139.5,238.7,139.5,238.6,139.5z"/>
		<rect x="222.8" y="114.5" class="st3" width="6.1" height="23.2"/>
		<rect x="221.8" y="114.5" class="st4" width="8" height="16.8"/>
		<rect x="176.9" y="37.5" class="st3" width="100.7" height="78.8"/>
		<rect x="182.3" y="41.7" class="st4" width="89.9" height="70.3"/>
		<rect x="189.3" y="49.5" class="st9" width="36.6" height="16.3"/>
		<path class="st9" d="M194.1,77.1h8.5c3.9,0,7.7,0.8,11.1,2.5l4,1.9c4.5,2.1,9.8,2,14.2-0.5l1.1-0.6c3.9-2.1,8.2-3.3,12.7-3.3h10.1
			"/>
		<path class="st9" d="M194.1,83.1h8.5c3.9,0,7.7,0.8,11.1,2.5l4,1.9c4.5,2.1,9.8,2,14.2-0.4l1.1-0.6c3.9-2.1,8.2-3.3,12.7-3.2h10.1
			"/>
		<path class="st9" d="M194.1,102.2h8.5c3.9,0,7.7-0.9,11.1-2.5l4-1.9c4.5-2.1,9.8-2,14.2,0.5l1.1,0.6c3.9,2.1,8.2,3.3,12.7,3.3
			h10.1"/>
		<path class="st9" d="M194.1,96.3h8.5c3.9,0,7.7-0.9,11.1-2.5l4-1.9c4.5-2.1,9.8-2,14.2,0.5L233,93c3.9,2.1,8.2,3.3,12.6,3.3h10.1"
			/>
		<rect x="256.9" y="73.1" class="st8" width="5.7" height="5.7"/>
		<rect x="256.9" y="80.2" class="st8" width="5.7" height="5.7"/>
		<rect x="256.9" y="92.3" class="st8" width="5.7" height="5.7"/>
		<rect x="256.9" y="99.4" class="st8" width="5.7" height="5.7"/>
		<rect x="187.2" y="73.1" class="st8" width="5.7" height="5.7"/>
		<rect x="187.2" y="80.2" class="st8" width="5.7" height="5.7"/>
		<rect x="187.2" y="92.3" class="st8" width="5.7" height="5.7"/>
		<rect x="187.2" y="99.4" class="st8" width="5.7" height="5.7"/>
		<path class="st8" d="M234.1,49.3h-2.3c-0.3,0-0.6-0.3-0.6-0.6l0,0c0-0.3,0.2-0.6,0.5-0.6l0,0h2.3c0.3,0,0.6,0.3,0.6,0.6l0,0
			C234.7,49,234.4,49.3,234.1,49.3z M234.7,51.4c0-0.3-0.2-0.6-0.5-0.6l0,0h-2.3c-0.3,0-0.6,0.2-0.6,0.5l0,0l0,0
			c0,0.3,0.3,0.6,0.6,0.6h2.3C234.4,51.9,234.7,51.7,234.7,51.4L234.7,51.4L234.7,51.4L234.7,51.4z M234.7,54c0-0.3-0.2-0.6-0.6-0.6
			l0,0h-2.3c-0.3,0-0.6,0.2-0.6,0.5l0,0c0,0.3,0.2,0.6,0.5,0.7h2.5C234.4,54.6,234.7,54.3,234.7,54L234.7,54L234.7,54z M234.7,56.7
			c0-0.3-0.3-0.6-0.6-0.6l0,0h-2.3c-0.3,0-0.6,0.2-0.6,0.5l0,0c0,0.3,0.2,0.6,0.5,0.7h2.5C234.4,57.2,234.7,57,234.7,56.7
			L234.7,56.7L234.7,56.7z M234.7,59.3c0-0.3-0.3-0.6-0.6-0.6l0,0h-2.3c-0.3,0-0.6,0.2-0.6,0.5l0,0c0,0.3,0.2,0.6,0.5,0.7h2.5
			C234.4,59.9,234.7,59.6,234.7,59.3L234.7,59.3L234.7,59.3z M234.7,62c0-0.3-0.3-0.6-0.6-0.6l0,0h-2.3c-0.3,0-0.6,0.3-0.6,0.6
			s0.3,0.6,0.6,0.6l0,0h2.3C234.4,62.5,234.7,62.3,234.7,62L234.7,62L234.7,62z M234.7,64.6c0-0.3-0.3-0.6-0.6-0.6l0,0h-2.3
			c-0.3,0-0.6,0.3-0.6,0.6c0,0.3,0.3,0.6,0.6,0.6l0,0h2.3C234.4,65.2,234.7,64.9,234.7,64.6L234.7,64.6L234.7,64.6z M234.7,67.3
			c0-0.3-0.2-0.6-0.5-0.6l0,0h-2.3c-0.3,0-0.6,0.2-0.6,0.5l0,0c0,0.3,0.3,0.6,0.6,0.6l0,0h2.3C234.4,67.8,234.6,67.6,234.7,67.3
			L234.7,67.3L234.7,67.3z M243.3,48.7c0-0.3-0.2-0.6-0.5-0.6l0,0h-6.1c-0.3,0-0.6,0.2-0.6,0.5l0,0c0,0.3,0.3,0.6,0.6,0.6l0,0h6.1
			C243,49.3,243.3,49,243.3,48.7L243.3,48.7z M243.3,51.3c0-0.3-0.2-0.6-0.5-0.6l0,0h-6.1c-0.3,0-0.6,0.2-0.6,0.5l0,0l0,0
			c0,0.3,0.3,0.6,0.6,0.6l0,0h6.1C243,51.9,243.3,51.6,243.3,51.3L243.3,51.3L243.3,51.3z M243.3,54c0-0.3-0.2-0.6-0.6-0.6l0,0h-6.1
			c-0.3,0-0.5,0.3-0.5,0.7c0,0.3,0.2,0.5,0.5,0.5h6.1C243,54.5,243.3,54.3,243.3,54L243.3,54z M243.3,56.6c0-0.3-0.3-0.6-0.6-0.6
			l0,0h-6.1c-0.3,0-0.5,0.3-0.5,0.7c0,0.3,0.2,0.5,0.5,0.5h6.1C243,57.2,243.3,56.9,243.3,56.6L243.3,56.6z M243.3,59.3
			c0-0.3-0.3-0.6-0.6-0.6l0,0h-6.1c-0.3,0-0.5,0.3-0.5,0.7c0,0.3,0.2,0.5,0.5,0.5h6.1C243,59.8,243.3,59.6,243.3,59.3L243.3,59.3z
			 M250.6,61.9c0-0.3-0.3-0.6-0.6-0.6h-6.1c-0.3,0-0.6,0.3-0.6,0.6s0.3,0.6,0.6,0.6l0,0h6.1C250.3,62.5,250.6,62.3,250.6,61.9
			L250.6,61.9L250.6,61.9z M250.6,64.6c0-0.3-0.3-0.6-0.6-0.6h-6.1c-0.3,0-0.6,0.3-0.6,0.6c0,0.3,0.3,0.6,0.6,0.6l0,0h6.1
			C250.3,65.2,250.6,64.9,250.6,64.6L250.6,64.6L250.6,64.6z M250.6,67.2c0-0.3-0.3-0.6-0.6-0.6l0,0h-6.1c-0.3,0-0.6,0.2-0.6,0.5
			l0,0c0,0.3,0.3,0.6,0.6,0.6l0,0h6.1C250.3,67.8,250.6,67.6,250.6,67.2L250.6,67.2L250.6,67.2z M246,48.7c0-0.3-0.2-0.5-0.5-0.4
			c-0.3,0-0.5,0.2-0.4,0.5s0.2,0.5,0.5,0.4C245.8,49.2,246,49,246,48.7L246,48.7z M248,48.7c0-0.4-0.4-0.6-0.7-0.6s-0.5,0.3-0.6,0.6
			c0,0.4,0.4,0.6,0.7,0.6C247.7,49.2,248,49,248,48.7z M250,48.7c0-0.4-0.3-0.7-0.7-0.7s-0.7,0.3-0.7,0.7s0.3,0.7,0.7,0.7
			S250,49,250,48.7L250,48.7z M252,48.7c0-0.4-0.3-0.7-0.7-0.7s-0.7,0.3-0.7,0.7s0.3,0.7,0.7,0.7S252,49,252,48.7L252,48.7z
			 M254,48.7c0-0.4-0.4-0.6-0.7-0.6s-0.5,0.3-0.6,0.6c0,0.4,0.4,0.6,0.7,0.6C253.7,49.2,254,49,254,48.7z M256,48.7
			c0-0.4-0.3-0.7-0.7-0.7s-0.7,0.3-0.7,0.7s0.3,0.7,0.7,0.7S256,49,256,48.7L256,48.7z M246,54c0-0.4-0.3-0.7-0.7-0.7
			s-0.7,0.3-0.7,0.7s0.3,0.7,0.7,0.7S246,54.4,246,54z M248,54c0-0.4-0.3-0.7-0.7-0.7s-0.7,0.3-0.7,0.7s0.3,0.7,0.7,0.7l0,0
			C247.7,54.7,248,54.4,248,54z M250,54c0-0.4-0.3-0.7-0.7-0.7s-0.7,0.3-0.7,0.7s0.3,0.7,0.7,0.7S250,54.4,250,54z M252,54
			c0-0.4-0.3-0.7-0.7-0.7s-0.7,0.3-0.7,0.7s0.3,0.7,0.7,0.7S252,54.4,252,54L252,54z M254,54c0-0.4-0.3-0.7-0.7-0.7
			s-0.7,0.3-0.7,0.7s0.3,0.7,0.7,0.7l0,0C253.7,54.7,254,54.4,254,54z M256,54c0-0.4-0.3-0.7-0.7-0.7s-0.7,0.3-0.7,0.7
			s0.3,0.7,0.7,0.7C255.6,54.6,255.9,54.4,256,54L256,54z M252.9,61.6c0-0.4-0.3-0.7-0.7-0.7s-0.7,0.3-0.7,0.7s0.3,0.7,0.7,0.7l0,0
			C252.5,62.2,252.8,62,252.9,61.6L252.9,61.6z M254.9,61.6c0-0.4-0.4-0.6-0.7-0.6s-0.5,0.3-0.6,0.6c0,0.4,0.4,0.6,0.7,0.6
			C254.6,62.2,254.9,61.9,254.9,61.6L254.9,61.6z M256.9,61.6c0-0.4-0.3-0.7-0.7-0.7s-0.7,0.3-0.7,0.7s0.3,0.7,0.7,0.7
			c0.3-0.1,0.5-0.3,0.5-0.7H256.9z M258.9,61.6c0-0.4-0.3-0.7-0.7-0.7s-0.7,0.3-0.7,0.7s0.3,0.7,0.7,0.7l0,0
			c0.3-0.1,0.5-0.3,0.5-0.7H258.9z M260.9,61.6c0.3,0,0.5,0.3,0.5,0.7c0,0.3-0.3,0.5-0.7,0.5s-0.5-0.3-0.5-0.7
			c0-0.3,0.2-0.5,0.5-0.5H260.9z M262.9,61.6c0-0.4-0.3-0.7-0.7-0.7s-0.7,0.3-0.7,0.7s0.3,0.7,0.7,0.7S262.9,62,262.9,61.6
			L262.9,61.6L262.9,61.6z M253,67.1c0-0.4-0.3-0.7-0.7-0.7s-0.7,0.3-0.7,0.7c0,0.4,0.3,0.7,0.7,0.7l0,0l0,0
			c0.3-0.1,0.5-0.4,0.5-0.7H253z M255,67.1c0.3,0,0.5,0.4,0.5,0.7c0,0.3-0.4,0.5-0.7,0.5s-0.5-0.4-0.5-0.7c0-0.3,0.2-0.5,0.5-0.5
			H255z M257,67.1c0-0.4-0.3-0.7-0.7-0.7l0,0c-0.4,0-0.7,0.3-0.7,0.6l0,0c0,0.4,0.3,0.7,0.7,0.7c0.3-0.1,0.5-0.4,0.5-0.7L257,67.1
			L257,67.1z M259,67.1c0-0.4-0.3-0.7-0.7-0.7c-0.4,0-0.7,0.3-0.7,0.7c0,0.4,0.3,0.7,0.7,0.7l0,0c0.3-0.1,0.5-0.4,0.5-0.7H259z
			 M261,67.1c0-0.4-0.3-0.7-0.7-0.7s-0.7,0.3-0.7,0.7c0,0.4,0.3,0.7,0.7,0.7S261,67.4,261,67.1L261,67.1z M263,67.1
			c0-0.4-0.3-0.7-0.7-0.7l0,0c-0.4,0-0.7,0.3-0.7,0.6l0,0c0,0.4,0.3,0.7,0.7,0.7c0.3-0.1,0.4-0.4,0.4-0.7L263,67.1L263,67.1z"/>
	</g>
	<g id="freepik--device-1--inject-2">
		<path class="st4" d="M170.8,254.3h-33.1c-0.3,0-0.5-0.2-0.5-0.5l0,0c0-0.2,0.1-0.4,0.3-0.5l6.8-3.3c0.1,0,0.2,0,0.2,0H175
			c0.3,0,0.5,0.2,0.5,0.5c0,0.2-0.1,0.3-0.2,0.4l-4.3,3.3C171,254.3,170.9,254.3,170.8,254.3z"/>
		<rect x="155" y="229.4" class="st3" width="6.1" height="23.2"/>
		<rect x="154.1" y="229.4" class="st4" width="8" height="16.8"/>
		<rect x="109.2" y="152.3" class="st3" width="100.7" height="78.8"/>
		<rect x="114.6" y="156.5" class="st4" width="89.9" height="70.3"/>
		<path class="st8" d="M134.5,161.3h-2.3c-0.3,0-0.6-0.3-0.6-0.6l0,0l0,0c0-0.3,0.3-0.6,0.6-0.6l0,0h2.3c0.3,0,0.6,0.3,0.6,0.6l0,0
			l0,0C135.1,161,134.8,161.3,134.5,161.3L134.5,161.3z M135.1,163.4c0-0.3-0.2-0.6-0.5-0.6l0,0h-2.3c-0.3,0-0.6,0.2-0.6,0.5l0,0
			c0,0.3,0.3,0.6,0.6,0.6l0,0h2.3C134.8,164,135,163.7,135.1,163.4L135.1,163.4z M135.1,166c0-0.3-0.2-0.6-0.5-0.6l0,0h-2.3
			c-0.3,0-0.6,0.2-0.6,0.5l0,0l0,0c0,0.3,0.3,0.6,0.6,0.6h2.3C134.8,166.6,135,166.4,135.1,166L135.1,166z M135.1,168.7
			c0-0.3-0.2-0.6-0.5-0.6l0,0h-2.3c-0.3,0-0.6,0.2-0.6,0.5l0,0l0,0c0,0.3,0.3,0.6,0.6,0.6h2.3C134.8,169.3,135,169,135.1,168.7
			L135.1,168.7z M135.1,171.3c0-0.3-0.2-0.6-0.6-0.6l0,0h-2.3c-0.3,0-0.5,0.3-0.5,0.6s0.2,0.5,0.5,0.5h2.3
			C134.8,171.9,135,171.7,135.1,171.3L135.1,171.3z M135.1,174c0-0.3-0.3-0.6-0.6-0.6l0,0h-2.3c-0.3,0-0.5,0.3-0.5,0.6
			s0.2,0.5,0.5,0.5h2.3C134.8,174.5,135,174.3,135.1,174L135.1,174z M135.1,176.6c0-0.3-0.3-0.6-0.6-0.6l0,0h-2.3
			c-0.3,0-0.6,0.3-0.6,0.6s0.3,0.6,0.6,0.6h2.3C134.8,177.2,135,177,135.1,176.6L135.1,176.6z M135.1,179.3c0-0.3-0.3-0.6-0.6-0.6
			l0,0h-2.3c-0.3,0-0.6,0.3-0.6,0.6s0.3,0.6,0.6,0.6h2.3C134.8,179.8,135.1,179.6,135.1,179.3L135.1,179.3z M143.7,160.7
			c0-0.3-0.3-0.6-0.6-0.6l0,0H137c-0.3,0-0.6,0.2-0.6,0.5l0,0l0,0c0,0.3,0.2,0.6,0.5,0.6l0,0h6.1
			C143.5,161.3,143.7,161.1,143.7,160.7L143.7,160.7z M143.7,163.4c0-0.3-0.2-0.6-0.5-0.6l0,0h-6.1c-0.3,0-0.6,0.2-0.6,0.5l0,0
			c0,0.3,0.3,0.6,0.6,0.6l0,0h6.1C143.5,164,143.7,163.7,143.7,163.4L143.7,163.4z M143.7,166c0-0.3-0.2-0.6-0.5-0.6l0,0h-6.1
			c-0.3,0-0.6,0.2-0.6,0.5l0,0l0,0c0,0.3,0.3,0.6,0.6,0.6l0,0h6.1C143.5,166.6,143.7,166.3,143.7,166L143.7,166z M143.7,168.7
			c0-0.3-0.2-0.6-0.5-0.6l0,0h-6.1c-0.3,0-0.6,0.2-0.6,0.5l0,0l0,0c0,0.3,0.3,0.6,0.6,0.6l0,0h6.1
			C143.5,169.2,143.7,169,143.7,168.7L143.7,168.7z M143.7,171.3c0-0.3-0.2-0.6-0.6-0.6l0,0H137c-0.3,0-0.5,0.3-0.5,0.6
			s0.2,0.5,0.5,0.5h6.1C143.5,171.9,143.7,171.7,143.7,171.3L143.7,171.3z M151,174c0-0.3-0.3-0.6-0.6-0.6h-6.1
			c-0.3,0-0.5,0.3-0.5,0.6s0.2,0.5,0.5,0.5h6.1C150.7,174.6,151,174.3,151,174z M151,176.6c0-0.3-0.3-0.6-0.6-0.6h-6.1
			c-0.3,0-0.6,0.3-0.6,0.6s0.3,0.6,0.6,0.6h6.1C150.7,177.2,151,177,151,176.6L151,176.6z M151,179.3c0-0.3-0.3-0.6-0.6-0.6h-6.1
			c-0.3,0-0.6,0.3-0.6,0.6s0.3,0.6,0.6,0.6l0,0h6.1C150.7,179.9,151,179.6,151,179.3L151,179.3z M146.4,160.8c0-0.4-0.3-0.7-0.7-0.7
			s-0.7,0.3-0.7,0.7s0.3,0.7,0.7,0.7C146.1,161.4,146.4,161.2,146.4,160.8L146.4,160.8L146.4,160.8z M148.4,160.8
			c0-0.4-0.4-0.6-0.7-0.6s-0.5,0.3-0.6,0.6c0,0.4,0.4,0.6,0.7,0.6C148.1,161.3,148.4,161.1,148.4,160.8L148.4,160.8z M150.4,160.8
			c0-0.4-0.3-0.7-0.7-0.7s-0.7,0.3-0.7,0.7s0.3,0.7,0.7,0.7C150.1,161.4,150.3,161.1,150.4,160.8L150.4,160.8z M152.4,160.8
			c0-0.4-0.3-0.7-0.7-0.7s-0.7,0.3-0.7,0.7s0.3,0.7,0.7,0.7C152.1,161.4,152.4,161.2,152.4,160.8L152.4,160.8L152.4,160.8z
			 M154.4,160.8c0-0.4-0.4-0.6-0.7-0.6s-0.5,0.3-0.6,0.6c0,0.4,0.4,0.6,0.7,0.6C154.1,161.3,154.4,161.1,154.4,160.8L154.4,160.8z
			 M156.4,160.8c0-0.4-0.3-0.7-0.7-0.7s-0.7,0.3-0.7,0.7s0.3,0.7,0.7,0.7C156.1,161.4,156.3,161.1,156.4,160.8L156.4,160.8z
			 M146.5,166.1c0-0.4-0.3-0.7-0.7-0.7s-0.7,0.3-0.7,0.7s0.3,0.7,0.7,0.7C146.1,166.7,146.4,166.4,146.5,166.1L146.5,166.1z
			 M148.5,166.1c0-0.4-0.3-0.7-0.7-0.7s-0.7,0.3-0.7,0.7s0.3,0.7,0.7,0.7l0,0C148.1,166.7,148.3,166.4,148.5,166.1L148.5,166.1z
			 M150.5,166.1c0-0.4-0.3-0.7-0.7-0.7s-0.7,0.3-0.7,0.7s0.3,0.7,0.7,0.7S150.5,166.4,150.5,166.1L150.5,166.1z M152.5,166.1
			c0-0.4-0.3-0.7-0.7-0.7s-0.7,0.3-0.7,0.7s0.3,0.7,0.7,0.7C152.1,166.7,152.3,166.5,152.5,166.1L152.5,166.1z M154.5,166.1
			c0-0.4-0.3-0.7-0.7-0.7s-0.7,0.3-0.7,0.7s0.3,0.7,0.7,0.7l0,0C154.1,166.7,154.3,166.5,154.5,166.1L154.5,166.1z M156.5,166.1
			c0.5,0,0.8,0.4,0.8,0.9s-0.4,0.8-0.9,0.8s-0.8-0.4-0.8-0.9C155.6,166.5,156,166.2,156.5,166.1L156.5,166.1z M153.3,173.7
			c0-0.4-0.3-0.7-0.7-0.7s-0.7,0.3-0.7,0.7s0.3,0.7,0.7,0.7l0,0l0,0c0.3-0.1,0.5-0.3,0.5-0.6L153.3,173.7z M155.3,173.7
			c0-0.4-0.3-0.7-0.7-0.7s-0.7,0.3-0.7,0.7s0.3,0.7,0.7,0.7S155.3,174,155.3,173.7L155.3,173.7z M157.3,173.7c0-0.4-0.3-0.7-0.7-0.6
			l0,0c-0.4,0-0.7,0.3-0.7,0.6l0,0c0,0.4,0.3,0.7,0.7,0.6c0.3-0.1,0.5-0.3,0.5-0.6H157.3z M159.3,173.7c0-0.4-0.3-0.7-0.7-0.7
			s-0.7,0.3-0.7,0.7s0.3,0.7,0.7,0.7l0,0c0.3-0.1,0.5-0.3,0.5-0.6L159.3,173.7z M161.3,173.7c0-0.4-0.3-0.7-0.7-0.7
			s-0.7,0.3-0.7,0.7s0.3,0.7,0.7,0.7S161.3,174,161.3,173.7L161.3,173.7z M163.3,173.7c0-0.4-0.3-0.7-0.7-0.6l0,0
			c-0.4,0-0.7,0.3-0.7,0.6l0,0c0,0.4,0.3,0.7,0.7,0.6c0.3-0.1,0.4-0.3,0.4-0.6H163.3z M153.4,179.1c0-0.4-0.3-0.7-0.7-0.7
			s-0.7,0.3-0.7,0.7s0.3,0.7,0.7,0.7l0,0c0.3-0.1,0.4-0.3,0.4-0.6L153.4,179.1z M155.4,179.1c0-0.4-0.3-0.7-0.7-0.7
			s-0.7,0.3-0.7,0.7s0.3,0.7,0.7,0.7c0.3-0.1,0.4-0.3,0.4-0.6L155.4,179.1z M157.4,179.1c0-0.4-0.3-0.7-0.7-0.7s-0.7,0.3-0.7,0.7
			s0.3,0.7,0.7,0.7C157.1,179.8,157.4,179.5,157.4,179.1C157.4,179.2,157.4,179.1,157.4,179.1L157.4,179.1z M159.4,179.1
			c0-0.4-0.3-0.7-0.7-0.7s-0.7,0.3-0.7,0.7s0.3,0.7,0.7,0.7l0,0c0.2-0.1,0.4-0.3,0.4-0.6L159.4,179.1z M161.4,179.1
			c0-0.4-0.3-0.7-0.7-0.7s-0.7,0.3-0.7,0.7s0.3,0.7,0.7,0.7c0.2-0.1,0.4-0.4,0.4-0.6L161.4,179.1z M163.4,179.1
			c0-0.4-0.3-0.7-0.7-0.7s-0.7,0.3-0.7,0.7s0.3,0.7,0.7,0.7C163.1,179.8,163.4,179.5,163.4,179.1
			C163.4,179.2,163.4,179.1,163.4,179.1L163.4,179.1z"/>
		<path class="st8" d="M134.5,182.5h-2.3c-0.3,0-0.5-0.3-0.5-0.6s0.2-0.5,0.5-0.5h2.3c0.3,0,0.5,0.3,0.5,0.6
			S134.8,182.5,134.5,182.5z M135.1,184.6c0-0.3-0.3-0.6-0.6-0.6l0,0h-2.3c-0.3,0-0.5,0.3-0.5,0.6s0.2,0.5,0.5,0.5h2.3
			C134.8,185.2,135.1,184.9,135.1,184.6L135.1,184.6z M135.1,187.3c0-0.3-0.3-0.6-0.6-0.6l0,0h-2.3c-0.3,0-0.6,0.3-0.6,0.6
			s0.3,0.6,0.6,0.6h2.3C134.8,187.8,135,187.6,135.1,187.3L135.1,187.3z M135.1,189.9c0-0.3-0.3-0.6-0.6-0.6l0,0h-2.3
			c-0.3,0-0.6,0.3-0.6,0.6s0.3,0.6,0.6,0.6h2.3C134.8,190.5,135.1,190.2,135.1,189.9L135.1,189.9L135.1,189.9z M135.1,192.6
			c0-0.3-0.2-0.6-0.5-0.6l0,0h-2.3c-0.3,0-0.6,0.2-0.6,0.5l0,0c0,0.3,0.3,0.6,0.6,0.6l0,0h2.3C134.8,193.1,135.1,192.9,135.1,192.6
			L135.1,192.6L135.1,192.6z M135.1,195.2c0-0.3-0.2-0.6-0.5-0.6l0,0h-2.3c-0.3,0-0.6,0.2-0.6,0.5l0,0c0,0.3,0.3,0.6,0.6,0.6l0,0
			h2.3C134.8,195.8,135.1,195.5,135.1,195.2L135.1,195.2L135.1,195.2z M135.1,197.9c0-0.3-0.2-0.6-0.5-0.6l0,0h-2.3
			c-0.3,0-0.6,0.2-0.6,0.5l0,0l0,0c0,0.3,0.3,0.6,0.6,0.6h2.3C134.8,198.4,135.1,198.2,135.1,197.9L135.1,197.9z M135.1,200.5
			c0-0.3-0.2-0.6-0.6-0.6l0,0h-2.3c-0.3,0-0.5,0.3-0.5,0.6s0.2,0.5,0.5,0.5h2.3C134.8,201.1,135.1,200.8,135.1,200.5L135.1,200.5z
			 M143.7,182c0-0.3-0.2-0.6-0.6-0.6l0,0H137c-0.3,0-0.5,0.3-0.5,0.6s0.2,0.5,0.5,0.5h6.1C143.5,182.6,143.7,182.3,143.7,182
			L143.7,182z M143.7,184.6c0-0.3-0.3-0.6-0.6-0.6l0,0H137c-0.3,0-0.5,0.3-0.5,0.6s0.2,0.5,0.5,0.5h6.1
			C143.5,185.2,143.7,185,143.7,184.6L143.7,184.6z M143.7,187.3c0-0.3-0.3-0.6-0.6-0.6l0,0H137c-0.3,0-0.6,0.2-0.6,0.5l0,0l0,0
			c0,0.3,0.2,0.6,0.5,0.6l0,0h6.1C143.5,187.9,143.7,187.6,143.7,187.3L143.7,187.3z M143.7,189.9c0-0.3-0.3-0.6-0.6-0.6l0,0H137
			c-0.3,0-0.6,0.2-0.6,0.5l0,0l0,0c0,0.3,0.2,0.6,0.5,0.6l0,0h6.1C143.5,190.5,143.7,190.3,143.7,189.9L143.7,189.9L143.7,189.9z
			 M143.7,192.6c0-0.3-0.2-0.6-0.5-0.6l0,0h-6.1c-0.3,0-0.6,0.2-0.6,0.5l0,0c0,0.3,0.3,0.6,0.6,0.6l0,0h6.1
			C143.5,193.2,143.7,192.9,143.7,192.6L143.7,192.6L143.7,192.6z M151,195.2c0-0.3-0.3-0.6-0.6-0.6l0,0h-6.1
			c-0.3,0-0.6,0.2-0.6,0.5l0,0c0,0.3,0.3,0.6,0.6,0.6l0,0h6.1C150.8,195.8,151,195.6,151,195.2z M151,197.9c0-0.3-0.3-0.6-0.6-0.6
			l0,0h-6.1c-0.3,0-0.6,0.2-0.6,0.5l0,0l0,0c0,0.3,0.3,0.6,0.6,0.6h6.1C150.8,198.4,151,198.2,151,197.9z M151,200.5
			c0-0.3-0.3-0.6-0.6-0.6h-6.1c-0.3,0-0.5,0.3-0.5,0.6s0.2,0.5,0.5,0.5h6.1C150.8,201.1,151,200.9,151,200.5L151,200.5z M146.4,182
			c0-0.4-0.3-0.7-0.7-0.7s-0.7,0.3-0.7,0.7s0.3,0.7,0.7,0.7S146.4,182.4,146.4,182L146.4,182z M148.4,182c0-0.4-0.3-0.7-0.7-0.7
			s-0.7,0.3-0.7,0.7s0.3,0.7,0.7,0.7l0,0C148.1,182.6,148.4,182.4,148.4,182L148.4,182z M150.4,182c0-0.4-0.3-0.7-0.7-0.7
			s-0.7,0.3-0.7,0.7s0.3,0.7,0.7,0.7C150.1,182.6,150.4,182.4,150.4,182L150.4,182z M152.4,182c0-0.4-0.3-0.7-0.7-0.7
			s-0.7,0.3-0.7,0.7s0.3,0.7,0.7,0.7S152.4,182.4,152.4,182L152.4,182z M154.4,182c0-0.4-0.3-0.7-0.7-0.7s-0.7,0.3-0.7,0.7
			s0.3,0.7,0.7,0.7l0,0C154.1,182.6,154.3,182.3,154.4,182L154.4,182z M156.4,182c0-0.4-0.3-0.7-0.7-0.7s-0.7,0.3-0.7,0.7
			s0.3,0.7,0.7,0.7C156.1,182.6,156.3,182.3,156.4,182L156.4,182z M146.4,187.3c0-0.4-0.3-0.7-0.7-0.6l0,0c-0.4,0-0.7,0.3-0.7,0.6
			l0,0c0,0.4,0.3,0.7,0.7,0.6C146.1,188,146.4,187.7,146.4,187.3L146.4,187.3L146.4,187.3z M148.4,187.3c0-0.4-0.3-0.7-0.7-0.7
			s-0.7,0.3-0.7,0.7s0.3,0.7,0.7,0.7l0,0C148.1,188,148.4,187.7,148.4,187.3L148.4,187.3z M150.4,187.3c0-0.4-0.3-0.7-0.7-0.7
			s-0.7,0.3-0.7,0.7s0.3,0.7,0.7,0.7C150.1,188,150.4,187.7,150.4,187.3L150.4,187.3L150.4,187.3z M152.4,187.3
			c0-0.4-0.3-0.7-0.7-0.6l0,0c-0.4,0-0.7,0.3-0.7,0.6l0,0c0,0.4,0.3,0.7,0.7,0.6C152.1,188,152.4,187.7,152.4,187.3L152.4,187.3z
			 M154.4,187.3c0-0.4-0.3-0.7-0.7-0.7s-0.7,0.3-0.7,0.7s0.3,0.7,0.7,0.7l0,0C154.1,188,154.4,187.7,154.4,187.3z M156.4,187.3
			c0-0.4-0.3-0.7-0.7-0.6l0,0c-0.4,0-0.7,0.3-0.7,0.6l0,0c0,0.4,0.3,0.7,0.7,0.6C156.1,188,156.4,187.7,156.4,187.3L156.4,187.3z
			 M153.3,194.9c0-0.4-0.4-0.6-0.7-0.6s-0.5,0.3-0.6,0.6c0,0.4,0.4,0.6,0.7,0.6S153.2,195.2,153.3,194.9L153.3,194.9z M155.3,194.9
			c0-0.4-0.3-0.7-0.7-0.7s-0.7,0.3-0.7,0.7s0.3,0.7,0.7,0.7C155,195.6,155.3,195.3,155.3,194.9L155.3,194.9L155.3,194.9z
			 M157.3,194.9c0-0.4-0.3-0.7-0.7-0.7s-0.7,0.3-0.7,0.7s0.3,0.7,0.7,0.7C156.9,195.5,157.2,195.2,157.3,194.9L157.3,194.9z
			 M159.3,194.9c0-0.4-0.3-0.7-0.7-0.7s-0.7,0.3-0.7,0.7s0.3,0.7,0.7,0.7l0,0C158.9,195.5,159.2,195.2,159.3,194.9L159.3,194.9z
			 M161.3,194.9c0-0.4-0.3-0.7-0.7-0.7s-0.7,0.3-0.7,0.7s0.3,0.7,0.7,0.7C161,195.6,161.3,195.3,161.3,194.9L161.3,194.9
			L161.3,194.9z M163.3,194.9c0.3,0,0.5,0.3,0.4,0.6c0,0.3-0.3,0.5-0.6,0.4c-0.3,0-0.5-0.3-0.4-0.6c0-0.2,0.2-0.4,0.4-0.4H163.3z
			 M153.2,200.3c0-0.4-0.3-0.7-0.7-0.7s-0.7,0.3-0.7,0.7s0.3,0.7,0.7,0.7l0,0C152.9,201,153.2,200.7,153.2,200.3L153.2,200.3z
			 M155.2,200.3c0-0.4-0.3-0.7-0.7-0.7s-0.7,0.3-0.7,0.7s0.3,0.7,0.7,0.7S155.2,200.7,155.2,200.3L155.2,200.3L155.2,200.3z
			 M157.2,200.3c0-0.4-0.3-0.7-0.7-0.7s-0.7,0.3-0.7,0.7s0.3,0.7,0.7,0.7S157.2,200.7,157.2,200.3L157.2,200.3z M159.2,200.3
			c0-0.4-0.3-0.7-0.7-0.7s-0.7,0.3-0.7,0.7s0.3,0.7,0.7,0.7l0,0C158.9,201,159.2,200.7,159.2,200.3L159.2,200.3z M161.2,200.3
			c0.3,0,0.6,0.3,0.6,0.7s-0.3,0.6-0.7,0.6c-0.3,0-0.6-0.3-0.6-0.7C160.6,200.6,160.8,200.3,161.2,200.3L161.2,200.3z M163.2,200.3
			c0-0.4-0.3-0.7-0.7-0.7s-0.7,0.3-0.7,0.7s0.3,0.7,0.7,0.7C162.9,200.9,163.1,200.7,163.2,200.3L163.2,200.3z"/>
		<path class="st8" d="M134.5,204.2h-2.3c-0.3,0-0.6-0.3-0.6-0.6l0,0l0,0c0-0.3,0.3-0.6,0.6-0.6l0,0h2.3c0.3,0,0.6,0.3,0.6,0.6l0,0
			l0,0C135.1,204,134.8,204.2,134.5,204.2L134.5,204.2z M135.1,206.3c0-0.3-0.2-0.6-0.5-0.6l0,0h-2.3c-0.3,0-0.6,0.2-0.6,0.5l0,0
			c0,0.3,0.3,0.6,0.6,0.6l0,0h2.3C134.8,206.9,135.1,206.6,135.1,206.3L135.1,206.3L135.1,206.3z M135.1,209c0-0.3-0.2-0.6-0.5-0.6
			l0,0h-2.3c-0.3,0-0.6,0.2-0.6,0.5l0,0l0,0c0,0.3,0.3,0.6,0.6,0.6h2.3C134.8,209.5,135.1,209.3,135.1,209L135.1,209z M135.1,211.6
			c0-0.3-0.2-0.6-0.5-0.6l0,0h-2.3c-0.3,0-0.6,0.2-0.6,0.5l0,0l0,0c0,0.3,0.3,0.6,0.6,0.6h2.3C134.8,212.2,135.1,211.9,135.1,211.6
			L135.1,211.6z M135.1,214.3c0-0.3-0.2-0.6-0.6-0.6l0,0h-2.3c-0.3,0-0.5,0.3-0.5,0.6s0.2,0.5,0.5,0.5h2.3
			C134.8,214.8,135,214.6,135.1,214.3L135.1,214.3z M135.1,216.9c0-0.3-0.2-0.6-0.6-0.6l0,0h-2.3c-0.3,0-0.5,0.3-0.5,0.6
			s0.2,0.5,0.5,0.5h2.3C134.8,217.5,135.1,217.2,135.1,216.9L135.1,216.9z M135.1,219.6c0-0.3-0.3-0.6-0.6-0.6l0,0h-2.3
			c-0.3,0-0.5,0.3-0.5,0.6s0.2,0.5,0.5,0.5h2.3C134.8,220.1,135.1,219.9,135.1,219.6L135.1,219.6z M135.1,222.2
			c0-0.3-0.3-0.6-0.6-0.6l0,0h-2.3c-0.3,0-0.6,0.3-0.6,0.6s0.3,0.6,0.6,0.6h2.3C134.8,222.8,135.1,222.5,135.1,222.2L135.1,222.2
			L135.1,222.2z M143.7,203.7c0-0.3-0.3-0.6-0.6-0.6l0,0H137c-0.3,0-0.6,0.2-0.6,0.5l0,0l0,0c0,0.3,0.2,0.6,0.5,0.6l0,0h6.1
			C143.5,204.2,143.7,204,143.7,203.7L143.7,203.7L143.7,203.7z M143.7,206.3c0-0.3-0.2-0.6-0.5-0.6l0,0h-6.1
			c-0.3,0-0.6,0.2-0.6,0.5l0,0c0,0.3,0.3,0.6,0.6,0.6l0,0h6.1C143.5,206.9,143.7,206.6,143.7,206.3L143.7,206.3L143.7,206.3z
			 M143.7,209c0-0.3-0.2-0.6-0.5-0.6l0,0h-6.1c-0.3,0-0.6,0.2-0.6,0.5l0,0l0,0c0,0.3,0.3,0.6,0.6,0.6l0,0h6.1
			C143.5,209.5,143.7,209.3,143.7,209L143.7,209z M143.7,211.6c0-0.3-0.2-0.6-0.5-0.6l0,0h-6.1c-0.3,0-0.6,0.2-0.6,0.5l0,0l0,0
			c0,0.3,0.3,0.6,0.6,0.6l0,0h6.1C143.5,212.2,143.7,211.9,143.7,211.6L143.7,211.6z M143.7,214.3c0-0.3-0.2-0.6-0.6-0.6l0,0H137
			c-0.3,0-0.5,0.3-0.5,0.6s0.2,0.5,0.5,0.5h6.1C143.5,214.8,143.7,214.6,143.7,214.3L143.7,214.3z M151,216.9c0-0.3-0.3-0.6-0.6-0.6
			h-6.1c-0.3,0-0.5,0.3-0.5,0.6s0.2,0.5,0.5,0.5h6.1C150.8,217.5,151,217.2,151,216.9L151,216.9z M151,219.6c0-0.3-0.3-0.6-0.6-0.6
			h-6.1c-0.3,0-0.5,0.3-0.5,0.6s0.2,0.5,0.5,0.5h6.1C150.8,220.1,151,219.9,151,219.6L151,219.6z M151,222.2c0-0.3-0.3-0.6-0.6-0.6
			h-6.1c-0.3,0-0.6,0.3-0.6,0.6s0.3,0.6,0.6,0.6h6.1C150.8,222.8,151,222.5,151,222.2L151,222.2z M146.4,203.7
			c0-0.4-0.3-0.7-0.7-0.7s-0.7,0.3-0.7,0.7s0.3,0.7,0.7,0.7C146.1,204.3,146.4,204,146.4,203.7L146.4,203.7z M148.4,203.7
			c0-0.4-0.4-0.6-0.7-0.6s-0.5,0.3-0.6,0.6c0,0.4,0.4,0.6,0.7,0.6C148.1,204.2,148.4,204,148.4,203.7L148.4,203.7z M150.4,203.7
			c0-0.4-0.3-0.7-0.7-0.7s-0.7,0.3-0.7,0.7s0.3,0.7,0.7,0.7C150.1,204.3,150.4,204,150.4,203.7L150.4,203.7z M152.4,203.7
			c0-0.4-0.3-0.7-0.7-0.7s-0.7,0.3-0.7,0.7s0.3,0.7,0.7,0.7C152.1,204.3,152.4,204,152.4,203.7L152.4,203.7z M154.4,203.7
			c0-0.4-0.4-0.6-0.7-0.6s-0.5,0.3-0.6,0.6c0,0.4,0.4,0.6,0.7,0.6C154.1,204.2,154.4,204,154.4,203.7L154.4,203.7z M156.4,203.7
			c0-0.4-0.3-0.7-0.7-0.7s-0.7,0.3-0.7,0.7s0.3,0.7,0.7,0.7C156.1,204.3,156.3,204,156.4,203.7L156.4,203.7z M146.5,209
			c0-0.4-0.3-0.7-0.7-0.7s-0.7,0.3-0.7,0.7s0.3,0.7,0.7,0.7C146.2,209.6,146.4,209.3,146.5,209L146.5,209z M148.5,209
			c0-0.4-0.3-0.7-0.7-0.7s-0.7,0.3-0.7,0.7s0.3,0.7,0.7,0.7l0,0C148.1,209.6,148.4,209.3,148.5,209L148.5,209z M150.5,209
			c0-0.4-0.3-0.7-0.7-0.7s-0.7,0.3-0.7,0.7s0.3,0.7,0.7,0.7C150.2,209.6,150.5,209.4,150.5,209L150.5,209z M152.5,209
			c0-0.4-0.3-0.7-0.7-0.7s-0.7,0.3-0.7,0.7s0.3,0.7,0.7,0.7C152.1,209.6,152.4,209.4,152.5,209L152.5,209z M154.5,209
			c0-0.4-0.3-0.7-0.7-0.7s-0.7,0.3-0.7,0.7s0.3,0.7,0.7,0.7l0,0C154.1,209.6,154.4,209.4,154.5,209L154.5,209z M156.5,209
			c0.3,0,0.6,0.3,0.5,0.7c0,0.3-0.3,0.6-0.7,0.5c-0.3,0-0.6-0.3-0.5-0.7c0-0.3,0.2-0.5,0.5-0.5H156.5z M153.3,216.6
			c0-0.4-0.3-0.7-0.7-0.7s-0.7,0.3-0.7,0.7s0.3,0.7,0.7,0.7l0,0l0,0c0.3-0.1,0.5-0.4,0.5-0.7H153.3z M155.3,216.6
			c0-0.4-0.3-0.7-0.7-0.7s-0.7,0.3-0.7,0.7s0.3,0.7,0.7,0.7C155.1,217.2,155.3,216.9,155.3,216.6L155.3,216.6z M157.3,216.6
			c0-0.4-0.3-0.7-0.7-0.6l0,0c-0.4,0-0.7,0.3-0.7,0.6l0,0c0,0.4,0.3,0.7,0.7,0.6c0.3-0.1,0.5-0.4,0.5-0.7L157.3,216.6L157.3,216.6z
			 M159.3,216.6c0.3,0,0.5,0.4,0.5,0.7s-0.4,0.5-0.7,0.5s-0.5-0.4-0.5-0.7s0.2-0.5,0.5-0.5H159.3z M161.3,216.6
			c0-0.4-0.3-0.7-0.7-0.7s-0.7,0.3-0.7,0.7s0.3,0.7,0.7,0.7C161.1,217.2,161.3,216.9,161.3,216.6L161.3,216.6z M163.3,216.6
			c0-0.4-0.3-0.7-0.7-0.6l0,0c-0.4,0-0.7,0.3-0.7,0.6l0,0c0,0.4,0.3,0.7,0.7,0.6c0.3-0.1,0.5-0.4,0.4-0.7L163.3,216.6L163.3,216.6z
			 M153.4,222c0-0.4-0.3-0.7-0.7-0.7s-0.7,0.3-0.7,0.7s0.3,0.7,0.7,0.7l0,0c0.3-0.1,0.5-0.4,0.4-0.7H153.4z M155.4,222
			c0.3,0.1,0.5,0.4,0.4,0.7s-0.4,0.5-0.7,0.4s-0.5-0.4-0.4-0.7c0-0.2,0.2-0.4,0.4-0.4H155.4z M157.4,222c0-0.4-0.3-0.7-0.7-0.7
			s-0.7,0.3-0.7,0.7l0,0c0,0.4,0.3,0.7,0.7,0.7S157.4,222.4,157.4,222L157.4,222z M159.4,222c0-0.4-0.3-0.7-0.7-0.7
			s-0.7,0.3-0.7,0.7s0.3,0.7,0.7,0.7l0,0c0.3-0.1,0.4-0.4,0.4-0.7H159.4z M161.4,222c0-0.4-0.3-0.7-0.7-0.7s-0.7,0.3-0.7,0.7
			s0.3,0.7,0.7,0.7c0.3-0.1,0.4-0.4,0.4-0.7H161.4z M163.4,222c0-0.4-0.3-0.7-0.7-0.7s-0.7,0.3-0.7,0.7l0,0c0,0.4,0.3,0.7,0.7,0.7
			S163.4,222.4,163.4,222L163.4,222z"/>
		<path class="st8" d="M170.1,161.3h-2.3c-0.3,0-0.6-0.2-0.6-0.6l0,0l0,0c0-0.3,0.3-0.6,0.6-0.6l0,0h2.3c0.3,0,0.6,0.3,0.6,0.6l0,0
			l0,0C170.7,161,170.4,161.3,170.1,161.3L170.1,161.3z M170.7,163.4c0-0.3-0.2-0.6-0.5-0.6l0,0h-2.3c-0.3,0-0.6,0.2-0.6,0.5l0,0
			c0,0.3,0.3,0.6,0.6,0.6l0,0h2.3C170.4,164,170.6,163.7,170.7,163.4L170.7,163.4z M170.7,166c0-0.3-0.2-0.6-0.5-0.6l0,0h-2.3
			c-0.3,0-0.6,0.2-0.6,0.5l0,0l0,0c0,0.3,0.3,0.6,0.6,0.6h2.3C170.4,166.6,170.6,166.4,170.7,166L170.7,166z M170.7,168.7
			c0-0.3-0.2-0.6-0.5-0.6l0,0h-2.3c-0.3,0-0.6,0.2-0.6,0.5l0,0l0,0c0,0.3,0.3,0.6,0.6,0.6h2.3C170.4,169.2,170.6,169,170.7,168.7
			L170.7,168.7z M170.7,171.3c0-0.3-0.2-0.6-0.6-0.6l0,0h-2.3c-0.3,0-0.6,0.2-0.6,0.5l0,0c0,0.3,0.2,0.6,0.5,0.6h2.5
			C170.4,171.9,170.6,171.7,170.7,171.3L170.7,171.3z M170.7,174c0-0.3-0.3-0.6-0.6-0.6l0,0h-2.3c-0.3,0-0.6,0.2-0.6,0.5l0,0
			c0,0.3,0.2,0.6,0.5,0.6h2.5C170.4,174.5,170.6,174.3,170.7,174L170.7,174z M170.7,176.6c0-0.3-0.3-0.6-0.6-0.6l0,0h-2.3
			c-0.3,0-0.6,0.3-0.6,0.6s0.3,0.6,0.6,0.6l0,0h2.3C170.4,177.2,170.6,177,170.7,176.6L170.7,176.6z M170.7,179.3
			c0-0.3-0.3-0.6-0.6-0.6l0,0h-2.3c-0.3,0-0.6,0.3-0.6,0.6s0.3,0.6,0.6,0.6l0,0h2.3C170.4,179.8,170.6,179.6,170.7,179.3
			L170.7,179.3z M179.3,160.8c0-0.3-0.3-0.6-0.6-0.6l0,0h-6.1c-0.3,0-0.6,0.2-0.6,0.5l0,0l0,0c0,0.3,0.2,0.6,0.5,0.6l0,0h6.1
			C179,161.3,179.3,161.1,179.3,160.8L179.3,160.8z M179.3,163.4c0-0.3-0.2-0.6-0.5-0.6l0,0h-6.1c-0.3,0-0.6,0.2-0.6,0.5l0,0
			c0,0.3,0.3,0.6,0.6,0.6l0,0h6.1C179,164,179.3,163.7,179.3,163.4L179.3,163.4z M179.3,166.1c0-0.3-0.2-0.6-0.5-0.6l0,0h-6.1
			c-0.3,0-0.6,0.2-0.6,0.5l0,0l0,0c0,0.3,0.3,0.6,0.6,0.6l0,0h6.1C179,166.6,179.3,166.4,179.3,166.1L179.3,166.1z M179.3,168.7
			c0-0.3-0.2-0.6-0.5-0.6l0,0h-6.1c-0.3,0-0.6,0.2-0.6,0.5l0,0l0,0c0,0.3,0.3,0.6,0.6,0.6l0,0h6.1C179,169.3,179.3,169,179.3,168.7
			L179.3,168.7z M179.3,171.4c0-0.3-0.2-0.6-0.6-0.6l0,0h-6.1c-0.3,0-0.5,0.3-0.5,0.6s0.2,0.5,0.5,0.5h6.1
			C179,171.9,179.3,171.7,179.3,171.4L179.3,171.4z M186.6,174c0-0.3-0.3-0.6-0.6-0.6h-6.1c-0.3,0-0.5,0.3-0.5,0.6s0.2,0.5,0.5,0.5
			h6.1C186.3,174.6,186.6,174.4,186.6,174L186.6,174L186.6,174L186.6,174z M186.6,176.7c0-0.3-0.3-0.6-0.6-0.6h-6.1
			c-0.3,0-0.6,0.3-0.6,0.6s0.3,0.6,0.6,0.6h6.1C186.3,177.2,186.6,177,186.6,176.7L186.6,176.7L186.6,176.7z M186.6,179.3
			c0-0.3-0.3-0.6-0.6-0.6h-6.1c-0.3,0-0.6,0.3-0.6,0.6s0.3,0.6,0.6,0.6h6.1C186.3,179.9,186.6,179.7,186.6,179.3L186.6,179.3
			L186.6,179.3z M182,160.8c0-0.4-0.3-0.7-0.7-0.7s-0.7,0.3-0.7,0.7s0.3,0.7,0.7,0.7S182,161.1,182,160.8L182,160.8z M184,160.8
			c0-0.4-0.3-0.7-0.7-0.7s-0.7,0.3-0.7,0.7s0.3,0.7,0.7,0.7l0,0C183.7,161.4,184,161.1,184,160.8L184,160.8z M186,160.8
			c0-0.4-0.3-0.7-0.7-0.7s-0.7,0.3-0.7,0.7s0.3,0.7,0.7,0.7S186,161.1,186,160.8L186,160.8z M188,160.8c0-0.4-0.3-0.7-0.7-0.7
			s-0.7,0.3-0.7,0.7s0.3,0.7,0.7,0.7S188,161.1,188,160.8L188,160.8z M190,160.8c0-0.4-0.4-0.6-0.7-0.6s-0.5,0.3-0.6,0.6
			c0,0.4,0.4,0.6,0.7,0.6C189.7,161.3,190,161.1,190,160.8z M192,160.8c0-0.4-0.3-0.7-0.7-0.7s-0.7,0.3-0.7,0.7s0.3,0.7,0.7,0.7
			S192,161.1,192,160.8L192,160.8z M182.1,166.1c0-0.4-0.3-0.7-0.7-0.7s-0.7,0.3-0.7,0.7s0.3,0.7,0.7,0.7S182.1,166.4,182.1,166.1
			L182.1,166.1z M184.1,166.1c0-0.4-0.4-0.6-0.7-0.6s-0.5,0.3-0.6,0.6c0,0.4,0.4,0.6,0.7,0.6C183.8,166.6,184,166.4,184.1,166.1
			L184.1,166.1z M186.1,166.1c0-0.4-0.3-0.7-0.7-0.7s-0.7,0.3-0.7,0.7s0.3,0.7,0.7,0.7C185.7,166.7,186,166.4,186.1,166.1
			L186.1,166.1z M188.1,166.1c0-0.4-0.3-0.7-0.7-0.7s-0.7,0.3-0.7,0.7s0.3,0.7,0.7,0.7C187.7,166.7,188,166.4,188.1,166.1
			L188.1,166.1z M190.1,166.1c0-0.4-0.3-0.7-0.7-0.7s-0.7,0.3-0.7,0.7s0.3,0.7,0.7,0.7l0,0C189.7,166.7,190,166.4,190.1,166.1
			L190.1,166.1z M192.1,166.1c0-0.4-0.3-0.7-0.7-0.7s-0.7,0.3-0.7,0.7s0.3,0.7,0.7,0.7C191.7,166.7,192,166.4,192.1,166.1
			L192.1,166.1z M188.9,173.7c0-0.4-0.3-0.7-0.7-0.7s-0.7,0.3-0.7,0.7s0.3,0.7,0.7,0.7l0,0l0,0C188.5,174.3,188.8,174.1,188.9,173.7
			L188.9,173.7z M190.9,173.7c0-0.4-0.3-0.7-0.7-0.7s-0.7,0.3-0.7,0.7s0.3,0.7,0.7,0.7C190.6,174.3,190.9,174,190.9,173.7
			L190.9,173.7z M192.9,173.7c0-0.4-0.3-0.7-0.7-0.6l0,0c-0.4,0-0.7,0.3-0.7,0.6l0,0c0,0.4,0.3,0.7,0.7,0.6c0.3-0.1,0.5-0.4,0.5-0.7
			L192.9,173.7L192.9,173.7z M194.9,173.7c0-0.4-0.3-0.7-0.7-0.7s-0.7,0.3-0.7,0.7s0.3,0.7,0.7,0.7l0,0l0,0c0.3-0.1,0.5-0.4,0.5-0.7
			H194.9z M196.9,173.7c0-0.4-0.3-0.7-0.7-0.7s-0.7,0.3-0.7,0.7s0.3,0.7,0.7,0.7C196.6,174.3,196.9,174,196.9,173.7L196.9,173.7z
			 M198.9,173.7c0-0.4-0.3-0.7-0.7-0.6l0,0c-0.4,0-0.7,0.3-0.7,0.6l0,0c0,0.4,0.3,0.7,0.7,0.6c0.3-0.1,0.5-0.4,0.5-0.7L198.9,173.7
			L198.9,173.7z M189,179.1c0-0.4-0.3-0.7-0.7-0.7s-0.7,0.3-0.7,0.7s0.3,0.7,0.7,0.7l0,0c0.3-0.1,0.5-0.4,0.5-0.7H189z M191,179.1
			c0-0.4-0.3-0.7-0.7-0.7s-0.7,0.3-0.7,0.7s0.3,0.7,0.7,0.7c0.3-0.1,0.5-0.4,0.5-0.7H191z M193,179.1c0-0.4-0.3-0.7-0.7-0.7
			s-0.7,0.3-0.7,0.7s0.3,0.7,0.7,0.7S193,179.5,193,179.1L193,179.1z M195,179.1c0-0.4-0.3-0.7-0.7-0.7s-0.7,0.3-0.7,0.7
			s0.3,0.7,0.7,0.7l0,0c0.3-0.1,0.5-0.4,0.4-0.7H195z M197,179.1c0-0.4-0.3-0.7-0.7-0.7s-0.7,0.3-0.7,0.7s0.3,0.7,0.7,0.7
			c0.3-0.1,0.4-0.4,0.4-0.7H197z M199,179.1c0-0.4-0.3-0.7-0.7-0.7s-0.7,0.3-0.7,0.7s0.3,0.7,0.7,0.7S199,179.5,199,179.1L199,179.1
			z"/>
		<path class="st8" d="M170.1,183.1h-2.3c-0.3,0-0.6-0.3-0.6-0.6s0.2-0.6,0.5-0.6l0,0h2.3c0.3,0,0.6,0.2,0.6,0.5l0,0l0,0
			C170.6,182.8,170.4,183,170.1,183.1L170.1,183.1z M170.7,185.1c0-0.3-0.2-0.6-0.6-0.6l0,0h-2.3c-0.3,0-0.6,0.2-0.6,0.5l0,0
			c0,0.3,0.2,0.6,0.5,0.6h2.5C170.4,185.7,170.6,185.4,170.7,185.1L170.7,185.1z M170.7,187.8c0-0.3-0.3-0.6-0.6-0.6l0,0h-2.3
			c-0.3,0-0.6,0.2-0.6,0.5l0,0c0,0.3,0.2,0.6,0.5,0.6h2.5C170.4,188.3,170.6,188.1,170.7,187.8L170.7,187.8z M170.7,190.4
			c0-0.3-0.3-0.6-0.6-0.6l0,0h-2.3c-0.3,0-0.6,0.3-0.6,0.6s0.3,0.6,0.6,0.6l0,0h2.3C170.4,191,170.6,190.7,170.7,190.4L170.7,190.4z
			 M170.7,193.1c0-0.3-0.3-0.6-0.6-0.6l0,0h-2.3c-0.3,0-0.6,0.3-0.6,0.6s0.3,0.6,0.6,0.6l0,0h2.3
			C170.4,193.6,170.6,193.4,170.7,193.1L170.7,193.1z M170.7,195.7c0-0.3-0.2-0.6-0.5-0.6l0,0h-2.3c-0.3,0-0.6,0.2-0.6,0.5l0,0
			c0,0.3,0.3,0.6,0.6,0.6l0,0h2.3C170.4,196.3,170.6,196,170.7,195.7L170.7,195.7L170.7,195.7z M170.7,198.4c0-0.3-0.2-0.6-0.5-0.6
			l0,0h-2.3c-0.3,0-0.6,0.2-0.6,0.5l0,0c0,0.3,0.3,0.6,0.6,0.6l0,0h2.3C170.4,198.9,170.6,198.7,170.7,198.4L170.7,198.4
			L170.7,198.4z M170.7,201c0-0.3-0.2-0.6-0.5-0.6l0,0h-2.3c-0.3,0-0.6,0.2-0.6,0.5l0,0l0,0c0,0.3,0.3,0.6,0.6,0.6h2.3
			C170.4,201.6,170.6,201.3,170.7,201L170.7,201z M179.3,182.5c0-0.3-0.2-0.6-0.5-0.6l0,0h-6.1c-0.3,0-0.6,0.2-0.6,0.5l0,0l0,0
			c0,0.3,0.3,0.6,0.6,0.6l0,0h6.1C179,183,179.3,182.8,179.3,182.5L179.3,182.5z M179.3,185.1c0-0.3-0.2-0.6-0.6-0.6l0,0h-6.1
			c-0.3,0-0.5,0.3-0.5,0.6s0.2,0.5,0.5,0.5h6.1C179,185.7,179.3,185.4,179.3,185.1L179.3,185.1z M179.3,187.8c0-0.3-0.3-0.6-0.6-0.6
			l0,0h-6.1c-0.3,0-0.5,0.3-0.5,0.6s0.2,0.5,0.5,0.5h6.1C179,188.3,179.3,188.1,179.3,187.8L179.3,187.8z M179.3,190.4
			c0-0.3-0.3-0.6-0.6-0.6l0,0h-6.1c-0.3,0-0.6,0.2-0.6,0.5l0,0l0,0c0,0.3,0.2,0.6,0.5,0.6l0,0h6.1C179,191,179.3,190.7,179.3,190.4
			L179.3,190.4z M179.3,193.1c0-0.3-0.3-0.6-0.6-0.6l0,0h-6.1c-0.3,0-0.6,0.2-0.6,0.5l0,0l0,0c0,0.3,0.2,0.6,0.5,0.6l0,0h6.1
			C179,193.6,179.3,193.4,179.3,193.1L179.3,193.1z M186.6,195.7c0-0.3-0.3-0.6-0.6-0.6l0,0h-6.1c-0.3,0-0.6,0.2-0.6,0.5l0,0
			c0,0.3,0.3,0.6,0.6,0.6l0,0h6.1C186.3,196.3,186.6,196.1,186.6,195.7L186.6,195.7L186.6,195.7z M186.6,198.4
			c0-0.3-0.3-0.6-0.6-0.6l0,0h-6.1c-0.3,0-0.6,0.2-0.6,0.5l0,0c0,0.3,0.3,0.6,0.6,0.6l0,0h6.1C186.3,199,186.6,198.7,186.6,198.4
			L186.6,198.4L186.6,198.4z M186.6,201c0-0.3-0.3-0.6-0.6-0.6l0,0h-6.1c-0.3,0-0.6,0.2-0.6,0.5l0,0l0,0c0,0.3,0.3,0.6,0.6,0.6h6.1
			C186.3,201.6,186.6,201.4,186.6,201L186.6,201L186.6,201L186.6,201z M182,182.5c0-0.4-0.3-0.7-0.7-0.7s-0.7,0.3-0.7,0.7
			s0.3,0.7,0.7,0.7S182,182.9,182,182.5L182,182.5L182,182.5z M184,182.5c0-0.4-0.4-0.6-0.7-0.6s-0.5,0.3-0.6,0.6
			c0,0.4,0.4,0.6,0.7,0.6C183.7,183,184,182.8,184,182.5z M186,182.5c0-0.4-0.3-0.7-0.7-0.7s-0.7,0.3-0.7,0.7s0.3,0.7,0.7,0.7
			S186,182.8,186,182.5L186,182.5z M188,182.5c0-0.4-0.3-0.7-0.7-0.7s-0.7,0.3-0.7,0.7s0.3,0.7,0.7,0.7S188,182.8,188,182.5
			L188,182.5z M190,182.5c0-0.4-0.3-0.7-0.7-0.7s-0.7,0.3-0.7,0.7s0.3,0.7,0.7,0.7l0,0C189.7,183.1,190,182.8,190,182.5L190,182.5z
			 M192,182.5c0-0.4-0.3-0.7-0.7-0.7s-0.7,0.3-0.7,0.7s0.3,0.7,0.7,0.7S192,182.8,192,182.5L192,182.5z M182,187.8
			c0-0.4-0.3-0.7-0.7-0.6l0,0c-0.4,0-0.7,0.3-0.7,0.6l0,0c0,0.4,0.3,0.7,0.7,0.6C181.7,188.4,182,188.1,182,187.8L182,187.8z
			 M184,187.8c0-0.4-0.3-0.7-0.7-0.7s-0.7,0.3-0.7,0.7s0.3,0.7,0.7,0.7l0,0l0,0C183.7,188.4,183.9,188.1,184,187.8L184,187.8z
			 M186,187.8c0-0.4-0.3-0.7-0.7-0.7s-0.7,0.3-0.7,0.7s0.3,0.7,0.7,0.7S186,188.1,186,187.8L186,187.8z M188,187.8
			c0-0.4-0.3-0.7-0.7-0.6l0,0c-0.4,0-0.7,0.3-0.7,0.6l0,0c0,0.4,0.3,0.7,0.7,0.6C187.7,188.4,187.9,188.1,188,187.8L188,187.8z
			 M190,187.8c0-0.4-0.3-0.7-0.7-0.7s-0.7,0.3-0.7,0.7s0.3,0.7,0.7,0.7l0,0C189.7,188.4,189.9,188.1,190,187.8L190,187.8z
			 M192,187.8c0-0.4-0.3-0.7-0.7-0.7s-0.7,0.3-0.7,0.7s0.3,0.7,0.7,0.7S192,188.1,192,187.8L192,187.8z M188.9,195.4
			c0-0.4-0.3-0.7-0.7-0.7s-0.7,0.3-0.7,0.7s0.3,0.7,0.7,0.7l0,0C188.5,196,188.8,195.8,188.9,195.4L188.9,195.4z M190.9,195.4
			c0.3,0,0.6,0.3,0.5,0.7s-0.3,0.6-0.7,0.5c-0.3,0-0.6-0.3-0.5-0.7c0-0.3,0.3-0.5,0.5-0.5H190.9z M192.9,195.4
			c0-0.4-0.3-0.7-0.7-0.7s-0.7,0.3-0.7,0.7s0.3,0.7,0.7,0.7c0.3-0.1,0.5-0.3,0.5-0.7H192.9z M194.9,195.4c0-0.4-0.3-0.7-0.7-0.7
			s-0.7,0.3-0.7,0.7s0.3,0.7,0.7,0.7l0,0c0.3-0.1,0.5-0.3,0.5-0.7H194.9z M196.9,195.4c0.3,0,0.5,0.3,0.5,0.7c0,0.3-0.3,0.5-0.7,0.5
			c-0.3,0-0.5-0.3-0.5-0.7c0-0.3,0.2-0.5,0.5-0.5H196.9z M198.9,195.4c0-0.4-0.3-0.7-0.7-0.7s-0.7,0.3-0.7,0.7s0.3,0.7,0.7,0.7
			c0.3-0.1,0.5-0.4,0.5-0.7H198.9z M189,200.9c0-0.4-0.3-0.7-0.7-0.7s-0.7,0.3-0.7,0.7s0.3,0.7,0.7,0.7l0,0c0.3-0.1,0.5-0.4,0.5-0.7
			H189z M191,200.9c0-0.4-0.3-0.7-0.7-0.7s-0.7,0.3-0.7,0.7s0.3,0.7,0.7,0.7c0.3-0.1,0.5-0.4,0.5-0.7H191z M193,200.9
			c0-0.4-0.3-0.7-0.7-0.7s-0.7,0.3-0.7,0.7s0.3,0.7,0.7,0.7S193,201.2,193,200.9L193,200.9z M195,200.9c0-0.4-0.3-0.7-0.7-0.7
			s-0.7,0.3-0.7,0.7s0.3,0.7,0.7,0.7l0,0c0.3-0.1,0.5-0.4,0.4-0.7H195z M197,200.9c0-0.4-0.3-0.7-0.7-0.7s-0.7,0.3-0.7,0.7
			s0.3,0.7,0.7,0.7c0.3-0.1,0.4-0.4,0.4-0.7H197z M199,200.9c0-0.4-0.3-0.7-0.7-0.7s-0.7,0.3-0.7,0.7s0.3,0.7,0.7,0.7
			S199,201.2,199,200.9L199,200.9z"/>
	</g>
	<g id="freepik--Character--inject-2">
		<path class="st6" d="M166.9,130.6c-0.3,3.8-2.1,6.7-4,6.6s-3.2-3.3-3-7.1s2.1-6.7,4-6.6S167.2,126.8,166.9,130.6z"/>
		<path class="st0" d="M164,111.1c0,0,0.4,7-0.8,10.3s-2.7,5.4-2.7,7c0,1.6,2.5,3.5,2.5,6.6s-5.6,18-7.2,20.9s-1,3.9-2.9,4.1
			s-6.8-2.1-6.8-2.1s-2.9,0.4-3.3,1.5s-1.4,5.2-1.4,5.2L113.3,152c2.6-2.9,4.6-6.2,5.8-9.9c1.7-5.6-1-14.3-1-14.3
			s-2.7-20.3,9.7-26.1s30.4-2.1,33.3,0.8S164,111.1,164,111.1z"/>
		<g>
			<g>
				<defs>
					<path id="SVGID_1_" d="M164,111.1c0,0,0.4,7-0.8,10.3s-2.7,5.4-2.7,7c0,1.6,2.5,3.5,2.5,6.6s-5.6,18-7.2,20.9s-1,3.9-2.9,4.1
						s-6.8-2.1-6.8-2.1s-2.9,0.4-3.3,1.5s-1.4,5.2-1.4,5.2L113.3,152c2.6-2.9,4.6-6.2,5.8-9.9c1.7-5.6-1-14.3-1-14.3
						s-2.7-20.3,9.7-26.1s30.4-2.1,33.3,0.8S164,111.1,164,111.1z"/>
				</defs>
				<clipPath id="SVGID_2_">
					<use xlink:href="#SVGID_1_"  style="overflow:visible;"/>
				</clipPath>
				<g class="st10">
					<path class="st11" d="M146,143.2c0.4-9-2.1-20.5-2.1-20.5s0.3-2.8-4.9-11.5c-2.1-3.9-4.5-7.6-7-11.2c-1.4,0.4-2.8,0.9-4.1,1.5
						c-12.4,5.8-9.7,26.1-9.7,26.1s2.7,8.7,1,14.3c-1.2,3.7-3.2,7-5.8,9.9l16.4,7.4l13.1-1.8c0,0,0.7,0.3,1.7,0.7
						c0.6-0.2,1.1-0.3,1.7-0.4c0,0,4.8,2.3,6.8,2.1C154.3,158.3,145.6,152.3,146,143.2z"/>
					<path class="st11" d="M148.4,113.4l6.9-0.3c0,0-4.2,4.5,0.7,4.5s8-1.2,8-3.8s2.4-6.6-6.9-6.6S145.6,110.9,148.4,113.4z"/>
				</g>
			</g>
		</g>
		<path class="st6" d="M164,111.1c0,0,0.4,7-0.8,10.3s-2.7,5.4-2.7,7c0,1.6,2.5,3.5,2.5,6.6s-5.6,18-7.2,20.9s-1,3.9-2.9,4.1
			s-6.8-2.1-6.8-2.1s-2.9,0.4-3.3,1.5s-1.4,5.2-1.4,5.2L113.3,152c2.6-2.9,4.6-6.2,5.8-9.9c1.7-5.6-1-14.3-1-14.3
			s-2.7-20.3,9.7-26.1s30.4-2.1,33.3,0.8S164,111.1,164,111.1z"/>
		<path class="st4" d="M140.6,129.1c0,0,4.6,1.4,5.2,0s-1.2-1.7,1-2.5s7.2-3.9,7.2-7s-5.8-8.3-2.9-9.1s11.8-0.4,11.8-0.4
			s-6.2,2.9-3.1,4.2s10.6-0.4,13.5-4.6s-1.2-11-6.8-14.7s-16.8-6.8-27.9-6.4s-19.2,4.3-21.5,10.6s1.4,28.8,1.6,34.8s3.9,7.7,8.1,7.7
			c4.3,0,7.9-3.7,8.9-7s1.4-6.6,1.9-7.3S140.6,129.1,140.6,129.1z"/>
		<path class="st12" d="M127.8,128.3c-0.7,0.8-1.5,1.5-2.4,2.1"/>
		<path class="st12" d="M172.2,103.3c0,0-1.3,1.9-6.5,3.2s-16.1-4.2-28.1,1.3c-8.1,3.7-6.1,9.4-7.2,15"/>
		<path class="st12" d="M149.6,113c0,0-4.2,0.6-7.4,6.1s-2.9,13.9-12.6,16.5"/>
		<line class="st6" x1="138.9" y1="125.8" x2="166.6" y2="128.7"/>
		<path class="st3" d="M142.8,132c0,0,0.4-6.8-2.1-10.1s-4.6-1-5.8,5.6c-1.2,6.6-1.2,10.1,1.4,11c1.6,0.5,3.4,0.5,5-0.2"/>
		<path class="st4" d="M213.3,307.8c-2.3-2.3-8.5-7.7-16.2-9.6c-9.9-2.4-53.3-7.3-53.3-7.3l-2.1-8.7c0,0-6.1-1.9-7.5-1.9
			s-7.8,2.1-21.9,5.2s-39.5-4.4-39.5-4.4c-4.4,3.6-6.9,9-6.9,14.7c0,6,0.6,11,1.2,12L213.3,307.8z"/>
		<path class="st8" d="M107.5,155.8l-0.7,0.5c-2.7,1.9-12.8,8.8-20.4,14.8c-8.9,7-9.5,19.9-9.9,30s-6.9,72.7-8.4,80.4
			s12.3,9.7,25.7,11.7s30.6-0.2,38.9-4.1s10.3-3.7,10.3-7.9s0.2-13.9,0.2-14.7s6-48.2,5.6-62.1s0.8-21.5-2.5-28.4
			s-11.6-12.4-22.6-16.1S107.5,155.8,107.5,155.8z"/>
		<g>
			<g>
				<defs>
					<path id="SVGID_3_" d="M107.5,155.8l-0.7,0.5c-2.7,1.9-12.8,8.8-20.4,14.8c-8.9,7-9.5,19.9-9.9,30s-6.9,72.7-8.4,80.4
						s12.3,9.7,25.7,11.7s30.6-0.2,38.9-4.1s10.3-3.7,10.3-7.9s0.2-13.9,0.2-14.7s6-48.2,5.6-62.1s0.8-21.5-2.5-28.4
						s-11.6-12.4-22.6-16.1S107.5,155.8,107.5,155.8z"/>
				</defs>
				<clipPath id="SVGID_4_">
					<use xlink:href="#SVGID_3_"  style="overflow:visible;"/>
				</clipPath>
				<g class="st13">
					<path class="st11" d="M139.9,183.9c-3.3-6.6-13.8-18.6-13.8-18.6s8-2.4-19.3-9l0,0c-2.7,1.9-12.8,8.8-20.4,14.8
						c-8.9,7-9.5,19.9-9.9,30s-6.9,72.7-8.4,80.4s12.3,9.7,25.7,11.7c3.5,0.5,7.1,0.7,10.7,0.7l38.9-31.9l0.2,0.3
						c1-8.9,3.6-30.2,4.6-45.3C145.4,203.9,142.2,188.5,139.9,183.9z"/>
					<path class="st6" d="M94.4,196c0,0,1.8,17.2,10.1,28.1"/>
					<path class="st6" d="M119.3,224.7c0,0,1.8,4.1,10.7,11"/>
					<path class="st6" d="M112.2,237.2c0,0,9.5,3.3,18.6,1.5"/>
					<path class="st6" d="M109.2,293.7c0,0,19.6-10.1,27.2-19.9"/>
				</g>
			</g>
		</g>
		<path class="st6" d="M107.5,155.8l-0.7,0.5c-2.7,1.9-12.8,8.8-20.4,14.8c-8.9,7-9.5,19.9-9.9,30s-6.9,72.7-8.4,80.4
			s12.3,9.7,25.7,11.7s30.6-0.2,38.9-4.1s10.3-3.7,10.3-7.9s0.2-13.9,0.2-14.7s6-48.2,5.6-62.1s0.8-21.5-2.5-28.4
			s-11.6-12.4-22.6-16.1S107.5,155.8,107.5,155.8z"/>
		<path class="st8" d="M109.5,149.2l-5.2,8.7c0,0,15.7,3.7,23.8,7s19,12,19,12s-1.7-9.9-3.3-12.4s-17.6-11-24.2-13.6
			S109.5,149.2,109.5,149.2z"/>
		<g>
			<g>
				<defs>
					<path id="SVGID_5_" d="M109.5,149.2l-5.2,8.7c0,0,15.7,3.7,23.8,7s19,12,19,12s-1.7-9.9-3.3-12.4s-17.6-11-24.2-13.6
						S109.5,149.2,109.5,149.2z"/>
				</defs>
				<clipPath id="SVGID_6_">
					<use xlink:href="#SVGID_5_"  style="overflow:visible;"/>
				</clipPath>
				<g class="st14">
					<path class="st11" d="M133.6,167.7c0.7-0.2,1.3-0.9,1.4-1.6c0.6-4.6-7.2-11.2-7.6-11.5c-3.1-1.5-5.9-2.8-7.9-3.6
						c-6.6-2.5-10.1-1.7-10.1-1.7l-5.2,8.7c0,0,15.7,3.7,23.8,7C130,165.7,131.8,166.7,133.6,167.7z"/>
				</g>
			</g>
		</g>
		<path class="st6" d="M109.5,149.2l-5.2,8.7c0,0,15.7,3.7,23.8,7s19,12,19,12s-1.7-9.9-3.3-12.4s-17.6-11-24.2-13.6
			S109.5,149.2,109.5,149.2z"/>
		<path class="st3" d="M202.5,258.8c0,0,5-4.3,7.4-8.5s3.9-5.4,5.6-5c1,0.2,2,0.4,3.1,0.4c0,0,6.2-3.7,8.1-4.1s5.8,4.2,5.8,4.2
			s6.6,5,5.8,6.2s-1.9,0.6-2.7,0.6s-2.5-1.4-3.5-1s-5.2,3.1-5.2,3.1s5,0,6.4,0.6s6.4,5,5.4,5.6s-1,0.8-2.1,0.6
			c-1.4-0.5-2.7-1.1-3.9-1.9l-5.2,1c0,0,3.1,3.3,4.1,4.1s4.6,1.9,3.1,2.9s-2.7,0.6-4.6-0.8s-6.2-3.5-7-3.5s-2.9,2.7-6.4,3.9
			c-2.8,0.8-5.8,1.1-8.7,1.2l-1,1l-5.8-7l-1.2-1L202.5,258.8z"/>
		<path class="st6" d="M232.5,245.8c0,0-1.7-1-2.9-0.4s-8.5,4.8-8.5,4.8"/>
		<line class="st6" x1="218.6" y1="245.6" x2="215.1" y2="247.9"/>
		<path class="st3" d="M167.7,261.8c0,0,12.8-0.2,14.7-1.4s6.6-4.5,6.8-5.8s-1-2.1-2.9-1.4s-7,2.7-7.7,2.7c-1.4-0.3-2.7-0.7-4.1-1.2
			c2.5-2.3,5.2-4.4,7.9-6.4c1.9-1.1,4.3-1.1,6.2,0c1.4,0.8,3.5-1.7,1.7-3.1c-1.7-1.4-3.9-2.2-6.2-2.1c-0.9,0-1.8,0.2-2.7,0.6
			c0,0-2.1-3.5-3.7-3.1c-1,0.3-1.9,0.8-2.7,1.6c-1.1-0.6-2.4-0.5-3.5,0.2c-1.7,1.2-3.5,1.6-5.4,3.1s-7.6,5.2-8.3,6.6
			S167.7,261.8,167.7,261.8z"/>
		<line class="st6" x1="181.4" y1="243.9" x2="176" y2="246.9"/>
		<line class="st6" x1="175.1" y1="242.3" x2="171.2" y2="245"/>
		<path class="st8" d="M130.8,195.7c0,0-5.4,7.4-7.2,13.2s0.4,14.1,1,16.1s31.5,62.9,34.8,68.9s7,6.4,9.7,5.4s33.9-23.2,35-24.4
			s6.4-5.6,6.4-5.6s1-6.2-3.3-9.5s-6.4-1.5-6.4-1.5l-27.1,7.4c0,0-15.3-52.6-17-62.7s1-9.5-4.4-14.9c-3.7-3.6-7.7-6.7-12-9.5"/>
		<g>
			<g>
				<defs>
					<path id="SVGID_7_" d="M130.8,195.7c0,0-5.4,7.4-7.2,13.2s0.4,14.1,1,16.1s31.5,62.9,34.8,68.9s7,6.4,9.7,5.4
						s33.9-23.2,35-24.4s6.4-5.6,6.4-5.6s1-6.2-3.3-9.5s-6.4-1.5-6.4-1.5l-27.1,7.4c0,0-15.3-52.6-17-62.7s1-9.5-4.4-14.9
						c-3.7-3.6-7.7-6.7-12-9.5"/>
				</defs>
				<clipPath id="SVGID_8_">
					<use xlink:href="#SVGID_7_"  style="overflow:visible;"/>
				</clipPath>
				<g class="st15">
					<path class="st11" d="M204.1,274.8c1.2-1.2,6.4-5.6,6.4-5.6c0.2-1.5,0.1-3-0.2-4.5c-10.9,4.3-33.2,13.2-34.5,14.5
						c-1.7,1.7-0.9-1.3-0.9-4.8s-5.2,6-6,8.2s-2.8-6.1-3.5-9.5s-10.8-29.4-13.8-41.4s-8.4-41.3-11.6-47.9c-0.6-1.2-1.3-2.3-2-3.3
						l-8.2,14.6c0,0-4.4,7.9-6.2,13.7s0.4,14.1,1,16.1c0.3,1.1,9.6,19.6,18.6,37.2l0.2-0.2c0,0,16.4,41.5,24.5,37.5
						C175.7,294.5,203.1,275.8,204.1,274.8z"/>
				</g>
			</g>
		</g>
		<path class="st6" d="M130.8,195.7c0,0-5.4,7.4-7.2,13.2s0.4,14.1,1,16.1s31.5,62.9,34.8,68.9s7,6.4,9.7,5.4s33.9-23.2,35-24.4
			s6.4-5.6,6.4-5.6s1-6.2-3.3-9.5s-6.4-1.5-6.4-1.5l-27.1,7.4c0,0-15.3-52.6-17-62.7s1-9.5-4.4-14.9c-3.7-3.6-7.7-6.7-12-9.5"/>
		<path class="st6" d="M197.1,259.9c0,0,8.8,1.1,9.3,12.8"/>
	</g>
	<g id="freepik--Chair--inject-2">
		<path class="st3" d="M102.8,307.8h4.5c-6.9-12.8-44.8-83.7-46.1-86.9c-1.4-3.5-3.5-3.5-4.2-5s0.2-7.5,0-11.6S43.8,163.1,40.2,157
			s-9-5.4-9-5.4l-1.4,3.8l22.4,61.1L102.8,307.8z"/>
		<path class="st4" d="M15,220.2c9.3,21.5,35.7,81.7,37.9,87.6h49.8c-5.8-10.5-40.6-73.4-48-93.3c-8-21.7-20.5-60.4-23.6-63
			s-18.4-2.6-24.5-0.7s-6.4,2.6-6.1,6.6S5.7,198.8,15,220.2z"/>
		<line class="st6" x1="32.8" y1="307.8" x2="393.5" y2="307.8"/>
	</g>
</g>
</svg>
