<svg id="Layer_1" data-name="Layer 1" xmlns="http://www.w3.org/2000/svg" xmlns:xlink="http://www.w3.org/1999/xlink" viewBox="0 0 510.55 224.46"><defs><style>.cls-1{fill:#ba8096;}.cls-2{fill:#575756;}.cls-3{opacity:0.53;}.cls-4{opacity:0.36;}.cls-5{clip-path:url(#clip-path);}.cls-6{fill:#c5c5c5;}.cls-7{clip-path:url(#clip-path-2);}</style><clipPath id="clip-path" transform="translate(61.74 34.35)"><path class="cls-1" d="M239.46,90.61H133.32a.53.53,0,0,1-.53-.53V57.47a.53.53,0,0,1,.53-.53H239.46a.53.53,0,0,1,.47.28l8.74,16.52a.55.55,0,0,1,0,.5l-8.74,16.09A.54.54,0,0,1,239.46,90.61Zm-105.62-1H239.15L247.61,74l-8.46-16H133.84Z"/></clipPath><clipPath id="clip-path-2" transform="translate(61.74 34.35)"><path class="cls-2" d="M239.46,161.79H91.06a.27.27,0,0,1-.27-.27V128.91a.27.27,0,0,1,.27-.27h148.4a.25.25,0,0,1,.24.14l8.74,16.52a.23.23,0,0,1,0,.25l-8.74,16.1A.26.26,0,0,1,239.46,161.79Zm-148.12-.54h148l8.6-15.83-8.6-16.24h-148Z"/></clipPath></defs><path class="cls-1" d="M11.45,15.67a4.53,4.53,0,0,1-3.09.85H3.5V0H8.08a5.1,5.1,0,0,1,3.21.86,3.39,3.39,0,0,1,1.09,2.82v9.11A3.74,3.74,0,0,1,11.45,15.67ZM9.85,2.23A1.69,1.69,0,0,0,8.6,1.77h-3v13h3a1.82,1.82,0,0,0,1.32-.41A1.76,1.76,0,0,0,10.32,13V3.47A1.64,1.64,0,0,0,9.85,2.23Z" transform="translate(61.74 34.35)"/><path class="cls-1" d="M18.4,12.35l-.92,4.17h-2.1L19.37,0h2.71L26,16.52H23.9L23,12.35Zm4.22-1.77-1.93-9-1.92,9Z" transform="translate(61.74 34.35)"/><path class="cls-1" d="M32.4,16.52V1.79H28.64V0H38.2V1.79H34.45V16.52Z" transform="translate(61.74 34.35)"/><path class="cls-1" d="M43.89,12.35,43,16.52h-2.1L44.86,0h2.71l3.92,16.52h-2.1l-.89-4.17Zm4.23-1.77-1.94-9-1.91,9Z" transform="translate(61.74 34.35)"/><path class="cls-1" d="M69.39,12.35l-.92,4.17H66.36L70.35,0h2.72L77,16.52h-2.1L74,12.35Zm4.22-1.77-1.93-9-1.92,9Z" transform="translate(61.74 34.35)"/><path class="cls-1" d="M87.32,15.52a4.54,4.54,0,0,1-3.16,1H80.81V14.73H84.4a2,2,0,0,0,1.42-.52A1.66,1.66,0,0,0,86.36,13V10.51A1.69,1.69,0,0,0,86,9.36a1.34,1.34,0,0,0-1.09-.44h-.71a3.7,3.7,0,0,1-2.76-1,4.07,4.07,0,0,1-1-3V4a3.9,3.9,0,0,1,1.1-3,4.5,4.5,0,0,1,3.15-1H88V1.79H84.42A2,2,0,0,0,83,2.31a1.7,1.7,0,0,0-.55,1.25v1.8a1.64,1.64,0,0,0,.48,1.21,1.6,1.6,0,0,0,1.22.49h.71a3.43,3.43,0,0,1,2.61,1A4.06,4.06,0,0,1,88.41,11v1.56A3.88,3.88,0,0,1,87.32,15.52Z" transform="translate(61.74 34.35)"/><path class="cls-1" d="M98.12,11h-2L93.84,1.7V16.52H92.05V0h3.28l1.89,8.45L99.13,0h3.19V16.52h-1.84V1.7Z" transform="translate(61.74 34.35)"/><path class="cls-1" d="M296.83,36.58H157.47a.51.51,0,0,1-.37-.15L143.58,22.91H71.66a.53.53,0,0,1,0-1.06h72.13a.55.55,0,0,1,.38.16l13.52,13.52H296.83a.53.53,0,0,1,.53.53A.52.52,0,0,1,296.83,36.58Z" transform="translate(61.74 34.35)"/><path class="cls-1" d="M295.5,34.12a2.16,2.16,0,1,1-2.16,2.16A2.16,2.16,0,0,1,295.5,34.12Z" transform="translate(61.74 34.35)"/><path class="cls-1" d="M8.05,33.45a3.15,3.15,0,0,1-2.21.7H3.5V32.9H6a1.38,1.38,0,0,0,1-.37,1.17,1.17,0,0,0,.38-.87V29.94a1.15,1.15,0,0,0-.26-.8.91.91,0,0,0-.76-.31h-.5a2.59,2.59,0,0,1-1.93-.72A2.82,2.82,0,0,1,3.22,26v-.63A2.68,2.68,0,0,1,4,23.29a3.13,3.13,0,0,1,2.2-.7H8.55v1.25H6a1.37,1.37,0,0,0-1,.37,1.16,1.16,0,0,0-.37.87v1.26a1.14,1.14,0,0,0,.33.85,1.15,1.15,0,0,0,.85.34h.5a2.44,2.44,0,0,1,1.83.67,2.9,2.9,0,0,1,.65,2.05v1.09A2.73,2.73,0,0,1,8.05,33.45Z" transform="translate(61.74 34.35)"/><path class="cls-1" d="M14.22,34.15V23.84H11.59V22.59h6.69v1.25H15.66V34.15Z" transform="translate(61.74 34.35)"/><path class="cls-1" d="M22.27,31.23l-.65,2.92H20.15l2.79-11.56h1.9l2.75,11.56H26.12l-.63-2.92ZM25.22,30l-1.35-6.31L22.53,30Z" transform="translate(61.74 34.35)"/><path class="cls-1" d="M30.92,29.36v4.79H29.49V22.59h3.1a3.12,3.12,0,0,1,2.12.62,2.43,2.43,0,0,1,.72,1.95v1.59A2.15,2.15,0,0,1,34,29.08l2.29,5.07H34.67l-2.13-4.79Zm2.79-5.25a1.28,1.28,0,0,0-.92-.28H30.92v4.29h1.87a1.28,1.28,0,0,0,.92-.29,1.27,1.27,0,0,0,.29-.92V25A1.21,1.21,0,0,0,33.71,24.11Z" transform="translate(61.74 34.35)"/><path class="cls-1" d="M41,34.15V23.84H38.36V22.59h6.69v1.25H42.42V34.15Z" transform="translate(61.74 34.35)"/><g class="cls-3"><path class="cls-1" d="M97.94,29.25h-26a.52.52,0,0,1-.53-.52.53.53,0,0,1,.53-.53h26a.52.52,0,0,1,.52.53A.52.52,0,0,1,97.94,29.25Z" transform="translate(61.74 34.35)"/><path class="cls-1" d="M89.19,33.78H71.94a.53.53,0,0,1-.53-.53.52.52,0,0,1,.53-.52H89.19a.52.52,0,0,1,.52.52A.52.52,0,0,1,89.19,33.78Z" transform="translate(61.74 34.35)"/></g><path class="cls-2" d="M146.75,43.64H.53A.53.53,0,0,1,0,43.11a.52.52,0,0,1,.53-.52H146.75a.52.52,0,0,1,.53.52A.53.53,0,0,1,146.75,43.64Z" transform="translate(61.74 34.35)"/><path class="cls-1" d="M297.59,43.64H151.36a.52.52,0,0,1-.52-.53.52.52,0,0,1,.52-.52H297.59a.52.52,0,0,1,.52.52A.52.52,0,0,1,297.59,43.64Z" transform="translate(61.74 34.35)"/><g class="cls-4"><path class="cls-1" d="M448.29,43.64H302.06a.52.52,0,0,1-.52-.53.52.52,0,0,1,.52-.52H448.29a.52.52,0,0,1,.52.52A.52.52,0,0,1,448.29,43.64Z" transform="translate(61.74 34.35)"/></g><path class="cls-2" d="M106.67,90.61H.53A.53.53,0,0,1,0,90.08V57.47a.53.53,0,0,1,.53-.53H106.67a.53.53,0,0,1,.47.28l8.74,16.52a.52.52,0,0,1,0,.5l-8.73,16.09A.54.54,0,0,1,106.67,90.61Zm-105.62-1H106.36L114.81,74l-8.45-16H1.05Z" transform="translate(61.74 34.35)"/><path class="cls-2" d="M13.66,79.33a3.41,3.41,0,0,1-2.33.65H7.64V67.44h3.47a3.84,3.84,0,0,1,2.44.66,2.56,2.56,0,0,1,.82,2.14v6.91A2.82,2.82,0,0,1,13.66,79.33Zm-1.2-10.19a1.28,1.28,0,0,0-1-.35H9.2v9.84h2.29a1.38,1.38,0,0,0,1-.31,1.31,1.31,0,0,0,.32-1V70.08A1.27,1.27,0,0,0,12.46,69.14Z" transform="translate(61.74 34.35)"/><path class="cls-2" d="M18.94,76.81,18.24,80H16.65l3-12.54h2.06L24.7,80H23.11l-.68-3.17Zm3.2-1.35-1.47-6.83-1.45,6.83Z" transform="translate(61.74 34.35)"/><path class="cls-2" d="M29.55,80V68.8H26.71V67.44H34V68.8H31.11V80Z" transform="translate(61.74 34.35)"/><path class="cls-2" d="M38.27,76.81,37.58,80H36l3-12.54h2.06L44,80H42.45l-.69-3.17Zm3.21-1.35L40,68.63l-1.45,6.83Z" transform="translate(61.74 34.35)"/><path class="cls-2" d="M59.26,74.32q.57-.82.78-1.17a2.3,2.3,0,0,0,.27-.71,5.39,5.39,0,0,0,.08-1V70.15a1.25,1.25,0,0,0-.42-1,1.49,1.49,0,0,0-1.07-.4H56.75V67.44h2a3.44,3.44,0,0,1,2.39.76,2.94,2.94,0,0,1,.83,2.29v.75a7.07,7.07,0,0,1-.12,1.45,4.17,4.17,0,0,1-.36,1,13.37,13.37,0,0,1-.77,1.2L58,78.62H62.3V80H56.39V78.4Z" transform="translate(61.74 34.35)"/><path class="cls-2" d="M68.53,78.63V68.86L66,69.79V68.34l2.34-.9h1.7V78.63h2V80H66.19V78.63Z" transform="translate(61.74 34.35)"/><path class="cls-2" d="M126.76,73.78a2.88,2.88,0,1,0-2.88,2.87A2.88,2.88,0,0,0,126.76,73.78Z" transform="translate(61.74 34.35)"/><path class="cls-1" d="M239.46,90.61H133.32a.53.53,0,0,1-.53-.53V57.47a.53.53,0,0,1,.53-.53H239.46a.53.53,0,0,1,.47.28l8.74,16.52a.55.55,0,0,1,0,.5l-8.74,16.09A.54.54,0,0,1,239.46,90.61Zm-105.62-1H239.15L247.61,74l-8.46-16H133.84Z" transform="translate(61.74 34.35)"/><g class="cls-5"><path class="cls-1" d="M-61.21,118.68a.5.5,0,0,1-.37-.16.51.51,0,0,1,0-.74L90.53-34.2a.53.53,0,0,1,.74,0,.53.53,0,0,1,0,.75l-152.11,152A.49.49,0,0,1-61.21,118.68Z" transform="translate(61.74 34.35)"/><path class="cls-1" d="M-55.95,118.68a.52.52,0,0,1-.38-.16.53.53,0,0,1,0-.74L95.79-34.2a.53.53,0,0,1,.74,0,.53.53,0,0,1,0,.75l-152.11,152A.52.52,0,0,1-55.95,118.68Z" transform="translate(61.74 34.35)"/><path class="cls-1" d="M-50.58,118.68a.52.52,0,0,1-.38-.16.53.53,0,0,1,0-.74l152.12-152a.53.53,0,0,1,.74,0,.53.53,0,0,1,0,.75l-152.11,152A.5.5,0,0,1-50.58,118.68Z" transform="translate(61.74 34.35)"/><path class="cls-1" d="M-45.42,118.68a.5.5,0,0,1-.37-.16.51.51,0,0,1,0-.74l152.11-152a.53.53,0,0,1,.74,0,.53.53,0,0,1,0,.75L-45,118.52A.5.5,0,0,1-45.42,118.68Z" transform="translate(61.74 34.35)"/><path class="cls-1" d="M-40,118.68a.5.5,0,0,1-.37-.16.51.51,0,0,1,0-.74l152.11-152a.53.53,0,0,1,.74,0,.53.53,0,0,1,0,.75l-152.11,152A.49.49,0,0,1-40,118.68Z" transform="translate(61.74 34.35)"/><path class="cls-1" d="M-34.75,118.68a.5.5,0,0,1-.37-.16.51.51,0,0,1,0-.74L117-34.2a.53.53,0,0,1,.74,0,.53.53,0,0,1,0,.75l-152.11,152A.49.49,0,0,1-34.75,118.68Z" transform="translate(61.74 34.35)"/><path class="cls-1" d="M-29.38,118.68a.5.5,0,0,1-.37-.16.53.53,0,0,1,0-.74l152.11-152a.54.54,0,0,1,.75,0,.53.53,0,0,1,0,.75L-29,118.52A.49.49,0,0,1-29.38,118.68Z" transform="translate(61.74 34.35)"/><path class="cls-1" d="M-24.22,118.68a.5.5,0,0,1-.37-.16.53.53,0,0,1,0-.74l152.11-152a.54.54,0,0,1,.75,0,.54.54,0,0,1,0,.75l-152.11,152A.52.52,0,0,1-24.22,118.68Z" transform="translate(61.74 34.35)"/><path class="cls-1" d="M-18.85,118.68a.52.52,0,0,1-.37-.16.53.53,0,0,1,0-.74l152.11-152a.54.54,0,0,1,.75,0,.54.54,0,0,1,0,.75l-152.11,152A.52.52,0,0,1-18.85,118.68Z" transform="translate(61.74 34.35)"/><path class="cls-1" d="M-13.59,118.68a.52.52,0,0,1-.38-.16.52.52,0,0,1,0-.74l152.11-152a.53.53,0,0,1,.74,0,.53.53,0,0,1,0,.75l-152.11,152A.5.5,0,0,1-13.59,118.68Z" transform="translate(61.74 34.35)"/><path class="cls-1" d="M-8.22,118.68a.49.49,0,0,1-.37-.16.51.51,0,0,1,0-.74l152.11-152a.53.53,0,0,1,.74,0,.53.53,0,0,1,0,.75l-152.11,152A.5.5,0,0,1-8.22,118.68Z" transform="translate(61.74 34.35)"/><path class="cls-1" d="M-3.06,118.68a.5.5,0,0,1-.37-.16.51.51,0,0,1,0-.74l152.11-152a.53.53,0,0,1,.74,0,.53.53,0,0,1,0,.75l-152.11,152A.5.5,0,0,1-3.06,118.68Z" transform="translate(61.74 34.35)"/><path class="cls-1" d="M2.31,118.68a.49.49,0,0,1-.37-.16.51.51,0,0,1,0-.74l152.11-152a.53.53,0,0,1,.74,0,.53.53,0,0,1,0,.75L2.68,118.52A.5.5,0,0,1,2.31,118.68Z" transform="translate(61.74 34.35)"/><path class="cls-1" d="M7.61,118.68a.5.5,0,0,1-.37-.16.51.51,0,0,1,0-.74l152.11-152a.54.54,0,0,1,.75,0,.53.53,0,0,1,0,.75L8,118.52A.5.5,0,0,1,7.61,118.68Z" transform="translate(61.74 34.35)"/><path class="cls-1" d="M13,118.68a.5.5,0,0,1-.37-.16.53.53,0,0,1,0-.74l152.11-152a.53.53,0,0,1,.74,0,.53.53,0,0,1,0,.75l-152.1,152A.52.52,0,0,1,13,118.68Z" transform="translate(61.74 34.35)"/><path class="cls-1" d="M18.14,118.68a.5.5,0,0,1-.37-.16.53.53,0,0,1,0-.74l152.11-152a.54.54,0,0,1,.75,0,.54.54,0,0,1,0,.75l-152.11,152A.52.52,0,0,1,18.14,118.68Z" transform="translate(61.74 34.35)"/><path class="cls-1" d="M23.52,118.68a.52.52,0,0,1-.38-.16.53.53,0,0,1,0-.74l152.11-152a.54.54,0,0,1,.75,0,.54.54,0,0,1,0,.75l-152.11,152A.52.52,0,0,1,23.52,118.68Z" transform="translate(61.74 34.35)"/><path class="cls-1" d="M28.65,118.68a.52.52,0,0,1-.38-.16.53.53,0,0,1,0-.74l152.12-152a.53.53,0,0,1,.74,0,.53.53,0,0,1,0,.75L29,118.52A.5.5,0,0,1,28.65,118.68Z" transform="translate(61.74 34.35)"/><path class="cls-1" d="M34,118.68a.49.49,0,0,1-.37-.16.51.51,0,0,1,0-.74l152.11-152a.53.53,0,0,1,.74,0,.53.53,0,0,1,0,.75l-152.11,152A.5.5,0,0,1,34,118.68Z" transform="translate(61.74 34.35)"/><path class="cls-1" d="M39.18,118.68a.49.49,0,0,1-.37-.16.51.51,0,0,1,0-.74l152.11-152a.53.53,0,0,1,.74,0,.53.53,0,0,1,0,.75l-152.11,152A.5.5,0,0,1,39.18,118.68Z" transform="translate(61.74 34.35)"/><path class="cls-1" d="M44.55,118.68a.5.5,0,0,1-.37-.16.51.51,0,0,1,0-.74l152.11-152a.53.53,0,0,1,.74,0,.53.53,0,0,1,0,.75l-152.11,152A.5.5,0,0,1,44.55,118.68Z" transform="translate(61.74 34.35)"/><path class="cls-1" d="M49.85,118.68a.5.5,0,0,1-.37-.16.51.51,0,0,1,0-.74l152.11-152a.53.53,0,0,1,.74,0,.53.53,0,0,1,0,.75l-152.11,152A.5.5,0,0,1,49.85,118.68Z" transform="translate(61.74 34.35)"/><path class="cls-1" d="M55.22,118.68a.5.5,0,0,1-.37-.16.53.53,0,0,1,0-.74L207-34.2a.54.54,0,0,1,.75,0,.54.54,0,0,1,0,.75L55.6,118.52A.52.52,0,0,1,55.22,118.68Z" transform="translate(61.74 34.35)"/><path class="cls-1" d="M60.38,118.68a.5.5,0,0,1-.37-.16.53.53,0,0,1,0-.74l152.11-152a.54.54,0,0,1,.75,0,.54.54,0,0,1,0,.75l-152.11,152A.52.52,0,0,1,60.38,118.68Z" transform="translate(61.74 34.35)"/><path class="cls-1" d="M65.75,118.68a.5.5,0,0,1-.37-.16.53.53,0,0,1,0-.74l152.11-152a.54.54,0,0,1,.75,0,.54.54,0,0,1,0,.75l-152.11,152A.52.52,0,0,1,65.75,118.68Z" transform="translate(61.74 34.35)"/><path class="cls-1" d="M71,118.68a.49.49,0,0,1-.37-.16.51.51,0,0,1,0-.74l152.11-152a.53.53,0,0,1,.74,0,.54.54,0,0,1,0,.75l-152.11,152A.5.5,0,0,1,71,118.68Z" transform="translate(61.74 34.35)"/><path class="cls-1" d="M76.38,118.68a.49.49,0,0,1-.37-.16.51.51,0,0,1,0-.74l152.11-152a.53.53,0,0,1,.74,0,.53.53,0,0,1,0,.75l-152.11,152A.5.5,0,0,1,76.38,118.68Z" transform="translate(61.74 34.35)"/><path class="cls-1" d="M81.54,118.68a.5.5,0,0,1-.37-.16.51.51,0,0,1,0-.74l152.11-152a.53.53,0,0,1,.74,0,.53.53,0,0,1,0,.75l-152.11,152A.49.49,0,0,1,81.54,118.68Z" transform="translate(61.74 34.35)"/><path class="cls-1" d="M86.91,118.68a.5.5,0,0,1-.37-.16.51.51,0,0,1,0-.74l152.11-152a.53.53,0,0,1,.74,0,.53.53,0,0,1,0,.75l-152.11,152A.5.5,0,0,1,86.91,118.68Z" transform="translate(61.74 34.35)"/><path class="cls-1" d="M92.21,118.68a.5.5,0,0,1-.37-.16.51.51,0,0,1,0-.74L244-34.2a.53.53,0,0,1,.74,0,.53.53,0,0,1,0,.75l-152.11,152A.5.5,0,0,1,92.21,118.68Z" transform="translate(61.74 34.35)"/><path class="cls-1" d="M97.58,118.68a.5.5,0,0,1-.37-.16.51.51,0,0,1,0-.74l152.11-152a.53.53,0,0,1,.74,0,.53.53,0,0,1,0,.75L98,118.52A.49.49,0,0,1,97.58,118.68Z" transform="translate(61.74 34.35)"/><path class="cls-1" d="M102.75,118.68a.52.52,0,0,1-.38-.16.53.53,0,0,1,0-.74l152.11-152a.54.54,0,0,1,.75,0,.54.54,0,0,1,0,.75l-152.11,152A.52.52,0,0,1,102.75,118.68Z" transform="translate(61.74 34.35)"/><path class="cls-1" d="M108.11,118.68a.5.5,0,0,1-.37-.16.53.53,0,0,1,0-.74l152.11-152a.54.54,0,0,1,.75,0,.54.54,0,0,1,0,.75l-152.11,152A.52.52,0,0,1,108.11,118.68Z" transform="translate(61.74 34.35)"/><path class="cls-1" d="M113.37,118.68a.5.5,0,0,1-.37-.16.51.51,0,0,1,0-.74l152.11-152a.54.54,0,0,1,.75,0,.54.54,0,0,1,0,.75l-152.12,152A.49.49,0,0,1,113.37,118.68Z" transform="translate(61.74 34.35)"/><path class="cls-1" d="M118.74,118.68a.5.5,0,0,1-.37-.16.53.53,0,0,1,0-.74l152.11-152a.54.54,0,0,1,.75,0,.54.54,0,0,1,0,.75l-152.11,152A.52.52,0,0,1,118.74,118.68Z" transform="translate(61.74 34.35)"/><path class="cls-1" d="M123.9,118.68a.5.5,0,0,1-.37-.16.53.53,0,0,1,0-.74l152.11-152a.54.54,0,0,1,.75,0,.54.54,0,0,1,0,.75l-152.11,152A.52.52,0,0,1,123.9,118.68Z" transform="translate(61.74 34.35)"/><path class="cls-1" d="M129.28,118.68a.52.52,0,0,1-.38-.16.53.53,0,0,1,0-.74L281-34.2a.54.54,0,0,1,.75,0,.54.54,0,0,1,0,.75l-152.11,152A.52.52,0,0,1,129.28,118.68Z" transform="translate(61.74 34.35)"/><path class="cls-1" d="M134.57,118.68a.52.52,0,0,1-.37-.16.53.53,0,0,1,0-.74l152.11-152a.54.54,0,0,1,.75,0,.54.54,0,0,1,0,.75L135,118.52A.52.52,0,0,1,134.57,118.68Z" transform="translate(61.74 34.35)"/><path class="cls-1" d="M140,118.68a.52.52,0,0,1-.38-.16.53.53,0,0,1,0-.74l152.12-152a.53.53,0,0,1,.74,0,.54.54,0,0,1,0,.75l-152.11,152A.5.5,0,0,1,140,118.68Z" transform="translate(61.74 34.35)"/><path class="cls-1" d="M145.11,118.68a.52.52,0,0,1-.38-.16.53.53,0,0,1,0-.74l152.12-152a.53.53,0,0,1,.74,0,.53.53,0,0,1,0,.75l-152.11,152A.5.5,0,0,1,145.11,118.68Z" transform="translate(61.74 34.35)"/><path class="cls-1" d="M150.48,118.68a.5.5,0,0,1-.37-.16.51.51,0,0,1,0-.74l152.11-152a.53.53,0,0,1,.74,0,.53.53,0,0,1,0,.75l-152.11,152A.5.5,0,0,1,150.48,118.68Z" transform="translate(61.74 34.35)"/><path class="cls-1" d="M155.73,118.68a.5.5,0,0,1-.37-.16.51.51,0,0,1,0-.74l152.11-152a.54.54,0,0,1,.75,0,.53.53,0,0,1,0,.75l-152.11,152A.49.49,0,0,1,155.73,118.68Z" transform="translate(61.74 34.35)"/><path class="cls-1" d="M161.1,118.68a.5.5,0,0,1-.37-.16.53.53,0,0,1,0-.74l152.11-152a.54.54,0,0,1,.75,0,.54.54,0,0,1,0,.75l-152.11,152A.52.52,0,0,1,161.1,118.68Z" transform="translate(61.74 34.35)"/><path class="cls-1" d="M166.27,118.68a.52.52,0,0,1-.38-.16.53.53,0,0,1,0-.74L318-34.2a.53.53,0,0,1,.74,0,.53.53,0,0,1,0,.75l-152.11,152A.52.52,0,0,1,166.27,118.68Z" transform="translate(61.74 34.35)"/><path class="cls-1" d="M171.64,118.68a.52.52,0,0,1-.38-.16.53.53,0,0,1,0-.74l152.12-152a.53.53,0,0,1,.74,0,.53.53,0,0,1,0,.75L172,118.52A.52.52,0,0,1,171.64,118.68Z" transform="translate(61.74 34.35)"/><path class="cls-1" d="M176.93,118.68a.52.52,0,0,1-.37-.16.53.53,0,0,1,0-.74l152.11-152a.54.54,0,0,1,.75,0,.54.54,0,0,1,0,.75l-152.11,152A.52.52,0,0,1,176.93,118.68Z" transform="translate(61.74 34.35)"/><path class="cls-1" d="M182.31,118.68a.49.49,0,0,1-.37-.16.51.51,0,0,1,0-.74L334-34.2a.54.54,0,0,1,.75,0,.54.54,0,0,1,0,.75l-152.11,152A.5.5,0,0,1,182.31,118.68Z" transform="translate(61.74 34.35)"/><path class="cls-1" d="M187.47,118.68a.49.49,0,0,1-.37-.16.51.51,0,0,1,0-.74l152.11-152a.53.53,0,0,1,.74,0,.53.53,0,0,1,0,.75l-152.11,152A.5.5,0,0,1,187.47,118.68Z" transform="translate(61.74 34.35)"/><path class="cls-1" d="M192.84,118.68a.49.49,0,0,1-.37-.16.51.51,0,0,1,0-.74l152.11-152a.53.53,0,0,1,.74,0,.53.53,0,0,1,0,.75l-152.11,152A.5.5,0,0,1,192.84,118.68Z" transform="translate(61.74 34.35)"/><path class="cls-1" d="M198,118.68a.5.5,0,0,1-.37-.16.51.51,0,0,1,0-.74l152.11-152a.54.54,0,0,1,.75,0,.53.53,0,0,1,0,.75l-152.11,152A.49.49,0,0,1,198,118.68Z" transform="translate(61.74 34.35)"/><path class="cls-1" d="M203.34,118.68a.5.5,0,0,1-.37-.16.53.53,0,0,1,0-.74l152.11-152a.54.54,0,0,1,.75,0,.54.54,0,0,1,0,.75l-152.11,152A.52.52,0,0,1,203.34,118.68Z" transform="translate(61.74 34.35)"/><path class="cls-1" d="M208.51,118.68a.52.52,0,0,1-.38-.16.53.53,0,0,1,0-.74l152.11-152a.54.54,0,0,1,.75,0,.54.54,0,0,1,0,.75l-152.11,152A.52.52,0,0,1,208.51,118.68Z" transform="translate(61.74 34.35)"/><path class="cls-1" d="M213.88,118.68a.52.52,0,0,1-.38-.16.53.53,0,0,1,0-.74l152.12-152a.53.53,0,0,1,.74,0,.54.54,0,0,1,0,.75l-152.11,152A.52.52,0,0,1,213.88,118.68Z" transform="translate(61.74 34.35)"/><path class="cls-1" d="M219.18,118.68a.52.52,0,0,1-.38-.16.53.53,0,0,1,0-.74l152.12-152a.53.53,0,0,1,.74,0,.54.54,0,0,1,0,.75l-152.11,152A.52.52,0,0,1,219.18,118.68Z" transform="translate(61.74 34.35)"/><path class="cls-1" d="M224.55,118.68a.52.52,0,0,1-.38-.16.53.53,0,0,1,0-.74l152.12-152a.53.53,0,0,1,.74,0,.53.53,0,0,1,0,.75l-152.11,152A.5.5,0,0,1,224.55,118.68Z" transform="translate(61.74 34.35)"/><path class="cls-1" d="M229.71,118.68a.49.49,0,0,1-.37-.16.51.51,0,0,1,0-.74l152.11-152a.53.53,0,0,1,.74,0,.53.53,0,0,1,0,.75l-152.11,152A.5.5,0,0,1,229.71,118.68Z" transform="translate(61.74 34.35)"/><path class="cls-1" d="M235.08,118.68a.5.5,0,0,1-.37-.16.51.51,0,0,1,0-.74l152.11-152a.53.53,0,0,1,.74,0,.53.53,0,0,1,0,.75l-152.11,152A.5.5,0,0,1,235.08,118.68Z" transform="translate(61.74 34.35)"/><path class="cls-1" d="M240.33,118.68a.5.5,0,0,1-.37-.16.51.51,0,0,1,0-.74l152.11-152a.53.53,0,0,1,.74,0,.53.53,0,0,1,0,.75l-152.11,152A.49.49,0,0,1,240.33,118.68Z" transform="translate(61.74 34.35)"/><path class="cls-1" d="M245.7,118.68a.5.5,0,0,1-.37-.16.53.53,0,0,1,0-.74l152.11-152a.53.53,0,0,1,.74,0,.53.53,0,0,1,0,.75l-152.11,152A.49.49,0,0,1,245.7,118.68Z" transform="translate(61.74 34.35)"/><path class="cls-1" d="M250.86,118.68a.5.5,0,0,1-.37-.16.53.53,0,0,1,0-.74L402.6-34.2a.54.54,0,0,1,.75,0,.54.54,0,0,1,0,.75l-152.11,152A.52.52,0,0,1,250.86,118.68Z" transform="translate(61.74 34.35)"/><path class="cls-1" d="M256.24,118.68a.52.52,0,0,1-.38-.16.53.53,0,0,1,0-.74L408-34.2a.54.54,0,0,1,.75,0,.54.54,0,0,1,0,.75l-152.11,152A.52.52,0,0,1,256.24,118.68Z" transform="translate(61.74 34.35)"/><path class="cls-1" d="M261.54,118.68a.52.52,0,0,1-.38-.16.53.53,0,0,1,0-.74l152.12-152a.53.53,0,0,1,.74,0,.54.54,0,0,1,0,.75l-152.11,152A.52.52,0,0,1,261.54,118.68Z" transform="translate(61.74 34.35)"/><path class="cls-1" d="M266.91,118.68a.52.52,0,0,1-.38-.16.53.53,0,0,1,0-.74l152.12-152a.53.53,0,0,1,.74,0,.53.53,0,0,1,0,.75l-152.11,152A.5.5,0,0,1,266.91,118.68Z" transform="translate(61.74 34.35)"/><path class="cls-1" d="M272.07,118.68a.49.49,0,0,1-.37-.16.51.51,0,0,1,0-.74l152.11-152a.53.53,0,0,1,.74,0,.53.53,0,0,1,0,.75l-152.11,152A.5.5,0,0,1,272.07,118.68Z" transform="translate(61.74 34.35)"/><path class="cls-1" d="M277.44,118.68a.5.5,0,0,1-.37-.16.51.51,0,0,1,0-.74l152.11-152a.53.53,0,0,1,.74,0,.53.53,0,0,1,0,.75l-152.11,152A.49.49,0,0,1,277.44,118.68Z" transform="translate(61.74 34.35)"/></g><path class="cls-1" d="M259.76,73.78a2.88,2.88,0,1,0-2.88,2.87A2.88,2.88,0,0,0,259.76,73.78Z" transform="translate(61.74 34.35)"/><path class="cls-1" d="M339.85,90.61H265.78a.53.53,0,0,1-.53-.53V57.47a.53.53,0,0,1,.53-.53h74.07a.53.53,0,0,1,.46.28l8.74,16.52a.55.55,0,0,1,0,.5l-8.74,16.09A.53.53,0,0,1,339.85,90.61Zm-73.55-1h73.23L348,74l-8.46-16H266.3Z" transform="translate(61.74 34.35)"/><path class="cls-1" d="M279.13,79.33a3.41,3.41,0,0,1-2.33.65h-3.69V67.44h3.47a3.86,3.86,0,0,1,2.44.66,2.59,2.59,0,0,1,.82,2.14v6.91A2.85,2.85,0,0,1,279.13,79.33Zm-1.21-10.19a1.27,1.27,0,0,0-.95-.35h-2.31v9.84H277a1.39,1.39,0,0,0,1-.31,1.35,1.35,0,0,0,.32-1V70.08A1.24,1.24,0,0,0,277.92,69.14Z" transform="translate(61.74 34.35)"/><path class="cls-1" d="M284.4,76.81,283.71,80h-1.6l3-12.54h2.06l3,12.54h-1.59l-.68-3.17Zm3.21-1.35-1.47-6.83-1.45,6.83Z" transform="translate(61.74 34.35)"/><path class="cls-1" d="M295,80V68.8h-2.84V67.44h7.25V68.8h-2.85V80Z" transform="translate(61.74 34.35)"/><path class="cls-1" d="M303.74,76.81,303,80h-1.59l3-12.54h2l3,12.54h-1.6l-.68-3.17ZM307,75.46l-1.47-6.83L304,75.46Z" transform="translate(61.74 34.35)"/><path class="cls-1" d="M324.72,74.32q.58-.82.78-1.17a2.33,2.33,0,0,0,.28-.71,5.55,5.55,0,0,0,.07-1V70.15a1.24,1.24,0,0,0-.41-1,1.49,1.49,0,0,0-1.07-.4h-2.15V67.44h2a3.46,3.46,0,0,1,2.39.76,3,3,0,0,1,.83,2.29v.75a7.07,7.07,0,0,1-.12,1.45,4.17,4.17,0,0,1-.36,1,13.37,13.37,0,0,1-.77,1.2l-2.65,3.75h4.26V80h-5.91V78.4Z" transform="translate(61.74 34.35)"/><path class="cls-1" d="M334.89,80v-2.8h-3.68V75.64l1.91-8.2h1.45l-1.82,8.44h2.14V71.79h1.53v4.09h1.34v1.3h-1.34V80Z" transform="translate(61.74 34.35)"/><path class="cls-1" d="M359.93,73.78a2.88,2.88,0,1,0-2.88,2.87A2.88,2.88,0,0,0,359.93,73.78Z" transform="translate(61.74 34.35)"/><path class="cls-1" d="M360.8,82.4a.55.55,0,0,1-.3-.09.52.52,0,0,1-.13-.73l5.34-7.8L360.37,66a.52.52,0,0,1,.13-.73.53.53,0,0,1,.73.14l5.55,8.1a.53.53,0,0,1,0,.59l-5.55,8.11A.53.53,0,0,1,360.8,82.4Z" transform="translate(61.74 34.35)"/><g class="cls-4"><path class="cls-1" d="M12.24,121.88a.52.52,0,0,1-.52-.53V97.69a.53.53,0,0,1,1,0v23.66A.53.53,0,0,1,12.24,121.88Z" transform="translate(61.74 34.35)"/></g><g class="cls-4"><path class="cls-1" d="M16.4,121.88a.52.52,0,0,1-.52-.53V97.69a.52.52,0,0,1,.52-.52.52.52,0,0,1,.53.52v23.66A.53.53,0,0,1,16.4,121.88Z" transform="translate(61.74 34.35)"/></g><polygon class="cls-2" points="225.15 155.7 82.45 155.7 82.45 132.04 225.15 132.04 233.89 144.09 225.15 155.7"/><path class="cls-2" d="M163.42,121.62H20.72a.27.27,0,0,1-.27-.27V97.69a.27.27,0,0,1,.27-.27h142.7a.27.27,0,0,1,.22.11l8.74,12a.27.27,0,0,1,0,.32l-8.74,11.61A.29.29,0,0,1,163.42,121.62ZM21,121.08H163.28l8.54-11.35L163.28,98H21Z" transform="translate(61.74 34.35)"/><path class="cls-6" d="M32.21,115.38a3.43,3.43,0,0,1-2.34.64H26.18V103.49h3.48a3.89,3.89,0,0,1,2.43.65,2.57,2.57,0,0,1,.82,2.14v6.91A2.86,2.86,0,0,1,32.21,115.38ZM31,105.18a1.32,1.32,0,0,0-.95-.35H27.74v9.85H30a1.36,1.36,0,0,0,1-.31,1.32,1.32,0,0,0,.33-1v-7.25A1.25,1.25,0,0,0,31,105.18Z" transform="translate(61.74 34.35)"/><path class="cls-6" d="M37.48,112.85l-.7,3.17H35.19l3-12.53h2.06l3,12.53h-1.6L41,112.85Zm3.2-1.34-1.46-6.84-1.45,6.84Z" transform="translate(61.74 34.35)"/><path class="cls-6" d="M48.1,116V104.85H45.25v-1.36H52.5v1.36H49.65V116Z" transform="translate(61.74 34.35)"/><path class="cls-6" d="M56.82,112.85l-.7,3.17h-1.6l3-12.53h2.06l3,12.53H61l-.68-3.17Zm3.2-1.34-1.47-6.84-1.45,6.84Z" transform="translate(61.74 34.35)"/><path class="cls-6" d="M77.8,110.36c.38-.54.64-.94.78-1.17a2.24,2.24,0,0,0,.28-.71,6.33,6.33,0,0,0,.07-1v-1.26a1.29,1.29,0,0,0-.41-1,1.52,1.52,0,0,0-1.08-.39H75.29v-1.36h2a3.4,3.4,0,0,1,2.39.76,2.93,2.93,0,0,1,.84,2.28v.75a7.08,7.08,0,0,1-.13,1.46,3.55,3.55,0,0,1-.36,1,11.42,11.42,0,0,1-.77,1.2l-2.65,3.74h4.26V116h-5.9v-1.57Z" transform="translate(61.74 34.35)"/><path class="cls-6" d="M87.47,110.36c.38-.54.64-.94.78-1.17a2.5,2.5,0,0,0,.28-.71,6.33,6.33,0,0,0,.07-1v-1.26a1.27,1.27,0,0,0-.42-1,1.48,1.48,0,0,0-1.07-.39H85v-1.36h2a3.4,3.4,0,0,1,2.39.76,2.93,2.93,0,0,1,.83,2.28v.75a7.18,7.18,0,0,1-.12,1.46,3.55,3.55,0,0,1-.36,1,11.42,11.42,0,0,1-.77,1.2l-2.65,3.74h4.26V116H84.6v-1.57Z" transform="translate(61.74 34.35)"/><path class="cls-2" d="M183.83,109.52A2.88,2.88,0,1,0,181,112.4,2.88,2.88,0,0,0,183.83,109.52Z" transform="translate(61.74 34.35)"/><path class="cls-1" d="M239.79,121.88H189.52a.52.52,0,0,1-.52-.53V97.69a.52.52,0,0,1,.52-.52h50.27a.54.54,0,0,1,.42.21L249,109.43a.53.53,0,0,1,0,.62l-8.74,11.62A.54.54,0,0,1,239.79,121.88Zm-49.74-1h49.47l8.35-11.1-8.35-11.51H190.05Z" transform="translate(61.74 34.35)"/><path class="cls-1" d="M259.76,109.52a2.88,2.88,0,1,0-2.88,2.88A2.88,2.88,0,0,0,259.76,109.52Z" transform="translate(61.74 34.35)"/><polygon class="cls-1" points="429.44 155.7 327.8 155.7 327.8 132.04 429.44 132.04 438.18 144.09 429.44 155.7"/><path class="cls-1" d="M367.71,121.62H266.07a.28.28,0,0,1-.28-.27V97.69a.28.28,0,0,1,.28-.27H367.71a.28.28,0,0,1,.22.11l8.73,12a.27.27,0,0,1,0,.32l-8.74,11.61A.26.26,0,0,1,367.71,121.62Zm-101.37-.54H367.57l8.53-11.35L367.57,98H266.34Z" transform="translate(61.74 34.35)"/><path class="cls-1" d="M387.68,109.52a2.88,2.88,0,1,0-2.88,2.88A2.88,2.88,0,0,0,387.68,109.52Z" transform="translate(61.74 34.35)"/><path class="cls-1" d="M388.24,118.15a.46.46,0,0,1-.29-.1.52.52,0,0,1-.14-.73l5.34-7.8-5.34-7.8a.53.53,0,0,1,.87-.6l5.54,8.1a.55.55,0,0,1,0,.6l-5.54,8.1A.54.54,0,0,1,388.24,118.15Z" transform="translate(61.74 34.35)"/><path class="cls-1" d="M64.42,162H.53a.52.52,0,0,1-.53-.52V128.91a.53.53,0,0,1,.53-.53H64.42a.54.54,0,0,1,.47.28l8.74,16.52a.52.52,0,0,1,0,.5l-8.74,16.09A.52.52,0,0,1,64.42,162ZM1.05,161H64.11l8.45-15.57-8.46-16h-63Z" transform="translate(61.74 34.35)"/><path class="cls-1" d="M84.5,145.21a2.88,2.88,0,1,0-2.87,2.88A2.86,2.86,0,0,0,84.5,145.21Z" transform="translate(61.74 34.35)"/><g class="cls-4"><path class="cls-2" d="M239.46,161.79H91.06a.27.27,0,0,1-.27-.27V128.91a.27.27,0,0,1,.27-.27h148.4a.25.25,0,0,1,.24.14l8.74,16.52a.23.23,0,0,1,0,.25l-8.74,16.1A.26.26,0,0,1,239.46,161.79Zm-148.12-.54h148l8.6-15.83-8.6-16.24h-148Z" transform="translate(61.74 34.35)"/><g class="cls-7"><path class="cls-2" d="M-61.21,190.11a.53.53,0,0,1-.37-.15.53.53,0,0,1,0-.75l152.11-152a.53.53,0,0,1,.74,0,.51.51,0,0,1,0,.74L-60.84,190A.51.51,0,0,1-61.21,190.11Z" transform="translate(61.74 34.35)"/><path class="cls-2" d="M-55.95,190.11a.55.55,0,0,1-.38-.15.54.54,0,0,1,0-.75l152.12-152a.53.53,0,0,1,.74,0,.51.51,0,0,1,0,.74L-55.58,190A.55.55,0,0,1-55.95,190.11Z" transform="translate(61.74 34.35)"/><path class="cls-2" d="M-50.58,190.11A.55.55,0,0,1-51,190a.54.54,0,0,1,0-.75l152.12-152a.53.53,0,0,1,.74,0,.51.51,0,0,1,0,.74L-50.21,190A.53.53,0,0,1-50.58,190.11Z" transform="translate(61.74 34.35)"/><path class="cls-2" d="M-45.42,190.11a.53.53,0,0,1-.37-.15.53.53,0,0,1,0-.75l152.11-152a.53.53,0,0,1,.74,0,.51.51,0,0,1,0,.74L-45,190A.53.53,0,0,1-45.42,190.11Z" transform="translate(61.74 34.35)"/><path class="cls-2" d="M-40,190.11a.53.53,0,0,1-.37-.15.53.53,0,0,1,0-.75l152.11-152a.53.53,0,0,1,.74,0,.51.51,0,0,1,0,.74L-39.68,190A.51.51,0,0,1-40,190.11Z" transform="translate(61.74 34.35)"/><path class="cls-2" d="M-34.75,190.11a.53.53,0,0,1-.37-.15.53.53,0,0,1,0-.75L117,37.24a.53.53,0,0,1,.74,0,.51.51,0,0,1,0,.74L-34.38,190A.51.51,0,0,1-34.75,190.11Z" transform="translate(61.74 34.35)"/><path class="cls-2" d="M-29.38,190.11a.53.53,0,0,1-.37-.15.54.54,0,0,1,0-.75l152.11-152a.54.54,0,0,1,.75,0,.52.52,0,0,1,0,.74L-29,190A.51.51,0,0,1-29.38,190.11Z" transform="translate(61.74 34.35)"/><path class="cls-2" d="M-24.22,190.11a.53.53,0,0,1-.37-.15.54.54,0,0,1,0-.75l152.11-152a.54.54,0,0,1,.75,0,.53.53,0,0,1,0,.74L-23.84,190A.55.55,0,0,1-24.22,190.11Z" transform="translate(61.74 34.35)"/><path class="cls-2" d="M-18.85,190.11a.55.55,0,0,1-.37-.15.54.54,0,0,1,0-.75l152.11-152a.54.54,0,0,1,.75,0,.53.53,0,0,1,0,.74L-18.47,190A.55.55,0,0,1-18.85,190.11Z" transform="translate(61.74 34.35)"/><path class="cls-2" d="M-13.59,190.11A.55.55,0,0,1-14,190a.53.53,0,0,1,0-.75l152.11-152a.53.53,0,0,1,.74,0,.52.52,0,0,1,0,.74L-13.22,190A.53.53,0,0,1-13.59,190.11Z" transform="translate(61.74 34.35)"/><path class="cls-2" d="M-8.22,190.11a.51.51,0,0,1-.37-.15.53.53,0,0,1,0-.75l152.11-152a.53.53,0,0,1,.74,0,.51.51,0,0,1,0,.74L-7.85,190A.53.53,0,0,1-8.22,190.11Z" transform="translate(61.74 34.35)"/><path class="cls-2" d="M-3.06,190.11a.53.53,0,0,1-.37-.15.53.53,0,0,1,0-.75l152.11-152a.53.53,0,0,1,.74,0,.51.51,0,0,1,0,.74L-2.69,190A.53.53,0,0,1-3.06,190.11Z" transform="translate(61.74 34.35)"/><path class="cls-2" d="M2.31,190.11a.51.51,0,0,1-.37-.15.53.53,0,0,1,0-.75l152.11-152a.53.53,0,0,1,.74,0,.51.51,0,0,1,0,.74L2.68,190A.53.53,0,0,1,2.31,190.11Z" transform="translate(61.74 34.35)"/><path class="cls-2" d="M7.61,190.11a.53.53,0,0,1-.37-.15.53.53,0,0,1,0-.75l152.11-152a.54.54,0,0,1,.75,0,.52.52,0,0,1,0,.74L8,190A.53.53,0,0,1,7.61,190.11Z" transform="translate(61.74 34.35)"/><path class="cls-2" d="M13,190.11a.53.53,0,0,1-.37-.15.54.54,0,0,1,0-.75l152.11-152a.53.53,0,0,1,.74,0,.51.51,0,0,1,0,.74L13.36,190A.55.55,0,0,1,13,190.11Z" transform="translate(61.74 34.35)"/><path class="cls-2" d="M18.14,190.11a.53.53,0,0,1-.37-.15.54.54,0,0,1,0-.75l152.11-152a.54.54,0,0,1,.75,0,.53.53,0,0,1,0,.74L18.52,190A.55.55,0,0,1,18.14,190.11Z" transform="translate(61.74 34.35)"/><path class="cls-2" d="M23.52,190.11a.55.55,0,0,1-.38-.15.54.54,0,0,1,0-.75l152.11-152a.54.54,0,0,1,.75,0,.53.53,0,0,1,0,.74L23.89,190A.55.55,0,0,1,23.52,190.11Z" transform="translate(61.74 34.35)"/><path class="cls-2" d="M28.65,190.11a.55.55,0,0,1-.38-.15.54.54,0,0,1,0-.75l152.12-152a.53.53,0,0,1,.74,0,.51.51,0,0,1,0,.74L29,190A.53.53,0,0,1,28.65,190.11Z" transform="translate(61.74 34.35)"/><path class="cls-2" d="M34,190.11a.51.51,0,0,1-.37-.15.53.53,0,0,1,0-.75l152.11-152a.53.53,0,0,1,.74,0,.51.51,0,0,1,0,.74L34.39,190A.53.53,0,0,1,34,190.11Z" transform="translate(61.74 34.35)"/><path class="cls-2" d="M39.18,190.11a.51.51,0,0,1-.37-.15.53.53,0,0,1,0-.75l152.11-152a.53.53,0,0,1,.74,0,.51.51,0,0,1,0,.74L39.55,190A.53.53,0,0,1,39.18,190.11Z" transform="translate(61.74 34.35)"/><path class="cls-2" d="M44.55,190.11a.53.53,0,0,1-.37-.15.53.53,0,0,1,0-.75l152.11-152a.53.53,0,0,1,.74,0,.51.51,0,0,1,0,.74L44.92,190A.53.53,0,0,1,44.55,190.11Z" transform="translate(61.74 34.35)"/><path class="cls-2" d="M49.85,190.11a.53.53,0,0,1-.37-.15.53.53,0,0,1,0-.75l152.11-152a.53.53,0,0,1,.74,0,.51.51,0,0,1,0,.74L50.22,190A.53.53,0,0,1,49.85,190.11Z" transform="translate(61.74 34.35)"/><path class="cls-2" d="M55.22,190.11a.53.53,0,0,1-.37-.15.54.54,0,0,1,0-.75L207,37.24a.54.54,0,0,1,.75,0,.53.53,0,0,1,0,.74L55.6,190A.55.55,0,0,1,55.22,190.11Z" transform="translate(61.74 34.35)"/><path class="cls-2" d="M60.38,190.11A.53.53,0,0,1,60,190a.54.54,0,0,1,0-.75l152.11-152a.54.54,0,0,1,.75,0,.53.53,0,0,1,0,.74L60.76,190A.55.55,0,0,1,60.38,190.11Z" transform="translate(61.74 34.35)"/><path class="cls-2" d="M65.75,190.11a.53.53,0,0,1-.37-.15.54.54,0,0,1,0-.75l152.11-152a.54.54,0,0,1,.75,0,.53.53,0,0,1,0,.74L66.13,190A.55.55,0,0,1,65.75,190.11Z" transform="translate(61.74 34.35)"/><path class="cls-2" d="M71,190.11a.51.51,0,0,1-.37-.15.53.53,0,0,1,0-.75l152.11-152a.52.52,0,0,1,.74.74L71.38,190A.53.53,0,0,1,71,190.11Z" transform="translate(61.74 34.35)"/><path class="cls-2" d="M76.38,190.11A.51.51,0,0,1,76,190a.53.53,0,0,1,0-.75l152.11-152a.53.53,0,0,1,.74,0,.51.51,0,0,1,0,.74L76.75,190A.53.53,0,0,1,76.38,190.11Z" transform="translate(61.74 34.35)"/><path class="cls-2" d="M81.54,190.11a.53.53,0,0,1-.37-.15.53.53,0,0,1,0-.75l152.11-152a.53.53,0,0,1,.74,0,.51.51,0,0,1,0,.74L81.91,190A.51.51,0,0,1,81.54,190.11Z" transform="translate(61.74 34.35)"/><path class="cls-2" d="M86.91,190.11a.53.53,0,0,1-.37-.15.53.53,0,0,1,0-.75l152.11-152a.53.53,0,0,1,.74,0,.51.51,0,0,1,0,.74L87.28,190A.53.53,0,0,1,86.91,190.11Z" transform="translate(61.74 34.35)"/><path class="cls-2" d="M92.21,190.11a.53.53,0,0,1-.37-.15.53.53,0,0,1,0-.75L244,37.24a.53.53,0,0,1,.74,0,.51.51,0,0,1,0,.74L92.58,190A.53.53,0,0,1,92.21,190.11Z" transform="translate(61.74 34.35)"/><path class="cls-2" d="M97.58,190.11a.53.53,0,0,1-.37-.15.53.53,0,0,1,0-.75l152.11-152a.53.53,0,0,1,.74,0,.51.51,0,0,1,0,.74L98,190A.51.51,0,0,1,97.58,190.11Z" transform="translate(61.74 34.35)"/><path class="cls-2" d="M102.75,190.11a.55.55,0,0,1-.38-.15.54.54,0,0,1,0-.75l152.11-152a.54.54,0,0,1,.75,0,.53.53,0,0,1,0,.74L103.12,190A.55.55,0,0,1,102.75,190.11Z" transform="translate(61.74 34.35)"/><path class="cls-2" d="M108.11,190.11a.53.53,0,0,1-.37-.15.54.54,0,0,1,0-.75l152.11-152a.54.54,0,0,1,.75,0,.53.53,0,0,1,0,.74L108.49,190A.55.55,0,0,1,108.11,190.11Z" transform="translate(61.74 34.35)"/><path class="cls-2" d="M113.37,190.11A.53.53,0,0,1,113,190a.53.53,0,0,1,0-.75l152.11-152a.54.54,0,0,1,.75,0,.53.53,0,0,1,0,.74L113.74,190A.51.51,0,0,1,113.37,190.11Z" transform="translate(61.74 34.35)"/><path class="cls-2" d="M118.74,190.11a.53.53,0,0,1-.37-.15.54.54,0,0,1,0-.75l152.11-152a.54.54,0,0,1,.75,0,.53.53,0,0,1,0,.74L119.12,190A.55.55,0,0,1,118.74,190.11Z" transform="translate(61.74 34.35)"/><path class="cls-2" d="M123.9,190.11a.53.53,0,0,1-.37-.15.54.54,0,0,1,0-.75l152.11-152a.54.54,0,0,1,.75,0,.53.53,0,0,1,0,.74L124.28,190A.55.55,0,0,1,123.9,190.11Z" transform="translate(61.74 34.35)"/><path class="cls-2" d="M129.28,190.11a.55.55,0,0,1-.38-.15.54.54,0,0,1,0-.75L281,37.24a.54.54,0,0,1,.75,0,.53.53,0,0,1,0,.74L129.65,190A.55.55,0,0,1,129.28,190.11Z" transform="translate(61.74 34.35)"/><path class="cls-2" d="M134.57,190.11a.53.53,0,0,1-.37-.9l152.11-152a.54.54,0,0,1,.75,0,.53.53,0,0,1,0,.74L135,190A.55.55,0,0,1,134.57,190.11Z" transform="translate(61.74 34.35)"/><path class="cls-2" d="M140,190.11a.55.55,0,0,1-.38-.15.54.54,0,0,1,0-.75l152.12-152a.52.52,0,0,1,.74.74L140.32,190A.53.53,0,0,1,140,190.11Z" transform="translate(61.74 34.35)"/><path class="cls-2" d="M145.11,190.11a.55.55,0,0,1-.38-.15.54.54,0,0,1,0-.75l152.12-152a.53.53,0,0,1,.74,0,.51.51,0,0,1,0,.74L145.48,190A.53.53,0,0,1,145.11,190.11Z" transform="translate(61.74 34.35)"/><path class="cls-2" d="M150.48,190.11a.53.53,0,0,1-.37-.15.53.53,0,0,1,0-.75l152.11-152a.53.53,0,0,1,.74,0,.51.51,0,0,1,0,.74L150.85,190A.53.53,0,0,1,150.48,190.11Z" transform="translate(61.74 34.35)"/><path class="cls-2" d="M155.73,190.11a.53.53,0,0,1-.37-.15.53.53,0,0,1,0-.75l152.11-152a.54.54,0,0,1,.75,0,.52.52,0,0,1,0,.74L156.1,190A.51.51,0,0,1,155.73,190.11Z" transform="translate(61.74 34.35)"/><path class="cls-2" d="M161.1,190.11a.53.53,0,0,1-.37-.15.54.54,0,0,1,0-.75l152.11-152a.54.54,0,0,1,.75,0,.53.53,0,0,1,0,.74L161.48,190A.55.55,0,0,1,161.1,190.11Z" transform="translate(61.74 34.35)"/><path class="cls-2" d="M166.27,190.11a.55.55,0,0,1-.38-.15.54.54,0,0,1,0-.75L318,37.24a.53.53,0,0,1,.74,0,.51.51,0,0,1,0,.74L166.64,190A.55.55,0,0,1,166.27,190.11Z" transform="translate(61.74 34.35)"/><path class="cls-2" d="M171.64,190.11a.55.55,0,0,1-.38-.15.54.54,0,0,1,0-.75l152.12-152a.53.53,0,0,1,.74,0,.51.51,0,0,1,0,.74L172,190A.55.55,0,0,1,171.64,190.11Z" transform="translate(61.74 34.35)"/><path class="cls-2" d="M176.93,190.11a.53.53,0,0,1-.37-.9l152.11-152a.54.54,0,0,1,.75,0,.53.53,0,0,1,0,.74L177.31,190A.55.55,0,0,1,176.93,190.11Z" transform="translate(61.74 34.35)"/><path class="cls-2" d="M182.31,190.11a.51.51,0,0,1-.37-.15.53.53,0,0,1,0-.75L334,37.24a.54.54,0,0,1,.75,0,.53.53,0,0,1,0,.74L182.68,190A.53.53,0,0,1,182.31,190.11Z" transform="translate(61.74 34.35)"/><path class="cls-2" d="M187.47,190.11a.51.51,0,0,1-.37-.15.53.53,0,0,1,0-.75l152.11-152a.53.53,0,0,1,.74,0,.51.51,0,0,1,0,.74L187.84,190A.53.53,0,0,1,187.47,190.11Z" transform="translate(61.74 34.35)"/><path class="cls-2" d="M192.84,190.11a.51.51,0,0,1-.37-.15.53.53,0,0,1,0-.75l152.11-152a.53.53,0,0,1,.74,0,.51.51,0,0,1,0,.74L193.21,190A.53.53,0,0,1,192.84,190.11Z" transform="translate(61.74 34.35)"/><path class="cls-2" d="M198,190.11a.53.53,0,0,1-.37-.15.53.53,0,0,1,0-.75l152.11-152a.54.54,0,0,1,.75,0,.52.52,0,0,1,0,.74L198.34,190A.51.51,0,0,1,198,190.11Z" transform="translate(61.74 34.35)"/><path class="cls-2" d="M203.34,190.11A.53.53,0,0,1,203,190a.54.54,0,0,1,0-.75l152.11-152a.54.54,0,0,1,.75,0,.53.53,0,0,1,0,.74L203.72,190A.55.55,0,0,1,203.34,190.11Z" transform="translate(61.74 34.35)"/><path class="cls-2" d="M208.51,190.11a.55.55,0,0,1-.38-.15.54.54,0,0,1,0-.75l152.11-152a.54.54,0,0,1,.75,0,.53.53,0,0,1,0,.74L208.88,190A.55.55,0,0,1,208.51,190.11Z" transform="translate(61.74 34.35)"/><path class="cls-2" d="M213.88,190.11a.55.55,0,0,1-.38-.15.54.54,0,0,1,0-.75l152.12-152a.52.52,0,0,1,.74.74L214.25,190A.55.55,0,0,1,213.88,190.11Z" transform="translate(61.74 34.35)"/><path class="cls-2" d="M219.18,190.11a.55.55,0,0,1-.38-.15.54.54,0,0,1,0-.75l152.12-152a.52.52,0,0,1,.74.74L219.55,190A.55.55,0,0,1,219.18,190.11Z" transform="translate(61.74 34.35)"/><path class="cls-2" d="M224.55,190.11a.55.55,0,0,1-.38-.15.54.54,0,0,1,0-.75l152.12-152a.53.53,0,0,1,.74,0,.51.51,0,0,1,0,.74L224.92,190A.53.53,0,0,1,224.55,190.11Z" transform="translate(61.74 34.35)"/><path class="cls-2" d="M229.71,190.11a.51.51,0,0,1-.37-.15.53.53,0,0,1,0-.75l152.11-152a.53.53,0,0,1,.74,0,.51.51,0,0,1,0,.74L230.08,190A.53.53,0,0,1,229.71,190.11Z" transform="translate(61.74 34.35)"/><path class="cls-2" d="M235.08,190.11a.53.53,0,0,1-.37-.15.53.53,0,0,1,0-.75l152.11-152a.53.53,0,0,1,.74,0,.51.51,0,0,1,0,.74L235.45,190A.53.53,0,0,1,235.08,190.11Z" transform="translate(61.74 34.35)"/><path class="cls-2" d="M240.33,190.11A.53.53,0,0,1,240,190a.53.53,0,0,1,0-.75l152.11-152a.53.53,0,0,1,.74,0,.51.51,0,0,1,0,.74L240.7,190A.51.51,0,0,1,240.33,190.11Z" transform="translate(61.74 34.35)"/><path class="cls-2" d="M245.7,190.11a.53.53,0,0,1-.37-.15.54.54,0,0,1,0-.75l152.11-152a.53.53,0,0,1,.74,0,.51.51,0,0,1,0,.74L246.07,190A.51.51,0,0,1,245.7,190.11Z" transform="translate(61.74 34.35)"/><path class="cls-2" d="M250.86,190.11a.53.53,0,0,1-.37-.15.54.54,0,0,1,0-.75l152.11-152a.54.54,0,0,1,.75,0,.53.53,0,0,1,0,.74L251.24,190A.55.55,0,0,1,250.86,190.11Z" transform="translate(61.74 34.35)"/><path class="cls-2" d="M256.24,190.11a.55.55,0,0,1-.38-.15.54.54,0,0,1,0-.75L408,37.24a.54.54,0,0,1,.75,0,.53.53,0,0,1,0,.74L256.61,190A.55.55,0,0,1,256.24,190.11Z" transform="translate(61.74 34.35)"/><path class="cls-2" d="M261.54,190.11a.55.55,0,0,1-.38-.15.54.54,0,0,1,0-.75l152.12-152A.52.52,0,0,1,414,38L261.91,190A.55.55,0,0,1,261.54,190.11Z" transform="translate(61.74 34.35)"/><path class="cls-2" d="M266.91,190.11a.55.55,0,0,1-.38-.15.54.54,0,0,1,0-.75l152.12-152a.53.53,0,0,1,.74,0,.51.51,0,0,1,0,.74L267.28,190A.53.53,0,0,1,266.91,190.11Z" transform="translate(61.74 34.35)"/><path class="cls-2" d="M272.07,190.11a.51.51,0,0,1-.37-.15.53.53,0,0,1,0-.75l152.11-152a.53.53,0,0,1,.74,0,.51.51,0,0,1,0,.74L272.44,190A.53.53,0,0,1,272.07,190.11Z" transform="translate(61.74 34.35)"/><path class="cls-2" d="M277.44,190.11a.53.53,0,0,1-.37-.15.53.53,0,0,1,0-.75l152.11-152a.53.53,0,0,1,.74,0,.51.51,0,0,1,0,.74L277.81,190A.51.51,0,0,1,277.44,190.11Z" transform="translate(61.74 34.35)"/></g></g><path class="cls-2" d="M103.61,151.39a3.43,3.43,0,0,1-2.34.65H97.59V139.5h3.47a3.81,3.81,0,0,1,2.43.66,2.54,2.54,0,0,1,.83,2.13v6.92A2.85,2.85,0,0,1,103.61,151.39Zm-1.21-10.2a1.31,1.31,0,0,0-1-.35H99.14v9.85h2.3a1.39,1.39,0,0,0,1-.31,1.35,1.35,0,0,0,.32-1v-7.26A1.27,1.27,0,0,0,102.4,141.19Z" transform="translate(61.74 34.35)"/><path class="cls-2" d="M108.88,148.87l-.69,3.17h-1.6l3-12.54h2.06l3,12.54h-1.59l-.68-3.17Zm3.21-1.35-1.47-6.84-1.45,6.84Z" transform="translate(61.74 34.35)"/><path class="cls-2" d="M119.5,152V140.86h-2.85V139.5h7.26v1.36h-2.85V152Z" transform="translate(61.74 34.35)"/><path class="cls-2" d="M128.22,148.87l-.7,3.17h-1.59l3-12.54H131L134,152h-1.6l-.68-3.17Zm3.21-1.35L130,140.68l-1.45,6.84Z" transform="translate(61.74 34.35)"/><path class="cls-2" d="M149.2,146.38a13.86,13.86,0,0,0,.78-1.18,2.19,2.19,0,0,0,.28-.7,5.55,5.55,0,0,0,.07-1v-1.25a1.28,1.28,0,0,0-.41-1,1.45,1.45,0,0,0-1.07-.4H146.7V139.5h2a3.46,3.46,0,0,1,2.39.76,3,3,0,0,1,.83,2.29v.75a6.41,6.41,0,0,1-.13,1.45,3.76,3.76,0,0,1-.35,1c-.16.29-.42.69-.77,1.2L148,150.67h4.26V152h-5.91v-1.58Z" transform="translate(61.74 34.35)"/><path class="cls-2" d="M160.91,151.36a3.3,3.3,0,0,1-2.32.68h-2.3v-1.35h2.46a1.39,1.39,0,0,0,1-.31,1.35,1.35,0,0,0,.32-1v-1.85a1.25,1.25,0,0,0-.36-.94,1.31,1.31,0,0,0-1-.35h-1.91v-1.34h1.74a1.29,1.29,0,0,0,.93-.36,1.24,1.24,0,0,0,.37-1v-1.47a1.31,1.31,0,0,0-.31-1,1.4,1.4,0,0,0-1-.31h-2.3V139.5h2.08a3.47,3.47,0,0,1,2.3.67,2.66,2.66,0,0,1,.78,2.12v1.13a2.4,2.4,0,0,1-1,2.08,2.31,2.31,0,0,1,1.16,2.2v1.51A2.8,2.8,0,0,1,160.91,151.36Z" transform="translate(61.74 34.35)"/><path class="cls-2" d="M259.76,145.21a2.88,2.88,0,1,0-2.88,2.88A2.87,2.87,0,0,0,259.76,145.21Z" transform="translate(61.74 34.35)"/><path class="cls-1" d="M407,162H265.78a.52.52,0,0,1-.53-.52V128.91a.53.53,0,0,1,.53-.53H407a.53.53,0,0,1,.46.28l8.74,16.52a.55.55,0,0,1,0,.5l-8.74,16.09A.52.52,0,0,1,407,162ZM266.3,161H406.73l8.45-15.57-8.46-16H266.3Z" transform="translate(61.74 34.35)"/><path class="cls-1" d="M425.31,145.41H348.64a.53.53,0,0,1,0-1.06h76.67a.53.53,0,0,1,0,1.06Z" transform="translate(61.74 34.35)"/><path class="cls-1" d="M279.13,151.39a3.43,3.43,0,0,1-2.34.65H273.1V139.5h3.48a3.83,3.83,0,0,1,2.43.66,2.54,2.54,0,0,1,.83,2.13v6.92A2.85,2.85,0,0,1,279.13,151.39Zm-1.21-10.2a1.31,1.31,0,0,0-.95-.35h-2.31v9.85H277a1.4,1.4,0,0,0,1-.31,1.35,1.35,0,0,0,.32-1v-7.26A1.27,1.27,0,0,0,277.92,141.19Z" transform="translate(61.74 34.35)"/><path class="cls-1" d="M284.4,148.87l-.7,3.17h-1.59l3-12.54h2.06l3,12.54h-1.6l-.68-3.17Zm3.21-1.35-1.47-6.84-1.45,6.84Z" transform="translate(61.74 34.35)"/><path class="cls-1" d="M295,152V140.86h-2.85V139.5h7.25v1.36h-2.84V152Z" transform="translate(61.74 34.35)"/><path class="cls-1" d="M303.74,148.87,303,152h-1.59l3-12.54h2.06l3,12.54h-1.59l-.68-3.17Zm3.2-1.35-1.46-6.84L304,147.52Z" transform="translate(61.74 34.35)"/><path class="cls-1" d="M324.72,146.38c.38-.55.64-.94.78-1.18a2.19,2.19,0,0,0,.28-.7,5.55,5.55,0,0,0,.07-1v-1.25a1.28,1.28,0,0,0-.41-1,1.47,1.47,0,0,0-1.08-.4h-2.14V139.5h2a3.48,3.48,0,0,1,2.39.76,3,3,0,0,1,.83,2.29v.75a6.41,6.41,0,0,1-.13,1.45,3.76,3.76,0,0,1-.35,1c-.16.29-.42.69-.77,1.2l-2.65,3.74h4.26V152h-5.91v-1.58Z" transform="translate(61.74 34.35)"/><path class="cls-1" d="M336.45,151.36a3.33,3.33,0,0,1-2.33.68h-2.34v-1.35h2.5a1.4,1.4,0,0,0,1-.31,1.35,1.35,0,0,0,.32-1v-2.28a1.25,1.25,0,0,0-.36-.94,1.31,1.31,0,0,0-.95-.35H332V139.5h4.94v1.34h-3.42v3.64h.73a3.24,3.24,0,0,1,2.17.68,2.66,2.66,0,0,1,.79,2.11v1.94A2.8,2.8,0,0,1,336.45,151.36Z" transform="translate(61.74 34.35)"/><path class="cls-1" d="M427.12,145.21a2.88,2.88,0,1,0-2.88,2.88A2.87,2.87,0,0,0,427.12,145.21Z" transform="translate(61.74 34.35)"/><path class="cls-1" d="M428.12,153.84a.55.55,0,0,1-.3-.09.53.53,0,0,1-.14-.73l5.35-7.81-5.35-7.8a.53.53,0,0,1,.14-.73.52.52,0,0,1,.73.13l5.55,8.1a.55.55,0,0,1,0,.6l-5.55,8.1A.51.51,0,0,1,428.12,153.84Z" transform="translate(61.74 34.35)"/><path class="cls-1" d="M209.59,175.68l-.39,1.73h-.87l1.66-6.87h1.13l1.63,6.87h-.88l-.37-1.73Zm1.75-.74-.8-3.75-.8,3.75Z" transform="translate(61.74 34.35)"/><path class="cls-1" d="M214.51,177.05a1.61,1.61,0,0,1-.4-1.21v-1.76a1.62,1.62,0,0,1,.37-1.21,1.66,1.66,0,0,1,1.2-.36h.46a1.36,1.36,0,0,1,1.06.38,1.62,1.62,0,0,1,.36,1.14v1.27H215V176a.61.61,0,0,0,.18.47.82.82,0,0,0,.55.17h1.56v.73h-1.46A1.89,1.89,0,0,1,214.51,177.05Zm2.23-3.22a.57.57,0,0,0-.16-.42.61.61,0,0,0-.43-.17h-.57a.65.65,0,0,0-.49.16.69.69,0,0,0-.14.48v.69h1.79Z" transform="translate(61.74 34.35)"/><path class="cls-1" d="M220.13,172.51v.23a1.22,1.22,0,0,1,.79-.23h.45a1.64,1.64,0,0,1,1.18.37,1.6,1.6,0,0,1,.39,1.2v3.33h-.84v-3.53a.62.62,0,0,0-.17-.47.64.64,0,0,0-.46-.17h-.65a.62.62,0,0,0-.48.17.53.53,0,0,0-.16.37v3.63h-.84v-4.9Z" transform="translate(61.74 34.35)"/><path class="cls-1" d="M225.12,177.05a1.58,1.58,0,0,1-.41-1.21v-1.76a1.34,1.34,0,0,1,1.58-1.57h.46a1.35,1.35,0,0,1,1.05.38,1.62,1.62,0,0,1,.36,1.14v1.27h-2.61V176a.58.58,0,0,0,.19.47.79.79,0,0,0,.55.17h1.56v.73h-1.47A1.86,1.86,0,0,1,225.12,177.05Zm2.23-3.22a.58.58,0,0,0-.59-.59h-.57a.68.68,0,0,0-.5.16.74.74,0,0,0-.14.48v.69h1.8Z" transform="translate(61.74 34.35)"/><path class="cls-1" d="M232.91,177.34a.92.92,0,0,1-.26-.22.7.7,0,0,1-.6.29h-.88a1.62,1.62,0,0,1-1.08-.3,1.28,1.28,0,0,1-.34-1v-.2c0-1,.48-1.52,1.43-1.52h1.22v-.49a.61.61,0,0,0-.18-.47.82.82,0,0,0-.55-.17h-1.53v-.73h1.43a1.81,1.81,0,0,1,1.26.37,1.57,1.57,0,0,1,.41,1.2v2.35a.23.23,0,0,0,.11.22.69.69,0,0,0,.38.08v.68h-.54A.61.61,0,0,1,232.91,177.34Zm-.59-.8a.63.63,0,0,0,.08-.35v-1.08h-1.23a.57.57,0,0,0-.42.16.6.6,0,0,0-.16.43v.49a.5.5,0,0,0,.11.37.52.52,0,0,0,.38.12H232C232.15,176.68,232.27,176.63,232.32,176.54Z" transform="translate(61.74 34.35)"/><path class="cls-1" d="M236,172.51v.23a1.25,1.25,0,0,1,.79-.23h.45a1.62,1.62,0,0,1,1.18.37,1.6,1.6,0,0,1,.39,1.2v3.33H238v-3.53a.59.59,0,0,0-.64-.64h-.65a.64.64,0,0,0-.48.17.58.58,0,0,0-.16.37v3.63h-.83v-4.9Z" transform="translate(61.74 34.35)"/><path class="cls-1" d="M245.78,173.24v-.73h2.28v4.17h1.45v.73h-2.28v-4.17Zm2.33-2.7v.89h-.93v-.89Z" transform="translate(61.74 34.35)"/><path class="cls-1" d="M251.46,172.51v.22a.88.88,0,0,1,.61-.22h.05a1.14,1.14,0,0,1,1,.39,1,1,0,0,1,.85-.39H254a1.16,1.16,0,0,1,.88.3,1.57,1.57,0,0,1,.29,1.08v3.52h-.79v-3.53a1.43,1.43,0,0,0-.08-.56.41.41,0,0,0-.38-.16h-.06a.45.45,0,0,0-.41.2,1.16,1.16,0,0,0-.12.45v3.6h-.78v-3.53a1.15,1.15,0,0,0-.1-.56.38.38,0,0,0-.36-.16h0a.47.47,0,0,0-.42.18.71.71,0,0,0-.12.38v3.69h-.79v-4.9Z" transform="translate(61.74 34.35)"/><path class="cls-1" d="M257.24,172.51v.23a1.21,1.21,0,0,1,.78-.23h.36a1.84,1.84,0,0,1,1.26.36,1.58,1.58,0,0,1,.41,1.21v1.76a1.57,1.57,0,0,1-.41,1.2,1.81,1.81,0,0,1-1.26.37h-1.09v1.67h-.84v-6.57Zm.21.9a.53.53,0,0,0-.16.37v2.9h1.19a.82.82,0,0,0,.55-.17.61.61,0,0,0,.18-.47v-2.16a.61.61,0,0,0-.18-.47.82.82,0,0,0-.55-.17h-.55A.62.62,0,0,0,257.45,173.41Z" transform="translate(61.74 34.35)"/><path class="cls-1" d="M262.23,177.05a1.58,1.58,0,0,1-.41-1.21v-1.76a1.33,1.33,0,0,1,1.57-1.57h.47a1.35,1.35,0,0,1,1.05.38,1.62,1.62,0,0,1,.36,1.14v1.27h-2.61V176a.58.58,0,0,0,.19.47.78.78,0,0,0,.54.17H265v.73h-1.47A1.84,1.84,0,0,1,262.23,177.05Zm2.23-3.22a.58.58,0,0,0-.59-.59h-.57a.68.68,0,0,0-.5.16.74.74,0,0,0-.14.48v.69h1.8Z" transform="translate(61.74 34.35)"/><path class="cls-1" d="M267.9,176.68v-3.44h-.72v-.73h1.51v.26a1.15,1.15,0,0,1,.78-.26h1v.78h-1.11a.58.58,0,0,0-.47.2.71.71,0,0,0-.16.41v2.78h1.07v.73h-2.63v-.73Z" transform="translate(61.74 34.35)"/><path class="cls-1" d="M274.4,177.41H274a1.87,1.87,0,0,1-1.27-.36,1.58,1.58,0,0,1-.4-1.21v-1.76a1.53,1.53,0,0,1,.41-1.2,1.81,1.81,0,0,1,1.26-.37h1.14v-2H276v6.87h-.78v-.22A1.36,1.36,0,0,1,274.4,177.41Zm.58-.9a.58.58,0,0,0,.16-.37v-2.9H273.9a.8.8,0,0,0-.55.17.62.62,0,0,0-.19.47V176a.62.62,0,0,0,.19.47.8.8,0,0,0,.55.17h.6A.65.65,0,0,0,275,176.51Z" transform="translate(61.74 34.35)"/><path class="cls-1" d="M277.59,173.24v-.73h2.28v4.17h1.45v.73H279v-4.17Zm2.33-2.7v.89H279v-.89Z" transform="translate(61.74 34.35)"/><path class="cls-1" d="M283.43,177.05a1.58,1.58,0,0,1-.4-1.21v-1.76a1.33,1.33,0,0,1,1.57-1.57h.46a1.36,1.36,0,0,1,1.06.38,1.62,1.62,0,0,1,.36,1.14v1.27h-2.62V176a.62.62,0,0,0,.19.47.8.8,0,0,0,.55.17h1.56v.73H284.7A1.87,1.87,0,0,1,283.43,177.05Zm2.23-3.22a.58.58,0,0,0-.59-.59h-.57a.65.65,0,0,0-.49.16.69.69,0,0,0-.15.48v.69h1.8Z" transform="translate(61.74 34.35)"/><path class="cls-1" d="M289.66,177.09a1.29,1.29,0,0,1-.27-.85v-3h-.93v-.73h.93v-1.18h.84v1.18h1.43v.73h-1.43v3a.38.38,0,0,0,.1.3.55.55,0,0,0,.34.09h1v.73h-1.24A.9.9,0,0,1,289.66,177.09Z" transform="translate(61.74 34.35)"/><path class="cls-1" d="M300.75,171.36a.26.26,0,0,0-.1.21v.94h1.58v.73h-1.58v3.44h1.19v.73H299v-.73h.84v-3.44H299v-.73h.84v-.89a1.08,1.08,0,0,1,.28-.79,1,1,0,0,1,.74-.29h1.49v.74H301A.37.37,0,0,0,300.75,171.36Z" transform="translate(61.74 34.35)"/><path class="cls-1" d="M304.64,177.05a1.58,1.58,0,0,1-.41-1.21v-1.76a1.34,1.34,0,0,1,1.58-1.57h.46a1.35,1.35,0,0,1,1.05.38,1.62,1.62,0,0,1,.36,1.14v1.27h-2.61V176a.58.58,0,0,0,.19.47.79.79,0,0,0,.55.17h1.56v.73H305.9A1.86,1.86,0,0,1,304.64,177.05Zm2.23-3.22a.58.58,0,0,0-.59-.59h-.57a.68.68,0,0,0-.5.16.74.74,0,0,0-.14.48v.69h1.8Z" transform="translate(61.74 34.35)"/><path class="cls-1" d="M311,177.18a1,1,0,0,1-.25-.75v-5.15H309.3v-.74h2.28v5.84a.27.27,0,0,0,.08.23.37.37,0,0,0,.26.07h1.31v.73h-1.65A.83.83,0,0,1,311,177.18Z" transform="translate(61.74 34.35)"/><path class="cls-1" d="M314.7,173.24v-.73H317v4.17h1.45v.73h-2.29v-4.17Zm2.33-2.7v.89h-.94v-.89Z" transform="translate(61.74 34.35)"/><path class="cls-1" d="M323,177.11a1.73,1.73,0,0,1-1.09.3h-1.47v-.73H322a.67.67,0,0,0,.41-.11.42.42,0,0,0,.13-.33v-.52q0-.45-.42-.45h-.36a1.53,1.53,0,0,1-1-.3,1.21,1.21,0,0,1-.34-.94v-.29a1.1,1.1,0,0,1,.38-.94,1.72,1.72,0,0,1,1.1-.29h1.31v.73h-1.41a.65.65,0,0,0-.39.11.4.4,0,0,0-.15.33V174a.39.39,0,0,0,.13.33.53.53,0,0,0,.34.11H322a1.46,1.46,0,0,1,1,.32,1.26,1.26,0,0,1,.34.95v.44A1.11,1.11,0,0,1,323,177.11Z" transform="translate(61.74 34.35)"/><path class="cls-1" d="M330.45,172.51h.9l1.15,4.23,1.12-4.23h.87l-1.41,4.9h-1.21Z" transform="translate(61.74 34.35)"/><path class="cls-1" d="M335.91,173.24v-.73h2.27v4.17h1.46v.73h-2.29v-4.17Zm2.32-2.7v.89h-.93v-.89Z" transform="translate(61.74 34.35)"/><path class="cls-1" d="M342.67,177.09a1.29,1.29,0,0,1-.27-.85v-3h-.93v-.73h.93v-1.18h.84v1.18h1.43v.73h-1.43v3a.35.35,0,0,0,.11.3.5.5,0,0,0,.33.09h1v.73h-1.23A.92.92,0,0,1,342.67,177.09Z" transform="translate(61.74 34.35)"/><path class="cls-1" d="M349.54,177.34a.92.92,0,0,1-.26-.22.7.7,0,0,1-.6.29h-.88a1.6,1.6,0,0,1-1.08-.3,1.28,1.28,0,0,1-.34-1v-.2c0-1,.48-1.52,1.43-1.52H349v-.49a.58.58,0,0,0-.19-.47.79.79,0,0,0-.55-.17h-1.52v-.73h1.43a1.81,1.81,0,0,1,1.26.37,1.57,1.57,0,0,1,.41,1.2v2.35a.23.23,0,0,0,.11.22.69.69,0,0,0,.38.08v.68h-.54A.61.61,0,0,1,349.54,177.34Zm-.59-.8a.63.63,0,0,0,.08-.35v-1.08H347.8a.57.57,0,0,0-.42.16.6.6,0,0,0-.16.43v.49a.5.5,0,0,0,.11.37.52.52,0,0,0,.38.12h.87C348.78,176.68,348.9,176.63,349,176.54Z" transform="translate(61.74 34.35)"/><path class="cls-1" d="M352.35,177.05a1.58,1.58,0,0,1-.4-1.21v-1.76a1.33,1.33,0,0,1,1.57-1.57H354a1.34,1.34,0,0,1,1,.38,1.62,1.62,0,0,1,.36,1.14v1.27h-2.61V176a.58.58,0,0,0,.19.47.8.8,0,0,0,.55.17h1.56v.73h-1.46A1.87,1.87,0,0,1,352.35,177.05Zm2.23-3.22a.58.58,0,0,0-.59-.59h-.57a.68.68,0,0,0-.5.16.74.74,0,0,0-.14.48v.69h1.8Z" transform="translate(61.74 34.35)"/><path class="cls-1" d="M365.44,177.34a.92.92,0,0,1-.26-.22.7.7,0,0,1-.6.29h-.87a1.63,1.63,0,0,1-1.09-.3,1.31,1.31,0,0,1-.34-1v-.2c0-1,.48-1.52,1.44-1.52h1.22v-.49a.62.62,0,0,0-.19-.47.82.82,0,0,0-.55-.17h-1.52v-.73h1.42a1.81,1.81,0,0,1,1.26.37,1.57,1.57,0,0,1,.41,1.2v2.35a.25.25,0,0,0,.11.22.72.72,0,0,0,.38.08v.68h-.54A.64.64,0,0,1,365.44,177.34Zm-.58-.8a.72.72,0,0,0,.08-.35v-1.08h-1.23a.57.57,0,0,0-.42.16.57.57,0,0,0-.17.43v.49a.43.43,0,0,0,.49.49h.87A.42.42,0,0,0,364.86,176.54Z" transform="translate(61.74 34.35)"/><path class="cls-1" d="M369.75,177.41h-.34a1.64,1.64,0,0,1-1.18-.37,1.6,1.6,0,0,1-.39-1.2v-3.33h.84V176a.62.62,0,0,0,.17.47.64.64,0,0,0,.46.17h.53a.61.61,0,0,0,.47-.16.55.55,0,0,0,.17-.35v-3.66h.84v4.9h-.79v-.22A1.33,1.33,0,0,1,369.75,177.41Z" transform="translate(61.74 34.35)"/><path class="cls-1" d="M373.81,177.05a1.58,1.58,0,0,1-.4-1.21v-1.76a1.57,1.57,0,0,1,.4-1.2,1.85,1.85,0,0,1,1.27-.37h1.26v.73H375a.8.8,0,0,0-.55.17.58.58,0,0,0-.19.47V176a.58.58,0,0,0,.19.47.8.8,0,0,0,.55.17h1.36v.73h-1.26A1.87,1.87,0,0,1,373.81,177.05Z" transform="translate(61.74 34.35)"/><path class="cls-1" d="M379.78,177.09a1.29,1.29,0,0,1-.27-.85v-3h-.93v-.73h.93v-1.18h.84v1.18h1.43v.73h-1.43v3a.35.35,0,0,0,.11.3.5.5,0,0,0,.33.09h1v.73h-1.24A.92.92,0,0,1,379.78,177.09Z" transform="translate(61.74 34.35)"/><path class="cls-1" d="M386.9,177a1.81,1.81,0,0,1-1.26.37h-.32a1.85,1.85,0,0,1-1.27-.37,1.57,1.57,0,0,1-.4-1.2v-1.76a1.57,1.57,0,0,1,.4-1.2,1.85,1.85,0,0,1,1.27-.37h.32a1.81,1.81,0,0,1,1.26.37,1.57,1.57,0,0,1,.41,1.2v1.76A1.57,1.57,0,0,1,386.9,177Zm-.61-3.63a.82.82,0,0,0-.55-.17h-.52a.8.8,0,0,0-.55.17.58.58,0,0,0-.19.47V176a.58.58,0,0,0,.19.47.8.8,0,0,0,.55.17h.52a.82.82,0,0,0,.55-.17.61.61,0,0,0,.18-.47v-2.16A.61.61,0,0,0,386.29,173.41Z" transform="translate(61.74 34.35)"/><path class="cls-1" d="M389.83,176.68v-3.44h-.72v-.73h1.51v.26a1.15,1.15,0,0,1,.78-.26h1v.78H391.3a.58.58,0,0,0-.47.2.71.71,0,0,0-.16.41v2.78h1.07v.73h-2.63v-.73Z" transform="translate(61.74 34.35)"/><path class="cls-1" d="M399.52,173.24v-.73h2.28v4.17h1.45v.73H401v-4.17Zm2.33-2.7v.89h-.93v-.89Z" transform="translate(61.74 34.35)"/><path class="cls-1" d="M405.68,172.51v.23a1.21,1.21,0,0,1,.78-.23h.45a1.66,1.66,0,0,1,1.19.37,1.6,1.6,0,0,1,.38,1.2v3.33h-.83v-3.53a.59.59,0,0,0-.64-.64h-.65a.65.65,0,0,0-.48.17.57.57,0,0,0-.15.37v3.63h-.84v-4.9Z" transform="translate(61.74 34.35)"/><path class="cls-1" d="M411.59,177.09a1.29,1.29,0,0,1-.27-.85v-3h-.93v-.73h.93v-1.18h.84v1.18h1.43v.73h-1.43v3a.38.38,0,0,0,.1.3.55.55,0,0,0,.34.09h1v.73h-1.24A.9.9,0,0,1,411.59,177.09Z" transform="translate(61.74 34.35)"/><path class="cls-1" d="M416,177.05a1.58,1.58,0,0,1-.41-1.21v-1.76a1.62,1.62,0,0,1,.37-1.21,1.66,1.66,0,0,1,1.2-.36h.46a1.36,1.36,0,0,1,1.06.38A1.62,1.62,0,0,1,419,174v1.27H416.4V176a.61.61,0,0,0,.18.47.82.82,0,0,0,.55.17h1.56v.73h-1.46A1.84,1.84,0,0,1,416,177.05Zm2.22-3.22a.57.57,0,0,0-.16-.42.58.58,0,0,0-.43-.17H417a.66.66,0,0,0-.5.16.69.69,0,0,0-.14.48v.69h1.79Z" transform="translate(61.74 34.35)"/><path class="cls-1" d="M421.64,176.68v-3.44h-.72v-.73h1.51v.26a1.15,1.15,0,0,1,.78-.26h1v.78h-1.11a.58.58,0,0,0-.47.2.8.8,0,0,0-.17.41v2.78h1.07v.73h-2.62v-.73Z" transform="translate(61.74 34.35)"/><path class="cls-1" d="M428.14,177.41h-.4a1.87,1.87,0,0,1-1.27-.36,1.58,1.58,0,0,1-.4-1.21v-1.76a1.57,1.57,0,0,1,.4-1.2,1.85,1.85,0,0,1,1.27-.37h1.14v-2h.83v6.87h-.79v-.22A1.31,1.31,0,0,1,428.14,177.41Zm.58-.9a.58.58,0,0,0,.16-.37v-2.9h-1.24a.8.8,0,0,0-.55.17.58.58,0,0,0-.19.47V176a.58.58,0,0,0,.19.47.8.8,0,0,0,.55.17h.6A.65.65,0,0,0,428.72,176.51Z" transform="translate(61.74 34.35)"/><path class="cls-1" d="M433.36,177.41H433a1.66,1.66,0,0,1-1.19-.37,1.64,1.64,0,0,1-.38-1.2v-3.33h.83V176a.59.59,0,0,0,.64.64h.53a.62.62,0,0,0,.47-.16.61.61,0,0,0,.17-.35v-3.66h.83v4.9h-.78v-.22A1.36,1.36,0,0,1,433.36,177.41Z" transform="translate(61.74 34.35)"/><path class="cls-1" d="M437,172.51v.22a.9.9,0,0,1,.61-.22h.06a1.12,1.12,0,0,1,1,.39,1.06,1.06,0,0,1,.86-.39h.06a1.16,1.16,0,0,1,.88.3,1.57,1.57,0,0,1,.28,1.08v3.52h-.78v-3.53a1.43,1.43,0,0,0-.08-.56.42.42,0,0,0-.38-.16h-.06a.44.44,0,0,0-.41.2,1.16,1.16,0,0,0-.12.45v3.6h-.79v-3.53a1,1,0,0,0-.1-.56.36.36,0,0,0-.35-.16h-.06a.46.46,0,0,0-.41.18.72.72,0,0,0-.13.38v3.69h-.78v-4.9Z" transform="translate(61.74 34.35)"/><path class="cls-2" d="M4.75,178.69V171.4H2.89v-.88H7.62v.88H5.76v7.29Z" transform="translate(61.74 34.35)"/><path class="cls-2" d="M12,175.94h-1l-1.14-4.58v7.33H9v-8.17h1.63l.93,4.18.94-4.18h1.58v8.17H13.2v-7.33Z" transform="translate(61.74 34.35)"/><path class="cls-2" d="M19.3,178.19a2.23,2.23,0,0,1-1.56.5H16.08v-.89h1.78a1,1,0,0,0,.7-.26.81.81,0,0,0,.27-.62v-1.21a.88.88,0,0,0-.18-.57.71.71,0,0,0-.55-.21h-.35a1.82,1.82,0,0,1-1.36-.51,2,2,0,0,1-.51-1.48v-.44a1.93,1.93,0,0,1,.55-1.49,2.23,2.23,0,0,1,1.56-.49h1.67v.88H17.87a1,1,0,0,0-.7.26.83.83,0,0,0-.27.62v.89a.85.85,0,0,0,.23.6.82.82,0,0,0,.61.24h.35a1.71,1.71,0,0,1,1.29.48,2,2,0,0,1,.46,1.44v.77A1.93,1.93,0,0,1,19.3,178.19Z" transform="translate(61.74 34.35)"/><path class="cls-2" d="M25.78,175.06a2.15,2.15,0,0,1-1.48.45H23.09v3.18h-1v-8.17h2.21a2.26,2.26,0,0,1,1.5.43,1.75,1.75,0,0,1,.51,1.39v1.33A1.75,1.75,0,0,1,25.78,175.06Zm-.71-3.47a.94.94,0,0,0-.65-.2H23.09v3.25h1.33a.89.89,0,0,0,.65-.21.9.9,0,0,0,.2-.65v-1.55A.89.89,0,0,0,25.07,171.59Z" transform="translate(61.74 34.35)"/><path class="cls-2" d="M30.74,178.69v-1.82h-2.4v-1l1.25-5.34h.94L29.34,176h1.4v-2.66h1V176h.87v.86h-.87v1.82Z" transform="translate(61.74 34.35)"/><path class="cls-2" d="M38.05,178.25a2.19,2.19,0,0,1-1.52.44H35v-.88h1.6a.92.92,0,0,0,.65-.2.88.88,0,0,0,.21-.65v-1.2a.82.82,0,0,0-.23-.62.86.86,0,0,0-.62-.22H35.4V174h1.13a.85.85,0,0,0,.61-.23.84.84,0,0,0,.25-.62v-1a.85.85,0,0,0-.21-.64.9.9,0,0,0-.65-.2H35v-.87h1.35a2.22,2.22,0,0,1,1.5.43,1.75,1.75,0,0,1,.51,1.39v.73a1.56,1.56,0,0,1-.64,1.36,1.5,1.5,0,0,1,.76,1.43v1A1.86,1.86,0,0,1,38.05,178.25Z" transform="translate(61.74 34.35)"/><path class="cls-2" d="M44.63,178.18a2,2,0,0,1-1.43.51H43a2,2,0,0,1-1.43-.51A1.93,1.93,0,0,1,41,176.7v-4.2a2,2,0,0,1,.52-1.48,2,2,0,0,1,1.44-.5h.23a2,2,0,0,1,1.44.5,2,2,0,0,1,.52,1.48v4.2A2,2,0,0,1,44.63,178.18Zm-.74-6.53a1,1,0,0,0-.69-.26H43a1,1,0,0,0-.7.26.86.86,0,0,0-.27.63v3.16l2.17-3.16A.84.84,0,0,0,43.89,171.65Zm-1.62,5.9a1,1,0,0,0,.7.26h.23a1,1,0,0,0,.69-.26.82.82,0,0,0,.28-.63v-3.15L42,176.92A.85.85,0,0,0,42.27,177.55Z" transform="translate(61.74 34.35)"/><path class="cls-2" d="M54.37,175.3v3.39h-1v-8.17h2.19a2.26,2.26,0,0,1,1.5.43,1.75,1.75,0,0,1,.51,1.39v1.12a1.5,1.5,0,0,1-1.05,1.64l1.62,3.59H57l-1.5-3.39Zm2-3.71a.92.92,0,0,0-.65-.2H54.37v3h1.32a.88.88,0,0,0,.65-.21.9.9,0,0,0,.2-.65v-1.34A.89.89,0,0,0,56.34,171.59Z" transform="translate(61.74 34.35)"/><path class="cls-2" d="M63.94,170.52v.85H61.06V174h2.59v.85H61.06v3h2.88v.85H60v-8.17Z" transform="translate(61.74 34.35)"/><path class="cls-2" d="M69.73,178.19a2.23,2.23,0,0,1-1.56.5H66.51v-.89h1.78a1,1,0,0,0,.7-.26.84.84,0,0,0,.26-.62v-1.21a.88.88,0,0,0-.18-.57.67.67,0,0,0-.54-.21h-.35a1.84,1.84,0,0,1-1.37-.51,2,2,0,0,1-.5-1.48v-.44a1.9,1.9,0,0,1,.55-1.49,2.22,2.22,0,0,1,1.55-.49h1.67v.88H68.3a1,1,0,0,0-.7.26.83.83,0,0,0-.27.62v.89a.85.85,0,0,0,.23.6.82.82,0,0,0,.61.24h.35a1.71,1.71,0,0,1,1.29.48,2,2,0,0,1,.46,1.44v.77A1.93,1.93,0,0,1,69.73,178.19Z" transform="translate(61.74 34.35)"/><path class="cls-2" d="M76.55,170.52v.85H73.67V174h2.59v.85H73.67v3h2.88v.85h-3.9v-8.17Z" transform="translate(61.74 34.35)"/><path class="cls-2" d="M80.39,178.69V171.4H78.53v-.88h4.73v.88H81.41v7.29Z" transform="translate(61.74 34.35)"/><path class="cls-2" d="M4.66,187.08v-4.4H4v-.58H6.07v.58H5.35v4.4h.72v.58H4v-.58Z" transform="translate(61.74 34.35)"/><path class="cls-2" d="M8.49,183.69v.19a1,1,0,0,1,.63-.19h.37a1.35,1.35,0,0,1,1,.3,1.33,1.33,0,0,1,.31,1v2.7h-.68V184.8a.48.48,0,0,0-.14-.38.5.5,0,0,0-.37-.14H9a.53.53,0,0,0-.39.14.44.44,0,0,0-.12.3v2.94H7.85v-4Z" transform="translate(61.74 34.35)"/><path class="cls-2" d="M12.09,184.28v-.59h1.84v3.37h1.18v.6H13.26v-3.38ZM14,182.1v.71h-.75v-.71Z" transform="translate(61.74 34.35)"/><path class="cls-2" d="M17.56,187.4a1.09,1.09,0,0,1-.21-.69v-2.43h-.76v-.59h.76v-1H18v1h1.17v.59H18v2.47a.28.28,0,0,0,.09.24.41.41,0,0,0,.27.07h.81v.6h-1A.78.78,0,0,1,17.56,187.4Z" transform="translate(61.74 34.35)"/><path class="cls-2" d="M20.67,184.28v-.59h1.85v3.37h1.17v.6H21.84v-3.38Zm1.89-2.18v.71H21.8v-.71Z" transform="translate(61.74 34.35)"/><path class="cls-2" d="M27.42,187.6a.53.53,0,0,1-.21-.18.6.6,0,0,1-.49.24H26a1.34,1.34,0,0,1-.88-.24,1.07,1.07,0,0,1-.27-.83v-.16c0-.82.39-1.23,1.16-1.23h1v-.4a.48.48,0,0,0-.15-.38.67.67,0,0,0-.45-.14H25.18v-.59h1.15a1.48,1.48,0,0,1,1,.3,1.25,1.25,0,0,1,.33,1v1.91a.18.18,0,0,0,.09.17.6.6,0,0,0,.31.06v.56h-.44A.49.49,0,0,1,27.42,187.6Zm-.48-.65a.49.49,0,0,0,.07-.28v-.88H26a.48.48,0,0,0-.34.14.45.45,0,0,0-.13.34v.4a.41.41,0,0,0,.09.3.45.45,0,0,0,.3.09h.71C26.8,187.06,26.9,187,26.94,187Z" transform="translate(61.74 34.35)"/><path class="cls-2" d="M30.55,187.47a.78.78,0,0,1-.2-.6v-4.18H29.18v-.59H31v4.73a.24.24,0,0,0,.06.18.34.34,0,0,0,.22.05h1.06v.6H31A.64.64,0,0,1,30.55,187.47Z" transform="translate(61.74 34.35)"/><path class="cls-2" d="M33.55,184.28v-.59h1.84v3.37h1.18v.6H34.72v-3.38Zm1.88-2.18v.71h-.75v-.71Z" transform="translate(61.74 34.35)"/><path class="cls-2" d="M40.58,187.66H38.05V187l1.86-2.75h-1.7v-.58h2.44v.7l-1.84,2.68h1.77Z" transform="translate(61.74 34.35)"/><path class="cls-2" d="M42.57,187.36a1.25,1.25,0,0,1-.33-1V185a1.34,1.34,0,0,1,.3-1,1.32,1.32,0,0,1,1-.29h.37a1.08,1.08,0,0,1,.85.31,1.29,1.29,0,0,1,.29.92v1H42.92v.6a.49.49,0,0,0,.15.38.65.65,0,0,0,.45.13h1.26v.6H43.6A1.49,1.49,0,0,1,42.57,187.36Zm1.8-2.6a.45.45,0,0,0-.13-.34.46.46,0,0,0-.34-.14h-.46a.53.53,0,0,0-.4.13.57.57,0,0,0-.12.39v.56h1.45Z" transform="translate(61.74 34.35)"/><path class="cls-2" d="M53.13,187.41a1.35,1.35,0,0,1-.89.25H51.06v-.6h1.26a.52.52,0,0,0,.33-.09.33.33,0,0,0,.11-.26v-.42c0-.24-.11-.36-.34-.36h-.3a1.25,1.25,0,0,1-.83-.24,1,1,0,0,1-.27-.77v-.23a.92.92,0,0,1,.3-.77,1.41,1.41,0,0,1,.89-.23h1.07v.59H52.13a.53.53,0,0,0-.32.09.31.31,0,0,0-.11.27v.29a.33.33,0,0,0,.1.27.49.49,0,0,0,.28.08h.27a1.18,1.18,0,0,1,.81.26,1,1,0,0,1,.28.77v.36A.9.9,0,0,1,53.13,187.41Z" transform="translate(61.74 34.35)"/><path class="cls-2" d="M56.19,187.4a1.09,1.09,0,0,1-.21-.69v-2.43h-.76v-.59H56v-1h.68v1h1.16v.59H56.66v2.47a.28.28,0,0,0,.08.24.41.41,0,0,0,.27.07h.81v.6h-1A.78.78,0,0,1,56.19,187.4Z" transform="translate(61.74 34.35)"/><path class="cls-2" d="M61.75,187.6a.72.72,0,0,1-.21-.18.57.57,0,0,1-.48.24h-.71a1.34,1.34,0,0,1-.88-.24,1.07,1.07,0,0,1-.27-.83v-.16c0-.82.39-1.23,1.16-1.23h1v-.4a.48.48,0,0,0-.16-.38.64.64,0,0,0-.44-.14H59.52v-.59h1.15a1.48,1.48,0,0,1,1,.3,1.25,1.25,0,0,1,.33,1v1.91a.18.18,0,0,0,.09.17.6.6,0,0,0,.31.06v.56H62A.56.56,0,0,1,61.75,187.6Zm-.47-.65a.58.58,0,0,0,.07-.28v-.88h-1a.48.48,0,0,0-.48.48v.4a.34.34,0,0,0,.4.39H61C61.14,187.06,61.24,187,61.28,187Z" transform="translate(61.74 34.35)"/><path class="cls-2" d="M64.24,187.36a1.25,1.25,0,0,1-.33-1V185a1.25,1.25,0,0,1,.33-1,1.48,1.48,0,0,1,1-.3h1v.59H65.18a.64.64,0,0,0-.44.14.48.48,0,0,0-.15.38v1.75a.49.49,0,0,0,.15.38.64.64,0,0,0,.44.13h1.11v.6h-1A1.48,1.48,0,0,1,64.24,187.36Z" transform="translate(61.74 34.35)"/><path class="cls-2" d="M68.69,186v1.7H68V182.1h.68v3l1.25-1.41h.85l-1.39,1.56,1.5,2.41h-.84l-1.16-1.94Z" transform="translate(61.74 34.35)"/><path class="cls-2" d="M72.87,183.69v.19a1,1,0,0,1,.64-.19h.28a1.54,1.54,0,0,1,1,.29,1.27,1.27,0,0,1,.32,1v1.43a1.26,1.26,0,0,1-.33,1,1.48,1.48,0,0,1-1,.3h-.88V189h-.68v-5.32Zm.17.73a.41.41,0,0,0-.13.3v2.34h1a.65.65,0,0,0,.45-.13.49.49,0,0,0,.15-.38V184.8a.48.48,0,0,0-.15-.38.65.65,0,0,0-.45-.14h-.44A.5.5,0,0,0,73,184.42Z" transform="translate(61.74 34.35)"/><path class="cls-2" d="M79.13,187.36a1.48,1.48,0,0,1-1,.3h-.26a1.46,1.46,0,0,1-1-.3,1.26,1.26,0,0,1-.33-1V185a1.25,1.25,0,0,1,.33-1,1.46,1.46,0,0,1,1-.3h.26a1.48,1.48,0,0,1,1,.3,1.25,1.25,0,0,1,.33,1v1.43A1.26,1.26,0,0,1,79.13,187.36Zm-.5-2.94a.64.64,0,0,0-.44-.14h-.42a.65.65,0,0,0-.45.14.48.48,0,0,0-.15.38v1.75a.49.49,0,0,0,.15.38.65.65,0,0,0,.45.13h.42a.64.64,0,0,0,.44-.13.49.49,0,0,0,.15-.38V184.8A.48.48,0,0,0,78.63,184.42Z" transform="translate(61.74 34.35)"/><path class="cls-2" d="M80.76,184.28v-.59h1.85v3.37h1.17v.6H81.93v-3.38Zm1.89-2.18v.71h-.76v-.71Z" transform="translate(61.74 34.35)"/><path class="cls-2" d="M85.75,183.69v.19a1,1,0,0,1,.63-.19h.37a1.35,1.35,0,0,1,1,.3,1.28,1.28,0,0,1,.31,1v2.7h-.67V184.8a.52.52,0,0,0-.14-.38.54.54,0,0,0-.38-.14H86.3a.53.53,0,0,0-.39.14.44.44,0,0,0-.12.3v2.94h-.68v-4Z" transform="translate(61.74 34.35)"/><path class="cls-2" d="M90.53,187.4a1.09,1.09,0,0,1-.21-.69v-2.43h-.76v-.59h.76v-1H91v1h1.16v.59H91v2.47a.28.28,0,0,0,.09.24.41.41,0,0,0,.27.07h.8v.6h-1A.78.78,0,0,1,90.53,187.4Z" transform="translate(61.74 34.35)"/><path class="cls-2" d="M94.08,187.36a1.25,1.25,0,0,1-.33-1V185a1.34,1.34,0,0,1,.3-1,1.31,1.31,0,0,1,1-.29h.38a1.1,1.1,0,0,1,.85.31,1.29,1.29,0,0,1,.29.92v1H94.43v.6a.49.49,0,0,0,.15.38.64.64,0,0,0,.44.13h1.27v.6H95.1A1.46,1.46,0,0,1,94.08,187.36Zm1.8-2.6a.45.45,0,0,0-.13-.34.48.48,0,0,0-.34-.14h-.47a.55.55,0,0,0-.4.13.62.62,0,0,0-.11.39v.56h1.45Z" transform="translate(61.74 34.35)"/><path class="cls-2" d="M98.67,187.06v-2.78h-.58v-.59h1.22v.21a1,1,0,0,1,.63-.21h.82v.63h-.9a.46.46,0,0,0-.38.17.52.52,0,0,0-.13.32v2.25h.86v.6H98.09v-.6Z" transform="translate(61.74 34.35)"/></svg>