<svg id="Layer_1" data-name="Layer 1" xmlns="http://www.w3.org/2000/svg" viewBox="0 0 560 183.94"><defs><style>.cls-1{opacity:0.5;}.cls-2{fill:#bfbfb7;}.cls-3{fill:#1a1a1a;}.cls-4{opacity:0.6;}.cls-5{opacity:0.8;}</style></defs><g class="cls-1"><path class="cls-2" d="M549.46,105.86a1,1,0,0,0-1,1.06s0,.06,0,.1l-11.32,3.72a1.21,1.21,0,0,0-2.2.08l-15.34-3.89a1.94,1.94,0,0,0,0-.34,1.72,1.72,0,1,0-3.43.17,1.63,1.63,0,0,0,.09.45l-10.6,5.27a1.6,1.6,0,0,0-2.85.47l-13.52-1.78c0-.08,0-.15,0-.22a2.3,2.3,0,0,0-.87-1.68l4.33-6.67a1.63,1.63,0,0,0,.74.15,1.62,1.62,0,1,0-1.15-.41L488.11,109a2.28,2.28,0,0,0-1.16-.26,2.32,2.32,0,0,0-2.2,2.44h0l-12.7,2.11a2.3,2.3,0,0,0-2.34-1.7,2.27,2.27,0,0,0-1.53.69L458,104.13a2.68,2.68,0,0,0,.46-1.65.49.49,0,0,0,0-.12l2.44-.46a1.59,1.59,0,0,0,1.58,1,1.6,1.6,0,1,0-1.69-1.52v0l-2.42.46a2.73,2.73,0,0,0-2.55-2l-1.62-17.34a2.66,2.66,0,0,0,1.27-.65l3.06,2.9a1.28,1.28,0,0,0-.17.42,1.24,1.24,0,1,0,2.43.48,1.23,1.23,0,0,0-1.93-1.24l-3.07-2.91a2.75,2.75,0,0,0,.54-1.33l11.16.57A1.89,1.89,0,0,0,469,82.51a1.91,1.91,0,0,0,1.51-.35l5,5.09a1.46,1.46,0,0,0-.2.46,1.24,1.24,0,1,0,1.46-1,1.27,1.27,0,0,0-.92.18l-5-5.09a1.89,1.89,0,0,0,.1-2.23l9.71-8.36a1.7,1.7,0,0,0,.79.4,1.65,1.65,0,0,0,1.74-.76L493,75.11a.76.76,0,0,0-.06.2,1.66,1.66,0,1,0,.26-.62l-9.83-4.25s0-.07,0-.11a1.67,1.67,0,1,0-3.28-.65,1.63,1.63,0,0,0,.21,1.19l-9.71,8.37a1.93,1.93,0,0,0-.9-.46,1.9,1.9,0,0,0-2.23,1.5,0,0,0,0,0,0,0l-11.16-.56A2.73,2.73,0,0,0,451.7,78l-10.42-8.13a2.22,2.22,0,0,0,.3-1.22l0-.18,7-1.69a1.81,1.81,0,0,0,1.77,1.16,1.85,1.85,0,0,0,1.53-1l8.21,2.8a1.93,1.93,0,0,0,0,.24,1.26,1.26,0,0,0,2.51-.13.5.5,0,0,1,0-.12l6.55-2a.8.8,0,0,0,.75.42.82.82,0,0,0,.78-.86.82.82,0,0,0-1.64.09h0l-6.54,2a1.25,1.25,0,0,0-2.22-.09L452,66.44a1.68,1.68,0,0,0,0-.45,1.8,1.8,0,0,0-.94-1.49l1.42-3.34a.67.67,0,0,0,.2,0,.8.8,0,0,0,.77-.85.82.82,0,1,0-1.63.08.78.78,0,0,0,.34.62l-1.43,3.34a1.88,1.88,0,0,0-.63-.08,1.81,1.81,0,0,0-1.72,1.9.44.44,0,0,0,0,.1l-7,1.69a2.24,2.24,0,0,0-2-1.49l-1.26-12.55a2.67,2.67,0,0,0,2.08-2.75,2.65,2.65,0,0,0-1-2l3.87-5.85A2,2,0,0,0,446,41.49a2.87,2.87,0,0,0,0-.31l10.64-3.64a1.7,1.7,0,0,0,1.6.93,1.73,1.73,0,0,0,.89-.31l3.3,3.5a1,1,0,0,0,.15,1.35l-4.11,6.21a1.33,1.33,0,0,0-.68-.15,1.38,1.38,0,0,0-1.3,1.43s0,.06,0,.09l-4.93,1.18a1,1,0,0,0-2,.45,1,1,0,1,0,2.08-.1v0l4.93-1.18a1.36,1.36,0,0,0,2.63-.55,1.32,1.32,0,0,0-.48-1l4.12-6.21a1,1,0,0,0,.48.09,1,1,0,0,0,.73-.35l6.27,3.29a1.32,1.32,0,0,0-.06.49A1.36,1.36,0,0,0,471.68,48h.08l1.45,5.09a1.06,1.06,0,0,0-.6,1,1,1,0,1,0,1-1.09h-.07l-1.44-5.09a1.36,1.36,0,0,0,.89-1.34,1.18,1.18,0,0,0,0-.2L477.86,45a1,1,0,1,0-.14-.47,1,1,0,0,0,0,.16l-4.9,1.41a1.37,1.37,0,0,0-1.3-.78,1.39,1.39,0,0,0-1,.53l-6.27-3.3a1.06,1.06,0,0,0,0-.31,1,1,0,0,0-1.1-1,1.07,1.07,0,0,0-.46.14l-3.3-3.52a1.69,1.69,0,1,0-3-1,.85.85,0,0,0,0,.22l-10.65,3.64a2,2,0,0,0-1.91-1.14h-.08L442,30.8a1.79,1.79,0,1,0-.52.11h.05l1.87,8.8a2,2,0,0,0-1.37,2,2,2,0,0,0,.72,1.42L438.85,49a2.63,2.63,0,0,0-1.42-.32,2.67,2.67,0,0,0-1.72.75L421.93,38.31a2.18,2.18,0,0,0,.3-1.24A2.24,2.24,0,0,0,420.46,35l.78-7.26a1.36,1.36,0,0,0,1.27-1.43,1.23,1.23,0,0,0-.1-.46l8.26-5.3a1.79,1.79,0,0,0,1.47.65,1.82,1.82,0,0,0,1.65-1.35l7,.9h0a1.37,1.37,0,1,0,.06-.47l-7-.9v-.09a1.8,1.8,0,0,0-1.18-1.6L434.18,11h.13a1.36,1.36,0,1,0-1.43-1.29,1.35,1.35,0,0,0,.84,1.18l-1.51,6.66a1.13,1.13,0,0,0-.26,0,1.81,1.81,0,0,0-1.72,1.9,2.19,2.19,0,0,0,.17.68l-8.25,5.29a1.4,1.4,0,0,0-1.07-.44,1.34,1.34,0,0,0-.53.14l-5.69-7.8a1.78,1.78,0,0,0,.56-1.4,1.81,1.81,0,0,0-3.55-.37l-6.95-.9h0a1.37,1.37,0,1,0-1.3,1.43,1.38,1.38,0,0,0,1.24-1l6.95.9a.27.27,0,0,0,0,.09,1.79,1.79,0,0,0,2.67,1.49l5.69,7.8a1.38,1.38,0,0,0-.38,1,1.35,1.35,0,0,0,1,1.23L420,34.94h-.12a2.25,2.25,0,0,0-2.13,2.35l0,.18-15.3,4.4a2.68,2.68,0,1,0-4.26,3L385.29,63.33a2.7,2.7,0,0,0-2.65.07l-5.41-7.58A2.2,2.2,0,0,0,378,54a2.23,2.23,0,0,0-1.05-1.79l3.49-7.14a2.37,2.37,0,0,0,.81.11A2.24,2.24,0,0,0,383.36,43l4-.3a1.28,1.28,0,1,0,0-.33l-4,.3A2.23,2.23,0,0,0,381,40.72a2.51,2.51,0,0,0-.49.08l-3.62-9a1.36,1.36,0,0,0,.71-1.26,1.38,1.38,0,0,0-.51-1l4.23-6.82a.74.74,0,0,0,.33.05.81.81,0,0,0,.78-.87.83.83,0,0,0-1.65.09.8.8,0,0,0,.26.55l-4.23,6.83a1.41,1.41,0,0,0-.64-.13,1.37,1.37,0,1,0,.42,2.68l3.61,9a2.25,2.25,0,0,0-.22,4L376.52,52a2.19,2.19,0,0,0-.88-.13,2.24,2.24,0,0,0-1.8,1.06l-3.41-1.65a1.44,1.44,0,0,0,.08-.55,1.58,1.58,0,0,0-1.67-1.5l-.18,0-1.24-4.44a1.25,1.25,0,0,0-.55-2.4,1.25,1.25,0,1,0,.13,2.5h.1l1.24,4.44a1.58,1.58,0,0,0-1,1.55A1.6,1.6,0,0,0,369,52.43a1.63,1.63,0,0,0,1.23-.69l3.4,1.64a2.35,2.35,0,0,0-.12.88,2.22,2.22,0,0,0,3.34,1.83l5.41,7.6a2.65,2.65,0,0,0-.91,1.94l-20,1.67a2.69,2.69,0,0,0-1.06-1.63l1.17-1.9a1.24,1.24,0,0,0,.51.08,1.32,1.32,0,1,0-.83-.25L360,65.48a2.65,2.65,0,0,0-2.69.11l-3.65-4.73a1.72,1.72,0,0,0,.48-1.25A1.69,1.69,0,0,0,353,58.12l1.25-5.29h.18a1.26,1.26,0,1,0-.13-2.51,1.29,1.29,0,0,0-.51.14l-3-5.1a1.24,1.24,0,0,0,.15-1.88l5-6.17a.82.82,0,0,0,.44.1.83.83,0,0,0,.79-.86.83.83,0,1,0-1.45.58l-5,6.17a1.18,1.18,0,0,0-.74-.2,1.26,1.26,0,0,0,.13,2.51,1.36,1.36,0,0,0,.44-.11l3,5.12a1.24,1.24,0,0,0,.35,2.12L352.68,58l-.3,0a1.69,1.69,0,0,0-1.34.8L347.2,57a.9.9,0,0,0,.05-.37,1.13,1.13,0,1,0-1.07,1.18,1.1,1.1,0,0,0,.87-.48l3.84,1.82a1.71,1.71,0,0,0-.09.64,1.66,1.66,0,0,0,1.75,1.58,1.59,1.59,0,0,0,.73-.21l3.65,4.73a2.69,2.69,0,0,0-.76,1.22l-3-.67c0-.05,0-.11,0-.17a1.32,1.32,0,1,0-2.63.14,1.31,1.31,0,0,0,1.38,1.24,1.33,1.33,0,0,0,1.17-.86l3,.67a3.25,3.25,0,0,0,0,.54,2.67,2.67,0,0,0,.91,1.88l-9.36,13.8a2.67,2.67,0,0,0-3.89,2.4l-12.9,1.67a2.24,2.24,0,0,0-2.27-1.63,2.19,2.19,0,0,0-1.4.6l-9.76-7.87a2.65,2.65,0,0,0,.4-1.55s0-.08,0-.12l5.95-1.11a1.64,1.64,0,0,0,3,.27l6.34,2.44a1.69,1.69,0,0,0,0,.23,1.13,1.13,0,1,0,1.07-1.18,1.1,1.1,0,0,0-.88.5l-6.35-2.43a1.68,1.68,0,0,0,0-.45,1.57,1.57,0,0,0-.23-.74l2.47-1.78a1.06,1.06,0,0,0,.85.34,1.12,1.12,0,1,0-1.18-1.06,1.22,1.22,0,0,0,.13.46l-2.46,1.77a1.64,1.64,0,0,0-2.88,1.16l-5.95,1.12A2.62,2.62,0,0,0,317,75.5l8.75-10.88a2.17,2.17,0,0,0,1.33.36,2.24,2.24,0,0,0,.57-4.38l2-9.73h.18a1.68,1.68,0,0,0,1.58-1.76,1.65,1.65,0,0,0-.14-.58l5.94-3.31a1.28,1.28,0,0,0,1.07.51,1.26,1.26,0,0,0,1.19-1.32,1.26,1.26,0,0,0-2.51.12,1.3,1.3,0,0,0,.09.4l-5.94,3.31a1.67,1.67,0,0,0-1.45-.71,1.61,1.61,0,0,0-.62.15l-3.69-6.23a1.24,1.24,0,0,0,.48-1,1.27,1.27,0,0,0-1.32-1.2,1.25,1.25,0,0,0-1.19,1.32,1.24,1.24,0,0,0,1.31,1.19,1,1,0,0,0,.43-.1l3.69,6.23a1.67,1.67,0,0,0,.43,2.92l-2,9.73-.33,0a2.24,2.24,0,0,0-1.47,3.83L316.61,75.2a2.7,2.7,0,0,0-1.63-.45,2.94,2.94,0,0,0-.67.12L312.8,71a1.67,1.67,0,1,0-2.44-1.39,1.67,1.67,0,0,0,1.75,1.58,1.93,1.93,0,0,0,.36-.06L314,75a2.71,2.71,0,0,0-1.4,1.59l-15.95-3.1c0-.07,0-.14,0-.21a2.26,2.26,0,0,0-1.78-2.08l.65-4.43a1.13,1.13,0,0,0,.26,0,2.23,2.23,0,0,0,1.29-4l4-6.06a1.17,1.17,0,0,0,.53.11,1.13,1.13,0,0,0,1.07-1.11l4.72-.63a1,1,0,0,0,1,.65.93.93,0,0,0,.89-1,.94.94,0,0,0-1.88,0l-4.73.63a1.12,1.12,0,0,0-1.13-.81l-.09,0L300,49.69a1,1,0,0,0,.53-.9,1,1,0,0,0-1-.89.94.94,0,1,0,.1,1.88h.05l1.45,4.93a1.11,1.11,0,0,0-.66,1.07,1.15,1.15,0,0,0,.37.78l-4,6a2.28,2.28,0,0,0-1.25-.31,2.24,2.24,0,0,0-1.68.91l-.18.28a2.23,2.23,0,0,0,1.5,3.25l-.64,4.43a2.18,2.18,0,0,0-2.39,2.23l-9.2,1.44c-.05-.15-.1-.29-.16-.43v0l0,0a2.74,2.74,0,0,0-1.06-1.1l1.38-3.5a1.11,1.11,0,0,0,.26,0,1.19,1.19,0,0,0,1.13-1.24.68.68,0,0,0,0-.14l3.11-.93a.82.82,0,0,0,.76.43.83.83,0,1,0-.08-1.66.84.84,0,0,0-.79.88h0l-3.11.93a1.18,1.18,0,0,0-1-.64l-.43-5.3a1.19,1.19,0,1,0-.35,0L283,67.4a1.19,1.19,0,0,0-.37,2.15L281.24,73a2.63,2.63,0,0,0-1-.15,2.69,2.69,0,0,0-2.54,2.82,2.34,2.34,0,0,0,.07.45l0,.09a3,3,0,0,0,.13.39l-8.14,4.77a2.2,2.2,0,0,0-1.82-.8,1.08,1.08,0,0,0-.19,0l-1.86-8.08a2.27,2.27,0,0,0,1.34-1.14,2.31,2.31,0,0,0-.13-2.32l5.81-4.59a2,2,0,1,0,2.38-3.21,2.38,2.38,0,0,0-.49-.17l1-8.62a1.47,1.47,0,0,0,1.25-.78,1.44,1.44,0,1,0-1.95.62,1.31,1.31,0,0,0,.29.11l-1,8.62a2,2,0,0,0-1.73,3.1l-5.82,4.59a2.12,2.12,0,0,0-.62-.47,2.32,2.32,0,0,0-2.3.11l-6.24-8.08a2.42,2.42,0,0,0,.49-.64,2.31,2.31,0,0,0-1-3.12,2.26,2.26,0,0,0-1.1-.24l-1.21-11.52a1.92,1.92,0,0,0,1.32-1,1.95,1.95,0,1,0-2.62.84,1.88,1.88,0,0,0,.89.21l1.21,11.51a2.28,2.28,0,0,0-1.61,1.2,2.24,2.24,0,0,0-.21.65l-6.24-.55a1.35,1.35,0,1,0-.14.71,1.82,1.82,0,0,0,.11-.3l6.23.55a2.3,2.3,0,0,0,3.55,1.95l6.24,8.08a2.21,2.21,0,0,0-.67,1.13L258,69a1.35,1.35,0,0,0-.74-1.24,1.37,1.37,0,1,0,.59,1.84.7.7,0,0,0,.08-.2l4.92.8a2.31,2.31,0,0,0,1.25,2.22,2.28,2.28,0,0,0,1.39.23l1.86,8.08A2.23,2.23,0,0,0,266,82.1L250,79c0-.11,0-.21,0-.32a2.68,2.68,0,0,0-2.82-2.54,2.62,2.62,0,0,0-1.72.75L235.71,69a2.24,2.24,0,0,0,.31-1.25,2.12,2.12,0,0,0-.21-.84L239,65a1.11,1.11,0,0,0,.87.35,1.13,1.13,0,1,0-.11-2.25,1.14,1.14,0,0,0-1.07,1.18,1.55,1.55,0,0,0,.06.31l-3.22,2a2.23,2.23,0,0,0-3-.51l-4.14-5a1.2,1.2,0,0,0,.18-.26,1.36,1.36,0,0,0-.59-1.84l1.44-4.64a1.37,1.37,0,0,0,.93-2.55,1.34,1.34,0,0,0-1.26,0l-4.05-6a1.12,1.12,0,1,0-1.84-.8A1.11,1.11,0,0,0,224.4,46a1,1,0,0,0,.24,0l4.09,6a1.54,1.54,0,0,0-.21.29,1.38,1.38,0,0,0,.48,1.77l-1.46,4.69a1.36,1.36,0,0,0-.79,2.57,1.34,1.34,0,0,0,1.29,0l4.14,5a2.24,2.24,0,0,0-.64,1.53l-12.9,1.67a2.68,2.68,0,0,0-2.74-2,2.73,2.73,0,0,0-1.06.28l-4.4-7.17a1.65,1.65,0,0,0,.59-1.35,1.59,1.59,0,0,0-.64-1.21l2.5-4.37a1.23,1.23,0,0,0,.39.06,1.13,1.13,0,1,0-1.18-1.07,1.15,1.15,0,0,0,.37.78L210,57.82a1.57,1.57,0,0,0-.69-.12,1.67,1.67,0,0,0-1.46,1.07l-7.61-1.67V57a1.13,1.13,0,1,0-2.25.11,1.14,1.14,0,0,0,1.18,1.07,1.1,1.1,0,0,0,1-.66l7.63,1.68a.66.66,0,0,0,0,.2A1.64,1.64,0,0,0,209.46,61a1.7,1.7,0,0,0,.57-.13L214.44,68a2.67,2.67,0,0,0-.17,4.16L204.92,86a2.57,2.57,0,0,0-2.06-.16L201,81.4a1.11,1.11,0,0,0,.47-1,1.13,1.13,0,0,0-.47-.85l1.87-3.69a.63.63,0,0,0,.24,0,.83.83,0,0,0,.79-.86.83.83,0,1,0-1.66.08.86.86,0,0,0,.31.6l-1.87,3.69a1,1,0,0,0-.39,0,1.07,1.07,0,0,0-.73.32L195.3,76.6a1,1,0,0,0,.12-.57A1.13,1.13,0,0,0,194.34,75l-.74-5.64a.82.82,0,0,0-.32-1.6.75.75,0,0,0-.39.12l-4.17-5a.81.81,0,0,0,.21-.59.83.83,0,0,0-1.66.09.84.84,0,0,0,.87.78.73.73,0,0,0,.39-.13l4.18,5a.8.8,0,0,0-.21.59.81.81,0,0,0,.75.78L194,75a1.11,1.11,0,0,0-.76.78l-3.37-.55a.13.13,0,0,0,0-.06.84.84,0,1,0,0,.29l3.36.55v.12a1.11,1.11,0,0,0,1.18,1.06,1.07,1.07,0,0,0,.73-.32L199.3,80a1.09,1.09,0,0,0-.13.57,1.12,1.12,0,0,0,1.18,1.06l.16,0L202.43,86A2.68,2.68,0,0,0,201,88.28L181,90a2.63,2.63,0,0,0-.69-1.28l4-4.67a1.64,1.64,0,0,0,.93.24,1.59,1.59,0,1,0-1.67-1.51,1.53,1.53,0,0,0,.39,1L180,88.37a2.67,2.67,0,0,0-1.7-.5l-.18,0L176,78.06a2.22,2.22,0,0,0,1.53-2.23,2.18,2.18,0,0,0-1-1.74L180.24,67a1.58,1.58,0,0,0,.72.11,1.81,1.81,0,1,0-.18-3.61,1.54,1.54,0,0,0-.3,0l-2.21-7a1.12,1.12,0,0,0,0-2l2.5-6.87.28,0a1.13,1.13,0,0,0,1.07-1.18.85.85,0,0,0,0-.23l5.54-2.39a.86.86,0,0,0,.72.35.83.83,0,0,0-.08-1.65.83.83,0,0,0-.79.86.51.51,0,0,0,0,.13L182,46a1.13,1.13,0,0,0-1-.54l-.14,0-1.7-5.09a.82.82,0,1,0-1.24-.67.84.84,0,0,0,.87.79h.06l1.7,5.08a1.11,1.11,0,0,0,0,2L178,54.46a.86.86,0,0,0-.28,0,1.12,1.12,0,0,0-.94.61l-6.93-2.32a1,1,0,0,0,0-.25,1.13,1.13,0,0,0-1.18-1.07,1.07,1.07,0,0,0-.44.12L165,46.9a.84.84,0,0,0,.23-.61.83.83,0,0,0-1.66.09.84.84,0,0,0,.87.78,1,1,0,0,0,.29-.07L168,51.72a1.11,1.11,0,0,0-.35.87,1.13,1.13,0,0,0,1.18,1.07,1.15,1.15,0,0,0,.94-.62l6.93,2.33a2,2,0,0,0,0,.25,1.11,1.11,0,0,0,1.18,1.06l.12,0,2.22,7a1.8,1.8,0,0,0-.35,3.13l-3.75,7.06a2.14,2.14,0,0,0-.95-.16,2.25,2.25,0,1,0,.23,4.49l.14,0L177.65,88a2.63,2.63,0,0,0-1.48,1.11l-10.63-5.23a2.41,2.41,0,0,0,.14-.89,2.25,2.25,0,0,0-2.12-2.12l-.33-6.48a1.42,1.42,0,0,0-.39-2.81,1.41,1.41,0,0,0-.87.37l-4.22-3.63a2,2,0,0,0,.35-1.2,1.9,1.9,0,0,0-1.82-1.79l-.32-6.1a1.42,1.42,0,0,0-.31-2.82,1.36,1.36,0,0,0-.6.18l-4-7.21a.91.91,0,0,0,.32-.75.93.93,0,0,0-1-.87.92.92,0,0,0-.87,1,.9.9,0,0,0,1,.87.85.85,0,0,0,.23,0l4,7.25a1.42,1.42,0,0,0,.87,2.45l.31,6.1a1.89,1.89,0,0,0-1.55,1.36l-6.14-1.31a1.21,1.21,0,1,0-1.14,1.08,1.19,1.19,0,0,0,1.09-.84l6.13,1.3a2.36,2.36,0,0,0,0,.38,1.91,1.91,0,0,0,2,1.8,2,2,0,0,0,1.21-.53l4.22,3.63a1.46,1.46,0,0,0-.24.85,1.42,1.42,0,0,0,1.26,1.34l.33,6.49a2.23,2.23,0,0,0-1.89,2.27l-6.55.65a1.24,1.24,0,1,0,0,.33l6.56-.65a2.24,2.24,0,0,0,4.1.8L176,89.51a2.71,2.71,0,0,0-.21,1.17s0,.09,0,.14l-3.07.59a1.59,1.59,0,0,0-3.08.6,1.59,1.59,0,0,0,3.18-.14l3.06-.58a2.72,2.72,0,0,0,.77,1.24L163.69,111a2.61,2.61,0,0,0-1.39-.31,2.67,2.67,0,0,0-1.09.29l-1.3-2.14a1.35,1.35,0,0,0-.22-2.34l1.36-5h.25a1.4,1.4,0,1,0-.59-.11l-1.36,5a1,1,0,0,0-.3,0,1.37,1.37,0,0,0-1.23,1l-2.77-.82v0a.83.83,0,0,0-.87-.79.84.84,0,0,0-.78.87.83.83,0,0,0,1.58.3l2.78.83v.12a1.38,1.38,0,0,0,1.43,1.3,1.67,1.67,0,0,0,.4-.09l1.31,2.16a2.68,2.68,0,0,0-1.14,2.33,1.27,1.27,0,0,0,0,.28l-15.29,4.39a2.23,2.23,0,0,0-3.56-.71l-13.78-11.09a2.67,2.67,0,0,0,.39-1.54.49.49,0,0,0,0-.12l8.49-1.58a2.24,2.24,0,0,0,4,.57l5,2.51a1.17,1.17,0,0,0-.07.46,1.26,1.26,0,1,0,1.19-1.32,1.23,1.23,0,0,0-1,.54l-5-2.5a2.15,2.15,0,0,0,.19-1,2.25,2.25,0,0,0-.74-1.56L144,94.87a1.81,1.81,0,1,0-1-1.5,1.76,1.76,0,0,0,.57,1.22l-4.28,5.92a2.27,2.27,0,0,0-1.23-.3,2.24,2.24,0,0,0-2.13,2.36v.06l-8.48,1.57a2.69,2.69,0,0,0-2.52-2l-1.26-12.54a2.26,2.26,0,0,0,1.62-1.64l2.52.42v.08a1.22,1.22,0,1,0,.06-.43l-2.52-.42c0-.11,0-.21,0-.31a2.27,2.27,0,0,0-1.25-1.9l2.24-6.85a2.85,2.85,0,0,0,.66,0,2.72,2.72,0,0,0,2.38-3.78l4.7-2.47a1.78,1.78,0,0,0,1.57.77,1.81,1.81,0,1,0-1.9-1.71,1.78,1.78,0,0,0,.11.52l-4.7,2.47a2.73,2.73,0,0,0-2.44-1.26l-.4,0-2-6.86a1.79,1.79,0,0,0,.34-3.09l2.48-4.41a1.44,1.44,0,0,0,.55.08,1.42,1.42,0,0,0,1.35-1.5,1.09,1.09,0,0,0,0-.25l4.69-1.76a1.21,1.21,0,1,0-.15-.52.58.58,0,0,0,0,.19l-4.69,1.76a1.41,1.41,0,0,0-1.33-.76l-.18,0-2.85-9a1.42,1.42,0,1,0-.52.13l.18,0,2.85,9a1.4,1.4,0,0,0-.83,1.36,1.43,1.43,0,0,0,.53,1l-2.48,4.41a1.9,1.9,0,0,0-.76-.13,1.81,1.81,0,1,0,.18,3.62,1.08,1.08,0,0,0,.19,0l2,6.87a2.73,2.73,0,0,0-.16,5L123.5,85.3a2,2,0,0,0-.49,0,2.21,2.21,0,0,0-1.43.62l-10.42-8.13a2.73,2.73,0,0,0-2.26-4.13L107.28,56.3a2.73,2.73,0,0,0,.73-5.07l3.5-8a1.57,1.57,0,0,0,.49.06,1.62,1.62,0,1,0-.93-.25l-3.5,8a2.58,2.58,0,0,0-1-.14,2.75,2.75,0,0,0-1.83.84L94.57,43.59a2.39,2.39,0,0,0,.37-1.37,2.29,2.29,0,0,0-3-2.1l-4-9.87a1.6,1.6,0,0,0,.78-1.45A1.63,1.63,0,0,0,88,27.54l2-3.84a1.4,1.4,0,0,0,.41.06,1.1,1.1,0,0,0,1-1.15,1.09,1.09,0,1,0-1.73.93l-2,3.85a1.53,1.53,0,0,0-.67-.11,1.58,1.58,0,0,0-1,.45L80,22.68a1.19,1.19,0,0,0,.19-.7,1.22,1.22,0,0,0-1.27-1.15,1.19,1.19,0,0,0-1.11,1L71.9,21.3a1.2,1.2,0,0,0-2-.83L64.35,15.7a1.06,1.06,0,1,0-.22.25l5.55,4.77a1.24,1.24,0,0,0-.19.71,1.2,1.2,0,0,0,2.38.2l5.86.48A1.22,1.22,0,0,0,79,23.25a1.25,1.25,0,0,0,.75-.32l6,5.06a1.53,1.53,0,0,0-.27,1,1.61,1.61,0,0,0,1.68,1.52,1.57,1.57,0,0,0,.3-.05l4,9.87a2.31,2.31,0,0,0-1.22,2.15v0L77.62,44.59a2.31,2.31,0,0,0-4.47,0L59.62,42.82v0a1.61,1.61,0,0,0-1.68-1.52,1.6,1.6,0,0,0-.83.29l-6.5-6.84a1,1,0,0,0,.2-.66,1,1,0,1,0-.44.89l6.49,6.82a1.58,1.58,0,0,0-.44,1.18,1.11,1.11,0,0,0,.08.41L45.9,48.61a1.71,1.71,0,0,0-3,.38L27.52,45.1a.61.61,0,0,0,0-.19,1.21,1.21,0,0,0-1.26-1.15A1.22,1.22,0,0,0,25.12,45s0,.1,0,.15L13.82,48.91a1,1,0,0,0-.94-.54,1,1,0,0,0-1,1.06,1,1,0,1,0,2-.1s0-.07,0-.1L25.24,45.5a1.23,1.23,0,0,0,1.15.68,1.2,1.2,0,0,0,1.05-.76l15.35,3.9a1.27,1.27,0,0,0,0,.34,1.72,1.72,0,0,0,3.43-.17,1.79,1.79,0,0,0-.09-.46l10.6-5.26a1.59,1.59,0,0,0,2.84-.47l13.53,1.78c0,.07,0,.14,0,.22A2.32,2.32,0,0,0,73.94,47l-4.33,6.67a1.63,1.63,0,0,0-.74-.15A1.61,1.61,0,1,0,70.55,55,1.56,1.56,0,0,0,70,53.9l4.32-6.67a2.31,2.31,0,0,0,3.37-2.17h0L90.39,43a2.32,2.32,0,0,0,2.35,1.7A2.36,2.36,0,0,0,94.27,44l10.16,8.15a2.8,2.8,0,0,0-.46,1.66s0,.08,0,.12l-2.45.46a1.6,1.6,0,0,0-3.09.65,1.6,1.6,0,0,0,3.2-.16v0l2.42-.46a2.74,2.74,0,0,0,2.55,2l1.61,17.33a2.78,2.78,0,0,0-1.26.66l-3.07-2.91a1.15,1.15,0,0,0,.17-.41,1.23,1.23,0,1,0-2.42-.49,1.23,1.23,0,0,0,1.93,1.25l3.07,2.91a2.71,2.71,0,0,0-.54,1.33L95,75.46a1.92,1.92,0,0,0-1.52-1.73,1.87,1.87,0,0,0-1.51.36L87,69a1.18,1.18,0,0,0,.19-.46,1.23,1.23,0,1,0-.53.79l5,5.1a1.84,1.84,0,0,0-.1,2.23L81.77,85a1.65,1.65,0,0,0-2.54.36l-9.81-4.24a1.39,1.39,0,0,0,.06-.19,1.66,1.66,0,1,0-.26.62L79,85.8l0,.12a1.67,1.67,0,0,0,3.28.65,1.71,1.71,0,0,0-.22-1.2L91.79,77a1.85,1.85,0,0,0,.9.46A1.89,1.89,0,0,0,94.92,76a.06.06,0,0,1,0,0l11.16.57A2.74,2.74,0,0,0,109,79.09a2.78,2.78,0,0,0,1.8-.8l10.41,8.12a2.31,2.31,0,0,0-.29,1.23,1.13,1.13,0,0,0,0,.18l-7,1.69a1.8,1.8,0,0,0-3.3-.15l-8.22-2.8a1.94,1.94,0,0,0,0-.24,1.26,1.26,0,1,0-2.51.13.5.5,0,0,0,0,.12l-6.55,2a.84.84,0,0,0-.76-.42.82.82,0,0,0,.09,1.64.81.81,0,0,0,.77-.86v0l6.55-2a1.26,1.26,0,0,0,1.2.73,1.28,1.28,0,0,0,1-.64l8.21,2.81a2.12,2.12,0,0,0,0,.44,1.81,1.81,0,0,0,.94,1.5L110,95.09a.58.58,0,0,0-.19,0,.82.82,0,1,0,.86.78.81.81,0,0,0-.34-.62l1.43-3.34a1.88,1.88,0,0,0,.63.08,1.81,1.81,0,0,0,1.72-1.9.44.44,0,0,1,0-.1l7-1.69a2.26,2.26,0,0,0,2,1.49l1.26,12.54A2.69,2.69,0,0,0,123.2,107l-3.87,5.84a2.1,2.1,0,0,0-1-.22,2,2,0,0,0-1.9,2.11,1.13,1.13,0,0,0,0,.32l-10.65,3.63a1.66,1.66,0,0,0-1.59-.92,1.62,1.62,0,0,0-.89.31l-3.3-3.51a1.06,1.06,0,0,0,.18-.63,1,1,0,0,0-.34-.71L104,107a1.41,1.41,0,0,0,.68.15,1.37,1.37,0,0,0,1.29-1.44s0,0,0-.08l4.93-1.18a1,1,0,0,0,1,.63,1,1,0,1,0-1.09-1v0l-4.93,1.19a1.35,1.35,0,0,0-1.34-.89,1.38,1.38,0,0,0-1.3,1.43,1.4,1.4,0,0,0,.48,1l-4.12,6.21a.94.94,0,0,0-.48-.1,1,1,0,0,0-.72.36L92.13,110a1.27,1.27,0,0,0,.07-.48,1.36,1.36,0,0,0-1.43-1.29h-.09l-1.45-5.1a1,1,0,0,0,.6-1,1,1,0,1,0-2.07.1,1,1,0,0,0,1.09,1h.06l1.45,5.09a1.36,1.36,0,0,0-.89,1.34l0,.2-4.91,1.42a1,1,0,0,0-1-.52,1.05,1.05,0,0,0-1,1.09,1,1,0,1,0,2.08-.1.78.78,0,0,0,0-.16l4.89-1.41a1.37,1.37,0,0,0,1.31.77,1.32,1.32,0,0,0,1-.53l6.28,3.3a.83.83,0,0,0,0,.31,1,1,0,0,0,1.09,1,1.07,1.07,0,0,0,.47-.14l3.3,3.51a1.69,1.69,0,1,0,3,1,1.85,1.85,0,0,0,0-.23l10.64-3.63a2,2,0,0,0,1.92,1.14h.07l1.87,8.8a1.78,1.78,0,1,0,.51-.11h0l-1.87-8.79a2,2,0,0,0,.65-3.43l3.87-5.84a2.64,2.64,0,0,0,3.14-.43l13.78,11.08a2.33,2.33,0,0,0-.31,1.25,2.25,2.25,0,0,0,1.77,2.07l-.78,7.27A1.34,1.34,0,0,0,140,130.4l2.24.42a1.36,1.36,0,0,0-.6-2.25l.78-7.26a.41.41,0,0,1,.11,0A2.24,2.24,0,0,0,144.7,119c0-.06,0-.12,0-.17l15.29-4.4a2.68,2.68,0,0,0,5.15-1.19,2.67,2.67,0,0,0-.88-1.85l12.92-18.43a2.73,2.73,0,0,0,1.4.32,2.67,2.67,0,0,0,1.25-.39l5.4,7.59a2.23,2.23,0,0,0,.3,3.58L182,111.15a2.21,2.21,0,0,0-.81-.11,2.23,2.23,0,0,0-2.12,2.24l-4,.31a1.25,1.25,0,0,0-2.48.32,1.25,1.25,0,0,0,2.5,0l4-.3a2.26,2.26,0,0,0,2.33,1.91,2,2,0,0,0,.49-.09l3.61,9a1.36,1.36,0,0,0-.19,2.25l0,0,.25.22.06-.09a1.36,1.36,0,0,0,1.94-1.31,1.37,1.37,0,0,0-1.44-1.29,1.26,1.26,0,0,0-.28,0l-3.61-9a2.24,2.24,0,0,0,.21-4l3.48-7.12a2.14,2.14,0,0,0,.88.13,2.23,2.23,0,0,0,1.79-1.06l3.41,1.65a1.63,1.63,0,0,0-.07.55,1.59,1.59,0,0,0,1.67,1.5l.18,0,1.23,4.45a1.24,1.24,0,0,0-.76,1.21,1.26,1.26,0,1,0,1.19-1.32l-.11,0-1.23-4.45a1.58,1.58,0,1,0-1.89-2.36l-3.41-1.65a2.09,2.09,0,0,0,.13-.87,2.25,2.25,0,0,0-2.36-2.13,2.29,2.29,0,0,0-1,.29l-5.41-7.59a2.69,2.69,0,0,0,.91-1.94l20-1.67a2.72,2.72,0,0,0,1.06,1.63L201,92.47a1.26,1.26,0,0,0-.52-.07,1.31,1.31,0,1,0,1.38,1.24,1.32,1.32,0,0,0-.55-1l1.17-1.88a2.59,2.59,0,0,0,1.39.31,2.54,2.54,0,0,0,1.3-.42l3.65,4.74a1.65,1.65,0,0,0-.48,1.25,1.68,1.68,0,0,0,1.11,1.49l-1.26,5.29a.49.49,0,0,0-.17,0,1.26,1.26,0,1,0,.12,2.51,1.21,1.21,0,0,0,.51-.14l3,5.1a1.26,1.26,0,0,0-.5,1.07,1.19,1.19,0,0,0,.36.81l-5,6.17a.76.76,0,0,0-.45-.11.83.83,0,0,0-.78.87.83.83,0,0,0,1.65-.09.77.77,0,0,0-.2-.49l5-6.17a1.23,1.23,0,0,0,.74.2,1.26,1.26,0,1,0-.13-2.51,1.29,1.29,0,0,0-.44.11l-3-5.12a1.25,1.25,0,0,0-.35-2.12l1.26-5.29a1.48,1.48,0,0,0,.3,0,1.65,1.65,0,0,0,1.33-.79l3.84,1.82a1.14,1.14,0,0,0,1.14,1.44,1.13,1.13,0,1,0-1-1.76l-3.84-1.83a1.67,1.67,0,0,0-1.67-2.22,1.83,1.83,0,0,0-.73.22l-3.64-4.73a2.74,2.74,0,0,0,.75-1.23l3,.67a1,1,0,0,0,0,.17,1.32,1.32,0,1,0,2.63-.13,1.32,1.32,0,0,0-2.55-.39l-3-.66a2.45,2.45,0,0,0,0-.54,2.69,2.69,0,0,0-.91-1.88l9.35-13.8a2.82,2.82,0,0,0,1.36.29,2.68,2.68,0,0,0,2.54-2.69l12.9-1.67a2.23,2.23,0,0,0,3.67,1l9.76,7.87a2.62,2.62,0,0,0-.4,1.54s0,.08,0,.12l-5.95,1.12a1.65,1.65,0,0,0-3-.28l-6.35-2.43a.89.89,0,0,0,0-.23,1.12,1.12,0,0,0-2.24.12,1.12,1.12,0,0,0,2.06.55l6.35,2.44a1.64,1.64,0,0,0,0,.45,1.6,1.6,0,0,0,.22.73l-2.46,1.78a1.15,1.15,0,0,0-.86-.34,1.13,1.13,0,1,0,1.18,1.07,1,1,0,0,0-.12-.46l2.46-1.78a1.6,1.6,0,0,0,1.31.56,1.64,1.64,0,0,0,1.57-1.72l5.95-1.11a2.67,2.67,0,0,0,.72,1.21l-8.76,10.87a2.24,2.24,0,1,0-1.89,4l-2,9.74h-.18a1.68,1.68,0,0,0-1.59,1.75,1.83,1.83,0,0,0,.14.58L225.26,111a1.26,1.26,0,0,0-2.26.82,1.25,1.25,0,0,0,1.32,1.19,1.26,1.26,0,0,0,1.19-1.32,1.59,1.59,0,0,0-.09-.39l5.93-3.32a1.67,1.67,0,0,0,1.46.72,1.62,1.62,0,0,0,.62-.16l3.69,6.23A1.25,1.25,0,0,0,238,117a1.26,1.26,0,1,0-.13-2.51,1.19,1.19,0,0,0-.42.11l-3.7-6.24a1.66,1.66,0,0,0-.42-2.91l2-9.73a1.76,1.76,0,0,0,.33,0,2.23,2.23,0,0,0,1.46-3.83L245.84,81a2.62,2.62,0,0,0,1.63.46,2.94,2.94,0,0,0,.67-.13l1.51,3.84a1.64,1.64,0,0,0-.9,1.56A1.67,1.67,0,1,0,250.33,85a1,1,0,0,0-.35.06l-1.51-3.84a2.67,2.67,0,0,0,1.41-1.59l15.95,3.11c0,.07,0,.14,0,.21A2.23,2.23,0,0,0,267.59,85L267,89.48l-.26,0a2.25,2.25,0,0,0-2.13,2.36,2.21,2.21,0,0,0,.83,1.63l-4,6.06a1.05,1.05,0,0,0-.53-.11,1.12,1.12,0,0,0-1.06,1.1l-4.72.64a.94.94,0,0,0-1.84.34.94.94,0,0,0,1.88,0l4.72-.64a1.13,1.13,0,0,0,1.14.81H261l1.45,4.93a.94.94,0,1,0,.37-.1h-.05l-1.45-4.93a1.13,1.13,0,0,0,.65-1.08,1.05,1.05,0,0,0-.37-.77l4-6a2.23,2.23,0,0,0,2.93-.59l2,2a1,1,0,0,0-.2.65,1,1,0,0,0,1.05.94,1,1,0,0,0-.1-2,.94.94,0,0,0-.5.17l-2.06-2.07a2.33,2.33,0,0,0,.27-1.18,2.26,2.26,0,0,0-1.78-2.07l.65-4.43h.26a2.25,2.25,0,0,0,2.13-2.36c0-.11,0-.22-.05-.33l-.15-.42,8.13-4.78a2.65,2.65,0,0,0,2.28,1.07,2.68,2.68,0,0,0,2.54-2.79l9.2-1.44.15.41a2.27,2.27,0,0,0,.43.55l-1.46,1.6a1.15,1.15,0,0,0-.68-.19,1.13,1.13,0,1,0,1.19,1.07,1.14,1.14,0,0,0-.25-.64l1.47-1.61a2.29,2.29,0,0,0,1.39.4l.18,0,1.87,8.07a2.31,2.31,0,0,0-1.21,3.47l-5.81,4.59a2.17,2.17,0,0,0-.53-.4,2,2,0,0,0-2.47.5l-5-2.93a1.77,1.77,0,0,0,.17-.83,1.82,1.82,0,1,0-.35,1.14l5,2.91-.06.09a2,2,0,0,0,.88,2.73,2.19,2.19,0,0,0,.49.17l-1,8.62a1.4,1.4,0,0,0-1.24.78,1.44,1.44,0,0,0,2.57,1.32,1.44,1.44,0,0,0-.92-2.06l1-8.62a2,2,0,0,0,1.73-3.1l5.81-4.59a2.45,2.45,0,0,0,.62.48,2.3,2.3,0,0,0,2.3-.12l6.25,8.09a2,2,0,0,0-.49.63,2.32,2.32,0,0,0,1,3.13,2.25,2.25,0,0,0,1.09.24l1.22,11.51a1.94,1.94,0,1,0,1.3.17,1.91,1.91,0,0,0-.89-.21l-1.22-11.51a2.31,2.31,0,0,0,1.62-1.21,2.24,2.24,0,0,0,.21-.65l6.23.56a1.37,1.37,0,1,0,.15-.71,1.08,1.08,0,0,0-.11.3l-6.23-.56a2.3,2.3,0,0,0-3.56-1.94l-6.24-8.09a2.26,2.26,0,0,0,.5-.64,2.6,2.6,0,0,0,.18-.49l4.92.8a1.35,1.35,0,1,0,.14-.6c0,.06-.05.13-.08.19l-4.91-.79a2.34,2.34,0,0,0-1.26-2.23,2.31,2.31,0,0,0-1.38-.23l-1.87-8.07a2.24,2.24,0,0,0,1.42-1.38l15.94,3.11c0,.1,0,.21,0,.32a2.68,2.68,0,0,0,2.82,2.54,2.72,2.72,0,0,0,1.72-.75l9.75,7.86a2.19,2.19,0,0,0-.3,1.25,2.17,2.17,0,0,0,.21.84l-3.23,2a1.08,1.08,0,0,0-.86-.35A1.12,1.12,0,1,0,323.73,92a1.08,1.08,0,0,0-.07-.31l3.23-2a2.25,2.25,0,0,0,1.9.88,2.14,2.14,0,0,0,1.11-.38l4.14,5a1,1,0,0,0-.18.26,1.36,1.36,0,0,0,.59,1.84L333,102a1.37,1.37,0,1,0,.33,2.54l4.05,6a1.11,1.11,0,0,0-.41.92,1.13,1.13,0,1,0,1.07-1.18l-.24,0-4.09-6a1.15,1.15,0,0,0,.2-.29,1.36,1.36,0,0,0-.47-1.77l1.45-4.69a1.37,1.37,0,1,0-.5-2.55l-4.13-5a2.2,2.2,0,0,0,.64-1.52l12.9-1.67a2.67,2.67,0,0,0,3.79,1.73L352,95.63a1.65,1.65,0,0,0-.59,1.35,1.61,1.61,0,0,0,.63,1.21l-2.49,4.36a1,1,0,0,0-.39,0,1.13,1.13,0,0,0-1.07,1.18,1.11,1.11,0,0,0,1.18,1.06,1.12,1.12,0,0,0,.7-1.95l2.48-4.36a1.79,1.79,0,0,0,.69.12,1.66,1.66,0,0,0,1.46-1.07l7.62,1.67s0,0,0,.06a1.12,1.12,0,1,0,.1-.53L354.71,97c0-.07,0-.13,0-.2A1.66,1.66,0,0,0,353,95.24a1.59,1.59,0,0,0-.57.14L348,88.21a2.68,2.68,0,0,0,1.07-2.29,2.65,2.65,0,0,0-.91-1.88l9.36-13.8a2.6,2.6,0,0,0,1.35.29,2.78,2.78,0,0,0,.71-.13l1.91,4.45a1.11,1.11,0,0,0-.47,1,1.1,1.1,0,0,0,.47.84l-1.87,3.7a1,1,0,0,0-.24,0,.84.84,0,0,0-.79.87.83.83,0,1,0,1.35-.68l1.86-3.69a1.07,1.07,0,0,0,.4,0,1.12,1.12,0,0,0,.73-.32l4.21,3.08a1.11,1.11,0,0,0,1,1.63l.74,5.65a.82.82,0,0,0-.55.82.83.83,0,0,0,.87.78.79.79,0,0,0,.39-.13l4.17,5a.85.85,0,0,0-.21.6.83.83,0,1,0,.78-.87.89.89,0,0,0-.39.12l-4.17-5a.81.81,0,0,0,.21-.59.83.83,0,0,0-.75-.78l-.74-5.64a1.11,1.11,0,0,0,.76-.78l3.37.55v0a.83.83,0,0,0,.87.79.84.84,0,0,0,.78-.87.81.81,0,0,0-.87-.78.81.81,0,0,0-.74.57l-3.37-.54s0-.08,0-.12a1.12,1.12,0,0,0-1.91-.74l-4.21-3.09a1.11,1.11,0,0,0-1-1.63l-.16,0L360,70.21A2.69,2.69,0,0,0,361.43,68l20-1.67a2.68,2.68,0,0,0,.69,1.27l-4,4.68a1.51,1.51,0,0,0-.92-.24,1.59,1.59,0,1,0,1.67,1.5,1.62,1.62,0,0,0-.39-1l4-4.67a2.71,2.71,0,0,0,1.7.5l.18,0,2.16,9.82a2.23,2.23,0,0,0-.55,4l-3.74,7a1.91,1.91,0,0,0-.72-.11,1.81,1.81,0,1,0,.18,3.62,1.35,1.35,0,0,0,.29,0l2.22,7a1.13,1.13,0,0,0-.63,1.06,1.1,1.1,0,0,0,.59.93l-2.51,6.87a.86.86,0,0,0-.28,0,1.12,1.12,0,0,0-1.06,1.18.91.91,0,0,0,0,.23l-5.54,2.39a.81.81,0,0,0-.71-.35.83.83,0,1,0,.08,1.65.81.81,0,0,0,.78-.87s0-.08,0-.12l5.54-2.4a1.12,1.12,0,0,0,1,.53l.13,0,1.7,5.08a.83.83,0,1,0,.37-.11h-.05l-1.7-5.08a1.12,1.12,0,0,0,.61-1.06,1.1,1.1,0,0,0-.59-.92l2.51-6.88a1.27,1.27,0,0,0,.28,0,1.13,1.13,0,0,0,.94-.62l6.93,2.33a2,2,0,0,0,0,.25,1.14,1.14,0,0,0,1.18,1.07,1.36,1.36,0,0,0,.45-.12l3.26,4.63a.82.82,0,0,0,.64,1.39.83.83,0,0,0-.08-1.65.69.69,0,0,0-.29.07l-3.26-4.64a1.09,1.09,0,0,0,.35-.86,1.12,1.12,0,0,0-2.12-.46l-6.93-2.32a1,1,0,0,0,0-.25,1.13,1.13,0,0,0-1.18-1.07l-.11,0-2.22-7a1.8,1.8,0,0,0,.35-3.14l3.74-7a2.35,2.35,0,0,0,.95.16,2.25,2.25,0,1,0-.23-4.49l-.13,0-2.17-9.81a2.78,2.78,0,0,0,1.49-1.11l10.62,5.23a2.14,2.14,0,0,0-.13.88,2.24,2.24,0,0,0,2.12,2.12l.33,6.49a1.42,1.42,0,0,0,.38,2.81,1.46,1.46,0,0,0,.88-.37L404.7,88a1.84,1.84,0,0,0-.35,1.19,1.89,1.89,0,0,0,1.82,1.79l.32,6.11a1.42,1.42,0,0,0,.31,2.81,1.35,1.35,0,0,0,.6-.17l4,7.21a.9.9,0,0,0-.32.74.92.92,0,1,0,.87-1,.93.93,0,0,0-.24,0l-4-7.25a1.42,1.42,0,0,0,.46-1.11A1.43,1.43,0,0,0,406.83,97l-.31-6.11a1.89,1.89,0,0,0,1.55-1.36l6.14,1.31a.67.67,0,0,0,0,.2,1.24,1.24,0,1,0,.06-.43l-6.14-1.31a1.51,1.51,0,0,0,0-.37,1.89,1.89,0,0,0-2-1.8,1.85,1.85,0,0,0-1.22.53l-4.22-3.63a1.35,1.35,0,0,0,.24-.86,1.41,1.41,0,0,0-1.25-1.33l-.34-6.49a2.24,2.24,0,0,0,1.9-2.27l6.55-.66a1.21,1.21,0,1,0,1.12-1.51,1.23,1.23,0,0,0-1.15,1.18l-6.56.66a2.25,2.25,0,0,0-2.32-1.85,2.21,2.21,0,0,0-1.78,1L386.5,66.74a2.72,2.72,0,0,0,.21-1.18s0-.09,0-.13l3.08-.59a1.56,1.56,0,0,0,1.57,1.06,1.59,1.59,0,1,0-1.67-1.53L386.6,65a2.57,2.57,0,0,0-.76-1.24l12.91-18.43a2.65,2.65,0,0,0,1.4.31,2.68,2.68,0,0,0,1.09-.3l1.29,2.14a1.4,1.4,0,0,0-.57,1.18,1.37,1.37,0,0,0,.8,1.17l-1.36,5.05a1,1,0,0,0-.25,0,1.36,1.36,0,1,0,.59.1l1.36-5a1.34,1.34,0,0,0,1.52-.94l2.78.82s0,0,0,0a.83.83,0,0,0,1.66-.08.83.83,0,0,0-1.58-.31l-2.79-.82s0-.08,0-.13a1.35,1.35,0,0,0-1.84-1.2l-1.31-2.16a2.68,2.68,0,0,0,1.15-2.34l0-.27L418,38.11a2.23,2.23,0,0,0,2.15,1.31,2.18,2.18,0,0,0,1.4-.59l13.79,11.08a2.65,2.65,0,0,0-.4,1.55s0,.07,0,.11l-8.48,1.58a2.24,2.24,0,0,0-4-.57l-5-2.51a1.12,1.12,0,0,0,.06-.45,1.27,1.27,0,1,0-.22.77l5,2.51a2.28,2.28,0,0,0-.19,1,2.2,2.2,0,0,0,.74,1.55l-4.27,5.92a1.73,1.73,0,0,0-.95-.22,1.82,1.82,0,1,0,1.33.49l4.28-5.91a2.23,2.23,0,0,0,1.23.3,2.25,2.25,0,0,0,2.13-2.36s0,0,0-.06L435,52a2.68,2.68,0,0,0,2.52,2l1.25,12.54a2.25,2.25,0,0,0-1.62,1.64l-2.52-.42s0-.06,0-.09a1.21,1.21,0,1,0-1.15,1.27,1.2,1.2,0,0,0,1.09-.83l2.51.42c0,.1,0,.2,0,.31a2.22,2.22,0,0,0,1.25,1.89l-2.24,6.86a2.85,2.85,0,0,0-.66,0,2.72,2.72,0,0,0-2.59,2.87,2.81,2.81,0,0,0,.21.91l-4.7,2.46a1.81,1.81,0,0,0-3.29,1.14,1.81,1.81,0,1,0,3.5-.71l4.71-2.47A2.73,2.73,0,0,0,435.7,83a2.76,2.76,0,0,0,.4-.06l2,6.86a1.82,1.82,0,0,0-1.07,1.75,1.79,1.79,0,0,0,.72,1.35l-2.48,4.41a1.41,1.41,0,0,0-.55-.08,1.43,1.43,0,0,0-1.35,1.49,2.34,2.34,0,0,0,0,.26l-4.69,1.75a1.17,1.17,0,0,0-1.11-.62,1.21,1.21,0,0,0,.12,2.41,1.21,1.21,0,0,0,1.15-1.27l0-.19,4.69-1.75a1.41,1.41,0,0,0,1.33.76l.18,0,2.85,9a1.42,1.42,0,0,0,.67,2.71,1.42,1.42,0,0,0-.15-2.84,1.13,1.13,0,0,0-.18,0l-2.85-9a1.44,1.44,0,0,0,.83-1.36,1.41,1.41,0,0,0-.53-1l2.47-4.42a1.67,1.67,0,0,0,.77.13,1.81,1.81,0,0,0-.19-3.62l-.18,0-2-6.86a2.73,2.73,0,0,0,.15-5L439,71a2.63,2.63,0,0,0,.49,0,2.22,2.22,0,0,0,1.43-.63l10.42,8.13A2.8,2.8,0,0,0,450.9,80a2.74,2.74,0,0,0,2.65,2.59L455.16,100a2.73,2.73,0,0,0-.72,5.06l-3.5,8a1.63,1.63,0,0,0-.5-.06,1.6,1.6,0,1,0,1.69,1.52,1.58,1.58,0,0,0-.75-1.27l3.49-8a2.87,2.87,0,0,0,1,.15,2.74,2.74,0,0,0,1.83-.85l10.16,8.16a2.31,2.31,0,0,0,2.06,3.56,1.84,1.84,0,0,0,.53-.09l4,9.87a1.59,1.59,0,0,0-.06,2.7l-.07.13.26.23.1-.2a1.66,1.66,0,0,0,.67.11,1.6,1.6,0,0,0,1-.45l.14.11.21-.26-.14-.11a1.56,1.56,0,0,0,.28-1,1.6,1.6,0,0,0-1.68-1.52,1.36,1.36,0,0,0-.3,0l-4-9.86a2.32,2.32,0,0,0,1.23-2.16s0,0,0,0l12.69-2.11a2.31,2.31,0,0,0,4.48,0l13.53,1.78v0a1.6,1.6,0,0,0,2.51,1.24l6.5,6.84a1,1,0,1,0,.24-.23l-6.49-6.83a1.59,1.59,0,0,0,.44-1.18,1.86,1.86,0,0,0-.08-.41l10.6-5.26a1.71,1.71,0,0,0,3-.39l15.34,3.89c0,.07,0,.13,0,.2a1.21,1.21,0,0,0,2.42-.13l0-.15,11.32-3.73a1,1,0,1,0,.84-1.47Z"/><path class="cls-2" d="M141.9,131.11a1.53,1.53,0,0,1-.53.13,1.33,1.33,0,0,1-1.07-.44"/></g><path class="cls-3" d="M549.54,113.25a1,1,0,0,0-.95,1.06s0,.07,0,.1l-11.32,3.73a1.18,1.18,0,0,0-1.14-.67,1.19,1.19,0,0,0-1.06.75l-15.34-3.89a2,2,0,0,0,0-.35,1.72,1.72,0,1,0-3.43.18,1.63,1.63,0,0,0,.09.45l-10.6,5.26a1.6,1.6,0,0,0-2.85.48l-13.52-1.79c0-.07,0-.14,0-.21a2.3,2.3,0,0,0-.87-1.68l4.33-6.68a1.41,1.41,0,0,0,.74.15,1.6,1.6,0,1,0-1.69-1.52,1.64,1.64,0,0,0,.54,1.12l-4.32,6.67a2.28,2.28,0,0,0-1.16-.26,2.32,2.32,0,0,0-2.2,2.43h0l-12.7,2.12a2.32,2.32,0,0,0-2.34-1.71,2.28,2.28,0,0,0-1.53.7l-10.16-8.16a2.68,2.68,0,0,0,.45-1.66.41.41,0,0,0,0-.11l2.44-.47a1.58,1.58,0,1,0-.11-.48v0l-2.42.46a2.74,2.74,0,0,0-2.55-2L454.29,90a2.66,2.66,0,0,0,1.27-.65l3.06,2.9a1.13,1.13,0,0,0-.17.42,1.24,1.24,0,0,0,2.43.48,1.25,1.25,0,0,0-1-1.46,1.28,1.28,0,0,0-1,.21L455.88,89a2.75,2.75,0,0,0,.54-1.33l11.16.57a1.91,1.91,0,0,0,1.52,1.72,1.88,1.88,0,0,0,1.51-.36l5,5.1a1.46,1.46,0,0,0-.2.46,1.24,1.24,0,1,0,1.46-1,1.22,1.22,0,0,0-.92.18l-5-5.1a1.91,1.91,0,0,0,.38-.8,1.87,1.87,0,0,0-.28-1.43l9.71-8.36a1.62,1.62,0,0,0,.79.41,1.67,1.67,0,0,0,1.74-.76l9.82,4.23a.76.76,0,0,0-.06.2,1.66,1.66,0,0,0,1.31,2,1.67,1.67,0,1,0-1.05-2.59l-9.83-4.24s0-.07,0-.11a1.67,1.67,0,1,0-3.06.54l-9.72,8.37a1.93,1.93,0,0,0-.9-.46,1.9,1.9,0,0,0-2.23,1.49.08.08,0,0,0,0,0l-11.16-.57a2.73,2.73,0,0,0-2.87-2.58,2.66,2.66,0,0,0-1.79.8l-10.42-8.13a2.22,2.22,0,0,0,.3-1.22l0-.19,7-1.69a1.8,1.8,0,0,0,3.3.15l8.21,2.81a1.69,1.69,0,0,0,0,.23,1.26,1.26,0,0,0,2.51-.12s0-.09,0-.13l6.55-2a.81.81,0,1,0-.11-.36s0,0,0,0l-6.54,2a1.25,1.25,0,0,0-2.22-.09L452,73.83a1.6,1.6,0,0,0,0-.44,1.8,1.8,0,0,0-.94-1.49l1.43-3.34h.19a.81.81,0,1,0-.52-.15l-1.43,3.34a1.89,1.89,0,0,0-.63-.09,1.81,1.81,0,0,0-1.72,1.9.3.3,0,0,0,0,.1l-7,1.69a2.24,2.24,0,0,0-2-1.48l-1.26-12.55a2.68,2.68,0,0,0,1.07-4.71l3.87-5.84a2,2,0,0,0,1,.22,2,2,0,0,0,1.9-2.11c0-.11,0-.21-.05-.32l10.64-3.63a1.71,1.71,0,0,0,1.6.93,1.83,1.83,0,0,0,.89-.31l3.3,3.5a1.06,1.06,0,0,0-.18.63,1,1,0,0,0,.33.71l-4.11,6.21a1.44,1.44,0,0,0-.68-.15,1.39,1.39,0,0,0-1.3,1.44s0,.05,0,.08l-4.93,1.19a1,1,0,0,0-2,.45,1,1,0,1,0,2.07-.11v0l4.93-1.18a1.36,1.36,0,0,0,2.63-.55,1.39,1.39,0,0,0-.47-1l4.11-6.2a1.11,1.11,0,0,0,.48.09,1,1,0,0,0,.73-.36l6.27,3.3a1.27,1.27,0,0,0-.06.48,1.36,1.36,0,0,0,1.43,1.3l.09,0,1.44,5.1a1,1,0,0,0,.5,2,1,1,0,0,0-.11-2.08h-.07l-1.44-5.08a1.38,1.38,0,0,0,.89-1.35l0-.2,4.91-1.42a1,1,0,1,0-.14-.46.77.77,0,0,0,0,.15l-4.89,1.42a1.36,1.36,0,0,0-1.31-.78,1.35,1.35,0,0,0-1,.53l-6.28-3.3a1,1,0,0,0-1-1.3,1.08,1.08,0,0,0-.47.15l-3.3-3.52a1.63,1.63,0,0,0,.37-1.14,1.69,1.69,0,1,0-3.38.17,1.85,1.85,0,0,0,0,.23L445.9,48.12A2,2,0,0,0,444,47h-.08l-1.86-8.79a1.79,1.79,0,1,0-.52.11h.05l1.87,8.8a2,2,0,0,0-.65,3.42l-3.87,5.84a2.68,2.68,0,0,0-3.14.43L422,45.71a2.21,2.21,0,0,0,.3-1.25,2.24,2.24,0,0,0-1.77-2.07l.78-7.27a1.37,1.37,0,0,0,1.28-1.43,1.35,1.35,0,0,0-.11-.45l8.26-5.3a1.78,1.78,0,0,0,1.47.64,1.81,1.81,0,0,0,1.65-1.34l7,.9h0a1.37,1.37,0,1,0,1.29-1.43,1.36,1.36,0,0,0-1.23.95l-7-.89v-.09a1.81,1.81,0,0,0-1.18-1.61l1.51-6.65h.13a1.39,1.39,0,1,0-.59-.11L432.29,25,432,25a1.82,1.82,0,0,0-1.72,1.91,1.85,1.85,0,0,0,.18.67l-8.26,5.3a1.36,1.36,0,0,0-1.07-.44,1.34,1.34,0,0,0-.53.14l-5.69-7.8a1.78,1.78,0,0,0,.56-1.4A1.8,1.8,0,0,0,412,23l-6.95-.9h0a1.37,1.37,0,1,0-1.3,1.44,1.38,1.38,0,0,0,1.24-1l6.95.9a.27.27,0,0,0,0,.09,1.8,1.8,0,0,0,1.9,1.71,1.68,1.68,0,0,0,.77-.22l5.69,7.8a1.36,1.36,0,0,0,.6,2.25l-.78,7.27H420a2.26,2.26,0,0,0-2.13,2.36l0,.18-15.3,4.39a2.68,2.68,0,0,0-5.14,1.19,2.71,2.71,0,0,0,.88,1.86L385.37,70.73a2.73,2.73,0,0,0-1.4-.32,2.78,2.78,0,0,0-1.25.39l-5.41-7.59a2.21,2.21,0,0,0-.29-3.57l3.49-7.15a2.15,2.15,0,0,0,.81.12,2.25,2.25,0,0,0,2.12-2.25l4-.31a1.25,1.25,0,0,0,2.48-.32,1.25,1.25,0,0,0-2.5,0l-4,.31a2.23,2.23,0,0,0-2.32-1.91,2,2,0,0,0-.49.08l-3.62-9a1.34,1.34,0,0,0,.71-1.26,1.38,1.38,0,0,0-.51-1l4.23-6.82a1.26,1.26,0,0,0,.33.05.83.83,0,1,0-.87-.79.82.82,0,0,0,.26.56l-4.23,6.83a1.39,1.39,0,0,0-.64-.13,1.36,1.36,0,0,0-1.3,1.43,1.38,1.38,0,0,0,1.44,1.3l.28-.05,3.61,9a2.24,2.24,0,0,0-.22,4l-3.47,7.12a2.35,2.35,0,0,0-.88-.13,2.26,2.26,0,0,0-1.8,1.06l-3.41-1.65a1.39,1.39,0,0,0,.08-.54,1.6,1.6,0,0,0-1.67-1.51l-.18,0-1.24-4.44a1.25,1.25,0,0,0-.55-2.41,1.26,1.26,0,0,0,.13,2.51l.1,0,1.24,4.45a1.58,1.58,0,0,0,.66,3,1.56,1.56,0,0,0,1.23-.69l3.41,1.65a2.12,2.12,0,0,0-.13.87,2.23,2.23,0,0,0,3.34,1.84l5.41,7.59a2.67,2.67,0,0,0-.91,2l-20,1.67a2.66,2.66,0,0,0-1.06-1.63l1.17-1.9a1.24,1.24,0,0,0,.51.08,1.31,1.31,0,1,0-.13-2.62,1.31,1.31,0,0,0-.7,2.37l-1.16,1.88a2.65,2.65,0,0,0-2.69.11l-3.65-4.74a1.64,1.64,0,0,0,.48-1.24,1.69,1.69,0,0,0-1.11-1.49l1.25-5.29h.18a1.26,1.26,0,0,0,1.19-1.32,1.24,1.24,0,0,0-1.32-1.19,1.15,1.15,0,0,0-.51.14l-3-5.1a1.26,1.26,0,0,0,.51-1.07,1.24,1.24,0,0,0-.36-.81l5-6.17a.82.82,0,0,0,.44.1.83.83,0,0,0,.79-.87.84.84,0,0,0-.87-.78.83.83,0,0,0-.79.87.78.78,0,0,0,.21.49l-5,6.17a1.33,1.33,0,0,0-.74-.2,1.26,1.26,0,0,0-1.19,1.32A1.25,1.25,0,0,0,350.25,53a1.29,1.29,0,0,0,.44-.1l3,5.12a1.24,1.24,0,0,0-.45,1,1.27,1.27,0,0,0,.8,1.11l-1.26,5.29a1.51,1.51,0,0,0-.3,0,1.66,1.66,0,0,0-1.34.8l-3.84-1.83a.92.92,0,0,0,.05-.37,1.12,1.12,0,1,0-1.06,1.18,1.11,1.11,0,0,0,.86-.49L351,66.54a1.68,1.68,0,0,0-.09.64,1.66,1.66,0,0,0,1.75,1.58,1.49,1.49,0,0,0,.73-.22L357,73.28a2.62,2.62,0,0,0-.75,1.22l-3-.67a1,1,0,0,0,0-.17,1.32,1.32,0,1,0-.08.52l3,.67a2.38,2.38,0,0,0,0,.54,2.65,2.65,0,0,0,.91,1.87L347.7,91.07a2.55,2.55,0,0,0-1.35-.29,2.67,2.67,0,0,0-2.54,2.69l-12.9,1.67a2.22,2.22,0,0,0-3.67-1l-9.76-7.86a2.67,2.67,0,0,0,.4-1.55s0-.08,0-.12l5.95-1.12a1.65,1.65,0,0,0,3,.28l6.34,2.43a1.77,1.77,0,0,0,0,.23,1.15,1.15,0,1,0,.19-.67L327,83.28a1.6,1.6,0,0,0,0-.44,1.57,1.57,0,0,0-.23-.74l2.47-1.78a1.09,1.09,0,0,0,.85.34,1.13,1.13,0,0,0,1.07-1.18A1.11,1.11,0,0,0,330,78.42a1.13,1.13,0,0,0-1.07,1.17,1.17,1.17,0,0,0,.13.46l-2.46,1.78A1.64,1.64,0,0,0,323.73,83l-6,1.11a2.67,2.67,0,0,0-.72-1.21L325.81,72a2.17,2.17,0,0,0,1.33.36,2.24,2.24,0,0,0,.57-4.38l2-9.74a.55.55,0,0,0,.18,0,1.66,1.66,0,0,0,1.58-1.75,1.59,1.59,0,0,0-.14-.58l5.94-3.31a1.27,1.27,0,0,0,1.07.5,1.25,1.25,0,0,0,1.19-1.32,1.26,1.26,0,0,0-2.51.13,1.37,1.37,0,0,0,.09.4l-5.94,3.31a1.66,1.66,0,0,0-1.45-.72,1.62,1.62,0,0,0-.62.16l-3.69-6.23a1.25,1.25,0,1,0-.72.27,1.43,1.43,0,0,0,.43-.1l3.69,6.23a1.67,1.67,0,0,0,.43,2.92l-2,9.73a1.83,1.83,0,0,0-.33,0,2.25,2.25,0,0,0-2.13,2.36,2.2,2.2,0,0,0,.67,1.47L316.69,82.6a2.63,2.63,0,0,0-1.63-.45,2.48,2.48,0,0,0-.67.12l-1.51-3.84A1.67,1.67,0,1,0,310.44,77a1.68,1.68,0,0,0,1.76,1.59,2,2,0,0,0,.35-.06l1.51,3.83A2.67,2.67,0,0,0,312.65,84l-15.95-3.1c0-.08,0-.14,0-.22a2.25,2.25,0,0,0-1.77-2.07l.64-4.43h.26a2.25,2.25,0,0,0,1.3-4l4-6a1.22,1.22,0,0,0,.53.1,1.12,1.12,0,0,0,1.07-1.1l4.72-.64a1,1,0,0,0,.95.66.95.95,0,1,0-1-1l-4.72.64a1.13,1.13,0,0,0-1.14-.81h-.09L300,57.08a.93.93,0,0,0,.53-.89,1,1,0,0,0-1-.9.95.95,0,0,0,.1,1.89h.05l1.45,4.93a1.14,1.14,0,0,0-.66,1.08,1.18,1.18,0,0,0,.37.78l-4,6a2.24,2.24,0,0,0-2.94.59l-.18.28a2.23,2.23,0,0,0,1.5,3.25l-.64,4.44-.26,0a2.26,2.26,0,0,0-2.13,2.25L283,82.23a2.73,2.73,0,0,0-.16-.43v0l0,0a2.74,2.74,0,0,0-1.06-1.1l1.38-3.51a1.14,1.14,0,0,0,.26,0,1.19,1.19,0,0,0,1.13-1.25.59.59,0,0,0,0-.13l3.11-.93a.82.82,0,0,0,.76.43.83.83,0,1,0-.87-.79v0l-3.11.93a1.14,1.14,0,0,0-1-.64l-.43-5.3a1.19,1.19,0,0,0-.33-2.34,1.19,1.19,0,0,0,0,2.37l.42,5.29A1.19,1.19,0,0,0,282.7,77l-1.38,3.48a2.63,2.63,0,0,0-1-.14,2.68,2.68,0,0,0-2.54,2.81,2.32,2.32,0,0,0,.07.46l0,.08A2.23,2.23,0,0,0,278,84l-8.14,4.78A2.2,2.2,0,0,0,268,88l-.19,0L266,80a2.31,2.31,0,0,0,1.34-1.14,2.33,2.33,0,0,0-.13-2.33L273,71.9a1.85,1.85,0,0,0,.52.4,2,2,0,0,0,1.86-3.61,1.76,1.76,0,0,0-.49-.16l1-8.63a1.44,1.44,0,0,0,.63-2.72,1.44,1.44,0,1,0-1,2.68l-1,8.62a2,2,0,0,0-1.73,3.1l-5.82,4.59a2.21,2.21,0,0,0-.61-.47,2.3,2.3,0,0,0-2.31.11l-6.24-8.08a2.42,2.42,0,0,0,.49-.64,2.31,2.31,0,0,0-1-3.12,2.39,2.39,0,0,0-1.1-.25L255,52.21a1.93,1.93,0,1,0-1.3-.16,2,2,0,0,0,.89.2l1.21,11.51A2.3,2.3,0,0,0,254.14,65a2.24,2.24,0,0,0-.21.65l-6.24-.56a1.36,1.36,0,1,0-.14.71,1.33,1.33,0,0,0,.11-.3l6.23.56a2.3,2.3,0,0,0,3.55,2l6.25,8.08a2.26,2.26,0,0,0-.5.64,2.22,2.22,0,0,0-.18.49l-4.92-.8a1.37,1.37,0,1,0-2,1.2A1.38,1.38,0,0,0,258,77a1.59,1.59,0,0,0,.07-.2l4.92.79a2.32,2.32,0,0,0,1.26,2.23,2.24,2.24,0,0,0,1.38.23l1.86,8.07A2.25,2.25,0,0,0,266,89.5l-15.95-3.11c0-.1,0-.21,0-.31a2.67,2.67,0,0,0-4.54-1.79l-9.76-7.87a2.2,2.2,0,0,0,.31-1.25,2.17,2.17,0,0,0-.21-.84l3.22-2a1.15,1.15,0,0,0,.87.36,1.13,1.13,0,1,0-1.18-1.07,1.08,1.08,0,0,0,.07.31l-3.23,2a2.26,2.26,0,0,0-1.9-.89,2.34,2.34,0,0,0-1.11.38l-4.14-5a1.27,1.27,0,0,0,.18-.27,1.36,1.36,0,0,0-.59-1.84l1.44-4.64a1.37,1.37,0,1,0-.33-2.54l-4.05-6a1.13,1.13,0,0,0,.41-.92,1.11,1.11,0,0,0-1.18-1.06,1.12,1.12,0,1,0,.11,2.24,1,1,0,0,0,.24,0l4.09,6a1.46,1.46,0,0,0-.21.28,1.37,1.37,0,0,0,.48,1.77l-1.46,4.7a1.36,1.36,0,0,0-1.38.72,1.37,1.37,0,0,0,1.89,1.82l4.13,5a2.22,2.22,0,0,0-.64,1.52l-12.9,1.67a2.69,2.69,0,0,0-2.74-2,2.64,2.64,0,0,0-1,.28L210.52,68a1.65,1.65,0,0,0,.59-1.35,1.63,1.63,0,0,0-.64-1.21l2.5-4.36a1,1,0,0,0,.39,0,1.12,1.12,0,1,0-1.18-1.06,1.18,1.18,0,0,0,.37.78l-2.49,4.35a1.55,1.55,0,0,0-.68-.11,1.65,1.65,0,0,0-1.47,1.07L200.3,64.5v-.06a1.13,1.13,0,0,0-1.18-1.07,1.11,1.11,0,0,0-1.06,1.18,1.12,1.12,0,0,0,2.14.41l7.62,1.67a.69.69,0,0,0,0,.2,1.65,1.65,0,0,0,1.73,1.57,1.49,1.49,0,0,0,.57-.14l4.41,7.17a2.68,2.68,0,0,0-.17,4.17L205,93.4a2.69,2.69,0,0,0-2.06-.16L201,88.8a1.14,1.14,0,0,0,.47-1A1.1,1.1,0,0,0,201,87l1.87-3.7a.66.66,0,0,0,.24,0,.83.83,0,0,0,.79-.87.84.84,0,0,0-.87-.78.82.82,0,0,0-.48,1.46l-1.87,3.7a1.23,1.23,0,0,0-.39-.06,1.13,1.13,0,0,0-.73.33L195.38,84a1.09,1.09,0,0,0,.13-.57,1.12,1.12,0,0,0-1.09-1.06l-.74-5.65a.81.81,0,0,0,.55-.81.83.83,0,0,0-.87-.79.9.9,0,0,0-.39.13l-4.17-5a.83.83,0,0,0-.66-1.38.83.83,0,1,0,.47,1.53l4.18,5a.78.78,0,0,0-.21.59.82.82,0,0,0,.75.78l.73,5.64a1.16,1.16,0,0,0-.76.78l-3.36-.54v-.06a.82.82,0,0,0-.87-.78.81.81,0,0,0-.78.86.82.82,0,0,0,1.61.21l3.37.55a.49.49,0,0,0,0,.12,1.12,1.12,0,0,0,1.91.74l4.21,3.08a1.11,1.11,0,0,0-.13.57A1.13,1.13,0,0,0,200.43,89l.16,0,1.92,4.45a2.67,2.67,0,0,0-1.41,2.25l-20,1.67a2.6,2.6,0,0,0-.69-1.27l4-4.68a1.65,1.65,0,0,0,.93.25,1.62,1.62,0,1,0-1.28-.56l-4,4.68a2.6,2.6,0,0,0-1.71-.5h-.17L176,85.46a2.23,2.23,0,0,0,1.53-2.24,2.2,2.2,0,0,0-1-1.74l3.75-7a1.91,1.91,0,0,0,.72.11,1.81,1.81,0,1,0-.18-3.62l-.29,0-2.22-7A1.15,1.15,0,0,0,179,62.9a1.12,1.12,0,0,0-.59-.93l2.51-6.87a.82.82,0,0,0,.27,0A1.12,1.12,0,0,0,182.24,54a.85.85,0,0,0,0-.23l5.54-2.4a.84.84,0,0,0,.72.36.83.83,0,0,0-.08-1.66.84.84,0,0,0-.79.87s0,.09,0,.13l-5.54,2.39a1.14,1.14,0,0,0-1-.53l-.14,0-1.7-5.08a.83.83,0,1,0-.37.11h.06l1.7,5.07a1.12,1.12,0,0,0,0,2l-2.5,6.87a1.27,1.27,0,0,0-.28,0,1.13,1.13,0,0,0-.94.62l-6.93-2.33a1,1,0,0,0,0-.25,1.12,1.12,0,0,0-1.18-1.06,1.07,1.07,0,0,0-.44.12l-3.26-4.63a.83.83,0,1,0-.56.26,1.37,1.37,0,0,0,.29-.07l3.26,4.63a1.12,1.12,0,0,0,.83,1.93,1.14,1.14,0,0,0,.94-.61l6.93,2.32a2.11,2.11,0,0,0,0,.25,1.13,1.13,0,0,0,1.18,1.07l.12,0,2.22,7a1.8,1.8,0,0,0-.35,3.13l-3.75,7.06a2.29,2.29,0,0,0-1-.17,2.25,2.25,0,0,0,.23,4.49l.14,0,2.16,9.82a2.69,2.69,0,0,0-1.48,1.1l-10.63-5.22a2.23,2.23,0,0,0-2-3l-.33-6.49a1.42,1.42,0,0,0-.39-2.8,1.3,1.3,0,0,0-.87.37l-4.22-3.64a1.88,1.88,0,0,0-1.47-3l-.32-6.1a1.42,1.42,0,0,0-.31-2.82,1.35,1.35,0,0,0-.6.17l-4-7.21a.9.9,0,0,0,.32-.74.92.92,0,1,0-.87,1,.59.59,0,0,0,.23,0l4,7.25a1.41,1.41,0,0,0,.86,2.45l.31,6.11a1.89,1.89,0,0,0-1.55,1.36l-6.14-1.31a1.27,1.27,0,0,0,0-.2,1.21,1.21,0,0,0-1.27-1.15,1.22,1.22,0,1,0,.12,2.43,1.22,1.22,0,0,0,1.09-.85l6.13,1.31c0,.12,0,.25,0,.38a1.9,1.9,0,0,0,2,1.79,1.8,1.8,0,0,0,1.21-.53l4.22,3.63a1.43,1.43,0,0,0,1,2.2l.33,6.48a2.25,2.25,0,0,0-1.89,2.27l-6.55.66a1.22,1.22,0,0,0-1.24-.92,1.22,1.22,0,1,0,.12,2.43,1.21,1.21,0,0,0,1.15-1.18l6.56-.66a2.23,2.23,0,0,0,4.1.81L176,96.9a2.72,2.72,0,0,0-.21,1.18s0,.09,0,.14l-3.07.58a1.56,1.56,0,1,0,.1.47l3.06-.59a2.7,2.7,0,0,0,.77,1.25l-12.92,18.42a2.64,2.64,0,0,0-2.48,0L160,116.2a1.36,1.36,0,0,0-.22-2.35l1.36-5,.25,0a1.37,1.37,0,1,0-1.44-1.3,1.39,1.39,0,0,0,.85,1.19l-1.36,5-.3,0a1.38,1.38,0,0,0-1.23,1l-2.77-.82v0a.83.83,0,1,0-.78.87.84.84,0,0,0,.71-.48l2.78.82v.13a1.35,1.35,0,0,0,1.84,1.2l1.3,2.17a2.66,2.66,0,0,0-1.14,2.33,1.33,1.33,0,0,0,0,.28l-15.29,4.39a2.23,2.23,0,0,0-3.56-.71l-13.78-11.09a2.71,2.71,0,0,0,.4-1.54s0-.08,0-.12l8.49-1.58a2.24,2.24,0,0,0,2.27,1.6,2.21,2.21,0,0,0,1.77-1l5,2.51a1.12,1.12,0,0,0-.07.45,1.29,1.29,0,1,0,.23-.77l-5-2.51a2.28,2.28,0,0,0,.2-1,2.25,2.25,0,0,0-.75-1.55l4.28-5.91a1.9,1.9,0,0,0,1,.22,1.83,1.83,0,0,0,1.72-1.91,1.81,1.81,0,0,0-3.62.19,1.78,1.78,0,0,0,.57,1.22l-4.28,5.91a2.34,2.34,0,0,0-1.23-.3A2.25,2.25,0,0,0,136,110a.13.13,0,0,0,0,.06l-8.49,1.58a2.69,2.69,0,0,0-2.52-2l-1.26-12.53a2.26,2.26,0,0,0,1.62-1.65l2.53.43a.19.19,0,0,0,0,.08,1.21,1.21,0,0,0,1.27,1.14,1.19,1.19,0,0,0,1.14-1.26,1.21,1.21,0,0,0-2.35-.32l-2.52-.42a3,3,0,0,0,0-.31,2.24,2.24,0,0,0-1.25-1.89l2.24-6.85a2.4,2.4,0,0,0,.66,0,2.72,2.72,0,0,0,2.59-2.86,2.81,2.81,0,0,0-.21-.92l4.7-2.46a1.81,1.81,0,1,0-.33-1,1.58,1.58,0,0,0,.12.53l-4.71,2.46a2.74,2.74,0,0,0-2.44-1.25,2.57,2.57,0,0,0-.4,0l-2-6.86a1.8,1.8,0,0,0,.35-3.09l2.47-4.42a1.49,1.49,0,0,0,.56.08,1.42,1.42,0,0,0,1.34-1.49,1.15,1.15,0,0,0,0-.26l4.68-1.75a1.21,1.21,0,1,0,1-1.79,1.21,1.21,0,0,0-1.14,1.27,1.25,1.25,0,0,0,0,.19L129,64.33a1.43,1.43,0,0,0-1.33-.76l-.18,0-2.85-9a1.42,1.42,0,1,0-.52.13l.18,0,2.85,9a1.44,1.44,0,0,0-.83,1.37,1.41,1.41,0,0,0,.53,1l-2.48,4.42a1.9,1.9,0,0,0-.76-.13,1.81,1.81,0,1,0,.19,3.62,1.13,1.13,0,0,0,.18,0l2,6.86a2.73,2.73,0,0,0-.16,5l-2.23,6.85a2.63,2.63,0,0,0-.49,0,2.22,2.22,0,0,0-1.43.63l-10.42-8.13A2.73,2.73,0,0,0,109,81l-1.62-17.34a2.73,2.73,0,0,0,.73-5.06l3.5-8a1.32,1.32,0,0,0,.49.06,1.6,1.6,0,1,0-.93-.24l-3.49,8a2.66,2.66,0,0,0-1-.14,2.68,2.68,0,0,0-1.83.84L94.65,51A2.35,2.35,0,0,0,95,49.61a2.32,2.32,0,0,0-2.43-2.19,2.34,2.34,0,0,0-.54.09l-4-9.86a1.61,1.61,0,0,0,.78-1.46,1.57,1.57,0,0,0-.72-1.25l2-3.85a.89.89,0,0,0,.4.06,1.08,1.08,0,1,0-.7-.21l-2,3.85a1.53,1.53,0,0,0-.67-.12,1.59,1.59,0,0,0-1,.46l-6-5.06a1.18,1.18,0,0,0,.19-.69A1.22,1.22,0,0,0,79,28.23a1.2,1.2,0,0,0-1.11.94L72,28.7a1.21,1.21,0,0,0-1.26-1.14,1.26,1.26,0,0,0-.74.3L64.43,23.1a1,1,0,0,0,.15-.58,1,1,0,0,0-1.06-.95,1,1,0,1,0,.69,1.78l5.55,4.77a1.22,1.22,0,0,0-.19.71A1.21,1.21,0,0,0,70.84,30,1.18,1.18,0,0,0,72,29l5.86.48a1.21,1.21,0,0,0,1.27,1.13,1.18,1.18,0,0,0,.75-.31l6,5.05a1.63,1.63,0,0,0-.27,1,1.61,1.61,0,0,0,1.68,1.52l.3-.05,4,9.87a2.29,2.29,0,0,0-1.23,2.15v0L77.7,52a2.31,2.31,0,0,0-4.47,0L59.7,50.22v0a1.6,1.6,0,0,0-2.51-1.24l-6.5-6.84a.94.94,0,0,0,.2-.65,1,1,0,1,0-.44.88l6.49,6.83a1.57,1.57,0,0,0-.44,1.18,1.42,1.42,0,0,0,.08.41L46,56a1.72,1.72,0,0,0-3,.39L27.61,52.5c0-.07,0-.13,0-.2a1.21,1.21,0,0,0-2.42.13l0,.15L13.91,56.31a1,1,0,1,0,.11.42s0-.07,0-.1L25.32,52.9a1.21,1.21,0,0,0,2.2-.08l15.35,3.89a1.35,1.35,0,0,0,0,.35,1.72,1.72,0,1,0,3.43-.18,1.63,1.63,0,0,0-.09-.45l10.6-5.26a1.59,1.59,0,0,0,2.84-.48l13.53,1.78c0,.08,0,.15,0,.22A2.3,2.3,0,0,0,74,54.37L69.69,61A1.51,1.51,0,0,0,69,60.9a1.6,1.6,0,1,0,1.68,1.52,1.54,1.54,0,0,0-.54-1.12l4.33-6.67a2.28,2.28,0,0,0,1.16.26,2.33,2.33,0,0,0,2.2-2.43h0l12.69-2.11a2.3,2.3,0,0,0,3.88,1l10.16,8.16a2.76,2.76,0,0,0-.46,1.66s0,.07,0,.11l-2.44.47a1.58,1.58,0,1,0,.11.48v0l2.42-.46a2.72,2.72,0,0,0,2.55,2l1.61,17.34a2.67,2.67,0,0,0-1.26.65L104,78.84a1.6,1.6,0,0,0,.17-.42,1.24,1.24,0,0,0-1-1.45,1.23,1.23,0,1,0-.48,2.42,1.2,1.2,0,0,0,1-.21l3.07,2.91a2.75,2.75,0,0,0-.54,1.33L95,82.85a1.89,1.89,0,0,0-3-1.37l-5-5.09a1.25,1.25,0,0,0-.78-1.92,1.24,1.24,0,0,0-.48,2.43,1.27,1.27,0,0,0,.92-.18l5,5.1a1.91,1.91,0,0,0-.38.8A1.84,1.84,0,0,0,91.56,84L81.85,92.4a1.75,1.75,0,0,0-.79-.4,1.68,1.68,0,0,0-1.75.76L69.5,88.53a1.52,1.52,0,0,0,.06-.2,1.67,1.67,0,1,0-3.28-.65,1.68,1.68,0,0,0,3,1.28l9.83,4.24a.49.49,0,0,0,0,.11,1.67,1.67,0,1,0,3.06-.54l9.72-8.37a1.93,1.93,0,0,0,.9.46A1.9,1.9,0,0,0,95,83.37s0,0,0,0l11.16.57A2.72,2.72,0,0,0,109,86.48a2.68,2.68,0,0,0,1.79-.8l10.41,8.13A2.3,2.3,0,0,0,121,95a1,1,0,0,0,0,.18l-7,1.69a1.83,1.83,0,0,0-1.78-1.15,1.79,1.79,0,0,0-1.52,1L102.5,94a1.79,1.79,0,0,0,0-.23,1.26,1.26,0,0,0-2.51.12.51.51,0,0,0,0,.13l-6.55,2a.81.81,0,1,0,.11.36,0,0,0,0,0,0,0l6.55-2a1.25,1.25,0,0,0,2.22.09l8.22,2.8a1.71,1.71,0,0,0,0,.45,1.8,1.8,0,0,0,.94,1.49L110,102.48a.59.59,0,0,0-.19,0,.82.82,0,1,0,.86.77.83.83,0,0,0-.34-.62l1.43-3.34a1.89,1.89,0,0,0,.63.09,1.82,1.82,0,0,0,1.72-1.91.29.29,0,0,1,0-.09l7-1.69a2.24,2.24,0,0,0,2,1.48l1.26,12.55a2.69,2.69,0,0,0-1.08,4.71l-3.87,5.84a2,2,0,0,0-2.9,1.89,1.19,1.19,0,0,0,0,.32l-10.65,3.63a1.68,1.68,0,0,0-2.48-.62l-3.3-3.5a1.07,1.07,0,0,0,.18-.64,1,1,0,0,0-.34-.7l4.12-6.21a1.3,1.3,0,0,0,.68.14,1.36,1.36,0,0,0,1.29-1.43s0-.06,0-.08l4.93-1.19a1,1,0,1,0-.08-.35v0L106,112.73a1.34,1.34,0,0,0-1.34-.88,1.37,1.37,0,0,0-1.3,1.43,1.36,1.36,0,0,0,.48,1l-4.11,6.21a1.11,1.11,0,0,0-.48-.09,1,1,0,0,0-.73.36l-6.28-3.3a1.27,1.27,0,0,0,.07-.48,1.36,1.36,0,0,0-1.43-1.3l-.09,0-1.45-5.1a1,1,0,1,0-.38.1H89l1.45,5.08a1.38,1.38,0,0,0-.89,1.35l0,.19-4.91,1.43a1,1,0,1,0,.14.46.77.77,0,0,0,0-.15l4.89-1.42a1.36,1.36,0,0,0,1.31.78,1.35,1.35,0,0,0,1-.53l6.28,3.3a1,1,0,0,0,1,1.3,1.08,1.08,0,0,0,.47-.15l3.3,3.52a1.69,1.69,0,1,0,3,1,1.57,1.57,0,0,0,0-.23l10.64-3.63a2,2,0,0,0,1.92,1.14l.07,0,1.87,8.8a1.81,1.81,0,1,0,2.42,1.61,1.83,1.83,0,0,0-1.91-1.72h0l-1.87-8.8a2,2,0,0,0,.65-3.42l3.87-5.84a2.6,2.6,0,0,0,1.41.32,2.67,2.67,0,0,0,1.73-.75l13.78,11.08a2.3,2.3,0,0,0-.31,1.25,2.26,2.26,0,0,0,1.78,2.07l-.79,7.26a1.37,1.37,0,0,0-1.27,1.43,1.35,1.35,0,0,0,.11.46l2.24.42a1.36,1.36,0,0,0-.6-2.25l.78-7.27h.11a2.25,2.25,0,0,0,2.13-2.36c0-.06,0-.12,0-.18l15.29-4.39a2.69,2.69,0,1,0,4.27-3l12.92-18.42a2.63,2.63,0,0,0,1.4.31,2.66,2.66,0,0,0,1.25-.38l5.4,7.59a2.25,2.25,0,0,0-.76,1.79,2.23,2.23,0,0,0,1.06,1.78l-3.49,7.15a2.18,2.18,0,0,0-.81-.12,2.24,2.24,0,0,0-2.12,2.25l-4,.3a1.25,1.25,0,0,0-2.48.33,1.25,1.25,0,0,0,2.5,0l4-.31a2.23,2.23,0,0,0,2.32,1.91,2.64,2.64,0,0,0,.49-.08l3.61,9a1.35,1.35,0,0,0-.7,1.26,1.38,1.38,0,0,0,.51,1l0,0,.25.22.06-.1a1.39,1.39,0,0,0,.64.13,1.37,1.37,0,1,0-.42-2.68l-3.61-9a2.24,2.24,0,0,0,.21-4l3.48-7.13a2.32,2.32,0,0,0,.88.14,2.23,2.23,0,0,0,1.79-1.06l3.42,1.64a1.47,1.47,0,0,0-.08.55,1.6,1.6,0,0,0,1.67,1.51l.18,0,1.23,4.44a1.25,1.25,0,0,0-.76,1.22,1.26,1.26,0,1,0,2.51-.13,1.25,1.25,0,0,0-1.32-1.19h-.11l-1.23-4.44a1.58,1.58,0,1,0-1.89-2.36l-3.41-1.65a2.12,2.12,0,0,0,.13-.87,2.24,2.24,0,0,0-2.36-2.13,2,2,0,0,0-1,.29L180.27,100a2.67,2.67,0,0,0,.91-1.95l20-1.67A2.69,2.69,0,0,0,202.22,98l-1.17,1.9a1.26,1.26,0,0,0-.52-.08,1.31,1.31,0,1,0,1.38,1.24,1.29,1.29,0,0,0-.55-1l1.17-1.88a2.69,2.69,0,0,0,1.39.31,2.74,2.74,0,0,0,1.3-.42l3.65,4.74a1.64,1.64,0,0,0-.48,1.24,1.67,1.67,0,0,0,1.11,1.49l-1.26,5.29h-.17a1.26,1.26,0,0,0,.12,2.51,1.3,1.3,0,0,0,.52-.14l3,5.1a1.28,1.28,0,0,0-.5,1.07,1.19,1.19,0,0,0,.36.81l-5,6.17a.82.82,0,0,0-.44-.1.83.83,0,1,0,.08,1.65.81.81,0,0,0,.78-.87.82.82,0,0,0-.2-.5l5-6.17a1.18,1.18,0,0,0,.74.2,1.25,1.25,0,1,0-.13-2.5,1.09,1.09,0,0,0-.44.1l-3-5.12a1.21,1.21,0,0,0,.44-1,1.26,1.26,0,0,0-.79-1.1l1.26-5.29a1.51,1.51,0,0,0,.3,0,1.63,1.63,0,0,0,1.33-.8l3.84,1.83a1.14,1.14,0,0,0,0,.37,1.14,1.14,0,1,0,.2-.69l-3.84-1.83a1.68,1.68,0,0,0,.09-.64,1.67,1.67,0,0,0-1.75-1.58,1.56,1.56,0,0,0-.74.22l-3.64-4.74a2.7,2.7,0,0,0,.75-1.22l3,.67a1,1,0,0,0,0,.17,1.32,1.32,0,1,0,.08-.52l-3-.67a2.38,2.38,0,0,0,0-.54,2.73,2.73,0,0,0-.91-1.88L214.9,80a2.61,2.61,0,0,0,1.36.29,2.67,2.67,0,0,0,2.54-2.69l12.9-1.67A2.23,2.23,0,0,0,234,77.53a2.18,2.18,0,0,0,1.4-.59l9.76,7.86a2.65,2.65,0,0,0-.4,1.55s0,.08,0,.12l-6,1.11a1.65,1.65,0,0,0-3-.27l-6.35-2.43a.93.93,0,0,0,0-.23,1.14,1.14,0,0,0-1.18-1.07,1.13,1.13,0,1,0,1,1.74l6.35,2.44a1.6,1.6,0,0,0,0,.44,1.68,1.68,0,0,0,.22.74l-2.46,1.78a1.12,1.12,0,1,0,.32.72,1,1,0,0,0-.12-.45L236,89.21a1.64,1.64,0,0,0,2.88-1.16l6-1.11a2.59,2.59,0,0,0,.72,1.2L236.79,99a2.14,2.14,0,0,0-1.32-.36,2.24,2.24,0,0,0-.57,4.38l-2,9.74a.55.55,0,0,0-.18,0,1.68,1.68,0,0,0-1.59,1.75,1.83,1.83,0,0,0,.14.58l-5.93,3.31a1.27,1.27,0,0,0-1.07-.5,1.26,1.26,0,0,0,.13,2.51,1.27,1.27,0,0,0,1.19-1.32,1.79,1.79,0,0,0-.09-.4l5.94-3.31a1.66,1.66,0,0,0,1.45.72,1.83,1.83,0,0,0,.62-.16l3.69,6.23a1.25,1.25,0,1,0,.71-.27,1.43,1.43,0,0,0-.42.1l-3.69-6.23a1.68,1.68,0,0,0-.43-2.92l2-9.73a1.77,1.77,0,0,0,.33,0,2.23,2.23,0,0,0,1.46-3.83l8.76-10.88a2.68,2.68,0,0,0,1.63.45,2.48,2.48,0,0,0,.67-.12l1.51,3.83a1.67,1.67,0,1,0,2.44,1.4,1.69,1.69,0,0,0-1.76-1.59,2,2,0,0,0-.35.06l-1.51-3.83A2.67,2.67,0,0,0,250,87.05l16,3.1c0,.07,0,.14,0,.21a2.24,2.24,0,0,0,1.77,2.08L267,96.87a2.18,2.18,0,0,0-2.39,2.35,2.19,2.19,0,0,0,.83,1.62l-4,6.06a1.17,1.17,0,0,0-.53-.11,1.13,1.13,0,0,0-1.06,1.11l-4.72.64a1,1,0,0,0-.95-.66.95.95,0,1,0,1,1l4.72-.64A1.13,1.13,0,0,0,261,109l.09,0,1.45,4.94a.93.93,0,0,0-.53.89,1,1,0,0,0,1,.9.95.95,0,0,0-.1-1.89h-.05l-1.45-4.93a1.11,1.11,0,0,0,.65-1.08,1.09,1.09,0,0,0-.37-.78l4-6a2.23,2.23,0,0,0,2.93-.59l2,2a1,1,0,0,0-.2.64,1,1,0,1,0,.95-1,1,1,0,0,0-.5.17l-2.06-2.06a2.33,2.33,0,0,0,.27-1.18,2.24,2.24,0,0,0-1.77-2.07l.64-4.44a1.13,1.13,0,0,0,.26,0,2.25,2.25,0,0,0,2.13-2.35,3.26,3.26,0,0,0-.05-.33l-.15-.43,8.13-4.77a2.68,2.68,0,0,0,4.82-1.73l9.21-1.44.14.41a2.14,2.14,0,0,0,.43.56L291.46,84a1.07,1.07,0,0,0-.68-.18,1.14,1.14,0,1,0,.94.42l1.47-1.61a2.17,2.17,0,0,0,1.39.4l.19,0,1.86,8.08a2.3,2.3,0,0,0-1.21,3.46l-5.81,4.6a1.76,1.76,0,0,0-.53-.4,2,2,0,0,0-2.47.5l-5-2.93a1.77,1.77,0,0,0,.17-.83,1.82,1.82,0,1,0-.35,1.14l5,2.91-.06.08a2,2,0,0,0,.88,2.73,1.51,1.51,0,0,0,.49.17l-1,8.63a1.42,1.42,0,0,0-1.24.77,1.45,1.45,0,1,0,1.65-.73l1-8.62a2,2,0,0,0,1.73-3.1l5.81-4.59a2.42,2.42,0,0,0,.62.47,2.32,2.32,0,0,0,2.31-.11l6.24,8.08a2.06,2.06,0,0,0-.49.64,2.31,2.31,0,0,0,1,3.12,2.39,2.39,0,0,0,1.1.25l1.21,11.51a1.93,1.93,0,0,0-1.32,1A1.95,1.95,0,1,0,309,119a2,2,0,0,0-.89-.2l-1.22-11.51a2.36,2.36,0,0,0,1.62-1.21,2.24,2.24,0,0,0,.21-.65l6.23.55a1.37,1.37,0,1,0,.15-.71,1.15,1.15,0,0,0-.11.31l-6.23-.56a2.31,2.31,0,0,0-3.56-2L298.92,95a2.26,2.26,0,0,0,.5-.64,2.88,2.88,0,0,0,.18-.49l4.92.79a1.35,1.35,0,1,0,.14-.6l-.08.2-4.91-.79a2.34,2.34,0,0,0-1.26-2.23A2.24,2.24,0,0,0,297,91l-1.87-8.08a2.2,2.2,0,0,0,1.42-1.37l15.94,3.1c0,.11,0,.21,0,.32a2.67,2.67,0,0,0,4.54,1.79l9.75,7.86a2.23,2.23,0,0,0-.3,1.25,2.17,2.17,0,0,0,.21.85l-3.22,2a1.18,1.18,0,0,0-.87-.35,1.13,1.13,0,1,0,1.18,1.07,1.08,1.08,0,0,0-.07-.31l3.23-2a2.23,2.23,0,0,0,3,.51l4.14,5a1.51,1.51,0,0,0-.18.26,1.37,1.37,0,0,0,.59,1.85l-1.44,4.64a1.35,1.35,0,0,0-1.52.7,1.37,1.37,0,0,0,1.85,1.84l4.05,6a1.12,1.12,0,1,0,.66-.26,1,1,0,0,0-.24,0l-4.09-6a1,1,0,0,0,.2-.29,1.35,1.35,0,0,0-.47-1.76l1.45-4.7a1.37,1.37,0,1,0-.5-2.54l-4.13-5A2.22,2.22,0,0,0,331,95.8l12.9-1.67a2.67,2.67,0,0,0,3.79,1.73l4.41,7.16a1.67,1.67,0,0,0-.59,1.35,1.65,1.65,0,0,0,.63,1.22L349.64,110a1,1,0,0,0-.39,0,1.12,1.12,0,1,0,1.18,1.06,1.18,1.18,0,0,0-.37-.78l2.48-4.35a1.79,1.79,0,0,0,.69.11,1.63,1.63,0,0,0,1.46-1.07l7.62,1.67s0,0,0,.06a1.13,1.13,0,1,0,.1-.52l-7.62-1.67c0-.07,0-.14,0-.2a1.65,1.65,0,0,0-1.74-1.57,1.49,1.49,0,0,0-.56.14l-4.41-7.17a2.68,2.68,0,0,0,.17-4.17l9.35-13.8a2.7,2.7,0,0,0,2.06.16l1.91,4.44a1.11,1.11,0,0,0,0,1.82l-1.87,3.7a.66.66,0,0,0-.24,0,.83.83,0,0,0-.79.87.84.84,0,0,0,.87.78.81.81,0,0,0,.78-.87.78.78,0,0,0-.3-.59l1.86-3.7a1.34,1.34,0,0,0,.4.06A1.13,1.13,0,0,0,363,84L367.23,87a1.09,1.09,0,0,0-.13.57,1.12,1.12,0,0,0,1.09,1.06l.74,5.65a.81.81,0,0,0-.55.81.83.83,0,0,0,.87.79.9.9,0,0,0,.39-.13l4.17,5a.83.83,0,0,0,.66,1.38.83.83,0,0,0-.09-1.66.9.9,0,0,0-.39.13l-4.17-5a.84.84,0,0,0,.21-.59.82.82,0,0,0-.75-.78l-.74-5.64a1.12,1.12,0,0,0,.76-.78l3.37.54v.06a.83.83,0,0,0,1.65-.09.82.82,0,0,0-1.61-.2l-3.37-.55s0-.08,0-.12a1.12,1.12,0,0,0-1.91-.74l-4.21-3.09a1.08,1.08,0,0,0,.13-.56A1.13,1.13,0,0,0,362.18,82a.76.76,0,0,0-.16,0l-1.92-4.45a2.69,2.69,0,0,0,1.41-2.25l20-1.67a2.82,2.82,0,0,0,.69,1.27l-4,4.68a1.62,1.62,0,1,0,.36.31l4-4.68a2.6,2.6,0,0,0,1.71.5h.17l2.16,9.82a2.23,2.23,0,0,0-.55,4l-3.74,7a1.91,1.91,0,0,0-.72-.11,1.81,1.81,0,0,0,.18,3.62l.29-.05,2.22,7a1.14,1.14,0,0,0-.63,1.07,1.13,1.13,0,0,0,.59.93l-2.51,6.87a1.27,1.27,0,0,0-.28,0,1.13,1.13,0,0,0-1.06,1.18.85.85,0,0,0,0,.23l-5.54,2.4a.81.81,0,0,0-.71-.36.83.83,0,1,0,.87.79.69.69,0,0,1,0-.13l5.54-2.39a1.14,1.14,0,0,0,1,.53l.13,0,1.7,5.08a.81.81,0,0,0-.41.75.83.83,0,1,0,.79-.87h-.06L382,118a1.13,1.13,0,0,0,.61-1.06,1.11,1.11,0,0,0-.58-.93l2.5-6.87a.86.86,0,0,0,.28,0,1.12,1.12,0,0,0,.94-.61l6.93,2.32a2.28,2.28,0,0,0,0,.26,1.13,1.13,0,0,0,1.18,1.06,1.16,1.16,0,0,0,.45-.12l3.26,4.63a.84.84,0,0,0-.23.61.84.84,0,0,0,.87.79.83.83,0,0,0-.08-1.66.88.88,0,0,0-.29.07l-3.26-4.63a1.12,1.12,0,1,0-1.77-1.32l-6.93-2.32a1.13,1.13,0,0,0,0-.26,1.12,1.12,0,0,0-1.18-1.06l-.11,0-2.22-7a1.8,1.8,0,0,0,.35-3.13l3.74-7.06a2.35,2.35,0,0,0,.95.17,2.25,2.25,0,1,0-.23-4.49l-.13,0-2.17-9.82a2.72,2.72,0,0,0,1.49-1.1L397,79.78a2.21,2.21,0,0,0-.13.89A2.24,2.24,0,0,0,399,82.79l.33,6.49a1.42,1.42,0,0,0,.38,2.8,1.35,1.35,0,0,0,.88-.37l4.22,3.64a1.81,1.81,0,0,0-.35,1.19,1.89,1.89,0,0,0,1.82,1.79l.32,6.1a1.42,1.42,0,0,0,.31,2.82,1.36,1.36,0,0,0,.6-.18l4,7.22a.89.89,0,0,0-.32.74.92.92,0,1,0,.87-1,.93.93,0,0,0-.24,0l-4-7.25a1.39,1.39,0,0,0,.46-1.1,1.42,1.42,0,0,0-1.32-1.34l-.31-6.11A1.89,1.89,0,0,0,408.15,97l6.14,1.31a.66.66,0,0,0,0,.2,1.24,1.24,0,1,0,.06-.43l-6.14-1.31a1.59,1.59,0,0,0,0-.38A1.89,1.89,0,0,0,405,95.08l-4.22-3.64a1.31,1.31,0,0,0,.24-.85,1.42,1.42,0,0,0-1.25-1.34l-.34-6.49a2.23,2.23,0,0,0,1.9-2.26l6.55-.66a1.24,1.24,0,1,0,0-.33l-6.56.66A2.25,2.25,0,0,0,399,78.31a2.22,2.22,0,0,0-1.78,1l-10.62-5.23a2.68,2.68,0,0,0,.21-1.17.68.68,0,0,0,0-.14l3.08-.58a1.56,1.56,0,1,0-.1-.47l-3.07.59a2.6,2.6,0,0,0-.76-1.25l12.91-18.42a2.75,2.75,0,0,0,1.4.31,2.68,2.68,0,0,0,1.09-.3l1.29,2.14A1.39,1.39,0,0,0,402,56a1.37,1.37,0,0,0,.8,1.17l-1.36,5.05-.25,0a1.37,1.37,0,1,0,.14,2.73,1.36,1.36,0,0,0,.45-2.62l1.36-5,.3,0a1.35,1.35,0,0,0,1.22-1l2.78.82s0,0,0,0a.84.84,0,0,0,.87.78.83.83,0,1,0-.79-1.17L404.76,56s0-.09,0-.13a1.36,1.36,0,0,0-1.43-1.29,1.12,1.12,0,0,0-.41.09l-1.31-2.17a2.65,2.65,0,0,0,1.15-2.33l0-.28L418,45.51a2.24,2.24,0,0,0,2.15,1.31,2.19,2.19,0,0,0,1.4-.6l13.79,11.09a2.64,2.64,0,0,0-.4,1.54s0,.08,0,.12l-8.48,1.58a2.24,2.24,0,0,0-2.27-1.6,2.21,2.21,0,0,0-1.77,1l-5-2.51a1.33,1.33,0,0,0,.07-.45,1.26,1.26,0,1,0-1.19,1.31,1.23,1.23,0,0,0,1-.54l5,2.51a2.22,2.22,0,0,0,.55,2.56l-4.27,5.91a1.86,1.86,0,1,0,.38.28l4.28-5.91a2.25,2.25,0,0,0,3.36-2.06s0,0,0-.06l8.49-1.58a2.69,2.69,0,0,0,2.52,2l1.26,12.53a2.27,2.27,0,0,0-1.63,1.65l-2.52-.43s0-.05,0-.08a1.21,1.21,0,0,0-2.42.12,1.21,1.21,0,0,0,2.36.32l2.51.42c0,.1,0,.2,0,.31a2.24,2.24,0,0,0,1.25,1.89L436.16,85a2.85,2.85,0,0,0-.66,0,2.74,2.74,0,0,0-2.59,2.87,2.69,2.69,0,0,0,.21.91l-4.7,2.47a1.81,1.81,0,1,0,.33.95,1.86,1.86,0,0,0-.12-.53l4.71-2.46a2.74,2.74,0,0,0,2.44,1.25l.4,0,2,6.86a1.8,1.8,0,0,0-.35,3.09l-2.47,4.42a1.49,1.49,0,0,0-.56-.08,1.43,1.43,0,0,0-1.35,1.49,1.87,1.87,0,0,0,0,.25l-4.69,1.76a1.2,1.2,0,1,0-1,1.79,1.22,1.22,0,0,0,1.15-1.27l0-.19,4.69-1.75a1.43,1.43,0,0,0,1.33.76l.18,0,2.85,9a1.41,1.41,0,1,0,.52-.13l-.18,0-2.85-9a1.42,1.42,0,0,0,.3-2.4l2.47-4.41a2,2,0,0,0,.77.13,1.81,1.81,0,0,0-.19-3.62l-.18,0-2-6.87a2.72,2.72,0,0,0,.15-5L439,78.34a2,2,0,0,0,.49,0,2.16,2.16,0,0,0,1.43-.62l10.42,8.13a2.79,2.79,0,0,0-.39,1.54A2.73,2.73,0,0,0,453.63,90l1.61,17.34a2.73,2.73,0,0,0-.72,5.06l-3.5,8a1.35,1.35,0,0,0-.49-.06,1.6,1.6,0,1,0,.93.24l3.49-8a2.66,2.66,0,0,0,1,.14,2.68,2.68,0,0,0,1.83-.84L468,120.05a2.31,2.31,0,0,0,2.06,3.57,2.93,2.93,0,0,0,.53-.09l4,9.86a1.59,1.59,0,0,0-.78,1.46,1.57,1.57,0,0,0,.72,1.25l-.07.13.26.22.1-.2a1.51,1.51,0,0,0,.67.12,1.61,1.61,0,0,0,1-.46l.14.12.21-.26-.14-.11a1.59,1.59,0,0,0,.28-1,1.61,1.61,0,0,0-1.68-1.52,1.34,1.34,0,0,0-.3.05l-4-9.87a2.32,2.32,0,0,0,1.23-2.15s0,0,0,0l12.7-2.11a2.3,2.3,0,0,0,4.47,0l13.53,1.79v.05a1.59,1.59,0,0,0,1.68,1.52,1.68,1.68,0,0,0,.83-.28l6.5,6.84a.94.94,0,0,0-.2.65,1,1,0,1,0,.95-1.06,1,1,0,0,0-.51.18l-6.49-6.83a1.62,1.62,0,0,0,.44-1.18,1.75,1.75,0,0,0-.08-.41l10.6-5.26a1.72,1.72,0,0,0,3-.39L535,118.54c0,.06,0,.13,0,.19a1.21,1.21,0,0,0,2.42-.12l0-.15,11.32-3.73a1,1,0,1,0,.84-1.48Z"/><path class="cls-3" d="M142,138.5a1.35,1.35,0,0,1-1.6-.3"/><g class="cls-4"><path d="M20.65,149.18H.75a.78.78,0,0,1-.75-.81V5.54a.78.78,0,0,1,.75-.81h19.9a.77.77,0,0,1,.74.81.77.77,0,0,1-.74.81H1.5v141.2H20.65a.78.78,0,0,1,.74.82A.77.77,0,0,1,20.65,149.18Z"/></g><g class="cls-4"><path d="M559.25,149.18h-19.9a.77.77,0,0,1-.74-.81.78.78,0,0,1,.74-.82H558.5V6.35H539.35a.77.77,0,0,1-.74-.81.77.77,0,0,1,.74-.81h19.9a.78.78,0,0,1,.75.81V148.37A.78.78,0,0,1,559.25,149.18Z"/></g><path d="M41.26,11.08a5.34,5.34,0,0,1-5.1-5.54A5.34,5.34,0,0,1,41.26,0a5.34,5.34,0,0,1,5.09,5.54A5.33,5.33,0,0,1,41.26,11.08ZM41.26.9A4.47,4.47,0,0,0,37,5.54a4.28,4.28,0,1,0,8.54,0A4.47,4.47,0,0,0,41.26.9Z"/><path d="M514.26,6H45.94a.45.45,0,0,1,0-.9H514.26a.45.45,0,0,1,0,.9Z"/><path d="M517,5.54a2.74,2.74,0,1,0-5.46,0,2.74,2.74,0,1,0,5.46,0Z"/><polygon points="392.9 162.25 387.99 153.73 383.07 162.25 392.9 162.25"/><path d="M397.3,158.68a9.32,9.32,0,1,1-9.31-9.32A9.33,9.33,0,0,1,397.3,158.68Zm-.56,0a8.76,8.76,0,1,0-8.75,8.75A8.77,8.77,0,0,0,396.74,158.68Z"/><path d="M438,180.59H419.55a.25.25,0,0,1-.2-.09l-14-14a.3.3,0,0,1-.08-.2V150.1a.27.27,0,0,1,.08-.19l14-14a.28.28,0,0,1,.2-.08h46a.28.28,0,0,1,.28.28.29.29,0,0,1-.28.28H419.66l-13.85,13.85v15.95L419.66,180H438a.29.29,0,0,1,0,.57Z"/><path d="M422.1,136.09a2.55,2.55,0,1,0-2.55,2.57A2.56,2.56,0,0,0,422.1,136.09Z"/><path d="M408.08,158.2a2.55,2.55,0,1,0-2.55,2.57A2.56,2.56,0,0,0,408.08,158.2Z"/><path d="M441.32,183.94a3.64,3.64,0,1,1,3.64-3.63A3.64,3.64,0,0,1,441.32,183.94Zm0-6.71a3.08,3.08,0,1,0,3.08,3.08A3.08,3.08,0,0,0,441.32,177.23Z"/><path d="M428.34,169.66h-10a.28.28,0,0,1-.28-.28V146.24a.27.27,0,0,1,.28-.28h10a.28.28,0,0,1,.28.28.29.29,0,0,1-.28.28h-9.73V169.1h9.73a.28.28,0,0,1,.28.28A.29.29,0,0,1,428.34,169.66Z"/><path d="M431.49,164.06a3.68,3.68,0,0,1-2.55.73h-.55a3.65,3.65,0,0,1-2.55-.73,3.09,3.09,0,0,1-.79-2.37v-1.64a2.54,2.54,0,0,1,1.28-2.42,2.56,2.56,0,0,1-1-2.27v-1.24a3,3,0,0,1,.82-2.31,3.37,3.37,0,0,1,2.35-.75h.4a3.37,3.37,0,0,1,2.35.75,3,3,0,0,1,.82,2.31v1.24a2.57,2.57,0,0,1-1,2.27,2.53,2.53,0,0,1,1.27,2.42v1.64A3.13,3.13,0,0,1,431.49,164.06Zm-1.32-5.22a1.4,1.4,0,0,0-1-.38h-.94a1.4,1.4,0,0,0-1,.38,1.37,1.37,0,0,0-.39,1v2a1.6,1.6,0,0,0,.31,1.08,1.27,1.27,0,0,0,1,.35h1.06a1.51,1.51,0,0,0,1.1-.34,1.44,1.44,0,0,0,.35-1.09v-2A1.37,1.37,0,0,0,430.17,158.84Zm-2.89-5.94a1.61,1.61,0,0,0-.29,1v1.6a1.37,1.37,0,0,0,.37,1,1.33,1.33,0,0,0,.91.43h.67a1.35,1.35,0,0,0,1-.4,1.4,1.4,0,0,0,.39-1V154a1.48,1.48,0,0,0-.33-1.08,1.39,1.39,0,0,0-1.06-.34h-.71A1.23,1.23,0,0,0,427.28,152.9Z"/><path d="M441.86,163.93a3,3,0,0,1-2.21.86H439a3,3,0,0,1-2.22-.86,3.3,3.3,0,0,1-.88-2.47V154.4a3.27,3.27,0,0,1,.89-2.5,3.66,3.66,0,0,1,2.6-.84h2.45v1.49h-2.64A1.66,1.66,0,0,0,438,153a1.4,1.4,0,0,0-.45,1v2.14h1.92a3.56,3.56,0,0,1,2.49.75,3.09,3.09,0,0,1,.8,2.39v2.16A3.3,3.3,0,0,1,441.86,163.93Zm-3.92-1a1.46,1.46,0,0,0,1.12.43h.49a1.48,1.48,0,0,0,1.12-.43,1.5,1.5,0,0,0,.41-1.06v-2.9a1.21,1.21,0,0,0-.37-1,1.47,1.47,0,0,0-1.06-.35h-2.12v4.2A1.46,1.46,0,0,0,437.94,162.89Z"/><g class="cls-5"><path d="M450.62,154.82v-5.37l-1.39.51v-.8l1.29-.49h.94v6.15h1.07v.73h-3.2v-.73Z"/><path d="M456.69,154.57v1h-1v-1Z"/><path d="M462.81,155.12a1.52,1.52,0,0,1-1.11.43h-.34a1.54,1.54,0,0,1-1.12-.43,1.67,1.67,0,0,1-.44-1.24v-3.54a1.63,1.63,0,0,1,.45-1.25,1.83,1.83,0,0,1,1.3-.42h1.23v.75h-1.33a.8.8,0,0,0-.59.22.67.67,0,0,0-.22.52v1.07h1a1.8,1.8,0,0,1,1.25.37,1.57,1.57,0,0,1,.4,1.2v1.08A1.67,1.67,0,0,1,462.81,155.12Zm-2-.52a.77.77,0,0,0,.56.22h.25a.75.75,0,0,0,.56-.22.72.72,0,0,0,.21-.53v-1.46a.58.58,0,0,0-.19-.47.71.71,0,0,0-.53-.18h-1.06v2.11A.76.76,0,0,0,460.84,154.6Z"/><path d="M466.55,154.82v-5.37l-1.39.51v-.8l1.29-.49h.93v6.15h1.07v.73h-3.19v-.73Z"/><path d="M473.53,155.18a1.79,1.79,0,0,1-1.27.37H472a1.83,1.83,0,0,1-1.28-.37,1.55,1.55,0,0,1-.39-1.18v-.83A1.27,1.27,0,0,1,471,152a1.28,1.28,0,0,1-.52-1.14v-.61a1.49,1.49,0,0,1,.41-1.16,1.71,1.71,0,0,1,1.18-.38h.2a1.71,1.71,0,0,1,1.18.38,1.49,1.49,0,0,1,.41,1.16v.61a1.28,1.28,0,0,1-.52,1.14,1.28,1.28,0,0,1,.64,1.21V154A1.52,1.52,0,0,1,473.53,155.18Zm-.65-2.61a.73.73,0,0,0-.53-.19h-.47a.71.71,0,0,0-.52.19.69.69,0,0,0-.19.52v1a.83.83,0,0,0,.15.54.63.63,0,0,0,.49.18h.53a.77.77,0,0,0,.56-.18.74.74,0,0,0,.17-.54v-1A.69.69,0,0,0,472.88,152.57Zm-1.45-3a.8.8,0,0,0-.15.53v.8a.69.69,0,0,0,.19.51.64.64,0,0,0,.45.21h.34a.65.65,0,0,0,.5-.2.69.69,0,0,0,.19-.52v-.8a.74.74,0,0,0-.16-.54.68.68,0,0,0-.53-.17h-.36A.62.62,0,0,0,471.43,149.59Z"/><path d="M478.73,155.13a1.69,1.69,0,0,1-1.2.42h-.2a1.5,1.5,0,0,1-1.65-1.67v-3.54a1.64,1.64,0,0,1,.44-1.25,1.68,1.68,0,0,1,1.21-.42h.2a1.51,1.51,0,0,1,1.65,1.67v3.54A1.65,1.65,0,0,1,478.73,155.13Zm-.62-5.5a.79.79,0,0,0-.58-.22h-.2a.82.82,0,0,0-.59.22.72.72,0,0,0-.23.53v2.66l1.83-2.66A.72.72,0,0,0,478.11,149.63Zm-1.37,5a.82.82,0,0,0,.59.23h.2a.8.8,0,0,0,.58-.23.7.7,0,0,0,.23-.52v-2.66l-1.83,2.66A.7.7,0,0,0,476.74,154.59Z"/><path d="M483.81,155.18a1.83,1.83,0,0,1-1.28.37h-1.26v-.73h1.35a.74.74,0,0,0,.55-.18.7.7,0,0,0,.17-.54v-1a.69.69,0,0,0-.19-.52.71.71,0,0,0-.52-.19h-1.05v-.74h.95a.69.69,0,0,0,.51-.2.67.67,0,0,0,.21-.52v-.8a.62.62,0,0,0-.72-.71h-1.26v-.74h1.14a1.84,1.84,0,0,1,1.26.37,1.45,1.45,0,0,1,.43,1.17v.61a1.29,1.29,0,0,1-.54,1.14,1.27,1.27,0,0,1,.64,1.21V154A1.55,1.55,0,0,1,483.81,155.18Z"/><path d="M489.11,155.18a1.79,1.79,0,0,1-1.27.37h-1.26v-.73h1.34a.77.77,0,0,0,.56-.18.74.74,0,0,0,.17-.54v-1a.69.69,0,0,0-.19-.52.73.73,0,0,0-.53-.19h-1.05v-.74h1a.69.69,0,0,0,.51-.2.66.66,0,0,0,.2-.52v-.8a.61.61,0,0,0-.71-.71h-1.26v-.74h1.14A1.84,1.84,0,0,1,489,149a1.45,1.45,0,0,1,.43,1.17v.61a1.29,1.29,0,0,1-.54,1.14,1.28,1.28,0,0,1,.64,1.21V154A1.52,1.52,0,0,1,489.11,155.18Z"/><path d="M492.08,149.1a1.57,1.57,0,0,1,1.11-.43h.35a1.57,1.57,0,0,1,1.11.43,1.69,1.69,0,0,1,.44,1.24v3.54a1.64,1.64,0,0,1-.45,1.26,1.86,1.86,0,0,1-1.3.41h-1.13v-.74h1.23a.84.84,0,0,0,.59-.22.7.7,0,0,0,.23-.52V153h-1a1.8,1.8,0,0,1-1.25-.38,1.57,1.57,0,0,1-.4-1.2v-1.08A1.69,1.69,0,0,1,492.08,149.1Zm2,.53a.73.73,0,0,0-.56-.22h-.25a.73.73,0,0,0-.56.22.72.72,0,0,0-.2.53v1.45a.65.65,0,0,0,.18.48.77.77,0,0,0,.53.17h1.07v-2.1A.72.72,0,0,0,494.05,149.63Z"/><path d="M500.07,155.18a1.79,1.79,0,0,1-1.27.37h-.28a1.83,1.83,0,0,1-1.28-.37,1.55,1.55,0,0,1-.39-1.18v-.83a1.27,1.27,0,0,1,.64-1.21,1.28,1.28,0,0,1-.52-1.14v-.61a1.49,1.49,0,0,1,.41-1.16,1.71,1.71,0,0,1,1.18-.38h.2a1.71,1.71,0,0,1,1.18.38,1.49,1.49,0,0,1,.41,1.16v.61a1.28,1.28,0,0,1-.52,1.14,1.28,1.28,0,0,1,.64,1.21V154A1.52,1.52,0,0,1,500.07,155.18Zm-.65-2.61a.73.73,0,0,0-.52-.19h-.48a.71.71,0,0,0-.52.19.69.69,0,0,0-.19.52v1a.83.83,0,0,0,.15.54.63.63,0,0,0,.49.18h.54a.76.76,0,0,0,.55-.18.74.74,0,0,0,.17-.54v-1A.69.69,0,0,0,499.42,152.57Zm-1.45-3a.8.8,0,0,0-.15.53v.8a.69.69,0,0,0,.19.51.64.64,0,0,0,.45.21h.34a.65.65,0,0,0,.5-.2.69.69,0,0,0,.19-.52v-.8a.74.74,0,0,0-.16-.54.68.68,0,0,0-.53-.17h-.36A.62.62,0,0,0,498,149.59Z"/><path d="M505.38,155.18a1.81,1.81,0,0,1-1.28.37h-.27a1.81,1.81,0,0,1-1.28-.37,1.55,1.55,0,0,1-.39-1.18v-.83a1.27,1.27,0,0,1,.64-1.21,1.28,1.28,0,0,1-.52-1.14v-.61a1.45,1.45,0,0,1,.41-1.16,1.69,1.69,0,0,1,1.18-.38h.2a1.71,1.71,0,0,1,1.18.38,1.49,1.49,0,0,1,.41,1.16v.61a1.3,1.3,0,0,1-.52,1.14,1.28,1.28,0,0,1,.64,1.21V154A1.55,1.55,0,0,1,505.38,155.18Zm-.66-2.61a.69.69,0,0,0-.52-.19h-.47a.71.71,0,0,0-.52.19.7.7,0,0,0-.2.52v1a.83.83,0,0,0,.16.54.63.63,0,0,0,.49.18h.53a.73.73,0,0,0,.55-.18.7.7,0,0,0,.18-.54v-1A.66.66,0,0,0,504.72,152.57Zm-1.45-3a.86.86,0,0,0-.14.53v.8a.72.72,0,0,0,.18.51.66.66,0,0,0,.46.21h.33a.66.66,0,0,0,.51-.2.69.69,0,0,0,.19-.52v-.8a.74.74,0,0,0-.16-.54.7.7,0,0,0-.54-.17h-.35A.66.66,0,0,0,503.27,149.59Z"/><path d="M510,149.41h-2.38v-.74h3.2v1l-1.73,5.92h-.88Z"/><path d="M515.66,155.18a1.79,1.79,0,0,1-1.27.37H513.1v-.73h1.38a.76.76,0,0,0,.55-.18.74.74,0,0,0,.17-.54v-1.25a.69.69,0,0,0-.19-.52.77.77,0,0,0-.52-.19H513.2v-3.47h2.71v.74H514v2h.41a1.77,1.77,0,0,1,1.19.38,1.47,1.47,0,0,1,.43,1.16V154A1.52,1.52,0,0,1,515.66,155.18Z"/></g><g class="cls-4"><path d="M448.86,162.11h.91l1.15,4.24,1.12-4.24h.87L451.5,167h-1.21Z"/><path d="M454.87,166.66a1.57,1.57,0,0,1-.41-1.2v-1.77a1.35,1.35,0,0,1,1.58-1.58h.46a1.38,1.38,0,0,1,1.06.39,1.62,1.62,0,0,1,.35,1.14v1.28H455.3v.73a.6.6,0,0,0,.19.48.79.79,0,0,0,.55.16h1.56V167h-1.46A1.82,1.82,0,0,1,454.87,166.66Zm2.23-3.22a.58.58,0,0,0-.59-.59h-.57a.68.68,0,0,0-.5.16.74.74,0,0,0-.14.48v.69h1.8Z"/><path d="M460.43,166.66a1.57,1.57,0,0,1-.4-1.2v-1.77a1.53,1.53,0,0,1,.41-1.2,1.81,1.81,0,0,1,1.26-.38H463v.74H461.6a.8.8,0,0,0-.55.17.62.62,0,0,0-.19.47v2.16a.64.64,0,0,0,.19.48.8.8,0,0,0,.55.16H463V167H461.7A1.82,1.82,0,0,1,460.43,166.66Z"/><path d="M466.41,166.7a1.27,1.27,0,0,1-.27-.85v-3h-.93v-.74h.93v-1.18H467v1.18h1.43v.74H467v3.05a.35.35,0,0,0,.11.3.5.5,0,0,0,.33.09h1V167h-1.24A.91.91,0,0,1,466.41,166.7Z"/><path d="M473.54,166.66a1.86,1.86,0,0,1-1.26.37H472a1.86,1.86,0,0,1-1.26-.37,1.57,1.57,0,0,1-.41-1.2v-1.77a1.57,1.57,0,0,1,.41-1.2,1.81,1.81,0,0,1,1.26-.38h.33a1.81,1.81,0,0,1,1.26.38,1.57,1.57,0,0,1,.41,1.2v1.77A1.57,1.57,0,0,1,473.54,166.66Zm-.62-3.64a.79.79,0,0,0-.55-.17h-.52a.82.82,0,0,0-.55.17.61.61,0,0,0-.18.47v2.16a.63.63,0,0,0,.18.48.82.82,0,0,0,.55.16h.52a.79.79,0,0,0,.55-.16.6.6,0,0,0,.19-.48v-2.16A.58.58,0,0,0,472.92,163Z"/><path d="M476.47,166.29v-3.44h-.71v-.74h1.5v.27a1.2,1.2,0,0,1,.79-.27h1v.79H478a.56.56,0,0,0-.47.2.73.73,0,0,0-.17.41v2.78h1.07V167h-2.62v-.74Z"/><path d="M484.6,161.49v.9l-3,1.34,3,1.34V166l-3.73-1.72v-1Z"/><path d="M487,166.66a1.57,1.57,0,0,1-.4-1.2v-1.77a1.53,1.53,0,0,1,.41-1.2,1.81,1.81,0,0,1,1.26-.38h1.27v.74h-1.37a.8.8,0,0,0-.55.17.62.62,0,0,0-.19.47v2.16a.64.64,0,0,0,.19.48.8.8,0,0,0,.55.16h1.37V167h-1.27A1.82,1.82,0,0,1,487,166.66Z"/><path d="M492.39,160.15v2.16a1.29,1.29,0,0,1,.74-.2h.45a1.64,1.64,0,0,1,1.18.38,1.6,1.6,0,0,1,.39,1.2V167h-.84v-3.54a.62.62,0,0,0-.17-.47.64.64,0,0,0-.46-.17H493a.69.69,0,0,0-.48.16.53.53,0,0,0-.16.35V167h-.84v-6.88Z"/><path d="M499.82,167a.77.77,0,0,1-.26-.22.71.71,0,0,1-.6.3h-.87a1.63,1.63,0,0,1-1.09-.3,1.34,1.34,0,0,1-.34-1v-.19q0-1.53,1.44-1.53h1.22v-.49a.58.58,0,0,0-.19-.47.8.8,0,0,0-.55-.17h-1.52v-.74h1.42a1.85,1.85,0,0,1,1.27.38,1.57,1.57,0,0,1,.4,1.2v2.36a.25.25,0,0,0,.12.22.69.69,0,0,0,.37.07V167h-.54A.71.71,0,0,1,499.82,167Zm-.58-.8a.72.72,0,0,0,.08-.35v-1.08h-1.23a.57.57,0,0,0-.42.17.54.54,0,0,0-.17.42v.49a.48.48,0,0,0,.12.37.5.5,0,0,0,.37.12h.88C499.06,166.29,499.19,166.25,499.24,166.15Z"/><path d="M503,166.29v-3.44h-.71v-.74h1.5v.27a1.2,1.2,0,0,1,.79-.27h1v.79h-1.11a.56.56,0,0,0-.47.2.73.73,0,0,0-.17.41v2.78h1.07V167H502.3v-.74Z"/><path d="M510.51,163.73l-3.1-1.34v-.9l3.73,1.75v1L507.41,166v-.93Z"/><path d="M521.06,167a.62.62,0,0,1-.26-.22.71.71,0,0,1-.6.3h-.88a1.58,1.58,0,0,1-1.08-.3,1.3,1.3,0,0,1-.34-1v-.19c0-1,.47-1.53,1.43-1.53h1.22v-.49a.58.58,0,0,0-.19-.47.79.79,0,0,0-.55-.17h-1.52v-.74h1.42a1.84,1.84,0,0,1,1.27.38,1.57,1.57,0,0,1,.41,1.2v2.36a.24.24,0,0,0,.11.22.71.71,0,0,0,.38.07V167h-.54A.63.63,0,0,1,521.06,167Zm-.59-.8a.72.72,0,0,0,.08-.35v-1.08h-1.23a.58.58,0,0,0-.59.59v.49a.48.48,0,0,0,.12.37.5.5,0,0,0,.37.12h.88C520.29,166.29,520.42,166.25,520.47,166.15Z"/><path d="M524.13,166.66a1.57,1.57,0,0,1-.4-1.2v-1.77a1.57,1.57,0,0,1,.4-1.2,1.84,1.84,0,0,1,1.27-.38h1.26v.74H525.3a.8.8,0,0,0-.55.17.58.58,0,0,0-.19.47v2.16a.6.6,0,0,0,.19.48.8.8,0,0,0,.55.16h1.36V167H525.4A1.82,1.82,0,0,1,524.13,166.66Z"/><path d="M529.44,166.66a1.57,1.57,0,0,1-.41-1.2v-1.77a1.57,1.57,0,0,1,.41-1.2,1.81,1.81,0,0,1,1.26-.38H532v.74h-1.36a.79.79,0,0,0-.55.17.58.58,0,0,0-.19.47v2.16a.6.6,0,0,0,.19.48.79.79,0,0,0,.55.16H532V167H530.7A1.79,1.79,0,0,1,529.44,166.66Z"/><path d="M535.52,167v-1h1v1l-.61,1.38h-.76Zm1-4.92v1h-1v-1Z"/></g><path class="cls-2" d="M454.84,180.5H454l-1-3.86v6.17h-.75v-6.88h1.37l.78,3.52.8-3.52h1.33v6.88h-.77v-6.17Z"/><path class="cls-2" d="M458.63,182.39a1.59,1.59,0,0,1-.46-1.25V177.6a1.59,1.59,0,0,1,.46-1.25,1.86,1.86,0,0,1,1.31-.42h1.39v.75h-1.49a.84.84,0,0,0-.59.21.71.71,0,0,0-.23.52v3.92a.71.71,0,0,0,.23.52.84.84,0,0,0,.59.21h1.49v.75h-1.39A1.86,1.86,0,0,1,458.63,182.39Z"/><path class="cls-2" d="M466.26,182.39a1.86,1.86,0,0,1-1.31.42h-1.39v-.75h1.49a.84.84,0,0,0,.59-.21.71.71,0,0,0,.23-.52v-1a.72.72,0,0,0-.16-.47.55.55,0,0,0-.45-.18H465a1.57,1.57,0,0,1-1.15-.43,1.72,1.72,0,0,1-.42-1.25v-.37a1.59,1.59,0,0,1,.46-1.25,1.86,1.86,0,0,1,1.31-.42h1.4v.75h-1.5a.84.84,0,0,0-.59.21.71.71,0,0,0-.23.52v.75a.73.73,0,0,0,.2.51.69.69,0,0,0,.51.2h.3a1.43,1.43,0,0,1,1.08.4,1.7,1.7,0,0,1,.39,1.22v.65A1.59,1.59,0,0,1,466.26,182.39Z"/><path class="cls-2" d="M472,179.37v.74h-3.2v-.74Z"/><path class="cls-2" d="M476.76,182.44a1.83,1.83,0,0,1-1.28.37h-1.29v-.74h1.38a.74.74,0,0,0,.55-.17.72.72,0,0,0,.17-.54v-1.25a.69.69,0,0,0-.19-.52.71.71,0,0,0-.52-.19h-1.29v-3.47H477v.74h-1.88v2h.41a1.77,1.77,0,0,1,1.19.38,1.44,1.44,0,0,1,.43,1.16v1.06A1.55,1.55,0,0,1,476.76,182.44Z"/><path class="cls-2" d="M480.72,182.07v-5.36l-1.39.51v-.8l1.29-.49h.93v6.14h1.08v.74h-3.2v-.74Z"/><path class="cls-2" d="M492,182.81V181h-.78v1.77h-.79V181h-.69v-.74h.69v-2h-.69v-.74h.69v-1.67h.79v1.67H492v-1.67h.79v1.67h.69v.74h-.69v2h.69V181h-.69v1.77Zm-.78-2.51H492v-2h-.78Z"/><path class="cls-2" d="M496,181.07l-.38,1.74h-.87l1.66-6.88h1.13l1.63,6.88h-.88l-.37-1.74Zm1.76-.74-.8-3.75-.8,3.75Z"/><path class="cls-2" d="M501.78,182.81v-6.13h-1.56v-.75h4v.75h-1.56v6.13Z"/><path class="cls-2" d="M508.94,182.44a1.81,1.81,0,0,1-1.28.37h-.27a1.81,1.81,0,0,1-1.28-.37,1.55,1.55,0,0,1-.39-1.18v-.83a1.28,1.28,0,0,1,.63-1.21,1.3,1.3,0,0,1-.52-1.14v-.62a1.48,1.48,0,0,1,.42-1.16,1.67,1.67,0,0,1,1.18-.37h.19a1.69,1.69,0,0,1,1.18.37,1.48,1.48,0,0,1,.41,1.16v.62a1.28,1.28,0,0,1-.52,1.14,1.27,1.27,0,0,1,.64,1.21v.83A1.55,1.55,0,0,1,508.94,182.44Zm-.66-2.61a.69.69,0,0,0-.52-.19h-.47a.67.67,0,0,0-.72.7v1a.77.77,0,0,0,.16.54.65.65,0,0,0,.49.17h.53a.74.74,0,0,0,.55-.17.72.72,0,0,0,.18-.54v-1A.69.69,0,0,0,508.28,179.83Zm-1.45-3a.83.83,0,0,0-.14.52v.81a.72.72,0,0,0,.18.51.68.68,0,0,0,.46.21h.33a.69.69,0,0,0,.5-.2.7.7,0,0,0,.2-.52v-.81a.77.77,0,0,0-.16-.54.74.74,0,0,0-.54-.16h-.35A.58.58,0,0,0,506.83,176.85Z"/><path class="cls-2" d="M511.56,176.36a1.53,1.53,0,0,1,1.11-.43H513a1.53,1.53,0,0,1,1.11.43,1.67,1.67,0,0,1,.44,1.24v3.54a1.62,1.62,0,0,1-.45,1.25,1.81,1.81,0,0,1-1.3.42h-1.13v-.75h1.23a.84.84,0,0,0,.59-.21.71.71,0,0,0,.23-.52v-1.07h-1a1.8,1.8,0,0,1-1.25-.38,1.6,1.6,0,0,1-.4-1.2V177.6A1.67,1.67,0,0,1,511.56,176.36Zm2,.52a.75.75,0,0,0-.56-.21h-.25a.76.76,0,0,0-.56.21.78.78,0,0,0-.2.53v1.46a.65.65,0,0,0,.18.48.77.77,0,0,0,.53.17h1.07v-2.11A.74.74,0,0,0,513.53,176.88Z"/><path class="cls-2" d="M519.34,182.39a1.86,1.86,0,0,1-1.31.42h-1.39v-.75h1.49a.84.84,0,0,0,.59-.21.71.71,0,0,0,.23-.52v-1a.67.67,0,0,0-.16-.47.55.55,0,0,0-.45-.18H518a1.57,1.57,0,0,1-1.15-.43,1.72,1.72,0,0,1-.42-1.25v-.37a1.59,1.59,0,0,1,.46-1.25,1.86,1.86,0,0,1,1.31-.42h1.4v.75h-1.5a.84.84,0,0,0-.59.21.71.71,0,0,0-.23.52v.75a.73.73,0,0,0,.2.51.69.69,0,0,0,.51.2h.3a1.43,1.43,0,0,1,1.08.4,1.7,1.7,0,0,1,.39,1.22v.65A1.59,1.59,0,0,1,519.34,182.39Z"/><path class="cls-2" d="M524.53,182.44a1.81,1.81,0,0,1-1.28.37H522v-.74h1.38a.74.74,0,0,0,.55-.17.72.72,0,0,0,.18-.54v-1.25a.67.67,0,0,0-.72-.71h-1.29v-3.47h2.72v.74H522.9v2h.4a1.75,1.75,0,0,1,1.19.38,1.44,1.44,0,0,1,.43,1.16v1.06A1.55,1.55,0,0,1,524.53,182.44Z"/><path class="cls-2" d="M528.71,179.7c.21-.3.35-.51.42-.64a1.29,1.29,0,0,0,.16-.39,3.75,3.75,0,0,0,0-.57v-.69a.71.71,0,0,0-.23-.52.84.84,0,0,0-.59-.21h-1.18v-.75h1.08a1.86,1.86,0,0,1,1.31.42,1.59,1.59,0,0,1,.46,1.25V178a3.48,3.48,0,0,1-.07.8,2.15,2.15,0,0,1-.19.54,7.58,7.58,0,0,1-.43.66L528,182.06h2.34v.75h-3.25V182Z"/></svg>