<svg id="Layer_1" data-name="Layer 1" xmlns="http://www.w3.org/2000/svg" viewBox="0 0 558.71 221.36"><defs><style>.cls-1{fill:#1b1b1b;stroke:#fff;stroke-miterlimit:10;stroke-width:0.5px;}.cls-2{opacity:0.6;}.cls-3{fill:#575756;}.cls-4{fill:#bfbfb7;}.cls-5{opacity:0.2;}.cls-6{opacity:0.8;}.cls-7{opacity:0.4;}</style></defs><path class="cls-1" d="M177,217.49a3.09,3.09,0,1,0,3.09-3A3,3,0,0,0,177,217.49Z"/><path class="cls-1" d="M177,208.56a3.09,3.09,0,1,0,3.09-3A3,3,0,0,0,177,208.56Z"/><path class="cls-1" d="M484.73,199.64a3.09,3.09,0,1,0,3.09-3A3,3,0,0,0,484.73,199.64Z"/><path class="cls-1" d="M448.52,199.64a3.09,3.09,0,1,0,3.09-3A3.05,3.05,0,0,0,448.52,199.64Z"/><path class="cls-1" d="M186,199.64a3.09,3.09,0,1,0,3.09-3A3.05,3.05,0,0,0,186,199.64Z"/><path class="cls-1" d="M177,199.64a3.09,3.09,0,1,0,3.09-3A3.05,3.05,0,0,0,177,199.64Z"/><path class="cls-1" d="M484.73,190.71a3.09,3.09,0,1,0,3.09-3A3,3,0,0,0,484.73,190.71Z"/><path class="cls-1" d="M448.52,190.71a3.09,3.09,0,1,0,3.09-3A3,3,0,0,0,448.52,190.71Z"/><path class="cls-1" d="M195.08,190.71a3.09,3.09,0,1,0,3.09-3A3,3,0,0,0,195.08,190.71Z"/><path class="cls-1" d="M186,190.71a3.09,3.09,0,1,0,3.09-3A3,3,0,0,0,186,190.71Z"/><path class="cls-1" d="M177,190.71a3.09,3.09,0,1,0,3.09-3A3,3,0,0,0,177,190.71Z"/><path class="cls-1" d="M457.58,181.78a3.09,3.09,0,1,0,3.09-3A3,3,0,0,0,457.58,181.78Z"/><path class="cls-1" d="M448.52,181.78a3.09,3.09,0,1,0,3.09-3A3,3,0,0,0,448.52,181.78Z"/><path class="cls-1" d="M439.47,181.78a3.09,3.09,0,1,0,3.09-3A3,3,0,0,0,439.47,181.78Z"/><path class="cls-1" d="M430.42,181.78a3.09,3.09,0,1,0,3.09-3A3,3,0,0,0,430.42,181.78Z"/><path class="cls-1" d="M421.37,181.78a3.09,3.09,0,1,0,3.09-3A3,3,0,0,0,421.37,181.78Z"/><path class="cls-1" d="M412.32,181.78a3.09,3.09,0,1,0,3.09-3A3,3,0,0,0,412.32,181.78Z"/><path class="cls-1" d="M303.7,181.78a3.09,3.09,0,1,0,3.09-3A3,3,0,0,0,303.7,181.78Z"/><path class="cls-1" d="M294.65,181.78a3.09,3.09,0,1,0,3.09-3A3,3,0,0,0,294.65,181.78Z"/><path class="cls-1" d="M204.14,181.78a3.09,3.09,0,1,0,3.09-3A3,3,0,0,0,204.14,181.78Z"/><path class="cls-1" d="M195.08,181.78a3.09,3.09,0,1,0,3.09-3A3,3,0,0,0,195.08,181.78Z"/><path class="cls-1" d="M186,181.78a3.09,3.09,0,1,0,3.09-3A3,3,0,0,0,186,181.78Z"/><path class="cls-1" d="M177,181.78a3.09,3.09,0,1,0,3.09-3A3,3,0,0,0,177,181.78Z"/><path class="cls-1" d="M448.52,172.86a3.09,3.09,0,1,0,3.09-3A3.05,3.05,0,0,0,448.52,172.86Z"/><path class="cls-1" d="M439.47,172.86a3.09,3.09,0,1,0,3.09-3A3.05,3.05,0,0,0,439.47,172.86Z"/><path class="cls-1" d="M430.42,172.86a3.09,3.09,0,1,0,3.09-3A3,3,0,0,0,430.42,172.86Z"/><path class="cls-1" d="M421.37,172.86a3.09,3.09,0,1,0,3.09-3A3,3,0,0,0,421.37,172.86Z"/><path class="cls-1" d="M412.32,172.86a3.09,3.09,0,1,0,3.09-3A3,3,0,0,0,412.32,172.86Z"/><path class="cls-1" d="M321.8,172.86a3.09,3.09,0,1,0,3.09-3A3.05,3.05,0,0,0,321.8,172.86Z"/><path class="cls-1" d="M303.7,172.86a3.09,3.09,0,1,0,3.09-3A3,3,0,0,0,303.7,172.86Z"/><path class="cls-1" d="M294.65,172.86a3.09,3.09,0,1,0,3.09-3A3,3,0,0,0,294.65,172.86Z"/><ellipse class="cls-1" cx="288.69" cy="172.86" rx="3.09" ry="3"/><path class="cls-1" d="M204.14,172.86a3.09,3.09,0,1,0,3.09-3A3,3,0,0,0,204.14,172.86Z"/><path class="cls-1" d="M195.08,172.86a3.09,3.09,0,1,0,3.09-3A3.05,3.05,0,0,0,195.08,172.86Z"/><path class="cls-1" d="M186,172.86a3.09,3.09,0,1,0,3.09-3A3.05,3.05,0,0,0,186,172.86Z"/><path class="cls-1" d="M448.52,163.93a3.09,3.09,0,1,0,3.09-3A3,3,0,0,0,448.52,163.93Z"/><path class="cls-1" d="M439.47,163.93a3.09,3.09,0,1,0,3.09-3A3,3,0,0,0,439.47,163.93Z"/><path class="cls-1" d="M430.42,163.93a3.09,3.09,0,1,0,3.09-3A3,3,0,0,0,430.42,163.93Z"/><path class="cls-1" d="M421.37,163.93a3.09,3.09,0,1,0,3.09-3A3,3,0,0,0,421.37,163.93Z"/><path class="cls-1" d="M321.8,163.93a3.09,3.09,0,1,0,3.09-3A3,3,0,0,0,321.8,163.93Z"/><path class="cls-1" d="M312.75,163.93a3.09,3.09,0,1,0,3.09-3A3,3,0,0,0,312.75,163.93Z"/><path class="cls-1" d="M303.7,163.93a3.09,3.09,0,1,0,3.09-3A3,3,0,0,0,303.7,163.93Z"/><path class="cls-1" d="M294.65,163.93a3.09,3.09,0,1,0,3.09-3A3,3,0,0,0,294.65,163.93Z"/><path class="cls-1" d="M285.6,163.93a3.09,3.09,0,1,0,3.09-3A3,3,0,0,0,285.6,163.93Z"/><path class="cls-1" d="M213.19,163.93a3.09,3.09,0,1,0,3.09-3A3,3,0,0,0,213.19,163.93Z"/><path class="cls-1" d="M204.14,163.93a3.09,3.09,0,1,0,3.09-3A3,3,0,0,0,204.14,163.93Z"/><path class="cls-1" d="M195.08,163.93a3.09,3.09,0,1,0,3.09-3A3,3,0,0,0,195.08,163.93Z"/><path class="cls-1" d="M186,163.93a3.09,3.09,0,1,0,3.09-3A3,3,0,0,0,186,163.93Z"/><path class="cls-1" d="M177,163.93a3.09,3.09,0,1,0,3.09-3A3,3,0,0,0,177,163.93Z"/><path class="cls-1" d="M421.37,155a3.09,3.09,0,1,0,3.09-3A3,3,0,0,0,421.37,155Z"/><path class="cls-1" d="M412.32,155a3.09,3.09,0,1,0,3.09-3A3,3,0,0,0,412.32,155Z"/><path class="cls-1" d="M312.75,155a3.09,3.09,0,1,0,3.09-3A3,3,0,0,0,312.75,155Z"/><path class="cls-1" d="M303.7,155a3.09,3.09,0,1,0,3.09-3A3,3,0,0,0,303.7,155Z"/><path class="cls-1" d="M294.65,155a3.09,3.09,0,1,0,3.09-3A3,3,0,0,0,294.65,155Z"/><path class="cls-1" d="M285.6,155a3.09,3.09,0,1,0,3.09-3A3,3,0,0,0,285.6,155Z"/><path class="cls-1" d="M222.24,155a3.09,3.09,0,1,0,3.09-3A3,3,0,0,0,222.24,155Z"/><path class="cls-1" d="M213.19,155a3.09,3.09,0,1,0,3.09-3A3,3,0,0,0,213.19,155Z"/><path class="cls-1" d="M204.14,155a3.09,3.09,0,1,0,3.09-3A3,3,0,0,0,204.14,155Z"/><path class="cls-1" d="M195.08,155a3.09,3.09,0,1,0,3.09-3A3,3,0,0,0,195.08,155Z"/><path class="cls-1" d="M186,155a3.09,3.09,0,1,0,3.09-3A3,3,0,0,0,186,155Z"/><path class="cls-1" d="M177,155a3.09,3.09,0,1,0,3.09-3A3,3,0,0,0,177,155Z"/><path class="cls-1" d="M167.93,155a3.09,3.09,0,1,0,3.09-3A3,3,0,0,0,167.93,155Z"/><path class="cls-1" d="M439.47,146.08a3.09,3.09,0,1,0,3.09-3A3.05,3.05,0,0,0,439.47,146.08Z"/><path class="cls-1" d="M430.42,146.08a3.09,3.09,0,1,0,3.09-3A3,3,0,0,0,430.42,146.08Z"/><path class="cls-1" d="M412.32,146.08a3.09,3.09,0,1,0,3.09-3A3,3,0,0,0,412.32,146.08Z"/><path class="cls-1" d="M394.22,146.08a3.09,3.09,0,1,0,3.09-3A3,3,0,0,0,394.22,146.08Z"/><path class="cls-1" d="M312.75,146.08a3.09,3.09,0,1,0,3.09-3A3.05,3.05,0,0,0,312.75,146.08Z"/><path class="cls-1" d="M303.7,146.08a3.09,3.09,0,1,0,3.09-3A3,3,0,0,0,303.7,146.08Z"/><path class="cls-1" d="M294.65,146.08a3.09,3.09,0,1,0,3.09-3A3,3,0,0,0,294.65,146.08Z"/><path class="cls-1" d="M285.6,146.08a3.09,3.09,0,1,0,3.09-3A3,3,0,0,0,285.6,146.08Z"/><path class="cls-1" d="M213.19,146.08a3.09,3.09,0,1,0,3.09-3A3,3,0,0,0,213.19,146.08Z"/><path class="cls-1" d="M204.14,146.08a3.09,3.09,0,1,0,3.09-3A3,3,0,0,0,204.14,146.08Z"/><path class="cls-1" d="M195.08,146.08a3.09,3.09,0,1,0,3.09-3A3.05,3.05,0,0,0,195.08,146.08Z"/><path class="cls-1" d="M186,146.08a3.09,3.09,0,1,0,3.09-3A3.05,3.05,0,0,0,186,146.08Z"/><path class="cls-1" d="M177,146.08a3.09,3.09,0,1,0,3.09-3A3.05,3.05,0,0,0,177,146.08Z"/><path class="cls-1" d="M167.93,146.08a3.09,3.09,0,1,0,3.09-3A3,3,0,0,0,167.93,146.08Z"/><path class="cls-1" d="M412.32,137.15a3.09,3.09,0,1,0,3.09-3A3,3,0,0,0,412.32,137.15Z"/><path class="cls-1" d="M394.22,137.15a3.09,3.09,0,1,0,3.09-3A3,3,0,0,0,394.22,137.15Z"/><path class="cls-1" d="M385.16,137.15a3.09,3.09,0,1,0,3.09-3A3,3,0,0,0,385.16,137.15Z"/><path class="cls-1" d="M321.8,137.15a3.09,3.09,0,1,0,3.09-3A3,3,0,0,0,321.8,137.15Z"/><path class="cls-1" d="M312.75,137.15a3.09,3.09,0,1,0,3.09-3A3,3,0,0,0,312.75,137.15Z"/><path class="cls-1" d="M303.7,137.15a3.09,3.09,0,1,0,3.09-3A3,3,0,0,0,303.7,137.15Z"/><path class="cls-1" d="M294.65,137.15a3.09,3.09,0,1,0,3.09-3A3,3,0,0,0,294.65,137.15Z"/><path class="cls-1" d="M285.6,137.15a3.09,3.09,0,1,0,3.09-3A3,3,0,0,0,285.6,137.15Z"/><path class="cls-1" d="M276.55,137.15a3.09,3.09,0,1,0,3.09-3A3,3,0,0,0,276.55,137.15Z"/><path class="cls-1" d="M258.44,137.15a3.09,3.09,0,1,0,3.09-3A3,3,0,0,0,258.44,137.15Z"/><path class="cls-1" d="M195.08,137.15a3.09,3.09,0,1,0,3.09-3A3,3,0,0,0,195.08,137.15Z"/><path class="cls-1" d="M186,137.15a3.09,3.09,0,1,0,3.09-3A3,3,0,0,0,186,137.15Z"/><path class="cls-1" d="M177,137.15a3.09,3.09,0,1,0,3.09-3A3,3,0,0,0,177,137.15Z"/><path class="cls-1" d="M421.37,128.22a3.09,3.09,0,1,0,3.09-3A3.05,3.05,0,0,0,421.37,128.22Z"/><path class="cls-1" d="M403.27,128.22a3.09,3.09,0,1,0,3.09-3A3.05,3.05,0,0,0,403.27,128.22Z"/><path class="cls-1" d="M367.06,128.22a3.09,3.09,0,1,0,3.09-3A3.05,3.05,0,0,0,367.06,128.22Z"/><path class="cls-1" d="M330.86,128.22a3.09,3.09,0,1,0,3.09-3A3.05,3.05,0,0,0,330.86,128.22Z"/><path class="cls-1" d="M321.8,128.22a3.09,3.09,0,1,0,3.09-3A3.06,3.06,0,0,0,321.8,128.22Z"/><path class="cls-1" d="M312.75,128.22a3.09,3.09,0,1,0,3.09-3A3.06,3.06,0,0,0,312.75,128.22Z"/><path class="cls-1" d="M303.7,128.22a3.09,3.09,0,1,0,3.09-3A3.05,3.05,0,0,0,303.7,128.22Z"/><path class="cls-1" d="M294.65,128.22a3.09,3.09,0,1,0,3.09-3A3.05,3.05,0,0,0,294.65,128.22Z"/><path class="cls-1" d="M285.6,128.22a3.09,3.09,0,1,0,3.09-3A3.05,3.05,0,0,0,285.6,128.22Z"/><path class="cls-1" d="M276.55,128.22a3.09,3.09,0,1,0,3.09-3A3.05,3.05,0,0,0,276.55,128.22Z"/><path class="cls-1" d="M267.5,128.22a3.09,3.09,0,1,0,3.09-3A3.05,3.05,0,0,0,267.5,128.22Z"/><path class="cls-1" d="M258.44,128.22a3.09,3.09,0,1,0,3.09-3A3.06,3.06,0,0,0,258.44,128.22Z"/><path class="cls-1" d="M249.39,128.22a3.09,3.09,0,1,0,3.09-3A3.06,3.06,0,0,0,249.39,128.22Z"/><path class="cls-1" d="M177,128.22a3.09,3.09,0,1,0,3.09-3A3.06,3.06,0,0,0,177,128.22Z"/><path class="cls-1" d="M158.88,128.22a3.09,3.09,0,1,0,3.09-3A3.05,3.05,0,0,0,158.88,128.22Z"/><path class="cls-1" d="M403.27,119.3a3.09,3.09,0,1,0,3.09-3A3,3,0,0,0,403.27,119.3Z"/><path class="cls-1" d="M394.22,119.3a3.09,3.09,0,1,0,3.09-3A3,3,0,0,0,394.22,119.3Z"/><path class="cls-1" d="M385.16,119.3a3.09,3.09,0,1,0,3.09-3A3.05,3.05,0,0,0,385.16,119.3Z"/><path class="cls-1" d="M367.06,119.3a3.09,3.09,0,1,0,3.09-3A3,3,0,0,0,367.06,119.3Z"/><path class="cls-1" d="M358,119.3a3.09,3.09,0,1,0,3.09-3A3,3,0,0,0,358,119.3Z"/><path class="cls-1" d="M330.86,119.3a3.09,3.09,0,1,0,3.09-3A3,3,0,0,0,330.86,119.3Z"/><path class="cls-1" d="M321.8,119.3a3.09,3.09,0,1,0,3.09-3A3.05,3.05,0,0,0,321.8,119.3Z"/><path class="cls-1" d="M312.75,119.3a3.09,3.09,0,1,0,3.09-3A3.05,3.05,0,0,0,312.75,119.3Z"/><path class="cls-1" d="M303.7,119.3a3.09,3.09,0,1,0,3.09-3A3,3,0,0,0,303.7,119.3Z"/><path class="cls-1" d="M294.65,119.3a3.09,3.09,0,1,0,3.09-3A3,3,0,0,0,294.65,119.3Z"/><path class="cls-1" d="M285.6,119.3a3.09,3.09,0,1,0,3.09-3A3,3,0,0,0,285.6,119.3Z"/><path class="cls-1" d="M276.55,119.3a3.09,3.09,0,1,0,3.09-3A3,3,0,0,0,276.55,119.3Z"/><path class="cls-1" d="M267.5,119.3a3.09,3.09,0,1,0,3.09-3A3,3,0,0,0,267.5,119.3Z"/><path class="cls-1" d="M258.44,119.3a3.09,3.09,0,1,0,3.09-3A3.05,3.05,0,0,0,258.44,119.3Z"/><path class="cls-1" d="M249.39,119.3a3.09,3.09,0,1,0,3.09-3A3.05,3.05,0,0,0,249.39,119.3Z"/><path class="cls-1" d="M177,119.3a3.09,3.09,0,1,0,3.09-3A3.05,3.05,0,0,0,177,119.3Z"/><path class="cls-1" d="M167.93,119.3a3.09,3.09,0,1,0,3.09-3A3,3,0,0,0,167.93,119.3Z"/><path class="cls-1" d="M149.83,119.3a3.09,3.09,0,1,0,3.09-3A3,3,0,0,0,149.83,119.3Z"/><path class="cls-1" d="M140.78,119.3a3.09,3.09,0,1,0,3.09-3A3,3,0,0,0,140.78,119.3Z"/><path class="cls-1" d="M412.32,110.37a3.09,3.09,0,1,0,3.09-3A3,3,0,0,0,412.32,110.37Z"/><path class="cls-1" d="M403.27,110.37a3.09,3.09,0,1,0,3.09-3A3,3,0,0,0,403.27,110.37Z"/><path class="cls-1" d="M394.22,110.37a3.09,3.09,0,1,0,3.09-3A3,3,0,0,0,394.22,110.37Z"/><path class="cls-1" d="M385.16,110.37a3.09,3.09,0,1,0,3.09-3A3,3,0,0,0,385.16,110.37Z"/><path class="cls-1" d="M376.11,110.37a3.09,3.09,0,1,0,3.09-3A3,3,0,0,0,376.11,110.37Z"/><path class="cls-1" d="M367.06,110.37a3.09,3.09,0,1,0,3.09-3A3,3,0,0,0,367.06,110.37Z"/><path class="cls-1" d="M358,110.37a3.09,3.09,0,1,0,3.09-3A3,3,0,0,0,358,110.37Z"/><path class="cls-1" d="M349,110.37a3.09,3.09,0,1,0,3.09-3A3,3,0,0,0,349,110.37Z"/><path class="cls-1" d="M339.91,110.37a3.09,3.09,0,1,0,3.09-3A3,3,0,0,0,339.91,110.37Z"/><path class="cls-1" d="M330.86,110.37a3.09,3.09,0,1,0,3.09-3A3,3,0,0,0,330.86,110.37Z"/><path class="cls-1" d="M321.8,110.37a3.09,3.09,0,1,0,3.09-3A3,3,0,0,0,321.8,110.37Z"/><path class="cls-1" d="M312.75,110.37a3.09,3.09,0,1,0,3.09-3A3,3,0,0,0,312.75,110.37Z"/><path class="cls-1" d="M303.7,110.37a3.09,3.09,0,1,0,3.09-3A3,3,0,0,0,303.7,110.37Z"/><path class="cls-1" d="M294.65,110.37a3.09,3.09,0,1,0,3.09-3A3,3,0,0,0,294.65,110.37Z"/><path class="cls-1" d="M285.6,110.37a3.09,3.09,0,1,0,3.09-3A3,3,0,0,0,285.6,110.37Z"/><path class="cls-1" d="M276.55,110.37a3.09,3.09,0,1,0,3.09-3A3,3,0,0,0,276.55,110.37Z"/><path class="cls-1" d="M267.5,110.37a3.09,3.09,0,1,0,3.09-3A3,3,0,0,0,267.5,110.37Z"/><path class="cls-1" d="M258.44,110.37a3.09,3.09,0,1,0,3.09-3A3,3,0,0,0,258.44,110.37Z"/><path class="cls-1" d="M249.39,110.37a3.09,3.09,0,1,0,3.09-3A3,3,0,0,0,249.39,110.37Z"/><path class="cls-1" d="M167.93,110.37a3.09,3.09,0,1,0,3.09-3A3,3,0,0,0,167.93,110.37Z"/><path class="cls-1" d="M140.78,110.37a3.09,3.09,0,1,0,3.09-3A3,3,0,0,0,140.78,110.37Z"/><path class="cls-1" d="M131.72,110.37a3.09,3.09,0,1,0,3.09-3A3,3,0,0,0,131.72,110.37Z"/><path class="cls-1" d="M430.42,101.44a3.09,3.09,0,1,0,3.09-3A3.05,3.05,0,0,0,430.42,101.44Z"/><path class="cls-1" d="M412.32,101.44a3.09,3.09,0,1,0,3.09-3A3.05,3.05,0,0,0,412.32,101.44Z"/><path class="cls-1" d="M403.27,101.44a3.09,3.09,0,1,0,3.09-3A3.05,3.05,0,0,0,403.27,101.44Z"/><path class="cls-1" d="M394.22,101.44a3.09,3.09,0,1,0,3.09-3A3.05,3.05,0,0,0,394.22,101.44Z"/><path class="cls-1" d="M385.16,101.44a3.09,3.09,0,1,0,3.09-3A3.06,3.06,0,0,0,385.16,101.44Z"/><path class="cls-1" d="M376.11,101.44a3.09,3.09,0,1,0,3.09-3A3.06,3.06,0,0,0,376.11,101.44Z"/><path class="cls-1" d="M367.06,101.44a3.09,3.09,0,1,0,3.09-3A3.05,3.05,0,0,0,367.06,101.44Z"/><path class="cls-1" d="M358,101.44a3.09,3.09,0,1,0,3.09-3A3.05,3.05,0,0,0,358,101.44Z"/><path class="cls-1" d="M349,101.44a3.09,3.09,0,1,0,3.09-3A3.05,3.05,0,0,0,349,101.44Z"/><path class="cls-1" d="M339.91,101.44a3.09,3.09,0,1,0,3.09-3A3.05,3.05,0,0,0,339.91,101.44Z"/><path class="cls-1" d="M330.86,101.44a3.09,3.09,0,1,0,3.09-3A3.05,3.05,0,0,0,330.86,101.44Z"/><path class="cls-1" d="M321.8,101.44a3.09,3.09,0,1,0,3.09-3A3.06,3.06,0,0,0,321.8,101.44Z"/><path class="cls-1" d="M312.75,101.44a3.09,3.09,0,1,0,3.09-3A3.06,3.06,0,0,0,312.75,101.44Z"/><path class="cls-1" d="M303.7,101.44a3.09,3.09,0,1,0,3.09-3A3.05,3.05,0,0,0,303.7,101.44Z"/><path class="cls-1" d="M294.65,101.44a3.09,3.09,0,1,0,3.09-3A3.05,3.05,0,0,0,294.65,101.44Z"/><path class="cls-1" d="M285.6,101.44a3.09,3.09,0,1,0,3.09-3A3.05,3.05,0,0,0,285.6,101.44Z"/><path class="cls-1" d="M276.55,101.44a3.09,3.09,0,1,0,3.09-3A3.05,3.05,0,0,0,276.55,101.44Z"/><path class="cls-1" d="M267.5,101.44a3.09,3.09,0,1,0,3.09-3A3.05,3.05,0,0,0,267.5,101.44Z"/><path class="cls-1" d="M258.44,101.44a3.09,3.09,0,1,0,3.09-3A3.06,3.06,0,0,0,258.44,101.44Z"/><path class="cls-1" d="M158.88,101.44a3.09,3.09,0,1,0,3.09-3A3.05,3.05,0,0,0,158.88,101.44Z"/><path class="cls-1" d="M149.83,101.44a3.09,3.09,0,1,0,3.09-3A3.05,3.05,0,0,0,149.83,101.44Z"/><path class="cls-1" d="M140.78,101.44a3.09,3.09,0,1,0,3.09-3A3.05,3.05,0,0,0,140.78,101.44Z"/><path class="cls-1" d="M131.72,101.44a3.09,3.09,0,1,0,3.09-3A3.06,3.06,0,0,0,131.72,101.44Z"/><path class="cls-1" d="M122.67,101.44a3.09,3.09,0,1,0,3.09-3A3.06,3.06,0,0,0,122.67,101.44Z"/><path class="cls-1" d="M412.32,92.52a3.09,3.09,0,1,0,3.09-3A3,3,0,0,0,412.32,92.52Z"/><path class="cls-1" d="M403.27,92.52a3.09,3.09,0,1,0,3.09-3A3,3,0,0,0,403.27,92.52Z"/><path class="cls-1" d="M394.22,92.52a3.09,3.09,0,1,0,3.09-3A3,3,0,0,0,394.22,92.52Z"/><path class="cls-1" d="M385.16,92.52a3.09,3.09,0,1,0,3.09-3A3,3,0,0,0,385.16,92.52Z"/><path class="cls-1" d="M376.11,92.52a3.09,3.09,0,1,0,3.09-3A3,3,0,0,0,376.11,92.52Z"/><path class="cls-1" d="M367.06,92.52a3.09,3.09,0,1,0,3.09-3A3,3,0,0,0,367.06,92.52Z"/><path class="cls-1" d="M358,92.52a3.09,3.09,0,1,0,3.09-3A3,3,0,0,0,358,92.52Z"/><path class="cls-1" d="M349,92.52a3.09,3.09,0,1,0,3.09-3A3,3,0,0,0,349,92.52Z"/><path class="cls-1" d="M339.91,92.52a3.09,3.09,0,1,0,3.09-3A3,3,0,0,0,339.91,92.52Z"/><path class="cls-1" d="M321.8,92.52a3.09,3.09,0,1,0,3.09-3A3,3,0,0,0,321.8,92.52Z"/><path class="cls-1" d="M312.75,92.52a3.09,3.09,0,1,0,3.09-3A3,3,0,0,0,312.75,92.52Z"/><path class="cls-1" d="M303.7,92.52a3.09,3.09,0,1,0,3.09-3A3,3,0,0,0,303.7,92.52Z"/><path class="cls-1" d="M294.65,92.52a3.09,3.09,0,1,0,3.09-3A3,3,0,0,0,294.65,92.52Z"/><path class="cls-1" d="M285.6,92.52a3.09,3.09,0,1,0,3.09-3A3,3,0,0,0,285.6,92.52Z"/><path class="cls-1" d="M267.5,92.52a3.09,3.09,0,1,0,3.09-3A3,3,0,0,0,267.5,92.52Z"/><path class="cls-1" d="M258.44,92.52a3.09,3.09,0,1,0,3.09-3A3,3,0,0,0,258.44,92.52Z"/><path class="cls-1" d="M167.93,92.52a3.09,3.09,0,1,0,3.09-3A3,3,0,0,0,167.93,92.52Z"/><path class="cls-1" d="M158.88,92.52a3.09,3.09,0,1,0,3.09-3A3,3,0,0,0,158.88,92.52Z"/><path class="cls-1" d="M149.83,92.52a3.09,3.09,0,1,0,3.09-3A3,3,0,0,0,149.83,92.52Z"/><path class="cls-1" d="M140.78,92.52a3.09,3.09,0,1,0,3.09-3A3,3,0,0,0,140.78,92.52Z"/><path class="cls-1" d="M131.72,92.52a3.09,3.09,0,1,0,3.09-3A3,3,0,0,0,131.72,92.52Z"/><path class="cls-1" d="M122.67,92.52a3.09,3.09,0,1,0,3.09-3A3,3,0,0,0,122.67,92.52Z"/><path class="cls-1" d="M113.62,92.52a3.09,3.09,0,1,0,3.09-3A3,3,0,0,0,113.62,92.52Z"/><path class="cls-1" d="M448.52,83.59a3.09,3.09,0,1,0,3.09-3A3,3,0,0,0,448.52,83.59Z"/><path class="cls-1" d="M430.42,83.59a3.09,3.09,0,1,0,3.09-3A3,3,0,0,0,430.42,83.59Z"/><path class="cls-1" d="M421.37,83.59a3.09,3.09,0,1,0,3.09-3A3,3,0,0,0,421.37,83.59Z"/><path class="cls-1" d="M412.32,83.59a3.09,3.09,0,1,0,3.09-3A3,3,0,0,0,412.32,83.59Z"/><path class="cls-1" d="M403.27,83.59a3.09,3.09,0,1,0,3.09-3A3,3,0,0,0,403.27,83.59Z"/><path class="cls-1" d="M394.22,83.59a3.09,3.09,0,1,0,3.09-3A3,3,0,0,0,394.22,83.59Z"/><path class="cls-1" d="M385.16,83.59a3.09,3.09,0,1,0,3.09-3A3,3,0,0,0,385.16,83.59Z"/><path class="cls-1" d="M376.11,83.59a3.09,3.09,0,1,0,3.09-3A3,3,0,0,0,376.11,83.59Z"/><path class="cls-1" d="M367.06,83.59a3.09,3.09,0,1,0,3.09-3A3,3,0,0,0,367.06,83.59Z"/><path class="cls-1" d="M358,83.59a3.09,3.09,0,1,0,3.09-3A3,3,0,0,0,358,83.59Z"/><path class="cls-1" d="M349,83.59a3.09,3.09,0,1,0,3.09-3A3,3,0,0,0,349,83.59Z"/><path class="cls-1" d="M339.91,83.59a3.09,3.09,0,1,0,3.09-3A3,3,0,0,0,339.91,83.59Z"/><path class="cls-1" d="M330.86,83.59a3.09,3.09,0,1,0,3.09-3A3,3,0,0,0,330.86,83.59Z"/><path class="cls-1" d="M321.8,83.59a3.09,3.09,0,1,0,3.09-3A3,3,0,0,0,321.8,83.59Z"/><path class="cls-1" d="M294.65,83.59a3.09,3.09,0,1,0,3.09-3A3,3,0,0,0,294.65,83.59Z"/><path class="cls-1" d="M285.6,83.59a3.09,3.09,0,1,0,3.09-3A3,3,0,0,0,285.6,83.59Z"/><path class="cls-1" d="M276.55,83.59a3.09,3.09,0,1,0,3.09-3A3,3,0,0,0,276.55,83.59Z"/><path class="cls-1" d="M267.5,83.59a3.09,3.09,0,1,0,3.09-3A3,3,0,0,0,267.5,83.59Z"/><path class="cls-1" d="M258.44,83.59a3.09,3.09,0,1,0,3.09-3A3,3,0,0,0,258.44,83.59Z"/><path class="cls-1" d="M186,83.59a3.09,3.09,0,1,0,3.09-3A3,3,0,0,0,186,83.59Z"/><path class="cls-1" d="M177,83.59a3.09,3.09,0,1,0,3.09-3A3,3,0,0,0,177,83.59Z"/><path class="cls-1" d="M167.93,83.59a3.09,3.09,0,1,0,3.09-3A3,3,0,0,0,167.93,83.59Z"/><path class="cls-1" d="M158.88,83.59a3.09,3.09,0,1,0,3.09-3A3,3,0,0,0,158.88,83.59Z"/><path class="cls-1" d="M149.83,83.59a3.09,3.09,0,1,0,3.09-3A3,3,0,0,0,149.83,83.59Z"/><path class="cls-1" d="M140.78,83.59a3.09,3.09,0,1,0,3.09-3A3,3,0,0,0,140.78,83.59Z"/><path class="cls-1" d="M131.72,83.59a3.09,3.09,0,1,0,3.09-3A3,3,0,0,0,131.72,83.59Z"/><path class="cls-1" d="M122.67,83.59a3.09,3.09,0,1,0,3.09-3A3,3,0,0,0,122.67,83.59Z"/><path class="cls-1" d="M113.62,83.59a3.09,3.09,0,1,0,3.09-3A3,3,0,0,0,113.62,83.59Z"/><path class="cls-1" d="M448.52,74.66a3.09,3.09,0,1,0,3.09-3A3.06,3.06,0,0,0,448.52,74.66Z"/><path class="cls-1" d="M439.47,74.66a3.09,3.09,0,1,0,3.09-3A3.06,3.06,0,0,0,439.47,74.66Z"/><path class="cls-1" d="M430.42,74.66a3.09,3.09,0,1,0,3.09-3A3.05,3.05,0,0,0,430.42,74.66Z"/><path class="cls-1" d="M421.37,74.66a3.09,3.09,0,1,0,3.09-3A3.05,3.05,0,0,0,421.37,74.66Z"/><path class="cls-1" d="M412.32,74.66a3.09,3.09,0,1,0,3.09-3A3.05,3.05,0,0,0,412.32,74.66Z"/><path class="cls-1" d="M403.27,74.66a3.09,3.09,0,1,0,3.09-3A3.05,3.05,0,0,0,403.27,74.66Z"/><path class="cls-1" d="M394.22,74.66a3.09,3.09,0,1,0,3.09-3A3.05,3.05,0,0,0,394.22,74.66Z"/><path class="cls-1" d="M385.16,74.66a3.09,3.09,0,1,0,3.09-3A3.06,3.06,0,0,0,385.16,74.66Z"/><path class="cls-1" d="M376.11,74.66a3.09,3.09,0,1,0,3.09-3A3.06,3.06,0,0,0,376.11,74.66Z"/><path class="cls-1" d="M367.06,74.66a3.09,3.09,0,1,0,3.09-3A3.05,3.05,0,0,0,367.06,74.66Z"/><path class="cls-1" d="M358,74.66a3.09,3.09,0,1,0,3.09-3A3.05,3.05,0,0,0,358,74.66Z"/><path class="cls-1" d="M349,74.66a3.09,3.09,0,1,0,3.09-3A3.05,3.05,0,0,0,349,74.66Z"/><path class="cls-1" d="M339.91,74.66a3.09,3.09,0,1,0,3.09-3A3.05,3.05,0,0,0,339.91,74.66Z"/><path class="cls-1" d="M330.86,74.66a3.09,3.09,0,1,0,3.09-3A3.05,3.05,0,0,0,330.86,74.66Z"/><path class="cls-1" d="M321.8,74.66a3.09,3.09,0,1,0,3.09-3A3.06,3.06,0,0,0,321.8,74.66Z"/><path class="cls-1" d="M312.75,74.66a3.09,3.09,0,1,0,3.09-3A3.06,3.06,0,0,0,312.75,74.66Z"/><path class="cls-1" d="M303.7,74.66a3.09,3.09,0,1,0,3.09-3A3.05,3.05,0,0,0,303.7,74.66Z"/><path class="cls-1" d="M294.65,74.66a3.09,3.09,0,1,0,3.09-3A3.05,3.05,0,0,0,294.65,74.66Z"/><path class="cls-1" d="M285.6,74.66a3.09,3.09,0,1,0,3.09-3A3.05,3.05,0,0,0,285.6,74.66Z"/><path class="cls-1" d="M276.55,74.66a3.09,3.09,0,1,0,3.09-3A3.05,3.05,0,0,0,276.55,74.66Z"/><path class="cls-1" d="M267.5,74.66a3.09,3.09,0,1,0,3.09-3A3.05,3.05,0,0,0,267.5,74.66Z"/><path class="cls-1" d="M195.08,74.66a3.09,3.09,0,1,0,3.09-3A3.06,3.06,0,0,0,195.08,74.66Z"/><path class="cls-1" d="M186,74.66a3.09,3.09,0,1,0,3.09-3A3.06,3.06,0,0,0,186,74.66Z"/><path class="cls-1" d="M177,74.66a3.09,3.09,0,1,0,3.09-3A3.06,3.06,0,0,0,177,74.66Z"/><path class="cls-1" d="M167.93,74.66a3.09,3.09,0,1,0,3.09-3A3.05,3.05,0,0,0,167.93,74.66Z"/><path class="cls-1" d="M158.88,74.66a3.09,3.09,0,1,0,3.09-3A3.05,3.05,0,0,0,158.88,74.66Z"/><path class="cls-1" d="M149.83,74.66a3.09,3.09,0,1,0,3.09-3A3.05,3.05,0,0,0,149.83,74.66Z"/><path class="cls-1" d="M140.78,74.66a3.09,3.09,0,1,0,3.09-3A3.05,3.05,0,0,0,140.78,74.66Z"/><path class="cls-1" d="M131.72,74.66a3.09,3.09,0,1,0,3.09-3A3.06,3.06,0,0,0,131.72,74.66Z"/><path class="cls-1" d="M122.67,74.66a3.09,3.09,0,1,0,3.09-3A3.06,3.06,0,0,0,122.67,74.66Z"/><path class="cls-1" d="M113.62,74.66a3.09,3.09,0,1,0,3.09-3A3.06,3.06,0,0,0,113.62,74.66Z"/><ellipse class="cls-1" cx="469.72" cy="65.74" rx="3.09" ry="3"/><path class="cls-1" d="M430.42,65.74a3.09,3.09,0,1,0,3.09-3A3,3,0,0,0,430.42,65.74Z"/><path class="cls-1" d="M421.37,65.74a3.09,3.09,0,1,0,3.09-3A3,3,0,0,0,421.37,65.74Z"/><path class="cls-1" d="M412.32,65.74a3.09,3.09,0,1,0,3.09-3A3,3,0,0,0,412.32,65.74Z"/><ellipse class="cls-1" cx="406.36" cy="65.74" rx="3.09" ry="3"/><ellipse class="cls-1" cx="397.31" cy="65.74" rx="3.09" ry="3"/><path class="cls-1" d="M385.16,65.74a3.09,3.09,0,1,0,3.09-3A3,3,0,0,0,385.16,65.74Z"/><path class="cls-1" d="M376.11,65.74a3.09,3.09,0,1,0,3.09-3A3,3,0,0,0,376.11,65.74Z"/><path class="cls-1" d="M367.06,65.74a3.09,3.09,0,1,0,3.09-3A3,3,0,0,0,367.06,65.74Z"/><path class="cls-1" d="M358,65.74a3.09,3.09,0,1,0,3.09-3A3,3,0,0,0,358,65.74Z"/><ellipse class="cls-1" cx="352.05" cy="65.74" rx="3.09" ry="3"/><ellipse class="cls-1" cx="343" cy="65.74" rx="3.09" ry="3"/><path class="cls-1" d="M330.86,65.74a3.09,3.09,0,1,0,3.09-3A3,3,0,0,0,330.86,65.74Z"/><path class="cls-1" d="M321.8,65.74a3.09,3.09,0,1,0,3.09-3A3,3,0,0,0,321.8,65.74Z"/><path class="cls-1" d="M312.75,65.74a3.09,3.09,0,1,0,3.09-3A3,3,0,0,0,312.75,65.74Z"/><path class="cls-1" d="M303.7,65.74a3.09,3.09,0,1,0,3.09-3A3,3,0,0,0,303.7,65.74Z"/><path class="cls-1" d="M294.65,65.74a3.09,3.09,0,1,0,3.09-3A3,3,0,0,0,294.65,65.74Z"/><ellipse class="cls-1" cx="288.69" cy="65.74" rx="3.09" ry="3"/><path class="cls-1" d="M267.5,65.74a3.09,3.09,0,1,0,3.09-3A3,3,0,0,0,267.5,65.74Z"/><path class="cls-1" d="M258.44,65.74a3.09,3.09,0,1,0,3.09-3A3,3,0,0,0,258.44,65.74Z"/><path class="cls-1" d="M195.08,65.74a3.09,3.09,0,1,0,3.09-3A3,3,0,0,0,195.08,65.74Z"/><path class="cls-1" d="M186,65.74a3.09,3.09,0,1,0,3.09-3A3,3,0,0,0,186,65.74Z"/><path class="cls-1" d="M177,65.74a3.09,3.09,0,1,0,3.09-3A3,3,0,0,0,177,65.74Z"/><ellipse class="cls-1" cx="171.02" cy="65.74" rx="3.09" ry="3"/><ellipse class="cls-1" cx="161.97" cy="65.74" rx="3.09" ry="3"/><path class="cls-1" d="M149.83,65.74a3.09,3.09,0,1,0,3.09-3A3,3,0,0,0,149.83,65.74Z"/><path class="cls-1" d="M140.78,65.74a3.09,3.09,0,1,0,3.09-3A3,3,0,0,0,140.78,65.74Z"/><path class="cls-1" d="M131.72,65.74a3.09,3.09,0,1,0,3.09-3A3,3,0,0,0,131.72,65.74Z"/><path class="cls-1" d="M122.67,65.74a3.09,3.09,0,1,0,3.09-3A3,3,0,0,0,122.67,65.74Z"/><path class="cls-1" d="M113.62,65.74a3.09,3.09,0,1,0,3.09-3A3,3,0,0,0,113.62,65.74Z"/><ellipse class="cls-1" cx="107.66" cy="65.74" rx="3.09" ry="3"/><path class="cls-1" d="M59.31,65.74a3.09,3.09,0,1,0,3.09-3A3,3,0,0,0,59.31,65.74Z"/><path class="cls-1" d="M475.68,56.81a3.09,3.09,0,1,0,3.09-3A3,3,0,0,0,475.68,56.81Z"/><path class="cls-1" d="M457.58,56.81a3.09,3.09,0,1,0,3.09-3A3,3,0,0,0,457.58,56.81Z"/><path class="cls-1" d="M448.52,56.81a3.09,3.09,0,1,0,3.09-3A3,3,0,0,0,448.52,56.81Z"/><path class="cls-1" d="M439.47,56.81a3.09,3.09,0,1,0,3.09-3A3,3,0,0,0,439.47,56.81Z"/><path class="cls-1" d="M430.42,56.81a3.09,3.09,0,1,0,3.09-3A3,3,0,0,0,430.42,56.81Z"/><path class="cls-1" d="M421.37,56.81a3.09,3.09,0,1,0,3.09-3A3,3,0,0,0,421.37,56.81Z"/><path class="cls-1" d="M412.32,56.81a3.09,3.09,0,1,0,3.09-3A3,3,0,0,0,412.32,56.81Z"/><path class="cls-1" d="M403.27,56.81a3.09,3.09,0,1,0,3.09-3A3,3,0,0,0,403.27,56.81Z"/><path class="cls-1" d="M394.22,56.81a3.09,3.09,0,1,0,3.09-3A3,3,0,0,0,394.22,56.81Z"/><path class="cls-1" d="M385.16,56.81a3.09,3.09,0,1,0,3.09-3A3,3,0,0,0,385.16,56.81Z"/><path class="cls-1" d="M376.11,56.81a3.09,3.09,0,1,0,3.09-3A3,3,0,0,0,376.11,56.81Z"/><path class="cls-1" d="M367.06,56.81a3.09,3.09,0,1,0,3.09-3A3,3,0,0,0,367.06,56.81Z"/><path class="cls-1" d="M358,56.81a3.09,3.09,0,1,0,3.09-3A3,3,0,0,0,358,56.81Z"/><path class="cls-1" d="M349,56.81a3.09,3.09,0,1,0,3.09-3A3,3,0,0,0,349,56.81Z"/><path class="cls-1" d="M339.91,56.81a3.09,3.09,0,1,0,3.09-3A3,3,0,0,0,339.91,56.81Z"/><path class="cls-1" d="M330.86,56.81a3.09,3.09,0,1,0,3.09-3A3,3,0,0,0,330.86,56.81Z"/><path class="cls-1" d="M321.8,56.81a3.09,3.09,0,1,0,3.09-3A3,3,0,0,0,321.8,56.81Z"/><path class="cls-1" d="M312.75,56.81a3.09,3.09,0,1,0,3.09-3A3,3,0,0,0,312.75,56.81Z"/><path class="cls-1" d="M303.7,56.81a3.09,3.09,0,1,0,3.09-3A3,3,0,0,0,303.7,56.81Z"/><path class="cls-1" d="M285.6,56.81a3.09,3.09,0,1,0,3.09-3A3,3,0,0,0,285.6,56.81Z"/><path class="cls-1" d="M276.55,56.81a3.09,3.09,0,1,0,3.09-3A3,3,0,0,0,276.55,56.81Z"/><path class="cls-1" d="M213.19,56.81a3.09,3.09,0,1,0,3.09-3A3,3,0,0,0,213.19,56.81Z"/><path class="cls-1" d="M186,56.81a3.09,3.09,0,1,0,3.09-3A3,3,0,0,0,186,56.81Z"/><path class="cls-1" d="M177,56.81a3.09,3.09,0,1,0,3.09-3A3,3,0,0,0,177,56.81Z"/><path class="cls-1" d="M167.93,56.81a3.09,3.09,0,1,0,3.09-3A3,3,0,0,0,167.93,56.81Z"/><path class="cls-1" d="M140.78,56.81a3.09,3.09,0,1,0,3.09-3A3,3,0,0,0,140.78,56.81Z"/><path class="cls-1" d="M131.72,56.81a3.09,3.09,0,1,0,3.09-3A3,3,0,0,0,131.72,56.81Z"/><path class="cls-1" d="M122.67,56.81a3.09,3.09,0,1,0,3.09-3A3,3,0,0,0,122.67,56.81Z"/><path class="cls-1" d="M113.62,56.81a3.09,3.09,0,1,0,3.09-3A3,3,0,0,0,113.62,56.81Z"/><path class="cls-1" d="M104.57,56.81a3.09,3.09,0,1,0,3.09-3A3,3,0,0,0,104.57,56.81Z"/><path class="cls-1" d="M95.52,56.81a3.09,3.09,0,1,0,3.09-3A3,3,0,0,0,95.52,56.81Z"/><path class="cls-1" d="M86.47,56.81a3.09,3.09,0,1,0,3.09-3A3,3,0,0,0,86.47,56.81Z"/><path class="cls-1" d="M77.42,56.81a3.09,3.09,0,1,0,3.09-3A3,3,0,0,0,77.42,56.81Z"/><path class="cls-1" d="M68.36,56.81a3.09,3.09,0,1,0,3.09-3A3,3,0,0,0,68.36,56.81Z"/><path class="cls-1" d="M59.31,56.81a3.09,3.09,0,1,0,3.09-3A3,3,0,0,0,59.31,56.81Z"/><path class="cls-1" d="M502.83,47.88a3.09,3.09,0,1,0,3.09-3A3.06,3.06,0,0,0,502.83,47.88Z"/><path class="cls-1" d="M484.73,47.88a3.09,3.09,0,1,0,3.09-3A3.05,3.05,0,0,0,484.73,47.88Z"/><path class="cls-1" d="M475.68,47.88a3.09,3.09,0,1,0,3.09-3A3.05,3.05,0,0,0,475.68,47.88Z"/><path class="cls-1" d="M466.63,47.88a3.09,3.09,0,1,0,3.09-3A3.05,3.05,0,0,0,466.63,47.88Z"/><path class="cls-1" d="M457.58,47.88a3.09,3.09,0,1,0,3.09-3A3.05,3.05,0,0,0,457.58,47.88Z"/><path class="cls-1" d="M448.52,47.88a3.09,3.09,0,1,0,3.09-3A3.06,3.06,0,0,0,448.52,47.88Z"/><path class="cls-1" d="M439.47,47.88a3.09,3.09,0,1,0,3.09-3A3.06,3.06,0,0,0,439.47,47.88Z"/><path class="cls-1" d="M430.42,47.88a3.09,3.09,0,1,0,3.09-3A3.05,3.05,0,0,0,430.42,47.88Z"/><path class="cls-1" d="M421.37,47.88a3.09,3.09,0,1,0,3.09-3A3.05,3.05,0,0,0,421.37,47.88Z"/><path class="cls-1" d="M412.32,47.88a3.09,3.09,0,1,0,3.09-3A3.05,3.05,0,0,0,412.32,47.88Z"/><path class="cls-1" d="M403.27,47.88a3.09,3.09,0,1,0,3.09-3A3.05,3.05,0,0,0,403.27,47.88Z"/><path class="cls-1" d="M394.22,47.88a3.09,3.09,0,1,0,3.09-3A3.05,3.05,0,0,0,394.22,47.88Z"/><path class="cls-1" d="M385.16,47.88a3.09,3.09,0,1,0,3.09-3A3.06,3.06,0,0,0,385.16,47.88Z"/><path class="cls-1" d="M376.11,47.88a3.09,3.09,0,1,0,3.09-3A3.06,3.06,0,0,0,376.11,47.88Z"/><path class="cls-1" d="M367.06,47.88a3.09,3.09,0,1,0,3.09-3A3.05,3.05,0,0,0,367.06,47.88Z"/><path class="cls-1" d="M358,47.88a3.09,3.09,0,1,0,3.09-3A3.05,3.05,0,0,0,358,47.88Z"/><path class="cls-1" d="M349,47.88a3.09,3.09,0,1,0,3.09-3A3.05,3.05,0,0,0,349,47.88Z"/><path class="cls-1" d="M339.91,47.88a3.09,3.09,0,1,0,3.09-3A3.05,3.05,0,0,0,339.91,47.88Z"/><path class="cls-1" d="M330.86,47.88a3.09,3.09,0,1,0,3.09-3A3.05,3.05,0,0,0,330.86,47.88Z"/><path class="cls-1" d="M321.8,47.88a3.09,3.09,0,1,0,3.09-3A3.06,3.06,0,0,0,321.8,47.88Z"/><path class="cls-1" d="M312.75,47.88a3.09,3.09,0,1,0,3.09-3A3.06,3.06,0,0,0,312.75,47.88Z"/><path class="cls-1" d="M303.7,47.88a3.09,3.09,0,1,0,3.09-3A3.05,3.05,0,0,0,303.7,47.88Z"/><path class="cls-1" d="M294.65,47.88a3.09,3.09,0,1,0,3.09-3A3.05,3.05,0,0,0,294.65,47.88Z"/><path class="cls-1" d="M285.6,47.88a3.09,3.09,0,1,0,3.09-3A3.05,3.05,0,0,0,285.6,47.88Z"/><path class="cls-1" d="M249.39,47.88a3.09,3.09,0,1,0,3.09-3A3.06,3.06,0,0,0,249.39,47.88Z"/><path class="cls-1" d="M240.34,47.88a3.09,3.09,0,1,0,3.09-3A3.05,3.05,0,0,0,240.34,47.88Z"/><path class="cls-1" d="M213.19,47.88a3.09,3.09,0,1,0,3.09-3A3.05,3.05,0,0,0,213.19,47.88Z"/><path class="cls-1" d="M204.14,47.88a3.09,3.09,0,1,0,3.09-3A3.05,3.05,0,0,0,204.14,47.88Z"/><path class="cls-1" d="M177,47.88a3.09,3.09,0,1,0,3.09-3A3.06,3.06,0,0,0,177,47.88Z"/><path class="cls-1" d="M167.93,47.88a3.09,3.09,0,1,0,3.09-3A3.05,3.05,0,0,0,167.93,47.88Z"/><path class="cls-1" d="M158.88,47.88a3.09,3.09,0,1,0,3.09-3A3.05,3.05,0,0,0,158.88,47.88Z"/><path class="cls-1" d="M149.83,47.88a3.09,3.09,0,1,0,3.09-3A3.05,3.05,0,0,0,149.83,47.88Z"/><path class="cls-1" d="M140.78,47.88a3.09,3.09,0,1,0,3.09-3A3.05,3.05,0,0,0,140.78,47.88Z"/><path class="cls-1" d="M131.72,47.88a3.09,3.09,0,1,0,3.09-3A3.06,3.06,0,0,0,131.72,47.88Z"/><path class="cls-1" d="M122.67,47.88a3.09,3.09,0,1,0,3.09-3A3.06,3.06,0,0,0,122.67,47.88Z"/><path class="cls-1" d="M113.62,47.88a3.09,3.09,0,1,0,3.09-3A3.06,3.06,0,0,0,113.62,47.88Z"/><path class="cls-1" d="M104.57,47.88a3.09,3.09,0,1,0,3.09-3A3.05,3.05,0,0,0,104.57,47.88Z"/><path class="cls-1" d="M95.52,47.88a3.09,3.09,0,1,0,3.09-3A3.05,3.05,0,0,0,95.52,47.88Z"/><path class="cls-1" d="M86.47,47.88a3.09,3.09,0,1,0,3.09-3A3.05,3.05,0,0,0,86.47,47.88Z"/><path class="cls-1" d="M77.42,47.88a3.09,3.09,0,1,0,3.09-3A3.05,3.05,0,0,0,77.42,47.88Z"/><path class="cls-1" d="M68.36,47.88a3.09,3.09,0,1,0,3.09-3A3.06,3.06,0,0,0,68.36,47.88Z"/><path class="cls-1" d="M59.31,47.88a3.09,3.09,0,1,0,3.09-3A3.06,3.06,0,0,0,59.31,47.88Z"/><path class="cls-1" d="M493.78,39a3.09,3.09,0,1,0,3.09-3A3,3,0,0,0,493.78,39Z"/><path class="cls-1" d="M484.73,39a3.09,3.09,0,1,0,3.09-3A3,3,0,0,0,484.73,39Z"/><path class="cls-1" d="M475.68,39a3.09,3.09,0,1,0,3.09-3A3,3,0,0,0,475.68,39Z"/><ellipse class="cls-1" cx="469.72" cy="38.96" rx="3.09" ry="3"/><path class="cls-1" d="M457.58,39a3.09,3.09,0,1,0,3.09-3A3,3,0,0,0,457.58,39Z"/><path class="cls-1" d="M448.52,39a3.09,3.09,0,1,0,3.09-3A3,3,0,0,0,448.52,39Z"/><path class="cls-1" d="M439.47,39a3.09,3.09,0,1,0,3.09-3A3,3,0,0,0,439.47,39Z"/><path class="cls-1" d="M430.42,39a3.09,3.09,0,1,0,3.09-3A3,3,0,0,0,430.42,39Z"/><path class="cls-1" d="M421.37,39a3.09,3.09,0,1,0,3.09-3A3,3,0,0,0,421.37,39Z"/><path class="cls-1" d="M412.32,39a3.09,3.09,0,1,0,3.09-3A3,3,0,0,0,412.32,39Z"/><ellipse class="cls-1" cx="406.36" cy="38.96" rx="3.09" ry="3"/><ellipse class="cls-1" cx="397.31" cy="38.96" rx="3.09" ry="3"/><path class="cls-1" d="M385.16,39a3.09,3.09,0,1,0,3.09-3A3,3,0,0,0,385.16,39Z"/><path class="cls-1" d="M376.11,39a3.09,3.09,0,1,0,3.09-3A3,3,0,0,0,376.11,39Z"/><path class="cls-1" d="M367.06,39a3.09,3.09,0,1,0,3.09-3A3,3,0,0,0,367.06,39Z"/><path class="cls-1" d="M358,39a3.09,3.09,0,1,0,3.09-3A3,3,0,0,0,358,39Z"/><ellipse class="cls-1" cx="352.05" cy="38.96" rx="3.09" ry="3"/><ellipse class="cls-1" cx="343" cy="38.96" rx="3.09" ry="3"/><path class="cls-1" d="M330.86,39A3.09,3.09,0,1,0,334,36,3,3,0,0,0,330.86,39Z"/><path class="cls-1" d="M321.8,39a3.09,3.09,0,1,0,3.09-3A3,3,0,0,0,321.8,39Z"/><path class="cls-1" d="M312.75,39a3.09,3.09,0,1,0,3.09-3A3,3,0,0,0,312.75,39Z"/><path class="cls-1" d="M303.7,39a3.09,3.09,0,1,0,3.09-3A3,3,0,0,0,303.7,39Z"/><path class="cls-1" d="M294.65,39a3.09,3.09,0,1,0,3.09-3A3,3,0,0,0,294.65,39Z"/><ellipse class="cls-1" cx="288.69" cy="38.96" rx="3.09" ry="3"/><path class="cls-1" d="M231.29,39a3.09,3.09,0,1,0,3.09-3A3,3,0,0,0,231.29,39Z"/><ellipse class="cls-1" cx="225.33" cy="38.96" rx="3.09" ry="3"/><path class="cls-1" d="M213.19,39a3.09,3.09,0,1,0,3.09-3A3,3,0,0,0,213.19,39Z"/><path class="cls-1" d="M204.14,39a3.09,3.09,0,1,0,3.09-3A3,3,0,0,0,204.14,39Z"/><path class="cls-1" d="M177,39a3.09,3.09,0,1,0,3.09-3A3,3,0,0,0,177,39Z"/><ellipse class="cls-1" cx="161.97" cy="38.96" rx="3.09" ry="3"/><path class="cls-1" d="M149.83,39a3.09,3.09,0,1,0,3.09-3A3,3,0,0,0,149.83,39Z"/><path class="cls-1" d="M131.72,39a3.09,3.09,0,1,0,3.09-3A3,3,0,0,0,131.72,39Z"/><path class="cls-1" d="M122.67,39a3.09,3.09,0,1,0,3.09-3A3,3,0,0,0,122.67,39Z"/><path class="cls-1" d="M113.62,39a3.09,3.09,0,1,0,3.09-3A3,3,0,0,0,113.62,39Z"/><ellipse class="cls-1" cx="107.66" cy="38.96" rx="3.09" ry="3"/><ellipse class="cls-1" cx="98.61" cy="38.96" rx="3.09" ry="3"/><path class="cls-1" d="M86.47,39a3.09,3.09,0,1,0,3.09-3A3,3,0,0,0,86.47,39Z"/><path class="cls-1" d="M77.42,39a3.09,3.09,0,1,0,3.09-3A3,3,0,0,0,77.42,39Z"/><path class="cls-1" d="M68.36,39a3.09,3.09,0,1,0,3.09-3A3,3,0,0,0,68.36,39Z"/><path class="cls-1" d="M59.31,39a3.09,3.09,0,1,0,3.09-3A3,3,0,0,0,59.31,39Z"/><path class="cls-1" d="M448.52,30a3.09,3.09,0,1,0,3.09-3A3,3,0,0,0,448.52,30Z"/><path class="cls-1" d="M421.37,30a3.09,3.09,0,1,0,3.09-3A3,3,0,0,0,421.37,30Z"/><path class="cls-1" d="M412.32,30a3.09,3.09,0,1,0,3.09-3A3,3,0,0,0,412.32,30Z"/><path class="cls-1" d="M403.27,30a3.09,3.09,0,1,0,3.09-3A3,3,0,0,0,403.27,30Z"/><path class="cls-1" d="M394.22,30a3.09,3.09,0,1,0,3.09-3A3,3,0,0,0,394.22,30Z"/><path class="cls-1" d="M385.16,30a3.09,3.09,0,1,0,3.09-3A3,3,0,0,0,385.16,30Z"/><path class="cls-1" d="M376.11,30a3.09,3.09,0,1,0,3.09-3A3,3,0,0,0,376.11,30Z"/><path class="cls-1" d="M367.06,30a3.09,3.09,0,1,0,3.09-3A3,3,0,0,0,367.06,30Z"/><path class="cls-1" d="M358,30a3.09,3.09,0,1,0,3.09-3A3,3,0,0,0,358,30Z"/><path class="cls-1" d="M240.34,30a3.09,3.09,0,1,0,3.09-3A3,3,0,0,0,240.34,30Z"/><path class="cls-1" d="M231.29,30a3.09,3.09,0,1,0,3.09-3A3,3,0,0,0,231.29,30Z"/><path class="cls-1" d="M222.24,30a3.09,3.09,0,1,0,3.09-3A3,3,0,0,0,222.24,30Z"/><path class="cls-1" d="M213.19,30a3.09,3.09,0,1,0,3.09-3A3,3,0,0,0,213.19,30Z"/><path class="cls-1" d="M204.14,30a3.09,3.09,0,1,0,3.09-3A3,3,0,0,0,204.14,30Z"/><path class="cls-1" d="M167.93,30A3.09,3.09,0,1,0,171,27,3,3,0,0,0,167.93,30Z"/><path class="cls-1" d="M158.88,30A3.09,3.09,0,1,0,162,27,3,3,0,0,0,158.88,30Z"/><path class="cls-1" d="M149.83,30a3.09,3.09,0,1,0,3.09-3A3,3,0,0,0,149.83,30Z"/><path class="cls-1" d="M140.78,30a3.09,3.09,0,1,0,3.09-3A3,3,0,0,0,140.78,30Z"/><path class="cls-1" d="M131.72,30a3.09,3.09,0,1,0,3.09-3A3,3,0,0,0,131.72,30Z"/><path class="cls-1" d="M122.67,30a3.09,3.09,0,1,0,3.09-3A3,3,0,0,0,122.67,30Z"/><path class="cls-1" d="M113.62,30a3.09,3.09,0,1,0,3.09-3A3,3,0,0,0,113.62,30Z"/><path class="cls-1" d="M439.47,21.1a3.09,3.09,0,1,0,3.09-3A3.06,3.06,0,0,0,439.47,21.1Z"/><ellipse class="cls-1" cx="406.36" cy="21.1" rx="3.09" ry="3"/><ellipse class="cls-1" cx="397.31" cy="21.1" rx="3.09" ry="3"/><path class="cls-1" d="M385.16,21.1a3.09,3.09,0,1,0,3.09-3A3.06,3.06,0,0,0,385.16,21.1Z"/><ellipse class="cls-1" cx="352.05" cy="21.1" rx="3.09" ry="3"/><path class="cls-1" d="M240.34,21.1a3.09,3.09,0,1,0,3.09-3A3.05,3.05,0,0,0,240.34,21.1Z"/><path class="cls-1" d="M231.29,21.1a3.09,3.09,0,1,0,3.09-3A3.05,3.05,0,0,0,231.29,21.1Z"/><ellipse class="cls-1" cx="225.33" cy="21.1" rx="3.09" ry="3"/><path class="cls-1" d="M213.19,21.1a3.09,3.09,0,1,0,3.09-3A3.05,3.05,0,0,0,213.19,21.1Z"/><path class="cls-1" d="M204.14,21.1a3.09,3.09,0,1,0,3.09-3A3.05,3.05,0,0,0,204.14,21.1Z"/><path class="cls-1" d="M195.08,21.1a3.09,3.09,0,1,0,3.09-3A3.06,3.06,0,0,0,195.08,21.1Z"/><path class="cls-1" d="M186,21.1a3.09,3.09,0,1,0,3.09-3A3.06,3.06,0,0,0,186,21.1Z"/><ellipse class="cls-1" cx="161.97" cy="21.1" rx="3.09" ry="3"/><path class="cls-1" d="M149.83,21.1a3.09,3.09,0,1,0,3.09-3A3.05,3.05,0,0,0,149.83,21.1Z"/><path class="cls-1" d="M140.78,21.1a3.09,3.09,0,1,0,3.09-3A3.05,3.05,0,0,0,140.78,21.1Z"/><path class="cls-1" d="M131.72,21.1a3.09,3.09,0,1,0,3.09-3A3.06,3.06,0,0,0,131.72,21.1Z"/><path class="cls-1" d="M122.67,21.1a3.09,3.09,0,1,0,3.09-3A3.06,3.06,0,0,0,122.67,21.1Z"/><path class="cls-1" d="M113.62,21.1a3.09,3.09,0,1,0,3.09-3A3.06,3.06,0,0,0,113.62,21.1Z"/><path class="cls-1" d="M394.22,12.18a3.09,3.09,0,1,0,3.09-3A3,3,0,0,0,394.22,12.18Z"/><path class="cls-1" d="M385.16,12.18a3.09,3.09,0,1,0,3.09-3A3,3,0,0,0,385.16,12.18Z"/><path class="cls-1" d="M294.65,12.18a3.09,3.09,0,1,0,3.09-3A3,3,0,0,0,294.65,12.18Z"/><path class="cls-1" d="M285.6,12.18a3.09,3.09,0,1,0,3.09-3A3,3,0,0,0,285.6,12.18Z"/><path class="cls-1" d="M240.34,12.18a3.09,3.09,0,1,0,3.09-3A3,3,0,0,0,240.34,12.18Z"/><path class="cls-1" d="M231.29,12.18a3.09,3.09,0,1,0,3.09-3A3,3,0,0,0,231.29,12.18Z"/><path class="cls-1" d="M222.24,12.18a3.09,3.09,0,1,0,3.09-3A3,3,0,0,0,222.24,12.18Z"/><path class="cls-1" d="M213.19,12.18a3.09,3.09,0,1,0,3.09-3A3,3,0,0,0,213.19,12.18Z"/><path class="cls-1" d="M204.14,12.18a3.09,3.09,0,1,0,3.09-3A3,3,0,0,0,204.14,12.18Z"/><path class="cls-1" d="M195.08,12.18a3.09,3.09,0,1,0,3.09-3A3,3,0,0,0,195.08,12.18Z"/><path class="cls-1" d="M186,12.18a3.09,3.09,0,1,0,3.09-3A3,3,0,0,0,186,12.18Z"/><path class="cls-1" d="M167.93,12.18a3.09,3.09,0,1,0,3.09-3A3,3,0,0,0,167.93,12.18Z"/><path class="cls-1" d="M158.88,12.18a3.09,3.09,0,1,0,3.09-3A3,3,0,0,0,158.88,12.18Z"/><path class="cls-1" d="M149.83,12.18a3.09,3.09,0,1,0,3.09-3A3,3,0,0,0,149.83,12.18Z"/><path class="cls-1" d="M240.34,3.25a3.09,3.09,0,0,0,6.18,0,3.09,3.09,0,0,0-6.18,0Z"/><path class="cls-1" d="M231.29,3.25a3.09,3.09,0,0,0,6.18,0,3.09,3.09,0,0,0-6.18,0Z"/><path class="cls-1" d="M222.24,3.25a3.09,3.09,0,0,0,6.18,0,3.09,3.09,0,0,0-6.18,0Z"/><path class="cls-1" d="M213.19,3.25a3.09,3.09,0,0,0,6.18,0,3.09,3.09,0,0,0-6.18,0Z"/><path class="cls-1" d="M204.14,3.25a3.09,3.09,0,0,0,6.18,0,3.09,3.09,0,0,0-6.18,0Z"/><path class="cls-1" d="M195.08,3.25a3.09,3.09,0,0,0,6.18,0,3.09,3.09,0,0,0-6.18,0Z"/><path class="cls-1" d="M186,3.25a3.09,3.09,0,0,0,6.18,0,3.09,3.09,0,0,0-6.18,0Z"/><path class="cls-1" d="M177,3.25a3.09,3.09,0,0,0,6.18,0,3.09,3.09,0,0,0-6.18,0Z"/><path class="cls-1" d="M167.93,3.25a3.09,3.09,0,0,0,6.18,0,3.09,3.09,0,0,0-6.18,0Z"/><path class="cls-1" d="M158.88,3.25a3.09,3.09,0,0,0,6.18,0,3.09,3.09,0,0,0-6.18,0Z"/><g class="cls-2"><path class="cls-3" d="M556.07,215.38a.26.26,0,0,1-.26-.26V10.41L546.17.77H505.61a.25.25,0,0,1-.26-.26.26.26,0,0,1,.26-.26h40.67a.25.25,0,0,1,.18.08l9.79,9.79a.27.27,0,0,1,.08.19V215.12A.26.26,0,0,1,556.07,215.38Z"/></g><g class="cls-2"><path class="cls-3" d="M556.07,220.49a2.64,2.64,0,1,1,2.64-2.64A2.64,2.64,0,0,1,556.07,220.49Zm0-4.76a2.12,2.12,0,1,0,2.12,2.12A2.12,2.12,0,0,0,556.07,215.73Z"/></g><path class="cls-4" d="M548.88,220.11H535.67a.26.26,0,0,1-.26-.26V9.17a.26.26,0,0,1,.26-.26h13.21a.25.25,0,0,1,.26.26V219.85A.25.25,0,0,1,548.88,220.11Zm-13-.52h12.69V9.43H535.93Z"/><path class="cls-3" d="M542.39,217.15a.26.26,0,0,1-.26-.26V13a.26.26,0,0,1,.26-.26.26.26,0,0,1,.26.26V216.89A.26.26,0,0,1,542.39,217.15Z"/><path class="cls-3" d="M546.34,47.28a3.95,3.95,0,1,0-4,3.94A4,4,0,0,0,546.34,47.28Z"/><path class="cls-4" d="M533.51,13.24h-4.1a.26.26,0,0,1-.26-.26.26.26,0,0,1,.26-.26h4.1a.26.26,0,0,1,.26.26A.26.26,0,0,1,533.51,13.24Z"/><path class="cls-4" d="M533.51,26.89h-4.1a.26.26,0,0,1-.26-.26.26.26,0,0,1,.26-.26h4.1a.26.26,0,0,1,.26.26A.26.26,0,0,1,533.51,26.89Z"/><path class="cls-4" d="M533.51,20.25h-2a.27.27,0,0,1,0-.53h2a.27.27,0,0,1,0,.53Z"/><path class="cls-4" d="M533.51,33.91h-2a.25.25,0,0,1-.26-.26.26.26,0,0,1,.26-.26h2a.26.26,0,0,1,.26.26A.26.26,0,0,1,533.51,33.91Z"/><path class="cls-4" d="M533.51,40.54h-4.1a.27.27,0,0,1,0-.53h4.1a.27.27,0,0,1,0,.53Z"/><path class="cls-4" d="M533.51,54.18h-4.1a.26.26,0,0,1-.26-.26.26.26,0,0,1,.26-.26h4.1a.26.26,0,0,1,.26.26A.26.26,0,0,1,533.51,54.18Z"/><path class="cls-4" d="M533.51,47.54h-2a.26.26,0,0,1-.26-.26.25.25,0,0,1,.26-.26h2a.26.26,0,0,1,.26.26A.26.26,0,0,1,533.51,47.54Z"/><path class="cls-4" d="M533.51,61.2h-2a.25.25,0,0,1-.26-.26.26.26,0,0,1,.26-.26h2a.26.26,0,0,1,.26.26A.26.26,0,0,1,533.51,61.2Z"/><path class="cls-4" d="M533.51,67.83h-4.1a.26.26,0,0,1-.26-.26.26.26,0,0,1,.26-.26h4.1a.26.26,0,0,1,.26.26A.26.26,0,0,1,533.51,67.83Z"/><path class="cls-4" d="M533.51,122.41h-4.1a.26.26,0,0,1-.26-.26.26.26,0,0,1,.26-.26h4.1a.26.26,0,0,1,.26.26A.26.26,0,0,1,533.51,122.41Z"/><path class="cls-4" d="M533.51,136.06h-4.1a.26.26,0,0,1-.26-.26.26.26,0,0,1,.26-.26h4.1a.26.26,0,0,1,.26.26A.26.26,0,0,1,533.51,136.06Z"/><path class="cls-4" d="M533.51,129.41h-2a.25.25,0,0,1-.26-.26.26.26,0,0,1,.26-.26h2a.26.26,0,0,1,.26.26A.26.26,0,0,1,533.51,129.41Z"/><path class="cls-4" d="M533.51,143.08h-2a.26.26,0,0,1,0-.52h2a.26.26,0,1,1,0,.52Z"/><path class="cls-4" d="M533.51,149.7h-4.1a.26.26,0,0,1-.26-.26.26.26,0,0,1,.26-.26h4.1a.26.26,0,0,1,.26.26A.26.26,0,0,1,533.51,149.7Z"/><path class="cls-4" d="M533.51,163.35h-4.1a.26.26,0,0,1,0-.52h4.1a.26.26,0,0,1,0,.52Z"/><path class="cls-4" d="M533.51,156.71h-2a.26.26,0,0,1-.26-.26.25.25,0,0,1,.26-.26h2a.26.26,0,0,1,.26.26A.26.26,0,0,1,533.51,156.71Z"/><path class="cls-4" d="M533.51,170.37h-2a.25.25,0,0,1-.26-.26.26.26,0,0,1,.26-.26h2a.26.26,0,0,1,.26.26A.26.26,0,0,1,533.51,170.37Z"/><path class="cls-4" d="M533.51,177h-4.1a.27.27,0,0,1,0-.53h4.1a.27.27,0,0,1,0,.53Z"/><path class="cls-4" d="M533.51,190.64h-4.1a.26.26,0,0,1-.26-.26.26.26,0,0,1,.26-.26h4.1a.26.26,0,0,1,.26.26A.26.26,0,0,1,533.51,190.64Z"/><path class="cls-4" d="M533.51,184h-2a.26.26,0,0,1-.26-.26.25.25,0,0,1,.26-.26h2a.26.26,0,0,1,.26.26A.26.26,0,0,1,533.51,184Z"/><path class="cls-4" d="M533.51,197.67h-2a.27.27,0,0,1,0-.53h2a.27.27,0,0,1,0,.53Z"/><path class="cls-4" d="M533.51,204.29h-4.1a.26.26,0,0,1-.26-.26.26.26,0,0,1,.26-.26h4.1a.26.26,0,0,1,.26.26A.26.26,0,0,1,533.51,204.29Z"/><path class="cls-4" d="M533.51,217.94h-4.1a.27.27,0,0,1,0-.53h4.1a.27.27,0,0,1,0,.53Z"/><path class="cls-4" d="M533.51,211.29h-2a.26.26,0,0,1,0-.52h2a.26.26,0,0,1,0,.52Z"/><path class="cls-4" d="M533.51,81.47h-4.1a.26.26,0,0,1-.26-.26.26.26,0,0,1,.26-.26h4.1a.26.26,0,0,1,.26.26A.26.26,0,0,1,533.51,81.47Z"/><path class="cls-4" d="M533.51,74.83h-2a.26.26,0,1,1,0-.52h2a.26.26,0,1,1,0,.52Z"/><path class="cls-4" d="M533.51,88.5h-2a.27.27,0,0,1,0-.53h2a.27.27,0,0,1,0,.53Z"/><path class="cls-4" d="M533.51,95.12h-4.1a.26.26,0,1,1,0-.52h4.1a.26.26,0,0,1,0,.52Z"/><path class="cls-4" d="M533.51,108.77h-4.1a.27.27,0,0,1,0-.53h4.1a.27.27,0,0,1,0,.53Z"/><path class="cls-4" d="M533.51,102.12h-2a.25.25,0,0,1-.26-.26.26.26,0,0,1,.26-.26h2a.26.26,0,0,1,.26.26A.26.26,0,0,1,533.51,102.12Z"/><path class="cls-4" d="M533.51,115.79h-2a.26.26,0,0,1-.26-.26.25.25,0,0,1,.26-.26h2a.26.26,0,0,1,.26.26A.26.26,0,0,1,533.51,115.79Z"/><path class="cls-3" d="M510.17,14.66h-.79l-.94-3.76v6h-.73V10.22H509l.77,3.42.77-3.42h1.29v6.69h-.74v-6Z"/><path class="cls-3" d="M514,15.22l-.38,1.69h-.85l1.62-6.69h1.1l1.59,6.69h-.86l-.36-1.69Zm1.71-.72L515,10.85l-.77,3.65Z"/><path class="cls-3" d="M518.92,16.91H518l1.67-3.46-1.51-3.23h.91l1,2.26,1.09-2.26h.89l-1.55,3.22,1.64,3.47h-.93l-1.15-2.51Z"/><path class="cls-4" d="M510.17,217.61h-.79l-.94-3.76v6h-.73v-6.69H509l.77,3.42.77-3.42h1.29v6.69h-.74v-6Z"/><path class="cls-4" d="M514.53,219.16v-5.3h-.86v-.7h2.56v.7h-.87v5.3h.87v.69h-2.56v-.69Z"/><path class="cls-4" d="M519.07,219.85h-.78v-6.69h1.36l1.51,6v-6h.78v6.69h-1.37l-1.5-6Z"/><g class="cls-5"><rect y="198.3" width="14.42" height="23.06"/></g><g class="cls-2"><rect y="189.13" width="14.42" height="6.58"/></g><g class="cls-2"><rect y="179.96" width="14.42" height="6.58"/></g><g class="cls-2"><rect y="170.79" width="14.42" height="6.58"/></g><g class="cls-6"><rect y="161.63" width="14.42" height="6.58"/></g><g class="cls-6"><rect y="152.46" width="14.42" height="6.58"/></g><rect y="143.29" width="14.42" height="6.58"/><rect x="14.42" y="146.01" width="79.82" height="1.15"/><g class="cls-2"><path d="M99.46,146.62h-.54l-.63-2.48v4H97.8v-4.42h.9l.52,2.26.52-2.26h.87v4.42h-.5v-4Z"/><path d="M102,147.83a1,1,0,0,1-.3-.8v-2.28a1,1,0,0,1,.3-.8,1.25,1.25,0,0,1,.86-.27h.92v.48h-1a.56.56,0,0,0-.39.14.43.43,0,0,0-.15.33v2.52a.43.43,0,0,0,.15.33.56.56,0,0,0,.39.14h1v.48h-.92A1.25,1.25,0,0,1,102,147.83Z"/><path d="M107,147.83a1.25,1.25,0,0,1-.86.27h-.92v-.48h1a.56.56,0,0,0,.39-.14.43.43,0,0,0,.15-.33v-.66a.45.45,0,0,0-.1-.31.41.41,0,0,0-.3-.11h-.19a1,1,0,0,1-.76-.28,1.09,1.09,0,0,1-.28-.8v-.24a1,1,0,0,1,.3-.8,1.26,1.26,0,0,1,.87-.27h.92v.48h-1a.56.56,0,0,0-.39.14.43.43,0,0,0-.15.33v.48a.47.47,0,0,0,.13.33.45.45,0,0,0,.34.13h.19a1,1,0,0,1,.72.26,1.06,1.06,0,0,1,.25.78V147A1,1,0,0,1,107,147.83Z"/><path d="M110.72,145.89v.47h-2.1v-.47Z"/><path d="M113.87,147.86a1.2,1.2,0,0,1-.84.24h-.85v-.47h.91a.53.53,0,0,0,.36-.11.49.49,0,0,0,.12-.36v-.8a.47.47,0,0,0-.13-.33.5.5,0,0,0-.35-.12h-.84v-2.23H114v.48H112.8v1.28h.26a1.17,1.17,0,0,1,.78.24.91.91,0,0,1,.29.74v.68A1,1,0,0,1,113.87,147.86Z"/><path d="M117.5,147.82a1.08,1.08,0,0,1-.79.28h-.13a1.09,1.09,0,0,1-.79-.28,1,1,0,0,1-.29-.79v-2.28a1,1,0,0,1,.29-.8,1.11,1.11,0,0,1,.79-.27h.13a1.14,1.14,0,0,1,.8.27,1.06,1.06,0,0,1,.29.8V147A1,1,0,0,1,117.5,147.82Zm-.4-3.52a.52.52,0,0,0-.39-.14h-.13a.51.51,0,0,0-.38.14.43.43,0,0,0-.15.33v1.71l1.2-1.71A.43.43,0,0,0,117.1,144.3Zm-.9,3.18a.52.52,0,0,0,.38.15h.13a.53.53,0,0,0,.39-.15.43.43,0,0,0,.15-.33v-1.71l-1.2,1.71A.43.43,0,0,0,116.2,147.48Z"/><path d="M123.88,148.1V147h-.51v1.14h-.52V147h-.45v-.47h.45v-1.26h-.45v-.48h.45v-1.07h.52v1.07h.51v-1.07h.52v1.07h.45v.48h-.45v1.26h.45V147h-.45v1.14Zm-.51-1.61h.51v-1.26h-.51Z"/><path d="M126.49,147l-.25,1.12h-.58l1.09-4.42h.75l1.07,4.42H128l-.24-1.12Zm1.15-.47-.53-2.41-.52,2.41Z"/><path d="M130.32,148.1v-3.94h-1v-.48h2.62v.48h-1v3.94Z"/><path d="M135,147.86a1.2,1.2,0,0,1-.84.24H134a1.2,1.2,0,0,1-.84-.24,1,1,0,0,1-.26-.76v-.53a.8.8,0,0,1,.42-.77.85.85,0,0,1-.34-.74v-.39a1,1,0,0,1,.27-.75,1.14,1.14,0,0,1,.78-.24h.13a1.13,1.13,0,0,1,.77.24,1,1,0,0,1,.27.75v.39a.83.83,0,0,1-.34.74.8.8,0,0,1,.42.77v.53A1,1,0,0,1,135,147.86Zm-.43-1.68a.49.49,0,0,0-.34-.12h-.31a.47.47,0,0,0-.34.12.45.45,0,0,0-.13.34v.64a.49.49,0,0,0,.1.35.41.41,0,0,0,.32.12h.35a.52.52,0,0,0,.36-.11.49.49,0,0,0,.12-.36v-.64A.45.45,0,0,0,134.59,146.18Zm-1-1.91a.49.49,0,0,0-.1.34v.52a.44.44,0,0,0,.12.32.47.47,0,0,0,.3.14h.22a.44.44,0,0,0,.46-.46v-.52a.49.49,0,0,0-.1-.35.52.52,0,0,0-.36-.1H134A.39.39,0,0,0,133.64,144.27Z"/><path d="M136.75,144a1,1,0,0,1,.73-.28h.22a1,1,0,0,1,.73.28,1,1,0,0,1,.3.79V147a1,1,0,0,1-.3.8,1.22,1.22,0,0,1-.86.27h-.74v-.48h.81a.56.56,0,0,0,.39-.14.43.43,0,0,0,.15-.33v-.69h-.64a1.2,1.2,0,0,1-.82-.24,1,1,0,0,1-.26-.77v-.7A1,1,0,0,1,136.75,144Zm1.29.33a.49.49,0,0,0-.37-.13h-.16a.51.51,0,0,0-.37.13.48.48,0,0,0-.13.34v.94a.38.38,0,0,0,.12.3.46.46,0,0,0,.35.11h.7v-1.35A.49.49,0,0,0,138,144.29Z"/><path d="M141.86,147.83a1.25,1.25,0,0,1-.86.27h-.92v-.48h1a.56.56,0,0,0,.39-.14.43.43,0,0,0,.15-.33v-.66a.45.45,0,0,0-.1-.31.41.41,0,0,0-.3-.11H141a1,1,0,0,1-.76-.28,1.05,1.05,0,0,1-.28-.8v-.24a1,1,0,0,1,.3-.8,1.25,1.25,0,0,1,.86-.27h.93v.48h-1a.56.56,0,0,0-.39.14.43.43,0,0,0-.15.33v.48a.47.47,0,0,0,.13.33.45.45,0,0,0,.34.13h.19a1,1,0,0,1,.72.26,1.06,1.06,0,0,1,.25.78V147A1,1,0,0,1,141.86,147.83Z"/><path d="M145.27,147.86a1.2,1.2,0,0,1-.84.24h-.85v-.47h.91a.53.53,0,0,0,.36-.11.49.49,0,0,0,.12-.36v-.8a.47.47,0,0,0-.13-.33.5.5,0,0,0-.35-.12h-.84v-2.23h1.78v.48H144.2v1.28h.26a1.17,1.17,0,0,1,.78.24.91.91,0,0,1,.29.74v.68A1,1,0,0,1,145.27,147.86Z"/><path d="M148,146.11l.28-.42a.77.77,0,0,0,.1-.25,2.93,2.93,0,0,0,0-.36v-.45a.43.43,0,0,0-.15-.33.52.52,0,0,0-.38-.14h-.78v-.48h.71a1.23,1.23,0,0,1,.86.27,1,1,0,0,1,.31.8V145a2.3,2.3,0,0,1-.05.51,1.21,1.21,0,0,1-.13.35c-.06.1-.15.24-.28.42l-.95,1.32h1.53v.48H147v-.56Z"/></g><rect y="134.12" width="14.42" height="6.58"/><rect x="14.42" y="136.84" width="79.82" height="1.15"/><path d="M99.46,136.69h-.54l-.63-2.48v4H97.8v-4.41h.9l.52,2.25.52-2.25h.87v4.41h-.5v-4Z"/><path d="M102,137.9a1,1,0,0,1-.3-.8v-2.27a1,1,0,0,1,.3-.81,1.3,1.3,0,0,1,.86-.26h.92v.48h-1a.56.56,0,0,0-.39.13.46.46,0,0,0-.15.34v2.51a.43.43,0,0,0,.15.33.52.52,0,0,0,.39.14h1v.48h-.92A1.25,1.25,0,0,1,102,137.9Z"/><path d="M107,137.9a1.25,1.25,0,0,1-.86.27h-.92v-.48h1a.52.52,0,0,0,.39-.14.43.43,0,0,0,.15-.33v-.66a.44.44,0,0,0-.1-.3.38.38,0,0,0-.3-.12h-.19a1,1,0,0,1-.76-.27,1.07,1.07,0,0,1-.28-.8v-.24a1,1,0,0,1,.3-.81,1.3,1.3,0,0,1,.86-.26h.93v.48h-1a.56.56,0,0,0-.39.13.46.46,0,0,0-.15.34v.48a.44.44,0,0,0,.13.32.45.45,0,0,0,.34.13h.19a1,1,0,0,1,.72.26,1.06,1.06,0,0,1,.25.78v.42A1,1,0,0,1,107,137.9Z"/><path d="M110.72,136v.48h-2.1V136Z"/><path d="M113.87,137.94a1.26,1.26,0,0,1-.84.23h-.85v-.47h.91a.53.53,0,0,0,.36-.11.45.45,0,0,0,.12-.35v-.8a.45.45,0,0,0-.13-.33.46.46,0,0,0-.35-.13h-.84v-2.22H114v.47H112.8v1.28h.26a1.17,1.17,0,0,1,.78.24.92.92,0,0,1,.29.74v.69A1,1,0,0,1,113.87,137.94Z"/><path d="M116.47,137.7v-3.45l-.91.33v-.51l.85-.31H117v3.94h.71v.47h-2.1v-.47Z"/><path d="M123.88,138.17V137h-.51v1.13h-.52V137h-.45v-.48h.45V135.3h-.45v-.47h.45v-1.07h.52v1.07h.51v-1.07h.52v1.07h.45v.47h-.45v1.26h.45V137h-.45v1.13Zm-.51-1.61h.51V135.3h-.51Z"/><path d="M126.49,137.06l-.25,1.11h-.58l1.09-4.41h.75l1.07,4.41H128l-.24-1.11Zm1.15-.48-.53-2.41-.52,2.41Z"/><path d="M130.32,138.17v-3.93h-1v-.48h2.62v.48h-1v3.93Z"/><path d="M135,137.94a1.26,1.26,0,0,1-.84.23H134a1.26,1.26,0,0,1-.84-.23,1,1,0,0,1-.26-.76v-.53a.81.81,0,0,1,.42-.78.82.82,0,0,1-.34-.73v-.4a.93.93,0,0,1,.27-.74,1.14,1.14,0,0,1,.78-.24h.13a1.13,1.13,0,0,1,.77.24.93.93,0,0,1,.27.74v.4a.82.82,0,0,1-.34.73.81.81,0,0,1,.42.78v.53A1,1,0,0,1,135,137.94Zm-.43-1.68a.49.49,0,0,0-.34-.13h-.31a.5.5,0,0,0-.35.13.45.45,0,0,0-.12.33v.65a.52.52,0,0,0,.1.35.44.44,0,0,0,.32.11h.35a.52.52,0,0,0,.36-.11.45.45,0,0,0,.12-.35v-.65A.42.42,0,0,0,134.59,136.26Zm-1-1.91a.45.45,0,0,0-.1.33v.52a.43.43,0,0,0,.42.46h.22a.44.44,0,0,0,.46-.46v-.52a.42.42,0,0,0-.11-.34.43.43,0,0,0-.35-.11H134A.36.36,0,0,0,133.64,134.35Z"/><path d="M136.75,134a1,1,0,0,1,.73-.27h.22a1,1,0,0,1,.73.27,1,1,0,0,1,.29.8v2.27a1,1,0,0,1-.29.8,1.23,1.23,0,0,1-.86.27h-.74v-.48h.81a.52.52,0,0,0,.39-.14.43.43,0,0,0,.15-.33v-.69h-.64a1.2,1.2,0,0,1-.82-.24,1,1,0,0,1-.26-.77v-.69A1,1,0,0,1,136.75,134Zm1.29.34a.5.5,0,0,0-.37-.14h-.16a.5.5,0,0,0-.37.14.45.45,0,0,0-.13.34v.93a.41.41,0,0,0,.12.31.51.51,0,0,0,.35.11h.7v-1.35A.46.46,0,0,0,138,134.37Z"/><path d="M141.86,137.9a1.25,1.25,0,0,1-.86.27h-.92v-.48h1a.52.52,0,0,0,.39-.14.43.43,0,0,0,.15-.33v-.66a.44.44,0,0,0-.1-.3.38.38,0,0,0-.3-.12H141a1,1,0,0,1-.76-.27,1.07,1.07,0,0,1-.28-.8v-.24a1,1,0,0,1,.3-.81,1.3,1.3,0,0,1,.86-.26h.93v.48h-1a.56.56,0,0,0-.39.13.46.46,0,0,0-.15.34v.48a.44.44,0,0,0,.13.32.45.45,0,0,0,.34.13h.19a1,1,0,0,1,.72.26,1.06,1.06,0,0,1,.25.78v.42A1,1,0,0,1,141.86,137.9Z"/><path d="M145.27,137.94a1.26,1.26,0,0,1-.84.23h-.85v-.47h.91a.53.53,0,0,0,.36-.11.45.45,0,0,0,.12-.35v-.8a.45.45,0,0,0-.13-.33.46.46,0,0,0-.35-.13h-.84v-2.22h1.78v.47H144.2v1.28h.26a1.17,1.17,0,0,1,.78.24.92.92,0,0,1,.29.74v.69A1,1,0,0,1,145.27,137.94Z"/><path d="M148,136.18l.28-.41a1,1,0,0,0,.1-.25,3.26,3.26,0,0,0,0-.37v-.44a.46.46,0,0,0-.15-.34.53.53,0,0,0-.38-.13h-.78v-.48h.71a1.28,1.28,0,0,1,.86.26,1,1,0,0,1,.3.81v.26a2.39,2.39,0,0,1,0,.51,1.21,1.21,0,0,1-.13.35c-.06.1-.15.24-.28.42l-.95,1.32h1.53v.48H147v-.55Z"/><g class="cls-6"><rect y="124.96" width="14.42" height="6.58"/></g><g class="cls-2"><rect y="115.79" width="14.42" height="6.58"/></g><g class="cls-2"><rect y="106.62" width="14.42" height="6.58"/></g><g class="cls-7"><rect y="97.45" width="14.42" height="6.58"/></g><g class="cls-7"><rect y="88.29" width="14.42" height="6.58"/></g><g class="cls-5"><rect y="0.25" width="14.42" height="85"/></g><path d="M10.09,73a3.53,3.53,0,1,0-3.53,3.53A3.53,3.53,0,0,0,10.09,73Z"/><path d="M20.88,76.74V75.17H18.76V74.3l1.1-4.6h.84l-1.05,4.74h1.23v-2.3h.88v2.3h.77v.73h-.77v1.57Z"/><path d="M27.69,76.36a2,2,0,0,1-1.34.38h-.29a2,2,0,0,1-1.34-.38,1.58,1.58,0,0,1-.41-1.21V74.3A1.27,1.27,0,0,1,25,73.07a1.31,1.31,0,0,1-.55-1.17v-.63a1.51,1.51,0,0,1,.44-1.19,1.81,1.81,0,0,1,1.23-.38h.21a1.83,1.83,0,0,1,1.23.38A1.51,1.51,0,0,1,28,71.27v.63a1.33,1.33,0,0,1-.54,1.17,1.29,1.29,0,0,1,.67,1.23v.85A1.58,1.58,0,0,1,27.69,76.36ZM27,73.69a.77.77,0,0,0-.55-.2H26a.77.77,0,0,0-.55.2.66.66,0,0,0-.2.52v1a.79.79,0,0,0,.16.55.66.66,0,0,0,.51.18h.56a.82.82,0,0,0,.58-.17.77.77,0,0,0,.18-.56v-1A.7.7,0,0,0,27,73.69Zm-1.52-3a.83.83,0,0,0-.15.54V72a.69.69,0,0,0,.19.52.77.77,0,0,0,.48.22h.35a.72.72,0,0,0,.52-.2.73.73,0,0,0,.21-.54v-.82a.75.75,0,0,0-.17-.55.74.74,0,0,0-.56-.18H26A.64.64,0,0,0,25.48,70.64Z"/><path d="M30.43,70.14a1.65,1.65,0,0,1,1.17-.44H32a1.63,1.63,0,0,1,1.16.44,1.68,1.68,0,0,1,.46,1.27V75a1.64,1.64,0,0,1-.46,1.28,2,2,0,0,1-1.37.43H30.57V76h1.29a.83.83,0,0,0,.61-.22.68.68,0,0,0,.24-.53v-1.1h-1a1.88,1.88,0,0,1-1.31-.38A1.57,1.57,0,0,1,30,72.52V71.41A1.72,1.72,0,0,1,30.43,70.14Zm2.06.54a.77.77,0,0,0-.58-.23h-.26a.79.79,0,0,0-.59.23.73.73,0,0,0-.21.54v1.49a.6.6,0,0,0,.19.48.77.77,0,0,0,.56.18h1.11V71.22A.7.7,0,0,0,32.49,70.68Z"/><path d="M38.1,70.45H35.61V69.7H39v1l-1.81,6.06h-.92Z"/></svg>