<?xml version="1.0" encoding="utf-8"?>
<!-- Generator: Adobe Illustrator 25.2.1, SVG Export Plug-In . SVG Version: 6.00 Build 0)  -->
<svg version="1.1" id="Layer_1" xmlns="http://www.w3.org/2000/svg" xmlns:xlink="http://www.w3.org/1999/xlink" x="0px" y="0px"
	 viewBox="0 0 385.8 314.5" style="enable-background:new 0 0 385.8 314.5;" xml:space="preserve">
<style type="text/css">
	.st0{fill:#FFFFFF;}
	.st1{fill:#9AA6ED;}
	.st2{opacity:0.5;fill:#9AA6ED;enable-background:new    ;}
	.st3{opacity:0.5;}
	.st4{opacity:0.5;fill:#FFFFFF;enable-background:new    ;}
	.st5{fill:#FFFFFF;stroke:#333333;stroke-linecap:round;stroke-linejoin:round;}
	.st6{clip-path:url(#SVGID_2_);}
	.st7{opacity:0.3;enable-background:new    ;}
	.st8{fill:none;stroke:#333333;stroke-linecap:round;stroke-linejoin:round;}
	.st9{fill:#9AA6ED;stroke:#333333;stroke-linecap:round;stroke-linejoin:round;}
	.st10{clip-path:url(#SVGID_4_);}
	.st11{opacity:0.17;enable-background:new    ;}
	.st12{clip-path:url(#SVGID_6_);}
	.st13{clip-path:url(#SVGID_8_);}
	.st14{clip-path:url(#SVGID_10_);}
	.st15{fill:#333333;stroke:#333333;stroke-linecap:round;stroke-linejoin:round;}
	.st16{fill:none;stroke:#FFFFFF;stroke-linecap:round;stroke-linejoin:round;}
	.st17{fill:#333333;}
	.st18{clip-path:url(#SVGID_12_);}
</style>
<g>
	<g id="freepik--background-simple--inject-7">
		<path class="st0" d="M13.7,115.3c-31.4,70.8-7,155.2,52.7,182.5s75.5,15.1,140.3,6s102.5,23.3,144.1-10.1s47-92.1,11.5-142.9
			s-77.7-114.5-143.8-139S94.8,19.5,94.8,19.5S45.1,44.5,13.7,115.3z"/>
	</g>
	<g id="freepik--Clouds--inject-7">
		<path class="st1" d="M38.8,115.9h113.4c0,0-3.1-2.2-5.8-4s-7.2,0-9.4,0s-2.2-2.7-7.2-5.8s-10.3,1.8-14.3,0.9s-1.8-7.2-6.7-10.3
			s-6.2,1.8-11.2-1.4s0-16.1-18.4-15.7s-19.3,13-19.3,13c-13.4,5.8-6.7,11.7-8.5,13.9s-4.1,0-9,2.7
			C37.4,111.9,38.8,115.9,38.8,115.9z"/>
		<path class="st2" d="M38.8,115.9h113.4c0,0-3.1-2.2-5.8-4s-7.2,0-9.4,0s-2.2-2.7-7.2-5.8s-10.3,1.8-14.3,0.9s-1.8-7.2-6.7-10.3
			s-6.2,1.8-11.2-1.4s0-16.1-18.4-15.7s-19.3,13-19.3,13c-13.4,5.8-6.7,11.7-8.5,13.9s-4.1,0-9,2.7
			C37.4,111.9,38.8,115.9,38.8,115.9z"/>
		<path class="st1" d="M211.9,55.9h67.2c0,0-1.9-1.3-3.5-2.4c-1.6-1.1-4.2,0-5.6,0c-1.3,0-1.3-1.6-4.2-3.5c-2.9-1.9-6.1,1.1-8.5,0.5
			s-1.1-4.3-4-6.1c-2.9-1.8-3.8,1.1-6.6-0.8c-2.9-1.9,0-9.6-10.9-9.3S224.4,42,224.4,42c-7.9,3.5-3.9,6.9-5,8.2s-2.4,0-5.3,1.6
			C211.1,53.5,211.9,55.9,211.9,55.9z"/>
		<path class="st2" d="M211.9,55.9h67.2c0,0-1.9-1.3-3.5-2.4c-1.6-1.1-4.2,0-5.6,0c-1.3,0-1.3-1.6-4.2-3.5c-2.9-1.9-6.1,1.1-8.5,0.5
			s-1.1-4.3-4-6.1c-2.9-1.8-3.8,1.1-6.6-0.8c-2.9-1.9,0-9.6-10.9-9.3S224.4,42,224.4,42c-7.9,3.5-3.9,6.9-5,8.2s-2.4,0-5.3,1.6
			C211.1,53.5,211.9,55.9,211.9,55.9z"/>
		<path class="st1" d="M167,284.8h193.2c0,0-5.4-3.8-9.9-6.9c-4.5-3.1-12.2,0-16,0c-3.8,0-3.8-4.6-12.2-9.9s-17.6,3.1-24.4,1.5
			c-6.9-1.6-3.1-12.2-11.5-17.6s-10.7,3.1-19.1-2.3s0-27.5-31.3-26.7s-32.8,22.1-32.8,22.1c-22.9,9.9-11.4,19.9-14.5,23.7
			s-6.9,0-15.3,4.6C164.7,278,167,284.8,167,284.8z"/>
		<path class="st2" d="M167,284.8h193.2c0,0-5.4-3.8-9.9-6.9c-4.5-3.1-12.2,0-16,0c-3.8,0-3.8-4.6-12.2-9.9s-17.6,3.1-24.4,1.5
			c-6.9-1.6-3.1-12.2-11.5-17.6s-10.7,3.1-19.1-2.3s0-27.5-31.3-26.7s-32.8,22.1-32.8,22.1c-22.9,9.9-11.4,19.9-14.5,23.7
			s-6.9,0-15.3,4.6C164.7,278,167,284.8,167,284.8z"/>
		<g class="st3">
			<path class="st0" d="M38.8,115.9h113.4c0,0-3.1-2.2-5.8-4s-7.2,0-9.4,0s-2.2-2.7-7.2-5.8s-10.3,1.8-14.3,0.9s-1.8-7.2-6.7-10.3
				s-6.2,1.8-11.2-1.4s0-16.1-18.4-15.7s-19.3,13-19.3,13c-13.4,5.8-6.7,11.7-8.5,13.9s-4.1,0-9,2.7
				C37.4,111.9,38.8,115.9,38.8,115.9z"/>
			<path class="st4" d="M38.8,115.9h113.4c0,0-3.1-2.2-5.8-4s-7.2,0-9.4,0s-2.2-2.7-7.2-5.8s-10.3,1.8-14.3,0.9s-1.8-7.2-6.7-10.3
				s-6.2,1.8-11.2-1.4s0-16.1-18.4-15.7s-19.3,13-19.3,13c-13.4,5.8-6.7,11.7-8.5,13.9s-4.1,0-9,2.7
				C37.4,111.9,38.8,115.9,38.8,115.9z"/>
		</g>
		<g class="st3">
			<path class="st0" d="M211.9,55.9h67.2c0,0-1.9-1.3-3.5-2.4c-1.6-1.1-4.2,0-5.6,0c-1.3,0-1.3-1.6-4.2-3.5
				c-2.9-1.9-6.1,1.1-8.5,0.5s-1.1-4.3-4-6.1c-2.9-1.8-3.8,1.1-6.6-0.8c-2.9-1.9,0-9.6-10.9-9.3S224.4,42,224.4,42
				c-7.9,3.5-3.9,6.9-5,8.2s-2.4,0-5.3,1.6C211.1,53.5,211.9,55.9,211.9,55.9z"/>
			<path class="st4" d="M211.9,55.9h67.2c0,0-1.9-1.3-3.5-2.4c-1.6-1.1-4.2,0-5.6,0c-1.3,0-1.3-1.6-4.2-3.5
				c-2.9-1.9-6.1,1.1-8.5,0.5s-1.1-4.3-4-6.1c-2.9-1.8-3.8,1.1-6.6-0.8c-2.9-1.9,0-9.6-10.9-9.3S224.4,42,224.4,42
				c-7.9,3.5-3.9,6.9-5,8.2s-2.4,0-5.3,1.6C211.1,53.5,211.9,55.9,211.9,55.9z"/>
		</g>
		<g class="st3">
			<path class="st0" d="M167,284.8h193.2c0,0-5.4-3.8-9.9-6.9c-4.5-3.1-12.2,0-16,0c-3.8,0-3.8-4.6-12.2-9.9s-17.6,3.1-24.4,1.5
				c-6.9-1.6-3.1-12.2-11.5-17.6s-10.7,3.1-19.1-2.3s0-27.5-31.3-26.7s-32.8,22.1-32.8,22.1c-22.9,9.9-11.4,19.9-14.5,23.7
				s-6.9,0-15.3,4.6C164.7,278,167,284.8,167,284.8z"/>
			<path class="st4" d="M167,284.8h193.2c0,0-5.4-3.8-9.9-6.9c-4.5-3.1-12.2,0-16,0c-3.8,0-3.8-4.6-12.2-9.9s-17.6,3.1-24.4,1.5
				c-6.9-1.6-3.1-12.2-11.5-17.6s-10.7,3.1-19.1-2.3s0-27.5-31.3-26.7s-32.8,22.1-32.8,22.1c-22.9,9.9-11.4,19.9-14.5,23.7
				s-6.9,0-15.3,4.6C164.7,278,167,284.8,167,284.8z"/>
		</g>
	</g>
	<g id="freepik--Books--inject-7">
		<path class="st5" d="M310.7,237.3c-3.2-1.2-8.9-1.2-14-2.4c-2.8-0.6-5.4-1.5-8-2.7l2.3,4.8l23.5,6.5l34.3-9.3l-0.3-4.6
			c0,0-3,1.2-8.1,2.6s-11,1.4-16.1,2.9c-5.1,1.5-10.1,5.8-10.1,5.8S313.8,238.5,310.7,237.3z"/>
		<path class="st5" d="M349.8,233.1l-34.8,9.1l-25.2-4.9l-1.5-3c4.7,1.6,9.5,2.6,14.5,3c4.1,0.2,8.1,1.4,11.5,3.6
			c4.2-3.1,9.2-5.2,14.5-5.9c7-0.8,13.8-2.3,20.5-4.4L349.8,233.1z"/>
		<path class="st5" d="M350.4,234l-35.8,10.4l-26.9-5.7c0.6-0.8,0.7-1.9,0.4-2.9c4.6,1.2,9.4,1.9,14.1,1.9c4.3,0.1,8.4,1.2,12.2,3.1
			c0,0,9.8-4.6,19.1-5.3c5.7-0.5,11.3-1.8,16.6-3.9L350.4,234z"/>
		<path class="st1" d="M350.9,250.6l-28,6.1l-18.5-1.9c0,0-16.6-14.5-17.6-15.8c-1-1.3,0.2-1,0.2-1l25.8,4.1v1.4l2.9-0.1v-1.2
			l34.9-8.8L350.9,250.6z"/>
		<g>
			<defs>
				<path id="SVGID_1_" d="M350.9,250.6l-28,6.1l-18.5-1.9c0,0-16.6-14.5-17.6-15.8c-1-1.3,0.2-1,0.2-1l25.8,4.1v1.4l2.9-0.1v-1.2
					l34.9-8.8L350.9,250.6z"/>
			</defs>
			<clipPath id="SVGID_2_">
				<use xlink:href="#SVGID_1_"  style="overflow:visible;"/>
			</clipPath>
			<g class="st6">
				<polygon class="st7" points="315,243.5 322.4,256.8 322.9,256.9 350.8,250.7 350.7,233.5 315.7,242.3 315.7,243.5 				"/>
			</g>
		</g>
		<path class="st8" d="M350.9,250.6l-28,6.1l-18.5-1.9c0,0-16.6-14.5-17.6-15.8c-1-1.3,0.2-1,0.2-1l25.8,4.1v1.4l2.9-0.1v-1.2
			l34.9-8.8L350.9,250.6z"/>
		<polygon class="st9" points="312.8,243.6 322,256.9 323.5,256.9 315.7,243.5 		"/>
		<polygon class="st9" points="120.4,234.1 116.4,262.8 56.1,245.8 84.3,217.2 		"/>
		<polygon class="st5" points="85.2,221.3 116.7,235.3 121.7,268.3 59.3,249.9 		"/>
		<polygon class="st0" points="112.2,234 119,270 60.5,253 83.7,223 		"/>
		<g>
			<defs>
				<polygon id="SVGID_3_" points="112.2,234 119,270 60.5,253 83.7,223 				"/>
			</defs>
			<clipPath id="SVGID_4_">
				<use xlink:href="#SVGID_3_"  style="overflow:visible;"/>
			</clipPath>
			<g class="st10">
				<polygon class="st11" points="112.2,234 119,270 60.5,253 83.7,223 				"/>
			</g>
		</g>
		<polygon class="st8" points="112.2,234 119,270 60.5,253 83.7,223 		"/>
		<polygon class="st5" points="119.9,238.6 135.9,272.6 94.4,260 83.7,223 		"/>
		<polygon class="st5" points="101.5,251.6 138.6,264.9 137.4,270.5 97.3,257 		"/>
		<polygon class="st5" points="101.5,251.6 97.3,257 83.7,223 59.3,249.9 58.2,245.7 84.8,218 		"/>
		<polygon class="st1" points="120.4,234.1 140.5,265.9 101.3,252.6 84.3,217.2 		"/>
		<g>
			<defs>
				<polygon id="SVGID_5_" points="120.4,234.1 140.5,265.9 101.3,252.6 84.3,217.2 				"/>
			</defs>
			<clipPath id="SVGID_6_">
				<use xlink:href="#SVGID_5_"  style="overflow:visible;"/>
			</clipPath>
			<g class="st12">
				<polygon class="st7" points="120.4,234.1 140.5,265.9 101.3,252.6 84.3,217.2 				"/>
			</g>
		</g>
		<polygon class="st8" points="120.4,234.1 140.5,265.9 101.3,252.6 84.3,217.2 		"/>
		<line class="st8" x1="90.5" y1="223" x2="122" y2="237.4"/>
		<polygon class="st9" points="251,288.5 246.3,258.6 186.6,261.4 215.5,297 		"/>
		<polygon class="st5" points="216.3,293.1 247.3,286.4 251.4,254.3 189.7,258 		"/>
		<polygon class="st0" points="242.9,286.7 248.7,251.9 190.8,255.1 214.8,290.9 		"/>
		<g>
			<defs>
				<polygon id="SVGID_7_" points="242.9,286.7 248.7,251.9 190.8,255.1 214.8,290.9 				"/>
			</defs>
			<clipPath id="SVGID_8_">
				<use xlink:href="#SVGID_7_"  style="overflow:visible;"/>
			</clipPath>
			<g class="st13">
				<polygon class="st11" points="242.9,286.7 248.7,251.9 190.8,255.1 214.8,290.9 				"/>
			</g>
		</g>
		<polygon class="st8" points="242.9,286.7 248.7,251.9 190.8,255.1 214.8,290.9 		"/>
		<polygon class="st5" points="250.5,283.9 265.5,253.4 224.4,256.2 214.8,290.9 		"/>
		<polygon class="st5" points="231.7,266.4 268.3,261.8 267,255.8 227.4,259.9 		"/>
		<polygon class="st5" points="231.7,266.4 227.4,259.9 214.8,290.9 189.7,258 188.7,262 215.9,296.3 		"/>
		<polygon class="st1" points="251,288.5 270.2,261.2 231.5,265.3 215.5,297 		"/>
		<g>
			<defs>
				<polygon id="SVGID_9_" points="251,288.5 270.2,261.2 231.5,265.3 215.5,297 				"/>
			</defs>
			<clipPath id="SVGID_10_">
				<use xlink:href="#SVGID_9_"  style="overflow:visible;"/>
			</clipPath>
			<g class="st14">
				<polygon class="st7" points="251,288.5 270.2,261.2 231.5,265.3 215.5,297 				"/>
			</g>
		</g>
		<polygon class="st8" points="251,288.5 270.2,261.2 231.5,265.3 215.5,297 		"/>
		<line class="st8" x1="222.5" y1="291.2" x2="254" y2="284.5"/>
	</g>
	<g id="freepik--Character--inject-7">
		<path class="st15" d="M168.3,88.2c-0.9,1.5-1.5,5.9-1.5,5.9s-13.5,7.2-23.6,15.3s-13.1,28.4,6.8,30.8s48-14.4,56.1-19
			s9.6-18.7,4.4-26.4s-18.3-14-18.3-14C179.2,76.8,169.2,86.6,168.3,88.2z"/>
		<path class="st5" d="M149.9,140.1c14,1.7,32.1-6.2,44.4-12.6c-6.1-6.2-25.7-22.5-55.5-13.4C132.8,123.5,133.3,138.1,149.9,140.1z"
			/>
		<path class="st8" d="M147.8,139.7c-6.1-13.9,11.4-27.9,11.4-27.9"/>
		<path class="st5" d="M203.9,81.5l13.9,25.7h5.6l-7-32.6C206.7,73.3,203.9,81.5,203.9,81.5z"/>
		<path class="st9" d="M111.3,83.2c1.8,3.2,4.5,6.8,7.9,8.5l0.7,0.4c7.9-9.9,17.9-23,19.1-22.5c1.7,0.7,3.7,10.2,8.5,13.5
			c3,2.2,6.7,3.3,10.4,3c1.9,0,6.7,2,10.5,4.2s6.3,4.1,16.1,2.6c9.8-1.5,11.1-6.8,9.2-10.2s-11.3-16.3-11.3-16.3s8.7,4.1,14.6,8.9
			c1.8,1.4,4.1,3.7,6.9,6.3c2.7-2.8,6.3-5.3,12.5-6.9c-6.9-7-20.3-18.7-32.9-24c-16.1-6.8-27.9-6.5-27.9-6.5
			c-13.9,1.1-21.4,7.6-27.2,14.6C124.8,63.3,117.7,73.9,111.3,83.2z"/>
		<path class="st8" d="M157.7,63.4c7.9-3.6,3.9-13,3.9-13"/>
		<line class="st8" x1="173.9" y1="63.8" x2="182.4" y2="66.4"/>
		<path class="st8" d="M164.6,82.2c12.6,5.4,17.9,0.6,17.9,0.6"/>
		<path class="st8" d="M128.1,68.2c3.7,0.1,7.3,0.6,10.9,1.3c0,0-2.4-3.2-5.5-3.6"/>
		<path class="st8" d="M170.8,66.9c5.6,0.2,11.3,0.2,11.3,0.2"/>
		<path class="st8" d="M170.4,83.6c8,0.4,8.7-3.3,8.7-3.3"/>
		<path class="st5" d="M147.7,49.5c0,2.3,1.3,7,3.7,11.3s5.7,0.2,6.7-3.3s-0.4-10.2-0.4-10.2C156,43.1,147.7,47.3,147.7,49.5z"/>
		<path class="st15" d="M141.2,33.5c0,0,2.8-3.3,8.3-1.1s2,10.7,9.5,14.8c6.1,3.3,14.2,3.7,21,2.6c5-0.9,12.7-4.9,12.9-11.2
			c0.1-3.2-2.9-7.4-1.3-10.4c2-3.7,8.9-5.2,8.7-2.4s-3.1,1.7-2.8,2.6s5.4,3.3,7.9-2.2s-4.1-12.2-10.4-12.2s-8.5,5-13.7,4.2
			s-5-11.3-12.2-14.4s-22.6-6.5-32,3.1s-2.9,7.8-4.8,13.3s-7.6,6.3-3.1,12S139,39,139,39L141.2,33.5z"/>
		<path class="st16" d="M201.3,18.1c-1.6-1.3-3.9-1.7-5.8-0.8"/>
		<path class="st16" d="M192.2,19.6c-0.5,0.6-1,1.2-1.5,1.8c-4.8,6.6-11.4,8.1-15.8,1.8s-13.3-16.2-21-14s-7.7,13.2-7.7,13.2"/>
		<path class="st16" d="M185.5,42.8c-7.4-1.8-6.6-11.8-14.7-17.6s-18.4-0.4-18.4-0.4s9.2-1.8,14.3,3.3s4.4,14.7,10.3,16.5
			s8.9,1.1,12.9-1.5"/>
		<path class="st16" d="M134.4,15.5c-0.4,6.2,6.6,8.1,6.6,8.1"/>
		<path class="st16" d="M170,103.5c9.6-6.6,28.6-9,28.6-9"/>
		<path class="st5" d="M140.7,25.8c-1.8,4.7-2.8,9.7-3,14.8c0,5,1.7,14.8,5.9,15.7s10.5-3.5,13.7-6.3s3.1-7.4,3.1-7.4
			c0.5-0.1,1.1-0.2,1.7-0.2c0.6,0,4.1-2,3.7-4.6s-1.7-3-2.8-2.4c-1.8,1.2-4.1,1-5.7-0.4c-2.6-2.1-2.5-3.7-5.6-7.1
			c-1.6-1.9-4.2-2.7-6.6-2C145,26,142,22.9,140.7,25.8z"/>
		<path class="st17" d="M149.4,35.4c0.5,0,0.8,0.8,0.8,1.8s-0.4,1.9-0.8,1.9s-0.8-0.9-0.8-1.9C148.5,36.2,148.9,35.4,149.4,35.4z"/>
		<path class="st17" d="M142.8,34.8c0.5,0,0.8,0.8,0.8,1.8s-0.4,1.9-0.8,1.9s-0.8-0.9-0.8-1.9C142,35.6,142.3,34.8,142.8,34.8z"/>
		<path class="st8" d="M148.1,32.5c3.1-0.8,4.3,1,4.3,1"/>
		<path class="st8" d="M140.7,32.5c1.9-2.3,3.9,0,3.9,0"/>
		<path class="st8" d="M144.2,43.2c-1.6-0.6-2.1-2.5-0.8-2.5s1.4-4.1,1.4-4.1"/>
		<path class="st8" d="M151,45.3c-1.4,3.7-5.1,2.1-5.1,2.1"/>
		<path class="st5" d="M129.5,123.5c-13.6-5.1-38-5.1-59.8-10.3s-33.9-11.4-33.9-11.4l10,20.3l99.9,27.6l146-39.4l-1.1-19.5
			c0,0-12.5,8.1-34.3,14s-46.8,2.9-68.6,9.2S145,138.6,145,138.6S143.2,128.6,129.5,123.5z"/>
		<path class="st5" d="M296.1,105.8L148,144.5l-107.2-21l-6.2-12.9c0,0,32.8,11.4,61.5,12.5c17.4,0.8,34.3,6.1,49,15.5
			c0,0,33.5-20.2,69.7-23.6c54.9-5.2,79.2-19.9,79.2-19.9L296.1,105.8z"/>
		<path class="st5" d="M298.7,109.5l-152.2,44.2L32.2,129.4c2.4-3.6,3.1-8,1.8-12.2c19.6,5.2,39.8,7.9,60.1,8.1
			c27.3,0,52,13.3,52,13.3s46.8-19.2,86.2-22.1c22.7-1.8,44.9-7.6,65.6-16.9L298.7,109.5z"/>
		<path class="st1" d="M297.7,108.3c1.2,0,2.1,0.9,2.1,2.1l0.7,70.3l-119,26.1l-78.5-8.1c0,0-70.8-61.6-74.8-67.1s0.7-4.4,0.7-4.4
			l109.8,17.3v5.9l12.5-0.4v-5.2l145.9-36.6C297.4,108.3,297.5,108.3,297.7,108.3z"/>
		<g>
			<defs>
				<path id="SVGID_11_" d="M297.7,108.3c1.2,0,2.1,0.9,2.1,2.1l0.7,70.3l-119,26.1l-78.5-8.1c0,0-70.8-61.6-74.8-67.1
					s0.7-4.4,0.7-4.4l109.8,17.3v5.9l12.5-0.4v-5.2l145.9-36.6C297.4,108.3,297.5,108.3,297.7,108.3z"/>
			</defs>
			<clipPath id="SVGID_12_">
				<use xlink:href="#SVGID_11_"  style="overflow:visible;"/>
			</clipPath>
			<g class="st18">
				<polygon class="st7" points="147.9,150.2 179.4,206.6 181.5,206.8 300.5,180.7 299.8,107.7 151.3,144.9 151.3,150.1 				"/>
			</g>
		</g>
		<path class="st8" d="M297.7,108.3c1.2,0,2.1,0.9,2.1,2.1l0.7,70.3l-119,26.1l-78.5-8.1c0,0-70.8-61.6-74.8-67.1s0.7-4.4,0.7-4.4
			l109.8,17.3v5.9l12.5-0.4v-5.2l145.9-36.6C297.4,108.3,297.5,108.3,297.7,108.3z"/>
		<polygon class="st9" points="138.7,150.4 177.8,207.2 184.1,206.8 151.3,150.1 		"/>
		<path class="st17" d="M26.7,127.6c-1.2,0.6,1.5,4,1.5,4l5.9,6.2c-2-6.5,7.8-8.4,7.8-8.4S27.9,127,26.7,127.6z"/>
		<path class="st17" d="M297.2,108.3c2.2-0.4,2.6,2,2.6,2l-0.1,15.9c-2.1-10.4-16-14.2-16-14.2S295,108.7,297.2,108.3z"/>
		<polygon class="st17" points="300.5,180.7 293.4,182.4 300.4,175.8 		"/>
		<polygon class="st17" points="103.5,198.8 98.6,194.5 108,199.1 		"/>
		<path class="st5" d="M119.9,92.1l-28.5,24l-6.7-1.1l26.6-31.8C112.5,87.2,119.9,92.1,119.9,92.1z"/>
		<path class="st5" d="M228.1,105.6c0,0,1.3,5.7,3.7,5.4s-0.7-5.3-1-6.8s-1.7,0.2-1.7,0.2L228.1,105.6z"/>
		<path class="st5" d="M224.9,105.4c0,0,1.3,5.7,3.7,5.4s-0.7-5.4-1-6.8s-1.7,0.2-1.7,0.2L224.9,105.4z"/>
		<path class="st5" d="M221.5,105.4c0,0,1.6,6.4,4.4,6s-0.8-6-1.2-7.6s-2,0.2-2,0.2L221.5,105.4z"/>
		<polygon class="st5" points="220.9,109.8 214.6,109.8 219.9,104.6 		"/>
		<path class="st5" d="M218.8,106c0,0,1.6,6.4,4.4,6s-0.8-5.9-1.2-7.5s-2,0.2-2,0.2L218.8,106z"/>
		<path class="st5" d="M78.3,110.7c0,0-2.2,5.4-4.5,4.7s1.5-5.2,2.1-6.6s1.6,0.4,1.6,0.4L78.3,110.7z"/>
		<path class="st5" d="M81.5,111c0,0-2.2,5.4-4.5,4.7s1.5-5.2,2.1-6.6s1.6,0.4,1.6,0.4L81.5,111z"/>
		<path class="st5" d="M84.8,111.5c0,0-2.6,6-5.2,5.2s1.7-5.8,2.4-7.3s1.9,0.5,1.9,0.5L84.8,111.5z"/>
		<polygon class="st5" points="84.7,115.9 91,116.9 86.5,111 		"/>
		<path class="st5" d="M87.5,112.6c0,0-2.6,6-5.2,5.2s1.7-5.8,2.4-7.3s1.9,0.5,1.9,0.5L87.5,112.6z"/>
	</g>
	<g id="freepik--Sparkles--inject-7">
		<path class="st0" d="M270.9,166.6l1,6.4l1-6.4c0.2-1.1,1.1-2.1,2.2-2.2l6.4-1l-6.4-1c-1.2-0.2-2.1-1.1-2.2-2.2l-1-6.4l-1,6.4
			c-0.2,1.2-1.1,2.1-2.2,2.2l-6.4,1l6.4,1C269.8,164.6,270.7,165.5,270.9,166.6z"/>
		<path class="st1" d="M318.7,210.1l1,6.4l1-6.4c0.2-1.2,1.1-2.1,2.2-2.2l6.4-1l-6.4-1c-1.2-0.2-2.1-1.1-2.2-2.2l-1-6.4l-1,6.4
			c-0.2,1.2-1.1,2.1-2.2,2.2l-6.4,1l6.4,1C317.6,208,318.5,208.9,318.7,210.1z"/>
		<path class="st4" d="M318.7,210.1l1,6.4l1-6.4c0.2-1.2,1.1-2.1,2.2-2.2l6.4-1l-6.4-1c-1.2-0.2-2.1-1.1-2.2-2.2l-1-6.4l-1,6.4
			c-0.2,1.2-1.1,2.1-2.2,2.2l-6.4,1l6.4,1C317.6,208,318.5,208.9,318.7,210.1z"/>
		<path class="st1" d="M159.1,236.8l1,6.4l1-6.4c0.2-1.2,1.1-2.1,2.2-2.2l6.4-1l-6.4-1c-1.2-0.2-2.1-1.1-2.2-2.2l-1-6.4l-1,6.4
			c-0.2,1.2-1.1,2.1-2.2,2.2l-6.4,1l6.4,1C158,234.7,158.9,235.6,159.1,236.8z"/>
		<path class="st4" d="M159.1,236.8l1,6.4l1-6.4c0.2-1.2,1.1-2.1,2.2-2.2l6.4-1l-6.4-1c-1.2-0.2-2.1-1.1-2.2-2.2l-1-6.4l-1,6.4
			c-0.2,1.2-1.1,2.1-2.2,2.2l-6.4,1l6.4,1C158,234.7,158.9,235.6,159.1,236.8z"/>
		<path class="st1" d="M326.2,175.2l0.7,4.2l0.7-4.2c0.1-0.8,0.7-1.4,1.5-1.5l4.2-0.7l-4.2-0.7c-0.8-0.1-1.4-0.7-1.5-1.5l-0.7-4.2
			l-0.7,4.2c-0.1,0.8-0.7,1.4-1.5,1.5l-4.2,0.7l4.2,0.7C325.4,173.8,326,174.4,326.2,175.2z"/>
		<path class="st4" d="M326.2,175.2l0.7,4.2l0.7-4.2c0.1-0.8,0.7-1.4,1.5-1.5l4.2-0.7l-4.2-0.7c-0.8-0.1-1.4-0.7-1.5-1.5l-0.7-4.2
			l-0.7,4.2c-0.1,0.8-0.7,1.4-1.5,1.5l-4.2,0.7l4.2,0.7C325.4,173.8,326,174.4,326.2,175.2z"/>
		<path class="st1" d="M51.1,184.6l0.7,4.2l0.7-4.2c0.1-0.8,0.7-1.4,1.5-1.5l4.2-0.7l-4.2-0.7c-0.8-0.1-1.4-0.7-1.5-1.5l-0.7-4.2
			l-0.7,4.2c-0.1,0.8-0.7,1.4-1.5,1.5l-4.2,0.7l4.2,0.7C50.4,183.2,51,183.8,51.1,184.6z"/>
		<path class="st4" d="M51.1,184.6l0.7,4.2l0.7-4.2c0.1-0.8,0.7-1.4,1.5-1.5l4.2-0.7l-4.2-0.7c-0.8-0.1-1.4-0.7-1.5-1.5l-0.7-4.2
			l-0.7,4.2c-0.1,0.8-0.7,1.4-1.5,1.5l-4.2,0.7l4.2,0.7C50.4,183.2,51,183.8,51.1,184.6z"/>
		<path class="st0" d="M244.9,149.3l0.7,4.2l0.6-4.2c0.1-0.7,0.7-1.3,1.4-1.4l4.2-0.6l-4.2-0.6c-0.7-0.1-1.3-0.7-1.4-1.4l-0.6-4.2
			l-0.7,4.2c-0.1,0.7-0.7,1.3-1.4,1.4l-4.1,0.6l4.1,0.6C244.2,147.9,244.8,148.6,244.9,149.3z"/>
		<path class="st0" d="M107.4,190.4l0.6,4.1l0.6-4.1c0.1-0.7,0.7-1.3,1.5-1.5l4.2-0.7l-4.2-0.6c-0.7-0.1-1.3-0.7-1.5-1.5L108,182
			l-0.6,4.2c-0.1,0.7-0.7,1.3-1.5,1.5l-4.2,0.6l4.2,0.7C106.7,189,107.2,189.6,107.4,190.4z"/>
	</g>
</g>
</svg>
