<svg id="Layer_1" data-name="Layer 1" xmlns="http://www.w3.org/2000/svg" xmlns:xlink="http://www.w3.org/1999/xlink" viewBox="0 0 623.18 189.01"><defs><style>.cls-1{fill:none;}.cls-13,.cls-14,.cls-15,.cls-16,.cls-2{fill:#ddb997;}.cls-14,.cls-3,.cls-9{opacity:0.4;}.cls-10,.cls-11,.cls-4,.cls-8,.cls-9{fill:#575756;}.cls-13,.cls-5,.cls-8{opacity:0.2;}.cls-6{clip-path:url(#clip-path);}.cls-11,.cls-16,.cls-7{opacity:0.8;}.cls-10,.cls-12,.cls-15{opacity:0.6;}</style><clipPath id="clip-path"><rect class="cls-1" x="67.29" y="144.3" width="535.19" height="7.08"/></clipPath></defs><path class="cls-2" d="M600.09,179.06H525.33a.41.41,0,0,1-.41-.42.41.41,0,0,1,.41-.42h74.59l22.42-22.41V38L599.47,15.09H34.32L11.8,38.54V154.19l24,24H505.16a.42.42,0,0,1,.42.42.41.41,0,0,1-.42.42H35.66a.4.4,0,0,1-.29-.12L11.08,154.66a.47.47,0,0,1-.12-.3v-116a.4.4,0,0,1,.12-.29l22.76-23.7a.42.42,0,0,1,.3-.13H599.65a.39.39,0,0,1,.29.13l23.12,23.11a.4.4,0,0,1,.12.29V156a.42.42,0,0,1-.12.3l-22.67,22.66A.41.41,0,0,1,600.09,179.06Z"/><g class="cls-3"><path class="cls-4" d="M.63,155a.63.63,0,0,1-.63-.63V37.28a.63.63,0,0,1,.16-.42L29.39,4.36a.64.64,0,0,1,.46-.21H191a.63.63,0,0,1,0,1.26H30.13L1.26,37.52V154.36A.63.63,0,0,1,.63,155Z"/></g><path class="cls-4" d="M236.86,9.56a4.78,4.78,0,1,1,4.78-4.78A4.78,4.78,0,0,1,236.86,9.56Zm0-8.72a3.94,3.94,0,1,0,3.94,3.94A3.95,3.95,0,0,0,236.86.84Z"/><path class="cls-4" d="M512.71,5.2H241.22a.42.42,0,1,1,0-.84H512.71a.42.42,0,1,1,0,.84Z"/><path class="cls-4" d="M515.25,4.78a2.55,2.55,0,1,0-2.54,2.54A2.54,2.54,0,0,0,515.25,4.78Z"/><g class="cls-5"><path class="cls-2" d="M598.11,34.05H35.05a.42.42,0,1,1,0-.83H598.11a.42.42,0,1,1,0,.83Z"/></g><g class="cls-5"><path class="cls-2" d="M598.11,81.48H35.05a.42.42,0,1,1,0-.84H598.11a.42.42,0,1,1,0,.84Z"/></g><g class="cls-5"><path class="cls-2" d="M598.11,128.46H35.05a.42.42,0,0,1,0-.84H598.11a.42.42,0,1,1,0,.84Z"/></g><rect class="cls-2" x="37.28" y="143.35" width="2.3" height="7.91"/><path class="cls-2" d="M49.89,151.35H42.62a.42.42,0,0,1-.42-.42v-7.27a.42.42,0,0,1,.42-.42h7.27a.42.42,0,0,1,.42.42v7.27A.42.42,0,0,1,49.89,151.35ZM43,150.51h6.43v-6.43H43Z"/><rect class="cls-4" x="52.9" y="143.35" width="11.87" height="7.91"/><g class="cls-3"><g class="cls-6"><rect class="cls-4" x="-394.72" y="294.6" width="525.55" height="0.46" transform="translate(-247.12 -6.95) rotate(-45)"/><rect class="cls-4" x="-382.79" y="294.6" width="525.54" height="0.46" transform="translate(-243.82 1.56) rotate(-45.04)"/><rect class="cls-4" x="-370.87" y="294.6" width="525.55" height="0.46" transform="translate(-240.32 10) rotate(-45.04)"/><rect class="cls-4" x="-358.95" y="294.6" width="525.55" height="0.46" transform="translate(-236.64 18.35) rotate(-45)"/><rect class="cls-4" x="-347.02" y="294.6" width="525.55" height="0.46" transform="translate(-233.32 26.88) rotate(-45.04)"/><rect class="cls-4" x="-335.1" y="294.6" width="525.55" height="0.46" transform="translate(-229.66 35.21) rotate(-45)"/><rect class="cls-4" x="-323.17" y="294.6" width="525.54" height="0.46" transform="translate(-226.33 43.75) rotate(-45.04)"/><rect class="cls-4" x="-311.25" y="294.6" width="525.55" height="0.46" transform="translate(-222.83 52.19) rotate(-45.04)"/><rect class="cls-4" x="-299.32" y="294.6" width="525.54" height="0.46" transform="translate(-219.33 60.63) rotate(-45.04)"/><rect class="cls-4" x="-287.4" y="294.6" width="525.54" height="0.46" transform="translate(-215.82 69.05) rotate(-45.03)"/><rect class="cls-4" x="-275.47" y="294.6" width="525.55" height="0.46" transform="translate(-212.19 77.37) rotate(-45)"/><rect class="cls-4" x="-263.55" y="294.6" width="525.54" height="0.46" transform="translate(-208.7 85.81) rotate(-45)"/><rect class="cls-4" x="-251.62" y="294.6" width="525.55" height="0.46" transform="translate(-205.21 94.24) rotate(-45)"/><rect class="cls-4" x="-239.7" y="294.6" width="525.54" height="0.46" transform="translate(-201.84 102.82) rotate(-45.04)"/><rect class="cls-4" x="-227.77" y="294.6" width="525.54" height="0.46" transform="translate(-198.22 111.1) rotate(-45)"/><rect class="cls-4" x="-215.85" y="294.6" width="525.55" height="0.46" transform="translate(-194.73 119.53) rotate(-45)"/><rect class="cls-4" x="-203.92" y="294.6" width="525.54" height="0.46" transform="translate(-191.24 127.97) rotate(-45)"/><rect class="cls-4" x="-192" y="294.6" width="525.54" height="0.46" transform="translate(-187.85 136.57) rotate(-45.04)"/><rect class="cls-4" x="-180.07" y="294.6" width="525.54" height="0.46" transform="translate(-184.25 144.83) rotate(-45)"/><rect class="cls-4" x="-168.15" y="294.6" width="525.55" height="0.46" transform="translate(-180.85 153.44) rotate(-45.04)"/><rect class="cls-4" x="-156.22" y="294.6" width="525.54" height="0.46" transform="translate(-177.35 161.88) rotate(-45.04)"/><rect class="cls-4" x="-144.3" y="294.6" width="525.55" height="0.46" transform="translate(-173.86 170.32) rotate(-45.04)"/><rect class="cls-4" x="-132.37" y="294.6" width="525.55" height="0.46" transform="translate(-170.28 178.56) rotate(-45)"/><rect class="cls-4" x="-120.45" y="294.6" width="525.54" height="0.46" transform="translate(-166.86 187.19) rotate(-45.04)"/><rect class="cls-4" x="-108.52" y="294.6" width="525.54" height="0.46" transform="translate(-163.3 195.44) rotate(-45)"/><rect class="cls-4" x="-96.6" y="294.6" width="525.54" height="0.46" transform="translate(-159.86 204.07) rotate(-45.04)"/><rect class="cls-4" x="-84.67" y="294.6" width="525.54" height="0.46" transform="translate(-156.36 212.5) rotate(-45.04)"/><rect class="cls-4" x="-72.75" y="294.6" width="525.54" height="0.46" transform="translate(-152.82 220.72) rotate(-45)"/><rect class="cls-4" x="-60.82" y="294.6" width="525.54" height="0.46" transform="translate(-149.33 229.15) rotate(-45)"/><rect class="cls-4" x="-48.9" y="294.6" width="525.55" height="0.46" transform="translate(-145.83 237.58) rotate(-45)"/><rect class="cls-4" x="-36.97" y="294.6" width="525.55" height="0.46" transform="translate(-142.34 246.02) rotate(-45)"/><rect class="cls-4" x="-25.05" y="294.6" width="525.55" height="0.46" transform="translate(-138.85 254.45) rotate(-45)"/><rect class="cls-4" x="-13.12" y="294.6" width="525.55" height="0.46" transform="translate(-135.36 262.91) rotate(-45)"/><rect class="cls-4" x="-1.2" y="294.6" width="525.55" height="0.46" transform="translate(-131.86 271.31) rotate(-45)"/><rect class="cls-4" x="10.73" y="294.6" width="525.55" height="0.46" transform="translate(-128.37 279.75) rotate(-45)"/><rect class="cls-4" x="22.65" y="294.6" width="525.54" height="0.46" transform="translate(-124.88 288.44) rotate(-45.04)"/><rect class="cls-4" x="34.58" y="294.6" width="525.55" height="0.46" transform="translate(-121.38 296.88) rotate(-45.04)"/><rect class="cls-4" x="46.5" y="294.6" width="525.55" height="0.46" transform="translate(-117.89 305.04) rotate(-45)"/><rect class="cls-4" x="58.42" y="294.6" width="525.55" height="0.46" transform="translate(-114.4 313.47) rotate(-45)"/><rect class="cls-4" x="70.35" y="294.6" width="525.55" height="0.46" transform="translate(-110.89 322.19) rotate(-45.04)"/><rect class="cls-4" x="82.27" y="294.6" width="525.54" height="0.46" transform="translate(-107.39 330.63) rotate(-45.04)"/><rect class="cls-4" x="94.2" y="294.6" width="525.55" height="0.46" transform="translate(-103.89 339.07) rotate(-45.04)"/><rect class="cls-4" x="106.12" y="294.6" width="525.55" height="0.46" transform="translate(-100.39 347.5) rotate(-45.04)"/><rect class="cls-4" x="118.05" y="294.6" width="525.54" height="0.46" transform="translate(-96.9 355.94) rotate(-45.04)"/><rect class="cls-4" x="129.97" y="294.6" width="525.55" height="0.46" transform="translate(-93.4 364.38) rotate(-45.04)"/><rect class="cls-4" x="141.9" y="294.6" width="525.55" height="0.46" transform="translate(-89.94 372.53) rotate(-45)"/><rect class="cls-4" x="153.82" y="294.6" width="525.54" height="0.46" transform="translate(-86.4 381.25) rotate(-45.04)"/><rect class="cls-4" x="165.75" y="294.6" width="525.54" height="0.46" transform="translate(-82.91 389.66) rotate(-45.03)"/><rect class="cls-4" x="177.67" y="294.6" width="525.55" height="0.46" transform="translate(-79.41 398.13) rotate(-45.04)"/><rect class="cls-4" x="189.6" y="294.6" width="525.55" height="0.46" transform="translate(-75.98 406.23) rotate(-45)"/><rect class="cls-4" x="201.52" y="294.6" width="525.54" height="0.46" transform="translate(-72.41 415.01) rotate(-45.04)"/><rect class="cls-4" x="213.45" y="294.6" width="525.54" height="0.46" transform="translate(-68.91 423.44) rotate(-45.04)"/></g></g><g class="cls-7"><path class="cls-4" d="M72.7,165.2a1.83,1.83,0,0,1-1.27.37H70.17v-.74h1.35a.62.62,0,0,0,.72-.72v-1a.69.69,0,0,0-.19-.51.71.71,0,0,0-.52-.19h-1v-.74h1a.69.69,0,0,0,.51-.2.66.66,0,0,0,.2-.52v-.8a.7.7,0,0,0-.17-.54.74.74,0,0,0-.54-.17H70.17v-.73h1.14a1.89,1.89,0,0,1,1.26.36,1.46,1.46,0,0,1,.43,1.17v.62a1.29,1.29,0,0,1-.54,1.13,1.28,1.28,0,0,1,.64,1.21V164A1.53,1.53,0,0,1,72.7,165.2Z"/><path class="cls-4" d="M77.42,164.58v1h-1v-1Z"/><path class="cls-4" d="M82,164.83v-5.36l-1.39.51v-.79l1.29-.49h.93v6.13h1.07v.74H80.68v-.74Z"/><path class="cls-4" d="M87.76,165.57V164h-2v-.85l1.05-4.49h.79l-1,4.62h1.18v-2.24h.83v2.24h.74V164h-.74v1.53Z"/><path class="cls-4" d="M92.56,164.83v-5.36l-1.38.51v-.79l1.29-.49h.93v6.13h1.07v.74H91.28v-.74Z"/><path class="cls-4" d="M99.21,165.2a1.86,1.86,0,0,1-1.28.37H96.65v-.74H98a.79.79,0,0,0,.55-.17.74.74,0,0,0,.18-.55v-1.24a.67.67,0,0,0-.72-.71H96.74V158.7h2.71v.73H97.58v2H98a1.77,1.77,0,0,1,1.19.38A1.44,1.44,0,0,1,99.6,163V164A1.57,1.57,0,0,1,99.21,165.2Z"/><path class="cls-4" d="M102.16,159.13a1.52,1.52,0,0,1,1.11-.43h.34a1.5,1.5,0,0,1,1.11.43,1.64,1.64,0,0,1,.44,1.24v3.53a1.67,1.67,0,0,1-.44,1.25,1.83,1.83,0,0,1-1.3.42h-1.13v-.75h1.23a.78.78,0,0,0,.58-.22.68.68,0,0,0,.23-.52V163h-1a1.8,1.8,0,0,1-1.25-.37,1.57,1.57,0,0,1-.4-1.2v-1.07A1.67,1.67,0,0,1,102.16,159.13Zm2,.52a.74.74,0,0,0-.56-.22h-.24a.75.75,0,0,0-.56.22.72.72,0,0,0-.21.53v1.45a.62.62,0,0,0,.19.48.75.75,0,0,0,.53.17h1.06v-2.1A.72.72,0,0,0,104.12,159.65Z"/><path class="cls-4" d="M108.68,162.47c.21-.31.35-.52.42-.65a1.19,1.19,0,0,0,.16-.39,3.71,3.71,0,0,0,0-.56v-.69a.7.7,0,0,0-.23-.52.8.8,0,0,0-.59-.22H107.3v-.74h1.08a1.9,1.9,0,0,1,1.31.41,1.61,1.61,0,0,1,.46,1.26v.41a3.44,3.44,0,0,1-.07.79,2.16,2.16,0,0,1-.2.54,5.41,5.41,0,0,1-.42.66l-1.45,2h2.34v.75h-3.24v-.87Z"/><path class="cls-4" d="M115.33,165.13a1.51,1.51,0,0,1-1.11.44h-.34a1.51,1.51,0,0,1-1.11-.44,1.61,1.61,0,0,1-.44-1.23v-3.53a1.68,1.68,0,0,1,.44-1.26,1.88,1.88,0,0,1,1.3-.41h1.23v.74H114a.78.78,0,0,0-.59.22.7.7,0,0,0-.23.52v1.07h1a1.78,1.78,0,0,1,1.25.37,1.57,1.57,0,0,1,.4,1.2v1.08A1.65,1.65,0,0,1,115.33,165.13Zm-2-.52a.7.7,0,0,0,.56.22h.24a.72.72,0,0,0,.56-.22.72.72,0,0,0,.21-.53v-1.45a.61.61,0,0,0-.18-.47.75.75,0,0,0-.54-.18h-1.06v2.1A.72.72,0,0,0,113.37,164.61Z"/><path class="cls-4" d="M120.4,165.2a1.83,1.83,0,0,1-1.27.37h-1.29v-.74h1.38a.8.8,0,0,0,.55-.17.79.79,0,0,0,.17-.55v-1.24a.69.69,0,0,0-.19-.52.73.73,0,0,0-.52-.19h-1.29V158.7h2.71v.73h-1.88v2h.41a1.72,1.72,0,0,1,1.18.38,1.44,1.44,0,0,1,.44,1.16V164A1.57,1.57,0,0,1,120.4,165.2Z"/><path class="cls-4" d="M125.69,165.2a1.85,1.85,0,0,1-1.27.37h-1.26v-.74h1.34a.77.77,0,0,0,.55-.17.74.74,0,0,0,.18-.55v-1a.66.66,0,0,0-.2-.51.69.69,0,0,0-.52-.19h-1.05v-.74h1a.69.69,0,0,0,.51-.2.7.7,0,0,0,.2-.52v-.8a.7.7,0,0,0-.17-.54.76.76,0,0,0-.54-.17h-1.26v-.73h1.14a1.93,1.93,0,0,1,1.26.36,1.5,1.5,0,0,1,.43,1.17v.62a1.29,1.29,0,0,1-.54,1.13,1.28,1.28,0,0,1,.63,1.21V164A1.57,1.57,0,0,1,125.69,165.2Z"/><path class="cls-4" d="M131,165.2a1.86,1.86,0,0,1-1.28.37h-1.28v-.74h1.37a.79.79,0,0,0,.55-.17.74.74,0,0,0,.18-.55v-1.24a.67.67,0,0,0-.72-.71h-1.28V158.7h2.71v.73h-1.88v2h.4a1.75,1.75,0,0,1,1.19.38,1.44,1.44,0,0,1,.43,1.16V164A1.57,1.57,0,0,1,131,165.2Z"/><path class="cls-4" d="M136.63,165.2a1.83,1.83,0,0,1-1.27.37h-.28a1.83,1.83,0,0,1-1.27-.37,1.57,1.57,0,0,1-.4-1.18v-.83a1.28,1.28,0,0,1,.64-1.21,1.3,1.3,0,0,1-.52-1.13v-.62a1.5,1.5,0,0,1,.41-1.16,1.7,1.7,0,0,1,1.18-.37h.2a1.7,1.7,0,0,1,1.18.37,1.5,1.5,0,0,1,.41,1.16v.62a1.3,1.3,0,0,1-.52,1.13,1.28,1.28,0,0,1,.64,1.21V164A1.57,1.57,0,0,1,136.63,165.2Zm-.65-2.61a.73.73,0,0,0-.52-.19H135a.73.73,0,0,0-.52.19.69.69,0,0,0-.19.51v1a.74.74,0,0,0,.16.54.6.6,0,0,0,.49.18h.53a.8.8,0,0,0,.55-.17.79.79,0,0,0,.17-.55v-1A.69.69,0,0,0,136,162.59Zm-1.45-3a.8.8,0,0,0-.14.53v.8a.72.72,0,0,0,.18.51.64.64,0,0,0,.45.21h.34a.65.65,0,0,0,.5-.2.69.69,0,0,0,.19-.52v-.8a.74.74,0,0,0-.16-.54.72.72,0,0,0-.53-.17H135A.62.62,0,0,0,134.53,159.61Z"/><path class="cls-4" d="M139.25,159.13a1.53,1.53,0,0,1,1.11-.43h.34a1.5,1.5,0,0,1,1.11.43,1.64,1.64,0,0,1,.45,1.24v3.53a1.63,1.63,0,0,1-.45,1.25,1.83,1.83,0,0,1-1.3.42h-1.13v-.75h1.23a.8.8,0,0,0,.59-.22.67.67,0,0,0,.22-.52V163h-1a1.8,1.8,0,0,1-1.25-.37,1.6,1.6,0,0,1-.4-1.2v-1.07A1.67,1.67,0,0,1,139.25,159.13Zm2,.52a.77.77,0,0,0-.56-.22h-.25a.75.75,0,0,0-.56.22.72.72,0,0,0-.2.53v1.45a.65.65,0,0,0,.18.48.77.77,0,0,0,.53.17h1.06v-2.1A.76.76,0,0,0,141.22,159.65Z"/><path class="cls-4" d="M146.56,159.43h-2.37v-.73h3.19v1l-1.73,5.92h-.87Z"/><path class="cls-4" d="M149.85,159.13a1.5,1.5,0,0,1,1.11-.43h.34a1.5,1.5,0,0,1,1.11.43,1.64,1.64,0,0,1,.44,1.24v3.53a1.67,1.67,0,0,1-.44,1.25,1.83,1.83,0,0,1-1.3.42H150v-.75h1.22a.78.78,0,0,0,.59-.22.68.68,0,0,0,.23-.52V163h-1a1.78,1.78,0,0,1-1.25-.37,1.57,1.57,0,0,1-.4-1.2v-1.07A1.67,1.67,0,0,1,149.85,159.13Zm2,.52a.74.74,0,0,0-.56-.22H151a.75.75,0,0,0-.56.22.72.72,0,0,0-.21.53v1.45a.65.65,0,0,0,.18.48.79.79,0,0,0,.54.17H152v-2.1A.72.72,0,0,0,151.81,159.65Z"/><path class="cls-4" d="M157.48,165.2a1.83,1.83,0,0,1-1.27.37H155v-.74h1.35a.62.62,0,0,0,.72-.72v-1a.69.69,0,0,0-.19-.51.71.71,0,0,0-.52-.19h-1.05v-.74h1a.69.69,0,0,0,.51-.2.67.67,0,0,0,.21-.52v-.8a.7.7,0,0,0-.18-.54.74.74,0,0,0-.54-.17H155v-.73h1.14a1.89,1.89,0,0,1,1.26.36,1.46,1.46,0,0,1,.43,1.17v.62a1.29,1.29,0,0,1-.54,1.13,1.28,1.28,0,0,1,.64,1.21V164A1.53,1.53,0,0,1,157.48,165.2Z"/><path class="cls-4" d="M161.66,162.47c.21-.31.36-.52.43-.65a1,1,0,0,0,.15-.39,2.73,2.73,0,0,0,0-.56v-.69a.69.69,0,0,0-.22-.52.8.8,0,0,0-.59-.22h-1.18v-.74h1.08a1.9,1.9,0,0,1,1.31.41,1.65,1.65,0,0,1,.46,1.26v.41a4.12,4.12,0,0,1-.07.79,2.16,2.16,0,0,1-.2.54,5.41,5.41,0,0,1-.42.66l-1.45,2h2.33v.75h-3.24v-.87Z"/><path class="cls-4" d="M168.08,165.2a1.83,1.83,0,0,1-1.27.37h-1.26v-.74h1.34a.77.77,0,0,0,.55-.17.74.74,0,0,0,.18-.55v-1a.66.66,0,0,0-.2-.51.69.69,0,0,0-.52-.19h-1.05v-.74h1a.69.69,0,0,0,.51-.2.7.7,0,0,0,.2-.52v-.8a.7.7,0,0,0-.17-.54.74.74,0,0,0-.54-.17h-1.26v-.73h1.14a1.91,1.91,0,0,1,1.26.36,1.5,1.5,0,0,1,.43,1.17v.62a1.29,1.29,0,0,1-.54,1.13,1.28,1.28,0,0,1,.63,1.21V164A1.57,1.57,0,0,1,168.08,165.2Z"/><path class="cls-4" d="M173.72,165.2a1.83,1.83,0,0,1-1.27.37h-.28a1.85,1.85,0,0,1-1.27-.37,1.57,1.57,0,0,1-.39-1.18v-.83a1.28,1.28,0,0,1,.63-1.21,1.3,1.3,0,0,1-.52-1.13v-.62a1.47,1.47,0,0,1,.42-1.16,1.66,1.66,0,0,1,1.17-.37h.2a1.7,1.7,0,0,1,1.18.37,1.5,1.5,0,0,1,.41,1.16v.62a1.27,1.27,0,0,1-.52,1.13,1.28,1.28,0,0,1,.64,1.21V164A1.53,1.53,0,0,1,173.72,165.2Zm-.65-2.61a.71.71,0,0,0-.52-.19h-.47a.69.69,0,0,0-.52.19.66.66,0,0,0-.2.51v1a.74.74,0,0,0,.16.54.6.6,0,0,0,.49.18h.53a.62.62,0,0,0,.72-.72v-1A.69.69,0,0,0,173.07,162.59Zm-1.45-3a.8.8,0,0,0-.14.53v.8a.72.72,0,0,0,.18.51.64.64,0,0,0,.46.21h.33a.65.65,0,0,0,.5-.2.7.7,0,0,0,.2-.52v-.8a.74.74,0,0,0-.17-.54.7.7,0,0,0-.53-.17h-.35A.63.63,0,0,0,171.62,159.61Z"/><path class="cls-4" d="M177.84,165.57V164h-2v-.85l1.05-4.49h.8l-1,4.62h1.18v-2.24h.83v2.24h.74V164h-.74v1.53Z"/><path class="cls-4" d="M184.21,165.13a1.5,1.5,0,0,1-1.1.44h-.35a1.54,1.54,0,0,1-1.11-.44,1.65,1.65,0,0,1-.44-1.23v-3.53a1.64,1.64,0,0,1,.45-1.26,1.88,1.88,0,0,1,1.3-.41h1.22v.74h-1.32a.8.8,0,0,0-.59.22.69.69,0,0,0-.22.52v1.07h1a1.75,1.75,0,0,1,1.24.37,1.57,1.57,0,0,1,.41,1.2v1.08A1.62,1.62,0,0,1,184.21,165.13Zm-2-.52a.73.73,0,0,0,.56.22h.25a.73.73,0,0,0,.56-.22.76.76,0,0,0,.2-.53v-1.45a.61.61,0,0,0-.18-.47.72.72,0,0,0-.53-.18h-1.06v2.1A.72.72,0,0,0,182.25,164.61Z"/><path class="cls-4" d="M188.16,162.47l.43-.65a1.43,1.43,0,0,0,.15-.39,3.71,3.71,0,0,0,0-.56v-.69a.7.7,0,0,0-.23-.52.8.8,0,0,0-.59-.22h-1.18v-.74h1.08a1.9,1.9,0,0,1,1.31.41,1.61,1.61,0,0,1,.46,1.26v.41a3.44,3.44,0,0,1-.07.79,2.15,2.15,0,0,1-.19.54,7.58,7.58,0,0,1-.43.66l-1.45,2h2.34v.75h-3.24v-.87Z"/><path class="cls-4" d="M194.81,165.13a1.51,1.51,0,0,1-1.11.44h-.34a1.51,1.51,0,0,1-1.11-.44,1.65,1.65,0,0,1-.44-1.23v-3.53a1.64,1.64,0,0,1,.45-1.26,1.86,1.86,0,0,1,1.3-.41h1.22v.74h-1.32a.8.8,0,0,0-.59.22.7.7,0,0,0-.23.52v1.07h1a1.78,1.78,0,0,1,1.25.37,1.57,1.57,0,0,1,.4,1.2v1.08A1.61,1.61,0,0,1,194.81,165.13Zm-2-.52a.72.72,0,0,0,.56.22h.24a.7.7,0,0,0,.56-.22.72.72,0,0,0,.21-.53v-1.45a.61.61,0,0,0-.18-.47.73.73,0,0,0-.54-.18h-1.06v2.1A.72.72,0,0,0,192.85,164.61Z"/><path class="cls-4" d="M199,165.57V164h-2v-.85l1.05-4.49h.79l-1,4.62H199v-2.24h.84v2.24h.73V164h-.73v1.53Z"/><path class="cls-4" d="M205.17,165.2a1.83,1.83,0,0,1-1.27.37h-1.26v-.74H204a.8.8,0,0,0,.55-.17.79.79,0,0,0,.17-.55v-1a.69.69,0,0,0-.19-.51.71.71,0,0,0-.52-.19H203v-.74h1a.69.69,0,0,0,.51-.2.66.66,0,0,0,.2-.52v-.8a.7.7,0,0,0-.17-.54.74.74,0,0,0-.54-.17h-1.26v-.73h1.14a1.89,1.89,0,0,1,1.26.36,1.46,1.46,0,0,1,.43,1.17v.62a1.29,1.29,0,0,1-.54,1.13,1.28,1.28,0,0,1,.64,1.21V164A1.57,1.57,0,0,1,205.17,165.2Z"/></g><path class="cls-2" d="M515.39,189a10.37,10.37,0,1,1,10.36-10.37A10.38,10.38,0,0,1,515.39,189Zm0-19.9a9.53,9.53,0,1,0,9.53,9.53A9.54,9.54,0,0,0,515.39,169.11Z"/><rect class="cls-2" x="37.28" y="115.09" width="2.3" height="7.9"/><path class="cls-2" d="M49.89,123.1H42.62a.42.42,0,0,1-.42-.42v-7.27a.42.42,0,0,1,.42-.42h7.27a.42.42,0,0,1,.42.42v7.27A.42.42,0,0,1,49.89,123.1ZM43,122.26h6.43v-6.43H43Z"/><path class="cls-2" d="M46.25,115.83a.41.41,0,0,1-.41-.42V26a.42.42,0,1,1,.83,0v89.41A.42.42,0,0,1,46.25,115.83Z"/><rect class="cls-8" x="58.84" y="115.09" width="2.3" height="7.9"/><rect class="cls-9" x="63.55" y="115.09" width="2.3" height="7.9"/><rect class="cls-10" x="68.26" y="115.09" width="2.3" height="7.9"/><rect class="cls-11" x="72.97" y="115.09" width="2.3" height="7.9"/><rect class="cls-4" x="77.68" y="115.09" width="2.3" height="7.9"/><path class="cls-4" d="M90.29,123.1H83a.42.42,0,0,1-.42-.42v-7.27A.42.42,0,0,1,83,115h7.27a.42.42,0,0,1,.42.42v7.27A.42.42,0,0,1,90.29,123.1Zm-6.85-.84h6.43v-6.43H83.44Z"/><path class="cls-4" d="M86.66,115.83a.42.42,0,0,1-.42-.42V26a.42.42,0,1,1,.83,0v89.41A.41.41,0,0,1,86.66,115.83Z"/><path class="cls-4" d="M101.38,123.1H94.11a.42.42,0,0,1-.42-.42v-7.27a.42.42,0,0,1,.42-.42h7.27a.42.42,0,0,1,.42.42v7.27A.42.42,0,0,1,101.38,123.1Zm-6.85-.84H101v-6.43H94.53Z"/><path class="cls-4" d="M97.75,115.83a.42.42,0,0,1-.42-.42V26a.42.42,0,0,1,.84,0v89.41A.42.42,0,0,1,97.75,115.83Z"/><g class="cls-12"><path class="cls-4" d="M110.44,122.68v-1.53h-2v-.84l1-4.5h.79l-1,4.62h1.18V118.2h.83v2.23H112v.72h-.74v1.53Z"/><path class="cls-4" d="M116.93,122.31a1.83,1.83,0,0,1-1.28.37h-.27a1.81,1.81,0,0,1-1.28-.37,1.55,1.55,0,0,1-.39-1.18v-.82a1.26,1.26,0,0,1,.64-1.21,1.28,1.28,0,0,1-.52-1.14v-.62a1.48,1.48,0,0,1,.41-1.16,1.74,1.74,0,0,1,1.18-.37h.19a1.75,1.75,0,0,1,1.18.37,1.52,1.52,0,0,1,.41,1.16V118a1.28,1.28,0,0,1-.52,1.14,1.26,1.26,0,0,1,.64,1.21v.82A1.55,1.55,0,0,1,116.93,122.31Zm-.66-2.61a.71.71,0,0,0-.52-.19h-.47a.67.67,0,0,0-.72.71v1a.77.77,0,0,0,.16.54.61.61,0,0,0,.49.17h.53a.74.74,0,0,0,.55-.17.7.7,0,0,0,.18-.54v-1A.7.7,0,0,0,116.27,119.7Zm-1.45-3a.83.83,0,0,0-.14.52v.81a.68.68,0,0,0,.18.5.69.69,0,0,0,.46.22h.33a.69.69,0,0,0,.5-.2.72.72,0,0,0,.2-.52v-.81a.83.83,0,0,0-.16-.54.74.74,0,0,0-.54-.16h-.35A.58.58,0,0,0,114.82,116.73Z"/><path class="cls-4" d="M122.23,122.31a1.83,1.83,0,0,1-1.28.37h-.27a1.81,1.81,0,0,1-1.28-.37,1.55,1.55,0,0,1-.39-1.18v-.82a1.27,1.27,0,0,1,.63-1.21,1.3,1.3,0,0,1-.52-1.14v-.62a1.48,1.48,0,0,1,.42-1.16,1.71,1.71,0,0,1,1.17-.37h.2a1.75,1.75,0,0,1,1.18.37,1.52,1.52,0,0,1,.41,1.16V118a1.28,1.28,0,0,1-.52,1.14,1.26,1.26,0,0,1,.64,1.21v.82A1.55,1.55,0,0,1,122.23,122.31Zm-.66-2.61a.71.71,0,0,0-.52-.19h-.47a.67.67,0,0,0-.72.71v1a.77.77,0,0,0,.16.54.61.61,0,0,0,.49.17H121a.74.74,0,0,0,.55-.17.7.7,0,0,0,.17-.54v-1A.69.69,0,0,0,121.57,119.7Zm-1.45-3a.83.83,0,0,0-.14.52v.81a.68.68,0,0,0,.18.5.69.69,0,0,0,.46.22H121a.69.69,0,0,0,.5-.2.72.72,0,0,0,.2-.52v-.81a.78.78,0,0,0-.17-.54.7.7,0,0,0-.53-.16h-.35A.58.58,0,0,0,120.12,116.73Z"/><path class="cls-4" d="M124.85,116.24a1.53,1.53,0,0,1,1.1-.43h.35a1.57,1.57,0,0,1,1.11.43,1.67,1.67,0,0,1,.44,1.24V121a1.6,1.6,0,0,1-.45,1.25,1.83,1.83,0,0,1-1.3.42H125v-.75h1.23a.84.84,0,0,0,.59-.21.69.69,0,0,0,.22-.52v-1.07h-1a1.75,1.75,0,0,1-1.24-.37,1.57,1.57,0,0,1-.41-1.2v-1.08A1.64,1.64,0,0,1,124.85,116.24Zm2,.52a.76.76,0,0,0-.56-.21H126a.76.76,0,0,0-.56.21.78.78,0,0,0-.2.53v1.46a.61.61,0,0,0,.18.47.72.72,0,0,0,.53.17H127v-2.1A.78.78,0,0,0,126.81,116.76Z"/><path class="cls-4" d="M132.49,122.31a1.81,1.81,0,0,1-1.28.37h-1.28v-.74h1.37a.74.74,0,0,0,.55-.17.7.7,0,0,0,.18-.54V120a.68.68,0,0,0-.2-.51.69.69,0,0,0-.52-.19H130v-3.47h2.7v.74h-1.87v2h.4a1.75,1.75,0,0,1,1.19.37,1.45,1.45,0,0,1,.43,1.16v1.06A1.55,1.55,0,0,1,132.49,122.31Z"/><path class="cls-4" d="M138,122.25a1.5,1.5,0,0,1-1.11.43h-.34a1.53,1.53,0,0,1-1.11-.43A1.67,1.67,0,0,1,135,121v-3.53a1.62,1.62,0,0,1,.45-1.25,1.83,1.83,0,0,1,1.3-.42H138v.75h-1.32a.84.84,0,0,0-.59.21.7.7,0,0,0-.22.52v1.07h1a1.77,1.77,0,0,1,1.24.38,1.53,1.53,0,0,1,.41,1.19V121A1.64,1.64,0,0,1,138,122.25Zm-2-.52a.75.75,0,0,0,.56.21h.25a.76.76,0,0,0,.56-.21.78.78,0,0,0,.2-.53v-1.45a.63.63,0,0,0-.18-.48.78.78,0,0,0-.54-.17h-1.05v2.1A.73.73,0,0,0,136.05,121.73Z"/><path class="cls-4" d="M141.74,121.94v-5.35l-1.38.51v-.8l1.28-.49h.94v6.13h1.07v.74h-3.19v-.74Z"/><path class="cls-4" d="M148.61,122.25a1.5,1.5,0,0,1-1.11.43h-.34a1.5,1.5,0,0,1-1.11-.43,1.67,1.67,0,0,1-.44-1.24v-3.53a1.62,1.62,0,0,1,.45-1.25,1.81,1.81,0,0,1,1.3-.42h1.22v.75h-1.32a.84.84,0,0,0-.59.21.71.71,0,0,0-.23.52v1.07h1a1.78,1.78,0,0,1,1.25.38,1.53,1.53,0,0,1,.4,1.19V121A1.64,1.64,0,0,1,148.61,122.25Zm-2-.52a.75.75,0,0,0,.56.21h.24a.73.73,0,0,0,.56-.21.74.74,0,0,0,.21-.53v-1.45a.63.63,0,0,0-.18-.48.78.78,0,0,0-.54-.17h-1.06v2.1A.74.74,0,0,0,146.65,121.73Z"/></g><rect class="cls-4" x="152.98" y="115.09" width="2.3" height="7.9"/><path class="cls-4" d="M165.59,123.1h-7.27a.42.42,0,0,1-.42-.42v-7.27a.42.42,0,0,1,.42-.42h7.27a.42.42,0,0,1,.42.42v7.27A.42.42,0,0,1,165.59,123.1Zm-6.85-.84h6.43v-6.43h-6.43Z"/><path class="cls-4" d="M162,115.83a.42.42,0,0,1-.42-.42V26a.42.42,0,1,1,.83,0v89.41A.41.41,0,0,1,162,115.83Z"/><rect class="cls-8" x="174.54" y="115.09" width="2.3" height="7.9"/><rect class="cls-9" x="179.25" y="115.09" width="2.3" height="7.9"/><rect class="cls-10" x="183.96" y="115.09" width="2.3" height="7.9"/><rect class="cls-11" x="188.67" y="115.09" width="2.3" height="7.9"/><rect class="cls-4" x="193.38" y="115.09" width="2.3" height="7.9"/><path class="cls-4" d="M206,123.1h-7.27a.41.41,0,0,1-.41-.42v-7.27a.41.41,0,0,1,.41-.42H206a.42.42,0,0,1,.42.42v7.27A.42.42,0,0,1,206,123.1Zm-6.85-.84h6.43v-6.43h-6.43Z"/><path class="cls-4" d="M202.36,115.83a.42.42,0,0,1-.42-.42V26a.42.42,0,1,1,.84,0v89.41A.42.42,0,0,1,202.36,115.83Z"/><path class="cls-4" d="M303,123.1h-7.27a.42.42,0,0,1-.42-.42v-7.27a.42.42,0,0,1,.42-.42H303a.42.42,0,0,1,.42.42v7.27A.42.42,0,0,1,303,123.1Zm-6.85-.84h6.43v-6.43h-6.43Z"/><path class="cls-4" d="M299.41,115.83a.42.42,0,0,1-.42-.42V26a.42.42,0,0,1,.84,0v89.41A.42.42,0,0,1,299.41,115.83Z"/><path class="cls-2" d="M316,123.1h-7.27a.42.42,0,0,1-.42-.42v-7.27a.42.42,0,0,1,.42-.42H316a.42.42,0,0,1,.42.42v7.27A.42.42,0,0,1,316,123.1Zm-6.85-.84h6.43v-6.43h-6.43Z"/><path class="cls-2" d="M312.34,115.83a.41.41,0,0,1-.41-.42V26a.42.42,0,1,1,.83,0v89.41A.42.42,0,0,1,312.34,115.83Z"/><rect class="cls-2" x="319" y="115.09" width="2.3" height="7.9"/><path class="cls-2" d="M331.61,123.1h-7.27a.42.42,0,0,1-.42-.42v-7.27a.42.42,0,0,1,.42-.42h7.27a.42.42,0,0,1,.42.42v7.27A.42.42,0,0,1,331.61,123.1Zm-6.85-.84h6.43v-6.43h-6.43Z"/><path class="cls-2" d="M328,115.83a.41.41,0,0,1-.41-.42V26a.42.42,0,1,1,.83,0v89.41A.42.42,0,0,1,328,115.83Z"/><rect class="cls-13" x="334.88" y="115.09" width="2.3" height="7.9"/><rect class="cls-14" x="339.59" y="115.09" width="2.3" height="7.9"/><rect class="cls-15" x="344.3" y="115.09" width="2.3" height="7.9"/><rect class="cls-16" x="349.01" y="115.09" width="2.3" height="7.9"/><rect class="cls-2" x="353.72" y="115.09" width="2.3" height="7.9"/><g class="cls-12"><path class="cls-2" d="M411.07,122.31a1.79,1.79,0,0,1-1.27.37h-.28a1.79,1.79,0,0,1-1.27-.37,1.55,1.55,0,0,1-.4-1.18v-.82a1.27,1.27,0,0,1,.64-1.21A1.3,1.3,0,0,1,408,118v-.62a1.52,1.52,0,0,1,.41-1.16,1.75,1.75,0,0,1,1.18-.37h.2a1.75,1.75,0,0,1,1.18.37,1.52,1.52,0,0,1,.41,1.16V118a1.3,1.3,0,0,1-.52,1.14,1.27,1.27,0,0,1,.64,1.21v.82A1.52,1.52,0,0,1,411.07,122.31Zm-.65-2.61a.71.71,0,0,0-.52-.19h-.48a.73.73,0,0,0-.52.19.69.69,0,0,0-.19.52v1a.77.77,0,0,0,.16.54.6.6,0,0,0,.49.17h.53a.76.76,0,0,0,.55-.17.74.74,0,0,0,.17-.54v-1A.69.69,0,0,0,410.42,119.7Zm-1.45-3a.77.77,0,0,0-.14.52v.81a.68.68,0,0,0,.18.5.69.69,0,0,0,.45.22h.34a.69.69,0,0,0,.5-.2.71.71,0,0,0,.19-.52v-.81a.77.77,0,0,0-.16-.54.72.72,0,0,0-.53-.16h-.36A.56.56,0,0,0,409,116.73Z"/><path class="cls-2" d="M413.69,116.24a1.57,1.57,0,0,1,1.11-.43h.35a1.53,1.53,0,0,1,1.1.43,1.64,1.64,0,0,1,.45,1.24V121a1.6,1.6,0,0,1-.45,1.25,1.83,1.83,0,0,1-1.3.42h-1.13v-.75h1.23a.84.84,0,0,0,.59-.21.69.69,0,0,0,.22-.52v-1.07h-1a1.8,1.8,0,0,1-1.25-.37,1.6,1.6,0,0,1-.4-1.2v-1.08A1.67,1.67,0,0,1,413.69,116.24Zm2,.52a.76.76,0,0,0-.56-.21h-.25a.76.76,0,0,0-.56.21.73.73,0,0,0-.2.53v1.46a.61.61,0,0,0,.18.47.72.72,0,0,0,.53.17h1.06v-2.1A.78.78,0,0,0,415.66,116.76Z"/><path class="cls-2" d="M421.67,122.31a1.8,1.8,0,0,1-1.27.37h-.28a1.83,1.83,0,0,1-1.28-.37,1.55,1.55,0,0,1-.39-1.18v-.82a1.26,1.26,0,0,1,.64-1.21,1.28,1.28,0,0,1-.52-1.14v-.62a1.52,1.52,0,0,1,.41-1.16,1.75,1.75,0,0,1,1.18-.37h.2a1.71,1.71,0,0,1,1.17.37,1.48,1.48,0,0,1,.42,1.16V118a1.3,1.3,0,0,1-.52,1.14,1.27,1.27,0,0,1,.63,1.21v.82A1.55,1.55,0,0,1,421.67,122.31ZM421,119.7a.69.69,0,0,0-.52-.19H420a.71.71,0,0,0-.52.19.69.69,0,0,0-.19.52v1a.83.83,0,0,0,.15.54.62.62,0,0,0,.49.17h.53a.73.73,0,0,0,.55-.17.7.7,0,0,0,.18-.54v-1A.7.7,0,0,0,421,119.7Zm-1.44-3a.77.77,0,0,0-.15.52v.81a.65.65,0,0,0,.19.5.69.69,0,0,0,.45.22h.34a.7.7,0,0,0,.5-.2.71.71,0,0,0,.19-.52v-.81a.77.77,0,0,0-.16-.54.73.73,0,0,0-.53-.16H420A.56.56,0,0,0,419.57,116.73Z"/><path class="cls-2" d="M424.29,116.24a1.56,1.56,0,0,1,1.11-.43h.34a1.54,1.54,0,0,1,1.11.43,1.64,1.64,0,0,1,.44,1.24V121a1.64,1.64,0,0,1-.44,1.25,1.83,1.83,0,0,1-1.3.42h-1.13v-.75h1.23a.81.81,0,0,0,.58-.21.7.7,0,0,0,.23-.52v-1.07h-1a1.8,1.8,0,0,1-1.25-.37,1.57,1.57,0,0,1-.4-1.2v-1.08A1.67,1.67,0,0,1,424.29,116.24Zm2,.52a.73.73,0,0,0-.56-.21h-.24a.72.72,0,0,0-.77.74v1.46a.61.61,0,0,0,.18.47.75.75,0,0,0,.54.17h1.06v-2.1A.74.74,0,0,0,426.25,116.76Z"/><path class="cls-2" d="M431.93,122.31a1.79,1.79,0,0,1-1.27.37h-1.29v-.74h1.38a.74.74,0,0,0,.55-.17.7.7,0,0,0,.17-.54V120a.67.67,0,0,0-.19-.51.71.71,0,0,0-.52-.19h-1.29v-3.47h2.71v.74h-1.87v2h.4a1.77,1.77,0,0,1,1.19.37,1.49,1.49,0,0,1,.43,1.16v1.06A1.52,1.52,0,0,1,431.93,122.31Z"/><path class="cls-2" d="M437.46,122.25a1.52,1.52,0,0,1-1.11.43H436a1.5,1.5,0,0,1-1.11-.43,1.64,1.64,0,0,1-.44-1.24v-3.53a1.65,1.65,0,0,1,.44-1.25,1.83,1.83,0,0,1,1.3-.42h1.23v.75h-1.32a.82.82,0,0,0-.59.21.71.71,0,0,0-.23.52v1.07h1a1.78,1.78,0,0,1,1.25.38,1.53,1.53,0,0,1,.4,1.19V121A1.67,1.67,0,0,1,437.46,122.25Zm-2-.52a.73.73,0,0,0,.56.21h.24a.72.72,0,0,0,.77-.74v-1.45a.63.63,0,0,0-.18-.48.79.79,0,0,0-.54-.17h-1.06v2.1A.74.74,0,0,0,435.5,121.73Z"/><path class="cls-2" d="M441.19,121.94v-5.35l-1.39.51v-.8l1.29-.49H442v6.13h1.07v.74H439.9v-.74Z"/><path class="cls-2" d="M448.06,122.25a1.53,1.53,0,0,1-1.11.43h-.35a1.49,1.49,0,0,1-1.1-.43,1.64,1.64,0,0,1-.45-1.24v-3.53a1.62,1.62,0,0,1,.45-1.25,1.83,1.83,0,0,1,1.3-.42H448v.75H446.7a.84.84,0,0,0-.59.21.7.7,0,0,0-.22.52v1.07h1a1.8,1.8,0,0,1,1.25.38,1.56,1.56,0,0,1,.4,1.19V121A1.67,1.67,0,0,1,448.06,122.25Zm-2-.52a.76.76,0,0,0,.56.21h.25a.76.76,0,0,0,.56-.21.73.73,0,0,0,.2-.53v-1.45a.63.63,0,0,0-.18-.48.77.77,0,0,0-.53-.17h-1.06v2.1A.78.78,0,0,0,446.09,121.73Z"/></g><rect class="cls-2" x="452.42" y="115.09" width="2.3" height="7.9"/><path class="cls-2" d="M465,123.1h-7.27a.42.42,0,0,1-.42-.42v-7.27a.42.42,0,0,1,.42-.42H465a.42.42,0,0,1,.42.42v7.27A.42.42,0,0,1,465,123.1Zm-6.85-.84h6.43v-6.43h-6.43Z"/><path class="cls-2" d="M461.4,115.83a.42.42,0,0,1-.42-.42V26a.42.42,0,1,1,.84,0v89.41A.42.42,0,0,1,461.4,115.83Z"/><rect class="cls-13" x="473.99" y="115.09" width="2.3" height="7.9"/><rect class="cls-14" x="478.7" y="115.09" width="2.3" height="7.9"/><rect class="cls-15" x="483.41" y="115.09" width="2.3" height="7.9"/><rect class="cls-16" x="488.12" y="115.09" width="2.3" height="7.9"/><rect class="cls-2" x="492.83" y="115.09" width="2.3" height="7.9"/><path class="cls-2" d="M505.44,123.1h-7.27a.42.42,0,0,1-.42-.42v-7.27a.42.42,0,0,1,.42-.42h7.27a.42.42,0,0,1,.42.42v7.27A.42.42,0,0,1,505.44,123.1Zm-6.85-.84H505v-6.43h-6.43Z"/><path class="cls-2" d="M501.8,115.83a.42.42,0,0,1-.42-.42V26a.42.42,0,0,1,.84,0v89.41A.42.42,0,0,1,501.8,115.83Z"/><path class="cls-2" d="M565.83,80.59A1.88,1.88,0,1,0,564,78.72,1.88,1.88,0,0,0,565.83,80.59Z"/><path class="cls-2" d="M565.83,83.86A5.15,5.15,0,1,1,571,78.72,5.15,5.15,0,0,1,565.83,83.86Zm0-10.08a4.94,4.94,0,1,0,4.93,4.94A4.94,4.94,0,0,0,565.83,73.78Z"/><path class="cls-2" d="M592.12,56.58a.41.41,0,0,1-.42-.42V49.91a.42.42,0,0,1,.83,0v6.25A.41.41,0,0,1,592.12,56.58Z"/><path class="cls-2" d="M595.24,53.46H589a.42.42,0,0,1,0-.84h6.25a.42.42,0,1,1,0,.84Z"/><path class="cls-4" d="M592.12,108.32a.23.23,0,0,1-.23-.23v-6.25a.23.23,0,0,1,.23-.23.23.23,0,0,1,.23.23v6.25A.24.24,0,0,1,592.12,108.32Z"/><path class="cls-4" d="M595.24,105.19H589a.23.23,0,0,1-.23-.23.23.23,0,0,1,.23-.23h6.25a.23.23,0,0,1,.23.23A.23.23,0,0,1,595.24,105.19Z"/><path class="cls-2" d="M569,101.73a2,2,0,1,1,2-2A2,2,0,0,1,569,101.73ZM569,98a1.77,1.77,0,1,0,1.77,1.77A1.77,1.77,0,0,0,569,98Z"/><path class="cls-2" d="M569,100.48a.73.73,0,1,0-.73-.73A.73.73,0,0,0,569,100.48Z"/><path class="cls-2" d="M562.27,101.73a2,2,0,1,1,2-2A2,2,0,0,1,562.27,101.73Zm0-3.75A1.77,1.77,0,1,0,564,99.75,1.77,1.77,0,0,0,562.27,98Z"/><path class="cls-2" d="M562.27,100.48a.73.73,0,1,0-.73-.73A.73.73,0,0,0,562.27,100.48Z"/><path class="cls-2" d="M569,109.33a2,2,0,1,1,2-2A2,2,0,0,1,569,109.33Zm0-3.75a1.77,1.77,0,1,0,1.77,1.77A1.77,1.77,0,0,0,569,105.58Z"/><path class="cls-2" d="M569,108.08a.73.73,0,1,0-.73-.73A.73.73,0,0,0,569,108.08Z"/><path class="cls-2" d="M562.27,109.33a2,2,0,1,1,2-2A2,2,0,0,1,562.27,109.33Zm0-3.75a1.77,1.77,0,1,0,1.77,1.77A1.77,1.77,0,0,0,562.27,105.58Z"/><path class="cls-2" d="M562.27,108.08a.73.73,0,1,0-.73-.73A.73.73,0,0,0,562.27,108.08Z"/></svg>