<svg id="Layer_1" data-name="Layer 1" xmlns="http://www.w3.org/2000/svg" xmlns:xlink="http://www.w3.org/1999/xlink" viewBox="0 0 340.52 189.01"><defs><style>.cls-1{fill:none;}.cls-2,.cls-5,.cls-6,.cls-7,.cls-8{fill:#e57c83;}.cls-3,.cls-6{opacity:0.4;}.cls-4{fill:#575756;}.cls-11,.cls-5{opacity:0.2;}.cls-10,.cls-7{opacity:0.6;}.cls-8,.cls-9{opacity:0.8;}.cls-12{clip-path:url(#clip-path);}.cls-13{clip-path:url(#clip-path-2);}</style><clipPath id="clip-path"><rect class="cls-1" x="55.46" y="24.2" width="35.99" height="35.99"/></clipPath><clipPath id="clip-path-2"><rect class="cls-1" x="260.69" y="108.19" width="35.99" height="35.99"/></clipPath></defs><path class="cls-2" d="M6.92,168.18a2.52,2.52,0,1,0-2.52,2.53A2.52,2.52,0,0,0,6.92,168.18Z"/><path class="cls-2" d="M4.4,168.65a.47.47,0,0,1-.47-.47V70.09a.47.47,0,0,1,.94,0v98.09A.47.47,0,0,1,4.4,168.65Z"/><path class="cls-2" d="M4.4,70.6a4.4,4.4,0,1,1,4.4-4.4A4.41,4.41,0,0,1,4.4,70.6Zm0-7.87A3.47,3.47,0,1,0,7.86,66.2,3.47,3.47,0,0,0,4.4,62.73Z"/><path class="cls-2" d="M4.4,62.46A.47.47,0,0,1,3.93,62V16.24a.45.45,0,0,1,.14-.33L19.84.14A.47.47,0,0,1,20.17,0H151.33a.46.46,0,0,1,.46.47.46.46,0,0,1-.46.47h-131L4.87,16.43V62A.47.47,0,0,1,4.4,62.46Z"/><g class="cls-3"><path class="cls-4" d="M337.49,6.67H144.72a.94.94,0,1,1,0-1.87H337.49a.94.94,0,0,1,0,1.87Z"/></g><rect class="cls-5" x="14.65" y="9.97" width="1.9" height="6.53"/><rect class="cls-6" x="18.54" y="9.97" width="1.9" height="6.53"/><rect class="cls-7" x="22.42" y="9.97" width="1.9" height="6.53"/><rect class="cls-8" x="26.31" y="9.97" width="1.9" height="6.53"/><rect class="cls-2" x="30.2" y="9.97" width="1.9" height="6.53"/><path class="cls-4" d="M40.61,16.71h-6a.47.47,0,0,1-.47-.47v-6a.47.47,0,0,1,.47-.47h6a.47.47,0,0,1,.47.47v6A.47.47,0,0,1,40.61,16.71Zm-5.53-.94h5.07V10.7H35.08Z"/><g class="cls-9"><path class="cls-4" d="M49.77,16.71h-6a.47.47,0,0,1-.47-.47v-6a.47.47,0,0,1,.47-.47h6a.47.47,0,0,1,.47.47v6A.47.47,0,0,1,49.77,16.71Zm-5.53-.94H49.3V10.7H44.24Z"/></g><g class="cls-10"><path class="cls-4" d="M58.93,16.71h-6a.47.47,0,0,1-.47-.47v-6a.47.47,0,0,1,.47-.47h6a.47.47,0,0,1,.47.47v6A.47.47,0,0,1,58.93,16.71Zm-5.54-.94h5.07V10.7H53.39Z"/></g><g class="cls-3"><path class="cls-2" d="M68.08,16.71h-6a.47.47,0,0,1-.46-.47v-6a.47.47,0,0,1,.46-.47h6a.47.47,0,0,1,.47.47v6A.47.47,0,0,1,68.08,16.71Zm-5.53-.94h5.07V10.7H62.55Z"/></g><g class="cls-11"><path class="cls-2" d="M77.24,16.71h-6a.47.47,0,0,1-.47-.47v-6a.47.47,0,0,1,.47-.47h6a.47.47,0,0,1,.47.47v6A.47.47,0,0,1,77.24,16.71Zm-5.53-.94h5.06V10.7H71.71Z"/></g><g class="cls-11"><path class="cls-2" d="M86.92,16.71h-6a.46.46,0,0,1-.46-.47v-6a.46.46,0,0,1,.46-.47h6a.47.47,0,0,1,.47.47v6A.47.47,0,0,1,86.92,16.71Zm-5.53-.94h5.07V10.71H81.39Z"/></g><g class="cls-3"><path class="cls-2" d="M96.08,16.71h-6a.47.47,0,0,1-.47-.47v-6a.47.47,0,0,1,.47-.47h6a.47.47,0,0,1,.47.47v6A.47.47,0,0,1,96.08,16.71Zm-5.53-.94h5.06V10.71H90.55Z"/></g><g class="cls-10"><path class="cls-4" d="M105.24,16.71h-6a.47.47,0,0,1-.47-.47v-6a.47.47,0,0,1,.47-.47h6a.46.46,0,0,1,.46.47v6A.46.46,0,0,1,105.24,16.71Zm-5.54-.94h5.07V10.71H99.7Z"/></g><g class="cls-9"><path class="cls-4" d="M114.39,16.71h-6a.47.47,0,0,1-.47-.47v-6a.47.47,0,0,1,.47-.47h6a.47.47,0,0,1,.47.47v6A.47.47,0,0,1,114.39,16.71Zm-5.53-.94h5.07V10.71h-5.07Z"/></g><path class="cls-4" d="M123.55,16.71h-6a.47.47,0,0,1-.47-.47v-6a.47.47,0,0,1,.47-.47h6a.47.47,0,0,1,.47.47v6A.47.47,0,0,1,123.55,16.71ZM118,15.77h5.06V10.71H118Z"/><rect class="cls-2" x="126.06" y="9.97" width="1.9" height="6.53"/><rect class="cls-8" x="129.95" y="9.97" width="1.9" height="6.53"/><rect class="cls-7" x="133.84" y="9.97" width="1.9" height="6.53"/><rect class="cls-6" x="137.73" y="9.97" width="1.9" height="6.53"/><rect class="cls-5" x="141.62" y="9.97" width="1.9" height="6.53"/><g class="cls-3"><path class="cls-2" d="M50.63,61.12h-36a.94.94,0,0,1-.94-.93v-36a.94.94,0,0,1,.94-.93h36a.94.94,0,0,1,.94.93v36A.94.94,0,0,1,50.63,61.12ZM15.58,59.25H49.7V25.14H15.58Z"/></g><g class="cls-10"><path class="cls-4" d="M91.45,60.66h-36a.47.47,0,0,1-.47-.47v-36a.47.47,0,0,1,.47-.47h36a.47.47,0,0,1,.47.47v36A.47.47,0,0,1,91.45,60.66Zm-35.52-.94H91v-35H55.93Z"/></g><g class="cls-3"><g class="cls-12"><path class="cls-4" d="M-289.34,387.32a.47.47,0,0,1-.33-.14.47.47,0,0,1,0-.66L190.67-92.6a.45.45,0,0,1,.66,0,.47.47,0,0,1,0,.66L-289,387.18A.47.47,0,0,1-289.34,387.32Z"/><path class="cls-4" d="M-280.81,387.32a.47.47,0,0,1-.33-.14.45.45,0,0,1,0-.66L199.2-92.6a.45.45,0,0,1,.66,0,.47.47,0,0,1,0,.66L-280.48,387.18A.47.47,0,0,1-280.81,387.32Z"/><path class="cls-4" d="M-272.29,387.32a.47.47,0,0,1-.33-.14.47.47,0,0,1,0-.66L207.73-92.6a.45.45,0,0,1,.66,0,.47.47,0,0,1,0,.66L-272,387.18A.47.47,0,0,1-272.29,387.32Z"/><path class="cls-4" d="M-263.76,387.32a.47.47,0,0,1-.33-.14.47.47,0,0,1,0-.66L216.25-92.6a.47.47,0,0,1,.67,0,.46.46,0,0,1,0,.66L-263.43,387.18A.47.47,0,0,1-263.76,387.32Z"/><path class="cls-4" d="M-255.23,387.32a.47.47,0,0,1-.33-.14.47.47,0,0,1,0-.66L224.78-92.6a.45.45,0,0,1,.66,0,.45.45,0,0,1,0,.66L-254.9,387.18A.47.47,0,0,1-255.23,387.32Z"/><path class="cls-4" d="M-246.7,387.32a.47.47,0,0,1-.33-.14.45.45,0,0,1,0-.66L233.31-92.6a.45.45,0,0,1,.66,0,.47.47,0,0,1,0,.66L-246.37,387.18A.47.47,0,0,1-246.7,387.32Z"/><path class="cls-4" d="M-238.18,387.32a.51.51,0,0,1-.33-.14.47.47,0,0,1,0-.66L241.84-92.6a.45.45,0,0,1,.66,0,.47.47,0,0,1,0,.66L-237.84,387.18A.51.51,0,0,1-238.18,387.32Z"/><path class="cls-4" d="M-229.65,387.32a.47.47,0,0,1-.33-.14.47.47,0,0,1,0-.66L250.37-92.6a.45.45,0,0,1,.66,0,.47.47,0,0,1,0,.66L-229.32,387.18A.47.47,0,0,1-229.65,387.32Z"/><path class="cls-4" d="M-221.12,387.32a.47.47,0,0,1-.33-.14.47.47,0,0,1,0-.66L258.89-92.6a.47.47,0,0,1,.67,0,.46.46,0,0,1,0,.66L-220.79,387.18A.47.47,0,0,1-221.12,387.32Z"/><path class="cls-4" d="M-212.59,387.32a.47.47,0,0,1-.33-.14.45.45,0,0,1,0-.66L267.42-92.6a.45.45,0,0,1,.66,0,.47.47,0,0,1,0,.66L-212.26,387.18A.47.47,0,0,1-212.59,387.32Z"/><path class="cls-4" d="M-367.07,387.32a.47.47,0,0,1-.33-.14.47.47,0,0,1,0-.66L112.94-92.6a.45.45,0,0,1,.66,0,.45.45,0,0,1,0,.66L-366.74,387.18A.47.47,0,0,1-367.07,387.32Z"/><path class="cls-4" d="M-358.54,387.32a.47.47,0,0,1-.33-.14.45.45,0,0,1,0-.66L121.47-92.6a.45.45,0,0,1,.66,0,.47.47,0,0,1,0,.66L-358.21,387.18A.47.47,0,0,1-358.54,387.32Z"/><path class="cls-4" d="M-350,387.32a.51.51,0,0,1-.34-.14.47.47,0,0,1,0-.66L130-92.6a.45.45,0,0,1,.66,0,.47.47,0,0,1,0,.66L-349.68,387.18A.51.51,0,0,1-350,387.32Z"/><path class="cls-4" d="M-341.49,387.32a.47.47,0,0,1-.33-.14.47.47,0,0,1,0-.66L138.53-92.6a.45.45,0,0,1,.66,0,.47.47,0,0,1,0,.66L-341.16,387.18A.47.47,0,0,1-341.49,387.32Z"/><path class="cls-4" d="M-333,387.32a.47.47,0,0,1-.33-.14.47.47,0,0,1,0-.66L147.05-92.6a.47.47,0,0,1,.67,0,.46.46,0,0,1,0,.66L-332.63,387.18A.47.47,0,0,1-333,387.32Z"/><path class="cls-4" d="M-324.43,387.32a.47.47,0,0,1-.33-.14.45.45,0,0,1,0-.66L155.58-92.6a.45.45,0,0,1,.66,0,.45.45,0,0,1,0,.66L-324.1,387.18A.47.47,0,0,1-324.43,387.32Z"/><path class="cls-4" d="M-315.9,387.32a.51.51,0,0,1-.34-.14.46.46,0,0,1,0-.66L164.11-92.6a.45.45,0,0,1,.66,0,.47.47,0,0,1,0,.66L-315.57,387.18A.51.51,0,0,1-315.9,387.32Z"/><path class="cls-4" d="M-307.38,387.32a.47.47,0,0,1-.33-.14.47.47,0,0,1,0-.66L172.64-92.6a.45.45,0,0,1,.66,0,.47.47,0,0,1,0,.66L-307,387.18A.47.47,0,0,1-307.38,387.32Z"/><path class="cls-4" d="M-298.85,387.32a.47.47,0,0,1-.33-.14.47.47,0,0,1,0-.66L181.17-92.6a.45.45,0,0,1,.66,0,.47.47,0,0,1,0,.66L-298.52,387.18A.47.47,0,0,1-298.85,387.32Z"/><path class="cls-4" d="M-204.06,387.32a.51.51,0,0,1-.34-.14.46.46,0,0,1,0-.66L276-92.6a.45.45,0,0,1,.66,0,.47.47,0,0,1,0,.66L-203.73,387.18A.49.49,0,0,1-204.06,387.32Z"/><path class="cls-4" d="M-195.54,387.32a.47.47,0,0,1-.33-.14.47.47,0,0,1,0-.66L284.48-92.6a.45.45,0,0,1,.66,0,.47.47,0,0,1,0,.66L-195.21,387.18A.47.47,0,0,1-195.54,387.32Z"/><path class="cls-4" d="M-187,387.32a.47.47,0,0,1-.33-.14.47.47,0,0,1,0-.66L293-92.6a.45.45,0,0,1,.66,0,.47.47,0,0,1,0,.66L-186.68,387.18A.47.47,0,0,1-187,387.32Z"/><path class="cls-4" d="M-178.48,387.32a.47.47,0,0,1-.33-.14.47.47,0,0,1,0-.66L301.53-92.6a.45.45,0,0,1,.66,0,.45.45,0,0,1,0,.66L-178.15,387.18A.47.47,0,0,1-178.48,387.32Z"/><path class="cls-4" d="M-169.95,387.32a.47.47,0,0,1-.33-.14.45.45,0,0,1,0-.66L310.06-92.6a.45.45,0,0,1,.66,0,.47.47,0,0,1,0,.66L-169.62,387.18A.47.47,0,0,1-169.95,387.32Z"/><path class="cls-4" d="M-161.42,387.32a.47.47,0,0,1-.33-.14.45.45,0,0,1,0-.66L318.59-92.6a.45.45,0,0,1,.66,0,.47.47,0,0,1,0,.66L-161.09,387.18A.47.47,0,0,1-161.42,387.32Z"/><path class="cls-4" d="M-152.9,387.32a.47.47,0,0,1-.33-.14.47.47,0,0,1,0-.66L327.12-92.6a.45.45,0,0,1,.66,0,.47.47,0,0,1,0,.66L-152.57,387.18A.47.47,0,0,1-152.9,387.32Z"/><path class="cls-4" d="M-144.37,387.32a.47.47,0,0,1-.33-.14.47.47,0,0,1,0-.66L335.64-92.6a.47.47,0,0,1,.67,0,.46.46,0,0,1,0,.66L-144,387.18A.47.47,0,0,1-144.37,387.32Z"/><path class="cls-4" d="M-135.84,387.32a.47.47,0,0,1-.33-.14.45.45,0,0,1,0-.66L344.17-92.6a.45.45,0,0,1,.66,0,.45.45,0,0,1,0,.66L-135.51,387.18A.47.47,0,0,1-135.84,387.32Z"/><path class="cls-4" d="M-127.31,387.32a.51.51,0,0,1-.34-.14.46.46,0,0,1,0-.66L352.7-92.6a.45.45,0,0,1,.66,0,.47.47,0,0,1,0,.66L-127,387.18A.49.49,0,0,1-127.31,387.32Z"/><path class="cls-4" d="M-118.79,387.32a.47.47,0,0,1-.33-.14.47.47,0,0,1,0-.66L361.23-92.6a.45.45,0,0,1,.66,0,.47.47,0,0,1,0,.66L-118.46,387.18A.47.47,0,0,1-118.79,387.32Z"/><path class="cls-4" d="M-110.26,387.32a.47.47,0,0,1-.33-.14.47.47,0,0,1,0-.66L369.76-92.6a.45.45,0,0,1,.66,0,.47.47,0,0,1,0,.66L-109.93,387.18A.47.47,0,0,1-110.26,387.32Z"/><path class="cls-4" d="M-101.73,387.32a.47.47,0,0,1-.33-.14.47.47,0,0,1,0-.66L378.28-92.6a.45.45,0,0,1,.66,0,.45.45,0,0,1,0,.66L-101.4,387.18A.47.47,0,0,1-101.73,387.32Z"/><path class="cls-4" d="M-93.2,387.32a.47.47,0,0,1-.33-.14.45.45,0,0,1,0-.66L386.81-92.6a.45.45,0,0,1,.66,0,.47.47,0,0,1,0,.66L-92.87,387.18A.47.47,0,0,1-93.2,387.32Z"/><path class="cls-4" d="M-84.67,387.32a.47.47,0,0,1-.33-.14.45.45,0,0,1,0-.66L395.34-92.6a.45.45,0,0,1,.66,0,.47.47,0,0,1,0,.66L-84.34,387.18A.49.49,0,0,1-84.67,387.32Z"/><path class="cls-4" d="M-76.15,387.32a.47.47,0,0,1-.33-.14.47.47,0,0,1,0-.66L403.87-92.6a.45.45,0,0,1,.66,0,.47.47,0,0,1,0,.66L-75.82,387.18A.47.47,0,0,1-76.15,387.32Z"/><path class="cls-4" d="M-67.62,387.32a.47.47,0,0,1-.33-.14.47.47,0,0,1,0-.66L412.39-92.6a.47.47,0,0,1,.67,0,.46.46,0,0,1,0,.66L-67.29,387.18A.47.47,0,0,1-67.62,387.32Z"/><path class="cls-4" d="M-59.09,387.32a.47.47,0,0,1-.33-.14.47.47,0,0,1,0-.66L420.92-92.6a.45.45,0,0,1,.66,0,.47.47,0,0,1,0,.66L-58.76,387.18A.47.47,0,0,1-59.09,387.32Z"/><path class="cls-4" d="M-50.56,387.32a.47.47,0,0,1-.33-.14.45.45,0,0,1,0-.66L429.45-92.6a.45.45,0,0,1,.66,0,.47.47,0,0,1,0,.66L-50.23,387.18A.47.47,0,0,1-50.56,387.32Z"/><path class="cls-4" d="M-42,387.32a.49.49,0,0,1-.33-.14.47.47,0,0,1,0-.66L438-92.6a.45.45,0,0,1,.66,0,.47.47,0,0,1,0,.66L-41.71,387.18A.47.47,0,0,1-42,387.32Z"/><path class="cls-4" d="M-33.51,387.32a.47.47,0,0,1-.33-.14.47.47,0,0,1,0-.66L446.5-92.6a.47.47,0,0,1,.67,0,.47.47,0,0,1,0,.66L-33.18,387.18A.47.47,0,0,1-33.51,387.32Z"/><path class="cls-4" d="M-25,387.32a.47.47,0,0,1-.33-.14.47.47,0,0,1,0-.66L455-92.6a.45.45,0,0,1,.66,0,.45.45,0,0,1,0,.66L-24.65,387.18A.47.47,0,0,1-25,387.32Z"/><path class="cls-4" d="M-16.45,387.32a.51.51,0,0,1-.34-.14.46.46,0,0,1,0-.66L463.56-92.6a.45.45,0,0,1,.66,0,.47.47,0,0,1,0,.66L-16.12,387.18A.49.49,0,0,1-16.45,387.32Z"/><path class="cls-4" d="M-7.93,387.32a.47.47,0,0,1-.33-.14.47.47,0,0,1,0-.66L472.09-92.6a.45.45,0,0,1,.66,0,.47.47,0,0,1,0,.66L-7.6,387.18A.47.47,0,0,1-7.93,387.32Z"/><path class="cls-4" d="M.6,387.32a.47.47,0,0,1-.33-.8L480.62-92.6a.45.45,0,0,1,.66,0,.47.47,0,0,1,0,.66L.93,387.18A.47.47,0,0,1,.6,387.32Z"/><path class="cls-4" d="M9.13,387.32a.47.47,0,0,1-.33-.8L489.15-92.6a.45.45,0,0,1,.66,0,.47.47,0,0,1,0,.66L9.46,387.18A.47.47,0,0,1,9.13,387.32Z"/><path class="cls-4" d="M17.66,387.32a.47.47,0,0,1-.33-.8L497.67-92.6a.45.45,0,0,1,.66,0,.47.47,0,0,1,0,.66L18,387.18A.47.47,0,0,1,17.66,387.32Z"/><path class="cls-4" d="M26.19,387.32a.47.47,0,0,1-.33-.14.45.45,0,0,1,0-.66L506.2-92.6a.45.45,0,0,1,.66,0,.45.45,0,0,1,0,.66L26.52,387.18A.47.47,0,0,1,26.19,387.32Z"/><path class="cls-4" d="M34.72,387.32a.47.47,0,0,1-.33-.14.45.45,0,0,1,0-.66L514.73-92.6a.45.45,0,0,1,.66,0,.47.47,0,0,1,0,.66L35.05,387.18A.49.49,0,0,1,34.72,387.32Z"/><path class="cls-4" d="M43.24,387.32a.47.47,0,0,1-.33-.8L523.25-92.6a.47.47,0,0,1,.67,0,.46.46,0,0,1,0,.66L43.57,387.18A.47.47,0,0,1,43.24,387.32Z"/><path class="cls-4" d="M51.77,387.32a.47.47,0,0,1-.33-.8L531.79-92.6a.45.45,0,0,1,.66,0,.47.47,0,0,1,0,.66L52.1,387.18A.47.47,0,0,1,51.77,387.32Z"/><path class="cls-4" d="M60.3,387.32a.47.47,0,0,1-.33-.14.45.45,0,0,1,0-.66L540.31-92.6a.45.45,0,0,1,.66,0,.47.47,0,0,1,0,.66L60.63,387.18A.47.47,0,0,1,60.3,387.32Z"/><path class="cls-4" d="M68.83,387.32a.51.51,0,0,1-.34-.14.46.46,0,0,1,0-.66L548.84-92.6a.45.45,0,0,1,.66,0,.47.47,0,0,1,0,.66L69.16,387.18A.49.49,0,0,1,68.83,387.32Z"/><path class="cls-4" d="M77.35,387.32a.47.47,0,0,1-.33-.8L557.37-92.6a.45.45,0,0,1,.66,0,.47.47,0,0,1,0,.66L77.68,387.18A.47.47,0,0,1,77.35,387.32Z"/><path class="cls-4" d="M85.88,387.32a.47.47,0,0,1-.33-.8L565.9-92.6a.45.45,0,0,1,.66,0,.47.47,0,0,1,0,.66L86.21,387.18A.47.47,0,0,1,85.88,387.32Z"/><path class="cls-4" d="M94.41,387.32a.47.47,0,0,1-.33-.8L574.42-92.6a.45.45,0,0,1,.66,0,.47.47,0,0,1,0,.66L94.74,387.18A.47.47,0,0,1,94.41,387.32Z"/><path class="cls-4" d="M102.94,387.32a.47.47,0,0,1-.33-.14.45.45,0,0,1,0-.66L583-92.6a.45.45,0,0,1,.66,0,.47.47,0,0,1,0,.66L103.27,387.18A.47.47,0,0,1,102.94,387.32Z"/><path class="cls-4" d="M111.46,387.32a.47.47,0,0,1-.33-.8L591.48-92.6a.45.45,0,0,1,.66,0,.47.47,0,0,1,0,.66L111.79,387.18A.47.47,0,0,1,111.46,387.32Z"/><path class="cls-4" d="M120,387.32a.47.47,0,0,1-.33-.8L600-92.6a.45.45,0,0,1,.66,0,.47.47,0,0,1,0,.66L120.32,387.18A.47.47,0,0,1,120,387.32Z"/><path class="cls-4" d="M128.52,387.32a.47.47,0,0,1-.33-.8L608.53-92.6a.45.45,0,0,1,.66,0,.45.45,0,0,1,0,.66L128.85,387.18A.47.47,0,0,1,128.52,387.32Z"/><path class="cls-4" d="M137.05,387.32a.47.47,0,0,1-.33-.14.45.45,0,0,1,0-.66L617.06-92.6a.45.45,0,0,1,.66,0,.47.47,0,0,1,0,.66L137.38,387.18A.47.47,0,0,1,137.05,387.32Z"/></g></g><path class="cls-2" d="M132.85,60.66h-36a.47.47,0,0,1-.47-.47v-36a.47.47,0,0,1,.47-.47h36a.47.47,0,0,1,.47.47v36A.47.47,0,0,1,132.85,60.66Zm-35.51-.94h35v-35h-35Z"/><g class="cls-11"><path class="cls-4" d="M173.67,60.66h-36a.47.47,0,0,1-.47-.47v-36a.47.47,0,0,1,.47-.47h36a.47.47,0,0,1,.47.47v36A.47.47,0,0,1,173.67,60.66Zm-35.52-.94h35v-35h-35Z"/></g><path class="cls-2" d="M214.45,60.66h-36a.47.47,0,0,1-.47-.47v-36a.47.47,0,0,1,.47-.47h36a.47.47,0,0,1,.47.47v36A.47.47,0,0,1,214.45,60.66Zm-35.51-.94H214v-35H178.94Z"/><rect class="cls-2" x="181.56" y="27.4" width="3.93" height="5.84"/><rect class="cls-2" x="187" y="27.4" width="12.04" height="5.84"/><g class="cls-11"><path class="cls-4" d="M255.27,60.66h-36a.46.46,0,0,1-.46-.47v-36a.46.46,0,0,1,.46-.47h36a.47.47,0,0,1,.47.47v36A.47.47,0,0,1,255.27,60.66Zm-35.52-.94H254.8v-35H219.75Z"/></g><path class="cls-2" d="M296.67,60.66h-36a.47.47,0,0,1-.47-.47v-36a.47.47,0,0,1,.47-.47h36a.47.47,0,0,1,.47.47v36A.47.47,0,0,1,296.67,60.66Zm-35.51-.94h35v-35h-35Z"/><g class="cls-3"><path class="cls-4" d="M337.49,60.66h-36a.47.47,0,0,1-.47-.47v-36a.47.47,0,0,1,.47-.47h36a.47.47,0,0,1,.47.47v36A.47.47,0,0,1,337.49,60.66ZM302,59.72h35v-35H302Z"/></g><path class="cls-2" d="M50.63,102.65h-36a.47.47,0,0,1-.47-.47v-36a.47.47,0,0,1,.47-.47h36a.47.47,0,0,1,.47.47v36A.47.47,0,0,1,50.63,102.65Zm-35.51-.93H50.17v-35H15.12Z"/><path class="cls-2" d="M26,88.9a2.81,2.81,0,0,1-2,.72h-.33a2.79,2.79,0,0,1-2-.72,2.74,2.74,0,0,1-.75-2.08V80.88a2.73,2.73,0,0,1,.74-2.09,2.82,2.82,0,0,1,2-.71H24a2.81,2.81,0,0,1,2,.71,2.74,2.74,0,0,1,.75,2.09v5.94A2.74,2.74,0,0,1,26,88.9Zm-1-9.21a1.36,1.36,0,0,0-1-.37h-.33a1.33,1.33,0,0,0-1,.37,1.16,1.16,0,0,0-.39.88V85l3.06-4.47A1.15,1.15,0,0,0,25,79.69ZM22.68,88a1.33,1.33,0,0,0,1,.37H24A1.36,1.36,0,0,0,25,88a1.15,1.15,0,0,0,.38-.88V82.68l-3.06,4.45A1.16,1.16,0,0,0,22.68,88Z"/><path class="cls-2" d="M32.28,88.38v-9L30,80.24V78.9l2.16-.82h1.57v10.3h1.8v1.24H30.12V88.38Z"/><path class="cls-2" d="M41.54,84.41c.36-.5.59-.86.72-1.08a2.11,2.11,0,0,0,.26-.65,5.76,5.76,0,0,0,.06-1V80.57a1.13,1.13,0,0,0-.38-.87,1.34,1.34,0,0,0-1-.37h-2V78.08h1.81a3.13,3.13,0,0,1,2.2.7,2.72,2.72,0,0,1,.77,2.1v.69a6.07,6.07,0,0,1-.12,1.34,3.9,3.9,0,0,1-.33.91,12.18,12.18,0,0,1-.71,1.1l-2.44,3.45h3.93v1.25H38.91V88.17Z"/><g class="cls-11"><path class="cls-4" d="M91.45,102.65h-36a.47.47,0,0,1-.47-.47v-36a.47.47,0,0,1,.47-.47h36a.47.47,0,0,1,.47.47v36A.47.47,0,0,1,91.45,102.65Zm-35.52-.93H91v-35H55.93Z"/></g><path class="cls-2" d="M132.85,102.65h-36a.47.47,0,0,1-.47-.47v-36a.47.47,0,0,1,.47-.47h36a.47.47,0,0,1,.47.47v36A.47.47,0,0,1,132.85,102.65Zm-35.51-.93h35v-35h-35Z"/><rect class="cls-6" x="102.56" y="71.89" width="24.6" height="24.6"/><g class="cls-3"><path class="cls-4" d="M173.67,102.65h-36a.47.47,0,0,1-.47-.47v-36a.47.47,0,0,1,.47-.47h36a.47.47,0,0,1,.47.47v36A.47.47,0,0,1,173.67,102.65Zm-35.52-.93h35v-35h-35Z"/></g><g class="cls-3"><path class="cls-2" d="M214.45,103.12h-36a.94.94,0,0,1-.94-.94v-36a.94.94,0,0,1,.94-.94h36a.94.94,0,0,1,.94.94v36A.94.94,0,0,1,214.45,103.12Zm-35-1.87h34.12V67.13H179.4Z"/></g><g class="cls-10"><path class="cls-4" d="M255.27,102.65h-36a.46.46,0,0,1-.46-.47v-36a.46.46,0,0,1,.46-.47h36a.47.47,0,0,1,.47.47v36A.47.47,0,0,1,255.27,102.65Zm-35.52-.93H254.8v-35H219.75Z"/></g><path class="cls-2" d="M296.67,102.65h-36a.47.47,0,0,1-.47-.47v-36a.47.47,0,0,1,.47-.47h36a.47.47,0,0,1,.47.47v36A.47.47,0,0,1,296.67,102.65Zm-35.51-.93h35v-35h-35Z"/><path class="cls-2" d="M285.64,96.7H271.73a.49.49,0,0,1-.41-.23l-6.95-12a.43.43,0,0,1,0-.46l6.95-12a.49.49,0,0,1,.41-.23h13.91a.47.47,0,0,1,.4.23L293,84a.43.43,0,0,1,0,.46l-6.95,12A.47.47,0,0,1,285.64,96.7ZM272,95.77h13.37l6.68-11.58-6.68-11.57H272l-6.69,11.57Z"/><g class="cls-11"><path class="cls-4" d="M337.49,102.65h-36a.47.47,0,0,1-.47-.47v-36a.47.47,0,0,1,.47-.47h36a.47.47,0,0,1,.47.47v36A.47.47,0,0,1,337.49,102.65ZM302,101.72h35v-35H302Z"/></g><path class="cls-2" d="M50.63,144.65h-36a.47.47,0,0,1-.47-.47v-36a.47.47,0,0,1,.47-.46h9.4a.47.47,0,1,1,0,.93H15.12v35.05H50.17V108.66H29.81a.47.47,0,1,1,0-.93H50.63a.47.47,0,0,1,.47.46v36A.47.47,0,0,1,50.63,144.65Z"/><path class="cls-2" d="M26.89,111.5a3.31,3.31,0,1,1,3.3-3.31A3.31,3.31,0,0,1,26.89,111.5Zm0-5.68a2.37,2.37,0,1,0,2.37,2.37A2.38,2.38,0,0,0,26.89,105.82Z"/><g class="cls-3"><path class="cls-4" d="M91.45,144.65h-36a.47.47,0,0,1-.47-.47v-36a.47.47,0,0,1,.47-.46h36a.47.47,0,0,1,.47.46v36A.47.47,0,0,1,91.45,144.65Zm-35.52-.94H91V108.66H55.93Z"/></g><g class="cls-3"><path class="cls-2" d="M132.85,145.11h-36a.93.93,0,0,1-.94-.93v-36a.94.94,0,0,1,.94-.93h36a.94.94,0,0,1,.94.93v36A.93.93,0,0,1,132.85,145.11Zm-35-1.87h34.12V109.13H97.8Z"/></g><g class="cls-11"><path class="cls-4" d="M173.67,144.65h-36a.47.47,0,0,1-.47-.47v-36a.47.47,0,0,1,.47-.46h36a.47.47,0,0,1,.47.46v36A.47.47,0,0,1,173.67,144.65Zm-35.52-.94h35V108.66h-35Z"/></g><g class="cls-10"><path class="cls-4" d="M148.61,131a3.07,3.07,0,0,1-2.14.62H146a3.09,3.09,0,0,1-2.14-.62,2.62,2.62,0,0,1-.66-2v-1.38a2.13,2.13,0,0,1,1.07-2,2.18,2.18,0,0,1-.87-1.91v-1a2.52,2.52,0,0,1,.69-2,2.83,2.83,0,0,1,2-.62h.33a2.83,2.83,0,0,1,2,.62,2.52,2.52,0,0,1,.69,2v1a2.18,2.18,0,0,1-.87,1.91,2.13,2.13,0,0,1,1.07,2V129A2.62,2.62,0,0,1,148.61,131Zm-1.11-4.39a1.21,1.21,0,0,0-.87-.32h-.79a1.21,1.21,0,0,0-.87.32,1.16,1.16,0,0,0-.33.87v1.7a1.31,1.31,0,0,0,.26.9,1,1,0,0,0,.82.3h.89a1.31,1.31,0,0,0,.93-.29,1.21,1.21,0,0,0,.29-.91v-1.7A1.16,1.16,0,0,0,147.5,126.61Zm-2.43-5a1.34,1.34,0,0,0-.24.88v1.35a1.2,1.2,0,0,0,.31.85,1.13,1.13,0,0,0,.77.35h.56a1.14,1.14,0,0,0,.84-.33,1.18,1.18,0,0,0,.33-.87V122.5a1,1,0,0,0-1.17-1.19h-.6A1,1,0,0,0,145.07,121.62Z"/><path class="cls-4" d="M155.06,126.41c.35-.51.59-.87.71-1.08a2.21,2.21,0,0,0,.26-.65,5.76,5.76,0,0,0,.06-1v-1.16a1.16,1.16,0,0,0-.37-.87,1.4,1.4,0,0,0-1-.36h-2v-1.25h1.81a3.13,3.13,0,0,1,2.2.7,2.69,2.69,0,0,1,.77,2.1v.69a6.07,6.07,0,0,1-.12,1.34,3,3,0,0,1-.33.9,12,12,0,0,1-.71,1.11l-2.44,3.44h3.93v1.26h-5.44v-1.45Z"/><path class="cls-4" d="M166.22,130.9a2.78,2.78,0,0,1-2,.72h-.33a2.79,2.79,0,0,1-2-.72,2.75,2.75,0,0,1-.75-2.09v-5.93a2.76,2.76,0,0,1,.74-2.1,2.81,2.81,0,0,1,2-.7h.33a2.81,2.81,0,0,1,2,.7,2.76,2.76,0,0,1,.75,2.1v5.93A2.76,2.76,0,0,1,166.22,130.9Zm-1-9.22a1.4,1.4,0,0,0-1-.37h-.33a1.41,1.41,0,0,0-1,.37,1.2,1.2,0,0,0-.38.88V127l3.06-4.47A1.2,1.2,0,0,0,165.19,121.68Zm-2.3,8.33a1.37,1.37,0,0,0,1,.37h.33a1.36,1.36,0,0,0,1-.37,1.2,1.2,0,0,0,.38-.88v-4.45l-3.06,4.45A1.2,1.2,0,0,0,162.89,130Z"/></g><path class="cls-2" d="M214.45,144.65h-36a.47.47,0,0,1-.47-.47v-36a.47.47,0,0,1,.47-.46h36a.47.47,0,0,1,.47.46v36A.47.47,0,0,1,214.45,144.65Zm-35.51-.94H214V108.66H178.94Z"/><path class="cls-2" d="M196.46,138a11.8,11.8,0,1,1,11.8-11.79A11.81,11.81,0,0,1,196.46,138Zm0-22.66a10.87,10.87,0,1,0,10.87,10.87A10.88,10.88,0,0,0,196.46,115.32Z"/><path class="cls-2" d="M203.75,126.19a7.29,7.29,0,1,0-7.29,7.29A7.29,7.29,0,0,0,203.75,126.19Z"/><g class="cls-11"><path class="cls-4" d="M255.27,144.65h-36a.46.46,0,0,1-.46-.47v-36a.46.46,0,0,1,.46-.46h36a.47.47,0,0,1,.47.46v36A.47.47,0,0,1,255.27,144.65Zm-35.52-.94H254.8V108.66H219.75Z"/></g><g class="cls-13"><path class="cls-2" d="M-289.34,387.32a.47.47,0,0,1-.33-.14.47.47,0,0,1,0-.66L190.67-92.6a.45.45,0,0,1,.66,0,.47.47,0,0,1,0,.66L-289,387.18A.47.47,0,0,1-289.34,387.32Z"/><path class="cls-2" d="M-280.81,387.32a.47.47,0,0,1-.33-.14.45.45,0,0,1,0-.66L199.2-92.6a.45.45,0,0,1,.66,0,.47.47,0,0,1,0,.66L-280.48,387.18A.47.47,0,0,1-280.81,387.32Z"/><path class="cls-2" d="M-272.29,387.32a.47.47,0,0,1-.33-.14.47.47,0,0,1,0-.66L207.73-92.6a.45.45,0,0,1,.66,0,.47.47,0,0,1,0,.66L-272,387.18A.47.47,0,0,1-272.29,387.32Z"/><path class="cls-2" d="M-263.76,387.32a.47.47,0,0,1-.33-.14.47.47,0,0,1,0-.66L216.25-92.6a.47.47,0,0,1,.67,0,.46.46,0,0,1,0,.66L-263.43,387.18A.47.47,0,0,1-263.76,387.32Z"/><path class="cls-2" d="M-255.23,387.32a.47.47,0,0,1-.33-.14.47.47,0,0,1,0-.66L224.78-92.6a.45.45,0,0,1,.66,0,.45.45,0,0,1,0,.66L-254.9,387.18A.47.47,0,0,1-255.23,387.32Z"/><path class="cls-2" d="M-246.7,387.32a.47.47,0,0,1-.33-.14.45.45,0,0,1,0-.66L233.31-92.6a.45.45,0,0,1,.66,0,.47.47,0,0,1,0,.66L-246.37,387.18A.47.47,0,0,1-246.7,387.32Z"/><path class="cls-2" d="M-238.18,387.32a.49.49,0,0,1-.33-.14.47.47,0,0,1,0-.66L241.84-92.6a.45.45,0,0,1,.66,0,.47.47,0,0,1,0,.66L-237.84,387.18A.51.51,0,0,1-238.18,387.32Z"/><path class="cls-2" d="M-229.65,387.32a.47.47,0,0,1-.33-.14.47.47,0,0,1,0-.66L250.37-92.6a.45.45,0,0,1,.66,0,.47.47,0,0,1,0,.66L-229.32,387.18A.47.47,0,0,1-229.65,387.32Z"/><path class="cls-2" d="M-221.12,387.32a.47.47,0,0,1-.33-.14.47.47,0,0,1,0-.66L258.89-92.6a.47.47,0,0,1,.67,0,.46.46,0,0,1,0,.66L-220.79,387.18A.47.47,0,0,1-221.12,387.32Z"/><path class="cls-2" d="M-212.59,387.32a.47.47,0,0,1-.33-.14.46.46,0,0,1,0-.66L267.42-92.6a.45.45,0,0,1,.66,0,.47.47,0,0,1,0,.66L-212.26,387.18A.47.47,0,0,1-212.59,387.32Z"/><path class="cls-2" d="M-367.07,387.32a.47.47,0,0,1-.33-.14.47.47,0,0,1,0-.66L112.94-92.6a.45.45,0,0,1,.66,0,.45.45,0,0,1,0,.66L-366.74,387.18A.47.47,0,0,1-367.07,387.32Z"/><path class="cls-2" d="M-358.54,387.32a.47.47,0,0,1-.33-.14.45.45,0,0,1,0-.66L121.47-92.6a.45.45,0,0,1,.66,0,.47.47,0,0,1,0,.66L-358.21,387.18A.47.47,0,0,1-358.54,387.32Z"/><path class="cls-2" d="M-350,387.32a.51.51,0,0,1-.34-.14.47.47,0,0,1,0-.66L130-92.6a.45.45,0,0,1,.66,0,.47.47,0,0,1,0,.66L-349.68,387.18A.51.51,0,0,1-350,387.32Z"/><path class="cls-2" d="M-341.49,387.32a.47.47,0,0,1-.33-.14.47.47,0,0,1,0-.66L138.53-92.6a.45.45,0,0,1,.66,0,.47.47,0,0,1,0,.66L-341.16,387.18A.47.47,0,0,1-341.49,387.32Z"/><path class="cls-2" d="M-333,387.32a.47.47,0,0,1-.33-.14.47.47,0,0,1,0-.66L147.05-92.6a.47.47,0,0,1,.67,0,.46.46,0,0,1,0,.66L-332.63,387.18A.47.47,0,0,1-333,387.32Z"/><path class="cls-2" d="M-324.43,387.32a.47.47,0,0,1-.33-.14.45.45,0,0,1,0-.66L155.58-92.6a.45.45,0,0,1,.66,0,.45.45,0,0,1,0,.66L-324.1,387.18A.47.47,0,0,1-324.43,387.32Z"/><path class="cls-2" d="M-315.9,387.32a.51.51,0,0,1-.34-.14.46.46,0,0,1,0-.66L164.11-92.6a.45.45,0,0,1,.66,0,.47.47,0,0,1,0,.66L-315.57,387.18A.51.51,0,0,1-315.9,387.32Z"/><path class="cls-2" d="M-307.38,387.32a.47.47,0,0,1-.33-.14.47.47,0,0,1,0-.66L172.64-92.6a.45.45,0,0,1,.66,0,.47.47,0,0,1,0,.66L-307,387.18A.47.47,0,0,1-307.38,387.32Z"/><path class="cls-2" d="M-298.85,387.32a.47.47,0,0,1-.33-.14.47.47,0,0,1,0-.66L181.17-92.6a.45.45,0,0,1,.66,0,.47.47,0,0,1,0,.66L-298.52,387.18A.47.47,0,0,1-298.85,387.32Z"/><path class="cls-2" d="M-204.06,387.32a.51.51,0,0,1-.34-.14.46.46,0,0,1,0-.66L276-92.6a.45.45,0,0,1,.66,0,.47.47,0,0,1,0,.66L-203.73,387.18A.49.49,0,0,1-204.06,387.32Z"/><path class="cls-2" d="M-195.54,387.32a.47.47,0,0,1-.33-.14.47.47,0,0,1,0-.66L284.48-92.6a.45.45,0,0,1,.66,0,.47.47,0,0,1,0,.66L-195.21,387.18A.47.47,0,0,1-195.54,387.32Z"/><path class="cls-2" d="M-187,387.32a.47.47,0,0,1-.33-.14.47.47,0,0,1,0-.66L293-92.6a.45.45,0,0,1,.66,0,.47.47,0,0,1,0,.66L-186.68,387.18A.47.47,0,0,1-187,387.32Z"/><path class="cls-2" d="M-178.48,387.32a.47.47,0,0,1-.33-.14.47.47,0,0,1,0-.66L301.53-92.6a.45.45,0,0,1,.66,0,.45.45,0,0,1,0,.66L-178.15,387.18A.47.47,0,0,1-178.48,387.32Z"/><path class="cls-2" d="M-169.95,387.32a.47.47,0,0,1-.33-.14.45.45,0,0,1,0-.66L310.06-92.6a.45.45,0,0,1,.66,0,.47.47,0,0,1,0,.66L-169.62,387.18A.47.47,0,0,1-169.95,387.32Z"/><path class="cls-2" d="M-161.42,387.32a.47.47,0,0,1-.33-.14.45.45,0,0,1,0-.66L318.59-92.6a.45.45,0,0,1,.66,0,.47.47,0,0,1,0,.66L-161.09,387.18A.47.47,0,0,1-161.42,387.32Z"/><path class="cls-2" d="M-152.9,387.32a.47.47,0,0,1-.33-.14.47.47,0,0,1,0-.66L327.12-92.6a.45.45,0,0,1,.66,0,.47.47,0,0,1,0,.66L-152.57,387.18A.47.47,0,0,1-152.9,387.32Z"/><path class="cls-2" d="M-144.37,387.32a.47.47,0,0,1-.33-.14.47.47,0,0,1,0-.66L335.64-92.6a.47.47,0,0,1,.67,0,.46.46,0,0,1,0,.66L-144,387.18A.47.47,0,0,1-144.37,387.32Z"/><path class="cls-2" d="M-135.84,387.32a.47.47,0,0,1-.33-.14.45.45,0,0,1,0-.66L344.17-92.6a.45.45,0,0,1,.66,0,.45.45,0,0,1,0,.66L-135.51,387.18A.47.47,0,0,1-135.84,387.32Z"/><path class="cls-2" d="M-127.31,387.32a.51.51,0,0,1-.34-.14.46.46,0,0,1,0-.66L352.7-92.6a.45.45,0,0,1,.66,0,.47.47,0,0,1,0,.66L-127,387.18A.49.49,0,0,1-127.31,387.32Z"/><path class="cls-2" d="M-118.79,387.32a.47.47,0,0,1-.33-.14.47.47,0,0,1,0-.66L361.23-92.6a.45.45,0,0,1,.66,0,.47.47,0,0,1,0,.66L-118.46,387.18A.47.47,0,0,1-118.79,387.32Z"/><path class="cls-2" d="M-110.26,387.32a.47.47,0,0,1-.33-.14.47.47,0,0,1,0-.66L369.76-92.6a.45.45,0,0,1,.66,0,.47.47,0,0,1,0,.66L-109.93,387.18A.47.47,0,0,1-110.26,387.32Z"/><path class="cls-2" d="M-101.73,387.32a.47.47,0,0,1-.33-.14.47.47,0,0,1,0-.66L378.28-92.6a.45.45,0,0,1,.66,0,.45.45,0,0,1,0,.66L-101.4,387.18A.47.47,0,0,1-101.73,387.32Z"/><path class="cls-2" d="M-93.2,387.32a.47.47,0,0,1-.33-.14.45.45,0,0,1,0-.66L386.81-92.6a.45.45,0,0,1,.66,0,.47.47,0,0,1,0,.66L-92.87,387.18A.47.47,0,0,1-93.2,387.32Z"/><path class="cls-2" d="M-84.67,387.32a.47.47,0,0,1-.33-.14.45.45,0,0,1,0-.66L395.34-92.6a.45.45,0,0,1,.66,0,.47.47,0,0,1,0,.66L-84.34,387.18A.49.49,0,0,1-84.67,387.32Z"/><path class="cls-2" d="M-76.15,387.32a.47.47,0,0,1-.33-.14.47.47,0,0,1,0-.66L403.87-92.6a.45.45,0,0,1,.66,0,.47.47,0,0,1,0,.66L-75.82,387.18A.47.47,0,0,1-76.15,387.32Z"/><path class="cls-2" d="M-67.62,387.32a.47.47,0,0,1-.33-.14.47.47,0,0,1,0-.66L412.39-92.6a.47.47,0,0,1,.67,0,.46.46,0,0,1,0,.66L-67.29,387.18A.47.47,0,0,1-67.62,387.32Z"/><path class="cls-2" d="M-59.09,387.32a.47.47,0,0,1-.33-.14.47.47,0,0,1,0-.66L420.92-92.6a.45.45,0,0,1,.66,0,.47.47,0,0,1,0,.66L-58.76,387.18A.47.47,0,0,1-59.09,387.32Z"/><path class="cls-2" d="M-50.56,387.32a.47.47,0,0,1-.33-.14.45.45,0,0,1,0-.66L429.45-92.6a.45.45,0,0,1,.66,0,.47.47,0,0,1,0,.66L-50.23,387.18A.47.47,0,0,1-50.56,387.32Z"/><path class="cls-2" d="M-42,387.32a.49.49,0,0,1-.33-.14.47.47,0,0,1,0-.66L438-92.6a.45.45,0,0,1,.66,0,.47.47,0,0,1,0,.66L-41.71,387.18A.47.47,0,0,1-42,387.32Z"/><path class="cls-2" d="M-33.51,387.32a.47.47,0,0,1-.33-.14.47.47,0,0,1,0-.66L446.5-92.6a.47.47,0,0,1,.67,0,.47.47,0,0,1,0,.66L-33.18,387.18A.47.47,0,0,1-33.51,387.32Z"/><path class="cls-2" d="M-25,387.32a.47.47,0,0,1-.33-.14.47.47,0,0,1,0-.66L455-92.6a.45.45,0,0,1,.66,0,.45.45,0,0,1,0,.66L-24.65,387.18A.47.47,0,0,1-25,387.32Z"/><path class="cls-2" d="M-16.45,387.32a.51.51,0,0,1-.34-.14.46.46,0,0,1,0-.66L463.56-92.6a.45.45,0,0,1,.66,0,.47.47,0,0,1,0,.66L-16.12,387.18A.49.49,0,0,1-16.45,387.32Z"/><path class="cls-2" d="M-7.93,387.32a.47.47,0,0,1-.33-.14.47.47,0,0,1,0-.66L472.09-92.6a.45.45,0,0,1,.66,0,.47.47,0,0,1,0,.66L-7.6,387.18A.47.47,0,0,1-7.93,387.32Z"/><path class="cls-2" d="M.6,387.32a.47.47,0,0,1-.33-.8L480.62-92.6a.45.45,0,0,1,.66,0,.47.47,0,0,1,0,.66L.93,387.18A.47.47,0,0,1,.6,387.32Z"/><path class="cls-2" d="M9.13,387.32a.47.47,0,0,1-.33-.8L489.15-92.6a.45.45,0,0,1,.66,0,.47.47,0,0,1,0,.66L9.46,387.18A.47.47,0,0,1,9.13,387.32Z"/><path class="cls-2" d="M17.66,387.32a.47.47,0,0,1-.33-.8L497.67-92.6a.45.45,0,0,1,.66,0,.47.47,0,0,1,0,.66L18,387.18A.47.47,0,0,1,17.66,387.32Z"/><path class="cls-2" d="M26.19,387.32a.47.47,0,0,1-.33-.14.45.45,0,0,1,0-.66L506.2-92.6a.45.45,0,0,1,.66,0,.45.45,0,0,1,0,.66L26.52,387.18A.47.47,0,0,1,26.19,387.32Z"/><path class="cls-2" d="M34.72,387.32a.47.47,0,0,1-.33-.14.45.45,0,0,1,0-.66L514.73-92.6a.45.45,0,0,1,.66,0,.47.47,0,0,1,0,.66L35.05,387.18A.49.49,0,0,1,34.72,387.32Z"/><path class="cls-2" d="M43.24,387.32a.47.47,0,0,1-.33-.8L523.25-92.6a.47.47,0,0,1,.67,0,.46.46,0,0,1,0,.66L43.57,387.18A.47.47,0,0,1,43.24,387.32Z"/><path class="cls-2" d="M51.77,387.32a.47.47,0,0,1-.33-.8L531.79-92.6a.45.45,0,0,1,.66,0,.47.47,0,0,1,0,.66L52.1,387.18A.47.47,0,0,1,51.77,387.32Z"/><path class="cls-2" d="M60.3,387.32a.47.47,0,0,1-.33-.14.45.45,0,0,1,0-.66L540.31-92.6a.45.45,0,0,1,.66,0,.47.47,0,0,1,0,.66L60.63,387.18A.47.47,0,0,1,60.3,387.32Z"/><path class="cls-2" d="M68.83,387.32a.51.51,0,0,1-.34-.14.46.46,0,0,1,0-.66L548.84-92.6a.45.45,0,0,1,.66,0,.47.47,0,0,1,0,.66L69.16,387.18A.49.49,0,0,1,68.83,387.32Z"/><path class="cls-2" d="M77.35,387.32a.47.47,0,0,1-.33-.8L557.37-92.6a.45.45,0,0,1,.66,0,.47.47,0,0,1,0,.66L77.68,387.18A.47.47,0,0,1,77.35,387.32Z"/><path class="cls-2" d="M85.88,387.32a.47.47,0,0,1-.33-.8L565.9-92.6a.45.45,0,0,1,.66,0,.47.47,0,0,1,0,.66L86.21,387.18A.47.47,0,0,1,85.88,387.32Z"/><path class="cls-2" d="M94.41,387.32a.47.47,0,0,1-.33-.8L574.42-92.6a.45.45,0,0,1,.66,0,.47.47,0,0,1,0,.66L94.74,387.18A.47.47,0,0,1,94.41,387.32Z"/><path class="cls-2" d="M102.94,387.32a.47.47,0,0,1-.33-.14.45.45,0,0,1,0-.66L583-92.6a.45.45,0,0,1,.66,0,.47.47,0,0,1,0,.66L103.27,387.18A.47.47,0,0,1,102.94,387.32Z"/><path class="cls-2" d="M111.46,387.32a.47.47,0,0,1-.33-.8L591.48-92.6a.45.45,0,0,1,.66,0,.47.47,0,0,1,0,.66L111.79,387.18A.47.47,0,0,1,111.46,387.32Z"/><path class="cls-2" d="M120,387.32a.47.47,0,0,1-.33-.8L600-92.6a.45.45,0,0,1,.66,0,.47.47,0,0,1,0,.66L120.32,387.18A.47.47,0,0,1,120,387.32Z"/><path class="cls-2" d="M128.52,387.32a.47.47,0,0,1-.33-.8L608.53-92.6a.45.45,0,0,1,.66,0,.45.45,0,0,1,0,.66L128.85,387.18A.47.47,0,0,1,128.52,387.32Z"/><path class="cls-2" d="M137.05,387.32a.47.47,0,0,1-.33-.14.45.45,0,0,1,0-.66L617.06-92.6a.45.45,0,0,1,.66,0,.47.47,0,0,1,0,.66L137.38,387.18A.47.47,0,0,1,137.05,387.32Z"/></g><path class="cls-2" d="M296.67,144.65h-36a.47.47,0,0,1-.47-.47v-36a.47.47,0,0,1,.47-.46h36a.47.47,0,0,1,.47.46v36A.47.47,0,0,1,296.67,144.65Zm-35.51-.94h35V108.66h-35Z"/><g class="cls-10"><path class="cls-4" d="M337.49,144.65h-36a.47.47,0,0,1-.47-.47v-36a.47.47,0,0,1,.47-.46h36a.47.47,0,0,1,.47.46v16.66a.47.47,0,1,1-.94,0V108.66H302v35.05h35V130.25a.47.47,0,1,1,.94,0v13.93A.47.47,0,0,1,337.49,144.65Z"/></g><g class="cls-10"><path class="cls-4" d="M337.49,130.58a3,3,0,1,1,3-3A3,3,0,0,1,337.49,130.58Zm0-5.12a2.1,2.1,0,1,0,2.09,2.09A2.1,2.1,0,0,0,337.49,125.46Z"/></g><path class="cls-2" d="M50.63,186.64h-36a.47.47,0,0,1-.47-.46v-36a.47.47,0,0,1,.47-.47h36a.47.47,0,0,1,.47.47v36A.47.47,0,0,1,50.63,186.64Zm-35.51-.93H50.17V150.66H15.12Z"/><g class="cls-9"><path class="cls-2" d="M25.62,172.21a3.1,3.1,0,0,1-2.15.62H21.36v-1.24h2.26a1.31,1.31,0,0,0,.93-.28,1.28,1.28,0,0,0,.29-.92v-1.7a1.14,1.14,0,0,0-.33-.86,1.17,1.17,0,0,0-.87-.32H21.88v-1.24h1.59a1.18,1.18,0,0,0,.86-.33,1.15,1.15,0,0,0,.35-.87v-1.36a1.21,1.21,0,0,0-.29-.9,1.27,1.27,0,0,0-.92-.28H21.36v-1.24h1.92a3.19,3.19,0,0,1,2.12.62,2.46,2.46,0,0,1,.71,2v1a2.19,2.19,0,0,1-.9,1.91,2.14,2.14,0,0,1,1.07,2v1.39A2.6,2.6,0,0,1,25.62,172.21Z"/><path class="cls-2" d="M35.1,172.21a3.1,3.1,0,0,1-2.15.62h-.46a3.07,3.07,0,0,1-2.14-.62,2.6,2.6,0,0,1-.66-2v-1.39a2.14,2.14,0,0,1,1.07-2,2.16,2.16,0,0,1-.87-1.91v-1a2.48,2.48,0,0,1,.69-1.94,2.84,2.84,0,0,1,2-.63h.33a2.84,2.84,0,0,1,2,.63,2.48,2.48,0,0,1,.69,1.94v1a2.16,2.16,0,0,1-.87,1.91,2.14,2.14,0,0,1,1.07,2v1.39A2.6,2.6,0,0,1,35.1,172.21ZM34,167.83a1.17,1.17,0,0,0-.87-.32h-.79a1.19,1.19,0,0,0-.88.32,1.14,1.14,0,0,0-.33.86v1.7a1.32,1.32,0,0,0,.27.91,1,1,0,0,0,.82.29h.89a1.31,1.31,0,0,0,.93-.28,1.28,1.28,0,0,0,.29-.92v-1.7A1.14,1.14,0,0,0,34,167.83Zm-2.43-5a1.36,1.36,0,0,0-.24.88v1.36a1.13,1.13,0,0,0,.31.84,1.1,1.1,0,0,0,.76.36H33a1.16,1.16,0,0,0,.85-.33,1.21,1.21,0,0,0,.32-.87v-1.36a1.26,1.26,0,0,0-.27-.9,1.2,1.2,0,0,0-.9-.28h-.59A1,1,0,0,0,31.56,162.83Z"/><path class="cls-2" d="M42.88,162.53h-4v-1.24h5.36v1.6l-2.9,9.94H39.88Z"/></g><g class="cls-11"><path class="cls-4" d="M91.45,186.64h-36a.47.47,0,0,1-.47-.46v-36a.47.47,0,0,1,.47-.47h36a.47.47,0,0,1,.47.47v36A.47.47,0,0,1,91.45,186.64Zm-35.52-.93H91V150.66H55.93Z"/></g><path class="cls-2" d="M132.85,186.64h-36a.47.47,0,0,1-.47-.46v-36a.47.47,0,0,1,.47-.47h36a.47.47,0,0,1,.47.47v36A.47.47,0,0,1,132.85,186.64Zm-35.51-.93h35V150.66h-35Z"/><path class="cls-2" d="M107.66,186.18a2.84,2.84,0,1,0-2.84,2.83A2.84,2.84,0,0,0,107.66,186.18Z"/><g class="cls-10"><path class="cls-4" d="M173.67,186.64h-36a.47.47,0,0,1-.47-.46v-36a.47.47,0,0,1,.47-.47h36a.47.47,0,0,1,.47.47v36A.47.47,0,0,1,173.67,186.64Zm-35.52-.93h35V150.66h-35Z"/></g><path class="cls-4" d="M166.63,178.14H144.72a.46.46,0,0,1-.41-.24.47.47,0,0,1,0-.46l11-19a.49.49,0,0,1,.81,0l11,19a.47.47,0,0,1-.41.7Zm-21.1-.94h20.29l-10.15-17.57Z"/><path class="cls-2" d="M214.45,186.64h-36a.47.47,0,0,1-.47-.46v-36a.47.47,0,0,1,.47-.47h36a.47.47,0,0,1,.47.47v36A.47.47,0,0,1,214.45,186.64Zm-35.51-.93H214V150.66H178.94Z"/><g class="cls-3"><path class="cls-4" d="M255.27,186.64h-36a.46.46,0,0,1-.46-.46v-36a.46.46,0,0,1,.46-.47h36a.47.47,0,0,1,.47.47v36A.47.47,0,0,1,255.27,186.64Zm-35.52-.93H254.8V150.66H219.75Z"/></g><rect class="cls-4" x="221.79" y="152.97" width="3.93" height="5.84"/><rect class="cls-4" x="227.23" y="152.97" width="6.64" height="5.84"/><g class="cls-3"><path class="cls-2" d="M296.67,187.11h-36a.94.94,0,0,1-.94-.93v-36a.94.94,0,0,1,.94-.94h36a.94.94,0,0,1,.94.94v36A.94.94,0,0,1,296.67,187.11Zm-35.05-1.87h34.12V151.12H261.62Z"/></g><g class="cls-10"><path class="cls-2" d="M269.93,173v-2.57h-3.4V169l1.77-7.55h1.33L268,169.25h2v-3.76h1.4v3.76h1.24v1.2h-1.24V173Z"/><path class="cls-2" d="M280.27,172.4a3.1,3.1,0,0,1-2.15.62H276v-1.24h2.31a1.31,1.31,0,0,0,.93-.28,1.28,1.28,0,0,0,.29-.92v-2.09a1.16,1.16,0,0,0-.33-.87,1.21,1.21,0,0,0-.87-.32h-2.16v-5.82h4.55v1.24h-3.15v3.34h.68a2.93,2.93,0,0,1,2,.63,2.46,2.46,0,0,1,.73,1.95v1.78A2.6,2.6,0,0,1,280.27,172.4Z"/><path class="cls-2" d="M289.55,172.3a2.58,2.58,0,0,1-1.86.72h-.58a2.55,2.55,0,0,1-1.86-.72,2.78,2.78,0,0,1-.75-2.08v-5.94a2.75,2.75,0,0,1,.75-2.1,3.08,3.08,0,0,1,2.19-.7h2.06v1.25h-2.23a1.37,1.37,0,0,0-1,.37,1.16,1.16,0,0,0-.37.87v1.8h1.61a3,3,0,0,1,2.09.62,2.6,2.6,0,0,1,.68,2v1.82A2.81,2.81,0,0,1,289.55,172.3Zm-3.3-.88a1.25,1.25,0,0,0,.94.36h.41a1.22,1.22,0,0,0,1.29-1.25v-2.44a1,1,0,0,0-.31-.8,1.25,1.25,0,0,0-.89-.29h-1.78v3.53A1.24,1.24,0,0,0,286.25,171.42Z"/></g><g class="cls-11"><path class="cls-4" d="M337.49,186.64h-36a.47.47,0,0,1-.47-.46v-36a.47.47,0,0,1,.47-.47h36a.47.47,0,0,1,.47.47v36A.47.47,0,0,1,337.49,186.64ZM302,185.71h35V150.66H302Z"/></g><path class="cls-2" d="M155.14,75.87a2.35,2.35,0,1,0-2.35-2.35A2.35,2.35,0,0,0,155.14,75.87Z"/><path class="cls-2" d="M157.42,76.34h-4.63A2.74,2.74,0,0,0,149.92,79v6.26a1,1,0,0,0,2.09,0V79.47h.52V95.9a1.19,1.19,0,1,0,2.37,0V86.25h.48V95.9a1.19,1.19,0,1,0,2.36,0V79.47h.53v5.74a1,1,0,0,0,2.08,0V79A2.8,2.8,0,0,0,157.42,76.34Z"/><path class="cls-4" d="M237.27,75.87a2.35,2.35,0,1,0-2.34-2.35A2.35,2.35,0,0,0,237.27,75.87Z"/><path class="cls-4" d="M239.56,76.34h-4.63A2.74,2.74,0,0,0,232.06,79v6.26a1,1,0,0,0,2.09,0V79.47h.52V95.9a1.19,1.19,0,1,0,2.37,0V86.25h.47V95.9a1.19,1.19,0,1,0,2.37,0V79.47h.53v5.74a1,1,0,0,0,2.08,0V79A2.8,2.8,0,0,0,239.56,76.34Z"/><path class="cls-2" d="M237.28,117.13a2.35,2.35,0,1,0-2.35-2.34A2.34,2.34,0,0,0,237.28,117.13Z"/><path class="cls-2" d="M239.56,117.61h-4.63a2.74,2.74,0,0,0-2.87,2.61v6.26a1,1,0,0,0,2.09,0v-5.74h.52v16.43a1.19,1.19,0,1,0,2.37,0v-9.65h.48v9.65a1.19,1.19,0,1,0,2.36,0V120.74h.53v5.74a1,1,0,1,0,2.08,0v-6.26A2.8,2.8,0,0,0,239.56,117.61Z"/><path class="cls-4" d="M113.92,33.87a2.35,2.35,0,1,0-2.34-2.34A2.35,2.35,0,0,0,113.92,33.87Z"/><path class="cls-4" d="M116.21,34.35h-4.63A2.74,2.74,0,0,0,108.71,37v6.25a1,1,0,1,0,2.09,0V37.48h.52V53.91a1.19,1.19,0,1,0,2.37,0V44.26h.47v9.65a1.19,1.19,0,1,0,2.37,0V37.48h.53v5.73a1,1,0,1,0,2.08,0V37A2.8,2.8,0,0,0,116.21,34.35Z"/></svg>