<svg id="Layer_1" data-name="Layer 1" xmlns="http://www.w3.org/2000/svg" viewBox="0 0 489.33 259.9"><defs><style>.cls-1,.cls-2,.cls-3,.cls-5,.cls-6{fill:none;}.cls-1,.cls-2,.cls-3,.cls-4,.cls-5,.cls-6{stroke:#575756;}.cls-1,.cls-3,.cls-4,.cls-5,.cls-6{stroke-linecap:round;stroke-linejoin:round;}.cls-1{stroke-width:0.42px;}.cls-2{stroke-miterlimit:10;stroke-width:0.13px;}.cls-3{stroke-width:0.63px;}.cls-4,.cls-7{fill:#575756;}.cls-4{stroke-width:0.85px;}.cls-5,.cls-6{stroke-width:2.12px;}.cls-6{stroke-dasharray:6.8 6.8;}.cls-10,.cls-11,.cls-8{fill:#ffaec1;}.cls-9{opacity:0.4;}.cls-10{opacity:0.2;}.cls-11{opacity:0.6;}</style></defs><polygon class="cls-1" points="485.01 243.38 454.98 233.2 438.4 243.38 403.66 245.28 365.14 241.06 316.53 255.58 271.9 240.99 215.75 247.27 182.72 236.93 161.08 227.95 134.28 249.69 107.7 237.09 70.06 244.83 42.79 243.38 65.5 224.65 76.28 215.75 77.97 216.55 82.18 218.51 88.7 221.57 135.65 186.66 165.51 201.46 176.73 207.02 293.77 236.59 318.27 232.72 341.41 226.41 382.81 202.66 382.82 202.66 398.02 193.92 417.35 193.92 431.37 185.76 439.79 180.85 449.96 194.92 458.04 206.09 462.54 212.29 485.01 243.38"/><polyline class="cls-1" points="417.35 193.92 398.02 193.92 382.82 202.66 382.81 202.66 356.6 201.46 323.97 210.17 279.94 202.91 249.4 210.17 207.98 205.08 188.29 196.37 165.51 201.46 135.65 186.66 88.7 221.57 82.18 218.51 101.69 201.12 161.71 153.37 170.94 161.1 185.19 163.27 193.87 150.17 219.76 163.27 254.57 165.44 295.23 177.09 342.87 151.64 375.75 171.28 394.65 163.63 413.29 180.85 425.9 184.26 425.9 184.29 431.37 185.76 439.79 180.85 449.96 194.92 458.04 206.09 462.54 212.29 485.01 243.38 454.98 233.2 438.4 243.38 403.66 245.28 365.14 241.06 316.53 255.58 271.9 240.99 215.75 247.27 182.72 236.93 161.08 227.95 134.28 249.69 107.7 237.09 70.06 244.83 42.79 243.38 65.5 224.65"/><polyline class="cls-1" points="76.28 215.75 65.5 224.65 88.7 185.44 96.29 180.85 108.03 161.46 121.31 173.56 140.48 149.33 176.73 125.11 192.95 93.09 207.45 86.8 220.22 66.92 239.22 88.73 252.69 95.04 257.52 101.35 272.36 80.99 286.86 70.31 292.38 46.56 314.82 3.89 325.52 17.96 342.44 57.23 347.96 67.42 355.21 60.63 370.74 80.02 378.35 81.47 396.29 136.73 420.46 167.75 425.9 184.26 413.29 180.85 394.65 163.63 375.75 171.28 342.87 151.64 295.23 177.09 254.57 165.44 219.76 163.27 193.87 150.17 185.19 163.27 170.94 161.1 161.71 153.37"/><polygon class="cls-1" points="206.07 156.35 241.89 130.19 260.53 103.64 272.19 111.64 301.7 92.74 313.61 76.74 322.67 58.92 330.96 76.38 344.94 82.92 358.14 107.63 377.05 128 379.38 150.91 400.61 160.73 413.29 180.85 394.65 163.63 375.75 171.28 342.87 151.64 295.23 177.09 277.88 153.46 256.13 157.45 248.11 146.18 206.07 156.35"/><polygon class="cls-1" points="383.44 97.15 401.64 68.01 417.44 116.37 438.67 125.82 450.06 154.18 463 175.63 467.66 219.26 439.79 180.85 431.37 185.76 425.9 184.26 420.46 167.75 396.29 136.73 383.44 97.15"/><polyline class="cls-2" points="42.79 243.38 88.98 230.62 76.28 215.75 88.7 221.57 88.98 230.62 107.7 237.09 70.06 244.83 88.98 230.62 120.06 220.23 88.7 221.57 120.06 220.23 107.7 237.09 134.28 249.69 120.06 220.23 161.08 227.95 176.73 207.02 135.87 203.98 135.65 186.66 120.06 220.23 135.87 203.98 88.7 221.57 121.03 197.53 135.87 203.98 161.08 227.95 135.87 203.98 165.51 201.46 134.28 249.69"/><polygon class="cls-2" points="88.7 221.57 88.98 230.62 58.25 230.62 88.7 221.57"/><polygon class="cls-2" points="176.73 207.02 182.72 236.93 206.07 228.4 214.38 246.88 245.7 224.45 206.07 228.4 207.98 205.08 176.73 207.02"/><polyline class="cls-2" points="215.35 192 249.4 210.17 207.98 205.08 202.74 179.56 215.35 192 234.53 187.91 219.76 163.27 215.35 192 207.98 205.08 245.7 224.45 249.4 210.17 206.07 228.4 177.18 207.48 188.29 196.37 202.74 179.56 206.07 156.35 185.19 163.27 202.74 179.56 219.76 163.27 239.5 158.25 234.53 187.91 219.76 163.27 239.5 158.25 206.07 156.35 248.11 146.18 239.5 158.25 256.13 157.45 254.57 165.44 258.33 188.27 234.53 187.91 267.92 177.09 254.57 165.44 234.53 187.91 249.4 210.17 258.33 188.27 267.92 177.09 279.94 202.91 295.23 177.09 267.92 177.09 277.88 153.46 254.57 165.44 267.92 177.09 258.33 188.27 279.94 202.91 319.6 192"/><polyline class="cls-2" points="188.29 196.37 168.28 179.21 170.94 161.1 185.19 163.27 168.28 179.21 202.74 179.56 168.28 179.21 165.51 201.46 135.65 186.66 156.21 186.66 165.51 201.46 168.28 179.21 156.21 186.66 150.34 170.68 170.94 161.1 168.28 179.21 150.34 170.68 161.71 153.37 121.31 173.56 150.34 170.68 135.65 186.66 140.48 149.33 150.34 170.68 135.65 186.66 121.31 173.56 121.31 197.53 96.29 180.85 121.31 173.56 108.03 161.46 96.29 180.85 88.7 185.44 120.06 220.23 121.31 197.53 76.28 215.75 82.18 218.51 88.7 185.44 121.31 197.53 108.03 161.46"/><polygon class="cls-2" points="176.73 125.11 216.77 125.93 193.87 150.17 170.94 161.1 176.73 137.52 161.71 153.37 140.48 149.33 176.73 137.52 176.73 125.11"/><polyline class="cls-2" points="193.87 150.17 176.73 137.52 216.77 125.93 241.89 130.19 206.07 156.35 216.77 125.93 206.07 106.57 192.95 93.09 207.45 86.8 206.07 106.57 235.59 102.31 239.22 88.73 221.74 92.54 220.22 66.92 207.45 86.8 221.74 92.54 235.59 102.31 206.07 106.57 221.74 92.54 235.59 102.31 257.52 101.35 252.69 95.04 235.59 102.31 241.89 130.19 216.77 125.93 235.59 102.31 206.07 106.57 176.73 125.11"/><polygon class="cls-2" points="257.52 101.35 245.7 110.12 235.59 102.31 241.89 130.19 245.7 110.12 260.53 103.64 257.52 101.35"/><polyline class="cls-2" points="272.36 80.99 272.36 98.93 257.52 101.35 272.19 111.64 272.36 98.93 291 89.17 286.86 70.31 313.61 76.74 291 89.17 301.7 92.74 286.86 70.31 272.36 98.93 286.91 102.21 291 89.17 307.17 61.1 286.86 70.31 307.17 61.1 322.67 58.92 313.61 76.74 307.17 61.1 292.38 46.56 325.52 17.96 314.82 3.89 322.67 58.92 307.17 61.1 325.52 17.96 342.44 57.23 322.67 58.92 330.96 76.38 342.44 57.23 347.96 67.42 344.94 82.92 330.96 76.38 347.96 67.42 322.67 58.92 325.52 17.96"/><polyline class="cls-2" points="347.96 67.42 370.74 80.02 355.21 60.63 359.35 85.08 370.74 80.02 344.94 82.92 359.35 85.08 358.14 107.63 383.44 97.15 359.35 85.08 370.74 80.02 378.35 81.47 358.14 107.63 390.82 119.89 383.44 97.15 377.05 128 396.29 136.73 393.12 147.77 377.05 128 390.82 119.89 379.38 150.91 393.12 147.77 420.46 167.75 418.88 141.74 438.41 145.29 420.46 167.75 450.06 154.18 438.41 145.29 438.67 125.82 418.88 141.74 417.44 116.37 396.29 136.73 418.88 141.74 400.25 160.37 396.29 136.73 438.67 125.82 417.44 116.37 400.23 104.62 390.82 119.89 396.29 136.73 400.23 104.62 418.88 141.74 417.44 116.37 401.64 68.01 398.27 90.05 383.44 97.15 400.23 104.62 398.27 90.05 417.44 116.37"/><polyline class="cls-2" points="330.96 76.38 320.84 92.36 313.61 76.74 301.7 92.74 320.84 92.36 333.27 112.79 344.94 82.92 320.84 92.36 358.14 107.63 333.27 112.79 316.93 126.11 295.23 116.52 310.54 104.8 301.7 92.74 286.91 102.21 310.54 104.8 320.84 92.36 316.93 126.11 310.54 104.8 333.27 112.79 352.28 143.64 377.05 128 358.14 107.63 352.28 143.64 342.87 151.64 375.75 171.28 379.38 150.91 352.28 143.64 375.75 171.28 342.87 151.64 305.75 143.64 316.93 126.11 342.87 151.64 352.28 143.64 316.93 126.11 281.24 137.47 295.23 116.52 272.19 111.64 257.52 136.23 281.24 137.47 272.19 111.64 286.91 102.21 295.23 116.52 281.24 137.47 305.75 143.64 352.28 143.64 342.87 151.64 302.74 159.14 305.75 143.64 277.88 153.46 295.23 177.09 302.74 159.14 277.88 153.46 281.24 137.47 302.74 159.14 281.24 137.47 256.13 157.45 257.52 136.23 247.84 145.91 241.89 130.19 272.19 111.64 257.52 136.23 245.7 110.12 272.19 111.64 257.52 136.23 247.84 145.91 216.77 125.93"/><polygon class="cls-2" points="245.7 224.45 271.9 240.99 293.77 236.59 279.94 202.91 249.4 210.17 293.77 236.59 279.94 202.91 245.7 224.45"/><polygon class="cls-2" points="279.94 202.91 299.53 215.27 323.97 210.17 293.77 236.59 299.53 215.27 319.6 192 295.23 177.09 279.94 202.91"/><polyline class="cls-2" points="293.77 236.59 316.53 255.58 318.27 232.72 323.97 210.17 341.41 226.41 365.14 241.06 316.53 255.58 341.41 226.41 356.6 201.46 341.41 226.41 381.23 228.4 382.81 202.66 381.23 228.4 365.14 241.06 403.66 245.28 381.23 228.4 400.23 216.68 382.81 202.66"/><polyline class="cls-2" points="463 175.63 439.79 180.85 420.46 167.75 450.06 154.18 439.79 180.85 425.9 184.26 417.35 193.92 413.29 180.85 420.46 167.75 400.61 160.73 394.65 163.63 381.76 187.02 375.75 171.28 356.6 201.46 381.76 187.02 382.81 202.66 398.02 193.92 400.23 216.68 429.71 219.75 403.66 245.28 400.23 216.68 429.71 219.75 438.4 243.38 454.98 233.2 429.71 219.75 417.35 193.92 439.79 180.85 436.99 201.46 417.35 193.92 436.99 201.46 453.28 199.51 467.66 219.26 454.98 233.2 436.99 201.46 429.71 219.75 467.66 219.26"/><polygon class="cls-2" points="375.75 171.28 338.07 174.59 342.87 151.64 295.23 177.09 338.07 174.59 319.6 192 348.65 188.98 338.07 174.59 348.65 188.98 381.76 187.02 356.6 201.46 348.65 188.98 323.97 210.17 319.6 192 338.07 174.59 348.65 188.98 375.75 171.28"/><polygon class="cls-2" points="381.76 187.02 375.75 171.28 413.29 180.85 398.02 193.92 381.76 187.02"/><polyline class="cls-3" points="42.55 243.38 70.06 244.83 107.7 237.09 134.28 249.69 161.08 227.95 182.72 236.93 215.75 247.27 271.9 240.99 316.53 255.58 365.14 241.06 403.66 245.28 438.4 243.38 454.98 233.2 485.01 243.38"/><polyline class="cls-3" points="347.96 67.42 355.21 60.63 370.74 80.02 378.35 81.47 383.44 97.15 401.64 68.01 417.44 116.37 438.67 125.82 450.06 154.18 463 175.63 467.66 219.26 485.01 243.38"/><polyline class="cls-3" points="42.79 243.38 65.5 224.65 88.7 185.44 96.29 180.85 108.03 161.46 121.31 173.56 140.48 149.33 176.73 125.11 192.95 93.09 207.45 86.8 220.22 66.92 239.22 88.73 252.69 95.04 257.52 101.35 272.36 80.99 286.86 70.31 292.38 46.56 314.82 3.89 318.21 8.34"/><path class="cls-4" d="M125.21,172.66a3.9,3.9,0,1,1-3.9-3.9A3.91,3.91,0,0,1,125.21,172.66Z"/><circle class="cls-4" cx="88.98" cy="186.01" r="3.9"/><path class="cls-4" d="M144.83,150.17a3.9,3.9,0,1,1-3.9-3.9A3.89,3.89,0,0,1,144.83,150.17Z"/><path class="cls-4" d="M46.45,243.38a3.9,3.9,0,1,1-3.9-3.9A3.9,3.9,0,0,1,46.45,243.38Z"/><circle class="cls-4" cx="107.46" cy="237.09" r="3.9"/><path class="cls-4" d="M137.94,249.69a3.9,3.9,0,1,1-3.9-3.9A3.9,3.9,0,0,1,137.94,249.69Z"/><circle class="cls-4" cx="160.85" cy="228.66" r="3.9"/><path class="cls-4" d="M275.57,241a3.9,3.9,0,1,1-3.9-3.9A3.9,3.9,0,0,1,275.57,241Z"/><path class="cls-4" d="M220.11,247.11a3.9,3.9,0,1,1-3.9-3.9A3.9,3.9,0,0,1,220.11,247.11Z"/><path class="cls-4" d="M320.2,255.58a3.9,3.9,0,1,1-3.9-3.9A3.91,3.91,0,0,1,320.2,255.58Z"/><circle class="cls-4" cx="364.9" cy="241.06" r="3.9"/><path class="cls-4" d="M459.08,233.74a3.9,3.9,0,1,1-3.9-3.9A3.91,3.91,0,0,1,459.08,233.74Z"/><path class="cls-4" d="M442.14,243.38a3.9,3.9,0,1,1-3.9-3.9A3.91,3.91,0,0,1,442.14,243.38Z"/><circle class="cls-4" cx="403.66" cy="245.28" r="3.9"/><circle class="cls-4" cx="257.29" cy="101.37" r="3.9"/><path class="cls-4" d="M242.88,88.75a3.9,3.9,0,1,1-3.9-3.9A3.9,3.9,0,0,1,242.88,88.75Z"/><circle class="cls-4" cx="193.63" cy="93.09" r="3.9"/><circle class="cls-4" cx="108.03" cy="162.71" r="3.9"/><path class="cls-4" d="M405.05,69.09a3.9,3.9,0,1,1-3.9-3.9A3.91,3.91,0,0,1,405.05,69.09Z"/><circle class="cls-4" cx="355.05" cy="61.07" r="3.9"/><circle class="cls-4" cx="219.97" cy="67.83" r="3.9"/><circle class="cls-4" cx="284.91" cy="69.65" r="3.9"/><path class="cls-4" d="M296.1,46.49a3.9,3.9,0,1,1-3.9-3.9A3.89,3.89,0,0,1,296.1,46.49Z"/><path class="cls-4" d="M381.76,82.43a3.9,3.9,0,1,1-3.9-3.9A3.89,3.89,0,0,1,381.76,82.43Z"/><path class="cls-4" d="M421.36,115.68a3.91,3.91,0,1,1-3.91-3.9A3.91,3.91,0,0,1,421.36,115.68Z"/><circle class="cls-4" cx="438.49" cy="126.05" r="3.9"/><path class="cls-4" d="M467,176.23a3.9,3.9,0,1,1-3.9-3.9A3.91,3.91,0,0,1,467,176.23Z"/><circle class="cls-4" cx="485.01" cy="243.38" r="3.9"/><line class="cls-5" x1="314.46" y1="4.32" x2="316.59" y2="6.95"/><path class="cls-6" d="M320.87,12.23l4.21,5.19a5.46,5.46,0,0,1,.73,1.17l21.42,47.22a5.32,5.32,0,0,1,.37,3.34L345.3,80.1A5.39,5.39,0,0,1,342,84l-19.88,8a5.5,5.5,0,0,0-2.08,1.49l-7.81,9.06a5.38,5.38,0,0,0-1.07,5.12l5,16.06a5.43,5.43,0,0,1-.6,4.51l-8.84,13.85a5.38,5.38,0,0,1-2.76,2.19l-19.35,6.81a5.4,5.4,0,0,0-2.61,8.22l11.85,16.65a5.3,5.3,0,0,0,1.6,1.49L318,191.09a5.38,5.38,0,0,0,3.37.75l23.73-2.52a5.41,5.41,0,0,1,5.09,2.41l4.5,6.88a5.4,5.4,0,0,1,.1,5.76l-12.3,20.2a5.4,5.4,0,0,1-3.21,2.4l-21,5.68a5.41,5.41,0,0,1-.55.12l-22.9,3.65a5.48,5.48,0,0,1-2.17-.1l-43.76-11.06a5.43,5.43,0,0,0-4.38.78l-28.34,21.07"/><circle class="cls-4" cx="314.46" cy="4.32" r="3.9"/><rect class="cls-7" x="9.38" y="250.62" width="7.82" height="0.78"/><rect class="cls-7" x="9.38" y="242.28" width="7.82" height="0.78"/><rect class="cls-7" x="9.38" y="233.94" width="7.82" height="0.78"/><rect class="cls-7" x="9.38" y="225.6" width="7.82" height="0.78"/><rect class="cls-7" x="9.38" y="217.26" width="7.82" height="0.78"/><rect class="cls-7" x="9.38" y="208.92" width="7.82" height="0.78"/><rect class="cls-7" x="9.38" y="200.58" width="7.82" height="0.78"/><rect class="cls-7" x="9.38" y="192.24" width="7.82" height="0.78"/><rect class="cls-7" x="9.38" y="183.9" width="7.82" height="0.78"/><rect class="cls-7" x="9.38" y="175.56" width="7.82" height="0.78"/><rect class="cls-7" x="9.38" y="167.22" width="7.82" height="0.78"/><rect class="cls-7" x="9.38" y="158.88" width="7.82" height="0.78"/><rect class="cls-7" x="9.38" y="150.54" width="7.82" height="0.78"/><rect class="cls-7" x="9.38" y="142.2" width="7.82" height="0.78"/><rect class="cls-7" x="9.38" y="133.86" width="7.82" height="0.78"/><rect class="cls-7" x="9.38" y="125.52" width="7.82" height="0.78"/><rect class="cls-7" x="9.38" y="117.18" width="7.82" height="0.78"/><rect class="cls-7" x="9.38" y="108.84" width="7.82" height="0.78"/><rect class="cls-7" x="9.38" y="100.5" width="7.82" height="0.78"/><rect class="cls-7" x="9.38" y="92.16" width="7.82" height="0.78"/><rect class="cls-7" x="9.38" y="83.82" width="7.82" height="0.78"/><rect class="cls-7" x="9.38" y="75.48" width="7.82" height="0.78"/><rect class="cls-7" x="9.38" y="67.14" width="7.82" height="0.78"/><rect class="cls-7" x="9.38" y="58.8" width="7.82" height="0.78"/><rect class="cls-7" x="9.38" y="50.46" width="7.82" height="0.78"/><rect class="cls-7" x="9.38" y="42.12" width="7.82" height="0.78"/><rect class="cls-7" x="9.38" y="33.78" width="7.82" height="0.78"/><rect class="cls-7" x="9.38" y="25.44" width="7.82" height="0.78"/><rect class="cls-7" x="9.38" y="17.1" width="7.82" height="0.78"/><rect class="cls-7" x="9.38" y="8.76" width="7.82" height="0.78"/><rect class="cls-7" x="9.38" y="0.42" width="7.82" height="0.78"/><rect class="cls-7" x="12.51" y="0.81" width="1.56" height="250.2"/><polygon class="cls-7" points="0 97.69 6.04 101.94 0 106.18 0 97.69"/><polygon class="cls-7" points="26.58 97.69 20.55 101.94 26.58 106.18 26.58 97.69"/><path class="cls-7" d="M16.94,114.25H9.64a3.85,3.85,0,0,1-4-3.71V93.34a3.86,3.86,0,0,1,4-3.72h7.3a3.86,3.86,0,0,1,4,3.72v17.2A3.86,3.86,0,0,1,16.94,114.25ZM9.64,90.79a2.69,2.69,0,0,0-2.8,2.55v17.2a2.69,2.69,0,0,0,2.8,2.54h7.3a2.68,2.68,0,0,0,2.8-2.54V93.34a2.68,2.68,0,0,0-2.8-2.55Z"/><path class="cls-8" d="M16.94,112.1H9.64a1.7,1.7,0,0,1-1.82-1.56V93.34a1.7,1.7,0,0,1,1.82-1.57h7.3a1.7,1.7,0,0,1,1.82,1.57v17.2A1.7,1.7,0,0,1,16.94,112.1Z"/><path class="cls-8" d="M85.9,115.49H69.15a.38.38,0,0,1-.38-.38V63.36a.37.37,0,0,1,.38-.37H85.9a.37.37,0,0,1,.38.37.38.38,0,0,1-.38.38H69.53v51H85.9a.37.37,0,0,1,.38.37A.38.38,0,0,1,85.9,115.49Z"/><path class="cls-8" d="M144.94,115.49H128.19a.38.38,0,0,1-.38-.38.37.37,0,0,1,.38-.37h16.37v-51H128.19a.38.38,0,0,1-.38-.38.37.37,0,0,1,.38-.37h16.75a.36.36,0,0,1,.37.37v51.75A.37.37,0,0,1,144.94,115.49Z"/><path class="cls-8" d="M107,132.11h0a.36.36,0,0,1-.32-.19L94.11,110.09a.37.37,0,0,1,0-.38.37.37,0,0,1,.33-.19h25.21a.37.37,0,0,1,.33.19.37.37,0,0,1,0,.38l-12.61,21.83A.37.37,0,0,1,107,132.11Zm-12-21.83L107,131l12-20.7Z"/><g class="cls-9"><polygon class="cls-7" points="113.18 113.86 107.04 124.49 100.91 113.86 113.18 113.86"/></g><rect class="cls-10" x="70.55" y="118.33" width="4.53" height="14.06"/><rect class="cls-11" x="79.36" y="118.33" width="4.53" height="14.06"/><rect class="cls-8" x="88.17" y="118.33" width="4.53" height="14.06"/><rect class="cls-8" x="121.12" y="118.33" width="4.53" height="14.06"/><rect class="cls-11" x="129.93" y="118.33" width="4.53" height="14.06"/><rect class="cls-10" x="138.75" y="118.33" width="4.53" height="14.06"/><path class="cls-8" d="M115.93,79.13a2.64,2.64,0,0,1-1.8.56h-1.91v-1h2a1.16,1.16,0,0,0,.81-.29,1,1,0,0,0,.31-.7V76.33a1,1,0,0,0-.21-.64.79.79,0,0,0-.63-.24h-.4a2.14,2.14,0,0,1-1.58-.57,2.25,2.25,0,0,1-.58-1.67v-.5a2.12,2.12,0,0,1,.63-1.68,2.6,2.6,0,0,1,1.8-.56h1.92v1h-2.06a1.16,1.16,0,0,0-.81.29.91.91,0,0,0-.31.7v1a.93.93,0,0,0,.27.68.94.94,0,0,0,.7.27h.41A2,2,0,0,1,116,75a2.25,2.25,0,0,1,.53,1.63v.87A2.12,2.12,0,0,1,115.93,79.13Z"/><path class="cls-8" d="M120.25,77.36l-.52,2.33h-1.2l2.28-9.22h1.55l2.24,9.22h-1.2l-.52-2.33Zm2.42-1-1.11-5-1.09,5Z"/><path class="cls-8" d="M128.25,79.69V71.47h-2.14v-1h5.46v1h-2.15v8.22Z"/><path class="cls-7" d="M94.87,98.65a3.55,3.55,0,0,1-2.59.92h-.42a3.59,3.59,0,0,1-2.6-.92,3.52,3.52,0,0,1-1-2.67V88.36a3.58,3.58,0,0,1,1-2.69,3.67,3.67,0,0,1,2.61-.91h.42a3.63,3.63,0,0,1,2.6.91,3.55,3.55,0,0,1,1,2.69V96A3.52,3.52,0,0,1,94.87,98.65ZM93.54,86.83a1.74,1.74,0,0,0-1.26-.48h-.42a1.74,1.74,0,0,0-1.26.48A1.5,1.5,0,0,0,90.1,88v5.73L94,88A1.49,1.49,0,0,0,93.54,86.83ZM90.6,97.51a1.74,1.74,0,0,0,1.26.48h.42a1.74,1.74,0,0,0,1.26-.48A1.51,1.51,0,0,0,94,96.38V90.67L90.1,96.38A1.52,1.52,0,0,0,90.6,97.51Z"/><path class="cls-7" d="M102.92,98V86.44l-3,1.1V85.82l2.77-1.06h2V98H107v1.58h-6.87V98Z"/><path class="cls-7" d="M117.79,82.44h1.78L112,101.9h-1.78Z"/><path class="cls-7" d="M129.15,98.64a3.27,3.27,0,0,1-2.39.93H126a3.27,3.27,0,0,1-2.39-.93,3.53,3.53,0,0,1-.95-2.66V88.36a3.53,3.53,0,0,1,1-2.7,4,4,0,0,1,2.8-.9h2.65v1.61h-2.86a1.78,1.78,0,0,0-1.27.47,1.5,1.5,0,0,0-.48,1.12v2.3h2.07a3.8,3.8,0,0,1,2.68.81,3.35,3.35,0,0,1,.87,2.58V96A3.57,3.57,0,0,1,129.15,98.64Zm-4.23-1.12a1.6,1.6,0,0,0,1.21.47h.52a1.6,1.6,0,0,0,1.21-.47,1.57,1.57,0,0,0,.44-1.14V93.25a1.36,1.36,0,0,0-.39-1,1.64,1.64,0,0,0-1.15-.37h-2.28v4.53A1.57,1.57,0,0,0,124.92,97.52Z"/></svg>