<svg id="Layer_1" data-name="Layer 1" xmlns="http://www.w3.org/2000/svg" xmlns:xlink="http://www.w3.org/1999/xlink" viewBox="0 0 484.34 191.05"><defs><style>.cls-1,.cls-4,.cls-5{fill:none;stroke:#575756;stroke-miterlimit:10;}.cls-1{stroke-width:0.78px;}.cls-2{fill:url(#linear-gradient);}.cls-3{fill:url(#linear-gradient-2);}.cls-4{stroke-width:0.75px;}.cls-6{fill:#575756;}.cls-7{fill:#faa996;}</style><linearGradient id="linear-gradient" x1="69.98" y1="68.48" x2="75.32" y2="68.48" gradientUnits="userSpaceOnUse"><stop offset="0" stop-color="#575756"/><stop offset="1" stop-color="#575756"/></linearGradient><linearGradient id="linear-gradient-2" x1="135.79" y1="2.67" x2="141.13" y2="2.67" xlink:href="#linear-gradient"/></defs><rect class="cls-1" x="72.65" y="2.44" width="65.81" height="65.81"/><rect class="cls-1" x="64.99" y="11.26" width="65.81" height="65.81"/><rect class="cls-2" x="69.98" y="65.81" width="5.34" height="5.34"/><rect class="cls-3" x="135.79" width="5.34" height="5.34"/><rect class="cls-4" x="165.25" y="30.87" width="234.87" height="159.81"/><line class="cls-4" x1="165.85" y1="45.39" x2="400.12" y2="45.39"/><line class="cls-4" x1="165.85" y1="59.92" x2="400.12" y2="59.92"/><line class="cls-4" x1="165.85" y1="74.45" x2="400.12" y2="74.45"/><line class="cls-4" x1="165.85" y1="88.98" x2="400.12" y2="88.98"/><line class="cls-4" x1="165.85" y1="103.51" x2="400.12" y2="103.51"/><line class="cls-4" x1="165.85" y1="118.03" x2="400.12" y2="118.03"/><line class="cls-4" x1="165.85" y1="132.56" x2="400.12" y2="132.56"/><line class="cls-4" x1="165.85" y1="147.09" x2="400.12" y2="147.09"/><line class="cls-4" x1="165.85" y1="161.62" x2="400.12" y2="161.62"/><line class="cls-4" x1="165.85" y1="176.15" x2="400.12" y2="176.15"/><line class="cls-4" x1="183.41" y1="190.52" x2="183.41" y2="30.56"/><line class="cls-4" x1="205.53" y1="190.52" x2="205.53" y2="30.56"/><line class="cls-4" x1="227.66" y1="190.52" x2="227.66" y2="30.56"/><line class="cls-4" x1="249.79" y1="190.52" x2="249.79" y2="30.56"/><line class="cls-4" x1="271.92" y1="190.52" x2="271.92" y2="30.56"/><line class="cls-4" x1="294.05" y1="190.52" x2="294.05" y2="30.56"/><line class="cls-4" x1="316.18" y1="190.52" x2="316.18" y2="30.56"/><line class="cls-4" x1="338.3" y1="190.52" x2="338.3" y2="30.56"/><line class="cls-4" x1="360.43" y1="190.52" x2="360.43" y2="30.56"/><line class="cls-4" x1="382.56" y1="190.52" x2="382.56" y2="30.56"/><line class="cls-5" x1="425.77" y1="14.48" x2="425.77" y2="29.36"/><line class="cls-5" x1="418.33" y1="21.92" x2="433.21" y2="21.92"/><line class="cls-5" x1="466.32" y1="14.48" x2="466.32" y2="29.36"/><line class="cls-5" x1="458.88" y1="21.92" x2="473.76" y2="21.92"/><line class="cls-5" x1="425.77" y1="45.36" x2="425.77" y2="60.25"/><line class="cls-5" x1="418.33" y1="52.8" x2="433.21" y2="52.8"/><line class="cls-5" x1="466.32" y1="45.36" x2="466.32" y2="60.25"/><line class="cls-5" x1="458.88" y1="52.8" x2="473.76" y2="52.8"/><line class="cls-5" x1="425.77" y1="76.24" x2="425.77" y2="91.13"/><line class="cls-5" x1="418.33" y1="83.69" x2="433.21" y2="83.69"/><line class="cls-5" x1="466.32" y1="76.24" x2="466.32" y2="91.13"/><line class="cls-5" x1="458.88" y1="83.69" x2="473.76" y2="83.69"/><line class="cls-5" x1="425.77" y1="107.13" x2="425.77" y2="122.01"/><line class="cls-5" x1="418.33" y1="114.57" x2="433.21" y2="114.57"/><line class="cls-5" x1="466.32" y1="107.13" x2="466.32" y2="122.01"/><line class="cls-5" x1="458.88" y1="114.57" x2="473.76" y2="114.57"/><path class="cls-6" d="M453.31,141.19a2.09,2.09,0,1,1-2.09-2.09A2.09,2.09,0,0,1,453.31,141.19Z"/><path class="cls-1" d="M468.63,141.19a2.09,2.09,0,1,1-2.09-2.09A2.09,2.09,0,0,1,468.63,141.19Z"/><path class="cls-1" d="M484,141.19a2.09,2.09,0,1,1-2.09-2.09A2.09,2.09,0,0,1,484,141.19Z"/><circle class="cls-1" cx="435.9" cy="154.42" r="2.09"/><path class="cls-1" d="M453.31,154.42a2.09,2.09,0,1,1-2.09-2.09A2.09,2.09,0,0,1,453.31,154.42Z"/><path class="cls-1" d="M468.63,154.42a2.09,2.09,0,1,1-2.09-2.09A2.09,2.09,0,0,1,468.63,154.42Z"/><path class="cls-6" d="M468.63,166.72a2.09,2.09,0,1,1-2.09-2.09A2.08,2.08,0,0,1,468.63,166.72Z"/><path class="cls-6" d="M109.15,145.21a2.09,2.09,0,1,1-2.09,2.09A2.09,2.09,0,0,1,109.15,145.21Z"/><path class="cls-1" d="M109.15,129.89a2.09,2.09,0,1,1-2.09,2.09A2.09,2.09,0,0,1,109.15,129.89Z"/><path class="cls-1" d="M109.15,114.57a2.09,2.09,0,1,1-2.09,2.09A2.09,2.09,0,0,1,109.15,114.57Z"/><path class="cls-1" d="M122.38,160.53a2.09,2.09,0,1,1-2.09,2.09A2.09,2.09,0,0,1,122.38,160.53Z"/><path class="cls-1" d="M122.38,145.21a2.09,2.09,0,1,1-2.09,2.09A2.09,2.09,0,0,1,122.38,145.21Z"/><path class="cls-1" d="M122.38,129.89a2.09,2.09,0,1,1-2.09,2.09A2.09,2.09,0,0,1,122.38,129.89Z"/><path class="cls-6" d="M134.68,129.89a2.09,2.09,0,1,1-2.09,2.09A2.09,2.09,0,0,1,134.68,129.89Z"/><rect class="cls-7" x="280.31" y="6.62" width="4.24" height="4.24"/><rect class="cls-7" x="302.7" y="6.62" width="4.24" height="4.24"/><rect class="cls-7" x="325.08" y="6.62" width="4.24" height="4.24"/><rect class="cls-7" x="347.47" y="6.62" width="4.24" height="4.24"/><rect class="cls-7" x="368.85" y="6.62" width="4.24" height="4.24"/><rect class="cls-7" x="389.24" y="6.62" width="4.24" height="4.24"/><rect class="cls-7" x="280.31" y="21.23" width="4.24" height="4.24"/><rect class="cls-7" x="302.7" y="21.23" width="4.24" height="4.24"/><rect class="cls-7" x="325.08" y="21.23" width="4.24" height="4.24"/><rect class="cls-7" x="347.47" y="21.23" width="4.24" height="4.24"/><rect class="cls-7" x="368.85" y="21.23" width="4.24" height="4.24"/><rect class="cls-7" x="389.24" y="21.23" width="4.24" height="4.24"/><rect class="cls-7" x="280.31" y="35.84" width="4.24" height="4.24"/><rect class="cls-7" x="302.7" y="35.84" width="4.24" height="4.24"/><rect class="cls-7" x="325.08" y="35.84" width="4.24" height="4.24"/><rect class="cls-7" x="347.47" y="35.84" width="4.24" height="4.24"/><rect class="cls-7" x="368.85" y="35.84" width="4.24" height="4.24"/><rect class="cls-7" x="389.24" y="35.84" width="4.24" height="4.24"/><rect class="cls-7" x="280.31" y="50.45" width="4.24" height="4.24"/><rect class="cls-7" x="302.7" y="50.45" width="4.24" height="4.24"/><rect class="cls-7" x="325.08" y="50.45" width="4.24" height="4.24"/><rect class="cls-7" x="347.47" y="50.45" width="4.24" height="4.24"/><rect class="cls-7" x="368.85" y="50.45" width="4.24" height="4.24"/><rect class="cls-7" x="389.24" y="50.45" width="4.24" height="4.24"/><rect class="cls-7" x="280.31" y="64.06" width="4.24" height="4.24"/><rect class="cls-7" x="302.7" y="64.06" width="4.24" height="4.24"/><rect class="cls-7" x="325.08" y="64.06" width="4.24" height="4.24"/><rect class="cls-7" x="347.47" y="64.06" width="4.24" height="4.24"/><rect class="cls-7" x="368.85" y="64.06" width="4.24" height="4.24"/><rect class="cls-7" x="389.24" y="64.06" width="4.24" height="4.24"/><rect class="cls-7" x="280.31" y="78.66" width="4.24" height="4.24"/><rect class="cls-7" x="302.7" y="78.66" width="4.24" height="4.24"/><rect class="cls-7" x="325.08" y="78.66" width="4.24" height="4.24"/><rect class="cls-7" x="347.47" y="78.66" width="4.24" height="4.24"/><rect class="cls-7" x="368.85" y="78.66" width="4.24" height="4.24"/><rect class="cls-7" x="389.24" y="78.66" width="4.24" height="4.24"/><rect class="cls-7" x="280.31" y="91.27" width="4.24" height="4.24"/><rect class="cls-7" x="302.7" y="91.27" width="4.24" height="4.24"/><rect class="cls-7" x="325.08" y="91.27" width="4.24" height="4.24"/><rect class="cls-7" x="347.47" y="91.27" width="4.24" height="4.24"/><rect class="cls-7" x="368.85" y="91.27" width="4.24" height="4.24"/><rect class="cls-7" x="389.24" y="91.27" width="4.24" height="4.24"/><rect class="cls-6" x="10.82" y="181.34" width="5.22" height="0.59"/><rect class="cls-6" x="10.82" y="152.69" width="5.22" height="0.59"/><rect class="cls-6" x="10.82" y="124.04" width="5.22" height="0.59"/><rect class="cls-6" x="10.82" y="95.39" width="5.22" height="0.59"/><rect class="cls-6" x="10.82" y="66.74" width="5.22" height="0.59"/><rect class="cls-6" x="10.82" y="38.09" width="5.22" height="0.59"/><rect class="cls-6" x="10.82" y="9.45" width="5.22" height="0.59"/><path class="cls-6" d="M4.71,179.11a.84.84,0,0,1,.82.84v2.59a.84.84,0,0,1-.82.84H2.12a.84.84,0,0,1-.82-.84V180a.84.84,0,0,1,.82-.84Zm-2.59.8a0,0,0,0,0,0,0v1.91l2.32-2Zm2.59,2.67s0,0,0,0v-1.91l-2.32,2Z"/><path class="cls-6" d="M7.2,179.11h.86v4.27H7.28v-3.13l-.34.4h-1Z"/><path class="cls-6" d="M3.41,150.48a.84.84,0,0,1,.82.84v2.59a.85.85,0,0,1-.82.85H.82a.85.85,0,0,1-.82-.85v-2.59a.84.84,0,0,1,.82-.84Zm-2.59.8a0,0,0,0,0,0,0v1.91l2.32-1.95ZM3.41,154s0,0,0,0V152L1.13,154Z"/><path class="cls-6" d="M8.35,150.48a.82.82,0,0,1,.82.82v.95a.82.82,0,0,1-.82.82H5.76a0,0,0,0,0,0,0v.83a0,0,0,0,0,0,0H9.17v.78H4.94v-1.65a.82.82,0,0,1,.82-.82H8.35a0,0,0,0,0,.05,0v-.95a0,0,0,0,0-.05,0H5.76a0,0,0,0,0,0,0v.32H4.94v-.32a.82.82,0,0,1,.82-.82Z"/><path class="cls-6" d="M3.42,121.86a.83.83,0,0,1,.82.83v2.59a.84.84,0,0,1-.82.85H.83a.84.84,0,0,1-.82-.85v-2.59a.83.83,0,0,1,.82-.83Zm-2.59.79a0,0,0,0,0,0,0v1.91l2.32-1.95Zm2.59,2.68s0,0,0,0v-1.91l-2.32,2Z"/><path class="cls-6" d="M9,123.53a.73.73,0,0,1-.06.3.82.82,0,0,1,.22.55v.93a.82.82,0,0,1-.81.82H5.75a.82.82,0,0,1-.82-.82v-.26h.78v.26a0,0,0,0,0,0,0h2.6s0,0,0,0v-.93s0,0,0,0H5.67v-.78H8.18s0,0,0,0v-.86a0,0,0,0,0,0,0H5.75a0,0,0,0,0,0,0V123H4.93v-.31a.82.82,0,0,1,.82-.81H8.18a.82.82,0,0,1,.82.81Z"/><path class="cls-6" d="M3.71,93.23a.83.83,0,0,1,.82.83v2.6a.84.84,0,0,1-.82.84H1.11a.83.83,0,0,1-.81-.84v-2.6a.82.82,0,0,1,.81-.83ZM1.11,94a0,0,0,0,0,0,0V96L3.4,94Zm2.6,2.68a0,0,0,0,0,0,0V94.75l-2.33,2Z"/><path class="cls-6" d="M9,95.65v.78H8.4V97.5H7.62V96.43H4.94V95.7l2.73-2.47H8.4v2.42Zm-2.85,0H7.62v-1.2Z"/><path class="cls-6" d="M3.41,64.6a.84.84,0,0,1,.82.84V68a.84.84,0,0,1-.82.84H.82A.84.84,0,0,1,0,68V65.44a.84.84,0,0,1,.82-.84Zm-2.59.79a0,0,0,0,0,0,0v1.91l2.32-2Zm2.59,2.68a0,0,0,0,0,0,0V66.12L1.13,68.07Z"/><path class="cls-6" d="M5.72,66.26a0,0,0,0,0,0,0H8.35a.82.82,0,0,1,.82.82v.94a.82.82,0,0,1-.82.82H5.76a.82.82,0,0,1-.82-.82v-.32h.78v.32a0,0,0,0,0,0,0H8.35s.05,0,.05,0v-.94a0,0,0,0,0-.05,0H4.94V64.6H9.17v.78H5.76a0,0,0,0,0,0,0Z"/><path class="cls-6" d="M3.44,36a.84.84,0,0,1,.82.84V39.4a.84.84,0,0,1-.82.84H.85A.84.84,0,0,1,0,39.4V36.81A.84.84,0,0,1,.85,36Zm-2.59.8a0,0,0,0,0,0,0v1.91l2.32-1.95Zm2.59,2.67a0,0,0,0,0,0,0V37.49L1.16,39.44Z"/><path class="cls-6" d="M8.38,37.66a.82.82,0,0,1,.82.82v.94a.82.82,0,0,1-.82.82H5.79A.82.82,0,0,1,5,39.42V36.79A.82.82,0,0,1,5.79,36H8.53v.78H5.79a0,0,0,0,0,0,0v.84a0,0,0,0,0,0,0Zm0,.82a0,0,0,0,0,0,0H5.75v1a0,0,0,0,0,0,0H8.38a0,0,0,0,0,0,0Z"/><path class="cls-6" d="M3.92,7.34a.83.83,0,0,1,.81.84v2.59a.83.83,0,0,1-.81.84H1.32a.84.84,0,0,1-.82-.84V8.18a.84.84,0,0,1,.82-.84Zm-2.6.8a0,0,0,0,0,0,0v1.91L3.61,8.14Zm2.6,2.67a0,0,0,0,0,0,0V8.86l-2.33,2Z"/><path class="cls-6" d="M7.86,7.34a.82.82,0,0,1,.82.82v3.45H7.9V8.16a0,0,0,0,0,0,0H5.13V7.34Z"/><rect class="cls-6" x="15.44" y="0.85" width="1.19" height="189.67"/><rect class="cls-6" x="22.08" y="6.19" width="20.45" height="7.11"/><path class="cls-6" d="M42.82,13.59h-21V5.89h21ZM22.38,13H42.23V6.48H22.38Z"/><path class="cls-6" d="M42.82,42.2h-21V34.5h21Zm-20.44-.59H42.23V35.09H22.38Z"/><rect class="cls-6" x="22.08" y="63.4" width="20.45" height="7.11"/><path class="cls-6" d="M42.82,70.81h-21v-7.7h21Zm-20.44-.59H42.23V63.7H22.38Z"/><path class="cls-6" d="M42.82,99.42h-21v-7.7h21Zm-20.44-.59H42.23V92.31H22.38Z"/><rect class="cls-6" x="22.08" y="120.62" width="20.45" height="7.11"/><path class="cls-6" d="M42.82,128h-21v-7.7h21Zm-20.44-.59H42.23v-6.52H22.38Z"/><rect class="cls-6" x="22.08" y="149.23" width="20.45" height="7.11"/><path class="cls-6" d="M42.82,156.64h-21v-7.71h21Zm-20.44-.59H42.23v-6.52H22.38Z"/><path class="cls-6" d="M42.82,185.25h-21v-7.71h21Zm-20.44-.59H42.23v-6.52H22.38Z"/></svg>