<svg id="Layer_1" data-name="Layer 1" xmlns="http://www.w3.org/2000/svg" xmlns:xlink="http://www.w3.org/1999/xlink" viewBox="0 0 398.48 189.01"><defs><style>.cls-1{fill:none;}.cls-2{fill:#575756;}.cls-3{fill:#eeb88a;}.cls-4{opacity:0.4;}.cls-5{opacity:0.6;}.cls-6{clip-path:url(#clip-path);}.cls-7{opacity:0.8;}.cls-8{clip-path:url(#clip-path-2);}</style><clipPath id="clip-path"><path class="cls-1" d="M352.26,88.15H45.87l.18-21.45c10.51-6,17.61-11.64,28.47-11.64C96.6,55.06,135,76.68,154.6,76c0,0,25.4,1.64,55.76,4.81,10.75,1.12,48,.82,68.73,3s56.94,21.94,73.17,23.44Z"/></clipPath><clipPath id="clip-path-2"><rect class="cls-1" x="126.74" y="147.7" width="225.52" height="7.27"/></clipPath></defs><path class="cls-2" d="M372.57,1.08H238.22a.54.54,0,0,1,0-1.08H372.57a.54.54,0,0,1,.54.54A.54.54,0,0,1,372.57,1.08Z"/><path class="cls-3" d="M372.09,179.3H142.52a.54.54,0,0,1-.54-.54.54.54,0,0,1,.54-.54H371.86l25.54-25.54V31.85L372.67,7.12H238.22a.54.54,0,0,1,0-1.08H372.89a.55.55,0,0,1,.38.16l25.05,25a.55.55,0,0,1,.16.39V152.91a.55.55,0,0,1-.16.38l-25.85,25.85A.55.55,0,0,1,372.09,179.3Z"/><path class="cls-3" d="M230.14,7.18a4.63,4.63,0,1,0-4.63,4.62A4.63,4.63,0,0,0,230.14,7.18Z"/><path class="cls-3" d="M124,179.41H50.43a.55.55,0,0,1-.38-.16L24.17,153.37A.51.51,0,0,1,24,153V33.24a.51.51,0,0,1,.16-.38L50.23,6.8a.51.51,0,0,1,.38-.16H221.29a.54.54,0,1,1,0,1.08H50.84L25.09,33.47V152.76l25.57,25.57H124a.54.54,0,1,1,0,1.08Z"/><path class="cls-3" d="M29.46,107.65a4.63,4.63,0,1,0-4.63,4.62A4.63,4.63,0,0,0,29.46,107.65Z"/><path class="cls-3" d="M126.85,182.67a3.8,3.8,0,1,1,3.8-3.8A3.8,3.8,0,0,1,126.85,182.67Zm0-6.52a2.72,2.72,0,1,0,2.72,2.72A2.72,2.72,0,0,0,126.85,176.15Z"/><path class="cls-2" d="M23.51,25.44A.72.72,0,0,1,23,24.21L41.45,5.77a.72.72,0,1,1,1,1L24,25.23A.71.71,0,0,1,23.51,25.44Z"/><path class="cls-2" d="M14.45,121H.54a.54.54,0,0,1-.54-.54v-65a.54.54,0,0,1,.54-.54H14.45a.54.54,0,0,1,.54.54v65A.54.54,0,0,1,14.45,121ZM1.08,119.91H13.91V56H1.08Z"/><rect class="cls-2" x="11.36" y="110.79" width="5.47" height="5.47"/><path class="cls-2" d="M313.69,189H47.88a.51.51,0,0,1-.38-.16L15.34,156.69a.55.55,0,0,1-.16-.38V124.83a.54.54,0,1,1,1.08,0v31.26l31.85,31.84H314.23a.54.54,0,0,1,.54.54"/><g class="cls-4"><polygon class="cls-3" points="382.4 6.28 397.94 6.28 397.94 22.14 382.4 6.28"/></g><g class="cls-4"><path class="cls-3" d="M45.67,135.88a.54.54,0,0,1-.54-.54V33.89a.54.54,0,0,1,1.08,0V135.34A.54.54,0,0,1,45.67,135.88Z"/></g><g class="cls-4"><path class="cls-3" d="M73.56,135.88a.54.54,0,0,1-.54-.54V33.89a.54.54,0,0,1,1.08,0V135.34A.54.54,0,0,1,73.56,135.88Z"/></g><g class="cls-4"><path class="cls-3" d="M101.46,135.88a.54.54,0,0,1-.54-.54V33.89a.54.54,0,0,1,.54-.54.54.54,0,0,1,.54.54V135.34A.54.54,0,0,1,101.46,135.88Z"/></g><g class="cls-4"><path class="cls-3" d="M129.35,135.88a.54.54,0,0,1-.54-.54V33.89a.54.54,0,1,1,1.08,0V135.34A.54.54,0,0,1,129.35,135.88Z"/></g><g class="cls-4"><path class="cls-3" d="M157.24,135.88a.54.54,0,0,1-.54-.54V33.89a.54.54,0,1,1,1.08,0V135.34A.54.54,0,0,1,157.24,135.88Z"/></g><g class="cls-4"><path class="cls-3" d="M185,135.88a.54.54,0,0,1-.54-.54V33.89a.54.54,0,0,1,1.08,0V135.34A.54.54,0,0,1,185,135.88Z"/></g><g class="cls-4"><path class="cls-3" d="M212.9,135.88a.54.54,0,0,1-.54-.54V33.89a.54.54,0,0,1,1.08,0V135.34A.54.54,0,0,1,212.9,135.88Z"/></g><g class="cls-4"><path class="cls-3" d="M240.79,135.88a.54.54,0,0,1-.54-.54V33.89a.54.54,0,1,1,1.08,0V135.34A.54.54,0,0,1,240.79,135.88Z"/></g><g class="cls-4"><path class="cls-3" d="M268.58,135.88a.54.54,0,0,1-.54-.54V33.89a.54.54,0,1,1,1.08,0V135.34A.54.54,0,0,1,268.58,135.88Z"/></g><g class="cls-4"><path class="cls-3" d="M296.48,135.88a.54.54,0,0,1-.54-.54V33.89a.54.54,0,0,1,.54-.54.54.54,0,0,1,.54.54V135.34A.54.54,0,0,1,296.48,135.88Z"/></g><g class="cls-4"><path class="cls-3" d="M324.37,135.88a.54.54,0,0,1-.54-.54V33.89a.54.54,0,0,1,1.08,0V135.34A.54.54,0,0,1,324.37,135.88Z"/></g><g class="cls-4"><path class="cls-3" d="M352.26,135.88a.54.54,0,0,1-.54-.54V33.89a.54.54,0,1,1,1.08,0V135.34A.54.54,0,0,1,352.26,135.88Z"/></g><path class="cls-2" d="M352.26,88.69H45.87a.54.54,0,0,1-.54-.54.54.54,0,0,1,.54-.54H352.26a.54.54,0,0,1,.54.54A.54.54,0,0,1,352.26,88.69Z"/><g class="cls-5"><g class="cls-6"><path class="cls-3" d="M-18.7,130.18a.51.51,0,0,1-.38-.16.54.54,0,0,1,0-.76L85.18,25a.54.54,0,0,1,.76.76L-18.32,130A.51.51,0,0,1-18.7,130.18Z"/><path class="cls-3" d="M-15.36,130.18a.54.54,0,0,1-.38-.16.54.54,0,0,1,0-.76L88.52,25a.55.55,0,0,1,.77,0,.54.54,0,0,1,0,.76L-15,130A.54.54,0,0,1-15.36,130.18Z"/><path class="cls-3" d="M-12,130.18a.51.51,0,0,1-.38-.16.54.54,0,0,1,0-.76L91.87,25a.54.54,0,0,1,.76.76L-11.63,130A.51.51,0,0,1-12,130.18Z"/><path class="cls-3" d="M-8.66,130.18A.54.54,0,0,1-9,130a.54.54,0,0,1,0-.76L95.21,25A.55.55,0,0,1,96,25a.54.54,0,0,1,0,.76L-8.28,130A.54.54,0,0,1-8.66,130.18Z"/><path class="cls-3" d="M-5.32,130.18A.51.51,0,0,1-5.7,130a.54.54,0,0,1,0-.76L98.56,25a.54.54,0,0,1,.76.76L-4.94,130A.51.51,0,0,1-5.32,130.18Z"/><path class="cls-3" d="M-2,130.18a.54.54,0,0,1-.39-.16.54.54,0,0,1,0-.76L101.9,25a.55.55,0,0,1,.77,0,.54.54,0,0,1,0,.76L-1.59,130A.54.54,0,0,1-2,130.18Z"/><path class="cls-3" d="M1.37,130.18a.54.54,0,0,1-.38-.92L105.25,25a.54.54,0,0,1,.76.76L1.76,130A.54.54,0,0,1,1.37,130.18Z"/><path class="cls-3" d="M4.72,130.18a.51.51,0,0,1-.38-.16.54.54,0,0,1,0-.76L108.6,25a.54.54,0,0,1,.76.76L5.1,130A.52.52,0,0,1,4.72,130.18Z"/><path class="cls-3" d="M8.06,130.18a.54.54,0,0,1-.38-.92L111.94,25a.54.54,0,0,1,.76,0,.52.52,0,0,1,0,.76L8.45,130A.54.54,0,0,1,8.06,130.18Z"/><path class="cls-3" d="M11.41,130.18A.51.51,0,0,1,11,130a.54.54,0,0,1,0-.76L115.29,25a.54.54,0,0,1,.76.76L11.79,130A.52.52,0,0,1,11.41,130.18Z"/><path class="cls-3" d="M14.76,130.18a.54.54,0,0,1-.39-.16.54.54,0,0,1,0-.76L118.63,25a.55.55,0,0,1,.77,0,.54.54,0,0,1,0,.76L15.14,130A.54.54,0,0,1,14.76,130.18Z"/><path class="cls-3" d="M18.1,130.18a.51.51,0,0,1-.38-.16.54.54,0,0,1,0-.76L122,25a.54.54,0,0,1,.76.76L18.48,130A.51.51,0,0,1,18.1,130.18Z"/><path class="cls-3" d="M21.45,130.18a.54.54,0,0,1-.39-.16.54.54,0,0,1,0-.76L125.32,25a.55.55,0,0,1,.77,0,.54.54,0,0,1,0,.76L21.83,130A.54.54,0,0,1,21.45,130.18Z"/><path class="cls-3" d="M24.79,130.18a.52.52,0,0,1-.38-.16.54.54,0,0,1,0-.76L128.67,25a.54.54,0,1,1,.76.76L25.17,130A.51.51,0,0,1,24.79,130.18Z"/><path class="cls-3" d="M28.14,130.18a.51.51,0,0,1-.38-.16.52.52,0,0,1,0-.76L132,25a.54.54,0,0,1,.76.76L28.52,130A.52.52,0,0,1,28.14,130.18Z"/><path class="cls-3" d="M31.48,130.18a.52.52,0,0,1-.38-.16.54.54,0,0,1,0-.76L135.36,25a.54.54,0,0,1,.76,0,.52.52,0,0,1,0,.76L31.86,130A.51.51,0,0,1,31.48,130.18Z"/><path class="cls-3" d="M34.83,130.18a.51.51,0,0,1-.38-.16.54.54,0,0,1,0-.76L138.71,25a.54.54,0,0,1,.76.76L35.21,130A.51.51,0,0,1,34.83,130.18Z"/><path class="cls-3" d="M38.17,130.18a.54.54,0,0,1-.38-.92L142.05,25a.55.55,0,0,1,.77,0,.54.54,0,0,1,0,.76L38.56,130A.54.54,0,0,1,38.17,130.18Z"/><path class="cls-3" d="M41.52,130.18a.51.51,0,0,1-.38-.16.54.54,0,0,1,0-.76L145.4,25a.54.54,0,0,1,.76.76L41.9,130A.51.51,0,0,1,41.52,130.18Z"/><path class="cls-3" d="M44.87,130.18a.54.54,0,0,1-.39-.16.54.54,0,0,1,0-.76L148.74,25a.55.55,0,0,1,.77,0,.54.54,0,0,1,0,.76L45.25,130A.54.54,0,0,1,44.87,130.18Z"/><path class="cls-3" d="M48.21,130.18a.51.51,0,0,1-.38-.16.54.54,0,0,1,0-.76L152.09,25a.54.54,0,0,1,.76.76L48.59,130A.51.51,0,0,1,48.21,130.18Z"/><path class="cls-3" d="M51.56,130.18a.54.54,0,0,1-.39-.16.54.54,0,0,1,0-.76L155.44,25a.54.54,0,0,1,.76.76L51.94,130A.54.54,0,0,1,51.56,130.18Z"/><path class="cls-3" d="M54.9,130.18a.52.52,0,0,1-.38-.16.54.54,0,0,1,0-.76L158.78,25a.54.54,0,0,1,.76.76L55.28,130A.51.51,0,0,1,54.9,130.18Z"/><path class="cls-3" d="M58.25,130.18a.54.54,0,0,1-.39-.16.54.54,0,0,1,0-.76L162.12,25a.55.55,0,0,1,.77,0,.54.54,0,0,1,0,.76L58.63,130A.54.54,0,0,1,58.25,130.18Z"/><path class="cls-3" d="M61.59,130.18a.52.52,0,0,1-.38-.16.54.54,0,0,1,0-.76L165.47,25a.54.54,0,0,1,.76.76L62,130A.51.51,0,0,1,61.59,130.18Z"/><path class="cls-3" d="M64.94,130.18a.51.51,0,0,1-.38-.16.54.54,0,0,1,0-.76L168.82,25a.54.54,0,0,1,.76.76L65.32,130A.52.52,0,0,1,64.94,130.18Z"/><path class="cls-3" d="M68.28,130.18a.54.54,0,0,1-.38-.92L172.16,25a.55.55,0,0,1,.77,0,.54.54,0,0,1,0,.76L68.67,130A.54.54,0,0,1,68.28,130.18Z"/><path class="cls-3" d="M71.63,130.18a.51.51,0,0,1-.38-.16.54.54,0,0,1,0-.76L175.51,25a.54.54,0,0,1,.76.76L72,130A.51.51,0,0,1,71.63,130.18Z"/><path class="cls-3" d="M75,130.18a.54.54,0,0,1-.38-.92L178.85,25a.55.55,0,0,1,.77,0,.54.54,0,0,1,0,.76L75.36,130A.54.54,0,0,1,75,130.18Z"/><path class="cls-3" d="M78.32,130.18a.51.51,0,0,1-.38-.16.54.54,0,0,1,0-.76L182.2,25a.54.54,0,0,1,.76.76L78.7,130A.51.51,0,0,1,78.32,130.18Z"/><path class="cls-3" d="M81.67,130.18a.51.51,0,0,1-.38-.16.52.52,0,0,1,0-.76L185.55,25a.54.54,0,0,1,.76.76L82.05,130A.52.52,0,0,1,81.67,130.18Z"/><path class="cls-3" d="M85,130.18a.52.52,0,0,1-.38-.16.54.54,0,0,1,0-.76L188.89,25a.54.54,0,0,1,.76.76L85.39,130A.51.51,0,0,1,85,130.18Z"/><path class="cls-3" d="M88.36,130.18A.54.54,0,0,1,88,130a.54.54,0,0,1,0-.76L192.23,25a.55.55,0,0,1,.77,0,.54.54,0,0,1,0,.76L88.74,130A.54.54,0,0,1,88.36,130.18Z"/><path class="cls-3" d="M91.7,130.18a.54.54,0,0,1-.38-.92L195.58,25a.54.54,0,0,1,.76,0,.52.52,0,0,1,0,.76L92.09,130A.54.54,0,0,1,91.7,130.18Z"/><path class="cls-3" d="M95.05,130.18a.51.51,0,0,1-.38-.16.54.54,0,0,1,0-.76L198.93,25a.54.54,0,0,1,.76.76L95.43,130A.51.51,0,0,1,95.05,130.18Z"/><path class="cls-3" d="M98.39,130.18a.54.54,0,0,1-.38-.92L202.27,25a.55.55,0,0,1,.77,0,.54.54,0,0,1,0,.76L98.78,130A.54.54,0,0,1,98.39,130.18Z"/><path class="cls-3" d="M101.74,130.18a.51.51,0,0,1-.38-.16.54.54,0,0,1,0-.76L205.62,25a.54.54,0,0,1,.76.76L102.12,130A.51.51,0,0,1,101.74,130.18Z"/><path class="cls-3" d="M105.08,130.18a.54.54,0,0,1-.38-.92L209,25a.55.55,0,0,1,.77,0,.54.54,0,0,1,0,.76L105.47,130A.54.54,0,0,1,105.08,130.18Z"/><path class="cls-3" d="M108.43,130.18a.52.52,0,0,1-.38-.16.54.54,0,0,1,0-.76L212.31,25a.54.54,0,0,1,.76.76L108.81,130A.51.51,0,0,1,108.43,130.18Z"/><path class="cls-3" d="M111.78,130.18a.51.51,0,0,1-.38-.16.52.52,0,0,1,0-.76L215.66,25a.54.54,0,0,1,.76.76L112.16,130A.52.52,0,0,1,111.78,130.18Z"/><path class="cls-3" d="M115.12,130.18a.52.52,0,0,1-.38-.16.54.54,0,0,1,0-.76L219,25a.54.54,0,0,1,.76,0,.52.52,0,0,1,0,.76L115.5,130A.51.51,0,0,1,115.12,130.18Z"/><path class="cls-3" d="M118.47,130.18a.51.51,0,0,1-.38-.16.52.52,0,0,1,0-.76L222.35,25a.54.54,0,1,1,.76.76L118.85,130A.52.52,0,0,1,118.47,130.18Z"/><path class="cls-3" d="M121.81,130.18a.52.52,0,0,1-.38-.16.54.54,0,0,1,0-.76L225.69,25a.54.54,0,0,1,.76,0,.52.52,0,0,1,0,.76L122.19,130A.51.51,0,0,1,121.81,130.18Z"/><path class="cls-3" d="M125.16,130.18a.51.51,0,0,1-.38-.16.54.54,0,0,1,0-.76L229,25a.54.54,0,1,1,.76.76L125.54,130A.51.51,0,0,1,125.16,130.18Z"/><path class="cls-3" d="M128.5,130.18a.54.54,0,0,1-.38-.92L232.38,25a.55.55,0,0,1,.77,0,.54.54,0,0,1,0,.76L128.89,130A.54.54,0,0,1,128.5,130.18Z"/><path class="cls-3" d="M131.85,130.18a.52.52,0,0,1-.38-.16.54.54,0,0,1,0-.76L235.73,25a.54.54,0,1,1,.76.76L132.23,130A.51.51,0,0,1,131.85,130.18Z"/><path class="cls-3" d="M135.2,130.18a.54.54,0,0,1-.39-.16.54.54,0,0,1,0-.76L239.07,25a.55.55,0,0,1,.77,0,.54.54,0,0,1,0,.76L135.58,130A.54.54,0,0,1,135.2,130.18Z"/><path class="cls-3" d="M138.54,130.18a.52.52,0,0,1-.38-.16.54.54,0,0,1,0-.76L242.42,25a.54.54,0,1,1,.76.76L138.92,130A.51.51,0,0,1,138.54,130.18Z"/><path class="cls-3" d="M141.89,130.18a.54.54,0,0,1-.39-.16.54.54,0,0,1,0-.76L245.77,25a.54.54,0,0,1,.76.76L142.27,130A.54.54,0,0,1,141.89,130.18Z"/><path class="cls-3" d="M145.23,130.18a.54.54,0,0,1-.38-.92L249.11,25a.55.55,0,0,1,.77,0,.54.54,0,0,1,0,.76L145.62,130A.54.54,0,0,1,145.23,130.18Z"/><path class="cls-3" d="M148.58,130.18a.51.51,0,0,1-.38-.16.54.54,0,0,1,0-.76L252.46,25a.54.54,0,0,1,.76.76L149,130A.51.51,0,0,1,148.58,130.18Z"/><path class="cls-3" d="M151.92,130.18a.52.52,0,0,1-.38-.16.54.54,0,0,1,0-.76L255.8,25a.54.54,0,0,1,.76.76L152.3,130A.51.51,0,0,1,151.92,130.18Z"/><path class="cls-3" d="M155,130.18a.51.51,0,0,1-.38-.16.54.54,0,0,1,0-.76L258.84,25a.54.54,0,1,1,.76.76L155.34,130A.52.52,0,0,1,155,130.18Z"/><path class="cls-3" d="M158.3,130.18a.54.54,0,0,1-.38-.92L262.18,25a.55.55,0,0,1,.77,0,.54.54,0,0,1,0,.76L158.69,130A.54.54,0,0,1,158.3,130.18Z"/><path class="cls-3" d="M161.65,130.18a.51.51,0,0,1-.38-.16.54.54,0,0,1,0-.76L265.53,25a.54.54,0,0,1,.76.76L162,130A.51.51,0,0,1,161.65,130.18Z"/><path class="cls-3" d="M165,130.18a.54.54,0,0,1-.39-.16.54.54,0,0,1,0-.76L268.87,25a.55.55,0,0,1,.77,0,.54.54,0,0,1,0,.76L165.38,130A.54.54,0,0,1,165,130.18Z"/><path class="cls-3" d="M168.34,130.18A.51.51,0,0,1,168,130a.54.54,0,0,1,0-.76L272.22,25a.54.54,0,0,1,.76.76L168.72,130A.51.51,0,0,1,168.34,130.18Z"/><path class="cls-3" d="M171.69,130.18a.54.54,0,0,1-.39-.16.54.54,0,0,1,0-.76L275.56,25a.55.55,0,0,1,.77,0,.54.54,0,0,1,0,.76L172.07,130A.54.54,0,0,1,171.69,130.18Z"/><path class="cls-3" d="M175,130.18a.52.52,0,0,1-.38-.16.54.54,0,0,1,0-.76L278.91,25a.54.54,0,0,1,.76,0,.52.52,0,0,1,0,.76L175.41,130A.51.51,0,0,1,175,130.18Z"/><path class="cls-3" d="M178.38,130.18A.51.51,0,0,1,178,130a.52.52,0,0,1,0-.76L282.26,25a.54.54,0,0,1,.76.76L178.76,130A.52.52,0,0,1,178.38,130.18Z"/><path class="cls-3" d="M181.72,130.18a.54.54,0,0,1-.38-.92L285.6,25a.55.55,0,0,1,.77,0,.54.54,0,0,1,0,.76L182.11,130A.54.54,0,0,1,181.72,130.18Z"/><path class="cls-3" d="M185.07,130.18a.51.51,0,0,1-.38-.16.54.54,0,0,1,0-.76L289,25a.54.54,0,0,1,.76.76L185.45,130A.51.51,0,0,1,185.07,130.18Z"/><path class="cls-3" d="M188.41,130.18a.54.54,0,0,1-.38-.92L292.29,25a.55.55,0,0,1,.77,0,.54.54,0,0,1,0,.76L188.8,130A.54.54,0,0,1,188.41,130.18Z"/><path class="cls-3" d="M191.76,130.18a.51.51,0,0,1-.38-.16.54.54,0,0,1,0-.76L295.64,25a.54.54,0,0,1,.76.76L192.14,130A.51.51,0,0,1,191.76,130.18Z"/><path class="cls-3" d="M195.11,130.18a.54.54,0,0,1-.39-.16.54.54,0,0,1,0-.76L299,25a.55.55,0,0,1,.77,0,.54.54,0,0,1,0,.76L195.49,130A.54.54,0,0,1,195.11,130.18Z"/><path class="cls-3" d="M198.45,130.18a.52.52,0,0,1-.38-.16.54.54,0,0,1,0-.76L302.33,25a.54.54,0,0,1,.76.76L198.83,130A.51.51,0,0,1,198.45,130.18Z"/><path class="cls-3" d="M201.8,130.18a.54.54,0,0,1-.39-.16.54.54,0,0,1,0-.76L305.68,25a.54.54,0,0,1,.76.76L202.18,130A.54.54,0,0,1,201.8,130.18Z"/><path class="cls-3" d="M205.14,130.18a.52.52,0,0,1-.38-.16.54.54,0,0,1,0-.76L309,25a.54.54,0,0,1,.76.76L205.52,130A.51.51,0,0,1,205.14,130.18Z"/><path class="cls-3" d="M208.49,130.18a.51.51,0,0,1-.38-.16.54.54,0,0,1,0-.76L312.37,25a.54.54,0,0,1,.76.76L208.87,130A.52.52,0,0,1,208.49,130.18Z"/><path class="cls-3" d="M211.83,130.18a.54.54,0,0,1-.38-.92L315.71,25a.55.55,0,0,1,.77,0,.54.54,0,0,1,0,.76L212.22,130A.54.54,0,0,1,211.83,130.18Z"/><path class="cls-3" d="M215.18,130.18a.51.51,0,0,1-.38-.16.54.54,0,0,1,0-.76L319.06,25a.54.54,0,0,1,.76.76L215.56,130A.51.51,0,0,1,215.18,130.18Z"/><path class="cls-3" d="M218.52,130.18a.54.54,0,0,1-.38-.92L322.4,25a.55.55,0,0,1,.77,0,.54.54,0,0,1,0,.76L218.91,130A.54.54,0,0,1,218.52,130.18Z"/><path class="cls-3" d="M221.87,130.18a.52.52,0,0,1-.38-.16.54.54,0,0,1,0-.76L325.75,25a.54.54,0,0,1,.76.76L222.25,130A.51.51,0,0,1,221.87,130.18Z"/><path class="cls-3" d="M225.22,130.18a.54.54,0,0,1-.39-.16.54.54,0,0,1,0-.76L329.09,25a.55.55,0,0,1,.77,0,.54.54,0,0,1,0,.76L225.6,130A.54.54,0,0,1,225.22,130.18Z"/><path class="cls-3" d="M228.56,130.18a.54.54,0,0,1-.38-.92L332.44,25a.54.54,0,0,1,.76.76L229,130A.54.54,0,0,1,228.56,130.18Z"/><path class="cls-3" d="M231.91,130.18a.51.51,0,0,1-.38-.16.52.52,0,0,1,0-.76L335.79,25a.54.54,0,0,1,.76.76L232.29,130A.52.52,0,0,1,231.91,130.18Z"/><path class="cls-3" d="M235.25,130.18a.52.52,0,0,1-.38-.16.54.54,0,0,1,0-.76L339.13,25a.54.54,0,0,1,.76.76L235.63,130A.51.51,0,0,1,235.25,130.18Z"/><path class="cls-3" d="M238.6,130.18a.51.51,0,0,1-.38-.16.54.54,0,0,1,0-.76L342.48,25a.54.54,0,0,1,.76.76L239,130A.51.51,0,0,1,238.6,130.18Z"/><path class="cls-3" d="M241.94,130.18a.54.54,0,0,1-.38-.92L345.82,25a.55.55,0,0,1,.77,0,.54.54,0,0,1,0,.76L242.33,130A.54.54,0,0,1,241.94,130.18Z"/><path class="cls-3" d="M245.29,130.18a.51.51,0,0,1-.38-.16.54.54,0,0,1,0-.76L349.17,25a.54.54,0,0,1,.76.76L245.67,130A.51.51,0,0,1,245.29,130.18Z"/><path class="cls-3" d="M248.64,130.18a.54.54,0,0,1-.39-.16.54.54,0,0,1,0-.76L352.51,25a.55.55,0,0,1,.77,0,.54.54,0,0,1,0,.76L249,130A.54.54,0,0,1,248.64,130.18Z"/><path class="cls-3" d="M252,130.18a.51.51,0,0,1-.38-.16.54.54,0,0,1,0-.76L355.86,25a.54.54,0,0,1,.76.76L252.36,130A.51.51,0,0,1,252,130.18Z"/><path class="cls-3" d="M255.33,130.18A.51.51,0,0,1,255,130a.52.52,0,0,1,0-.76L359.2,25a.55.55,0,0,1,.77,0,.54.54,0,0,1,0,.76L255.71,130A.52.52,0,0,1,255.33,130.18Z"/><path class="cls-3" d="M258.67,130.18a.52.52,0,0,1-.38-.16.54.54,0,0,1,0-.76L362.55,25a.54.54,0,0,1,.76.76L259.05,130A.51.51,0,0,1,258.67,130.18Z"/><path class="cls-3" d="M262,130.18a.51.51,0,0,1-.38-.16.54.54,0,0,1,0-.76L365.9,25a.54.54,0,0,1,.76.76L262.4,130A.52.52,0,0,1,262,130.18Z"/><path class="cls-3" d="M265.36,130.18A.52.52,0,0,1,265,130a.54.54,0,0,1,0-.76L369.24,25a.54.54,0,0,1,.76,0,.52.52,0,0,1,0,.76L265.74,130A.51.51,0,0,1,265.36,130.18Z"/><path class="cls-3" d="M268.71,130.18a.51.51,0,0,1-.38-.16.54.54,0,0,1,0-.76L372.59,25a.54.54,0,1,1,.76.76L269.09,130A.51.51,0,0,1,268.71,130.18Z"/><path class="cls-3" d="M272.05,130.18a.54.54,0,0,1-.38-.92L375.93,25a.55.55,0,0,1,.77,0,.54.54,0,0,1,0,.76L272.44,130A.54.54,0,0,1,272.05,130.18Z"/><path class="cls-3" d="M275.4,130.18A.51.51,0,0,1,275,130a.54.54,0,0,1,0-.76L379.28,25a.54.54,0,0,1,.76.76L275.78,130A.51.51,0,0,1,275.4,130.18Z"/><path class="cls-3" d="M278.75,130.18a.54.54,0,0,1-.39-.16.54.54,0,0,1,0-.76L382.62,25a.55.55,0,0,1,.77,0,.54.54,0,0,1,0,.76L279.13,130A.54.54,0,0,1,278.75,130.18Z"/><path class="cls-3" d="M282.09,130.18a.52.52,0,0,1-.38-.16.54.54,0,0,1,0-.76L386,25a.54.54,0,0,1,.76,0,.52.52,0,0,1,0,.76L282.47,130A.51.51,0,0,1,282.09,130.18Z"/><path class="cls-3" d="M285.44,130.18a.54.54,0,0,1-.39-.16.54.54,0,0,1,0-.76L389.32,25a.54.54,0,0,1,.76.76L285.82,130A.54.54,0,0,1,285.44,130.18Z"/><path class="cls-3" d="M288.78,130.18a.52.52,0,0,1-.38-.16.54.54,0,0,1,0-.76L392.66,25a.54.54,0,0,1,.76.76L289.16,130A.51.51,0,0,1,288.78,130.18Z"/><path class="cls-3" d="M292.13,130.18a.51.51,0,0,1-.38-.16.54.54,0,0,1,0-.76L396,25a.54.54,0,0,1,.76.76L292.51,130A.52.52,0,0,1,292.13,130.18Z"/><path class="cls-3" d="M295.47,130.18a.54.54,0,0,1-.38-.92L399.35,25a.55.55,0,0,1,.77,0,.54.54,0,0,1,0,.76L295.86,130A.54.54,0,0,1,295.47,130.18Z"/><path class="cls-3" d="M298.82,130.18a.51.51,0,0,1-.38-.16.54.54,0,0,1,0-.76L402.7,25a.54.54,0,0,1,.76.76L299.2,130A.51.51,0,0,1,298.82,130.18Z"/><path class="cls-3" d="M302.16,130.18a.54.54,0,0,1-.38-.92L406,25a.55.55,0,0,1,.77,0,.54.54,0,0,1,0,.76L302.55,130A.54.54,0,0,1,302.16,130.18Z"/><path class="cls-3" d="M305.51,130.18a.51.51,0,0,1-.38-.16.54.54,0,0,1,0-.76L409.39,25a.54.54,0,0,1,.76.76L305.89,130A.51.51,0,0,1,305.51,130.18Z"/><path class="cls-3" d="M308.86,130.18a.54.54,0,0,1-.39-.16.54.54,0,0,1,0-.76L412.73,25a.55.55,0,0,1,.77,0,.54.54,0,0,1,0,.76L309.24,130A.54.54,0,0,1,308.86,130.18Z"/><path class="cls-3" d="M312.2,130.18a.52.52,0,0,1-.38-.16.54.54,0,0,1,0-.76L416.08,25a.54.54,0,0,1,.76.76L312.58,130A.51.51,0,0,1,312.2,130.18Z"/><path class="cls-3" d="M315.55,130.18a.51.51,0,0,1-.38-.16.52.52,0,0,1,0-.76L419.43,25a.54.54,0,0,1,.76.76L315.93,130A.52.52,0,0,1,315.55,130.18Z"/><path class="cls-3" d="M318.89,130.18a.52.52,0,0,1-.38-.16.54.54,0,0,1,0-.76L422.77,25a.54.54,0,0,1,.76,0,.52.52,0,0,1,0,.76L319.27,130A.51.51,0,0,1,318.89,130.18Z"/><path class="cls-3" d="M322.24,130.18a.51.51,0,0,1-.38-.16.52.52,0,0,1,0-.76L426.12,25a.54.54,0,0,1,.76.76L322.62,130A.52.52,0,0,1,322.24,130.18Z"/><path class="cls-3" d="M325.51,130.18a.51.51,0,0,1-.38-.16.54.54,0,0,1,0-.76L429.39,25a.54.54,0,0,1,.76.76L325.89,130A.51.51,0,0,1,325.51,130.18Z"/><path class="cls-3" d="M328.86,130.18a.51.51,0,0,1-.38-.16.52.52,0,0,1,0-.76L432.73,25a.55.55,0,0,1,.77,0,.54.54,0,0,1,0,.76L329.24,130A.54.54,0,0,1,328.86,130.18Z"/><path class="cls-3" d="M332.2,130.18a.51.51,0,0,1-.38-.16.54.54,0,0,1,0-.76L436.08,25a.54.54,0,0,1,.76.76L332.58,130A.51.51,0,0,1,332.2,130.18Z"/></g></g><g class="cls-5"><path class="cls-3" d="M352.26,107.36h0c-7.73-.72-20-5.55-32.92-10.67C304.88,91,289.94,85.08,279.07,83.91c-12.15-1.3-30.27-1.75-44.82-2.1-10.44-.26-19.45-.48-23.9-.94-30-3.13-55.5-4.8-55.76-4.82-9.79.37-24-4.72-39-10.1-14.77-5.3-30-10.78-41.11-10.78-8.89,0-15.14,3.74-23,8.47-1.71,1-3.48,2.08-5.36,3.16a.12.12,0,0,1-.15,0,.11.11,0,0,1,0-.15c1.89-1.07,3.65-2.13,5.37-3.15C59.3,58.71,65.57,55,74.52,55c11.1,0,26.4,5.48,41.18,10.79,15,5.38,29.13,10.46,38.9,10.09.26,0,25.75,1.68,55.77,4.81,4.44.47,13.45.69,23.89.94,14.55.36,32.67.8,44.84,2.11,10.89,1.17,25.84,7.08,40.31,12.79,12.93,5.11,25.16,9.94,32.86,10.66a.1.1,0,0,1,.1.11A.11.11,0,0,1,352.26,107.36Z"/></g><g class="cls-5"><path class="cls-2" d="M46,88.69h-.13a.54.54,0,0,1-.53-.55.53.53,0,0,1,.55-.53H46c4.63,0,8.82-4.6,13.26-9.47C63.92,73,68.76,67.7,74.52,67.7c6,0,11.35,2.43,16.09,4.56,4,1.8,7.75,3.5,11.26,3.5s7.43-1.6,11.56-3.29c4.82-2,10.29-4.21,16.12-4.21a101.4,101.4,0,0,1,15.15,1.41,89.76,89.76,0,0,0,13.16,1.26c4.44,0,8.57-2.48,12.95-5.12,4.6-2.76,9.36-5.62,14.73-5.62.2,0,19.43.22,35-5.63C238.89,47.64,261.58,39.51,274,38c12.86-1.58,40.88,2.77,45.86,4.1,21.81,5.86,32.7,18.16,32.81,18.29a.54.54,0,1,1-.82.7c-.1-.12-10.8-12.18-32.27-17.94-4.94-1.33-32.72-5.64-45.45-4.08-12.3,1.51-34.91,9.61-53.24,16.51-15.74,5.92-35.16,5.7-35.35,5.7-5.07,0-9.69,2.78-14.17,5.47S162.6,72,157.86,72a91.41,91.41,0,0,1-13.32-1.27,99.74,99.74,0,0,0-15-1.4c-5.62,0-10.75,2.1-15.71,4.13-4.23,1.73-8.23,3.37-12,3.37s-7.61-1.75-11.71-3.59c-4.86-2.2-9.89-4.47-15.64-4.47-5.28,0-10,5.13-14.48,10.09S51.1,88.69,46,88.69Z"/><path class="cls-2" d="M227,53.66a2.77,2.77,0,1,0-2.77,2.77A2.77,2.77,0,0,0,227,53.66Z"/></g><path class="cls-3" d="M320.08,101.91c-10.25,0-22.16-1.73-32.39-7.79-.4-.24-.88-.55-1.43-.91-5.52-3.58-20.2-13.1-51.06-8-32.95,5.46-48.85,3.91-49.69,3.82-5.29,0-10-1.55-14.58-3-4.41-1.44-8.57-2.79-13.07-2.79S149.33,86,144.92,89c-4.77,3.23-9.72,6.57-15.37,6.57-5.83,0-11.3-2.25-16.12-4.23-4.13-1.69-8-3.3-11.56-3.3s-7.32,1.26-11.32,2.6C85.83,92.23,80.47,94,74.52,94c-5.39,0-10.07,1.53-14.59,3s-9,3-14.07,2.87a.54.54,0,0,1,0-1.08h0C50.74,98.9,55,97.49,59.59,96S69,92.94,74.52,92.94c5.77,0,10.82-1.69,15.69-3.31C94.3,88.26,98.15,87,101.87,87s7.74,1.65,12,3.38c5,2,10.09,4.15,15.71,4.15,5.32,0,10.13-3.25,14.77-6.38s8.84-6,13.54-6,8.91,1.38,13.4,2.84,9.15,3,14.28,3h.07c.15,0,15.9,1.75,49.41-3.81,31.27-5.19,46.21,4.5,51.83,8.15.54.35,1,.65,1.39.88,13.54,8,30.16,8.31,41.72,7.13a110.09,110.09,0,0,0,22.12-4.56.54.54,0,0,1,.36,1,111.07,111.07,0,0,1-22.34,4.61A99.16,99.16,0,0,1,320.08,101.91Z"/><polygon class="cls-3" points="285.35 96.26 288.96 90 292.57 96.26 285.35 96.26"/><path class="cls-2" d="M42.68,88a.75.75,0,0,1-.54.2h-.09a.77.77,0,0,1-.55-.2.73.73,0,0,1-.2-.56V85.78a.74.74,0,0,1,.2-.57.78.78,0,0,1,.55-.19h.09a.81.81,0,0,1,.55.19.77.77,0,0,1,.2.57v1.61A.73.73,0,0,1,42.68,88Zm-.28-2.49a.35.35,0,0,0-.26-.1h-.09a.36.36,0,0,0-.27.1.3.3,0,0,0-.1.24v1.21l.83-1.21A.3.3,0,0,0,42.4,85.46Zm-.62,2.25a.36.36,0,0,0,.27.1h.09a.35.35,0,0,0,.26-.1.34.34,0,0,0,.11-.24v-1.2l-.83,1.2A.33.33,0,0,0,41.78,87.71Z"/><g class="cls-5"><path class="cls-2" d="M365.63,66.94a1,1,0,0,1-.72.2h-1.14V63.28h1.07a1.22,1.22,0,0,1,.75.2.78.78,0,0,1,.26.66v2.13A.88.88,0,0,1,365.63,66.94Zm-.37-3.14a.44.44,0,0,0-.3-.11h-.71v3H365a.36.36,0,0,0,.41-.4V64.09A.4.4,0,0,0,365.26,63.8Z"/><path class="cls-2" d="M368.44,67.1a.41.41,0,0,1-.14-.12.41.41,0,0,1-.34.16h-.49a.87.87,0,0,1-.61-.17.71.71,0,0,1-.19-.57v-.11c0-.57.27-.86.8-.86h.69v-.27a.34.34,0,0,0-.11-.27.46.46,0,0,0-.31-.09h-.85v-.42h.8a1,1,0,0,1,.71.21.9.9,0,0,1,.23.68v1.32a.12.12,0,0,0,.06.12.36.36,0,0,0,.21.05v.38h-.3A.34.34,0,0,1,368.44,67.1Zm-.33-.45a.39.39,0,0,0,.05-.2v-.6h-.69a.31.31,0,0,0-.33.33v.27a.29.29,0,0,0,.06.21.28.28,0,0,0,.21.07h.49A.23.23,0,0,0,368.11,66.65Z"/><path class="cls-2" d="M370.54,67a.73.73,0,0,1-.15-.48V64.8h-.52v-.42h.52v-.66h.47v.66h.81v.42h-.81v1.71a.21.21,0,0,0,.06.17.33.33,0,0,0,.19,0h.56v.41H371A.52.52,0,0,1,370.54,67Z"/><path class="cls-2" d="M374.4,67.1a.41.41,0,0,1-.14-.12.41.41,0,0,1-.34.16h-.49a.87.87,0,0,1-.61-.17.71.71,0,0,1-.19-.57v-.11c0-.57.27-.86.8-.86h.69v-.27a.34.34,0,0,0-.11-.27.46.46,0,0,0-.31-.09h-.85v-.42h.8a1,1,0,0,1,.71.21.9.9,0,0,1,.23.68v1.32a.12.12,0,0,0,.06.12.36.36,0,0,0,.21.05v.38h-.3A.34.34,0,0,1,374.4,67.1Zm-.33-.45a.39.39,0,0,0,.05-.2v-.6h-.69a.31.31,0,0,0-.33.33v.27a.29.29,0,0,0,.06.21.28.28,0,0,0,.21.07h.49A.23.23,0,0,0,374.07,66.65Z"/><path class="cls-2" d="M380.44,66.9a.94.94,0,0,1-.68.24h-.11a.85.85,0,0,1-.92-.94v-2a.93.93,0,0,1,.24-.7,1,1,0,0,1,.68-.24h.11a.92.92,0,0,1,.68.24.89.89,0,0,1,.25.7v2A.91.91,0,0,1,380.44,66.9Zm-.35-3.08a.44.44,0,0,0-.33-.13h-.11a.44.44,0,0,0-.33.13.41.41,0,0,0-.13.29v1.5l1-1.5A.37.37,0,0,0,380.09,63.82Zm-.77,2.78a.44.44,0,0,0,.33.13h.11a.44.44,0,0,0,.33-.13.37.37,0,0,0,.13-.29V64.82l-1,1.49A.41.41,0,0,0,379.32,66.6Z"/><path class="cls-2" d="M382.54,66.73v-3l-.78.28v-.44l.72-.28H383v3.45h.6v.41h-1.79v-.41Z"/></g><path class="cls-3" d="M365.63,101.09a1.09,1.09,0,0,1-.72.2h-1.14V97.42h1.07a1.22,1.22,0,0,1,.75.2.81.81,0,0,1,.26.66v2.13A.92.92,0,0,1,365.63,101.09Zm-.37-3.15a.44.44,0,0,0-.3-.1h-.71v3H365a.36.36,0,0,0,.41-.4V98.23A.42.42,0,0,0,365.26,97.94Z"/><path class="cls-3" d="M368.44,101.24a.41.41,0,0,1-.14-.12.42.42,0,0,1-.34.17h-.49a.93.93,0,0,1-.61-.17.75.75,0,0,1-.19-.58v-.11c0-.57.27-.86.8-.86h.69V99.3a.35.35,0,0,0-.11-.27.46.46,0,0,0-.31-.09h-.85v-.41h.8a1,1,0,0,1,.71.21.87.87,0,0,1,.23.67v1.32a.15.15,0,0,0,.06.13.48.48,0,0,0,.21,0v.39h-.3A.37.37,0,0,1,368.44,101.24Zm-.33-.45a.36.36,0,0,0,.05-.19V100h-.69a.31.31,0,0,0-.33.33v.28a.23.23,0,0,0,.27.27h.49C368,100.87,368.08,100.85,368.11,100.79Z"/><path class="cls-3" d="M370.54,101.1a.73.73,0,0,1-.15-.48V98.94h-.52v-.41h.52v-.67h.47v.67h.81v.41h-.81v1.71a.21.21,0,0,0,.06.17.33.33,0,0,0,.19.05h.56v.42H371A.53.53,0,0,1,370.54,101.1Z"/><path class="cls-3" d="M374.4,101.24a.41.41,0,0,1-.14-.12.42.42,0,0,1-.34.17h-.49a.93.93,0,0,1-.61-.17.75.75,0,0,1-.19-.58v-.11c0-.57.27-.86.8-.86h.69V99.3A.35.35,0,0,0,374,99a.46.46,0,0,0-.31-.09h-.85v-.41h.8a1,1,0,0,1,.71.21.87.87,0,0,1,.23.67v1.32a.15.15,0,0,0,.06.13.48.48,0,0,0,.21,0v.39h-.3A.37.37,0,0,1,374.4,101.24Zm-.33-.45a.36.36,0,0,0,.05-.19V100h-.69a.31.31,0,0,0-.33.33v.28a.23.23,0,0,0,.27.27h.49C374,100.87,374,100.85,374.07,100.79Z"/><path class="cls-3" d="M380.44,101a1,1,0,0,1-.68.25h-.11A.92.92,0,0,1,379,101a.9.9,0,0,1-.25-.69v-2a.94.94,0,0,1,.24-.7,1,1,0,0,1,.68-.24h.11a.92.92,0,0,1,.68.24.91.91,0,0,1,.25.7v2A.9.9,0,0,1,380.44,101ZM380.09,98a.48.48,0,0,0-.33-.12h-.11a.48.48,0,0,0-.33.12.42.42,0,0,0-.13.3v1.49l1-1.49A.38.38,0,0,0,380.09,98Zm-.77,2.79a.48.48,0,0,0,.33.12h.11a.48.48,0,0,0,.33-.12.39.39,0,0,0,.13-.3V99l-1,1.49A.43.43,0,0,0,379.32,100.75Z"/><path class="cls-3" d="M383.29,101.08a1,1,0,0,1-.72.21h-.7v-.42h.75a.41.41,0,0,0,.31-.1.38.38,0,0,0,.1-.3V99.9a.38.38,0,0,0-.4-.4H382v-.41h.53a.42.42,0,0,0,.29-.11.38.38,0,0,0,.11-.29v-.46a.41.41,0,0,0-.09-.3.46.46,0,0,0-.31-.09h-.7v-.42h.64a1,1,0,0,1,.7.21.81.81,0,0,1,.24.65v.35a.74.74,0,0,1-.3.64.71.71,0,0,1,.36.68v.46A.87.87,0,0,1,383.29,101.08Z"/><g class="cls-5"><path class="cls-3" d="M365.63,112.43a1,1,0,0,1-.72.2h-1.14v-3.86h1.07a1.22,1.22,0,0,1,.75.2.78.78,0,0,1,.26.66v2.13A.88.88,0,0,1,365.63,112.43Zm-.37-3.14a.44.44,0,0,0-.3-.11h-.71v3H365a.41.41,0,0,0,.31-.1.44.44,0,0,0,.1-.31v-2.23A.4.4,0,0,0,365.26,109.29Z"/><path class="cls-3" d="M368.44,112.59a.41.41,0,0,1-.14-.12.41.41,0,0,1-.34.16h-.49a.87.87,0,0,1-.61-.17.71.71,0,0,1-.19-.57v-.11c0-.57.27-.86.8-.86h.69v-.28a.33.33,0,0,0-.11-.26.46.46,0,0,0-.31-.09h-.85v-.42h.8a1,1,0,0,1,.71.21.89.89,0,0,1,.23.67v1.33a.13.13,0,0,0,.06.12.37.37,0,0,0,.21,0v.39h-.3A.34.34,0,0,1,368.44,112.59Zm-.33-.45a.39.39,0,0,0,.05-.2v-.61h-.69a.33.33,0,0,0-.24.1.32.32,0,0,0-.09.24v.27a.29.29,0,0,0,.06.21.28.28,0,0,0,.21.07h.49A.23.23,0,0,0,368.11,112.14Z"/><path class="cls-3" d="M370.54,112.45a.73.73,0,0,1-.15-.48v-1.68h-.52v-.42h.52v-.66h.47v.66h.81v.42h-.81V112a.22.22,0,0,0,.06.17.33.33,0,0,0,.19,0h.56v.41H371A.52.52,0,0,1,370.54,112.45Z"/><path class="cls-3" d="M374.4,112.59a.41.41,0,0,1-.14-.12.41.41,0,0,1-.34.16h-.49a.87.87,0,0,1-.61-.17.71.71,0,0,1-.19-.57v-.11c0-.57.27-.86.8-.86h.69v-.28a.33.33,0,0,0-.11-.26.46.46,0,0,0-.31-.09h-.85v-.42h.8a1,1,0,0,1,.71.21.89.89,0,0,1,.23.67v1.33a.13.13,0,0,0,.06.12.37.37,0,0,0,.21,0v.39h-.3A.34.34,0,0,1,374.4,112.59Zm-.33-.45a.39.39,0,0,0,.05-.2v-.61h-.69a.33.33,0,0,0-.24.1.32.32,0,0,0-.09.24v.27a.29.29,0,0,0,.06.21.28.28,0,0,0,.21.07h.49A.23.23,0,0,0,374.07,112.14Z"/><path class="cls-3" d="M380.44,112.39a.94.94,0,0,1-.68.24h-.11a.85.85,0,0,1-.92-.94v-2a.93.93,0,0,1,.24-.7,1,1,0,0,1,.68-.24h.11a.92.92,0,0,1,.68.24.89.89,0,0,1,.25.7v2A.91.91,0,0,1,380.44,112.39Zm-.35-3.08a.44.44,0,0,0-.33-.13h-.11a.44.44,0,0,0-.33.13.41.41,0,0,0-.13.29v1.5l1-1.5A.37.37,0,0,0,380.09,109.31Zm-.77,2.78a.44.44,0,0,0,.33.13h.11a.44.44,0,0,0,.33-.13.37.37,0,0,0,.13-.29v-1.49l-1,1.49A.41.41,0,0,0,379.32,112.09Z"/><path class="cls-3" d="M382.66,110.89q.18-.26.24-.36a1.28,1.28,0,0,0,.09-.22,2.45,2.45,0,0,0,0-.32v-.39a.37.37,0,0,0-.13-.29.45.45,0,0,0-.33-.12h-.66v-.42h.6a1.09,1.09,0,0,1,.74.23.92.92,0,0,1,.26.71v.23a2.68,2.68,0,0,1,0,.45,1.33,1.33,0,0,1-.11.3c0,.09-.13.21-.24.37l-.82,1.15h1.32v.42h-1.82v-.48Z"/></g><g class="cls-7"><path class="cls-3" d="M45,140.55a.77.77,0,0,1-.55.19h-.09a.74.74,0,0,1-.54-.19.73.73,0,0,1-.2-.56v-1.61a.71.71,0,0,1,.2-.56.73.73,0,0,1,.54-.19h.09a.68.68,0,0,1,.75.75V140A.77.77,0,0,1,45,140.55Zm-.28-2.49a.36.36,0,0,0-.27-.1h-.09a.35.35,0,0,0-.26.1.34.34,0,0,0-.11.24v1.21l.83-1.21A.33.33,0,0,0,44.68,138.06Zm-.62,2.25a.35.35,0,0,0,.26.1h.09a.36.36,0,0,0,.27-.1.33.33,0,0,0,.1-.24v-1.2l-.83,1.2A.34.34,0,0,0,44.06,140.31Z"/><path class="cls-3" d="M47.36,140.55a.73.73,0,0,1-.54.19h-.09A.68.68,0,0,1,46,140v-1.61a.68.68,0,0,1,.75-.75h.09a.77.77,0,0,1,.55.19.75.75,0,0,1,.2.56V140A.73.73,0,0,1,47.36,140.55Zm-.28-2.49a.35.35,0,0,0-.26-.1h-.09a.36.36,0,0,0-.27.1.33.33,0,0,0-.1.24v1.21l.83-1.21A.34.34,0,0,0,47.08,138.06Zm-.62,2.25a.36.36,0,0,0,.27.1h.09a.35.35,0,0,0,.26-.1.34.34,0,0,0,.11-.24v-1.2l-.83,1.2A.33.33,0,0,0,46.46,140.31Z"/></g><g class="cls-7"><path class="cls-3" d="M72.82,140.55a.77.77,0,0,1-.55.19h-.09a.69.69,0,0,1-.75-.75v-1.61a.72.72,0,0,1,.21-.56.73.73,0,0,1,.54-.19h.09a.68.68,0,0,1,.75.75V140A.77.77,0,0,1,72.82,140.55Zm-.28-2.49a.36.36,0,0,0-.27-.1h-.09a.35.35,0,0,0-.26.1.34.34,0,0,0-.11.24v1.21l.83-1.21A.33.33,0,0,0,72.54,138.06Zm-.62,2.25a.35.35,0,0,0,.26.1h.09a.36.36,0,0,0,.27-.1.33.33,0,0,0,.1-.24v-1.2l-.83,1.2A.34.34,0,0,0,71.92,140.31Z"/><path class="cls-3" d="M74.51,140.41V138l-.63.23v-.36l.59-.22h.42v2.78h.49v.33H73.93v-.33Z"/></g><g class="cls-7"><path class="cls-3" d="M100.68,140.55a.77.77,0,0,1-.55.19H100a.69.69,0,0,1-.75-.75v-1.61a.75.75,0,0,1,.2-.56.77.77,0,0,1,.55-.19h.09a.77.77,0,0,1,.55.19.75.75,0,0,1,.2.56V140A.77.77,0,0,1,100.68,140.55Zm-.29-2.49a.33.33,0,0,0-.26-.1H100a.36.36,0,0,0-.37.34v1.21l.83-1.21A.34.34,0,0,0,100.39,138.06Zm-.61,2.25a.34.34,0,0,0,.26.1h.09a.33.33,0,0,0,.26-.1.34.34,0,0,0,.11-.24v-1.2l-.83,1.2A.34.34,0,0,0,99.78,140.31Z"/><path class="cls-3" d="M102.47,139.34l.19-.29a.45.45,0,0,0,.07-.18,1.61,1.61,0,0,0,0-.26v-.31a.37.37,0,0,0-.1-.24.4.4,0,0,0-.27-.09h-.54v-.34h.49a.85.85,0,0,1,.6.19.7.7,0,0,1,.21.56v.19a1.19,1.19,0,0,1,0,.36,1.47,1.47,0,0,1-.08.25c0,.07-.11.17-.2.3l-.65.93h1.06v.33h-1.47v-.39Z"/></g><g class="cls-7"><path class="cls-3" d="M128.53,140.55a.73.73,0,0,1-.54.19h-.09a.68.68,0,0,1-.75-.75v-1.61a.75.75,0,0,1,.2-.56.77.77,0,0,1,.55-.19H128a.77.77,0,0,1,.55.19.75.75,0,0,1,.2.56V140A.73.73,0,0,1,128.53,140.55Zm-.28-2.49a.34.34,0,0,0-.26-.1h-.09a.36.36,0,0,0-.27.1.33.33,0,0,0-.1.24v1.21l.83-1.21A.34.34,0,0,0,128.25,138.06Zm-.62,2.25a.36.36,0,0,0,.27.1H128a.36.36,0,0,0,.37-.34v-1.2l-.83,1.2A.33.33,0,0,0,127.63,140.31Z"/><path class="cls-3" d="M130.83,140.58a.84.84,0,0,1-.58.16h-.57v-.33h.61a.34.34,0,0,0,.25-.08.29.29,0,0,0,.08-.24v-.46a.28.28,0,0,0-.32-.32h-.48V139h.43a.34.34,0,0,0,.24-.09.32.32,0,0,0,.09-.23v-.37a.33.33,0,0,0-.08-.24.34.34,0,0,0-.25-.08h-.57v-.33h.52a.86.86,0,0,1,.57.16.68.68,0,0,1,.2.53v.28a.59.59,0,0,1-.25.52.57.57,0,0,1,.29.55V140A.7.7,0,0,1,130.83,140.58Z"/></g><g class="cls-7"><path class="cls-3" d="M156.39,140.55a.73.73,0,0,1-.54.19h-.09A.68.68,0,0,1,155,140v-1.61a.68.68,0,0,1,.75-.75h.09a.77.77,0,0,1,.55.19.75.75,0,0,1,.2.56V140A.73.73,0,0,1,156.39,140.55Zm-.28-2.49a.35.35,0,0,0-.26-.1h-.09a.36.36,0,0,0-.27.1.33.33,0,0,0-.1.24v1.21l.83-1.21A.34.34,0,0,0,156.11,138.06Zm-.62,2.25a.36.36,0,0,0,.27.1h.09a.35.35,0,0,0,.26-.1.34.34,0,0,0,.11-.24v-1.2l-.83,1.2A.33.33,0,0,0,155.49,140.31Z"/><path class="cls-3" d="M158.31,140.74v-.69h-.92v-.38l.48-2h.36l-.45,2.09h.53v-1h.38v1H159v.33h-.33v.69Z"/></g><g class="cls-7"><path class="cls-3" d="M184.3,140.55a.77.77,0,0,1-.55.19h-.09a.69.69,0,0,1-.75-.75v-1.61a.75.75,0,0,1,.2-.56.77.77,0,0,1,.55-.19h.09a.68.68,0,0,1,.75.75V140A.77.77,0,0,1,184.3,140.55Zm-.28-2.49a.36.36,0,0,0-.27-.1h-.09a.35.35,0,0,0-.26.1.34.34,0,0,0-.11.24v1.21l.83-1.21A.33.33,0,0,0,184,138.06Zm-.62,2.25a.35.35,0,0,0,.26.1h.09a.36.36,0,0,0,.27-.1.33.33,0,0,0,.1-.24v-1.2l-.83,1.2A.34.34,0,0,0,183.4,140.31Z"/><path class="cls-3" d="M186.6,140.58a.84.84,0,0,1-.58.16h-.58v-.33h.62a.34.34,0,0,0,.25-.08.29.29,0,0,0,.08-.24v-.57a.29.29,0,0,0-.09-.23.32.32,0,0,0-.23-.09h-.59v-1.57h1.23V138h-.85v.91H186a.81.81,0,0,1,.54.16.68.68,0,0,1,.2.53V140A.7.7,0,0,1,186.6,140.58Z"/></g><g class="cls-7"><path class="cls-3" d="M212.15,140.55a.73.73,0,0,1-.54.19h-.09a.68.68,0,0,1-.75-.75v-1.61a.75.75,0,0,1,.2-.56.77.77,0,0,1,.55-.19h.09a.77.77,0,0,1,.55.19.75.75,0,0,1,.2.56V140A.73.73,0,0,1,212.15,140.55Zm-.28-2.49a.34.34,0,0,0-.26-.1h-.09a.36.36,0,0,0-.27.1.33.33,0,0,0-.1.24v1.21l.83-1.21A.34.34,0,0,0,211.87,138.06Zm-.62,2.25a.36.36,0,0,0,.27.1h.09a.36.36,0,0,0,.37-.34v-1.2l-.83,1.2A.33.33,0,0,0,211.25,140.31Z"/><path class="cls-3" d="M214.56,140.55a.68.68,0,0,1-.5.19h-.16a.68.68,0,0,1-.5-.19.77.77,0,0,1-.2-.56v-1.61a.73.73,0,0,1,.2-.56.82.82,0,0,1,.59-.19h.56V138H214a.4.4,0,0,0-.27.09.33.33,0,0,0-.1.24v.48H214a.83.83,0,0,1,.57.17.74.74,0,0,1,.18.55V140A.77.77,0,0,1,214.56,140.55Zm-.89-.24a.32.32,0,0,0,.25.1H214a.32.32,0,0,0,.25-.1.32.32,0,0,0,.09-.24v-.66a.25.25,0,0,0-.08-.21.29.29,0,0,0-.24-.08h-.48v.95A.32.32,0,0,0,213.67,140.31Z"/></g><g class="cls-7"><path class="cls-3" d="M240,140.55a.73.73,0,0,1-.54.19h-.09a.68.68,0,0,1-.75-.75v-1.61a.68.68,0,0,1,.75-.75h.09a.73.73,0,0,1,.54.19.72.72,0,0,1,.21.56V140A.73.73,0,0,1,240,140.55Zm-.28-2.49a.35.35,0,0,0-.26-.1h-.09a.36.36,0,0,0-.27.1.33.33,0,0,0-.1.24v1.21l.83-1.21A.34.34,0,0,0,239.73,138.06Zm-.62,2.25a.36.36,0,0,0,.27.1h.09a.35.35,0,0,0,.26-.1.34.34,0,0,0,.11-.24v-1.2l-.83,1.2A.33.33,0,0,0,239.11,140.31Z"/><path class="cls-3" d="M242.17,138h-1.08v-.33h1.45v.43l-.79,2.68h-.39Z"/></g><g class="cls-7"><path class="cls-3" d="M267.87,140.55a.73.73,0,0,1-.54.19h-.09a.68.68,0,0,1-.75-.75v-1.61a.68.68,0,0,1,.75-.75h.09a.77.77,0,0,1,.55.19.75.75,0,0,1,.2.56V140A.73.73,0,0,1,267.87,140.55Zm-.28-2.49a.35.35,0,0,0-.26-.1h-.09a.36.36,0,0,0-.27.1.33.33,0,0,0-.1.24v1.21l.83-1.21A.34.34,0,0,0,267.59,138.06Zm-.62,2.25a.36.36,0,0,0,.27.1h.09a.35.35,0,0,0,.26-.1.34.34,0,0,0,.11-.24v-1.2l-.83,1.2A.33.33,0,0,0,267,140.31Z"/><path class="cls-3" d="M270.33,140.58a.84.84,0,0,1-.58.16h-.12a.84.84,0,0,1-.58-.16.7.7,0,0,1-.18-.54v-.37a.57.57,0,0,1,.29-.55.58.58,0,0,1-.24-.52v-.28a.64.64,0,0,1,.19-.52.72.72,0,0,1,.53-.17h.09a.76.76,0,0,1,.54.17.67.67,0,0,1,.18.52v.28a.6.6,0,0,1-.23.52.58.58,0,0,1,.29.55V140A.7.7,0,0,1,270.33,140.58Zm-.3-1.19a.36.36,0,0,0-.24-.08h-.21a.28.28,0,0,0-.32.32v.46a.33.33,0,0,0,.07.24.28.28,0,0,0,.22.08h.24a.36.36,0,0,0,.25-.08.33.33,0,0,0,.08-.24v-.46A.32.32,0,0,0,270,139.39Zm-.66-1.35a.43.43,0,0,0-.06.24v.37a.36.36,0,0,0,.08.23.33.33,0,0,0,.21.09h.15a.31.31,0,0,0,.32-.32v-.37a.28.28,0,0,0-.32-.32h-.16A.29.29,0,0,0,269.37,138Z"/></g><g class="cls-7"><path class="cls-3" d="M295.73,140.55a.75.75,0,0,1-.55.19h-.08a.68.68,0,0,1-.75-.75v-1.61a.71.71,0,0,1,.2-.56.74.74,0,0,1,.55-.19h.08a.74.74,0,0,1,.55.19.71.71,0,0,1,.2.56V140A.73.73,0,0,1,295.73,140.55Zm-.28-2.49a.36.36,0,0,0-.27-.1h-.08a.36.36,0,0,0-.27.1.33.33,0,0,0-.1.24v1.21l.82-1.21A.33.33,0,0,0,295.45,138.06Zm-.62,2.25a.36.36,0,0,0,.27.1h.08a.36.36,0,0,0,.27-.1.33.33,0,0,0,.1-.24v-1.2l-.82,1.2A.33.33,0,0,0,294.83,140.31Z"/><path class="cls-3" d="M297,137.82a.68.68,0,0,1,.5-.19h.16a.68.68,0,0,1,.5.19.73.73,0,0,1,.2.56V140a.74.74,0,0,1-.2.57.85.85,0,0,1-.59.18H297v-.33h.56a.38.38,0,0,0,.26-.1.33.33,0,0,0,.1-.24v-.48h-.43a.83.83,0,0,1-.57-.17.74.74,0,0,1-.18-.55v-.49A.77.77,0,0,1,297,137.82Zm.89.24a.32.32,0,0,0-.25-.1h-.11a.33.33,0,0,0-.35.34V139a.29.29,0,0,0,.08.21.32.32,0,0,0,.24.08H298v-.95A.32.32,0,0,0,297.86,138.06Z"/></g><g class="cls-7"><path class="cls-3" d="M322.88,140.41V138l-.63.23v-.36l.59-.22h.42v2.78h.48v.33H322.3v-.33Z"/><path class="cls-3" d="M326,140.55a.77.77,0,0,1-.55.19h-.09a.69.69,0,0,1-.75-.75v-1.61a.75.75,0,0,1,.2-.56.77.77,0,0,1,.55-.19h.09a.77.77,0,0,1,.55.19.75.75,0,0,1,.2.56V140A.77.77,0,0,1,326,140.55Zm-.29-2.49a.33.33,0,0,0-.26-.1h-.09a.36.36,0,0,0-.37.34v1.21l.83-1.21A.34.34,0,0,0,325.71,138.06Zm-.61,2.25a.34.34,0,0,0,.26.1h.09a.33.33,0,0,0,.26-.1.34.34,0,0,0,.11-.24v-1.2l-.83,1.2A.34.34,0,0,0,325.1,140.31Z"/></g><g class="cls-7"><path class="cls-3" d="M350.74,140.41V138l-.63.23v-.36l.58-.22h.43v2.78h.48v.33h-1.45v-.33Z"/><path class="cls-3" d="M353.14,140.41V138l-.63.23v-.36l.59-.22h.42v2.78H354v.33h-1.45v-.33Z"/></g><g class="cls-5"><path class="cls-2" d="M45.2,154.19v-6.35l-1.64.61v-.94l1.52-.58h1.11v7.26h1.26v.87H43.68v-.87Z"/><path class="cls-2" d="M53.36,145.65h1L50.2,156.33h-1Z"/><path class="cls-2" d="M57.74,154.19v-6.35l-1.64.61v-.94l1.53-.58h1.1v7.26H60v.87H56.22v-.87Z"/><path class="cls-2" d="M65.59,154.62a2.16,2.16,0,0,1-1.51.44H62.6v-.87h1.59a.89.89,0,0,0,.65-.21.85.85,0,0,0,.21-.64v-1.2a.84.84,0,0,0-.23-.61.86.86,0,0,0-.62-.23H63v-.87h1.12a.84.84,0,0,0,.61-.23.81.81,0,0,0,.24-.61v-1a.91.91,0,0,0-.2-.64.92.92,0,0,0-.65-.19H62.6v-.87h1.34a2.26,2.26,0,0,1,1.5.43,1.75,1.75,0,0,1,.5,1.38v.73a1.55,1.55,0,0,1-.64,1.35,1.49,1.49,0,0,1,.76,1.43v1A1.85,1.85,0,0,1,65.59,154.62Z"/><path class="cls-2" d="M71.48,147.8H68.67v-.87h3.78v1.12l-2,7h-1Z"/><path class="cls-2" d="M76.52,155.06v-1.17h1.16v1.17L77,156.68h-.9Z"/><path class="cls-2" d="M84.68,154.55a2,2,0,0,1-1.42.51H83a2,2,0,0,1-1.43-.51,2,2,0,0,1-.52-1.47V148.9a1.92,1.92,0,0,1,.52-1.47,2,2,0,0,1,1.43-.5h.23a2,2,0,0,1,1.43.5,1.92,1.92,0,0,1,.52,1.47v4.18A2,2,0,0,1,84.68,154.55ZM84,148.06a.93.93,0,0,0-.69-.26H83a.93.93,0,0,0-.69.26.8.8,0,0,0-.28.62v3.15l2.16-3.15A.83.83,0,0,0,84,148.06Zm-1.61,5.86a.93.93,0,0,0,.69.27h.23a.93.93,0,0,0,.69-.27.83.83,0,0,0,.27-.62v-3.13l-2.16,3.13A.8.8,0,0,0,82.34,153.92Z"/><path class="cls-2" d="M90.68,154.62a2.16,2.16,0,0,1-1.51.44H87.68v-.87h1.6a.89.89,0,0,0,.65-.21.85.85,0,0,0,.2-.64v-1.2a.8.8,0,0,0-.23-.61.84.84,0,0,0-.61-.23H88v-.87h1.13a.81.81,0,0,0,.6-.23.78.78,0,0,0,.25-.61v-1a.91.91,0,0,0-.2-.64.94.94,0,0,0-.65-.19H87.68v-.87H89a2.21,2.21,0,0,1,1.49.43,1.72,1.72,0,0,1,.51,1.38v.73a1.55,1.55,0,0,1-.64,1.35,1.5,1.5,0,0,1,.75,1.43v1A1.84,1.84,0,0,1,90.68,154.62Z"/><path class="cls-2" d="M97.23,154.55a1.79,1.79,0,0,1-1.31.51h-.41a1.81,1.81,0,0,1-1.31-.51,2,2,0,0,1-.52-1.47V148.9a1.9,1.9,0,0,1,.53-1.48,2.15,2.15,0,0,1,1.53-.49H97.2v.88H95.63a1,1,0,0,0-.7.25.83.83,0,0,0-.27.62V150H95.8a2.1,2.1,0,0,1,1.48.44,1.86,1.86,0,0,1,.47,1.41v1.28A2,2,0,0,1,97.23,154.55Zm-2.32-.62a.87.87,0,0,0,.66.26h.29a.87.87,0,0,0,.66-.26.85.85,0,0,0,.25-.63v-1.72a.75.75,0,0,0-.22-.56.85.85,0,0,0-.63-.2H94.66v2.48A.89.89,0,0,0,94.91,153.93Z"/><path class="cls-2" d="M100.46,147.44a1.81,1.81,0,0,1,1.31-.51h.41a1.79,1.79,0,0,1,1.31.51,2,2,0,0,1,.52,1.46v4.18a1.93,1.93,0,0,1-.52,1.48,2.19,2.19,0,0,1-1.54.5h-1.34v-.89h1.45a1,1,0,0,0,.7-.25.83.83,0,0,0,.27-.62V152h-1.14a2.15,2.15,0,0,1-1.48-.44,1.9,1.9,0,0,1-.47-1.42V148.9A2,2,0,0,1,100.46,147.44Zm2.32.61a.86.86,0,0,0-.66-.25h-.29a.86.86,0,0,0-.66.25.89.89,0,0,0-.25.63v1.72a.74.74,0,0,0,.22.56.86.86,0,0,0,.63.21H103v-2.49A.85.85,0,0,0,102.78,148.05Z"/><path class="cls-2" d="M106.73,147.44a1.81,1.81,0,0,1,1.31-.51h.41a1.79,1.79,0,0,1,1.31.51,2,2,0,0,1,.53,1.46v4.18a1.94,1.94,0,0,1-.53,1.48,2.19,2.19,0,0,1-1.54.5h-1.34v-.89h1.45a1,1,0,0,0,.7-.25.83.83,0,0,0,.27-.62V152h-1.14a2.1,2.1,0,0,1-1.47-.44,1.86,1.86,0,0,1-.48-1.42V148.9A2,2,0,0,1,106.73,147.44Zm2.32.61a.86.86,0,0,0-.66-.25h-.29a.86.86,0,0,0-.66.25.88.88,0,0,0-.24.63v1.72a.73.73,0,0,0,.21.56.87.87,0,0,0,.63.21h1.26v-2.49A.85.85,0,0,0,109.05,148.05Z"/><path class="cls-2" d="M113,147.44a1.82,1.82,0,0,1,1.32-.51h.4a1.78,1.78,0,0,1,1.31.51,2,2,0,0,1,.53,1.46v4.18a1.94,1.94,0,0,1-.53,1.48,2.18,2.18,0,0,1-1.54.5h-1.34v-.89h1.46a1,1,0,0,0,.69-.25.83.83,0,0,0,.27-.62V152h-1.14a2.12,2.12,0,0,1-1.47-.44,1.86,1.86,0,0,1-.48-1.42V148.9A2,2,0,0,1,113,147.44Zm2.33.61a.9.9,0,0,0-.67-.25h-.29a.87.87,0,0,0-.66.25.88.88,0,0,0-.24.63v1.72a.73.73,0,0,0,.21.56.9.9,0,0,0,.64.21h1.25v-2.49A.88.88,0,0,0,115.33,148.05Z"/><path class="cls-2" d="M122.31,154.55a2,2,0,0,1-1.42.51h-.23a2,2,0,0,1-1.43-.51,2,2,0,0,1-.52-1.47V148.9a1.92,1.92,0,0,1,.52-1.47,2,2,0,0,1,1.43-.5h.23a2,2,0,0,1,1.43.5,1.92,1.92,0,0,1,.52,1.47v4.18A2,2,0,0,1,122.31,154.55Zm-.73-6.49a.93.93,0,0,0-.69-.26h-.23a.93.93,0,0,0-.69.26.8.8,0,0,0-.28.62v3.15l2.16-3.15A.83.83,0,0,0,121.58,148.06ZM120,153.92a.93.93,0,0,0,.69.27h.23a.93.93,0,0,0,.69-.27.83.83,0,0,0,.27-.62v-3.13l-2.16,3.13A.8.8,0,0,0,120,153.92Z"/></g><g class="cls-4"><g class="cls-8"><path class="cls-3" d="M-182,350.94a.55.55,0,0,1-.38-.16.55.55,0,0,1,0-.77L41,126.7a.54.54,0,0,1,.76.76L-181.61,350.78A.57.57,0,0,1-182,350.94Z"/><path class="cls-3" d="M-174.82,350.94a.59.59,0,0,1-.39-.16.55.55,0,0,1,0-.77L48.12,126.7a.54.54,0,0,1,.76.76L-174.44,350.78A.59.59,0,0,1-174.82,350.94Z"/><path class="cls-3" d="M-167.66,350.94a.57.57,0,0,1-.38-.16.55.55,0,0,1,0-.77L55.28,126.7a.55.55,0,0,1,.77,0,.54.54,0,0,1,0,.76L-167.28,350.78A.55.55,0,0,1-167.66,350.94Z"/><path class="cls-3" d="M-160.49,350.94a.55.55,0,0,1-.38-.16.53.53,0,0,1,0-.77L62.45,126.7a.54.54,0,0,1,.76,0,.52.52,0,0,1,0,.76L-160.11,350.78A.57.57,0,0,1-160.49,350.94Z"/><path class="cls-3" d="M-153.33,350.94a.59.59,0,0,1-.38-.16.55.55,0,0,1,0-.77L69.61,126.7a.55.55,0,0,1,.77,0,.54.54,0,0,1,0,.76L-152.94,350.78A.59.59,0,0,1-153.33,350.94Z"/><path class="cls-3" d="M-146.16,350.94a.57.57,0,0,1-.38-.16.55.55,0,0,1,0-.77L76.78,126.7a.54.54,0,0,1,.76,0,.52.52,0,0,1,0,.76L-145.78,350.78A.55.55,0,0,1-146.16,350.94Z"/><path class="cls-3" d="M-139,350.94a.59.59,0,0,1-.39-.16.55.55,0,0,1,0-.77L84,126.7a.54.54,0,0,1,.76.76L-138.61,350.78A.59.59,0,0,1-139,350.94Z"/><path class="cls-3" d="M-131.83,350.94a.59.59,0,0,1-.38-.16.55.55,0,0,1,0-.77L91.12,126.7a.54.54,0,0,1,.76.76L-131.44,350.78A.59.59,0,0,1-131.83,350.94Z"/><path class="cls-3" d="M-124.66,350.94a.55.55,0,0,1-.38-.16.55.55,0,0,1,0-.77L98.28,126.7a.54.54,0,0,1,.76,0,.52.52,0,0,1,0,.76L-124.28,350.78A.55.55,0,0,1-124.66,350.94Z"/><path class="cls-3" d="M-117.49,350.94a.59.59,0,0,1-.39-.16.55.55,0,0,1,0-.77L105.45,126.7a.54.54,0,0,1,.76.76L-117.11,350.78A.59.59,0,0,1-117.49,350.94Z"/><path class="cls-3" d="M-110.33,350.94a.55.55,0,0,1-.38-.16.55.55,0,0,1,0-.77L112.61,126.7a.55.55,0,0,1,.77,0,.54.54,0,0,1,0,.76L-109.95,350.78A.55.55,0,0,1-110.33,350.94Z"/><path class="cls-3" d="M-103.16,350.94a.55.55,0,0,1-.38-.16.53.53,0,0,1,0-.77L119.78,126.7a.54.54,0,0,1,.76.76L-102.78,350.78A.57.57,0,0,1-103.16,350.94Z"/><path class="cls-3" d="M-96,350.94a.59.59,0,0,1-.38-.16.55.55,0,0,1,0-.77L126.94,126.7a.55.55,0,0,1,.77,0,.54.54,0,0,1,0,.76L-95.61,350.78A.59.59,0,0,1-96,350.94Z"/><path class="cls-3" d="M-88.83,350.94a.55.55,0,0,1-.38-.16.55.55,0,0,1,0-.77L134.11,126.7a.54.54,0,0,1,.76.76L-88.45,350.78A.55.55,0,0,1-88.83,350.94Z"/><path class="cls-3" d="M-81.67,350.94a.59.59,0,0,1-.38-.16.55.55,0,0,1,0-.77L141.28,126.7a.54.54,0,0,1,.76.76L-81.28,350.78A.59.59,0,0,1-81.67,350.94Z"/><path class="cls-3" d="M-74.5,350.94a.55.55,0,0,1-.38-.16.55.55,0,0,1,0-.77L148.44,126.7a.55.55,0,0,1,.77,0,.54.54,0,0,1,0,.76L-74.12,350.78A.55.55,0,0,1-74.5,350.94Z"/><path class="cls-3" d="M-67.33,350.94a.55.55,0,0,1-.38-.16.55.55,0,0,1,0-.77L155.61,126.7a.54.54,0,0,1,.76.76L-66.95,350.78A.55.55,0,0,1-67.33,350.94Z"/><path class="cls-3" d="M-60.16,350.94a.59.59,0,0,1-.39-.16.55.55,0,0,1,0-.77L162.78,126.7a.54.54,0,0,1,.76.76L-59.78,350.78A.59.59,0,0,1-60.16,350.94Z"/><path class="cls-3" d="M-53,350.94a.55.55,0,0,1-.38-.16.55.55,0,0,1,0-.77L169.94,126.7a.54.54,0,0,1,.76,0,.52.52,0,0,1,0,.76L-52.62,350.78A.55.55,0,0,1-53,350.94Z"/><path class="cls-3" d="M-45.83,350.94a.59.59,0,0,1-.39-.16.55.55,0,0,1,0-.77L177.11,126.7a.54.54,0,0,1,.76.76L-45.45,350.78A.59.59,0,0,1-45.83,350.94Z"/><path class="cls-3" d="M-38.67,350.94a.59.59,0,0,1-.38-.16.55.55,0,0,1,0-.77L184.27,126.7a.55.55,0,0,1,.77,0,.54.54,0,0,1,0,.76L-38.28,350.78A.59.59,0,0,1-38.67,350.94Z"/><path class="cls-3" d="M-31.5,350.94a.55.55,0,0,1-.38-.16.55.55,0,0,1,0-.77L191.44,126.7a.54.54,0,0,1,.76,0,.52.52,0,0,1,0,.76L-31.12,350.78A.57.57,0,0,1-31.5,350.94Z"/><path class="cls-3" d="M-24.33,350.94a.59.59,0,0,1-.39-.16.55.55,0,0,1,0-.77L198.61,126.7a.54.54,0,0,1,.76.76L-23.95,350.78A.59.59,0,0,1-24.33,350.94Z"/><path class="cls-3" d="M-17.17,350.94a.57.57,0,0,1-.38-.16.55.55,0,0,1,0-.77L205.77,126.7a.55.55,0,0,1,.77,0,.54.54,0,0,1,0,.76L-16.79,350.78A.55.55,0,0,1-17.17,350.94Z"/><path class="cls-3" d="M-10,350.94a.55.55,0,0,1-.38-.16.55.55,0,0,1,0-.77L212.94,126.7a.54.54,0,0,1,.76.76L-9.62,350.78A.55.55,0,0,1-10,350.94Z"/><path class="cls-3" d="M-2.83,350.94a.59.59,0,0,1-.39-.16.55.55,0,0,1,0-.77L220.1,126.7a.55.55,0,0,1,.77,0,.54.54,0,0,1,0,.76L-2.45,350.78A.59.59,0,0,1-2.83,350.94Z"/><path class="cls-3" d="M4.33,350.94A.55.55,0,0,1,4,350L227.27,126.7a.55.55,0,0,1,.77,0,.54.54,0,0,1,0,.76L4.71,350.78A.55.55,0,0,1,4.33,350.94Z"/><path class="cls-3" d="M11.5,350.94a.59.59,0,0,1-.39-.16.55.55,0,0,1,0-.77L234.44,126.7a.54.54,0,0,1,.76.76L11.88,350.78A.59.59,0,0,1,11.5,350.94Z"/><path class="cls-3" d="M18.66,350.94a.59.59,0,0,1-.38-.16.55.55,0,0,1,0-.77L241.6,126.7a.55.55,0,0,1,.77,0,.54.54,0,0,1,0,.76L19.05,350.78A.59.59,0,0,1,18.66,350.94Z"/><path class="cls-3" d="M25.83,350.94a.55.55,0,0,1-.38-.93L248.77,126.7a.54.54,0,0,1,.76.76L26.21,350.78A.57.57,0,0,1,25.83,350.94Z"/><path class="cls-3" d="M33,350.94a.59.59,0,0,1-.39-.16.55.55,0,0,1,0-.77L255.94,126.7a.54.54,0,0,1,.76.76L33.38,350.78A.59.59,0,0,1,33,350.94Z"/><path class="cls-3" d="M40.16,350.94a.55.55,0,0,1-.38-.93L263.1,126.7a.55.55,0,0,1,.77,0,.54.54,0,0,1,0,.76L40.54,350.78A.55.55,0,0,1,40.16,350.94Z"/><path class="cls-3" d="M47.33,350.94a.55.55,0,0,1-.38-.16.53.53,0,0,1,0-.77L270.27,126.7a.54.54,0,0,1,.76.76L47.71,350.78A.57.57,0,0,1,47.33,350.94Z"/><path class="cls-3" d="M54.49,350.94a.59.59,0,0,1-.38-.16.55.55,0,0,1,0-.77L277.43,126.7a.55.55,0,0,1,.77,0,.54.54,0,0,1,0,.76L54.87,350.78A.55.55,0,0,1,54.49,350.94Z"/><path class="cls-3" d="M61.66,350.94a.55.55,0,0,1-.38-.93L284.6,126.7a.54.54,0,0,1,.76,0,.52.52,0,0,1,0,.76L62,350.78A.55.55,0,0,1,61.66,350.94Z"/><path class="cls-3" d="M68.83,350.94a.55.55,0,0,1-.38-.16.53.53,0,0,1,0-.77L291.77,126.7a.54.54,0,0,1,.76.76L69.21,350.78A.57.57,0,0,1,68.83,350.94Z"/><path class="cls-3" d="M76,350.94a.59.59,0,0,1-.38-.16.55.55,0,0,1,0-.77L298.93,126.7a.55.55,0,0,1,.77,0,.54.54,0,0,1,0,.76L76.38,350.78A.59.59,0,0,1,76,350.94Z"/><path class="cls-3" d="M83.16,350.94a.55.55,0,0,1-.38-.93L306.1,126.7a.54.54,0,0,1,.76.76L83.54,350.78A.55.55,0,0,1,83.16,350.94Z"/><path class="cls-3" d="M90.33,350.94a.59.59,0,0,1-.39-.16.55.55,0,0,1,0-.77L313.26,126.7a.55.55,0,0,1,.77,0,.54.54,0,0,1,0,.76L90.71,350.78A.59.59,0,0,1,90.33,350.94Z"/><path class="cls-3" d="M97.49,350.94a.55.55,0,0,1-.38-.93L320.43,126.7a.54.54,0,0,1,.76,0,.52.52,0,0,1,0,.76L97.87,350.78A.55.55,0,0,1,97.49,350.94Z"/><path class="cls-3" d="M104.66,350.94a.55.55,0,0,1-.38-.93L327.6,126.7a.54.54,0,0,1,.76.76L105,350.78A.57.57,0,0,1,104.66,350.94Z"/><path class="cls-3" d="M111.82,350.94a.59.59,0,0,1-.38-.16.55.55,0,0,1,0-.77L334.76,126.7a.55.55,0,0,1,.77,0,.54.54,0,0,1,0,.76L112.21,350.78A.59.59,0,0,1,111.82,350.94Z"/><path class="cls-3" d="M119,350.94a.55.55,0,0,1-.38-.93L341.93,126.7a.54.54,0,0,1,.76.76L119.37,350.78A.57.57,0,0,1,119,350.94Z"/><path class="cls-3" d="M126.16,350.94a.59.59,0,0,1-.39-.16.55.55,0,0,1,0-.77L349.09,126.7a.55.55,0,0,1,.77,0,.54.54,0,0,1,0,.76L126.54,350.78A.59.59,0,0,1,126.16,350.94Z"/><path class="cls-3" d="M133.32,350.94a.59.59,0,0,1-.38-.16.55.55,0,0,1,0-.77L356.26,126.7a.54.54,0,0,1,.76,0,.52.52,0,0,1,0,.76L133.71,350.78A.59.59,0,0,1,133.32,350.94Z"/><path class="cls-3" d="M140.49,350.94a.55.55,0,0,1-.38-.16.53.53,0,0,1,0-.77L363.43,126.7a.54.54,0,0,1,.76.76L140.87,350.78A.57.57,0,0,1,140.49,350.94Z"/><path class="cls-3" d="M147.65,350.94a.59.59,0,0,1-.38-.16.55.55,0,0,1,0-.77L370.59,126.7a.55.55,0,0,1,.77,0,.54.54,0,0,1,0,.76L148,350.78A.59.59,0,0,1,147.65,350.94Z"/><path class="cls-3" d="M154.82,350.94a.55.55,0,0,1-.38-.93L377.76,126.7a.54.54,0,0,1,.76.76L155.2,350.78A.55.55,0,0,1,154.82,350.94Z"/><path class="cls-3" d="M162,350.94a.59.59,0,0,1-.39-.16.55.55,0,0,1,0-.77L384.93,126.7a.54.54,0,0,1,.76.76L162.37,350.78A.59.59,0,0,1,162,350.94Z"/><path class="cls-3" d="M169.15,350.94a.59.59,0,0,1-.38-.16.55.55,0,0,1,0-.77L392.09,126.7a.55.55,0,0,1,.77,0,.54.54,0,0,1,0,.76L169.54,350.78A.59.59,0,0,1,169.15,350.94Z"/><path class="cls-3" d="M176.32,350.94a.57.57,0,0,1-.38-.16.55.55,0,0,1,0-.77L399.26,126.7a.54.54,0,0,1,.76.76L176.7,350.78A.55.55,0,0,1,176.32,350.94Z"/><path class="cls-3" d="M183.49,350.94a.59.59,0,0,1-.39-.16.55.55,0,0,1,0-.77L406.42,126.7a.55.55,0,0,1,.77,0,.54.54,0,0,1,0,.76L183.87,350.78A.59.59,0,0,1,183.49,350.94Z"/></g></g></svg>