<?xml version="1.0" encoding="utf-8"?>
<!-- Generator: Adobe Illustrator 25.2.1, SVG Export Plug-In . SVG Version: 6.00 Build 0)  -->
<svg version="1.1" id="Layer_1" xmlns="http://www.w3.org/2000/svg" xmlns:xlink="http://www.w3.org/1999/xlink" x="0px" y="0px"
	 viewBox="0 0 451.4 445.6" style="enable-background:new 0 0 451.4 445.6;" xml:space="preserve">
<style type="text/css">
	.st0{fill:#FFFFFF;}
	.st1{fill:#263238;}
	.st2{opacity:0.2;enable-background:new    ;}
	.st3{fill:#FFFFFF;stroke:#263238;stroke-linecap:round;stroke-linejoin:round;}
	.st4{fill:#996699;stroke:#263238;stroke-linecap:round;stroke-linejoin:round;}
	.st5{fill:#263238;stroke:#263238;stroke-linecap:round;stroke-linejoin:round;}
	.st6{fill:none;stroke:#263238;stroke-linecap:round;stroke-linejoin:round;}
	.st7{fill:#575757;stroke:#263238;stroke-linecap:round;stroke-linejoin:round;}
	.st8{fill:none;stroke:#787878;stroke-linecap:round;stroke-linejoin:round;}
	.st9{fill:none;stroke:#263238;stroke-width:2;stroke-linecap:round;stroke-linejoin:round;}
	.st10{fill:none;stroke:#FFFFFF;stroke-width:2;stroke-linecap:round;stroke-linejoin:round;}
	.st11{fill:none;stroke:#263238;stroke-linecap:round;stroke-miterlimit:10;}
	.st12{fill:#D1D1D1;stroke:#263238;stroke-linecap:round;stroke-linejoin:round;}
	.st13{fill:#A6A6A6;stroke:#263238;stroke-linecap:round;stroke-linejoin:round;}
</style>
<g>
	<g id="freepik--background-simple--inject-3">
		<path class="st0" d="M430.2,130.1c-7.1-14.7-15.5-28.6-25.2-41.8c-28.1-38.5-68.8-69.4-116.5-83C239.9-8.5,184.8,5.1,145.9,38.5
			c-19.9,17.2-35.6,38.8-45.6,63.1c-7,17-14.6,34.2-26.4,48.8c-10.3,12.7-23.8,23-34.9,35.2C15.9,211-0.2,240.9,0,274.4
			c0.2,42.9,17.5,99.1,61.9,117.5c36.7,15.3,77.7-4.7,115.6-7.2c35.4-2.4,66.1,15.9,100.4,16.3c81.9,0.9,149.9-64.4,168.2-138.6
			C457.4,216,449.7,170.9,430.2,130.1z"/>
	</g>
	<g id="freepik--Plants--inject-3">
		<path class="st1" d="M9.9,328.8c2.9,1.3,9.9,1.1,9.9,1.1s-1.5-4.6-1.7-4.9c-1.5-3.2-6.4-8.6-10.4-8c-2.6,0.4-4.4,2.9-3.9,5.5
			c0,0.2,0.1,0.4,0.1,0.5C4.7,325.7,7.5,327.7,9.9,328.8z"/>
		<path class="st1" d="M12.4,349.2c3,0.4,9.3-1.4,9.8-1.5c1,3.6,2.3,7.1,3.8,10.5c0.9,2,1.8,4,2.8,6c-0.6-0.8-1.1-1.6-1.2-1.7
			c-2.3-2.7-8.5-6.6-12.2-5c-2.4,1.1-3.4,3.9-2.3,6.3c0.1,0.2,0.2,0.3,0.2,0.5c1.4,2.5,4.6,3.7,7.3,4.1s8.1-1.1,9.5-1.5
			c0.4,0.8,0.7,1.5,1.1,2.3c1.8,3.6,3.6,7.2,5.3,10.8c0.6,1.3,1.1,2.5,1.7,3.8c-0.5-0.8-0.9-1.4-1-1.5c-2.3-2.7-8.5-6.6-12.2-5
			c-2.4,1.1-3.5,3.9-2.4,6.3c0.1,0.2,0.2,0.3,0.2,0.5c1.4,2.5,4.6,3.7,7.3,4.1s7.6-0.9,9.2-1.4c0.5,1.3,1,2.6,1.5,3.9
			c0.3,0.9,0.6,1.7,0.9,2.6s0.5,1.8,0.7,2.7c0.4,1.7,0.8,3.5,1.2,5.2c0.3,1.2,0.5,2.3,0.7,3.4c-0.6-1.3-1.8-3.7-1.9-3.9
			c-1.9-3-7.4-7.8-11.3-6.8c-2.5,0.7-4,3.3-3.3,5.9c0,0.2,0.1,0.3,0.2,0.5c1,2.7,4,4.4,6.6,5.1c2.8,0.9,9.1,0.1,9.8,0
			c0.4,1.9,0.7,3.7,1,5.4c0.7,3.8,1.2,7.2,1.6,10.1h2.7c-0.5-3-1.1-6.5-1.8-10.5c-0.4-1.9-0.8-3.9-1.3-6c1.9-0.8,3.7-1.6,5.5-2.6
			c2.1,2.2,7.3,4.8,8,5.2c-0.7,1.8-1.4,3.5-2.1,5.1c-1.4,3.4-2.8,6.3-4.1,8.8h2.8c1-2.3,2.2-5,3.4-7.9c0.7-1.8,1.5-3.7,2.2-5.7
			c0.8,0.2,6.9,1.4,9.8,0.8c2.6-0.6,5.8-2.1,6.9-4.6c1.2-2.4,0.2-5.2-2.1-6.4c-0.2-0.1-0.3-0.1-0.5-0.2c-3.8-1.3-9.6,3-11.7,5.9
			c-0.1,0.2-1.3,2.2-2,3.4c0.3-0.8,0.6-1.6,0.9-2.4c0.6-1.6,1.2-3.3,1.8-5.1c0.3-0.9,0.5-1.8,0.8-2.7s0.5-1.9,0.7-2.8
			c0.5-2.2,0.9-4.4,1.3-6.6c1.4,0.5,6.6,2.3,9.3,2.1s6-1.2,7.6-3.5c1.5-2.1,1-5.1-1.1-6.6c-0.1-0.1-0.3-0.2-0.4-0.3
			c-3.6-1.8-10,1.5-12.5,4.1c-0.2,0.2-1.8,2.2-2.6,3.3c0.2-1.4,0.4-2.7,0.6-4.1c0.5-4,0.9-8,1.3-12c0.1-1.2,0.2-2.5,0.4-3.7
			c0.5,0.2,6.6,2.5,9.6,2.3c2.7-0.2,6-1.2,7.6-3.5c1.5-2.1,1-5.1-1.2-6.6c-0.1-0.1-0.3-0.2-0.4-0.3c-3.6-1.8-10,1.5-12.5,4.1
			c-0.2,0.2-2.5,3.1-3.1,3.9c0.3-2.7,0.6-5.4,1-8.1c0.5-3.6,1.3-7.1,2.3-10.6c0.2,0.1,6.6,2.5,9.7,2.3c2.7-0.2,6-1.2,7.6-3.5
			c1.5-2.2,1-5.1-1.2-6.6c-0.1-0.1-0.3-0.2-0.4-0.3c-3.6-1.8-10,1.5-12.5,4.1c-0.2,0.2-2.7,3.3-3.1,3.9c0.1-0.2,0.1-0.4,0.2-0.6
			c1.1-3.4,2.5-6.8,4.2-10c0.9-1.8,1.9-3.4,2.9-5c1.1,0.6,6.4,3.1,9.2,3.2s6.1-0.5,7.9-2.7c1.7-2,1.5-5-0.5-6.7
			c-0.1-0.1-0.2-0.2-0.4-0.3c-3.3-2.2-10.1,0.5-12.9,2.7c-0.2,0.1-1.6,1.5-2.6,2.6c0.5-0.7,0.9-1.5,1.4-2.1c1.7-2.5,3.4-4.7,4.9-6.7
			c0.9-1.1,1.7-2.1,2.4-3c1.4,0,7.1-0.2,9.6-1.4s5.2-3.3,5.8-6c0.6-2.5-0.9-5.1-3.5-5.8c-0.2,0-0.4-0.1-0.5-0.1
			c-4-0.4-8.7,5-10.2,8.3c-0.1,0.3-1.6,4.9-1.5,4.9h0.1c-0.8,0.9-1.6,1.8-2.4,2.8c-1.6,1.9-3.3,4.1-5.1,6.6
			c-1.9,2.7-3.7,5.5-5.2,8.3c-1.8,3.2-3.3,6.6-4.5,10.1c0,0,0,0.1,0,0.1c0-1.2,0-4.5-0.1-4.7c-0.4-3.7-3.4-10.3-7.4-11
			c-2.6-0.4-5,1.4-5.4,4c0,0.2,0,0.3-0.1,0.5c-0.2,2.8,1.8,5.6,3.8,7.4c2.3,2,8.5,4,9,4.1c-1.1,3.6-2,7.2-2.6,10.9
			c-0.4,2.1-0.7,4.3-1,6.5c0-1,0-1.9,0-2c-0.5-3.6-3.4-10.1-7.4-10.9c-2.6-0.4-5,1.4-5.4,4c0,0.2,0,0.3-0.1,0.5
			c-0.2,2.8,1.8,5.6,3.8,7.4s7.3,3.6,8.7,4c-0.1,0.8-0.2,1.7-0.3,2.5c-0.5,4-1,8-1.5,12c-0.2,1.4-0.5,2.7-0.7,4.1c0-0.9,0-1.7,0-1.8
			c-0.5-3.6-3.4-10.1-7.4-10.9c-2.6-0.4-5,1.4-5.4,3.9c0,0.2,0,0.4-0.1,0.5c-0.2,2.8,1.8,5.6,3.8,7.4s6.8,3.4,8.5,3.9
			c-0.3,1.4-0.6,2.8-0.9,4.1c-0.3,0.9-0.4,1.8-0.8,2.7s-0.6,1.8-0.9,2.6c-0.6,1.6-1.2,3.4-1.8,5c-0.5,1.1-0.9,2.1-1.4,3.2
			c0.2-1.4,0.6-4.1,0.6-4.3c0-3.2-0.9-6.3-2.5-9c0-0.4,0-0.7-0.1-1c-0.3-2.6-2.7-4.4-5.3-4.1c-0.2,0-0.3,0.1-0.5,0.1
			c-3.9,1-6.3,7.8-6.5,11.4c0,0.2,0.1,2.5,0.2,4c-0.2-0.8-0.4-1.7-0.6-2.5c-0.4-1.7-0.9-3.4-1.3-5.2c-0.3-0.9-0.5-1.8-0.8-2.7
			s-0.6-1.8-0.9-2.7c-0.8-2.1-1.7-4.2-2.6-6.3c1.5-0.4,6.8-1.7,8.9-3.4s4.4-4.3,4.3-7.1c0.1-2.6-2-4.8-4.6-4.9c-0.2,0-0.3,0-0.5,0
			c-4,0.4-7.4,6.8-8.2,10.3c-0.1,0.2-0.3,2.8-0.4,4.2c-0.6-1.2-1.1-2.5-1.8-3.7c-1.8-3.6-3.7-7.2-5.6-10.8c-0.6-1.1-1.1-2.2-1.7-3.3
			c0.5-0.1,6.9-1.6,9.3-3.4c2.1-1.6,4.4-4.3,4.4-7.1c0.1-2.6-2-4.8-4.6-4.9c-0.2,0-0.4,0-0.5,0c-4,0.4-7.5,6.8-8.2,10.3
			c-0.1,0.3-0.4,4-0.4,4.9c-1.3-2.4-2.5-4.8-3.6-7.3c-1.5-3.3-2.8-6.7-3.9-10.1c0.2-0.1,6.9-1.6,9.3-3.4c2.1-1.6,4.4-4.3,4.4-7.1
			c0.1-2.6-2-4.8-4.6-4.9c-0.2,0-0.4,0-0.5,0c-4,0.4-7.5,6.8-8.2,10.3c-0.1,0.3-0.4,4.3-0.4,5c-0.1-0.2-0.2-0.4-0.2-0.6
			c-1-3.5-1.6-7.1-2-10.7c-0.2-2-0.3-3.9-0.4-5.8c1.3-0.2,7-0.9,9.4-2.4s4.8-3.8,5.1-6.6c0.4-2.6-1.5-5-4.1-5.4c-0.2,0-0.3,0-0.5,0
			c-4,0-8.2,5.9-9.3,9.3c-0.1,0.2-0.5,2.1-0.7,3.6c0-0.9,0-1.7,0-2.5c0-3,0.2-5.8,0.4-8.3c0.1-1.4,0.2-2.7,0.4-3.8
			c1.2-0.8,5.8-4.1,7.2-6.4s2.5-5.6,1.5-8.3c-0.9-2.5-3.6-3.8-6.1-2.9c-0.2,0.1-0.3,0.1-0.5,0.2c-3.6,1.8-4.5,9-3.9,12.5
			c0,0.3,1.4,5,1.5,5H21c-0.2,1.1-0.3,2.3-0.5,3.7c-0.2,2.5-0.5,5.2-0.6,8.3c-0.1,3.3,0,6.6,0.2,9.9c0.3,3.7,0.9,7.3,1.8,10.8
			c0,0,0,0.1,0,0.1c-0.6-1-2.5-3.7-2.7-3.9c-2.3-2.7-8.5-6.6-12.2-5c-2.4,1.1-3.4,3.9-2.3,6.3c0.1,0.2,0.2,0.3,0.2,0.5
			C6.5,347.6,9.7,348.8,12.4,349.2z"/>
		<path class="st1" d="M81.2,330.3c0.1,0,1.3-4.7,1.3-5c0.5-3.5-0.6-10.7-4.2-12.4c-2.4-1.1-5.2,0-6.3,2.4c-0.1,0.2-0.1,0.3-0.2,0.5
			c-1,2.7,0.3,5.9,1.7,8.2C75.3,326.6,81.2,330.3,81.2,330.3z"/>
	</g>
	<g id="freepik--graphic-1--inject-3">
		<path class="st1" d="M221.5,6.6C149.5,6.6,91,65.2,91,137.2c0.1,72,58.5,130.4,130.5,130.5c72,0,130.5-58.6,130.5-130.5
			S293.5,6.6,221.5,6.6z M345,133.6h-57c-0.3-22.7-3.5-44.4-9.2-63.4c11-5.3,21.1-12.2,30.2-20.3C331.2,72.2,344.1,102.2,345,133.6
			L345,133.6z M221.5,260.6c-15.4,0-30.1-12.5-41.4-35.3c-2.8-5.7-5.2-11.5-7.2-17.5c31.1-13.3,66.2-13.3,97.3,0
			c-2,6-4.5,11.9-7.3,17.6C251.7,248.2,236.9,260.7,221.5,260.6L221.5,260.6z M221.5,190.9c-17.5,0-34.7,3.5-50.8,10.2
			c-5.4-18.1-8.4-38.9-8.7-60.5h119c-0.3,21.7-3.3,42.4-8.7,60.5C256.3,194.4,239,190.9,221.5,190.9L221.5,190.9z M162.1,133.6
			c0.3-21.6,3.3-42.3,8.6-60.5c16.1,6.8,33.4,10.3,50.8,10.3c17.5,0,34.8-3.5,50.8-10.3c5.4,18.1,8.4,38.8,8.6,60.5H162.1z
			 M221.5,13.6c15.4,0,30.1,12.5,41.4,35.3c2.8,5.7,5.2,11.6,7.3,17.6c-15.4,6.6-31.9,10-48.7,10c-16.7,0-33.3-3.4-48.7-10
			c2-6,4.5-11.9,7.2-17.6C191.4,26.1,206.1,13.6,221.5,13.6L221.5,13.6z M303.8,45.1c-8.2,7.3-17.3,13.5-27.2,18.4
			c-2.1-6.1-4.5-12-7.4-17.8c-6.4-12.9-14-22.9-22.3-29.5C268.1,20.8,287.7,30.7,303.8,45.1z M173.8,45.8
			c-2.8,5.8-5.3,11.7-7.4,17.8c-9.8-4.9-18.9-11.1-27.1-18.4c16.1-14.4,35.7-24.4,56.9-28.8C187.8,22.9,180.3,32.9,173.8,45.8
			L173.8,45.8z M134.1,49.9c9,8.2,19.2,15,30.1,20.3c-5.7,19-8.9,40.7-9.2,63.4H98C98.9,102.2,111.8,72.2,134.1,49.9L134.1,49.9z
			 M98,140.7h57c0.3,22.7,3.5,44.4,9.2,63.4c-10.9,5.3-21.1,12.2-30.1,20.3C111.8,202.2,98.9,172.2,98,140.7L98,140.7z M139.3,229.3
			c8.2-7.3,17.3-13.5,27.2-18.4c2.1,6,4.5,12,7.3,17.7c6.4,12.9,14,22.9,22.3,29.5C175,253.6,155.4,243.7,139.3,229.3L139.3,229.3z
			 M269.2,228.6c2.8-5.7,5.3-11.6,7.4-17.7c9.8,4.9,19,11.1,27.2,18.4c-16.1,14.4-35.7,24.3-56.8,28.8
			C255.2,251.4,262.8,241.5,269.2,228.6L269.2,228.6z M308.8,224.5c-9-8.2-19.1-15-30-20.4c5.8-19,9-40.8,9.2-63.4h57
			C344.1,172.2,331.2,202.2,308.8,224.5L308.8,224.5z"/>
	</g>
	<g id="freepik--Browser--inject-3">
		<rect x="141.7" y="122" class="st2" width="257.9" height="42.7"/>
		<path class="st2" d="M48.5,122h76.1c4,0,7.3,3.3,7.3,7.3v28.1c0,4-3.3,7.3-7.3,7.3H48.5c-4,0-7.3-3.3-7.3-7.3v-28.1
			C41.2,125.3,44.4,122,48.5,122z"/>
		<rect x="144.7" y="115" class="st3" width="257.9" height="42.7"/>
		<circle class="st4" cx="161.5" cy="136.3" r="12.1"/>
		<path class="st3" d="M165.5,146.9l1.9-1.6l-0.2-1l-0.6-1.8l-1.2-1.4l-4.3-1.4c-0.6,0.2-1.2,0.5-1.7,0.8c-1.2,0.6-1.2,0.2-1.9,0.2
			c-0.6-0.1-1.2-0.3-1.7-0.6l-1.4-2.3l1-2.3l1.2-1.4l0.3-2.1l1.6-4.1l0.4-2.7c0-0.3-0.2-0.5-0.4-0.7c-3.9,1-7,3.8-8.4,7.6
			c-0.1,0.4-0.2,0.9-0.2,1.3l0.2,2.1l0.8,1.2l1.6,1.4l1,1.4l1.8,2.7l1.9,0.8l1.4,1.7v3.3c0.2,0.1,0.4,0.1,0.7,0.2
			c0.8,0,1.6,0.1,2.4,0.2c0.2,0,0.4,0,0.6,0C163.3,148.1,164.4,147.5,165.5,146.9z"/>
		<path class="st3" d="M166.4,125.2l-0.4,0.5l-0.6,2.1c0,0-1.4,1.9-0.6,3.1c0.7,0.9,1.5,1.6,2.5,2.1h1.7l1.6-0.6
			c0,0,0.6-0.2,0.6,1.2c0.2,1.2,0.7,2.4,1.4,3.5l0.7,1.8c0.2-0.9,0.3-1.7,0.3-2.6C173.6,131.5,170.8,127.2,166.4,125.2z"/>
		<path class="st3" d="M51.5,115h76.1c4,0,7.3,3.3,7.3,7.3v28.1c0,4-3.3,7.3-7.3,7.3H51.5c-4,0-7.3-3.3-7.3-7.3v-28.1
			C44.2,118.3,47.4,115,51.5,115z"/>
		<path class="st5" d="M51.7,138.4L73,149.5c0.8,0.4,1.9,0.1,2.3-0.7c0.1-0.2,0.2-0.5,0.2-0.8v-22.3c0-0.9-0.8-1.7-1.7-1.7
			c-0.3,0-0.5,0.1-0.8,0.2l-21.3,11.1c-0.8,0.4-1.2,1.5-0.7,2.3C51.2,138,51.4,138.3,51.7,138.4z"/>
		<path class="st5" d="M125.3,138.4L104,149.5c-0.8,0.4-1.9,0.1-2.3-0.7c-0.1-0.2-0.2-0.5-0.2-0.8v-22.3c0-0.9,0.8-1.7,1.7-1.7
			c0.3,0,0.5,0.1,0.8,0.2l21.3,11.1c0.8,0.4,1.2,1.5,0.7,2.3C125.8,138,125.6,138.3,125.3,138.4z"/>
	</g>
	<g id="freepik--Character--inject-3">
		<path class="st1" d="M386.2,287.3H273.3c-5,0-9.2,3.7-9.9,8.6l-16.8,125.4h133l16.5-122.7c0.7-5.5-3.2-10.5-8.6-11.2
			C387,287.3,386.6,287.3,386.2,287.3z"/>
		<path class="st4" d="M170,376.9c7.3,4.2,21.8,5.2,23.9,3.1s20.1-33.6,20.1-33.6s2.1,26.7,2.1,37.1c0,7-3.8,26.2-6.3,37.8h116.8
			l4.2-39.2c4.1,5.8,8.9,11,14.2,15.6c8.3,6.9,17,5.2,25.6,0.4s12.8-15.2,10.4-25.6s-22.5-55.1-25.6-61s-4.2-20.1-8.3-20.5
			S302,275.7,302,275.7s-25-6.9-28.8-5.9s-33.6,2.8-35.4,2.8s-22.2,1.7-27,4.2s-12.8,17-14.6,22.9s-38.1,52.3-39.2,60
			S162.7,372.7,170,376.9z"/>
		<path class="st6" d="M278.9,383.4c-10,7.5-25.5,18.8-37.1,25.1"/>
		<path class="st6" d="M288.9,375.7c0,0-1.4,1.1-3.8,2.9"/>
		<path class="st6" d="M271,396c0,0-18.5,13.1-28.6,17.9"/>
		<path class="st6" d="M330.8,319.9c0.6-1.2,1.1-2.5,1.8-3.9"/>
		<path class="st6" d="M323.1,342.1c0,0,1.2-6.5,5.9-17.9"/>
		<path class="st6" d="M319.6,340.4c0,0-0.4-7.4,2.2-12.2"/>
		<line class="st6" x1="214" y1="346.4" x2="207.6" y2="325.6"/>
		<path class="st3" d="M237.1,295c0,0,0.6,5.4,1.3,7.9s1.6,10.1,1.6,10.1s5-7.5,6.3-9.1s-2.8-10.1-2.8-10.1L237.1,295z"/>
		<path class="st3" d="M243.7,283.6l-6.6,11.3c0,0,6,7.6,12,12s15.1,11.6,15.1,11.6s-4.4-14.5-5.4-18.6s-8.8-18-8.8-18
			S245.9,280.5,243.7,283.6z"/>
		<path class="st3" d="M303.6,251.5c0,0,1.3,2.5-0.6,3.5c-2,0.8-4,1.6-6,2.2l0.3,14.5c0,0-13.2,23.6-17.3,29.3s-15.8,17.6-15.8,17.6
			s-10.9-15-12.1-18.7s-6.1-17.9-6.1-17.9s19.8-2.1,23.9-5s11.3-11,13.2-18.6c1.9-7.6-2.5-12,3.5-16.4s9.8-6.3,12.3-5
			S303.6,251.5,303.6,251.5z"/>
		<path class="st5" d="M292.4,252l4.5,5.1c0,0,4.3,1.4,6.6-5.7c2.3-7.1-4.7-14.5-4.7-14.5L292.4,252z"/>
		<polygon class="st3" points="273.6,297.8 264.2,318.6 283.4,305.4 		"/>
		<path class="st3" d="M297.5,264.2c0,0-7.5,12.8-11.3,18.2s-12.6,15.4-12.6,15.4l11.3,17.6c0,0,10.6-19.5,13.9-25.8
			c2.2-3.9,3.6-8.2,4.4-12.6L297.5,264.2z"/>
		<path class="st3" d="M298.5,246.1c0,0-1.9,4.4-2.5,5.4s-5.7,3.5-5.7,3.5l-2.2-2.8l0.3-18.3v-14.5c0,0,9.8,2.8,11.3,8.5
			S298.5,246.1,298.5,246.1z"/>
		<path class="st7" d="M232.7,225.4c0,0-4.4-3.8-6-8.5s-3.8-11,1.3-18.3s19.8-25.2,36.2-25.2s35.9,10.7,44.4,17.3s15.1,19.5,18,25.2
			c2.8,5.7-0.6,9.8-1.9,12.3c-2.8,5.5-1.3,12.5-3.9,18.1c-3.3,7.2-11.2,7-17.8,8.7c-1.3,0.3-3.8-1-5.7-6s-1.6-14.5-7.2-24.9
			S252.2,203,232.7,225.4z"/>
		<path class="st6" d="M323.2,229.4c0,0-1.1-21.1-12-35.1"/>
		<path class="st8" d="M251.2,182.6c4.5-3.1,8.1-5.3,14-6.4"/>
		<path class="st8" d="M232.4,205.7c0,0,5.9-14.8,15.2-20.7"/>
		<path class="st8" d="M266.5,182.1c5.2-1.6,8.4-2.5,8.4-2.5"/>
		<path class="st8" d="M238.6,202.5c0,0,8.1-13.4,18.5-17.2c1.5-0.6,3-1.1,4.4-1.5"/>
		<path class="st8" d="M249.9,203.1c2.9-5,7.4-8.9,12.6-11.3c8.9-4,16.1-5.9,21.8-5.9"/>
		<path class="st8" d="M278.6,192.4c2.3-0.8,3.7-1.2,3.7-1.2"/>
		<path class="st8" d="M258.2,202.8c0,0,7.5-5.4,13.4-7.8c1-0.4,1.9-0.8,2.8-1.1"/>
		<path class="st8" d="M286.4,216.8c0,0,10.2-4.6,19.3-4.8"/>
		<path class="st3" d="M242.5,205.5c0,0-11.3,1.9-12,9.8c-0.7,7.9,0.6,21.4,1.9,25.2s0,15.8-1.3,24.3s5,17.3,10.1,20.5
			s12.6,4.7,21.7,1.9s18-8.2,21.7-13.5s3.5-6.3,4.1-7.2s1.6-6,1.6-11.3v-18.9c0-4.7-0.3-12-0.3-12S272.4,198.6,242.5,205.5z"/>
		<path class="st5" d="M277.6,212.3c0.5,4.1,2,11.8,5.8,13.7c4.4,2.2,4.4,5.4,3.5,10.7s-1.9,18-6,21.4c-4.1,3.4-6.3,5.7-11,3.8
			s-6.6-4.7-13.9-5s-11.3-1.3-14.5,0.3c-1.8,0.9-3.4,1.9-5,3.1c-1.5-2.4-2.8-4.9-3.9-7.5c-0.3,4-0.9,8.3-1.4,11.9
			c-1.3,8.5,5,17.3,10.1,20.5s12.6,4.7,21.7,1.9s18-8.2,21.7-13.5s3.5-6.3,4.1-7.2s1.6-6,1.6-11.3v-18.9c0-4.7,3.2-4.7,3.2-4.7
			S292.2,222.8,277.6,212.3z"/>
		<path class="st5" d="M238.7,206.6c1.4,2.3,5.4,7.4,12,7.4s12.4-4.9,15.6-7.4c-7.7-2.6-15.9-3-23.8-1.1
			C241.2,205.8,239.9,206.1,238.7,206.6z"/>
		<path class="st6" d="M247.2,228.8l1.6,5.7c0,0-1.6,10.1-1.9,14.2s-2.8,8.2,4.4,8.2s8.5-3.2,8.5-5.4"/>
		<path class="st9" d="M257.3,227c0,0,1-1.9,7.2-1.9c3.9,0,7.6,1.5,10.4,4.1"/>
		<path class="st9" d="M243.1,227.6c-3-1.7-6.7-1.7-9.8,0"/>
		<path class="st10" d="M243.8,262c5.5,2.2,11.6,2,17-0.5"/>
		<ellipse class="st1" cx="266.2" cy="235.9" rx="2" ry="2.7"/>
		<ellipse class="st1" cx="241.8" cy="235.9" rx="2" ry="2.7"/>
		<path class="st6" d="M246.9,238.9c-1.3,1.3-2.8,2.3-4.4,3.1"/>
		<path class="st6" d="M261.7,239.2c0,0,2.5,4.1,6,3.8"/>
		<path class="st3" d="M257.1,303.1c-2.4-1.4-4.7-3-6.8-4.9c-2.5-2.5-3-5.9-5.2-2.9s-1.2,5.6,1.7,7.6s11.1,3.4,11.1,3.4
			S260.1,304.7,257.1,303.1z"/>
		<path class="st3" d="M258.1,304c0,0-11-4-12.9-3.8c-2.2,0.4-3.9,2.1-4.3,4.3c-0.2,1.6,0.5,3.2,1.7,4.2c0,0-1.9,3.3-1.9,4.5
			c0,0.9,0.2,1.9,0.4,2.8c0,0-2.3,2.3-2.3,4s1.9,3.6,1.9,3.6c-0.4,1.6-0.3,3.3,0.4,4.8c1.2,2.3,8.2,8.8,12.4,10.7
			c3.8,1.5,7.6,2.7,11.5,3.6l17.9,11.5l10.2-17.8c0,0-12-8.5-13.7-10.7c-2.9-4-5.3-8.5-7.1-13.1c-1.3-4.2-13.7-8.7-13.7-8.7
			L258.1,304z"/>
		<line class="st6" x1="242.7" y1="308.8" x2="249.4" y2="312.5"/>
		<line class="st6" x1="241.2" y1="316" x2="247.9" y2="320.8"/>
		<line class="st6" x1="240.8" y1="323.6" x2="245.4" y2="327.3"/>
		<path class="st3" d="M235,339h-20.2c-1.3,0-2.5-1-2.6-2.3l-4.7-38.7c-0.2-1.4,0.8-2.8,2.3-3c0.1,0,0.2,0,0.4,0h29.5
			c1.5,0,2.6,1.2,2.7,2.6c0,0.1,0,0.3,0,0.4l-4.7,38.7C237.5,338,236.3,339,235,339z"/>
		<path class="st11" d="M211.8,292.5c1.9-1.6,2.9-4,2.6-6.5c-0.4-4.2-5.1-4-5.1-8.7s2.4-4.7,3.6-9.5"/>
		<path class="st11" d="M223.3,292.3c0,0,1.6-1.2,1.6-4.9s-2.8-3-3.4-7.1"/>
		<polygon class="st4" points="290.6,332.9 277.1,353.3 290.3,363.4 304.1,340.1 		"/>
		<path class="st4" d="M377.3,362.7c0,0,6.2,17,6.9,22.9s-4.5,18.7-8,23.6s-24.3,0-39.5-7.3s-44-26.7-46.5-29.5s0-9,0-9l13.9-23.2
			c0,0,2.4-2.8,5.5-2.4s48.9,20.8,48.9,20.8"/>
		<path class="st4" d="M160.3,353.3c0,0-8.7,9-10.7,19.8s2.4,18.4,4.9,23.6s4.2,7.3,8,7.6s25-2.8,26.3-6.2s5.9-11.4,5.2-20.5
			s-11.5-19.4-20.8-18.7"/>
		<path class="st4" d="M162.4,404.3c0,0-1.7-8.7,11.1-12.8s17.3-0.3,16.6,4.5S170,408.8,162.4,404.3z"/>
		<path class="st3" d="M191.2,396.8c0,0,3.7,4.1,7.5,4.1s9.7,6.7,12.4,8.6s8.6,2.2,6.7,7.1s-9.4,1.9-12.7,0s-5.2-5.6-7.9-5.6
			s-5.2,0.8-12.4,2.6s-15.7-1.1-10.9-6.7S191.2,396.8,191.2,396.8z"/>
		<path class="st3" d="M164.6,403.9c0,0-5.2,0-6.4,4.7s0,11.1,4.5,12.9s2.2-3.2,2.2-6.5v-9L164.6,403.9z"/>
		<path class="st3" d="M172.1,397.9c0,0-8.6,2.6-8.6,7.5s2.6,15,6.4,15.7s4.1-2.2,3.4-7.9S172.1,397.9,172.1,397.9z"/>
		<path class="st3" d="M181.1,394.6c0,0-6-3.8-8.2,1.1s-1.1,16.9,1.1,20.2s7.1,2.6,7.5-2.6S181.1,394.6,181.1,394.6z"/>
		<path class="st3" d="M192.3,395.5c0.1-2.4-1.4-4.6-3.6-5.5c-1-0.4-2.1-0.5-3.1-0.3c-4.9,0.8-5.6,4.1-4.9,7.1s-0.4,17.2,2.2,19.9
			s7.1,1.1,8.2-1.5C192.1,413.1,192.3,400.5,192.3,395.5z"/>
		<line class="st6" x1="438.9" y1="421.3" x2="16.3" y2="421.3"/>
	</g>
	<g id="freepik--Device--inject-3">
		<polygon class="st12" points="256.5,433 152.4,419 83.7,420.4 163.2,445.1 		"/>
		<polygon class="st6" points="175.7,423.2 162.1,424.3 191.2,428.6 208.5,428.1 		"/>
		<polyline class="st6" points="159.9,425.4 203.4,432.4 161.3,434.9 		"/>
		<polygon class="st12" points="64.2,335 83.7,420.4 163.2,445.1 141.6,338.7 		"/>
		<path class="st13" d="M146.1,360.5c-11,10.5-23.6,28-38.1,45.4c-8.4,10.2-17.3,13.1-24.5,13.2l0.3,1.2l79.6,24.8L146.1,360.5z"/>
		<path class="st3" d="M113.5,379.8c1.1,4.7-0.5,9.1-3.4,9.8s-6.3-2.6-7.4-7.3s0.5-9.1,3.4-9.8S112.4,375.1,113.5,379.8z"/>
		<polygon class="st13" points="163.2,445.1 256.5,437.2 256.5,433 161.7,438.3 		"/>
	</g>
	<g>
		<path d="M197.8,137.3l-2.2,2.1v8.6h-3.7v-22.4h3.6h0.4v0.3c-0.1,0.1-0.2,0.3-0.3,0.5c0,0.2-0.1,0.5-0.1,0.9v8.1l10.4-9.9
			c0.2,0,0.4,0,0.6,0.1c0.2,0,0.5,0,0.8,0.1c0.3,0,0.5,0,0.8,0c0.2,0,0.4,0,0.6,0h1.6l-9.8,9.5l10.4,13l-4.5,0.2L197.8,137.3z"/>
		<path d="M226.1,132.1l-6.4,15.9h-3.8l9.5-22.6h1.4l9.5,22.6h-3.9L226.1,132.1z M231.3,142.3h-10.7l0.9-2.7h9L231.3,142.3z"/>
		<path d="M242.1,147.9v-22.4h3.2l6.1,10.6l6.2-10.6h3.1v22.5h-3.3v-16.3l-5.3,8.7h-1.7l-4.9-8.6v16.3H242.1z"/>
		<path d="M268.9,147.9v-3h5.5v-16.5h-5.2v-3h14.1v3H278V145h5.7v3H268.9z"/>
		<path d="M292.8,125.5h3.8l10.7,15.7l-0.1-15.7h3.4h0.4v0.3c-0.1,0.1-0.2,0.3-0.3,0.5s-0.1,0.5-0.1,0.9v20.8h-3.2l-11.2-16.7v16.7
			h-3.5V125.5z"/>
		<path d="M327,148.3c-2.1,0-3.9-0.4-5.3-1.3c-1.5-0.9-2.6-2.2-3.4-3.9s-1.2-3.8-1.2-6.2c0-2.4,0.4-4.4,1.2-6.1c0.8-1.7,1.9-3,3.4-4
			c1.5-0.9,3.3-1.4,5.3-1.4s3.9,0.5,5.3,1.4c1.5,0.9,2.6,2.3,3.3,4c0.8,1.7,1.2,3.7,1.2,6.1c0,2.4-0.4,4.5-1.2,6.2
			c-0.8,1.7-1.9,3-3.3,3.9C330.8,147.9,329.1,148.3,327,148.3z M327,145.3c1.3,0,2.4-0.3,3.3-0.9c0.9-0.6,1.6-1.6,2.1-2.8
			c0.5-1.3,0.7-2.8,0.7-4.7c0-1.8-0.2-3.3-0.7-4.5c-0.5-1.3-1.2-2.2-2.1-2.9c-0.9-0.7-2-1-3.3-1c-1.3,0-2.4,0.3-3.3,1
			c-0.9,0.7-1.6,1.6-2.1,2.9c-0.5,1.3-0.7,2.8-0.7,4.5c0,1.9,0.2,3.4,0.7,4.7c0.5,1.3,1.2,2.2,2.1,2.8
			C324.6,145,325.7,145.3,327,145.3z"/>
	</g>
</g>
</svg>
