<svg id="Layer_1" data-name="Layer 1" xmlns="http://www.w3.org/2000/svg" viewBox="0 0 615.55 198.12"><defs><style>.cls-1{fill:#e3d0d4;}.cls-2{fill:#575756;}.cls-3{fill:none;stroke:#575756;stroke-linecap:round;stroke-linejoin:round;stroke-width:1.27px;}.cls-4{fill:#505050;}</style></defs><path class="cls-1" d="M532.31,45.93a8.19,8.19,0,1,1,8.19,8.19A8.2,8.2,0,0,1,532.31,45.93Zm.6,0a7.59,7.59,0,1,0,7.59-7.59A7.6,7.6,0,0,0,532.91,45.93Z"/><path class="cls-2" d="M498.18,75.36a42.32,42.32,0,1,1,42.32,42.33A42.37,42.37,0,0,1,498.18,75.36Zm.6,0A41.72,41.72,0,1,0,540.5,33.65,41.77,41.77,0,0,0,498.78,75.36Z"/><path class="cls-2" d="M459.24,110.47l0-.6,1.2,0v.61C460.05,110.49,459.64,110.49,459.24,110.47Zm2.43-.59c.4,0,.8,0,1.2-.06l0,.6q-.62,0-1.23.06Zm-4.87.42.06-.6,1.2.1,0,.61Zm7.27-.58c.4,0,.8-.09,1.19-.15l.09.61-1.22.14Zm-9.7.23.11-.59c.39.07.79.13,1.18.18l-.08.61C455.18,110.09,454.77,110,454.37,110Zm12.08-.56c.4-.06.79-.14,1.18-.22l.13.59c-.4.09-.8.16-1.21.23Zm-14.47,0,.15-.59,1.17.28-.13.59Zm16.83-.53,1.16-.31.16.58c-.39.12-.78.22-1.18.31Zm-19.18-.15.19-.57,1.15.35-.17.58Q450.2,109,449.63,108.76Zm21.49-.51q.58-.18,1.14-.39l.21.57-1.16.4Zm-23.79-.33.23-.56,1.12.43-.21.57Zm26.06-.49,1.11-.46.25.55-1.13.48Zm-28.29-.51.27-.54,1.08.51-.24.55Zm30.5-.46c.36-.17.72-.36,1.07-.54l.29.53-1.1.56ZM443,105.77l.3-.53,1.05.59-.29.53C443.65,106.17,443.3,106,443,105.77Zm34.78-.44c.35-.2.69-.4,1-.62l.32.52q-.52.33-1.05.63Zm-36.85-.86.34-.5c.33.22.66.44,1,.65l-.32.52C441.55,104.92,441.21,104.7,440.88,104.47Zm38.89-.41q.51-.33,1-.69l.36.5c-.33.24-.67.47-1,.7Zm-40.87-1,.38-.48c.31.24.63.49,1,.72l-.35.49C439.55,103.52,439.22,103.28,438.9,103Zm42.82-.38c.32-.24.63-.49.94-.75l.39.46c-.31.27-.63.52-.95.77ZM437,101.45l.41-.45c.29.27.6.53.9.79l-.39.47Zm46.54-.33.89-.83.42.45-.9.83Zm-48.3-1.37.44-.42c.28.29.56.57.85.85l-.42.44C435.84,100.34,435.56,100.05,435.27,99.75Zm50-.3c.28-.29.56-.58.82-.88l.45.41c-.27.3-.55.6-.83.89Zm-51.68-1.52.47-.39c.26.31.52.61.79.91l-.45.4C434.16,98.55,433.9,98.24,433.63,97.93Zm53.3-.26.76-.93.48.37c-.26.33-.52.64-.78,1ZM432.13,96l.49-.36c.23.33.48.65.72,1l-.48.37Zm56.29-.22.69-1,.5.34c-.23.34-.46.67-.71,1ZM430.76,94l.51-.33c.21.35.43.68.66,1l-.51.35C431.19,94.65,431,94.31,430.76,94Zm59-.17.63-1,.52.31-.64,1Zm-60.24-2,.54-.28c.18.36.38.7.58,1l-.53.31C429.92,92.56,429.72,92.21,429.53,91.84ZM491,91.72c.19-.35.38-.71.56-1.07l.54.27c-.18.37-.37.73-.56,1.09Zm-62.53-2.08.56-.25c.16.37.33.73.51,1.1l-.55.26C428.79,90.38,428.62,90,428.45,89.64Zm63.6-.07c.16-.36.32-.73.47-1.1l.56.23c-.15.38-.31.75-.48,1.12Zm-64.52-2.21.58-.21c.13.38.28.76.43,1.13l-.57.23C427.82,88.13,427.67,87.75,427.53,87.36Zm65.43,0c.14-.38.27-.75.4-1.13l.57.19c-.12.38-.26.77-.4,1.15ZM426.78,85l.58-.17c.11.39.23.77.35,1.15l-.57.19Q426.95,85.62,426.78,85Zm66.93,0c.12-.38.22-.77.32-1.16l.59.15c-.1.4-.21.79-.32,1.18Zm-67.52-2.41.59-.12c.09.39.17.78.27,1.17l-.59.15Q426.31,83.25,426.19,82.65Zm68.12.09c.08-.4.16-.79.23-1.19l.6.11q-.11.61-.24,1.2Zm-68.54-2.49.6-.09c.05.4.12.8.18,1.19l-.59.1C425.89,81.05,425.82,80.65,425.77,80.25Zm69,.12c.05-.4.11-.8.15-1.2l.6.07c0,.41-.09.81-.15,1.21Zm-69.22-2.56.6,0c0,.4.06.8.1,1.2l-.6.06C425.58,78.63,425.54,78.22,425.52,77.81ZM495,78c0-.4.05-.8.07-1.21l.61,0c0,.41-.05.81-.08,1.22Zm-69.57-2.62v-.42H426v.41c0,.4,0,.81,0,1.21l-.61,0C425.44,76.18,425.43,75.77,425.43,75.36Zm69.67,0c0-.33,0-.66,0-1l.61,0c0,.34,0,.67,0,1v.2h-.6Zm-69.63-1.65c0-.4,0-.81.08-1.22l.6.05c0,.4-.06.8-.07,1.2ZM494.93,72l.61-.07q.06.61.09,1.23l-.6,0C495,72.76,495,72.36,494.93,72Zm-69.26-.69c0-.41.1-.81.16-1.22l.6.09c-.06.4-.11.8-.16,1.2Zm68.95-1.69.59-.1c.07.39.13.8.19,1.21l-.61.08C494.74,70.38,494.68,70,494.62,69.59ZM426,68.86c.08-.41.16-.8.25-1.2l.59.13c-.09.39-.17.78-.24,1.18Zm68.1-1.63.59-.15q.15.6.27,1.2l-.59.12C494.31,68,494.23,67.62,494.13,67.23Zm-67.56-.76c.1-.4.21-.79.33-1.18l.58.17c-.12.38-.22.77-.33,1.16Zm66.92-1.56.57-.18c.13.38.24.78.36,1.17l-.59.16C493.72,65.68,493.61,65.29,493.49,64.91Zm-66.22-.79c.13-.39.27-.77.41-1.15l.57.21c-.14.38-.28.76-.41,1.13Zm65.41-1.48.56-.22c.15.38.29.76.43,1.14l-.57.21C493,63.39,492.82,63,492.68,62.64Zm-64.55-.81c.16-.37.32-.75.49-1.12l.55.26-.48,1.09Zm63.58-1.4.55-.26.51,1.11-.56.24C492.05,61.16,491.88,60.79,491.71,60.43Zm-62.56-.81c.18-.37.37-.73.57-1.09l.53.29c-.19.35-.38.71-.56,1.07Zm61.44-1.33.53-.3c.2.36.4.72.59,1.08l-.54.28C491,59,490.79,58.64,490.59,58.29Zm-60.27-.82c.21-.35.42-.7.64-1l.51.33c-.21.34-.42.67-.62,1Zm59-1.23.51-.33c.22.34.45.68.66,1l-.52.32C489.76,56.92,489.55,56.58,489.32,56.24Zm-57.68-.83.71-1,.49.36c-.24.32-.47.65-.7,1Zm56.28-1.12.48-.37c.25.32.49.65.73,1l-.49.36C488.41,54.93,488.17,54.61,487.92,54.29Zm-54.82-.84c.25-.32.51-.63.78-.94l.46.39-.77.93Zm53.29-1,.45-.41.8.93-.47.39Zm-51.7-.85c.28-.29.56-.59.85-.88l.43.42c-.28.29-.56.58-.83.88Zm50-.9.43-.43c.29.28.58.57.86.87l-.44.42C485.29,51.26,485,51,484.72,50.69Zm-48.31-.84.9-.83.41.46-.89.81ZM483,49.07l.39-.46.92.81-.41.45Zm-44.71-.84,1-.76.37.48c-.32.24-.63.49-.94.75Zm42.83-.65.36-.49c.33.24.65.49,1,.74l-.38.48C481.71,48.06,481.39,47.81,481.07,47.58Zm-40.88-.84c.33-.24.67-.47,1-.7l.33.51-1,.68Zm38.89-.52.33-.51,1,.67-.34.5C479.76,46.65,479.42,46.43,479.08,46.22Zm-36.85-.83c.35-.22.7-.43,1.06-.63l.3.53c-.35.2-.7.4-1,.61ZM477,45l.28-.54c.37.2.72.4,1.07.61l-.31.52Zm-32.65-.82,1.09-.55.27.55q-.56.26-1.08.54Zm30.5-.26.25-.55,1.1.53-.27.54Zm-28.29-.8,1.13-.47.23.57-1.12.46ZM472.65,43l.21-.57q.57.21,1.14.45l-.23.56Zm-23.79-.79,1.17-.38.18.57-1.14.39Zm21.51,0,.17-.59,1.17.37-.2.58Q470.94,42.41,470.37,42.25Zm-19.17-.76c.4-.11.79-.21,1.19-.3l.14.58-1.16.3Zm16.84.16.13-.6,1.19.29-.15.59C468.82,41.83,468.43,41.73,468,41.65Zm-14.45-.72c.39-.09.8-.16,1.2-.23l.1.6-1.18.22Zm12.08.28.09-.6,1.21.2-.11.6C466.47,41.33,466.07,41.27,465.67,41.21ZM456,40.52c.4-.05.81-.1,1.22-.13l0,.6-1.19.13Zm7.28.42.05-.61,1.22.12-.07.6Zm-4.84-.65,1.22,0,0,.61c-.41,0-.81,0-1.2,0Zm2.44.55v-.61l1.22,0,0,.61Z"/><path class="cls-2" d="M345.5,75.36a35.14,35.14,0,1,1,35.14,35.14A35.17,35.17,0,0,1,345.5,75.36Zm.61,0a34.53,34.53,0,1,0,34.53-34.52A34.57,34.57,0,0,0,346.11,75.36Z"/><path class="cls-2" d="M510.76,75.36a29.74,29.74,0,1,1,29.74,29.75A29.78,29.78,0,0,1,510.76,75.36Zm.6,0A29.14,29.14,0,1,0,540.5,46.23,29.17,29.17,0,0,0,511.36,75.36Z"/><path class="cls-2" d="M537.89,100.8l.49-4.83a21.57,21.57,0,0,0,2.18.1l-.06,4.86C539.62,100.93,538.75,100.88,537.89,100.8ZM542.72,96a21.41,21.41,0,0,0,2.15-.35l1,4.75a23.21,23.21,0,0,1-2.65.42ZM532.65,99.7l1.49-4.62a18.33,18.33,0,0,0,2.09.55l-1,4.76C534.36,100.2,533.5,100,532.65,99.7ZM547,95.05c.7-.23,1.37-.5,2-.79l2,4.43c-.81.36-1.65.69-2.5,1Zm-19.21,2.48,2.43-4.21a19.41,19.41,0,0,0,1.93,1l-2,4.44C529.33,98.38,528.53,98,527.75,97.53Zm23.17-4.27a20.08,20.08,0,0,0,1.81-1.18L555.61,96a24.15,24.15,0,0,1-2.25,1.47Zm-27.5,1.12,3.25-3.6a20.34,20.34,0,0,0,1.68,1.36l-2.84,3.93A22.69,22.69,0,0,1,523.42,94.38Zm31-3.68c.53-.49,1-1,1.53-1.54l3.62,3.23a26.21,26.21,0,0,1-1.89,1.91Zm-34.59-.29,3.92-2.86a20.33,20.33,0,0,0,1.38,1.69l-3.61,3.25A24.33,24.33,0,0,1,519.83,90.41Zm37.48-3a20.15,20.15,0,0,0,1.17-1.82L562.7,88a24.87,24.87,0,0,1-1.45,2.26Zm-40.16-1.68,4.43-2c.3.66.63,1.31,1,1.93l-4.2,2.44A23.35,23.35,0,0,1,517.15,85.78Zm42.31-2.08a20.66,20.66,0,0,0,.77-2l4.63,1.49c-.28.85-.6,1.68-1,2.5Zm-44-3,4.75-1a20.91,20.91,0,0,0,.56,2.1l-4.62,1.5A25.31,25.31,0,0,1,515.49,80.69Zm45.29-1.12a21.2,21.2,0,0,0,.33-2.14l4.83.47c-.09.9-.23,1.79-.4,2.66Zm-45.85-4.21h4.86c0,.74,0,1.46.11,2.18l-4.83.49A26.07,26.07,0,0,1,514.93,75.36Zm46.15-2.28,4.83-.52a23.5,23.5,0,0,1,.15,2.67l-4.85,0C561.2,74.52,561.16,73.79,561.08,73.08Zm-46-.12a25.61,25.61,0,0,1,.38-2.65l4.76,1c-.14.71-.24,1.42-.31,2.15Zm45.11-4.12,4.61-1.52a25.4,25.4,0,0,1,.71,2.59l-4.74,1A21.75,21.75,0,0,0,560.16,68.84ZM516.1,67.71A24.38,24.38,0,0,1,517,65.2l4.45,1.93c-.28.66-.54,1.34-.76,2Zm42.27-2.81,4.19-2.46a26.77,26.77,0,0,1,1.23,2.38l-4.42,2A18.51,18.51,0,0,0,558.37,64.9Zm-40.14-2.1c.45-.78.93-1.54,1.44-2.26l4,2.81a20.47,20.47,0,0,0-1.17,1.84Zm37.57-1.4,3.58-3.27a26,26,0,0,1,1.7,2.07l-3.9,2.88C556.74,62.5,556.29,61.94,555.8,61.4Zm-34.46-3a25.91,25.91,0,0,1,1.88-1.9l3.28,3.57c-.53.49-1,1-1.52,1.55Zm31.21.09,2.84-3.94a25.76,25.76,0,0,1,2.08,1.67l-3.22,3.63C553.71,59.4,553.14,59,552.55,58.52Zm-27.27-3.7a26.38,26.38,0,0,1,2.24-1.49L530,57.52a18.3,18.3,0,0,0-1.81,1.2Zm23.5,1.55,2-4.44a25.57,25.57,0,0,1,2.4,1.2l-2.4,4.22C550.1,57,549.45,56.67,548.78,56.37ZM529.9,52.09c.81-.36,1.64-.69,2.49-1l1.54,4.61a20.62,20.62,0,0,0-2,.79Zm14.75,3,1-4.76a25.27,25.27,0,0,1,2.59.68l-1.47,4.63A20.19,20.19,0,0,0,544.65,55.07ZM535,50.4a26.15,26.15,0,0,1,2.65-.44l.54,4.83c-.72.08-1.44.2-2.14.35Zm5.34,4.26.19-4.86c.83,0,1.66,0,2.47.12l-.47,4.83C541.85,54.69,541.18,54.66,540.31,54.66Z"/><path class="cls-1" d="M460.57,68.05a7.32,7.32,0,1,1-7.32,7.31A7.33,7.33,0,0,1,460.57,68.05Z"/><path class="cls-2" d="M453,75.36A7.62,7.62,0,1,1,460.57,83,7.62,7.62,0,0,1,453,75.36Zm.6,0a7,7,0,1,0,7-7A7,7,0,0,0,453.55,75.36Z"/><path class="cls-1" d="M429.91,75.36a30.66,30.66,0,1,0,30.66-30.65A30.66,30.66,0,0,0,429.91,75.36Zm2.7,0a28,28,0,1,1,28,28A28,28,0,0,1,432.61,75.36Z"/><path class="cls-2" d="M429.61,75.36a31,31,0,1,1,31,31A31,31,0,0,1,429.61,75.36Zm.61,0A30.35,30.35,0,1,0,460.57,45,30.38,30.38,0,0,0,430.22,75.36Zm2.08,0a28.27,28.27,0,1,1,28.27,28.27A28.3,28.3,0,0,1,432.3,75.36Zm.61,0a27.66,27.66,0,1,0,27.66-27.65A27.69,27.69,0,0,0,432.91,75.36Z"/><path class="cls-2" d="M433.65,75.36a26.92,26.92,0,1,1,26.92,26.92A26.94,26.94,0,0,1,433.65,75.36Zm.61,0a26.31,26.31,0,1,0,26.31-26.31A26.34,26.34,0,0,0,434.26,75.36Zm11.95,0a14.36,14.36,0,1,1,14.36,14.36A14.37,14.37,0,0,1,446.21,75.36Zm.61,0a13.75,13.75,0,1,0,13.75-13.74A13.77,13.77,0,0,0,446.82,75.36Z"/><path class="cls-1" d="M440.62,88.3l4.08-2.64A18.32,18.32,0,0,0,446,87.39l-3.74,3.1A24.65,24.65,0,0,1,440.62,88.3Zm-2.4-4.82,4.56-1.66a19.34,19.34,0,0,0,.85,2L439.29,86A23.76,23.76,0,0,1,438.22,83.48ZM437,78.23l4.82-.59a18.41,18.41,0,0,0,.38,2.12l-4.73,1.13A25.93,25.93,0,0,1,437,78.23Zm-.17-2.87a23.36,23.36,0,0,1,.13-2.52l4.83.51a18.84,18.84,0,0,0-.11,2v.21Zm.57-5.19a22.19,22.19,0,0,1,.74-2.6l4.58,1.59a19.71,19.71,0,0,0-.58,2.07Zm1.77-5.1a22.7,22.7,0,0,1,1.31-2.37l4.1,2.59a21.42,21.42,0,0,0-1,1.88ZM442,60.5a22.72,22.72,0,0,1,1.8-2l3.43,3.44a19.93,19.93,0,0,0-1.45,1.6Zm3.82-3.79a24.57,24.57,0,0,1,2.22-1.56l2.55,4.13a19.76,19.76,0,0,0-1.76,1.23Zm4.59-2.85a23.9,23.9,0,0,1,2.51-1l1.55,4.6a19.21,19.21,0,0,0-2,.8Zm5.11-1.73a23.39,23.39,0,0,1,2.66-.42l.49,4.83a21.45,21.45,0,0,0-2.13.33Z"/><path class="cls-2" d="M354.84,75.36a25.8,25.8,0,1,1,25.8,25.8A25.82,25.82,0,0,1,354.84,75.36Zm.61,0a25.19,25.19,0,1,0,25.19-25.18A25.22,25.22,0,0,0,355.45,75.36Z"/><path class="cls-2" d="M403.32,64.4l.55-.26A25.73,25.73,0,0,0,384.09,49.8l-.08.6A25.12,25.12,0,0,1,403.32,64.4Z"/><path class="cls-2" d="M380.64,101.16a25.82,25.82,0,0,0,25.79-25.8h-.6a25.22,25.22,0,0,1-25.19,25.19Z"/><path class="cls-2" d="M368.63,98.2l.28-.53a27,27,0,0,1-2.51-1.52l-.34.5A26.16,26.16,0,0,0,368.63,98.2Z"/><path class="cls-2" d="M362.22,93.43l.43-.43a25.07,25.07,0,0,1-7.2-17.64h-.61A25.67,25.67,0,0,0,362.22,93.43Z"/><path class="cls-2" d="M358.88,62.67a25.4,25.4,0,0,1,4.29-5.46l-.42-.43a25.78,25.78,0,0,0-4.4,5.58Z"/><path class="cls-2" d="M371.56,51.86a25,25,0,0,1,9.08-1.68v-.61a25.78,25.78,0,0,0-9.3,1.72Z"/><path class="cls-2" d="M460.57,72.13a3.24,3.24,0,1,1-3.24,3.23A3.24,3.24,0,0,1,460.57,72.13Z"/><rect class="cls-2" x="460.57" y="75.06" width="79.93" height="0.61"/><path class="cls-2" d="M537.43,45.93A3.07,3.07,0,1,1,540.5,49,3.08,3.08,0,0,1,537.43,45.93Zm.61,0a2.46,2.46,0,1,0,2.46-2.47A2.46,2.46,0,0,0,538,45.93Z"/><path class="cls-2" d="M537.73,75.36a2.77,2.77,0,1,1,2.77,2.77A2.77,2.77,0,0,1,537.73,75.36Z"/><path class="cls-2" d="M537.43,33.35a3.07,3.07,0,1,1,3.07,3.07A3.07,3.07,0,0,1,537.43,33.35Zm.61,0a2.46,2.46,0,1,0,2.46-2.46A2.46,2.46,0,0,0,538,33.35Z"/><path class="cls-2" d="M534.29,75.36a6.21,6.21,0,1,1,6.21,6.21A6.21,6.21,0,0,1,534.29,75.36Zm.61,0a5.6,5.6,0,1,0,5.6-5.6A5.61,5.61,0,0,0,534.9,75.36Z"/><circle class="cls-1" cx="528.12" cy="75.36" r="4.48"/><circle class="cls-1" cx="553.64" cy="75.36" r="2.77"/><rect class="cls-2" x="546.4" y="75.06" width="48.59" height="0.61"/><polygon class="cls-2" points="591.18 79.6 595.42 75.36 591.18 71.13 590.75 71.55 594.56 75.36 590.75 79.17 591.18 79.6"/><polygon class="cls-2" points="594.16 79.6 598.39 75.36 594.16 71.13 593.73 71.56 597.54 75.36 593.73 79.17 594.16 79.6"/><polygon class="cls-2" points="597.13 79.6 601.37 75.36 597.13 71.13 596.7 71.56 600.51 75.36 596.7 79.17 597.13 79.6"/><rect class="cls-2" x="393.05" y="75.06" width="13.08" height="0.61"/><path class="cls-2" d="M383.26,75.36a5,5,0,1,1,5,5A5,5,0,0,1,383.26,75.36Zm.6,0a4.44,4.44,0,1,0,4.44-4.44A4.44,4.44,0,0,0,383.86,75.36Z"/><path class="cls-2" d="M385.15,64.41a3.16,3.16,0,1,1,3.15,3.15A3.16,3.16,0,0,1,385.15,64.41Zm.6,0a2.55,2.55,0,1,0,2.55-2.55A2.56,2.56,0,0,0,385.75,64.41Z"/><path class="cls-2" d="M391.15,87.14A2.85,2.85,0,1,0,388.3,90,2.85,2.85,0,0,0,391.15,87.14Z"/><path class="cls-2" d="M415.17,75.36a5.44,5.44,0,1,1,5.43,5.44A5.44,5.44,0,0,1,415.17,75.36Zm.6,0a4.83,4.83,0,1,0,4.83-4.83A4.83,4.83,0,0,0,415.77,75.36Z"/><circle class="cls-1" cx="420.6" cy="75.36" r="2.33"/><rect class="cls-2" x="388" y="67.26" width="0.61" height="3.36"/><rect class="cls-2" x="388" y="80.11" width="0.61" height="4.18"/><path class="cls-1" d="M283.93,54.31l-1-2.2a25.7,25.7,0,0,1,10.89-2.4v2.43A23.32,23.32,0,0,0,283.93,54.31Z"/><path class="cls-1" d="M277.54,58.71,275.85,57c.5-.48,1-.94,1.55-1.38l1.54,1.88C278.46,57.86,278,58.27,277.54,58.71Z"/><path class="cls-1" d="M270.38,75.57H268a25.91,25.91,0,0,1,5.85-16.38l1.88,1.54A23.44,23.44,0,0,0,270.38,75.57Z"/><path class="cls-1" d="M271.82,89.19c-.45-.73-.87-1.49-1.25-2.26l2.18-1.07q.53,1,1.14,2Z"/><path class="cls-1" d="M293.8,101.42A25.69,25.69,0,0,1,279.35,97l1.36-2a23.26,23.26,0,0,0,13.09,4Z"/><path class="cls-2" d="M293.8,110.7a35.14,35.14,0,1,1,35.14-35.13A35.17,35.17,0,0,1,293.8,110.7Zm0-69.66a34.53,34.53,0,1,0,34.53,34.53A34.56,34.56,0,0,0,293.8,41Z"/><rect class="cls-2" x="292.89" y="38.41" width="1.82" height="4.65"/><rect class="cls-2" x="268.26" y="48.61" width="1.82" height="4.65" transform="translate(42.88 205.34) rotate(-45.02)"/><rect class="cls-2" x="256.65" y="74.66" width="4.65" height="1.82"/><rect class="cls-2" x="266.85" y="99.29" width="4.65" height="1.82" transform="translate(7.88 219.44) rotate(-44.95)"/><rect class="cls-2" x="292.89" y="108.07" width="1.82" height="4.65"/><rect class="cls-2" x="317.53" y="97.87" width="1.82" height="4.65" transform="translate(22.39 254.46) rotate(-44.99)"/><rect class="cls-2" x="326.31" y="74.66" width="4.65" height="1.82"/><rect class="cls-2" x="316.11" y="50.02" width="4.65" height="1.82" transform="translate(57.09 239.86) rotate(-44.95)"/><path class="cls-1" d="M293.84,106.09v-2.43c.78,0,1.56,0,2.32-.1l.21,2.42C295.53,106.05,294.69,106.08,293.84,106.09Zm-2.52-.1c-.85-.07-1.68-.17-2.5-.31l.39-2.39c.76.12,1.53.21,2.31.28Zm7.54-.32-.4-2.4c.76-.12,1.52-.28,2.27-.47l.59,2.35C300.51,105.36,299.69,105.53,298.86,105.67Zm-12.51-.5c-.82-.21-1.63-.45-2.42-.72l.78-2.3c.73.25,1.47.47,2.23.66Zm17.39-.74-.79-2.29c.73-.25,1.45-.54,2.16-.85l1,2.22C305.32,103.85,304.54,104.16,303.74,104.43Zm-22.16-.89c-.77-.34-1.53-.71-2.27-1.11l1.15-2.13c.68.36,1.38.7,2.09,1Zm26.77-1.14-1.16-2.13c.68-.37,1.35-.77,2-1.19l1.33,2Q309.46,101.8,308.35,102.4Zm-31.21-1.26c-.7-.46-1.39-1-2.05-1.46l1.49-1.92q.92.72,1.89,1.35Zm35.42-1.5-1.49-1.91q.92-.72,1.77-1.5L314.49,98C313.87,98.58,313.22,99.12,312.56,99.64Zm-39.39-1.59c-.62-.57-1.22-1.16-1.79-1.78l1.78-1.65c.53.57,1.08,1.12,1.65,1.64Zm43.09-1.82-1.78-1.65c.52-.56,1-1.16,1.5-1.77l1.92,1.5C317.38,95,316.83,95.61,316.26,96.23Zm-46.51-1.88c-.52-.66-1-1.34-1.47-2l2-1.33c.43.65.88,1.28,1.36,1.89Zm49.61-2.1-2-1.33c.42-.64.82-1.31,1.19-2l2.13,1.16Q320.05,91.2,319.36,92.25ZM267,90.14c-.4-.73-.77-1.49-1.11-2.26l2.22-1c.31.71.66,1.4,1,2.08Zm54.78-2.32-2.22-1c.31-.71.59-1.43.84-2.17l2.3.79C322.41,86.27,322.1,87.05,321.76,87.82ZM265,85.53c-.27-.79-.52-1.59-.73-2.41l2.36-.6q.29,1.13.66,2.22Zm58.45-2.47-2.36-.6c.19-.75.35-1.5.48-2.27l2.39.4C323.78,81.42,323.6,82.25,323.4,83.06Zm-59.69-2.41c-.14-.82-.25-1.66-.32-2.5l2.42-.21c.07.78.16,1.55.29,2.31Zm60.51-2.57-2.42-.2c.06-.76.1-1.53.1-2.31l2.42-.13v.13C324.32,76.41,324.29,77.25,324.22,78.08Zm-60.94-2.45v-.06c0-.83,0-1.65.1-2.46l2.42.19c-.06.75-.09,1.51-.09,2.27Zm58.51-2.51c-.07-.77-.16-1.54-.29-2.3l2.39-.41c.14.83.25,1.66.32,2.51ZM266.08,71l-2.4-.39c.14-.83.31-1.66.51-2.47l2.36.59C266.36,69.48,266.2,70.23,266.08,71ZM321,68.55q-.28-1.12-.66-2.22l2.29-.79c.27.79.52,1.59.73,2.41Zm-53.81-2-2.29-.78c.27-.8.57-1.58.91-2.35l2.22,1Q267.59,65.41,267.2,66.5Zm52.3-2.32c-.32-.71-.67-1.4-1-2.08l2.13-1.17c.41.74.78,1.49,1.12,2.26Zm-50.44-1.93-2.14-1.15c.4-.74.83-1.46,1.29-2.17l2,1.33C269.82,60.91,269.43,61.57,269.06,62.25Zm48.21-2.14c-.43-.65-.88-1.27-1.36-1.88l1.91-1.5c.52.66,1,1.34,1.47,2.05Zm-45.68-1.74-1.92-1.49c.52-.67,1.06-1.31,1.63-1.93l1.79,1.64C272.56,57.17,272.07,57.76,271.59,58.37Zm42.82-1.9c-.53-.57-1.08-1.12-1.65-1.64L314.39,53c.63.57,1.22,1.16,1.79,1.77ZM274.73,55l-1.65-1.79c.61-.57,1.25-1.11,1.92-1.63l1.49,1.92A22.84,22.84,0,0,0,274.73,55ZM311,53.33c-.61-.47-1.24-.92-1.89-1.34l1.32-2c.71.46,1.39.95,2.06,1.46Zm-32.6-1.25-1.34-2c.7-.46,1.42-.9,2.16-1.3l1.16,2.13C279.68,51.26,279,51.66,278.38,52.08Zm28.71-1.28c-.68-.36-1.38-.7-2.09-1l1-2.23c.77.34,1.53.71,2.27,1.11Zm-24.65-.94-1-2.22c.77-.34,1.55-.64,2.35-.92L284.6,49C283.87,49.27,283.15,49.55,282.44,49.86Zm20.4-.91c-.73-.24-1.48-.46-2.23-.65L301.2,46c.82.2,1.62.44,2.41.7Zm-16-.6-.6-2.35c.81-.21,1.63-.39,2.47-.53l.4,2.4C288.32,48,287.57,48.16,286.82,48.35Zm11.52-.51c-.76-.12-1.53-.22-2.31-.28l.19-2.42c.85.07,1.68.17,2.5.3Zm-6.94-.27-.21-2.41c.83-.08,1.67-.11,2.52-.12v2.43C292.93,47.47,292.16,47.51,291.4,47.57Z"/><path class="cls-2" d="M302.52,99.59l-.62-1.71a21.87,21.87,0,0,0,2.44-1l.81,1.64A25.32,25.32,0,0,1,302.52,99.59Z"/><path class="cls-2" d="M307.81,96.94l-1-1.53a23.6,23.6,0,0,0,9-11l1.69.68A25.45,25.45,0,0,1,307.81,96.94Z"/><path class="cls-2" d="M319.22,78.18,317.41,78a24.21,24.21,0,0,0,.12-2.42,23.51,23.51,0,0,0-2.19-10l1.65-.76a25.31,25.31,0,0,1,2.37,10.75A25.06,25.06,0,0,1,319.22,78.18Z"/><path class="cls-2" d="M313.35,62.11a23.88,23.88,0,0,0-7.92-7.24l.89-1.58a25.74,25.74,0,0,1,8.53,7.78Z"/><path class="cls-2" d="M300.37,52.76a23.8,23.8,0,0,0-6.57-.92V50a25.43,25.43,0,0,1,7.07,1Z"/><rect class="cls-2" x="293.5" y="43.06" width="0.61" height="32.51"/><polygon class="cls-2" points="270.82 98.98 270.39 98.55 270.61 98.33 293.8 75.14 294.23 75.57 294.02 75.78 270.82 98.98"/><path class="cls-2" d="M27.61,103a33.56,33.56,0,0,1-4.36-3.61l6.8-6.93A24,24,0,0,0,33.16,95ZM19.55,95a33.4,33.4,0,0,1-2.92-4.87l8.72-4.27a23.7,23.7,0,0,0,2.07,3.45Zm-5-10.15a33.11,33.11,0,0,1-1.12-5.57l9.64-1.11a25,25,0,0,0,.8,3.94Zm65.61-9.42-9.71,0c0-.27,0-.55,0-.83l9.7-.34C80.18,74.66,80.18,75.07,80.18,75.47ZM23,74.17l-9.7-.51a33.22,33.22,0,0,1,.78-5.61l9.47,2.13A24.4,24.4,0,0,0,23,74.17ZM70,70.6a23.65,23.65,0,0,0-1.15-3.85l9-3.56a34.35,34.35,0,0,1,1.62,5.44ZM24.74,66.35l-9-3.72a33.42,33.42,0,0,1,2.61-5l8.21,5.19A23.66,23.66,0,0,0,24.74,66.35ZM67,63.15a23.57,23.57,0,0,0-2.37-3.26L72,53.53a33,33,0,0,1,3.33,4.58ZM29,59.57l-7.21-6.5a33.6,33.6,0,0,1,4.13-3.88l6,7.62A25.5,25.5,0,0,0,29,59.57Zm32.77-2.49a24.91,24.91,0,0,0-3.33-2.29l4.82-8.43a33.54,33.54,0,0,1,4.66,3.21Zm-26.47-2.5-4.66-8.52a33.28,33.28,0,0,1,5.19-2.29L39,53A24.05,24.05,0,0,0,35.32,54.58ZM54.81,53.1a24.38,24.38,0,0,0-3.88-1l1.72-9.56A32.37,32.37,0,0,1,58.13,44ZM42.9,52,41.36,42.4A35,35,0,0,1,46.7,42H47v9.71H46.7A25.19,25.19,0,0,0,42.9,52Z"/><path class="cls-2" d="M123.11,110.72h-.06a34.89,34.89,0,0,1-7.24-1.5.61.61,0,1,1,.37-1.16,33.28,33.28,0,0,0,7,1.45.61.61,0,0,1,.54.67A.61.61,0,0,1,123.11,110.72Zm7.27,0a.61.61,0,0,1-.07-1.21,33.88,33.88,0,0,0,7-1.5.61.61,0,0,1,.37,1.16,36.24,36.24,0,0,1-7.23,1.55Zm-21-4.39a.54.54,0,0,1-.3-.08,35.4,35.4,0,0,1-6-4.32.61.61,0,1,1,.81-.91,34.34,34.34,0,0,0,5.79,4.18.6.6,0,0,1-.3,1.13Zm34.78-.11a.62.62,0,0,1-.53-.3.61.61,0,0,1,.22-.83,34,34,0,0,0,5.77-4.21.61.61,0,1,1,.81.9,34.85,34.85,0,0,1-6,4.36A.54.54,0,0,1,144.12,106.19ZM98.55,96.67a.62.62,0,0,1-.49-.24A35.55,35.55,0,0,1,94.33,90a.61.61,0,0,1,.3-.8.62.62,0,0,1,.81.3A33.63,33.63,0,0,0,99,95.7a.61.61,0,0,1-.13.85A.6.6,0,0,1,98.55,96.67Zm56.29-.17a.59.59,0,0,1-.35-.12.61.61,0,0,1-.14-.84,33.82,33.82,0,0,0,3.57-6.19.61.61,0,0,1,.8-.31.6.6,0,0,1,.31.8,35,35,0,0,1-3.7,6.41A.6.6,0,0,1,154.84,96.5ZM92.6,83.5A.61.61,0,0,1,92,83a34.77,34.77,0,0,1-.81-7.35.61.61,0,0,1,.6-.61h0a.61.61,0,0,1,.61.61,35.07,35.07,0,0,0,.78,7.09.6.6,0,0,1-.46.72Zm68.12-.21-.13,0a.62.62,0,0,1-.47-.72,34.29,34.29,0,0,0,.74-7.1V75a.61.61,0,0,1,.6-.61h0a.6.6,0,0,1,.6.6v.44a35.41,35.41,0,0,1-.77,7.35A.61.61,0,0,1,160.72,83.29ZM92.51,69h-.12a.62.62,0,0,1-.48-.72,35.9,35.9,0,0,1,2.24-7.05A.63.63,0,0,1,95,61a.6.6,0,0,1,.31.8,34.79,34.79,0,0,0-2.16,6.81A.59.59,0,0,1,92.51,69Zm68.11-.64a.6.6,0,0,1-.59-.47,34.26,34.26,0,0,0-2.28-6.76.61.61,0,1,1,1.1-.51,35.29,35.29,0,0,1,2.37,7,.61.61,0,0,1-.46.72ZM98.3,55.8a.57.57,0,0,1-.35-.12.59.59,0,0,1-.14-.84,35.92,35.92,0,0,1,4.91-5.54.61.61,0,0,1,.85,0,.6.6,0,0,1,0,.86,34.89,34.89,0,0,0-4.74,5.34A.58.58,0,0,1,98.3,55.8Zm56.29-.53a.63.63,0,0,1-.49-.24,34,34,0,0,0-4.84-5.26.61.61,0,0,1,.81-.91,35.89,35.89,0,0,1,5,5.44.61.61,0,0,1-.13.85A.6.6,0,0,1,154.59,55.27ZM109,46a.59.59,0,0,1-.52-.29.61.61,0,0,1,.21-.84,35.49,35.49,0,0,1,6.73-3.06.6.6,0,0,1,.77.38.62.62,0,0,1-.39.77,33.91,33.91,0,0,0-6.49,3A.6.6,0,0,1,109,46Zm34.77-.32a.67.67,0,0,1-.3-.08,34.23,34.23,0,0,0-6.55-2.84.61.61,0,0,1,.36-1.16A36.1,36.1,0,0,1,144,44.57a.62.62,0,0,1,.23.83A.6.6,0,0,1,143.74,45.71Zm-21.06-4.26a.61.61,0,0,1-.07-1.21,35.79,35.79,0,0,1,7.39-.07.61.61,0,0,1,.55.66.59.59,0,0,1-.66.55,35.49,35.49,0,0,0-7.14.06Z"/><path class="cls-2" d="M206.57,110.59A35.14,35.14,0,1,1,241.7,75.45,35.17,35.17,0,0,1,206.57,110.59Zm0-69.67A34.53,34.53,0,1,0,241.1,75.45,34.57,34.57,0,0,0,206.57,40.92Z"/><path class="cls-2" d="M206.57,104.38a28.93,28.93,0,1,1,28.92-28.93A29,29,0,0,1,206.57,104.38Zm0-57.25a28.32,28.32,0,1,0,28.32,28.32A28.35,28.35,0,0,0,206.57,47.13Z"/><path class="cls-2" d="M186.33,57.37a2.16,2.16,0,0,1-1.53-3.68,2.22,2.22,0,0,1,3,0h0a2.16,2.16,0,0,1-1.52,3.68Zm0-3.71a1.56,1.56,0,0,0-1.1,2.65,1.59,1.59,0,0,0,2.19,0,1.54,1.54,0,0,0,0-2.19h0A1.55,1.55,0,0,0,186.33,53.66Z"/><path class="cls-2" d="M181.78,63.3a2.15,2.15,0,0,1-2.08-1.6,2.16,2.16,0,1,1,4,.52,2.15,2.15,0,0,1-1.32,1A2.09,2.09,0,0,1,181.78,63.3Zm0-3.71a1.83,1.83,0,0,0-.4,0,1.56,1.56,0,0,0-.94.73,1.55,1.55,0,0,0-.16,1.17,1.56,1.56,0,0,0,.73.94,1.5,1.5,0,0,0,1.17.16,1.56,1.56,0,0,0,.94-.73,1.54,1.54,0,0,0-.57-2.11A1.51,1.51,0,0,0,181.78,59.59Z"/><path class="cls-2" d="M178.92,70.2a2.68,2.68,0,0,1-.56-.07A2.16,2.16,0,0,1,179.48,66h0a2.16,2.16,0,0,1-.56,4.24Zm0-3.7a1.54,1.54,0,1,0,.4,0A1.37,1.37,0,0,0,178.92,66.5Z"/><path class="cls-2" d="M177.94,77.61a2.16,2.16,0,1,1,2.16-2.16A2.16,2.16,0,0,1,177.94,77.61Zm0-3.71a1.55,1.55,0,1,0,1.55,1.55A1.55,1.55,0,0,0,177.94,73.9Z"/><path class="cls-2" d="M178.92,85a2.15,2.15,0,0,1-.56-4.23h0a2.15,2.15,0,0,1,1.12,4.16A2.15,2.15,0,0,1,178.92,85Zm-.4-3.65a1.55,1.55,0,1,0,1.9,1.1,1.56,1.56,0,0,0-1.9-1.1Z"/><path class="cls-2" d="M181.78,91.92a2.23,2.23,0,0,1-.56-.08,2.12,2.12,0,0,1-1.31-1,2.18,2.18,0,0,1-.21-1.64,2.11,2.11,0,0,1,1-1.3h0a2.12,2.12,0,0,1,1.63-.22,2.16,2.16,0,0,1-.55,4.24Zm0-3.71a1.59,1.59,0,0,0-.77.21h0a1.54,1.54,0,0,0-.57,2.12,1.58,1.58,0,0,0,.94.72A1.55,1.55,0,0,0,183.12,89a1.51,1.51,0,0,0-.94-.72A1.39,1.39,0,0,0,181.78,88.21Z"/><path class="cls-2" d="M186.33,97.85a2.16,2.16,0,0,1-1.53-3.68,2.2,2.2,0,0,1,3,0,2.16,2.16,0,0,1-1.52,3.68Zm0-3.71a1.53,1.53,0,0,0-1.1.46,1.55,1.55,0,0,0,0,2.18,1.59,1.59,0,0,0,2.19,0,1.54,1.54,0,0,0,0-2.19A1.5,1.5,0,0,0,186.33,94.14Z"/><path class="cls-2" d="M192.25,102.39a2.19,2.19,0,0,1-1.07-.28,2.17,2.17,0,0,1-.79-3h0a2.16,2.16,0,1,1,1.86,3.23Zm-1.33-2.92A1.54,1.54,0,1,0,193,98.9a1.54,1.54,0,0,0-2.11.57Z"/><path class="cls-2" d="M199.16,105.26a2.17,2.17,0,0,1-2.08-2.72h0a2.16,2.16,0,0,1,1-1.31,2.18,2.18,0,0,1,1.64-.21,2.16,2.16,0,0,1,1.31,1,2.17,2.17,0,0,1-1.87,3.24Zm-1.5-2.56a1.55,1.55,0,0,0,3,.8,1.52,1.52,0,0,0-1.09-1.89,1.45,1.45,0,0,0-1.17.15,1.56,1.56,0,0,0-.73.94Z"/><path class="cls-2" d="M206.57,106.23a2.16,2.16,0,1,1,2.15-2.16A2.16,2.16,0,0,1,206.57,106.23Zm0-3.7a1.55,1.55,0,1,0,1.54,1.54A1.54,1.54,0,0,0,206.57,102.53Z"/><path class="cls-2" d="M214,105.25a2.16,2.16,0,0,1-2.09-1.59h0a2.16,2.16,0,0,1,3.16-2.43,2.15,2.15,0,0,1-.52,4A2.08,2.08,0,0,1,214,105.25Zm-1.5-1.75a1.55,1.55,0,1,0,2.27-1.74,1.48,1.48,0,0,0-1.18-.15,1.53,1.53,0,0,0-.94.71,1.57,1.57,0,0,0-.15,1.18Z"/><path class="cls-2" d="M220.88,102.39a2.16,2.16,0,0,1-1.87-1.07,2.14,2.14,0,0,1-.21-1.64,2.16,2.16,0,0,1,1-1.31,2.18,2.18,0,0,1,1.64-.21,2.11,2.11,0,0,1,1.3,1,2.17,2.17,0,0,1-.78,3A2.2,2.2,0,0,1,220.88,102.39Zm0-3.7a1.55,1.55,0,0,0-.78.21,1.58,1.58,0,0,0-.72.94,1.55,1.55,0,1,0,2.84-.37,1.56,1.56,0,0,0-.94-.73A1.83,1.83,0,0,0,220.88,98.69Z"/><path class="cls-2" d="M226.81,97.84a2.15,2.15,0,1,1,1.52-.63A2.14,2.14,0,0,1,226.81,97.84Zm0-3.7a1.52,1.52,0,0,0-1.1.46,1.55,1.55,0,1,0,2.19,0A1.51,1.51,0,0,0,226.81,94.14Z"/><path class="cls-2" d="M231.35,91.92a2.15,2.15,0,0,1-1.07-.29,2.17,2.17,0,0,1-1-1.31,2.11,2.11,0,0,1,.22-1.63,2.15,2.15,0,0,1,1.31-1,2.17,2.17,0,0,1,2.64,1.52,2.18,2.18,0,0,1-.22,1.64,2.21,2.21,0,0,1-1.87,1.08Zm0-3.71a1.34,1.34,0,0,0-.4.06A1.49,1.49,0,0,0,230,89a1.54,1.54,0,0,0,.56,2.11,1.53,1.53,0,0,0,2.11-.56,1.53,1.53,0,0,0,.16-1.18,1.55,1.55,0,0,0-.72-.94A1.62,1.62,0,0,0,231.36,88.21Z"/><path class="cls-2" d="M234.21,85a2.08,2.08,0,0,1-.55-.07h0a2.16,2.16,0,1,1,.55.07Zm-.4-.66a1.55,1.55,0,1,0-1.09-1.89,1.55,1.55,0,0,0,1.09,1.89Z"/><path class="cls-2" d="M235.19,77.61a2.16,2.16,0,1,1,2.15-2.16A2.16,2.16,0,0,1,235.19,77.61Zm0-3.71a1.55,1.55,0,1,0,1.55,1.55A1.56,1.56,0,0,0,235.19,73.9Z"/><path class="cls-2" d="M234.22,70.2a2.14,2.14,0,1,1,.55-.07h0A2.08,2.08,0,0,1,234.22,70.2Zm0-3.7a1.41,1.41,0,0,0-.4,0,1.55,1.55,0,0,0,.81,3h0a1.55,1.55,0,0,0-.41-3Z"/><path class="cls-2" d="M231.36,63.3a2.1,2.1,0,0,1-.56-.08,2.16,2.16,0,0,1-1.53-2.64A2.16,2.16,0,1,1,232.43,63h0A2.15,2.15,0,0,1,231.36,63.3Zm0-3.71a1.51,1.51,0,0,0-.77.21,1.55,1.55,0,0,0-.72.94,1.5,1.5,0,0,0,.16,1.17,1.53,1.53,0,0,0,.94.73,1.6,1.6,0,0,0,1.17-.16h0a1.55,1.55,0,0,0,.72-.94,1.5,1.5,0,0,0-.16-1.17,1.54,1.54,0,0,0-.93-.73A1.92,1.92,0,0,0,231.35,59.59Z"/><path class="cls-2" d="M255.59,43.56a2.1,2.1,0,0,1-.56-.07,2.13,2.13,0,0,1-1.31-1,2.16,2.16,0,1,1,3.73-2.16,2.14,2.14,0,0,1,.21,1.64,2.08,2.08,0,0,1-1,1.3h0A2.05,2.05,0,0,1,255.59,43.56Zm0-3.7a1.55,1.55,0,0,0-.4,3,1.57,1.57,0,0,0,1.18-.15h0a1.55,1.55,0,0,0,.72-.94,1.5,1.5,0,0,0-.16-1.17A1.53,1.53,0,0,0,255.58,39.86Z"/><path class="cls-2" d="M226.81,57.37a2.16,2.16,0,1,1,1.52-.63A2.14,2.14,0,0,1,226.81,57.37Zm0-3.7a1.55,1.55,0,1,0,1.09.45A1.55,1.55,0,0,0,226.81,53.67Z"/><path class="cls-2" d="M206.57,98.45a23,23,0,0,1-23-23h1.82a21.2,21.2,0,0,0,21.18,21.18Z"/><path class="cls-2" d="M229.57,75.45h-1.82a21.2,21.2,0,0,0-21.18-21.18V52.45A23,23,0,0,1,229.57,75.45Z"/><polygon class="cls-2" points="172.74 109.71 172.31 109.28 240.39 41.19 240.82 41.63 172.74 109.71"/><rect class="cls-2" x="240.61" y="41.11" width="13.12" height="0.61"/><path class="cls-2" d="M56.66,75.45a9.91,9.91,0,1,0-9.91,9.91A9.91,9.91,0,0,0,56.66,75.45Z"/><polygon class="cls-1" points="215.19 84.5 197.52 66.83 197.95 66.4 215.62 84.07 215.19 84.5"/><polygon class="cls-1" points="213.63 86.49 213.2 86.06 217.18 82.08 217.61 82.51 213.63 86.49"/><path class="cls-2" d="M126.64,106.89a31.44,31.44,0,1,1,31.43-31.44A31.48,31.48,0,0,1,126.64,106.89Zm0-62.26a30.83,30.83,0,1,0,30.82,30.82A30.86,30.86,0,0,0,126.64,44.63Z"/><path class="cls-2" d="M126.64,75.76H46.7a.31.31,0,0,1-.3-.31.3.3,0,0,1,.3-.3h79.94a.3.3,0,0,1,.3.3A.31.31,0,0,1,126.64,75.76Z"/><circle class="cls-1" cx="126.64" cy="75.45" r="18.98"/><path class="cls-2" d="M132.19,75.45A5.56,5.56,0,1,0,126.64,81,5.55,5.55,0,0,0,132.19,75.45Z"/><rect class="cls-2" x="149.28" y="63.9" width="0.61" height="57.14" transform="translate(-13.81 157.51) rotate(-53.43)"/><path d="M3.48,48.24a.42.42,0,0,1-.42-.42V24.49a.39.39,0,0,1,.11-.28L22.25,3a.41.41,0,0,1,.31-.14h105.2a.42.42,0,1,1,0,.84h-105L3.9,24.65V47.82A.42.42,0,0,1,3.48,48.24Z"/><path d="M130.61,6.54a3.27,3.27,0,1,1,3.27-3.27A3.28,3.28,0,0,1,130.61,6.54Zm0-5.7A2.43,2.43,0,1,0,133,3.27,2.43,2.43,0,0,0,130.61.84Z"/><path d="M337.85,3.69H133.46a.42.42,0,0,1,0-.84H337.85a.42.42,0,1,1,0,.84Z"/><path d="M339.51,3.27a1.67,1.67,0,1,0-1.66,1.66A1.66,1.66,0,0,0,339.51,3.27Z"/><path class="cls-2" d="M20.57,168.57h-.35a.33.33,0,1,1,0-.65c.2,0,.41,0,.62,0a.32.32,0,0,1,.33.32.32.32,0,0,1-.31.33Zm1.59-.14a.32.32,0,0,1-.06-.64l.61-.13a.32.32,0,0,1,.39.23.31.31,0,0,1-.23.39c-.21.06-.43.11-.65.15Zm-3.21,0h-.06l-.65-.15a.32.32,0,0,1-.23-.39.32.32,0,0,1,.39-.23l.61.14a.32.32,0,0,1,.26.37A.33.33,0,0,1,19,168.43Zm5.06-.55a.32.32,0,0,1-.29-.2.32.32,0,0,1,.17-.42,5.77,5.77,0,0,0,.56-.27.33.33,0,0,1,.43.14.32.32,0,0,1-.14.44,5.5,5.5,0,0,1-.6.28A.28.28,0,0,1,24,167.88Zm-6.91,0a.32.32,0,0,1-.13,0l-.6-.29a.32.32,0,0,1-.14-.43.33.33,0,0,1,.44-.14l.56.27a.32.32,0,0,1,.17.42A.32.32,0,0,1,17.1,167.86Zm8.6-.93a.3.3,0,0,1-.26-.13.32.32,0,0,1,.07-.45c.17-.12.33-.25.49-.38a.32.32,0,0,1,.46,0,.33.33,0,0,1,0,.45c-.17.15-.35.28-.53.41A.35.35,0,0,1,25.7,166.93Zm-10.28,0a.33.33,0,0,1-.19-.06l-.53-.41a.32.32,0,1,1,.42-.49c.15.13.32.26.49.38a.33.33,0,0,1,.07.45A.3.3,0,0,1,15.42,166.91Zm11.72-1.26a.31.31,0,0,1-.22-.09.32.32,0,0,1,0-.45l.4-.48a.32.32,0,1,1,.51.39c-.14.18-.28.35-.43.52A.32.32,0,0,1,27.14,165.65Zm-13.16,0a.34.34,0,0,1-.24-.11c-.15-.17-.29-.34-.42-.52a.32.32,0,0,1,0-.45.33.33,0,0,1,.46.06c.12.16.26.33.39.48a.33.33,0,0,1,0,.46A.35.35,0,0,1,14,165.62Zm14.29-1.55a.29.29,0,0,1-.16,0,.32.32,0,0,1-.13-.44,5.77,5.77,0,0,0,.29-.55.32.32,0,0,1,.43-.15.31.31,0,0,1,.15.43,6.54,6.54,0,0,1-.3.59A.31.31,0,0,1,28.27,164.07Zm-15.41,0a.33.33,0,0,1-.28-.16q-.16-.3-.3-.6a.32.32,0,0,1,.15-.43.33.33,0,0,1,.43.16c.09.19.18.37.28.55A.31.31,0,0,1,13,164,.29.29,0,0,1,12.86,164ZM29,162.3l-.09,0a.32.32,0,0,1-.22-.4c.06-.2.12-.4.16-.6a.33.33,0,0,1,.39-.25.32.32,0,0,1,.24.39c-.05.21-.1.43-.17.65A.32.32,0,0,1,29,162.3Zm-16.91,0a.32.32,0,0,1-.31-.23c-.06-.21-.12-.43-.16-.65a.32.32,0,0,1,.24-.38.32.32,0,0,1,.39.25q.06.3.15.6a.32.32,0,0,1-.22.4Zm17.26-1.87h0a.32.32,0,0,1-.3-.34c0-.21,0-.42,0-.62a.31.31,0,0,0,0-.56c0-.2,0-.41-.07-.61a.33.33,0,0,1,.28-.37.32.32,0,0,1,.36.28c0,.22.06.44.07.66a.34.34,0,0,1-.16.31.33.33,0,0,1,.18.29c0,.22,0,.44,0,.66A.33.33,0,0,1,29.37,160.39Zm-17.6,0a.32.32,0,0,1-.32-.3c0-.21,0-.42,0-.63v0a.32.32,0,0,1,.64,0v0c0,.19,0,.39,0,.59a.32.32,0,0,1-.3.34Zm.08-1.93h0a.32.32,0,0,1-.27-.37q0-.33.12-.66a.32.32,0,0,1,.39-.24.32.32,0,0,1,.24.38c0,.21-.08.41-.11.62A.33.33,0,0,1,11.85,158.43ZM29,157.27a.33.33,0,0,1-.31-.23,5.8,5.8,0,0,0-.19-.59.31.31,0,0,1,.19-.41.31.31,0,0,1,.41.19c.08.2.15.42.21.63a.32.32,0,0,1-.22.4Zm-16.7-.71-.11,0a.33.33,0,0,1-.19-.42,6.65,6.65,0,0,1,.27-.61.32.32,0,1,1,.58.27c-.09.19-.17.38-.25.57A.32.32,0,0,1,12.34,156.56Zm16-1.07a.32.32,0,0,1-.28-.17c-.1-.18-.21-.36-.32-.53a.32.32,0,0,1,.09-.45.33.33,0,0,1,.45.1,6.59,6.59,0,0,1,.34.57.32.32,0,0,1-.12.44A.32.32,0,0,1,28.3,155.49Zm-15.06-.64a.3.3,0,0,1-.18-.06.32.32,0,0,1-.09-.45q.18-.27.39-.54a.32.32,0,0,1,.45-.05.31.31,0,0,1,.06.45,5.74,5.74,0,0,0-.36.5A.33.33,0,0,1,13.24,154.85Zm14-.94a.32.32,0,0,1-.24-.11l-.43-.45a.32.32,0,1,1,.45-.46c.16.15.31.32.46.48a.33.33,0,0,1,0,.46A.34.34,0,0,1,27.19,153.91Zm-12.71-.54a.34.34,0,0,1-.23-.1.33.33,0,0,1,0-.46l.5-.44a.31.31,0,0,1,.45,0,.32.32,0,0,1,0,.46,6.1,6.1,0,0,0-.46.41A.35.35,0,0,1,14.48,153.37Zm11.28-.76a.31.31,0,0,1-.19-.06c-.17-.12-.34-.24-.52-.35a.32.32,0,0,1,.34-.55L26,152a.33.33,0,0,1,.07.45A.33.33,0,0,1,25.76,152.61ZM16,152.19a.32.32,0,0,1-.28-.15.34.34,0,0,1,.11-.45l.58-.32a.33.33,0,1,1,.3.58,5.86,5.86,0,0,0-.55.3A.32.32,0,0,1,16,152.19Zm8.06-.54-.13,0c-.19-.09-.39-.16-.58-.23a.32.32,0,0,1-.2-.41.32.32,0,0,1,.41-.2l.63.24a.32.32,0,0,1,.16.43A.31.31,0,0,1,24.08,151.65Zm-6.31-.27a.33.33,0,0,1-.31-.22.33.33,0,0,1,.21-.41l.64-.19a.32.32,0,0,1,.39.24.32.32,0,0,1-.23.39l-.6.18Zm4.46-.3h-.06l-.61-.1a.32.32,0,0,1-.29-.35.33.33,0,0,1,.36-.29l.66.1a.33.33,0,0,1,.26.38A.32.32,0,0,1,22.23,151.08ZM19.66,151a.32.32,0,0,1,0-.64c.22,0,.44,0,.66,0a.32.32,0,1,1,0,.64l-.62,0Z"/><path class="cls-2" d="M584,159.75H457.77a.32.32,0,0,1-.32-.32.33.33,0,0,1,.32-.33H584a.32.32,0,0,1,.32.33A.32.32,0,0,1,584,159.75Z"/><path class="cls-2" d="M440.17,159.75H315.09a.32.32,0,0,1-.33-.32.33.33,0,0,1,.33-.33H440.17a.32.32,0,0,1,.32.33A.32.32,0,0,1,440.17,159.75Z"/><path class="cls-2" d="M297.44,159.75H172.14a.32.32,0,0,1-.32-.32.32.32,0,0,1,.32-.33h125.3a.32.32,0,0,1,.32.33A.32.32,0,0,1,297.44,159.75Z"/><path class="cls-2" d="M154.68,159.75H29.4a.32.32,0,0,1-.33-.32.33.33,0,0,1,.33-.33H154.68a.32.32,0,0,1,.32.33A.32.32,0,0,1,154.68,159.75Z"/><path class="cls-2" d="M60.8,159.51a3.75,3.75,0,1,1-3.74-3.75A3.74,3.74,0,0,1,60.8,159.51Z"/><path class="cls-2" d="M96,159.51a3.75,3.75,0,1,1-3.75-3.75A3.75,3.75,0,0,1,96,159.51Z"/><path class="cls-2" d="M131.15,159.51a3.75,3.75,0,1,1-3.75-3.75A3.75,3.75,0,0,1,131.15,159.51Z"/><path class="cls-2" d="M163.3,168.57a9.15,9.15,0,1,1,9.14-9.14A9.15,9.15,0,0,1,163.3,168.57Zm0-17.64a8.5,8.5,0,1,0,8.5,8.5A8.51,8.51,0,0,0,163.3,150.93Z"/><path class="cls-2" d="M203.8,159.51a3.75,3.75,0,1,1-3.75-3.75A3.75,3.75,0,0,1,203.8,159.51Z"/><path class="cls-2" d="M239,159.51a3.75,3.75,0,1,1-3.75-3.75A3.75,3.75,0,0,1,239,159.51Z"/><path class="cls-2" d="M274.14,159.51a3.75,3.75,0,1,1-3.75-3.75A3.75,3.75,0,0,1,274.14,159.51Z"/><path class="cls-2" d="M306.26,168.57a9.15,9.15,0,1,1,9.15-9.14A9.15,9.15,0,0,1,306.26,168.57Zm0-17.64a8.5,8.5,0,1,0,8.5,8.5A8.51,8.51,0,0,0,306.26,150.93Z"/><path class="cls-2" d="M348.52,159.51a3.75,3.75,0,1,1-3.75-3.75A3.75,3.75,0,0,1,348.52,159.51Z"/><path class="cls-2" d="M383.69,159.51a3.75,3.75,0,1,1-3.74-3.75A3.74,3.74,0,0,1,383.69,159.51Z"/><path class="cls-2" d="M418.87,159.51a3.75,3.75,0,1,1-3.75-3.75A3.75,3.75,0,0,1,418.87,159.51Z"/><path class="cls-2" d="M449,168.57a9.15,9.15,0,1,1,9.15-9.14A9.16,9.16,0,0,1,449,168.57Zm0-17.64a8.5,8.5,0,1,0,8.5,8.5A8.51,8.51,0,0,0,449,150.93Z"/><path class="cls-2" d="M488.35,159.51a3.75,3.75,0,1,1-3.75-3.75A3.75,3.75,0,0,1,488.35,159.51Z"/><path class="cls-2" d="M523.52,159.51a3.75,3.75,0,1,1-3.75-3.75A3.75,3.75,0,0,1,523.52,159.51Z"/><path class="cls-2" d="M558.69,159.51a3.75,3.75,0,1,1-3.75-3.75A3.75,3.75,0,0,1,558.69,159.51Z"/><path class="cls-2" d="M593.66,168.48h-.35a.32.32,0,0,1-.31-.33.32.32,0,0,1,.33-.31H594a.32.32,0,0,1,.33.31.31.31,0,0,1-.31.33Zm1.59-.14a.33.33,0,0,1-.32-.27.32.32,0,0,1,.26-.37l.61-.14a.33.33,0,0,1,.16.63l-.65.14Zm-3.21,0H592c-.22,0-.44-.08-.65-.14a.32.32,0,0,1-.23-.4.32.32,0,0,1,.39-.23c.2.06.41.1.61.14a.32.32,0,0,1-.06.64Zm5.06-.55a.34.34,0,0,1-.3-.19.33.33,0,0,1,.17-.43c.2-.08.39-.17.57-.26a.32.32,0,0,1,.29.57l-.6.29Zm-6.91,0a.31.31,0,0,1-.13,0,6.54,6.54,0,0,1-.6-.28.33.33,0,0,1-.14-.44.32.32,0,0,1,.43-.14q.29.15.57.27a.32.32,0,0,1,.17.42A.33.33,0,0,1,590.19,167.77Zm8.6-.93a.35.35,0,0,1-.27-.14.32.32,0,0,1,.08-.45c.17-.12.33-.25.49-.38a.33.33,0,0,1,.45,0,.32.32,0,0,1,0,.46l-.53.41A.3.3,0,0,1,598.79,166.84Zm-10.28,0a.31.31,0,0,1-.19-.06l-.53-.41a.32.32,0,0,1,.41-.5l.49.38a.32.32,0,0,1,.08.45A.33.33,0,0,1,588.51,166.82Zm11.72-1.27a.35.35,0,0,1-.22-.08.33.33,0,0,1,0-.46c.13-.15.27-.31.39-.48a.33.33,0,0,1,.46-.05.32.32,0,0,1,0,.45c-.13.17-.28.35-.42.51A.35.35,0,0,1,600.23,165.55Zm-13.16,0a.29.29,0,0,1-.24-.11c-.15-.16-.29-.34-.43-.51a.32.32,0,0,1,.06-.45.31.31,0,0,1,.45.06l.4.48a.31.31,0,0,1,0,.45A.28.28,0,0,1,587.07,165.52ZM601.35,164a.32.32,0,0,1-.16,0,.33.33,0,0,1-.12-.44c.1-.18.2-.37.29-.56a.32.32,0,0,1,.58.28,6.63,6.63,0,0,1-.31.59A.3.3,0,0,1,601.35,164ZM586,164a.32.32,0,0,1-.28-.17c-.11-.19-.21-.39-.31-.59a.33.33,0,0,1,.16-.43.32.32,0,0,1,.43.15c.09.19.18.38.28.56a.33.33,0,0,1-.12.44A.47.47,0,0,1,586,164Zm16.16-1.75H602a.34.34,0,0,1-.22-.41c.06-.19.11-.4.16-.6a.32.32,0,0,1,.63.14c-.05.22-.11.44-.17.65A.32.32,0,0,1,602.11,162.2Zm-16.91,0a.32.32,0,0,1-.31-.23c-.06-.22-.12-.43-.17-.65a.34.34,0,0,1,.25-.39.33.33,0,0,1,.38.25c0,.2.1.41.16.6a.32.32,0,0,1-.22.4Zm17.26-1.87h0a.33.33,0,0,1-.3-.35c0-.2,0-.41,0-.62a.32.32,0,0,1,.17-.28.32.32,0,0,1-.19-.27,6.2,6.2,0,0,0-.06-.62.32.32,0,0,1,.64-.09c0,.22,0,.45.07.67a.31.31,0,0,1-.17.3.32.32,0,0,1,.19.29c0,.22,0,.45,0,.67A.32.32,0,0,1,602.46,160.3Zm-17.6,0a.33.33,0,0,1-.32-.31q0-.32,0-.63v0a.33.33,0,1,1,.65,0v0c0,.2,0,.4,0,.59a.32.32,0,0,1-.3.34Zm.08-1.94h-.05a.32.32,0,0,1-.27-.37c0-.22.07-.44.12-.65a.32.32,0,0,1,.38-.25.32.32,0,0,1,.25.39c0,.2-.09.41-.12.61A.31.31,0,0,1,584.94,158.33Zm17.19-1.15a.32.32,0,0,1-.31-.23c-.06-.2-.12-.4-.19-.59a.32.32,0,0,1,.18-.42.33.33,0,0,1,.42.19q.12.31.21.63a.32.32,0,0,1-.22.4Zm-16.7-.71-.12,0a.32.32,0,0,1-.18-.41c.08-.21.17-.42.26-.62a.33.33,0,0,1,.59.28c-.09.18-.17.38-.25.57A.32.32,0,0,1,585.43,156.47Zm16-1.08a.32.32,0,0,1-.28-.16c-.1-.18-.21-.36-.32-.53a.32.32,0,1,1,.54-.36c.12.19.23.38.34.58a.31.31,0,0,1-.13.43A.26.26,0,0,1,601.39,155.39Zm-15.07-.64a.41.41,0,0,1-.18-.05.33.33,0,0,1-.08-.45c.12-.18.25-.37.39-.54a.32.32,0,1,1,.51.39l-.37.51A.32.32,0,0,1,586.32,154.75Zm13.95-.93a.35.35,0,0,1-.24-.11,4.57,4.57,0,0,0-.43-.45.33.33,0,0,1,.46-.47c.15.16.31.32.46.49a.34.34,0,0,1,0,.46A.35.35,0,0,1,600.27,153.82Zm-12.7-.55a.29.29,0,0,1-.23-.1.31.31,0,0,1,0-.45,5.35,5.35,0,0,1,.5-.45.32.32,0,0,1,.45,0,.33.33,0,0,1,0,.45l-.47.41A.31.31,0,0,1,587.57,153.27Zm11.27-.76a.35.35,0,0,1-.19-.06c-.16-.12-.34-.23-.51-.34a.34.34,0,0,1-.11-.45.33.33,0,0,1,.45-.1c.19.12.38.24.55.37a.32.32,0,0,1,.08.45A.34.34,0,0,1,598.84,152.51Zm-9.74-.41a.33.33,0,0,1-.27-.16.31.31,0,0,1,.11-.44c.19-.12.38-.22.58-.33a.33.33,0,0,1,.44.15.32.32,0,0,1-.15.43l-.54.3A.34.34,0,0,1,589.1,152.1Zm8.07-.54a.28.28,0,0,1-.13,0l-.58-.23a.32.32,0,0,1,.21-.61l.62.25a.32.32,0,0,1,.17.42A.32.32,0,0,1,597.17,151.56Zm-6.31-.27a.33.33,0,0,1-.31-.22.33.33,0,0,1,.21-.41c.21-.07.42-.14.64-.19a.32.32,0,0,1,.39.23.32.32,0,0,1-.23.39c-.2.06-.4.11-.6.18Zm4.46-.3h-.06a6.17,6.17,0,0,0-.62-.09.33.33,0,0,1-.28-.36.31.31,0,0,1,.36-.28c.22,0,.44.06.66.1a.32.32,0,0,1,.25.38A.31.31,0,0,1,595.32,151Zm-2.57-.11a.32.32,0,0,1-.32-.29.33.33,0,0,1,.28-.36l.67,0a.33.33,0,0,1,0,.65c-.21,0-.42,0-.62,0Z"/><line class="cls-3" x1="396.83" y1="106.95" x2="449.32" y2="159.44"/><path class="cls-2" d="M399.19,106.46a2.85,2.85,0,1,0-2.85,2.85A2.86,2.86,0,0,0,399.19,106.46Z"/><rect class="cls-2" x="235.13" y="75.2" width="148.13" height="0.61"/><path class="cls-2" d="M451.52,159.75a2.85,2.85,0,1,0-2.85,2.85A2.84,2.84,0,0,0,451.52,159.75Z"/><polygon class="cls-4" points="448.67 178.58 452.09 172.66 445.25 172.66 448.67 178.58"/><path class="cls-4" d="M609.62,198.12H5.93L0,193.78V187l6-4.37H209l7.14,4.19H399.42l7.14-4.19h203l5.95,4.37v6.82ZM6.29,197h603l5.18-3.8v-5.68l-5.21-3.83H406.86l-7.14,4.19H215.83l-7.14-4.19H6.33l-5.22,3.83v5.68Z"/><polygon class="cls-4" points="217.06 189.56 215.38 189.56 212.62 187.94 212.62 195.34 217.06 195.34 217.06 189.56"/><polygon class="cls-4" points="211.07 187.03 208.24 185.37 206.63 185.37 206.63 195.34 211.07 195.34 211.07 187.03"/><rect class="cls-4" x="224.61" y="189.56" width="4.44" height="5.79"/><rect class="cls-4" x="218.62" y="189.56" width="4.44" height="5.79"/><rect class="cls-4" x="308.55" y="189.56" width="4.44" height="5.79"/><rect class="cls-4" x="188.64" y="185.37" width="4.44" height="9.98"/><rect class="cls-4" x="170.65" y="185.37" width="4.44" height="9.98"/><rect class="cls-4" x="176.65" y="185.37" width="4.44" height="9.98"/><rect class="cls-4" x="158.66" y="185.37" width="4.44" height="9.98"/><rect class="cls-4" x="194.64" y="185.37" width="4.44" height="9.98"/><rect class="cls-4" x="230.61" y="189.56" width="4.44" height="5.79"/><rect class="cls-4" x="182.64" y="185.37" width="4.44" height="9.98"/><rect class="cls-4" x="164.66" y="185.37" width="4.44" height="9.98"/><rect class="cls-4" x="284.57" y="189.56" width="4.44" height="5.79"/><rect class="cls-4" x="278.58" y="189.56" width="4.44" height="5.79"/><rect class="cls-4" x="272.58" y="189.56" width="4.44" height="5.79"/><rect class="cls-4" x="236.61" y="189.56" width="4.44" height="5.79"/><rect class="cls-4" x="296.56" y="189.56" width="4.44" height="5.79"/><rect class="cls-4" x="302.56" y="189.56" width="4.44" height="5.79"/><rect class="cls-4" x="290.57" y="189.56" width="4.44" height="5.79"/><rect class="cls-4" x="248.6" y="189.56" width="4.44" height="5.79"/><rect class="cls-4" x="242.6" y="189.56" width="4.44" height="5.79"/><rect class="cls-4" x="254.59" y="189.56" width="4.44" height="5.79"/><rect class="cls-4" x="260.59" y="189.56" width="4.44" height="5.79"/><rect class="cls-4" x="266.58" y="189.56" width="4.44" height="5.79"/><rect class="cls-4" x="200.63" y="185.37" width="4.44" height="9.98"/><rect class="cls-4" x="50.74" y="185.37" width="4.44" height="9.98"/><rect class="cls-4" x="56.74" y="185.37" width="4.44" height="9.98"/><rect class="cls-4" x="44.75" y="185.37" width="4.44" height="9.98"/><rect class="cls-4" x="62.73" y="185.37" width="4.44" height="9.98"/><rect class="cls-4" x="68.73" y="185.37" width="4.44" height="9.98"/><rect class="cls-4" x="38.75" y="185.37" width="4.44" height="9.98"/><rect class="cls-4" x="32.75" y="185.37" width="4.44" height="9.98"/><rect class="cls-4" x="8.77" y="185.37" width="4.44" height="9.98"/><rect class="cls-4" x="74.72" y="185.37" width="4.44" height="9.98"/><rect class="cls-4" x="14.77" y="185.37" width="4.44" height="9.98"/><rect class="cls-4" x="26.76" y="185.37" width="4.44" height="9.98"/><rect class="cls-4" x="20.76" y="185.37" width="4.44" height="9.98"/><rect class="cls-4" x="134.68" y="185.37" width="4.44" height="9.98"/><rect class="cls-4" x="152.67" y="185.37" width="4.44" height="9.98"/><rect class="cls-4" x="128.68" y="185.37" width="4.44" height="9.98"/><rect class="cls-4" x="116.69" y="185.37" width="4.44" height="9.98"/><rect class="cls-4" x="122.69" y="185.37" width="4.44" height="9.98"/><rect class="cls-4" x="140.68" y="185.37" width="4.44" height="9.98"/><rect class="cls-4" x="146.67" y="185.37" width="4.44" height="9.98"/><rect class="cls-4" x="104.7" y="185.37" width="4.44" height="9.98"/><rect class="cls-4" x="92.71" y="185.37" width="4.44" height="9.98"/><rect class="cls-4" x="110.7" y="185.37" width="4.44" height="9.98"/><rect class="cls-4" x="86.72" y="185.37" width="4.44" height="9.98"/><rect class="cls-4" x="80.72" y="185.37" width="4.44" height="9.98"/><rect class="cls-4" x="98.71" y="185.37" width="4.44" height="9.98"/><rect class="cls-4" x="476.43" y="185.37" width="4.44" height="9.98"/><rect class="cls-4" x="314.55" y="189.56" width="4.44" height="5.79"/><rect class="cls-4" x="470.44" y="185.37" width="4.44" height="9.98"/><rect class="cls-4" x="482.43" y="185.37" width="4.44" height="9.98"/><rect class="cls-4" x="464.44" y="185.37" width="4.44" height="9.98"/><polygon class="cls-4" points="7.21 195.34 7.21 185.37 6.88 185.37 2.78 188.37 2.78 192.37 6.83 195.34 7.21 195.34"/><rect class="cls-4" x="350.52" y="189.56" width="4.44" height="5.79"/><rect class="cls-4" x="386.5" y="189.56" width="4.44" height="5.79"/><rect class="cls-4" x="368.51" y="189.56" width="4.44" height="5.79"/><rect class="cls-4" x="362.51" y="189.56" width="4.44" height="5.79"/><rect class="cls-4" x="374.5" y="189.56" width="4.44" height="5.79"/><rect class="cls-4" x="380.5" y="189.56" width="4.44" height="5.79"/><rect class="cls-4" x="356.52" y="189.56" width="4.44" height="5.79"/><rect class="cls-4" x="320.54" y="189.56" width="4.44" height="5.79"/><rect class="cls-4" x="344.53" y="189.56" width="4.44" height="5.79"/><rect class="cls-4" x="326.54" y="189.56" width="4.44" height="5.79"/><rect class="cls-4" x="332.54" y="189.56" width="4.44" height="5.79"/><rect class="cls-4" x="338.53" y="189.56" width="4.44" height="5.79"/><rect class="cls-4" x="392.49" y="189.56" width="4.44" height="5.79"/><rect class="cls-4" x="440.46" y="185.37" width="4.44" height="9.98"/><rect class="cls-4" x="434.46" y="185.37" width="4.44" height="9.98"/><rect class="cls-4" x="458.44" y="185.37" width="4.44" height="9.98"/><rect class="cls-4" x="446.45" y="185.37" width="4.44" height="9.98"/><rect class="cls-4" x="452.45" y="185.37" width="4.44" height="9.98"/><rect class="cls-4" x="428.47" y="185.37" width="4.44" height="9.98"/><polygon class="cls-4" points="408.92 185.37 407.31 185.37 404.48 187.03 404.48 195.34 408.92 195.34 408.92 185.37"/><polygon class="cls-4" points="402.93 187.94 400.18 189.56 398.49 189.56 398.49 195.34 402.93 195.34 402.93 187.94"/><rect class="cls-4" x="422.47" y="185.37" width="4.44" height="9.98"/><rect class="cls-4" x="410.48" y="185.37" width="4.44" height="9.98"/><rect class="cls-4" x="416.47" y="185.37" width="4.44" height="9.98"/><path class="cls-1" d="M396.34,113.15a6.92,6.92,0,1,1,6.92-6.92A6.94,6.94,0,0,1,396.34,113.15Zm0-13a6.08,6.08,0,1,0,6.08,6.08A6.09,6.09,0,0,0,396.34,100.15Z"/></svg>