<svg xmlns:dc="http://purl.org/dc/elements/1.1/" xmlns:cc="http://creativecommons.org/ns#" xmlns:rdf="http://www.w3.org/1999/02/22-rdf-syntax-ns#" xmlns:svg="http://www.w3.org/2000/svg" xmlns="http://www.w3.org/2000/svg" xmlns:sodipodi="http://sodipodi.sourceforge.net/DTD/sodipodi-0.dtd" xmlns:inkscape="http://www.inkscape.org/namespaces/inkscape" viewBox="0 0 100 125" version="1.1" x="0px" y="0px"><g transform="translate(0,-952.36216)"><g style="" transform="matrix(-1,0,0,1,2792.5296,-82.97856)" fill="#000000" stroke="none"><path style="color:#000000;font-style:normal;font-variant:normal;font-weight:normal;font-stretch:normal;font-size:medium;line-height:normal;font-family:sans-serif;text-indent:0;text-align:start;text-decoration:none;text-decoration-line:none;text-decoration-style:solid;text-decoration-color:#000000;letter-spacing:normal;word-spacing:normal;text-transform:none;direction:ltr;block-progression:tb;writing-mode:lr-tb;baseline-shift:baseline;text-anchor:start;white-space:normal;clip-rule:nonzero;display:inline;overflow:visible;visibility:visible;opacity:1;isolation:auto;mix-blend-mode:normal;color-interpolation:sRGB;color-interpolation-filters:linearRGB;solid-color:#000000;solid-opacity:1;fill:#000000;fill-opacity:1;fill-rule:evenodd;stroke:none;stroke-width:2;stroke-linecap:butt;stroke-linejoin:miter;stroke-miterlimit:4;stroke-dasharray:none;stroke-dashoffset:0;stroke-opacity:1;color-rendering:auto;image-rendering:auto;shape-rendering:auto;text-rendering:auto;enable-background:accumulate" d="m 2727.5,341.39648 0,5 -4.875,0 0,5.125 -5,0 0,82 62,0 0,-5.125 5,0 0,-5 4.875,0 0,-66.41406 -15.5859,-15.58594 -46.4141,0 z m 2,2 43,0 0,6.46094 -3.4609,-3.46094 -39.5391,0 0,-3 z m 45,1.41407 11.584,11.58593 -7.0449,0 -4.5391,-4.53906 0,-7.04687 z m -49.875,3.58593 43,0 0,6.71094 -3.5859,-3.58594 -39.4141,0 0,-3.125 z m 45,1.41407 11.584,11.58593 -7.2949,0 -4.2891,-4.28906 0,-7.29687 z m -5,5.125 11.584,11.58593 -11.584,0 0,-11.58593 z m 16.4141,3.46093 6.4609,0 0,63 -2.875,0 0,-59.41406 -3.5859,-3.58594 z m -5.125,5 6.7109,0 0,63 -3,0 0,-59.28906 -3.7109,-3.71094 z m -27.2852,12.16016 11.334,5.66992 0,14.16016 -11.334,5.66992 -11.3359,-5.66992 0,-14.16016 11.3359,-5.66992 z m 0,2.23633 -9.3359,4.66992 0,11.68945 9.3359,4.66797 9.334,-4.66797 0,-11.68945 -9.334,-4.66992 z m 0,2.93359 3.582,1.79297 0,3.82031 c -1.1938,0.598 -2.3869,1.19747 -3.582,1.79297 l -3.584,-1.79297 0,-3.82031 3.584,-1.79297 z m 0,2.23633 -1.584,0.79297 0,1.34961 1.584,0.79101 1.582,-0.79101 0,-1.34961 -1.582,-0.79297 z m -6.168,5.34375 2,0 0,3.25977 4.168,2.08398 4.166,-2.08398 0,-3.25977 2,0 0,4.49609 -6.166,3.08399 -6.168,-3.08399 0,-4.49609 z m -9.6718,18.52734 31.6777,0 0,1.99805 -31.6777,0 0,-1.7793 0,-0.21875 z m 0,7.8125 31.6777,0 0,1.99805 -31.6777,0 0,-1.7793 0,-0.21875 z m 0,7.81055 31.6777,0 0,1.99805 -31.6777,0 0,-1.7793 0,-0.21875 z" transform="translate(-11.032959,697.88174)"/></g></g><text x="0" y="115" fill="#000000" font-size="5px" font-weight="bold" font-family="'Helvetica Neue', Helvetica, Arial-Unicode, Arial, Sans-serif">Created by P Thanga Vignesh</text><text x="0" y="120" fill="#000000" font-size="5px" font-weight="bold" font-family="'Helvetica Neue', Helvetica, Arial-Unicode, Arial, Sans-serif">from the Noun Project</text></svg>