<svg xmlns="http://www.w3.org/2000/svg" xmlns:xlink="http://www.w3.org/1999/xlink" xml:space="preserve" version="1.1" style="shape-rendering:geometricPrecision;text-rendering:geometricPrecision;image-rendering:optimizeQuality;" viewBox="0 0 888.89 1111.1125" x="0px" y="0px" fill-rule="evenodd" clip-rule="evenodd"><defs><style type="text/css">
   
    .fil0 {fill:black;fill-rule:nonzero}
   
  </style></defs><g><path class="fil0" d="M851.29 840.83l-813.69 0c-11.5,0 -20.83,-9.33 -20.83,-20.83l0 -751.11c0,-11.5 9.33,-20.83 20.83,-20.83l813.69 0c11.5,0 20.83,9.33 20.83,20.83l0 751.11c0,11.5 -9.33,20.83 -20.83,20.83zm-481.5 -660.28c0,-11.5 9.33,-20.83 20.83,-20.83 11.5,0 20.83,9.33 20.83,20.83l0 527.78c0,11.5 -9.33,20.83 -20.83,20.83 -11.5,0 -20.83,-9.33 -20.83,-20.83l0 -527.78zm-218.76 131.96c-11.5,0 -20.83,-9.33 -20.83,-20.83 0,-11.5 9.33,-20.83 20.83,-20.83l138.89 0c11.5,0 20.83,9.33 20.83,20.83 0,11.5 -9.33,20.83 -20.83,20.83l-138.89 0zm0 305.56c-11.5,0 -20.83,-9.33 -20.83,-20.83 0,-11.5 9.33,-20.83 20.83,-20.83l138.89 0c11.5,0 20.83,9.33 20.83,20.83 0,11.5 -9.33,20.83 -20.83,20.83l-138.89 0zm0 -101.85c-11.5,0 -20.83,-9.33 -20.83,-20.83 0,-11.5 9.33,-20.83 20.83,-20.83l138.89 0c11.5,0 20.83,9.33 20.83,20.83 0,11.5 -9.33,20.83 -20.83,20.83l-138.89 0zm0 -101.85c-11.5,0 -20.83,-9.33 -20.83,-20.83 0,-11.5 9.33,-20.83 20.83,-20.83l138.89 0c11.5,0 20.83,9.33 20.83,20.83 0,11.5 -9.33,20.83 -20.83,20.83l-138.89 0zm309.03 -143.52c-11.5,0 -20.83,-9.33 -20.83,-20.83 0,-11.5 9.33,-20.83 20.83,-20.83l138.89 0c11.5,0 20.83,9.33 20.83,20.83 0,11.5 -9.33,20.83 -20.83,20.83l-138.89 0zm83.33 194.45c-11.5,0 -20.83,-9.33 -20.83,-20.83 0,-11.5 9.33,-20.83 20.83,-20.83l194.45 0c11.5,0 20.83,9.33 20.83,20.83 0,11.5 -9.33,20.83 -20.83,20.83l-194.45 0zm-27.78 97.22c-11.5,0 -20.83,-9.33 -20.83,-20.83 0,-11.5 9.33,-20.83 20.83,-20.83l138.89 0c11.5,0 20.83,9.33 20.83,20.83 0,11.5 -9.33,20.83 -20.83,20.83l-138.89 0zm-55.55 97.22c-11.5,0 -20.83,-9.33 -20.83,-20.83 0,-11.5 9.33,-20.83 20.83,-20.83l138.89 0c11.5,0 20.83,9.33 20.83,20.83 0,11.5 -9.33,20.83 -20.83,20.83l-138.89 0zm55.55 -291.66c-11.5,0 -20.83,-9.33 -20.83,-20.83 0,-11.5 9.33,-20.83 20.83,-20.83l138.89 0c11.5,0 20.83,9.33 20.83,20.83 0,11.5 -9.33,20.83 -20.83,20.83l-138.89 0zm-457.19 431.09l772.02 0 0 -709.44 -772.02 0 0 709.44z"/></g><text x="0" y="903.89" fill="#000000" font-size="5px" font-weight="bold" font-family="'Helvetica Neue', Helvetica, Arial-Unicode, Arial, Sans-serif">Created by popcornarts</text><text x="0" y="908.89" fill="#000000" font-size="5px" font-weight="bold" font-family="'Helvetica Neue', Helvetica, Arial-Unicode, Arial, Sans-serif">from the Noun Project</text></svg>