<svg xmlns:dc="http://purl.org/dc/elements/1.1/" xmlns:cc="http://creativecommons.org/ns#" xmlns:rdf="http://www.w3.org/1999/02/22-rdf-syntax-ns#" xmlns:svg="http://www.w3.org/2000/svg" xmlns="http://www.w3.org/2000/svg" version="1.1" viewBox="0 0 16.933333 21.166665000000002" x="0px" y="0px"><g style="" transform="translate(0,-67.733334)" display="inline"><path transform="matrix(0.26458333,0,0,0.26458333,0,67.733334)" d="M 20.501953 7.9980469 L 20.501953 11.001953 L 8.5 11.001953 L 8.5 11.998047 L 8.5 20.998047 L 8.5 22.998047 L 8.5 41.001953 L 8.5 43.001953 L 8.5 52.998047 L 20.501953 52.998047 L 20.501953 56.001953 L 43.503906 56.001953 L 43.503906 52.998047 L 55.5 52.998047 L 55.5 11.001953 L 43.503906 11.001953 L 43.503906 7.9980469 L 42.5 7.9980469 L 20.501953 7.9980469 z M 22.503906 9.9980469 L 41.503906 9.9980469 L 41.503906 11.001953 L 22.503906 11.001953 L 22.503906 9.9980469 z M 10.5 13.001953 L 20.501953 13.001953 L 20.501953 20.998047 L 10.5 20.998047 L 10.5 13.001953 z M 22.503906 13.001953 L 23.5 13.001953 L 23.5 20.998047 L 22.503906 20.998047 L 22.503906 13.001953 z M 25.5 13.001953 L 38.5 13.001953 L 38.5 20.998047 L 25.5 20.998047 L 25.5 13.001953 z M 40.5 13.001953 L 41.503906 13.001953 L 41.503906 20.998047 L 40.5 20.998047 L 40.5 13.001953 z M 43.503906 13.001953 L 53.5 13.001953 L 53.5 20.998047 L 43.503906 20.998047 L 43.503906 13.001953 z M 10.5 22.998047 L 20.501953 22.998047 L 20.501953 31 L 10.5 31 L 10.5 22.998047 z M 22.503906 22.998047 L 23.5 22.998047 L 23.5 31 L 22.503906 31 L 22.503906 22.998047 z M 25.5 22.998047 L 38.5 22.998047 L 38.5 31 L 25.5 31 L 25.5 22.998047 z M 40.5 22.998047 L 41.503906 22.998047 L 41.503906 31 L 40.5 31 L 40.5 22.998047 z M 43.503906 22.998047 L 53.5 22.998047 L 53.5 31 L 43.503906 31 L 43.503906 22.998047 z M 10.5 33 L 20.501953 33 L 20.501953 41.001953 L 10.5 41.001953 L 10.5 33 z M 22.503906 33 L 23.5 33 L 23.5 41.001953 L 22.503906 41.001953 L 22.503906 33 z M 25.5 33 L 38.5 33 L 38.5 41.001953 L 25.5 41.001953 L 25.5 33 z M 40.5 33 L 41.503906 33 L 41.503906 41.001953 L 40.5 41.001953 L 40.5 33 z M 43.503906 33 L 53.5 33 L 53.5 41.001953 L 43.503906 41.001953 L 43.503906 33 z M 10.5 43.001953 L 20.501953 43.001953 L 20.501953 50.998047 L 10.5 50.998047 L 10.5 43.001953 z M 22.503906 43.001953 L 23.5 43.001953 L 23.5 50.998047 L 22.503906 50.998047 L 22.503906 43.001953 z M 25.5 43.001953 L 38.5 43.001953 L 38.5 50.998047 L 25.5 50.998047 L 25.5 43.001953 z M 40.5 43.001953 L 41.503906 43.001953 L 41.503906 50.998047 L 40.5 50.998047 L 40.5 43.001953 z M 43.503906 43.001953 L 53.5 43.001953 L 53.5 50.998047 L 43.503906 50.998047 L 43.503906 43.001953 z M 22.503906 52.998047 L 23.5 52.998047 L 25.5 52.998047 L 41.503906 52.998047 L 41.503906 54.001953 L 22.503906 54.001953 L 22.503906 52.998047 z " style="color:#000000;font-style:normal;font-variant:normal;font-weight:normal;font-stretch:normal;font-size:medium;line-height:normal;font-family:sans-serif;font-variant-ligatures:normal;font-variant-position:normal;font-variant-caps:normal;font-variant-numeric:normal;font-variant-alternates:normal;font-feature-settings:normal;text-indent:0;text-align:start;text-decoration:none;text-decoration-line:none;text-decoration-style:solid;text-decoration-color:#000000;letter-spacing:normal;word-spacing:normal;text-transform:none;writing-mode:lr-tb;direction:ltr;text-orientation:mixed;dominant-baseline:auto;baseline-shift:baseline;text-anchor:start;white-space:normal;shape-padding:0;clip-rule:nonzero;display:inline;overflow:visible;visibility:visible;opacity:1;isolation:auto;mix-blend-mode:normal;color-interpolation:sRGB;color-interpolation-filters:linearRGB;solid-color:#000000;solid-opacity:1;vector-effect:none;fill:#000000;fill-opacity:1;fill-rule:evenodd;stroke:none;stroke-width:2.00000024;stroke-linecap:square;stroke-linejoin:miter;stroke-miterlimit:4;stroke-dasharray:none;stroke-dashoffset:2.40075636;stroke-opacity:1;paint-order:fill markers stroke;color-rendering:auto;image-rendering:auto;shape-rendering:auto;text-rendering:auto;enable-background:accumulate"/></g><text x="0" y="31.933332" fill="#000000" font-size="5px" font-weight="bold" font-family="'Helvetica Neue', Helvetica, Arial-Unicode, Arial, Sans-serif">Created by Warunk Icon</text><text x="0" y="36.933332" fill="#000000" font-size="5px" font-weight="bold" font-family="'Helvetica Neue', Helvetica, Arial-Unicode, Arial, Sans-serif">from the Noun Project</text></svg>