<?xml version="1.0" encoding="utf-8"?>
<!-- Generator: Adobe Illustrator 25.4.1, SVG Export Plug-In . SVG Version: 6.00 Build 0)  -->
<svg version="1.1" id="Layer_1" xmlns="http://www.w3.org/2000/svg" xmlns:xlink="http://www.w3.org/1999/xlink" x="0px" y="0px"
	 viewBox="0 0 96.8 57.5" style="enable-background:new 0 0 96.8 57.5;" xml:space="preserve">
<path d="M95.6,11.5h-9.3v-0.7V6.8c0-0.7-0.5-1.2-1.2-1.2H47.4L21.4,5v-2C21.4,1.4,20,0,18.3,0s-3.1,1.4-3.1,3.1v1.8L8.9,4.7
	c0,0,0,0,0,0C8.3,4.7,7.9,5,7.7,5.5l-2.1,5.4H1.8c-0.7,0-1.2,0.5-1.2,1.2v9.4c0,0.7,0.5,1.2,1.2,1.2h4.1C6,23,6.2,23.4,6.4,23.8
	c0.5,1.3,1.3,3.2,1.2,4.5c-0.1,1.6-0.9,2.5-2.3,4.2c-0.9,1-1.9,2.2-2.8,3.8c-1.7,3-2.3,5.2-2.3,5.3c-0.3,1.1-0.1,2.2,0.4,3.2
	c0.6,1,1.5,1.6,2.5,1.9l5.3,1.6c0.3,0.1,0.7,0.1,1,0.1c1.9,0,3.5-1.3,4-3.1L17,34.4l2.5,2.2c0.3,0.4,0.8,0.6,1.3,0.6h7.6
	c2.8,0,4.1-2,4.5-3.1l2.5-7.1H38c1,7.1,3.7,17.2,10.5,29.3c0.4,0.7,1.2,1.1,1.9,1.1c0.4,0,0.7-0.1,1.1-0.3l5.7-3.3
	c0.5-0.3,0.9-0.8,1-1.3c0.2-0.6,0.1-1.2-0.2-1.7c-7.8-13.7-9.3-24.4-9.6-29.5c0-0.1,0.1-0.2,0.1-0.3V18h2.5v1.4
	c0,0.7,0.5,1.2,1.2,1.2h32.8c0.7,0,1.2-0.5,1.2-1.2v-2.6v-1.1h9.3c0.7,0,1.2-0.5,1.2-1.2v-1.8C96.8,12,96.3,11.5,95.6,11.5z
	 M29.6,33.1c-0.1,0.3-0.4,0.7-1.2,0.7h-6.9l-3.3-3l1.2-3.7c0,0,0-0.1,0-0.1c0,0,0,0,0,0h2.7c0,1.5,0.3,3.5,1.8,5.4
	c0.3,0.3,0.7,0.5,1,0.5c0.3,0,0.6-0.1,0.9-0.3c0.6-0.5,0.6-1.3,0.2-1.9c-1-1.2-1.2-2.6-1.2-3.6h6.8L29.6,33.1z"/>
</svg>
