<svg xmlns="http://www.w3.org/2000/svg" xmlns:xlink="http://www.w3.org/1999/xlink" version="1.1" x="0px" y="0px" viewBox="0 0 60 75" style="enable-background:new 0 0 60 60;" xml:space="preserve"><g><g><path d="M1.002,7h1.586l2.414,2.414V11c0,0.552,0.448,1,1,1s1-0.448,1-1V9.414L9.417,7h1.585c0.552,0,1-0.448,1-1s-0.448-1-1-1    H9.417L7.002,2.586V1c0-0.552-0.448-1-1-1s-1,0.448-1,1v1.586L2.588,5H1.002c-0.552,0-1,0.448-1,1S0.45,7,1.002,7z"/><path d="M56.002,46c-0.282,0-0.557,0.031-0.822,0.087h-0.001c-0.272,0.057-0.533,0.145-0.783,0.255    c-0.918-0.862-2.115-1.343-3.394-1.343c-2.757,0-5,2.243-5,5c-0.243,0-0.479,0.029-0.71,0.072    c-0.076,0.014-0.149,0.032-0.223,0.05c-0.156,0.038-0.309,0.086-0.458,0.142c-0.077,0.029-0.155,0.053-0.23,0.087    c-0.185,0.083-0.362,0.179-0.531,0.288c-0.099,0.064-0.19,0.138-0.283,0.21c-0.076,0.059-0.15,0.119-0.222,0.183    c-0.1,0.089-0.194,0.181-0.285,0.279c-0.043,0.048-0.082,0.099-0.123,0.149c-0.188,0.226-0.35,0.469-0.484,0.733    c-0.012,0.024-0.028,0.045-0.04,0.069c-0.487-0.187-1.01-0.279-1.538-0.259C40.43,50.277,38.861,49,37,49    c-1.137,0-2.751-2.697-2.972-7H37c0.552,0,1-0.448,1-1V29.26c0-1.724-0.671-3.345-1.891-4.565L34,22.586V7c0-3.991-1.72-7-4-7    s-4,3.009-4,7v15.586l-2.109,2.109C22.672,25.915,22,27.536,22,29.26V41c0,0.552,0.448,1,1,1h2.973c-0.222,4.303-1.835,7-2.973,7    c-1.861,0-3.43,1.278-3.874,3.002c-0.528-0.021-1.051,0.072-1.538,0.259c-0.012-0.024-0.027-0.045-0.04-0.069    c-0.135-0.263-0.297-0.507-0.484-0.733c-0.041-0.05-0.079-0.101-0.123-0.149c-0.09-0.099-0.185-0.19-0.285-0.279    c-0.071-0.064-0.146-0.124-0.222-0.183c-0.093-0.072-0.184-0.146-0.283-0.21c-0.168-0.109-0.346-0.205-0.53-0.288    c-0.075-0.033-0.153-0.058-0.23-0.087c-0.149-0.056-0.301-0.104-0.458-0.142c-0.074-0.018-0.147-0.036-0.223-0.05    c-0.232-0.042-0.467-0.072-0.71-0.072c0-2.757-2.243-5-5-5c-1.279,0-2.476,0.481-3.394,1.343c-0.249-0.11-0.51-0.198-0.783-0.255    c0,0,0,0-0.001,0C4.555,46.031,4.281,46,3.998,46c-2.206,0-4,1.794-4,4c0,1.2,0.542,2.266,1.382,3c-0.84,0.734-1.382,1.8-1.382,3    c0,2.206,1.794,4,4,4h52c2.206,0,4-1.794,4-4c0-1.2-0.542-2.266-1.382-3c0.84-0.734,1.382-1.8,1.382-3    C60.002,47.794,58.207,46,56.002,46z M28.002,23V8h4v15v17h-4V23z M28.002,55c-0.552,0-1-0.448-1-1c0-0.551-0.448-1-1-1    s-1-0.448-1-1s0.448-1,1-1c1.654,0,3,1.346,3,3C29.002,54.552,28.554,55,28.002,55z M35.002,54c-0.551,0-1,0.449-1,1    c0,0.552-0.448,1-1,1s-1-0.448-1-1c0-1.654,1.346-3,3-3c0.552,0,1,0.448,1,1S35.554,54,35.002,54z"/><path d="M49.002,30c2.206,0,4,1.794,4,4c0,0.552,0.448,1,1,1s1-0.448,1-1c0-2.206,1.794-4,4-4c0.552,0,1-0.448,1-1s-0.448-1-1-1    c-2.206,0-4-1.794-4-4c0-0.552-0.448-1-1-1s-1,0.448-1,1c0,2.206-1.794,4-4,4c-0.552,0-1,0.448-1,1S48.45,30,49.002,30z"/></g></g><text x="0" y="75" fill="#000000" font-size="5px" font-weight="bold" font-family="'Helvetica Neue', Helvetica, Arial-Unicode, Arial, Sans-serif">Created by Prettycons</text><text x="0" y="80" fill="#000000" font-size="5px" font-weight="bold" font-family="'Helvetica Neue', Helvetica, Arial-Unicode, Arial, Sans-serif">from the Noun Project</text></svg>