<?xml version="1.0" encoding="utf-8"?>
<!-- Generator: Adobe Illustrator 25.0.1, SVG Export Plug-In . SVG Version: 6.00 Build 0)  -->
<svg version="1.1" id="Layer_1" xmlns="http://www.w3.org/2000/svg" xmlns:xlink="http://www.w3.org/1999/xlink" x="0px" y="0px"
	 viewBox="0 0 93 75.4" style="enable-background:new 0 0 93 75.4;" xml:space="preserve">
<g>
	<path d="M91.5,56.8h-2.2L88,51c-1.2-5.6-5.6-10-11.2-11.2l-22.2-5c-4.8-1.2-8.6-4.9-9.8-9.7l-1.6-6.2c0,0,0,0,0,0c0,0,0,0,0,0
		L38.5,1.6c-0.2-0.7-0.8-1.1-1.4-1.1h-9.7c-3.7,0-7.4,1-10.7,2.8L6.5,9.1c0.6-2.7,1-6.1-0.3-7.8C5.4,0.2,4.1-0.2,2.5,0.1
		C1.5,0.4,0.8,1,0.4,1.9C-1,5,1.9,11.2,2.7,12.7c0.6,2.4,7.7,32.5,0.1,46.8c0,0,0,0,0,0c0,0.1-0.1,0.2-0.1,0.2c0,0,0,0.1,0,0.1
		c0,0.1,0,0.2,0,0.3c0,0,0,0,0,0v8.9c0,3.4,2.8,6.2,6.2,6.2h2.6h4.9h6.5h4.9h5.5c1.4,0,2.7-0.9,3.2-2.3l1.3-3.5l15.3,1.7l0.5,2.1
		c0.3,1.1,1.2,1.9,2.4,1.9h7.9h4.9h3.3c2.3,0,4.6-0.4,6.8-1.1l11.5-3.9c1.5-0.5,2.5-1.9,2.5-3.4v-8.5C93,57.5,92.3,56.8,91.5,56.8z
		 M65.7,40.3l-4,3.8l-0.9-4.9L65.7,40.3z M55.6,38l-4.5,3.7l0.2-5c0.8,0.4,1.7,0.7,2.6,0.9L55.6,38z M46.6,33.7l-6.1,1.7l3.5-4.8
		C44.7,31.7,45.6,32.8,46.6,33.7z M39.6,17.5l-5.9-0.8l4.6-3.9L39.6,17.5z M41.8,25.8c0,0.1,0.1,0.2,0.1,0.3l-6-0.4l4.8-3.9
		L41.8,25.8z M3.1,3.2c0-0.1,0-0.1,0.1-0.1C3.4,3,3.5,3,3.6,3c0.1,0,0.1,0,0.1,0c0.4,0.3,0.4,2.2,0,4.5C3.1,5.6,2.8,3.9,3.1,3.2z
		 M5.8,13l12.4-7c2.8-1.6,6-2.4,9.2-2.4h8.5l1.6,6l-8.2,7c-0.4,0.4-0.6,1-0.5,1.6c0.2,0.6,0.6,1,1.2,1.1l8,1.2l-6.9,5.6
		c-0.5,0.4-0.7,1-0.5,1.6c0.2,0.6,0.7,1,1.3,1l9.4,0.6l-5.8,7.9c-0.4,0.5-0.4,1.2,0,1.7s1,0.8,1.6,0.6l11.2-3.1L48,45
		c0,0.6,0.3,1.1,0.8,1.4c0.5,0.3,1.2,0.2,1.6-0.2l7.4-6.1l1.3,7.3c0.1,0.5,0.5,1,1,1.2c0.2,0.1,0.3,0.1,0.5,0.1c0.4,0,0.7-0.1,1-0.4
		l7.5-7.1l6.9,1.5c4.4,1,8,4.5,8.9,9l1.2,5.6l-18.4,4.4l-8-3.5C59.6,58,59.3,57.9,59,58l-10.7,2.1l-12-1.9l-4.6-13
		c-0.1-0.3-0.4-0.6-0.7-0.8l-13.8-7.8c-0.3-0.2-0.7-0.2-1.1-0.1l-6.8,1.8C8.9,27.1,6.6,16.4,5.8,13z M9.3,41.4l6.9-1.8L29,46.8
		l3.9,10.9l-12.6-2c-0.2,0-0.3,0-0.5,0L6.6,58.3C8.5,53.3,9.2,47.4,9.3,41.4z M13.3,72.4l0.4-1.9h0.5l0.4,1.9H13.3z M24.7,72.4
		l0.4-1.9h0.5l0.4,1.9H24.7z M65.8,72.4l0.4-1.9h0.5l0.4,1.9H65.8z M80.8,70.5l0.4-2.4l0.5,0l0.4,2L80.8,70.5z M90,66.8
		c0,0.3-0.2,0.5-0.4,0.6L84.9,69l-0.6-2.9c-0.1-0.7-0.8-1.2-1.6-1.2l-3,0.2c-0.7,0-1.3,0.6-1.4,1.3l-0.8,5.1
		c-1.7,0.5-3.5,0.8-5.4,0.8h-2.1l-0.7-3.7c-0.1-0.7-0.8-1.2-1.5-1.2h-3c-0.7,0-1.3,0.5-1.5,1.2l-0.7,3.7h-6.3l-0.6-2.7
		c-0.1-0.6-0.7-1.1-1.3-1.2L37,66.5c-0.7-0.1-1.3,0.3-1.6,1l-1.7,4.6c-0.1,0.2-0.2,0.3-0.4,0.3h-4.3l-0.7-3.7
		c-0.1-0.7-0.8-1.2-1.5-1.2h-3c-0.7,0-1.3,0.5-1.5,1.2l-0.7,3.7h-4l-0.7-3.7c-0.1-0.7-0.8-1.2-1.5-1.2h-3c-0.7,0-1.3,0.5-1.5,1.2
		l-0.7,3.7H8.8c-1.8,0-3.2-1.4-3.2-3.2v-7.6l14.6-2.8l27.9,4.4c0.2,0,0.4,0,0.5,0L59.1,61l8.1,3.5c0.2,0.1,0.4,0.1,0.6,0.1
		c0.1,0,0.2,0,0.3,0l20.1-4.8H90V66.8z"/>
</g>
</svg>
