<?xml version="1.0" encoding="utf-8"?>
<!-- Generator: Adobe Illustrator 25.0.1, SVG Export Plug-In . SVG Version: 6.00 Build 0)  -->
<svg version="1.1" id="Layer_1" xmlns="http://www.w3.org/2000/svg" xmlns:xlink="http://www.w3.org/1999/xlink" x="0px" y="0px"
	 viewBox="0 0 60.2 93" style="enable-background:new 0 0 60.2 93;" xml:space="preserve">
<g>
	<path d="M15.5,66.2c0.2,0,0.3,0.1,0.5,0.1c0,0,0,0,0,0c0.8,0,1.5-0.7,1.5-1.5c0-0.3-0.1-0.7-0.3-0.9c-1.8-3.2-2.4-6-1.8-7.9
		c0.2-0.7,0.5-1.2,1-1.7c1.2,3.3,2.9,4.9,5.2,4.9c2.5,0,4.7-2,6.1-3.7c3.1-3.6,3.9-8.8,3.8-12.7c1.6,1.5,2.6,3.1,3,4.7
		c0.3,1.3,0.1,2.5-0.6,3.6c-1.5,2.2-2,4.3-1.5,6c0.3,1.1,1.1,2,2.1,2.5c0.6,0.3,1.2,0.4,2,0.4c1.8,0,4.4-0.9,6.1-3.5
		c1-1.6,1.9-4.2,1.1-8c1,1.2,1.7,2.4,1.9,3.7c0.8,4.5-3,9.1-4.6,11l-0.2,0.2c-0.4,0.5-0.4,1.1-0.2,1.6c0.3,0.5,0.8,0.9,1.4,0.8
		c11.5-0.2,16.7-16.4,16.7-22.5c0-11.4-8.6-24-17.3-25.4c-0.7-0.1-1.4,0.3-1.6,0.9c-0.3,0.7,0,1.4,0.5,1.8c1.7,1.2,3,5.7,2,9.3
		c-0.6,2.1-1.7,3.2-3.4,3.4c-0.2,0-0.3,0-0.5,0c-1.2,0-2.9-0.3-4.1-1.6c-1.4-1.5-2-4-1.8-7.5c0.2-2.9,1-5,1.7-7
		c1.7-4.5,3.2-8.4-3.7-16.8c-0.4-0.5-1.1-0.7-1.7-0.5c-0.6,0.2-1,0.8-1,1.4c-0.1,7.6-1.7,9.1-4.1,11.4c-1.6,1.5-3.6,3.4-5.6,7.3
		c-2.3,4.6-3.3,12.3,0.4,20.7c-2.1-0.6-4-1.9-5.2-3.7c-1.8-2.7-1.9-6.3-0.2-10.3c0.3-0.6,0.1-1.3-0.4-1.8c-0.5-0.4-1.3-0.4-1.8,0
		c-7.1,5.1-10.5,14-9.1,23.3C3.2,57.1,8.4,64,15.5,66.2z M9,31.1c-0.3,2.9,0.3,5.6,1.8,7.9c2.2,3.3,6.1,5.4,10.2,5.4
		c0.5,0,1-0.3,1.3-0.7c0.3-0.5,0.3-1,0-1.5c-4.6-8.5-3.8-16.1-1.6-20.5c1.8-3.5,3.5-5.1,5-6.5c2.5-2.3,4.2-4.2,4.8-9.3
		c3,4.7,2.1,7.2,0.8,10.6c-0.8,2.1-1.7,4.6-1.9,7.9c-0.3,4.3,0.6,7.6,2.6,9.7c2,2.1,4.5,2.5,6.3,2.5c0.2,0,0.5,0,0.7,0
		c3-0.2,5.2-2.2,6.1-5.6c0.7-2.4,0.6-5.6-0.3-8.2c5.5,3.5,10.8,12.1,10.8,20.8c0,4.9-3.4,15.5-10,18.6c1.8-2.7,3.6-6.4,2.9-10.4
		c-0.6-3.4-3-6.4-7.1-8.7c-0.2-0.1-0.5-0.2-0.8-0.2c-0.4,0-0.7,0.1-1,0.4c-0.5,0.4-0.6,1.1-0.4,1.7c1.9,4.2,2.1,7.7,0.7,10
		c-1,1.5-2.5,2.2-3.6,2.2c-0.4,0-0.6-0.1-0.7-0.1c-0.3-0.1-0.4-0.3-0.5-0.6c-0.2-0.8,0.2-2.2,1.1-3.6c1.1-1.7,1.5-3.8,1-5.9
		c-0.7-3.2-3.3-6.3-7.3-8.7c-0.6-0.3-1.3-0.3-1.8,0.2c-0.5,0.4-0.6,1.1-0.4,1.7c1.1,2.4,0.9,9.6-2.5,13.6c-1.4,1.6-2.8,2.6-3.8,2.6
		c-1.6,0-2.5-2.9-2.9-4.7c-0.1-0.4-0.4-0.8-0.8-1c-0.4-0.2-0.9-0.2-1.3,0c-2.1,1.1-3.5,2.6-4.1,4.6c-0.6,2.1-0.3,4.5,0.4,6.6
		C8.7,58.9,5.7,54,4.8,48C3.8,41.7,5.4,35.6,9,31.1z"/>
	<path d="M0.2,87.4l0.7,2.2c0.6,2,2.4,3.3,4.5,3.3c0.5,0,0.9-0.1,1.3-0.2l23.4-7l23.4,7c0.4,0.1,0.9,0.2,1.3,0.2
		c2,0,3.9-1.4,4.5-3.3l0.7-2.2c0.7-2.5-0.7-5.1-3.1-5.8l-6.3-1.9l6.3-1.9c2.5-0.7,3.9-3.3,3.1-5.8l-0.7-2.2c-0.6-2-2.4-3.3-4.5-3.3
		c-0.4,0-0.9,0.1-1.3,0.2l-23.4,7l-23.4-7c-0.4-0.1-0.9-0.2-1.3-0.2c-2,0-3.9,1.4-4.5,3.3l-0.7,2.2c-0.7,2.5,0.7,5.1,3.1,5.8
		l6.3,1.9l-6.3,1.9C0.9,82.4-0.5,85,0.2,87.4z M54.4,69.6c0.9-0.3,1.8,0.3,2.1,1.1l0.7,2.2c0.3,0.9-0.2,1.8-1.1,2.1l-10.7,3.2
		l-9.9-3L54.4,69.6z M3.1,72.9l0.7-2.2c0.2-0.7,0.9-1.2,1.6-1.2c0.2,0,0.3,0,0.5,0.1l23.9,7.1c0,0,0,0,0,0l15.2,4.5c0,0,0,0,0,0
		L56,84.5c0.9,0.3,1.4,1.2,1.1,2.1l-0.7,2.2c-0.3,0.9-1.2,1.4-2.1,1.1l-23.9-7.1l0,0l-1-0.3L4.2,75C3.3,74.7,2.8,73.8,3.1,72.9z
		 M4.2,84.5l10.7-3.2l6.7,2l3.2,0.9l-19,5.7C5.6,90,5.5,90,5.3,90c-0.7,0-1.4-0.5-1.6-1.2l-0.7-2.2C2.8,85.7,3.3,84.8,4.2,84.5z"/>
</g>
</svg>
