<?xml version="1.0" encoding="utf-8"?>
<!-- Generator: Adobe Illustrator 25.0.1, SVG Export Plug-In . SVG Version: 6.00 Build 0)  -->
<svg version="1.1" id="Layer_1" xmlns="http://www.w3.org/2000/svg" xmlns:xlink="http://www.w3.org/1999/xlink" x="0px" y="0px"
	 viewBox="0 0 77.2 93" style="enable-background:new 0 0 77.2 93;" xml:space="preserve">
<g>
	<path d="M44.9,16.4c1.9-1.7,3.1-4.2,3.1-6.9C48,4.2,43.8,0,38.6,0s-9.4,4.2-9.4,9.4c0,2.8,1.2,5.2,3.1,6.9C14,19.4,0,35.3,0,54.4
		C0,75.7,17.3,93,38.6,93s38.6-17.3,38.6-38.6C77.2,35.3,63.2,19.4,44.9,16.4z M32.2,9.4C32.2,5.9,35,3,38.6,3S45,5.9,45,9.4
		s-2.9,6.4-6.4,6.4S32.2,13,32.2,9.4z M38.6,90C19,90,3,74,3,54.4s16-35.6,35.6-35.6s35.6,16,35.6,35.6S58.2,90,38.6,90z"/>
	<path d="M38.6,24.9c-16.3,0-29.5,13.2-29.5,29.5c0,16.3,13.2,29.5,29.5,29.5s29.5-13.2,29.5-29.5C68.1,38.1,54.9,24.9,38.6,24.9z
		 M38.6,80.9C24,80.9,12.1,69,12.1,54.4S24,27.9,38.6,27.9s26.5,11.9,26.5,26.5S53.2,80.9,38.6,80.9z"/>
	<path d="M51.1,39.7l-16.6,10c0,0,0,0,0,0c-0.1,0-0.1,0.1-0.1,0.1c0,0-0.1,0.1-0.1,0.1c0,0-0.1,0.1-0.1,0.1c0,0-0.1,0.1-0.1,0.1
		c0,0,0,0,0,0L24,66.8c-0.4,0.6-0.3,1.3,0.2,1.8c0.3,0.3,0.7,0.4,1.1,0.4c0.3,0,0.5-0.1,0.8-0.2l16.6-10c0,0,0,0,0,0
		c0,0,0.1-0.1,0.1-0.1c0,0,0.1-0.1,0.1-0.1c0,0,0.1-0.1,0.1-0.1c0,0,0.1-0.1,0.1-0.1c0,0,0,0,0,0l10-16.6c0.4-0.6,0.3-1.3-0.2-1.8
		C52.5,39.4,51.7,39.3,51.1,39.7z M29.6,63.2l5.9-9.8l0.6,0.6l3.4,3.4L29.6,63.2z M41.6,55.2l-2-2l-2-2l9.8-5.9L41.6,55.2z"/>
	<path d="M38.6,37.7c0.8,0,1.5-0.7,1.5-1.5v-4.4c0-0.8-0.7-1.5-1.5-1.5s-1.5,0.7-1.5,1.5v4.4C37.1,37.1,37.8,37.7,38.6,37.7z"/>
	<path d="M38.6,70.7c-0.8,0-1.5,0.7-1.5,1.5v4.4c0,0.8,0.7,1.5,1.5,1.5s1.5-0.7,1.5-1.5v-4.4C40.1,71.4,39.4,70.7,38.6,70.7z"/>
	<path d="M55.1,54.2c0,0.8,0.7,1.5,1.5,1.5h4.4c0.8,0,1.5-0.7,1.5-1.5s-0.7-1.5-1.5-1.5h-4.4C55.7,52.7,55.1,53.4,55.1,54.2z"/>
	<path d="M20.6,52.7h-4.4c-0.8,0-1.5,0.7-1.5,1.5s0.7,1.5,1.5,1.5h4.4c0.8,0,1.5-0.7,1.5-1.5S21.4,52.7,20.6,52.7z"/>
</g>
</svg>
