<?xml version="1.0" encoding="utf-8"?>
<!-- Generator: Adobe Illustrator 25.0.1, SVG Export Plug-In . SVG Version: 6.00 Build 0)  -->
<svg version="1.1" id="Layer_1" xmlns="http://www.w3.org/2000/svg" xmlns:xlink="http://www.w3.org/1999/xlink" x="0px" y="0px"
	 viewBox="0 0 72.7 93" style="enable-background:new 0 0 72.7 93;" xml:space="preserve">
<g>
	<path d="M4.5,84.6h4.2v2.9c0,3,2.5,5.5,5.5,5.5h44.3c3,0,5.5-2.5,5.5-5.5v-2.9h4.2c2.5,0,4.5-2,4.5-4.5V62.4c0-2.5-2-4.5-4.5-4.5
		H64V39.5c2.9-1.5,4.8-4.6,4.8-8.1V13.9c0-3-2.5-5.5-5.5-5.5H52.2h-5.2h-1.4V5.7C45.5,2.6,43,0,39.8,0h-8.2C28.5,0,26,2.6,26,5.7
		v2.7h-1.1h-5.2H9.3c-3,0-5.5,2.5-5.5,5.5v17.5c0,3.5,2,6.5,4.8,8.1v18.4H4.5c-2.5,0-4.5,2-4.5,4.5v17.7C0,82.5,2,84.6,4.5,84.6z
		 M68.2,60.9c0.8,0,1.5,0.7,1.5,1.5v17.7c0,0.8-0.7,1.5-1.5,1.5H64V60.9H68.2z M65.8,13.9v17.5c0,2.6-1.6,4.8-3.9,5.7
		c-0.4,0.1-0.7,0.2-1.1,0.3c0,0,0,0,0,0c-0.4,0.1-0.7,0.1-1.1,0.1h-6V11.4h9.7C64.7,11.4,65.8,12.5,65.8,13.9z M50.7,11.4v26.2h-2.2
		V11.4H50.7z M48.4,53.7h2.2v1.7c0,0.6-0.5,1.1-1.1,1.1s-1.1-0.5-1.1-1.1L48.4,53.7L48.4,53.7z M52.2,50.7h-5.2h-2.5v-1.9h2.5h5.2
		h2.5v1.9H52.2z M48.4,45.8v-5.2h2.2v5.2H48.4z M27.5,11.4H44h1.4v26.2h-19V11.4H27.5z M29,5.7C29,4.2,30.2,3,31.7,3h8.2
		c1.5,0,2.7,1.2,2.7,2.7v2.7H29V5.7z M23.4,11.4v26.2h-2.2V11.4H23.4z M21.1,53.7h2.2v1.7c0,0.6-0.5,1.1-1.1,1.1s-1.1-0.5-1.1-1.1
		L21.1,53.7L21.1,53.7z M24.9,50.7h-5.2h-2.5v-1.9h2.5h5.2h2.5v1.9H24.9z M21.1,45.8v-5.2h2.2v5.2H21.1z M6.8,31.5V13.9
		c0-1.4,1.1-2.5,2.5-2.5h8.8v26.2H13c-0.4,0-0.7,0-1.1-0.1c0,0,0,0,0,0c-0.4-0.1-0.7-0.2-1.1-0.3C8.5,36.3,6.8,34,6.8,31.5z
		 M13,40.6L13,40.6h5.2v5.2h-2.5c-0.8,0-1.5,0.7-1.5,1.5v4.9c0,0.8,0.7,1.5,1.5,1.5h2.5v1.7c0,2.3,1.8,4.1,4.1,4.1s4.1-1.8,4.1-4.1
		v-1.7h2.5c0.8,0,1.5-0.7,1.5-1.5v-4.9c0-0.8-0.7-1.5-1.5-1.5h-2.5v-5.2h19v5.2H43c-0.8,0-1.5,0.7-1.5,1.5v4.9
		c0,0.8,0.7,1.5,1.5,1.5h2.5v1.7c0,2.3,1.8,4.1,4.1,4.1s4.1-1.8,4.1-4.1v-1.7h2.5c0.8,0,1.5-0.7,1.5-1.5v-4.9c0-0.8-0.7-1.5-1.5-1.5
		h-2.5v-5.2h6c0.4,0,0.8,0,1.2-0.1c0,0,0.1,0,0.1,0v18.9v23.7v4.4c0,1.4-1.1,2.5-2.5,2.5H14.2c-1.4,0-2.5-1.1-2.5-2.5v-4.4V59.4
		V40.5c0,0,0.1,0,0.1,0C12.2,40.6,12.6,40.6,13,40.6z M3,62.4c0-0.8,0.7-1.5,1.5-1.5h4.2v20.7H4.5c-0.8,0-1.5-0.7-1.5-1.5V62.4z"/>
	<path d="M24.3,85.6h24.2c3.6,0,6.5-2.9,6.5-6.5V67.6c0-2.4-2-4.4-4.4-4.4H22.1c-2.4,0-4.4,2-4.4,4.4v11.4
		C17.8,82.6,20.7,85.6,24.3,85.6z M48.4,82.6H24.3c-1.9,0-3.5-1.6-3.5-3.5v-6.3H24V76c0,0.8,0.7,1.5,1.5,1.5S27,76.8,27,76v-3.3
		h24.9v6.3C51.9,81,50.3,82.6,48.4,82.6z M22.1,66.2h28.4c0.8,0,1.4,0.6,1.4,1.4v2.1H20.8v-2.1C20.8,66.8,21.4,66.2,22.1,66.2z"/>
</g>
</svg>
