<?xml version="1.0" encoding="utf-8"?>
<!-- Generator: Adobe Illustrator 25.0.1, SVG Export Plug-In . SVG Version: 6.00 Build 0)  -->
<svg version="1.1" id="Layer_1" xmlns="http://www.w3.org/2000/svg" xmlns:xlink="http://www.w3.org/1999/xlink" x="0px" y="0px"
	 viewBox="0 0 77 71" style="enable-background:new 0 0 77 71;" xml:space="preserve">
<path d="M75.5,6.1l-23.9-6c-0.3-0.1-0.6-0.1-1,0L25.9,5.9L2.5,0.1C1.9-0.1,1.3,0,0.8,0.4C0.3,0.8,0,1.4,0,2v61
	c0,0.9,0.6,1.7,1.5,1.9l23.9,6c0.3,0.1,0.6,0.1,1,0l24.7-5.9l23.5,5.9c0.2,0,0.3,0.1,0.5,0.1c0.4,0,0.9-0.1,1.2-0.4
	c0.5-0.4,0.8-1,0.8-1.6V8C77,7.1,76.4,6.3,75.5,6.1z M6.4,29.2c1.3-1.7,2.4-0.7,5.6-3.1c1.3-1,1.3-2.9,2.7-3.9s3.9,0.3,4.5-1.4
	c0.8-2.1-2.6-6.5-5.3-5.7c-1.4,0.4-3.9,2.5-5.1,2c-0.8-0.4-1.3-1.7-1.1-2.9c0.2-0.8,2-5.6,5.3-5c1.5,0.3,3.3,2.6,5.1,2.6
	c1.8,0.1,2.3-1,1.7-3.1c0-0.1-0.1-0.2-0.1-0.3l4.2,1V41c-1.5-0.6-3.7-0.6-4.5-1.1c-0.9-0.5-0.3-3-0.9-3.1C15,35.6,3.3,33.2,6.4,29.2
	z M28,9.6l7.6-1.8c-1.6,6.2,5.7,0.2,6.9-0.1c0.9-0.2,4.5,0,3,2.6c-1,1.8-2.5,3.5-6.4,4.6c-2,0.5-5.5,0.1-5.9,1.2
	c-0.5,1.1,1.4,3,0.2,3.7c-1.9,1.1-1.7,1.8-1.7,2.6c0,0.7,0.8,2.2,2.1,2.2c1.5,0,3.1-3.6,4.7-3.7c0.5,0,4.5,4.9,5.8,3.2
	c1.5-2-2.9-4.5-1.8-5.6c1.2-1.3,4.4,0,6.5,2.4v9.1c-0.9,0.9-2.1,1.7-3.7,2.6c-1.4,0.7-3.4-0.4-3.6-1.8s-0.1-1.3-1-1.6
	s-2.5,1-3.6,1.2c-1.1,0.2-1.5-0.1-2.2,0.5s-0.8,1.5-1.4,2.5c-0.6,0.9-1.9,1.7-2.3,2.9c-0.4,1.1-0.4,2.6,0,3.6
	c0.2,0.7,2.8,3.1,3.6,3.3c0.7,0.1,1.6-0.1,2.5-0.3c0.8-0.1,2.1-0.5,2.6-0.6c2.7-0.3,1.8,2.8,1.6,3.3c-0.3,1.2,0.9,3.2,1.9,3.8
	c0.9,0.6-1.1,1.2-0.9,2.9c0.1,1.7,1.1,5.6,2.6,6.9c1.5,1.3,2.2,0.5,3.4-0.4c0.3-0.2,0.5-0.4,0.7-0.7v3.7l-21,5V9.6z M4,35.4
	c2.2,1,4.2,1.6,4.8,2.9c0.7,1.5-0.4,2.7,0.2,4.4c0.6,1.7,3.1,1.7,3.7,4.6c0.6,2.9-0.6,9.1-0.3,11.6c0.2,2,2.9,5.8,3.7,4.5
	c0.3-0.4,0.2-6.4,2.2-9.5c0.9-1.5,3.9-4.4,5.7-7.1v19.8l-20-5V35.4z M53,61.4V51.3c1.9-3.2,4.3-7.6,2.6-9.5c-1.6-1.9-3-9.4,1.2-7.8
	c2.7,1,2.5,1.1,3.4,0.4c2.9-2.3,3.6-4,5.1-3.8c1.5,0.2,1.9,0.8,2.4,1.8c0.5,1,0.4,4,2.3,4.3c1.7,0.2,1.6-2.3,2.9-3.8v21.4
	c-0.3,0.3-0.7,0.6-1,0.8c-0.8,0.4-2.1,0.1-2.7,1.1c-0.6,1-1.7,4.6-0.2,5.4c0.7,0.4,2.6-0.5,3.8-1v5.9L53,61.4z"/>
</svg>
