<?xml version="1.0" encoding="UTF-8" standalone="no"?>
<!DOCTYPE svg PUBLIC "-//W3C//DTD SVG 1.1//EN" "http://www.w3.org/Graphics/SVG/1.1/DTD/svg11.dtd">
<svg width="100%" height="100%" viewBox="0 0 90 89" version="1.1" xmlns="http://www.w3.org/2000/svg" xmlns:xlink="http://www.w3.org/1999/xlink" xml:space="preserve" xmlns:serif="http://www.serif.com/" style="fill-rule:evenodd;clip-rule:evenodd;stroke-linejoin:round;stroke-miterlimit:2;">
    <g transform="matrix(1,0,0,1,-5.3144,-5.7)">
        <path d="M81.2,55.7L93,53.1C93,53.3 92.9,53.5 92.8,53.7C92.7,53.9 92.7,54.1 92.6,54.3C92.5,54.5 92.5,54.7 92.4,54.9C92.4,55 92.3,55.1 92.3,55.2C92.4,55.3 92.4,55.3 92.5,55.4C92.6,55.5 92.7,55.7 92.8,55.8C92.9,55.9 92.9,56.1 93,56.3C93.2,56.8 93.2,57.4 93.2,57.9L93.2,59.2L92.8,59.4C93.2,61.6 93.4,63.2 93.1,65.3C93.1,65.6 93,65.9 93,66.2C93,66.6 93,67 93.1,67.4C93.1,67.5 93.2,67.6 93.2,67.7C93.3,67.9 93.3,68.1 93.4,68.2C93.7,68.7 94.1,69.1 94.8,69.4C94.2,70.3 94.3,71.2 94.4,72.2L94.4,72.6C94.4,72.6 94.3,72.6 94.3,72.7C94.2,72.7 94.2,72.8 94.1,72.8C94,72.8 93.9,72.9 93.8,72.9C93.6,73 93.4,73.1 93.2,73.2C93.1,73.3 93,73.3 92.9,73.3L92.8,73.3L92.7,73.3L92.6,73.3L92.5,73.3L92.4,73.3L92.3,73.3L92.2,73.2L92.2,73.1L92.1,73.2L92.1,73.3L92,73.3C91.8,73.4 91.6,73.6 91.3,73.8L90.7,74.4C90,75 89.1,75.5 88.6,76.3C88.5,76.4 88.5,76.5 88.4,76.7C88.3,76.8 88.3,77 88.3,77.1L88.3,77.7C88.4,77.9 88.5,78.1 88.7,78.2C88.7,78.2 88.8,78.2 88.8,78.3C88.9,78.4 89.1,78.4 89.2,78.5C89.8,78.9 89.7,79.7 89.4,80.4C89.4,80.5 89.3,80.6 89.3,80.7C88.7,81.8 88.3,83 88,84.2C87.6,85.8 87.3,87.5 87.3,89.1L87.3,90.5C87.3,90.7 87.3,90.8 87.2,91C87.2,91.1 87.1,91.1 87.1,91.2C87,91.3 86.9,91.4 86.9,91.5C86.9,91.5 86.8,91.5 86.8,91.6C86.7,91.7 86.7,91.7 86.6,91.8C86.6,91.8 86.5,91.8 86.5,91.9C86.4,92 86.3,92 86.1,92.1C86,92.1 85.8,92.2 85.7,92.2L85.6,92.2L85.3,92.2L85.2,92.2L84.5,92.2L84.3,92.2C84.2,92.2 84,92.1 83.9,92.1L83.9,92C83.9,92 83.8,91.8 83.7,91.8C83.7,91.8 83.6,91.9 83.5,91.9L83.4,92L83.3,92L83.2,92L83.1,92L83,92L82.8,92L82.7,92L82.5,92L82.3,92L82.1,92L81.9,92L81.7,92L81.5,92L81.3,92L81.1,92L80.9,92L80.7,92L80.5,92L80.3,92L80.1,92L80,92L79.8,92L79.7,91.9C79.6,91.9 79.6,91.8 79.6,91.8L79.5,91.6C79.4,91.6 79.6,92.1 79.6,92.1C79.6,92 79.4,92 79.4,91.9C79.4,91.9 79.3,91.9 79.3,91.8C79.3,91.7 79.2,91.7 79.2,91.6C79.2,91.6 79.2,91.5 79.1,91.5C79.1,91.4 79,91.4 78.9,91.3C78.8,91.2 78.8,91.1 78.7,91L78.6,90.9C78.5,90.8 78.5,90.8 78.4,90.7L78.3,90.6C78.2,90.5 78.2,90.5 78.1,90.4L78,90.3C77.9,90.2 77.8,90.1 77.7,90.1L77.6,90.1C77.5,90 77.4,90 77.3,89.9C77.3,89.9 77.2,89.9 77.2,89.8C77.1,89.8 77,89.7 77,89.7L76.9,89.7C77.3,89.1 77.1,89 77,89C76.9,89 76.8,88.9 76.7,88.9L76.6,88.9L76.4,88.9L76.3,88.9L76.2,88.9L76.1,88.9L76,88.9C75.9,88.9 75.9,88.9 75.8,89L75.7,89C75.6,89 75.6,89.1 75.5,89.1C75.5,89.1 75.4,89.1 75.4,89.2C75.3,89.3 75.2,89.4 75.2,89.5L74.7,89.5L73.7,89.6L73.1,89L72.5,88.5C72.4,88.5 72.2,88.6 72.1,88.6L72,88.6L71.4,88.6L71.3,88.6L71.2,88.6L70.6,88.6L70.4,88.6C70.3,88.6 70.1,88.7 70,88.7C70,88.7 70,88.9 69.9,88.9C69.8,88.9 69.7,88.7 69.6,88.7C69.5,88.7 69.5,88.5 69.5,88.5C69.4,88.5 69.2,88.6 69.1,88.6C69,88.5 68.9,88.5 68.9,88.4C68.9,88.4 68.8,88.4 68.8,88.3C68.7,88.2 68.7,88.2 68.6,88.1L68.5,88C68.4,87.9 68.4,87.9 68.3,87.8L68.2,87.7C68.1,87.6 68,87.5 67.9,87.4C67.8,87.3 67.7,87.3 67.7,87.2L67.6,87.1C67.5,87 67.5,87 67.4,86.9L67.3,86.8C67.2,86.7 67.2,86.7 67.1,86.6C67.1,86.6 67,86.6 67,86.5C66.9,86.4 66.8,86.3 66.7,86.3L66.6,86.3C66.5,86.2 66.4,86.2 66.4,86.1C66.4,86.1 66.3,86.1 66.3,86C66.2,86 66.2,85.9 66.1,85.9C66.1,85.9 66,85.9 66,85.8C65.9,85.8 65.8,85.7 65.8,85.7L65.7,85.7C65.6,85.7 65.5,85.6 65.4,85.6L65.3,85.6L65.1,85.6L65,85.6L65,86L65,85.9L64.8,86C64.2,86 64.5,86 64.4,86L64.3,86L64.2,86.1L64.2,86.2C64.1,86.3 64,86.3 63.9,86.4L64.1,85.4L64.8,85L64.6,84.4C64,84.3 63.4,84.2 62.9,84C62.7,83.9 62.6,83.8 62.4,83.7L62.2,83.8L62.2,84.1C62.1,84 62,83.9 62,83.9L61.7,83.9L61.2,83.9L61.1,84C61,84 60.8,84.2 60.6,84.2C60.4,84.2 60.2,84 60.1,84L59.8,82.9C60,82.6 60.2,82.3 60.4,82.1C60.5,82 60.6,81.9 60.6,81.7C60.7,81.6 60.7,81.5 60.8,81.4C60.9,81.1 61,80.8 61,80.4L61,79.6C60.9,78.7 60.9,77.8 60.8,76.9L61,76.8L61,76.7C61,76.5 60.8,76.4 60.8,76.2C60.8,76.1 60.6,76.1 60.6,76C60.6,75.8 60.7,75.6 60.8,75.4C60.9,75.3 61,75.1 61.2,75.1C61.3,75 61.5,74.9 61.7,74.9C63,74.4 64.3,74.1 65.7,74C65.2,72.6 64.9,71.1 64.9,69.6C65.2,69.5 65.5,69.5 65.8,69.5L69,69.5L69,69.6L69,69.5C68,69.3 68.8,69.1 68.7,68.9C68.6,68.6 68.4,68.4 68.4,68.1L68.4,68C68.4,67.8 68.3,67.5 68.3,67.3L68.3,67C68.3,66.8 68.2,66.6 68.2,66.4C68.2,66.1 68.1,65.8 68.1,65.5C68.1,64.7 68.4,63.4 68.3,62.5C68.3,62.3 68.3,62.1 68.2,61.9C67.8,60.9 66.6,60.6 65.6,60.2C65.8,60.2 66,60.1 66.2,60.1C67.2,59.7 68.2,59.4 69.2,59.1C69.7,59 70.1,58.8 70.6,58.7C71.2,58.5 71.6,58.1 71.9,57.6C72.3,56.7 72.8,56.1 73.4,55.4C74.6,54.9 75.9,54.4 77.2,54L77.3,54C77.8,54.3 78.3,54.7 79.3,55.6L79.4,55.7C79.8,56.1 80.4,56.3 80.9,56.3C80.9,55.7 81.1,55.7 81.2,55.7ZM74.9,12.4L75.2,12.4C75.3,12.4 75.3,12.5 75.4,12.5C75.4,12.5 75.4,12.6 75.5,12.6C75.6,12.6 75.7,12.9 75.7,12.9C75.8,12.9 75.9,12.8 76,12.8C76.1,12.8 76.1,12.6 76.2,12.7L76.4,12.7C76.4,12.7 76.4,12.6 76.5,12.7C76.6,12.7 76.6,12.6 76.7,12.6C76.8,12.6 76.8,12.7 76.9,12.7C77,12.7 77,12.8 77.1,12.8C77.2,12.8 77.3,12.8 77.4,12.7C77.6,12.6 77.8,12.5 78.2,12.4C79.2,12 80,11.3 80.9,10.5C81.4,10.1 81.9,9.6 82.4,9.2C82.5,9.1 82.7,9 82.8,8.9L82.9,8.8C83,8.7 83.1,8.7 83.2,8.6C83.3,8.6 83.3,8.5 83.4,8.5C83.5,8.4 83.6,8.4 83.8,8.3C83.8,8.3 83.9,8.3 83.9,8.2C84.1,8.1 84.2,8 84.4,8L84.5,8C84.3,8.1 84.4,8 84.6,8L84.8,8C84.9,8 85,8 85.2,7.9C85.3,7.9 85.3,8 85.4,7.9C85.6,7.9 85.7,8 85.9,8C86.1,8 86.2,7.8 86.4,7.8L86.5,7.6L87,7.6C87.2,7.6 87.4,7.7 87.5,7.7L87.6,7.7C87.8,7.9 88,8 88.1,8.1C88.1,8.1 88.2,8.1 88.2,8.2C88.4,8.3 88.6,8.4 88.7,8.5C88.9,8.6 89.1,8.8 89.3,8.9C89.5,9 89.7,9.2 89.8,9.3C90.3,9.7 90.7,10.2 91,10.7C91.3,11.2 91.5,11.8 91.5,12.5L91.5,13.1C91.6,14.6 91.6,16.5 91,17.8C90.8,18.2 90.6,18.5 90.4,18.8C90.4,18.9 90.3,18.9 90.3,19C90.2,19.2 90.1,19.3 90,19.5C89.9,19.6 89.9,19.8 89.8,20L89.8,20.8C89.8,21 89.9,21.1 89.9,21.3C89.9,21.4 90,21.4 90,21.5C90.1,21.6 90.2,21.8 90.4,21.9C90.8,22.3 91.2,22.6 91.3,22.8C91.8,25.7 88.5,26.7 88.7,29.3C88.8,30.4 89.3,31 89.9,31.4C90,31.5 90.1,31.5 90.2,31.6C90.4,31.7 90.7,31.8 90.9,32C91.3,32.2 91.6,32.3 92,32.5C92.5,32.8 92.9,33.1 93.2,33.5L92.9,34.7L92.4,34.7L92.6,35.4C91.9,36 91.5,36.7 91.2,37.5C91.1,37.8 91,38.1 91,38.4C91.4,38.7 91.6,39 91.9,39.4C92.1,39.6 92.2,39.9 92.3,40.1C92.4,40.4 92.5,40.6 92.5,40.9C93,43.3 92,46.1 92,48.5L92,48.9C92,49.2 92,49.4 92.1,49.7C92.1,49.8 92.1,50 92.2,50.1C92.3,50.3 92.3,50.6 92.4,50.8C92.5,50.9 92.5,51 92.6,51.2L80.6,53.8C79.7,53 79,52.4 78.3,52C78,51.8 77.8,51.7 77.5,51.6C77.4,51.5 77.2,51.5 77,51.4L72.2,53.2C72,53.3 71.9,53.3 71.7,53.4C70.9,54.2 70.2,55.1 69.5,56.4C68,56.9 66.5,57.3 65.1,57.9C65,57.8 65,57.7 64.9,57.6C64.5,56.9 64.4,56.1 64.4,55.3L64.4,54.6C64.4,54 64.5,53.4 64.5,52.8L64.5,51C64.4,50.4 64.3,49.7 64.2,49.1C64.1,48.5 63.9,47.9 63.7,47.3C63.3,46.1 62.7,44.9 62,43.8C62,43.7 61.9,43.7 61.9,43.6C61.8,43.4 61.7,43.2 61.6,42.9L61.6,42.7C61.6,42.4 61.8,42.1 62,41.8C62,41.7 62.1,41.7 62.1,41.6L62.2,41.5C62.4,41.2 62.6,41 62.7,40.7C62.8,40.6 62.9,40.4 63,40.3C63.2,39.9 63.5,39.4 63.7,39C63.8,38.8 63.8,38.7 63.9,38.5L63.9,37.9C63.9,37.7 63.7,37.5 63.6,37.3C63.4,37.1 63.3,37 63.1,36.9C62.5,36.4 61.8,36 61.2,35.5C60.8,35.2 60.5,34.9 60.1,34.7C60,34.7 60,34.6 59.9,34.6C59.7,34.4 59.5,34.3 59.3,34.1C59.5,33.8 59.6,33.5 59.7,33.3C59.9,32.8 60.1,32.3 60.3,31.8C60.5,31.2 60.6,30.7 60.7,30.1L60.7,30C60.9,29.1 61.1,28.1 61.4,27.1C61.4,27 61.5,26.8 61.5,26.7C62,25.3 62.5,23.8 63,22.4C63.2,21.9 63.4,21.4 63.6,20.9C64,19.9 64.6,18.9 64.7,17.8L64.7,16.6C64.7,16.2 64.6,15.8 64.7,15.4C64.7,15.3 64.8,15.1 64.8,15L64.8,14.9C64.8,14.8 64.9,14.8 64.9,14.7C64.9,14.7 64.9,14.6 65,14.6C65,14.5 65.1,14.5 65.1,14.4L65.2,14.3L65.3,14.2L65.4,14.2C65.5,14.2 65.5,14.1 65.6,14.1L65.8,14.1L65.9,14.2C66,14.2 66,14.3 66.1,14.3L66.5,14.3C66.6,14.3 66.8,14.1 66.9,14.1L67,13.9L68.1,13.9C68.3,13.9 67.8,13.9 68.8,14L68.8,14.1C68.8,14.1 68.7,14.2 68.9,14.2L69,14.2C69.1,14.2 69.2,14.1 69.3,14.1C69.5,14.1 69.6,14 69.8,14L70.9,14C71,14 71.2,14 71.3,13.9C71.4,13.9 71.5,13.9 71.6,13.8C71.7,13.8 71.9,13.7 72,13.7C72.1,13.7 72.2,13.7 72.3,13.6C72.4,13.6 72.6,13.5 72.7,13.5C72.8,13.5 72.9,13.4 73,13.4C73.2,13.3 73.3,13.3 73.5,13.2C73.6,13.2 73.7,13.1 73.7,13.1C73.9,13 74.1,12.9 74.4,12.7C74.7,12.5 74.8,12.4 74.9,12.4L74.9,12.4ZM62.5,53C62.6,52.2 62.6,51.5 62.6,50.9C62.3,48.7 61.5,46.5 60.3,44.7C60.1,44.3 59.7,43.7 59.6,42.9C59.4,41.5 60.1,40.6 60.5,40C60.9,39.4 61.2,38.9 61.5,38.2L60,37.1L58,35.6C57.1,34.9 56.8,33.7 57.3,32.7C57.6,32.1 57.8,31.6 58,31C57.5,31.1 57,31.2 56.6,31.2C56.3,31.8 55.8,32.3 55.3,32.7C55,32.9 54.6,33 54.1,33L53.9,33L53.3,32.9C53.2,33 53,33.1 52.9,33.2C52.6,33.4 52.4,33.5 52.4,33.6C52.1,34.5 51.2,35 50.3,35L49.9,35L49.8,35.4C49.6,36.1 49.1,36.7 48.3,36.9C47,37.3 45.6,38.4 45.2,40C45.1,40.6 44.7,41.2 44.1,41.5C43.8,41.7 43.4,41.7 43.1,41.7L42.8,41.7C42.7,41.9 42.6,42.2 42.5,42.4C42.1,43.5 41.2,45.7 38.5,45.8C38,46.5 37.3,46.9 36.6,47.2C36.5,47.6 36.3,48 36.1,48.3C35.7,48.9 35,49.3 34.3,49.3L34,49.3L33.9,49.3C33.8,49.9 33.5,50.4 33.1,50.7L32.9,50.9C32.9,51.8 32.7,52.8 32.3,53.6C32.3,54.2 32,54.7 31.6,55.1L30.2,56.3C29.8,56.7 29.3,56.9 28.7,56.9C28.4,56.9 28,56.8 27.7,56.7C27.3,57 26.8,57.2 26.2,57.2L26,57.2L25.9,57.2C25.8,57.3 25.8,57.4 25.7,57.5L25.7,57.6C26,58.8 26.6,60.2 27.3,61.5L27.5,61.9C28,62.8 28.2,63.1 28.3,63.2L28.4,63.2C28.7,63.2 29.1,63.3 29.6,63.4C31.1,63.9 32,65.4 31.7,66.8C31.6,67.3 31.3,67.7 31.1,67.9C31.1,68.1 31.3,68.4 31.6,68.9L32.8,70.8L33.3,71.6L34.8,71.6C36.2,71.6 37.4,71.7 38.4,72C38.8,71.9 39.3,71.8 39.8,71.9C40.2,71.9 40.6,71.9 40.9,72L41.6,72C41.9,72 42,72 42,71.9C42.4,71.6 42.8,71.5 43.3,71.5C43.7,71.5 44,71.6 44.4,71.8L45.8,72.5C46.6,72.9 47.1,73.8 47,74.6C47.3,75 47.4,75.5 47.4,76C47.8,76.4 48.1,76.8 48.3,77.1C48.4,77.2 48.4,77.3 48.5,77.4L48.8,77.4C49,77.4 49.2,77.3 49.5,77.3C49.7,77.1 50,77 50.3,76.9C50.8,76.8 51.3,76.7 51.8,76.6C52.4,76.5 53,76.4 53.4,76.3C53.6,76.2 53.8,76.2 54,76.2C54.2,76.2 54.4,76.2 54.6,76.3C54.8,76.2 55.1,76.2 55.3,76.2C55.6,76.2 56,76.3 56.3,76.4C56.8,76.3 57.3,76.3 57.7,76.3L58.2,76.3L58.2,75.9C58.3,75.4 58.4,74.8 58.8,74.2C59.3,73.5 60,73.1 60.6,72.8C61.3,72.5 62,72.3 62.8,72.1C62.6,71.2 62.6,70.3 62.6,69.4C62.6,68.4 63.3,67.5 64.4,67.3C64.9,67.2 65.4,67.1 65.9,67.1C65.8,66.5 65.7,65.8 65.7,65.2C65.7,64.6 65.7,64 65.8,63.4C65.8,63.1 65.9,62.7 65.9,62.4C65.7,62.3 65.3,62.2 65.1,62.1C64,61.7 62.5,61.1 61.7,59.6C61.3,58.7 61.4,57.7 62.2,57L62.5,56.7C62.3,55.3 62.4,54.1 62.5,53ZM27.1,54.5L27.9,54.5C28,54.5 28,54.5 28.1,54.6L28.2,54.6C28.3,54.6 28.4,54.7 28.5,54.7L29,54.3L29.9,53.5L29.8,53.3L29.8,53.2C30.1,52.9 30.2,52.5 30.4,52C30.5,51.6 30.6,51.1 30.6,50.7C30.6,50.4 30.6,50.1 30.5,49.8L31.7,48.9C31.4,48.4 31.1,47.9 30.9,47.4C30.8,47 30.7,46.6 30.8,46.2C30.8,46.1 30.9,45.9 30.9,45.8L31.1,45.8L31.5,46.1L32.4,45.8L33.2,46.4L33.2,47.1L34.1,47.2C34.3,46.9 34.4,46.6 34.4,46.3L34.4,46.1C34.4,45.9 34.3,45.6 34.2,45.4C34.4,45.4 34.5,45.5 34.7,45.5L34.8,45.5C34.9,45.5 35.1,45.4 35.2,45.3L35.3,45.2L35.4,45.2C35.5,45.2 35.9,45.4 35.9,45.4L35.9,45.3L35.8,45.2C35.9,45.2 35.9,45.2 35.9,45.1L35.9,45C35.9,44.9 35.9,44.9 36.9,44.8L36.7,45.1L36.6,45.1C36.7,45.1 36.7,44.1 36.7,44.1L37,44.1C37,44.1 37,44 37.1,44C37.2,43.9 37.2,43.7 37.3,43.6C37.5,43.7 37.7,43.7 37.8,43.7L37.9,43.9C38.1,43.9 38.2,44.1 38.3,44.1L38.4,44.1C38.5,44.1 38.8,43.9 38.9,43.9L39,43.8L38.9,43.7L39,43.3L39,43L39.5,43C39.5,43 40,43.3 40,43.2C40,43.1 39.9,43.1 40,43L39.9,43C40,42.9 40.1,42.8 40.1,42.8L40,42.8C40.1,42.7 40.1,42.6 40.1,42.5L40.2,42.5C40.2,42.4 40.3,42.3 40.3,42.2C40.3,42.1 40.4,42 40.4,41.9C40.4,41.8 40.5,41.7 40.5,41.6C40.5,41.5 40.6,41.4 40.6,41.3C40.7,41.2 40.7,41.1 40.8,41C40.9,40.9 40.9,40.8 41,40.7C41.1,40.6 41.1,40.5 41.2,40.4C41.3,40.3 41.4,40.2 41.5,40.2C41.6,40.1 41.7,40.1 41.8,40C41.9,39.9 42.1,39.9 42.2,39.8L42.9,40.1C43,39.4 43.3,38.7 43.7,38.1C44.2,37.4 44.8,36.8 45.5,36.3C46,36 46.5,35.7 47,35.5C47.1,35.4 47.3,35.4 47.4,35.4L47.8,34L48.7,33.5L48.8,32.9L50.1,33.3C50.2,33 50.3,32.8 50.5,32.6C50.6,32.5 50.7,32.4 50.8,32.3C51.3,31.9 51.9,31.6 52.3,31.1L53.9,31.3C54.6,30.8 54.8,29.9 54.8,29L55,28.9C55.1,29 55.2,29.1 55.3,29.1C55.3,29.1 55.4,29.1 55.4,29.2C55.5,29.2 55.6,29.3 55.6,29.3L55.8,29.3C55.9,29.3 56,29.3 56,29.4L56.6,29.4C56.7,29.4 56.7,29.5 56.8,29.5C56.9,29.5 56.9,29.6 57,29.6L57.1,29.6C57.1,29.6 57.8,29.4 57.8,29.3C57.8,29.3 57.6,29.3 57.7,29.2C57.7,29.2 57.6,29.2 57.7,29.2C57.8,29.2 57.9,29.1 58,29L58.2,28.4C58.4,28.4 58.6,28.3 58.8,28.3C58.9,27.7 59.1,27.1 59.3,26.5C59.9,24.6 60.6,22.8 61.3,21L61.6,20.2C61.7,19.8 61.9,19.5 62,19.2C62.3,18.6 62.5,18 62.6,17.5L62.6,16.9C62.6,16.4 62.5,15.8 62.6,15.2C62.7,14.8 62.8,14.4 63,14C61.8,14.6 60.4,15.3 60,16.5L59.8,16.5L59.7,16.5L58.4,15.5C58.3,15.5 58.2,15.6 58.1,15.6C57.9,15.6 57.8,15.5 57.6,15.5C57.6,15.5 57.6,15.4 57.5,15.4C57.3,15.4 57.2,15.4 57,15.5L56.9,15.5C56.8,15.6 56.6,15.6 56.5,15.7L56.3,15.7C56.2,15.8 56.8,15.9 55.8,16L55.2,15.8L54.1,13.2L53.4,13.1L52.7,13C52.6,13.1 52.6,13.3 52.5,13.4C52.1,14 51.6,14.5 51,14.8L51,15.4C51,16 51,16.7 50.9,17.3C50.8,18.5 50.6,19.6 50.2,20.6C50,21.1 49.8,21.6 49.3,22.1C48.3,23.1 47.2,23.2 46.5,23.3C45.5,25.9 44.1,29 41.7,31.7C40.9,32.6 39.7,34 37.6,33.9C37.3,33.9 36.9,33.9 36.6,33.8C35.8,33.6 35.3,33.3 34.8,33.1C34.7,33 34.6,33 34.5,32.9L33.1,32.9C32.8,33 32.6,33.1 32.3,33.1C32.5,33.7 32.5,34.3 32.2,34.9C31,37.3 27,38.8 25.2,39.2L24.7,39.2C24.4,39.2 24.2,39.2 23.9,39.1C22.7,38.7 22.2,38.6 21.3,38.6L20.6,38.6C19.8,38.6 19.1,38.5 18.6,38.4C17.7,38.3 16.6,38.2 15.3,38C14.6,38 13.8,37.9 12.9,37.6C12.4,37.4 11.9,37.2 11.5,37C11.1,36.8 10.6,36.5 10.3,36.5L10.1,36.5C9.4,36.5 8.8,36.2 8.3,35.7C8.1,35.5 7.6,35.3 7.1,35.2L7,35.2L7,35.3C6.9,36.3 6.8,37.2 6.8,38.2C6.8,38.8 7,39.4 7.1,40.1C7.3,40.7 7.4,41.3 7.4,41.9L6.4,41.8C6.4,42.1 6.5,42.4 6.5,42.7L6.5,45.4C6.5,46 6.5,46.6 6.4,47.1C7,46.8 7.7,46.7 8.2,46.7C10.1,46.7 11.6,48 12.7,49C13,49.2 13.3,49.6 13.5,49.7C13.7,49.8 13.9,49.9 14.4,49.9C14.9,49.9 15.6,49.8 16.3,49.6C16.7,49.5 17.1,49.4 17.5,49.4L17.9,49.4C18.8,49.4 19.6,49.9 20,50.7C20.3,51.2 21,52 21.6,52.6C21.8,52.5 22,52.5 22.2,52.5C22.4,52.5 22.6,52.5 22.8,52.6C22.9,52.6 23,52.6 23.2,52.7C24.1,52.9 25.2,53 26,53.8L26.1,53.9C26.3,54.1 26.8,54.6 26.9,55.2C27,54.5 27,54.5 27.1,54.5ZM7.7,19.4C7.7,21.8 7.7,24.3 7.8,26.7C7.8,28.2 8.3,30.5 7.7,32C7.6,32.2 7.5,32.4 7.3,32.6C8,32.7 8.6,32.8 9.2,33.1C9.6,33.3 9.9,33.5 10.2,33.8L11.1,33.8C11.2,33.8 11.3,33.8 11.3,33.9C11.4,33.9 11.4,33.9 11.5,34C11.6,34 11.7,34.1 11.7,34.1C11.8,34.1 11.8,34.1 11.9,34.2C12,34.2 12.1,34.3 12.2,34.3C12.3,34.3 12.3,34.4 12.4,34.4C12.5,34.5 12.6,34.5 12.7,34.6C12.8,34.6 12.9,34.7 13,34.7C13.1,34.7 13.1,34.7 13.2,34.8C13.3,34.9 13.5,34.9 13.6,35C14,35.1 14.3,35.2 14.6,35.2C14.9,35.2 15.2,35.3 15.5,35.3C16,35.4 16.6,35.5 17.2,35.5C17.8,35.6 18.4,35.6 18.9,35.7C19,35.7 19.2,35.7 19.3,35.8L20.4,35.8C20.5,35.8 20.7,35.9 20.8,35.9C21,35.9 21.1,36 21.3,36C21.4,36 21.4,35.9 21.5,35.9L23.3,35.9C23.4,35.9 23.5,35.9 23.6,36L23.8,36C23.9,36 24,36.1 24.1,36.1L24.3,36.1C24.5,36.2 24.6,36.2 24.8,36.3C26.4,36 29.6,34.6 30.3,33.2L29,31.5C29.6,30.6 30.6,30.6 31.6,30.5C31.8,30.5 32,30.4 32.1,30.4C32.4,30.3 32.6,30.2 32.8,30.1C32.9,30.1 33,30.2 33.1,30.2L34.7,30.2C34.8,30.2 34.9,30.2 35,30.3C35.2,30.3 35.3,30.4 35.5,30.5C35.7,30.6 35.8,30.7 36,30.8C36.3,31 36.6,31.2 37,31.2C37.2,31.2 37.3,31.2 37.5,31.3L38.1,31.3C38.2,31.3 38.4,31.2 38.5,31.2L38.6,31.2C38.7,31.2 38.8,31.1 38.8,31.1C38.8,31.1 38.9,31.1 38.9,31C39,31 39,30.9 39.1,30.9L39.2,30.8C39.3,30.7 39.3,30.7 39.4,30.6L39.5,30.5C39.6,30.4 39.6,30.4 39.7,30.3L39.8,30.2C39.9,30.1 40,30 40.1,29.9C41.1,28.7 42,27.4 42.7,26.1C42.9,25.8 43.1,25.4 43.2,25.1C43.5,24.5 43.8,23.9 44,23.3C44.1,23.2 44.1,23 44.2,22.9C44.3,22.8 44.3,22.6 44.4,22.5C44.5,22.3 44.6,22.1 44.6,21.9C44.7,21.7 44.8,21.5 44.9,21.3C45.2,21 45.5,20.9 45.9,20.9L47.1,20.9C47.3,20.8 47.6,20.7 47.8,20.5C47.9,20.4 48,20.2 48.1,20C48.1,19.9 48.2,19.8 48.2,19.7C48.4,19.2 48.5,18.7 48.6,18.2C48.7,17.8 48.7,17.4 48.8,17L48.8,15.9C48.8,15.2 48.8,14.6 48.9,13.9C48.9,13.9 48.8,13.8 48.7,13.8L48.6,13.8L48.5,13.7C48.5,13.7 48.4,13.7 48.4,13.6C48.4,13.6 48.3,13.6 48.3,13.5C48.3,13.5 48.2,13.5 48.2,13.4C48.1,13 48,13 48,13C48,13 47.9,13 47.9,12.9C47.8,12.9 47.8,12.9 47.7,12.8C47.6,12.8 47.6,12.7 47.5,12.7C47.5,12.7 47.4,12.7 47.4,12.6C47.3,12.6 47.3,12.6 47.2,12.5C47.1,12.5 47.1,12.5 47,12.4C46.9,12.4 46.9,12.4 46.8,12.3C46.7,12.3 46.7,12.3 46.6,12.2C46.5,12.2 46.5,12.2 46.4,12.1C46.3,12.1 46.3,12.1 46.2,12C46.1,12 46.1,12 46,11.9C45.9,11.9 45.9,11.9 45.8,11.8L45.6,11.8C45.5,11.8 45.5,11.8 45.4,11.7L45.3,11.7L45.1,11.7L45,11.7L44.8,11.7L44.7,11.7L44.5,11.7L44.4,11.7L44.3,11.7L44.2,11.7L44.1,11.7L44.2,10.9C43.8,11 43.3,11.1 42.9,11.2C39.9,12.2 37.4,14.4 34.9,16.1L34.8,16.2C34.8,16.2 34.7,16.2 34.7,16.3L34.6,16.3L34.5,16.3L34.4,16.3L34.3,16.3L34.2,16.3C34.1,16.3 34,16.2 34,16.1L33.9,16C33.6,15.6 33.2,15.2 32.9,14.8C32.3,14 31.7,13.1 31.2,12.2C31,11.8 30.7,11.3 30.5,10.8C30.5,10.7 30.5,10.7 30.4,10.6C30.2,10.2 30.1,9.9 29.7,9.6C29.5,9.5 29.3,9.4 29.1,9.3C28.9,9.3 28.7,9.2 28.5,9.2L28.1,9.2C27.9,9.2 27.7,9.4 27.4,9.4C27.2,9.4 27.1,9.6 26.9,9.6L26.8,9.6L26.8,9.4C26.7,9.4 26.6,9.3 26.5,9.3C26.4,9.3 26.4,9.2 26.3,9.2L26,9.2L25.8,9.2C25.7,9.2 25.6,9.2 25.5,9.1L25.3,9.1C25.1,9.1 25,9 24.8,9C24.4,8.9 24.1,8.7 23.8,8.6C23.6,8.5 23.5,8.4 23.3,8.3C23,8.1 22.7,7.9 22.4,7.7C21.9,7.4 21.5,7.1 21,6.8C20.9,6.7 20.7,6.6 20.5,6.6C20.5,6.6 20.4,6.6 20.3,6.5C20.2,6.4 20,6.4 19.9,6.3C19.8,6.3 19.8,6.3 19.7,6.2C19.5,6.1 19.3,6.1 19.1,6L19,6C18.8,5.9 18.6,5.9 18.4,5.8C18.3,5.8 18.3,5.8 18.2,5.7C18.2,6 18,6 17.8,5.9L17.6,5.9C17.4,5.8 17.1,5.8 16.9,5.8L16.8,5.8C16.6,5.8 16.4,5.7 16.2,5.7L16,5.7L15.5,5.7L15.3,5.7L14.6,5.7L14.5,5.7C14.3,5.7 14.1,5.7 14,5.8L13.8,5.8C13.7,5.8 13.5,5.9 13.4,5.9C13.3,5.9 13.3,5.9 13.2,6C13,6.1 12.9,6.2 12.8,6.3C12.3,6.7 12.2,7.2 12.2,7.8C12.2,8 12.2,8.2 12.3,8.3L12.3,9.1C12.3,9.4 12.2,9.7 12.1,10C12,10.2 12,10.4 11.9,10.5C11.7,11.2 11.4,11.8 11.5,12.5C11.2,12.8 10.8,13 10.5,13.3C10.3,13.5 10,13.7 9.8,13.9C9.6,14.1 9.4,14.3 9.2,14.5C9.1,14.6 9,14.7 9,14.8C8.4,15.7 8.3,16.8 9.2,18.1L7.7,19.4ZM50.2,79C50,79 49.9,79.1 49.8,79.1L49.8,79.2C49.7,79.2 49.5,79.3 49.4,79.3C49.3,79.3 49.1,79.4 49,79.4L48.6,79.4L48.6,79.5L48.4,79.5L48.3,79.5L48.1,79.5L48,79.5C47.9,79.5 47.9,79.5 47.8,79.4L47.7,79.4C47.6,79.4 47.5,79.3 47.5,79.3C46.9,78.9 46.6,78.3 46.2,77.8C46,77.6 45.8,77.4 45.6,77.3C45.5,77.2 45.3,77.2 45.2,77.1C45.1,76.9 45,76.6 45,76.4C45,76.3 45,76.2 45.1,76.1C45.1,76 45.2,75.9 45.3,75.8C45,75.5 44.9,75.2 44.9,74.8C44.9,74.7 44.9,74.6 45,74.4L43.6,73.7C43.5,73.8 43.4,73.9 43.2,73.9L43.1,73.9C43,73.9 42.9,74 42.8,74L42.7,74C42.6,74 42.4,74.1 42.3,74.1L42.2,74.1L41.9,74.1L41.8,74.1L41.7,74.1L41.4,74.1L41.3,74.1L41.1,74.1C41.4,74.5 41.6,74.9 41.7,75.3L41.8,75.5C42.2,76.3 42,77.2 41.4,77.8L40.6,78.5C40.2,78.9 39.6,79.1 39,79.1C38.7,79.1 38.4,79 38.2,78.9C38.2,78.9 38.1,79 37.9,79.1C37.5,79.4 37,79.6 36.5,79.6L36.1,79.6C35.8,79.8 35.4,79.8 35.1,79.8C34.8,79.8 34.5,79.7 34.2,79.6L33.9,79.5L33.8,79.5C32.3,79.9 31.2,80 30.1,80C28.5,80 27.1,79.7 25.3,78.9C25.2,78.9 25,79 24.9,79C24.7,79.1 24.4,79.1 24.2,79.2C23.8,79.9 23.1,80.3 22.3,80.3L21.9,80.3C21.8,80.5 21.6,80.7 21.4,80.8C21.3,81.2 21,81.6 20.6,81.8C20.6,81.9 20.6,81.9 20.5,82C20.2,82.6 19.8,83 19.3,83.4C19.2,83.5 19.2,83.7 19.1,83.8C19.1,84.2 19,84.6 18.7,85C18.5,85.3 18.3,85.5 18,85.6C17.9,86 17.6,86.4 17.2,86.7C15.9,87.6 14.1,87.7 12.9,87.7L12,87.7C12.2,88 12.5,88.2 12.9,88.3L12.8,88.8C12.9,88.9 13,89.1 13.1,89.2C13.3,89.5 13.6,89.7 13.8,89.9C13.9,90 14.1,90.1 14.2,90.3L14.4,90.2L14.7,90.5L14.7,90.7L14.1,90.7L14.3,91.2L14.1,91.2C13.8,91.8 13.8,92.4 14,93L15.9,93.6L16.1,93.8C16.3,93.8 16.5,93.8 16.7,93.9C17.3,94 17.9,94.3 18.4,94.7C18.4,94.5 18.5,94.3 18.5,94.2C18.6,94.2 18.7,94.3 18.7,94.3L19.3,94.3C19.3,94.3 19.4,94.3 19.4,94.2L19.5,94.2C19.5,94.2 19.6,94.2 19.6,94.1L19.7,94L19.8,93.9L19.9,93.8L20,93.7L20,93.6L20.1,93.5C20.1,93.4 20.2,93.4 20.2,93.3L20.2,93.2C20.2,93.2 20.2,93.1 20.3,93.1L20.3,93C20.3,93 20.3,92.9 20.4,92.9C20.4,92.9 20.4,92.8 20.5,92.8C20.5,92.8 20.5,92.7 20.6,92.7C20.6,92.7 20.6,92.6 20.7,92.6L20.7,92.5C20.7,92.5 20.7,92.4 20.8,92.4L20.8,92.3C20.8,92.2 20.9,92.2 20.9,92.1C20.9,92.1 21,92 21,91.9C21.3,91.5 21.5,91.1 21.8,90.6C22,90.3 22.3,89.9 22.5,89.6C22.9,89.1 23.3,88.7 23.8,88.4C23.9,88.3 24,88.3 24.2,88.2C24.2,88.2 24.3,88.2 24.3,88.1C24.4,88.1 24.5,88 24.6,88C24.7,88 24.7,88 24.8,87.9C24.9,87.9 25,87.8 25.1,87.8C25.2,87.8 25.2,87.8 25.3,87.7C25.4,87.7 25.5,87.6 25.6,87.6C25.7,87.6 25.7,87.6 25.8,87.5C25.9,87.5 26,87.4 26.2,87.4L26.3,87.4C26.5,87.4 26.6,87.3 26.8,87.3L27.4,87.3C27.5,87.3 27.7,87.3 27.8,87.4L27.9,87.2L28,87.1L28.4,87.1C28.8,87.1 29.1,87.2 29.5,87.2C30.1,87.3 30.5,87.5 30.9,87.9C31.3,88.2 31.5,88.2 31.9,88.2C32.3,88.3 32.6,88.6 32.9,88.8C33.1,89 33.3,89.3 33.5,89.5C33.6,89.6 33.9,90 34.3,90.4C34.5,90.6 34.6,90.8 34.8,91C35.1,91.3 35.3,91.6 35.6,91.9C36.1,92.5 36.5,92.9 36.5,92.9C36.5,93 36.1,93.5 36.1,93.5C36.3,93.7 36.6,93.8 36.9,93.8C37,93.8 37.1,93.8 37.2,93.9C37.4,93.9 37.6,94 37.8,94C38,94 38.2,94.1 38.4,94.1L38.9,94.1L38.9,94C38.9,94 38.9,93.9 39,93.9C39.1,93.9 39.1,94 39.2,94L39.2,94.1L39.4,94.1C39.5,94.1 39.7,93.8 39.9,93.5C40.1,93.1 40.5,92.6 40.8,92.2C40.8,92.1 40.9,92.1 40.9,92C40.8,91.9 40.7,91.8 40.7,91.7L40.4,91.3C40,90.8 39.9,90.1 40.1,89.5C40.3,88.9 40.8,88.4 41.4,88.2C41.9,88.1 42.4,88 42.9,88L43.5,88L43.6,87.8C43.9,87.3 44.5,86.9 45.2,86.8L45.3,86.7C45.3,85.7 46.1,84.8 47.1,84.6C47.4,84 47.9,83.5 48.5,83.1C48.5,82.9 48.6,82.7 48.6,82.6C48.6,82.5 48.6,82.4 48.7,82.4C48.6,81.6 48.9,80.8 49.6,80.3C49.8,80.2 50.1,79.8 50.4,79.5C50.5,79.4 50.7,79.1 50.8,79C50.5,79.1 50.3,79 50.2,79L50.2,79ZM8.3,82.2C8.4,82.3 8.4,82.4 8.5,82.6C8.6,82.7 8.7,82.9 8.9,83.1C9,83.1 9,83.2 9.1,83.3L9.6,83.8C10.1,84.3 10.5,84.7 10.5,84.8L10.6,85.4L13.9,85.4C14.1,85.4 14.3,85.3 14.5,85.3L14.6,85.3C14.8,85.3 15,85.2 15.1,85.1L15.2,85.1C15.4,85 15.5,85 15.7,84.9L15.8,84.4L15.2,83.8L14.9,83.5L15.2,83.3C15.3,83.4 15.4,83.5 15.5,83.5L15.6,83.5C15.7,83.5 15.7,83.6 15.8,83.6L16.6,83.6L16.5,83.2L16.6,83L17.1,82.5L16.9,82C17.2,81.9 17.5,81.8 17.8,81.6C18.1,81.4 18.3,81.2 18.4,80.9L18.2,80.5L18.1,80.3L19.1,80L19.2,79.5L19.2,79.3L19.8,79L19.8,78.4C19.9,78.3 20,78.3 20.1,78.2L20.2,78.2C20.3,78.2 20.3,78.1 20.4,78.1L21.6,78.1C21.7,78.1 21.9,78.2 22,78.2C22.1,77.6 22.2,77.8 22.4,77.6C22.6,77.5 22.7,77.3 22.9,77.2C23.6,76.9 24.4,76.8 25.1,76.5C25.3,76.6 25.5,76.7 25.7,76.8C25.8,76.8 25.8,76.9 25.9,76.9C26,77 26.2,77 26.3,77.1C26.4,77.1 26.4,77.2 26.5,77.2C26.6,77.2 26.7,77.3 26.9,77.3C27,77.3 27,77.3 27.1,77.4C27.2,77.4 27.4,77.5 27.5,77.5L27.6,77.5C27.8,77.5 27.9,77.6 28.1,77.6L28.2,77.6C28.3,77.6 28.4,77.6 28.6,77.7L30.6,77.7C30.8,77.7 31,77.7 31.2,77.6L31.3,77.6C31.5,77.6 31.8,77.5 32,77.5C32.1,77.5 32.1,77.3 32.2,77.3C32.4,77.2 32.7,77 33,77C33,77 33.1,77 33.2,76.9C33.4,76.7 33.7,76.6 34,76.6L34.1,77.2L34.9,77.6L35.8,77.1L36.4,77.5C36.5,77.4 36.6,77.3 36.7,77.3C36.7,77.3 36.8,77.3 36.8,77.2C36.9,77.1 37,77.1 37.1,77.1L37.2,77.1C37.3,77.1 37.5,77 37.6,77L38.6,77C38.7,77 38.9,77.1 39,77.1L39.8,76.4C39.7,76.2 39.6,76 39.5,75.8C39.4,75.7 39.4,75.6 39.3,75.5C39.2,75.4 39.2,75.3 39.1,75.3C39,75.2 38.8,75.1 38.7,75.1L38.7,75L38.7,74.9L38.7,74.8L38.6,74.7L38.5,74.6C38.5,74.6 38.4,74.6 38.3,74.5L38.2,74.5L38.1,74.5L38,74.5L37.8,74.5L37.7,74.5L37.5,74.5L37.4,74.5L37.1,74.5L37,74.5L36.8,74.5L36.7,74.5L36.5,74.5L36.4,74.5L36.2,74.5L36.1,74.5L35.8,74.5L35.7,74.5L35.4,74.5L35.3,74.6C35.2,74.6 35.1,74.7 35.1,74.7L35,74.7L34.6,74.7C34.5,74.7 34.3,74.6 34.2,74.6L34.1,74.5L33,74.5L32.9,74.5L32.7,74.5L32.4,74.5L32.2,74.5C31.4,73.2 30.7,71.9 29.9,70.6C29.5,70 29.1,69.2 29.1,68.4C29.1,68.3 29,68.1 29,68C29,67.8 29.1,67.6 29.2,67.4C29.2,67.3 29.3,67.3 29.3,67.2L29.4,67.1L29.5,67C29.6,66.9 29.6,66.9 29.6,66.8C29.7,66.6 29.5,66.3 29.3,66.2C29.2,66.2 29.2,66.1 29.1,66.1C29,66.1 28.9,66.1 28.9,66L28.1,66C28,66 27.9,66 27.8,65.9C27.7,65.9 27.6,65.8 27.5,65.8C27.3,65.7 27.2,65.6 27.1,65.5C26.8,65.3 26.6,65 26.3,64.7C26,64.3 25.8,63.9 25.6,63.5C25.3,62.9 25,62.3 24.7,61.7C24.5,61.3 24.3,60.9 24.2,60.5C24.1,60.3 24,60.1 24,59.9C23.9,59.5 23.7,59.1 23.6,58.6C23.6,58.4 23.5,58.3 23.5,58.2L23.5,57.7C23.6,57.2 23.9,57.1 24.3,56.3C24.5,55.9 24.7,55.8 24.8,55.8C24.9,55.8 24.8,55.7 24.7,55.6C24.6,55.5 24.6,55.5 24.5,55.4C24.5,55.4 24.4,55.3 24.3,55.3C24.2,55.2 24,55.2 23.8,55.1C23.6,55.1 23.4,55 23.2,55C23,55 22.9,55 22.8,54.9C22.7,54.9 22.5,54.9 22.5,54.8L22,55.2C21.8,55.2 21.7,55.1 21.5,55.1C21.1,54.9 20.6,54.6 20.1,54.1C19.9,53.9 19.7,53.7 19.6,53.6C19.3,53.3 19.1,53 18.9,52.8C18.7,52.5 18.5,52.3 18.4,52C18.4,51.9 18.3,51.9 18.3,51.8C18.2,51.8 18,51.8 17.9,51.9L17.8,51.9C17.7,51.9 17.6,51.9 17.5,52L17.3,52C17.2,52 17.1,52 17,52.1C16.9,52.1 16.8,52.1 16.7,52.2L16.6,52.2C16.5,52.2 16.3,52.2 16.2,52.3L16.1,52.3L15.8,52.3L15.7,52.3L15.4,52.3L15.3,52.3L15,52.3L14.9,52.3L14.4,52.3L14.3,52.3C14.2,52.3 14,52.3 13.9,52.2L13.8,52.2C13.6,52.2 13.5,52.1 13.3,52L13.2,52C13,51.9 12.9,51.9 12.7,51.8C12.6,51.8 12.5,51.7 12.5,51.6C12.5,51.6 12.4,51.6 12.4,51.5C12.3,51.5 12.3,51.4 12.2,51.4C12.2,51.4 12.1,51.4 12.1,51.3C12,51.2 12,51.2 11.9,51.1C11.8,51 11.7,50.9 11.6,50.8C11.1,50 11,50 11,49.9L10.9,49.8C10.8,49.7 10.8,49.7 10.7,49.6L10.6,49.5C10.5,49.4 10.4,49.3 10.3,49.2L10.2,49.1C10.1,49 10,49 10,48.9C10,48.9 9.9,48.9 9.9,48.8C9.8,48.7 9.8,48.7 9.7,48.7C9.7,48.7 9.6,48.7 9.6,48.6C9.5,48.5 9.4,48.5 9.3,48.4C9.2,48.4 9.1,48.3 9,48.3L8.9,48.3L8.7,48.3L8.6,48.3L8.4,48.3L8.3,48.3C8.2,48.3 8.2,48.3 8.1,48.4L8,48.4C7.9,48.4 7.9,48.5 7.8,48.5C7.8,48.5 7.7,48.5 7.7,48.6C7.6,48.7 7.5,48.8 7.4,48.9C7.1,49.3 6.9,49.9 6.9,50.6L6.9,51.7C6.9,52.1 6.9,52.5 7,52.9C7,53.1 7,53.3 7.1,53.5C7.1,53.7 7.1,53.9 7.2,54.1C7.3,55.3 7.5,56.4 7.5,57.1L7.5,58.3C7.6,59.6 8,60.8 8.9,61.7C8,62.3 7.4,63.1 7.1,64C7,64.3 6.9,64.5 6.8,64.8C6.5,65.8 6.5,66.9 6.5,67.9C6.5,68.6 6.6,69.3 6.5,70C6.5,70.2 6.4,70.5 6.4,70.7C6.3,70.9 6.2,71.1 6.1,71.3C6,71.5 5.9,71.8 5.8,72C5.7,72.1 5.7,72.3 5.6,72.4C4.7,74.8 6.1,77.4 7.4,79.6C7.5,80.7 7.9,81.5 8.3,82.2ZM58.2,78.2C58.1,78.1 58,78 58,78L57.9,78C57.8,78 57.6,78.1 57.5,78.2L57.5,78.3C57.3,78.3 57.2,78.4 57,78.4L56.9,78.4C56.8,78.4 56.7,78.5 56.5,78.5L56.4,78.5C56.3,78.5 56.1,78.6 56,78.6L55.9,78.6C55.8,78.6 55.7,78.7 55.6,78.7L55.5,78.7C55.4,78.8 55.2,78.8 55.1,78.9L55,78.9C54.9,79 54.8,79 54.7,79.1C54.7,79.1 54.6,79.1 54.6,79.2C54.5,79.3 54.4,79.4 54.3,79.5C54.2,79.5 54.1,79.7 54,79.7L53.9,79.9L53.8,79.9L53.6,79.7L53.8,79.6L54,79.6L53.8,79.6L53.7,79.7C53.7,79.7 53.5,79.9 53.4,79.9L53,79.9L53,79.8C53,79.8 53.1,79.8 53,79.8C53,79.8 52.9,79.8 52.9,79.9L52.8,80L52.7,80.1L52.8,80.1L52.8,80.3L52.5,80.4L52.4,80.4C52.4,80.4 52.3,80.5 52.2,80.5L52.1,80.6L52,80.7L51.9,80.8L51.8,80.9L51.7,81C51.6,81.1 51.6,81.1 51.5,81.2L51.4,81.3L51.3,81.4L51.2,81.5L51.1,81.6L51,81.7L50.9,81.8L50.8,81.9L50.7,82C50.6,82.1 50.6,82.1 50.5,82.1L50.5,82.7C50.5,82.8 50.5,82.9 50.4,83C50.3,83.5 50.1,83.9 50.3,84.5C50.2,84.5 50,84.6 49.9,84.6C49.8,84.7 49.7,84.7 49.5,84.8C49.4,84.9 49.3,84.9 49.2,85L49.1,85.1C49,85.1 49,85.2 48.9,85.2C48.8,85.3 48.7,85.4 48.7,85.5C48.6,85.7 48.5,85.9 48.4,86.2L48.4,86.6L48,86.7L47.1,86.8L47.1,87.3C47.1,87.4 47.1,87.4 47,87.5C47,87.6 46.9,87.6 46.9,87.7C46.7,88 46.5,88.2 46.2,88.4L46.4,88.8L45.7,88.8L45.1,88.8L45,88.8L44.8,89.1L45,89.4L45.1,89.6C45,89.7 44.9,89.7 44.8,89.8L44.7,89.8C44.6,89.8 44.5,89.9 44.5,89.9C44.4,89.9 44.3,89.9 44.2,90L44.1,90L43.8,90L43.7,90L43.2,90C43,90 42.6,89.9 42.6,89.9L42.6,89.8L42.5,89.8C42.4,89.8 42.3,89.9 42.1,89.9C42.1,89.9 41.9,89.9 41.7,90L41.9,90.3L42,90.4C42.9,90.4 43.8,90.6 44.7,90.7C47.4,91.2 50.3,92.1 53,93C54.2,93.4 55.4,93.7 56.5,94C56.7,93.9 56.9,93.7 57.1,93.6C57.9,93 58.8,92.3 59.7,91.8C59.9,91.7 60.2,91.6 60.4,91.5C60.5,91.4 60.6,91.4 60.8,91.4C61.2,91.3 61.5,91.2 61.9,91.2L63.6,91.2C63.8,91.2 64.1,91.1 64.3,91.1C64.6,91.1 64.8,90.9 65.2,90.9C65.4,90.9 65.5,90.9 65.6,90.8L65.8,90.8C65.9,90.8 66,90.7 66.1,90.7C66.2,90.7 66.3,90.6 66.4,90.6L66.5,90.8C66.6,90.8 66.7,90.9 66.8,90.9C66.9,90.9 67,90.7 67.1,90.7C67.1,90.7 67.1,90.6 67.2,90.6L67.5,90.6C67.5,90.6 67.5,90.5 67.6,90.5C67.7,90.5 68,90.6 68,90.6L68.2,90.3C68,90.2 67.9,90.2 67.7,90.1C67.3,89.8 66.9,89.4 66.5,89.1C66.1,88.8 65.5,88.2 65.1,88C64.7,88.3 64.3,88.4 63.8,88.4C63.4,88.4 63,88.3 62.6,88.1C61.9,87.7 61.5,86.9 61.5,86C61.2,86 60.9,85.8 60.6,85.7C60.5,85.6 60.4,85.6 60.4,85.6L60.3,85.6L59.9,85.6C59,85.6 58.1,85 57.8,84.2L57.5,83.4C57.2,82.7 57.3,82 57.7,81.5C57.8,81.4 57.9,81.3 57.9,81.2C58.4,80.5 58.5,80.4 58.5,80.2C58.5,79.7 58.4,79.2 58.4,78.6L58.4,78.3L58.3,78.2L58.2,78.2Z" style="fill-rule:nonzero;"/>
    </g>
</svg>
