<?xml version="1.0" encoding="utf-8"?>
<!-- Generator: Adobe Illustrator 25.0.1, SVG Export Plug-In . SVG Version: 6.00 Build 0)  -->
<svg version="1.1" id="Layer_1" xmlns="http://www.w3.org/2000/svg" xmlns:xlink="http://www.w3.org/1999/xlink" x="0px" y="0px"
	 viewBox="0 0 90 90" style="enable-background:new 0 0 90 90;" xml:space="preserve">
<path d="M45.9,23c12.6,0,22.8,10.5,22.8,23.5S58.5,70.1,45.9,70.1S23.2,59.5,23.2,46.5S33.4,23,45.9,23z M69.7,46.5
	c0,5.8,4.5,10.5,10.1,10.5S90,52.3,90,46.5S85.5,36,79.9,36S69.7,40.7,69.7,46.5z M61.8,23.2c0,6.9,5.4,12.6,12.1,12.6
	S86,30.2,86,23.2s-5.4-12.6-12.1-12.6C67.2,10.6,61.8,16.2,61.8,23.2z M43.7,12.8c0,5.5,4.3,10,9.7,10s9.7-4.5,9.7-10
	s-4.3-10-9.7-10S43.7,7.3,43.7,12.8z M18,12.8c0,7.1,5.5,12.8,12.4,12.8s12.4-5.7,12.4-12.8S37.2,0,30.3,0S18,5.7,18,12.8z
	 M3.5,31.7c0,6.2,4.9,11.2,10.9,11.2s10.9-5,10.9-11.2s-4.9-11.2-10.9-11.2S3.5,25.5,3.5,31.7z M0,55.9c0,6.7,5.2,12,11.6,12
	s11.6-5.4,11.6-12s-5.2-12-11.6-12S0,49.2,0,55.9z M16.1,73.6c0,5.4,4.2,9.7,9.4,9.7s9.4-4.4,9.4-9.7c0-5.4-4.2-9.7-9.4-9.7
	S16.1,68.3,16.1,73.6z M34.8,80.5c0,5.2,4.1,9.5,9.1,9.5s9.1-4.2,9.1-9.5c0-5.2-4.1-9.5-9.1-9.5S34.8,75.3,34.8,80.5z M53.6,75.8
	c0,5.2,4,9.3,9,9.3s9-4.2,9-9.3s-4-9.3-9-9.3S53.6,70.6,53.6,75.8z"/>
</svg>
