<?xml version="1.0" encoding="utf-8"?>
<!-- Generator: Adobe Illustrator 25.0.1, SVG Export Plug-In . SVG Version: 6.00 Build 0)  -->
<svg version="1.1" id="Layer_1" xmlns="http://www.w3.org/2000/svg" xmlns:xlink="http://www.w3.org/1999/xlink" x="0px" y="0px"
	 viewBox="0 0 68 68" style="enable-background:new 0 0 68 68;" xml:space="preserve">
<path d="M12.1,60C4.7,53.8,0,44.4,0,34C0,15.2,15.2,0,34,0s34,15.2,34,34c0,10.4-4.7,19.8-12.1,26c2.6-4,4.1-8.8,4.1-14
	c0-14.4-11.6-26-26-26S8,31.6,8,46C8,51.2,9.5,56,12.1,60z M19.3,62.4c-4.5-4-7.3-9.9-7.3-16.4c0-12.2,9.8-22,22-22s22,9.8,22,22
	c0,6.5-2.8,12.4-7.3,16.4c0.9-2,1.3-4.1,1.3-6.4c0-8.8-7.2-16-16-16s-16,7.2-16,16C18,58.3,18.5,60.4,19.3,62.4z M34,68
	c-6.6,0-12-5.4-12-12s5.4-12,12-12s12,5.4,12,12S40.6,68,34,68z"/>
</svg>
