<?xml version="1.0" encoding="UTF-8" standalone="no"?>
<!DOCTYPE svg PUBLIC "-//W3C//DTD SVG 1.1//EN" "http://www.w3.org/Graphics/SVG/1.1/DTD/svg11.dtd">
<svg width="100%" height="100%" viewBox="0 0 92 98" version="1.1" xmlns="http://www.w3.org/2000/svg" xmlns:xlink="http://www.w3.org/1999/xlink" xml:space="preserve" xmlns:serif="http://www.serif.com/" style="fill-rule:evenodd;clip-rule:evenodd;stroke-linejoin:round;stroke-miterlimit:2;">
    <g transform="matrix(1,0,0,1,-4.1,-1)">
        <path d="M34.7,37.8L47,37.8L47,50L34.7,50L34.7,37.8ZM53.1,37.8L65.4,37.8L65.4,50L53.1,50L53.1,37.8ZM71.4,37.8L83.7,37.8L83.7,50L71.4,50L71.4,37.8ZM16.3,74.5L28.6,74.5L28.6,86.8L16.3,86.8L16.3,74.5ZM34.7,74.5L47,74.5L47,86.8L34.7,86.8L34.7,74.5ZM53.1,74.5L65.4,74.5L65.4,86.8L53.1,86.8L53.1,74.5ZM34.7,56.1L47,56.1L47,68.4L34.7,68.4L34.7,56.1ZM53.1,56.1L65.4,56.1L65.4,68.4L53.1,68.4L53.1,56.1ZM71.4,56.1L83.7,56.1L83.7,68.4L71.4,68.4L71.4,56.1ZM16.3,56.1L28.6,56.1L28.6,68.4L16.3,68.4L16.3,56.1ZM83.7,1L83.7,7.1L71.4,7.1L71.4,1L28.6,1L28.6,7.1L16.3,7.1L16.3,1L4.1,1L4.1,99L96,99L96,1L83.7,1ZM89.8,92.9L10.2,92.9L10.2,25.5L89.8,25.5L89.8,92.9Z" style="fill-rule:nonzero;"/>
    </g>
</svg>
