<?xml version="1.0" encoding="UTF-8" standalone="no"?>
<!DOCTYPE svg PUBLIC "-//W3C//DTD SVG 1.1//EN" "http://www.w3.org/Graphics/SVG/1.1/DTD/svg11.dtd">
<svg width="100%" height="100%" viewBox="0 0 18 18" version="1.1" xmlns="http://www.w3.org/2000/svg" xmlns:xlink="http://www.w3.org/1999/xlink" xml:space="preserve" xmlns:serif="http://www.serif.com/" style="fill-rule:evenodd;clip-rule:evenodd;stroke-linejoin:round;stroke-miterlimit:2;">
    <g transform="matrix(0.391527,0,0,0.391527,-0.000115401,-0.126562)">
        <path d="M44.168,24.877L33.837,13.609L33.806,13.638C33.556,11.559 32.718,9.658 31.464,8.105L34.902,3.487C35.553,2.61 35.374,1.368 34.496,0.715C33.616,0.062 32.377,0.244 31.723,1.122L28.452,5.518C26.841,4.579 24.968,4.039 22.973,4.039C20.989,4.039 19.125,4.572 17.52,5.503L14.259,1.122C13.607,0.244 12.364,0.062 11.486,0.715C10.609,1.369 10.426,2.611 11.08,3.487L14.5,8.082C13.237,9.635 12.395,11.54 12.142,13.624L12.125,13.609L1.806,24.877C0.565,26.231 -0.073,27.99 0.007,29.828C0.088,31.665 0.881,33.36 2.236,34.602C3.509,35.768 5.162,36.412 6.887,36.412C6.988,36.412 7.089,36.41 7.189,36.405C9.027,36.325 10.722,35.534 11.965,34.176L12.671,33.404C13.948,37.049 17.109,39.813 21.017,40.521L21.017,43.67C21.017,44.764 21.913,45.651 23.008,45.651C24.103,45.651 24.997,44.762 24.997,43.67L24.997,40.513C28.855,39.794 32.009,37.025 33.278,33.378L34.009,34.176C35.25,35.532 36.948,36.323 38.785,36.405C38.886,36.409 38.986,36.412 39.088,36.412C40.815,36.412 42.465,35.767 43.738,34.602C45.092,33.36 45.884,31.664 45.967,29.827C46.05,27.99 45.409,26.231 44.168,24.877ZM9.764,32.169C9.057,32.94 8.098,33.391 7.055,33.437L6.885,33.44C5.906,33.44 4.967,33.076 4.245,32.414C3.473,31.707 3.023,30.744 2.978,29.701C2.933,28.657 3.296,27.658 4.002,26.889L12.06,18.081L12.06,29.658L9.764,32.169ZM29.901,29.791L16.041,29.791L16.041,24.814L29.901,24.814L29.901,29.791ZM29.901,19.911L16.041,19.911L16.041,14.935L29.901,14.935L29.901,19.911ZM42.997,29.697C42.952,30.741 42.503,31.705 41.73,32.411C41.006,33.074 40.07,33.437 39.088,33.437L38.916,33.434C37.873,33.388 36.9,32.939 36.196,32.167L33.879,29.644L33.879,18.058L41.97,26.884C42.678,27.655 43.043,28.654 42.997,29.697Z" style="fill-rule:nonzero;"/>
    </g>
</svg>
