<?xml version="1.0" encoding="UTF-8" standalone="no"?>
<!DOCTYPE svg PUBLIC "-//W3C//DTD SVG 1.1//EN" "http://www.w3.org/Graphics/SVG/1.1/DTD/svg11.dtd">
<svg width="100%" height="100%" viewBox="0 0 100 100" version="1.1" xmlns="http://www.w3.org/2000/svg" xmlns:xlink="http://www.w3.org/1999/xlink" xml:space="preserve" xmlns:serif="http://www.serif.com/" style="fill-rule:evenodd;clip-rule:evenodd;stroke-linejoin:round;stroke-miterlimit:2;">
    <path d="M50,0C44.514,0 40,4.514 40,10C40.006,14.541 43.103,18.535 47.5,19.67L47.5,40.328C46.598,40.562 45.733,40.921 44.93,41.395L30.324,26.789C32.632,22.876 31.997,17.859 28.787,14.645C26.912,12.77 24.367,11.715 21.716,11.715C19.065,11.715 16.519,12.77 14.645,14.645C12.77,16.519 11.715,19.065 11.715,21.716C11.715,24.367 12.77,26.912 14.645,28.787C17.86,31.993 22.874,32.627 26.785,30.32L41.391,44.926C40.919,45.73 40.562,46.597 40.33,47.5L19.674,47.5C18.538,43.102 14.542,40.004 10,40C4.514,40 0,44.514 0,50C0,55.486 4.514,60 10,60C14.541,59.994 18.535,56.897 19.67,52.5L40.328,52.5C40.562,53.402 40.921,54.267 41.395,55.07L26.789,69.676C22.876,67.368 17.859,68.003 14.645,71.213C12.77,73.088 11.715,75.633 11.715,78.284C11.715,80.935 12.77,83.481 14.645,85.355C16.519,87.23 19.065,88.285 21.716,88.285C24.367,88.285 26.912,87.23 28.787,85.355C31.993,82.14 32.627,77.126 30.32,73.215L44.926,58.609C45.73,59.081 46.597,59.438 47.5,59.67L47.5,80.328C45.772,80.772 44.194,81.67 42.93,82.93C39.052,86.809 39.052,93.191 42.93,97.07C46.809,100.948 53.191,100.948 57.07,97.07C60.948,93.191 60.948,86.809 57.07,82.93C55.806,81.671 54.228,80.773 52.5,80.33L52.5,59.672C53.402,59.438 54.267,59.079 55.07,58.605L69.678,73.213C68.769,74.749 68.288,76.501 68.285,78.285C68.285,83.771 72.799,88.285 78.285,88.285C83.771,88.285 88.285,83.771 88.285,78.285C88.285,72.799 83.771,68.285 78.285,68.285C76.501,68.288 74.749,68.769 73.213,69.678L58.609,55.074C59.081,54.27 59.438,53.403 59.67,52.5L80.328,52.5C80.772,54.228 81.67,55.806 82.93,57.07C86.809,60.948 93.191,60.948 97.07,57.07C100.948,53.191 100.948,46.809 97.07,42.93C93.191,39.052 86.809,39.052 82.93,42.93C81.671,44.194 80.773,45.772 80.33,47.5L59.672,47.5C59.438,46.598 59.079,45.733 58.605,44.93L73.213,30.322C74.749,31.231 76.501,31.712 78.285,31.715C83.771,31.715 88.285,27.201 88.285,21.715C88.285,16.229 83.771,11.715 78.285,11.715C72.799,11.715 68.285,16.229 68.285,21.715C68.288,23.499 68.769,25.251 69.678,26.787L55.074,41.391C54.27,40.919 53.403,40.562 52.5,40.33L52.5,19.674C56.898,18.538 59.996,14.542 60,10C60,4.514 55.486,0 50,0Z" style="fill-rule:nonzero;"/>
</svg>
