<svg xmlns="http://www.w3.org/2000/svg" xmlns:xlink="http://www.w3.org/1999/xlink" width="20" height="20" preserveAspectRatio="xMidYMid meet" viewBox="0 0 20 20" style="-ms-transform: rotate(360deg); -webkit-transform: rotate(360deg); transform: rotate(360deg);"><path d="M18 14V4c0-.55-.45-1-1-1H3c-.55 0-1 .45-1 1v10c0 .55.45 1 1 1h14c.55 0 1-.45 1-1zm-8-8c2.3 0 4.4 1.14 6 3c-1.6 1.86-3.7 3-6 3s-4.4-1.14-6-3c1.6-1.86 3.7-3 6-3zm2 3c0-1.1-.9-2-2-2s-2 .9-2 2s.9 2 2 2s2-.9 2-2zm2 8h3v1H3v-1h3v-1h8v1z" fill="black"/><rect x="0" y="0" width="20" height="20" fill="rgba(0, 0, 0, 0)" /></svg>