<?xml version="1.0" encoding="utf-8"?>
<!-- Generator: Adobe Illustrator 25.2.1, SVG Export Plug-In . SVG Version: 6.00 Build 0)  -->
<svg version="1.1" id="Layer_1" xmlns="http://www.w3.org/2000/svg" xmlns:xlink="http://www.w3.org/1999/xlink" x="0px" y="0px"
	 viewBox="0 0 508 357.2" style="enable-background:new 0 0 508 357.2;" xml:space="preserve">
<g>
	<path d="M312.8,1.3c-13.4-4.5-27.7,2.8-32.1,16.1L179.1,322.2c-4.4,13.3,3.5,26,16.1,32.1c12.9,6.3,27.2,2.7,32.1-16.1L328.9,33.4
		C333.3,20.2,326.1,5.8,312.8,1.3z"/>
	<path d="M496.4,156.5l-127-81.8c-11.8-7.6-27.5-4.2-35.1,7.6s-4.2,27.5,7.6,35.1l93.9,60.5l-93.9,60.5
		c-11.8,7.6-14.1,22.7-7.6,35.1c6.6,12.6,20.3,14.6,35.1,7.6l127-81.9c7.3-4.7,11.6-12.7,11.6-21.3
		C508,169.2,503.6,161.2,496.4,156.5z"/>
	<path d="M166.2,238.4l-93.9-60.5l93.9-60.5c11.8-7.6,15.2-23.3,7.6-35.1c-7.6-11.8-23.3-15.2-35.1-7.6l-127,81.8
		C4.4,161.2,0,169.2,0,177.8s4.4,16.7,11.6,21.3l127,81.9c20.2,10.5,28.9,2.6,35.1-7.6C181.1,261.5,177.9,245.9,166.2,238.4z"/>
</g>
</svg>
