<svg xmlns="http://www.w3.org/2000/svg" xmlns:xlink="http://www.w3.org/1999/xlink" width="20" height="20" preserveAspectRatio="xMidYMid meet" viewBox="0 0 20 20" style="-ms-transform: rotate(360deg); -webkit-transform: rotate(360deg); transform: rotate(360deg);"><g fill="none"><path d="M3 12v3c0 1.657 3.134 3 7 3s7-1.343 7-3v-3c0 1.657-3.134 3-7 3s-7-1.343-7-3z" fill="black"/><path d="M3 7v3c0 1.657 3.134 3 7 3s7-1.343 7-3V7c0 1.657-3.134 3-7 3S3 8.657 3 7z" fill="black"/><path d="M17 5c0 1.657-3.134 3-7 3S3 6.657 3 5s3.134-3 7-3s7 1.343 7 3z" fill="black"/></g><rect x="0" y="0" width="20" height="20" fill="rgba(0, 0, 0, 0)" /></svg>