<?xml version="1.0" encoding="utf-8"?>
<!-- Generator: Adobe Illustrator 25.2.1, SVG Export Plug-In . SVG Version: 6.00 Build 0)  -->
<svg version="1.1"
	 id="Layer_1" xmlns:cc="http://creativecommons.org/ns#" xmlns:dc="http://purl.org/dc/elements/1.1/" xmlns:inkscape="http://www.inkscape.org/namespaces/inkscape" xmlns:rdf="http://www.w3.org/1999/02/22-rdf-syntax-ns#" xmlns:sodipodi="http://sodipodi.sourceforge.net/DTD/sodipodi-0.dtd" xmlns:svg="http://www.w3.org/2000/svg"
	 xmlns="http://www.w3.org/2000/svg" xmlns:xlink="http://www.w3.org/1999/xlink" x="0px" y="0px" viewBox="0 0 90 90"
	 style="enable-background:new 0 0 90 90;" xml:space="preserve">
<g transform="translate(0,-952.36218)">
	<path d="M39,952.4c-5.5,0-10,4.5-10,10c0,6.8,3.8,15.3,7.8,23.2c-3.1,9.8-6.7,20.2-11.2,29.1c-9.3,3.6-17.5,6.3-22.5,10.3
		c-0.1,0.1-0.2,0.2-0.2,0.2c-1.8,1.9-2.9,4.4-2.9,7.1c0,5.5,4.5,10,10,10c2.7,0,5.3-1,7.1-2.9c0.1,0,0.1-0.1,0.2-0.2
		c3.7-4.4,8-12.3,11.8-19.5c8.9-3.5,18.1-7,27.1-9.2c6.5,5.3,16,8.8,23.8,8.8c5.5,0,10-4.5,10-10s-4.5-10-10-10
		c-6.2,0-15.3,2.2-22.2,4.6c-5.6-5.3-10.8-11.9-14.5-18.9c2.7-8.2,5.8-16.3,5.8-22.7C49,956.9,44.5,952.4,39,952.4z M39,958.4
		c2.2,0,4,1.8,4,4c0,3-1.6,8.5-3.5,14.5c-2.5-5.8-4.5-11.3-4.5-14.5C35,960.1,36.8,958.4,39,958.4z M40.7,992.6
		c3,4.8,6.5,9.2,10.4,13.2c-5.9,1.6-11.7,3.7-17.4,5.9C36.4,1005.4,38.6,998.9,40.7,992.6z M80,1005.4c2.2,0,4,1.8,4,4s-1.8,4-4,4
		c-4.5,0-10.9-2-16-4.9C69.8,1006.8,76.3,1005.4,80,1005.4z M20.3,1023.3c-2.8,5-5.6,9.7-7.6,12.1c-0.7,0.6-1.6,1-2.8,1
		c-2.2,0-4-1.8-4-4c0-1.1,0.4-2.1,1.1-2.8C9.4,1027.8,14.5,1025.6,20.3,1023.3z"/>
</g>
</svg>
