<?xml version="1.0" encoding="utf-8"?>
<!-- Generator: Adobe Illustrator 25.2.1, SVG Export Plug-In . SVG Version: 6.00 Build 0)  -->
<svg version="1.1"
	 id="Layer_1" xmlns:cc="http://creativecommons.org/ns#" xmlns:dc="http://purl.org/dc/elements/1.1/" xmlns:rdf="http://www.w3.org/1999/02/22-rdf-syntax-ns#"
	 xmlns="http://www.w3.org/2000/svg" xmlns:xlink="http://www.w3.org/1999/xlink" x="0px" y="0px" viewBox="0 0 93 86.9"
	 style="enable-background:new 0 0 93 86.9;" xml:space="preserve">
<path d="M33.9,0c-3.2-0.1-5.8,1.4-6.1,3.5l-2.3,15.3l-15.5,0c-2.5,0-4.5,3.1-4.5,6.9s2,6.9,4.5,6.9l13.4,0L20,54.3l-15.5,0
	C2,54.3,0,57.4,0,61.2c0,3.8,2,6.9,4.5,6.9l13.3,0l-2,13.2c-0.4,2.5,2.4,4.9,6.2,5.5c3.8,0.6,7.1-0.9,7.5-3.4l2.3-15.3l21.8,0
	l-2,13.2c-0.4,2.5,2.4,4.9,6.2,5.5c3.8,0.6,7.1-0.9,7.5-3.4L67.7,68l15.5,0c2.5,0,4.5-3.1,4.5-6.9c0-3.8-2-6.9-4.5-6.9l-13.4,0
	l3.3-21.5l15.5,0c2.5,0,4.5-3.1,4.5-6.9s-2-6.9-4.5-6.9l-13.3,0l2-13.2c0.4-2.5-2.4-4.9-6.2-5.5c-3.8-0.6-7.1,0.9-7.5,3.4l-2.3,15.3
	l-21.8,0l2-13.2c0.4-2.5-2.4-4.9-6.2-5.5C34.8,0.1,34.3,0,33.9,0L33.9,0z M59.1,32.7l-3.3,21.5l-21.8,0l3.3-21.5
	C37.3,32.7,59.1,32.7,59.1,32.7z"/>
</svg>
