<?xml version="1.0" encoding="UTF-8" standalone="no"?><!DOCTYPE svg PUBLIC "-//W3C//DTD SVG 1.1//EN" "http://www.w3.org/Graphics/SVG/1.1/DTD/svg11.dtd"><svg width="100%" height="100%" viewBox="0 0 76 69" version="1.1" xmlns="http://www.w3.org/2000/svg" xmlns:xlink="http://www.w3.org/1999/xlink" xml:space="preserve" xmlns:serif="http://www.serif.com/" style="fill-rule:evenodd;clip-rule:evenodd;stroke-linejoin:round;stroke-miterlimit:1.41421;"><g><path d="M53.126,25.001l-31.25,0c-1.728,0 -3.125,-1.397 -3.125,-3.125c0,-1.728 1.397,-3.125 3.125,-3.125l31.25,0c1.728,0 3.125,1.397 3.125,3.125c0,1.728 -1.397,3.125 -3.125,3.125Z" style="fill-rule:nonzero;"/><path d="M21.876,31.251l31.25,0c1.728,0 3.125,1.397 3.125,3.125c0,1.728 -1.397,3.125 -3.125,3.125l-31.25,0c-1.728,0 -3.125,-1.397 -3.125,-3.125c0,-1.728 1.397,-3.125 3.125,-3.125Z" style="fill-rule:nonzero;"/><path d="M21.876,43.751l31.25,0c1.728,0 3.125,1.397 3.125,3.125c0,1.728 -1.397,3.125 -3.125,3.125l-31.25,0c-1.728,0 -3.125,-1.397 -3.125,-3.125c0,-1.728 1.397,-3.125 3.125,-3.125Z" style="fill-rule:nonzero;"/><path d="M57.166,7.166l6.25,-6.25c1.222,-1.221 3.197,-1.221 4.419,0l6.25,6.25c1.222,1.222 1.222,3.197 0,4.419c-1.222,1.222 -3.197,1.222 -4.419,0l-0.915,-0.915l0,17.456c0,1.728 -1.397,3.125 -3.125,3.125c-1.728,0 -3.125,-1.397 -3.125,-3.125l0,-17.456l-0.916,0.915c-0.609,0.61 -1.409,0.916 -2.209,0.916c-0.8,0 -1.6,-0.306 -2.21,-0.916c-1.221,-1.222 -1.221,-3.197 0,-4.419Z" style="fill-rule:nonzero;"/><path d="M0.916,57.166c1.222,-1.221 3.197,-1.221 4.419,0l0.916,0.916l0,-17.456c0,-1.728 1.397,-3.125 3.125,-3.125c1.728,0 3.125,1.397 3.125,3.125l0,17.456l0.915,-0.916c1.222,-1.221 3.197,-1.221 4.419,0c1.222,1.222 1.222,3.197 0,4.419l-6.25,6.25c-0.609,0.61 -1.409,0.916 -2.209,0.916c-0.8,0 -1.6,-0.306 -2.21,-0.916l-6.25,-6.25c-1.221,-1.222 -1.221,-3.197 0,-4.419Z" style="fill-rule:nonzero;"/></g></svg>