<svg xmlns="http://www.w3.org/2000/svg" xmlns:xlink="http://www.w3.org/1999/xlink" width="32" height="32" preserveAspectRatio="xMidYMid meet" viewBox="0 0 32 32" style="-ms-transform: rotate(360deg); -webkit-transform: rotate(360deg); transform: rotate(360deg);"><path d="M28 30h-6a2.002 2.002 0 0 1-2-2V10a2.002 2.002 0 0 1 2-2h6a2.002 2.002 0 0 1 2 2v18a2.002 2.002 0 0 1-2 2zm-6-20v18h6V10z" fill="black"/><path d="M16 9l5.586-5.586L20.172 2L16 6.172L11.828 2l-1.414 1.414L16 9z" fill="black"/><path d="M10 30H4a2.002 2.002 0 0 1-2-2V10a2.002 2.002 0 0 1 2-2h6a2.002 2.002 0 0 1 2 2v18a2.002 2.002 0 0 1-2 2zM4 10v18h6V10z" fill="black"/><rect x="0" y="0" width="32" height="32" fill="rgba(0, 0, 0, 0)" /></svg>