<?xml version="1.0" encoding="UTF-8" standalone="no"?>
<!DOCTYPE svg PUBLIC "-//W3C//DTD SVG 1.1//EN" "http://www.w3.org/Graphics/SVG/1.1/DTD/svg11.dtd">
<svg width="100%" height="100%" viewBox="0 0 90 82" version="1.1" xmlns="http://www.w3.org/2000/svg" xmlns:xlink="http://www.w3.org/1999/xlink" xml:space="preserve" xmlns:serif="http://www.serif.com/" style="fill-rule:evenodd;clip-rule:evenodd;stroke-linejoin:round;stroke-miterlimit:2;">
    <g transform="matrix(1,0,0,1,-5.3,-9.4)">
        <path d="M84.8,39.3C80.4,39.3 76.7,42.1 75.3,46L59.6,46C59.2,44.9 58.6,43.8 57.8,42.9L65.5,29.6C66.1,29.7 66.7,29.8 67.3,29.8C72.9,29.8 77.5,25.3 77.5,19.6C77.5,14 73,9.4 67.3,9.4C61.7,9.4 57.2,13.9 57.2,19.6C57.2,22.1 58.1,24.4 59.6,26.1L51.9,39.4C51.3,39.3 50.7,39.2 50.1,39.2C45.7,39.2 42,42 40.6,45.9L24.9,45.9C23.5,42 19.8,39.2 15.4,39.2C9.8,39.2 5.3,43.7 5.3,49.4C5.3,55 9.8,59.6 15.4,59.6C19.8,59.6 23.5,56.8 24.9,52.9L40.6,52.9C42,56.8 45.7,59.6 50.1,59.6C50.6,59.6 51.1,59.5 51.6,59.5L59.7,73.6C58.1,75.4 57.1,77.8 57.1,80.4C57.1,86 61.6,90.6 67.2,90.6C72.8,90.6 77.4,86.1 77.4,80.4C77.4,74.8 72.9,70.2 67.2,70.2C66.7,70.2 66.2,70.2 65.8,70.3L57.6,56.1C58.4,55.2 59.1,54.1 59.5,52.9L75.2,52.9C76.6,56.8 80.3,59.6 84.7,59.6C90.3,59.6 94.9,55.1 94.9,49.4C95,43.9 90.4,39.3 84.8,39.3Z" style="fill-rule:nonzero;"/>
    </g>
</svg>
