<?xml version="1.0" encoding="UTF-8" standalone="no"?><!DOCTYPE svg PUBLIC "-//W3C//DTD SVG 1.1//EN" "http://www.w3.org/Graphics/SVG/1.1/DTD/svg11.dtd"><svg width="100%" height="100%" viewBox="0 0 282 282" version="1.1" xmlns="http://www.w3.org/2000/svg" xmlns:xlink="http://www.w3.org/1999/xlink" xml:space="preserve" xmlns:serif="http://www.serif.com/" style="fill-rule:evenodd;clip-rule:evenodd;stroke-linejoin:round;stroke-miterlimit:1.41421;"><path d="M10.89,230.053l76.846,-66.062c-11.153,-16.735 -17.671,-36.819 -17.671,-58.4c0,-58.219 47.368,-105.591 105.59,-105.591c58.222,0 105.597,47.369 105.597,105.594c0,58.225 -47.375,105.594 -105.597,105.594c-21.578,0 -41.659,-6.519 -58.4,-17.672l-66.059,76.846c-11.066,13.613 -30.094,14.597 -42.503,2.191c-12.4,-12.406 -11.416,-31.434 2.197,-42.5Zm164.768,-45.712c43.422,0 78.75,-35.332 78.75,-78.747c0,-43.425 -35.331,-78.75 -78.75,-78.75c-43.425,0 -78.743,35.325 -78.743,78.75c0,43.425 35.318,78.75 78.743,78.747Z" style="fill-rule:nonzero;"/></svg>