<svg xmlns="http://www.w3.org/2000/svg" xmlns:xlink="http://www.w3.org/1999/xlink" width="32" height="32" preserveAspectRatio="xMidYMid meet" viewBox="0 0 32 32" style="-ms-transform: rotate(360deg); -webkit-transform: rotate(360deg); transform: rotate(360deg);"><path d="M26 4v24H6V4h20m0-2H6a2 2 0 0 0-2 2v24a2 2 0 0 0 2 2h20a2 2 0 0 0 2-2V4a2 2 0 0 0-2-2z" fill="black"/><path d="M9 23h2v2H9z" fill="black"/><path d="M21 23h2v2h-2z" fill="black"/><path d="M9 18h2v2H9z" fill="black"/><path d="M21 18h2v2h-2z" fill="black"/><path d="M9 13h2v2H9z" fill="black"/><path d="M15 23h2v2h-2z" fill="black"/><path d="M15 18h2v2h-2z" fill="black"/><path d="M15 13h2v2h-2z" fill="black"/><path d="M21 13h2v2h-2z" fill="black"/><path d="M9 7h14v3H9z" fill="black"/><rect x="0" y="0" width="32" height="32" fill="rgba(0, 0, 0, 0)" /></svg>