<?xml version="1.0" encoding="UTF-8" standalone="no"?>
<!DOCTYPE svg PUBLIC "-//W3C//DTD SVG 1.1//EN" "http://www.w3.org/Graphics/SVG/1.1/DTD/svg11.dtd">
<svg width="100%" height="100%" viewBox="0 0 81 89" version="1.1" xmlns="http://www.w3.org/2000/svg" xmlns:xlink="http://www.w3.org/1999/xlink" xml:space="preserve" xmlns:serif="http://www.serif.com/" style="fill-rule:evenodd;clip-rule:evenodd;stroke-linejoin:round;stroke-miterlimit:2;">
    <g transform="matrix(1,0,0,1,-9.76,-5.759)">
        <path d="M84,59.981L84,41.238C87.491,39.978 89.99,36.646 89.99,32.718C89.99,27.708 85.931,23.651 80.923,23.651C78.807,23.651 76.862,24.383 75.319,25.6L58.328,16.026C58.38,15.632 58.416,15.234 58.416,14.826C58.416,9.816 54.357,5.759 49.349,5.759C44.346,5.759 40.282,9.817 40.282,14.826C40.282,15.288 40.328,15.739 40.394,16.182L24.11,25.358C22.622,24.288 20.801,23.651 18.827,23.651C13.824,23.651 9.76,27.708 9.76,32.718C9.76,36.357 11.909,39.484 15,40.927L15,60.29C11.909,61.734 9.76,64.862 9.76,68.501C9.76,73.511 13.824,77.566 18.827,77.566C21.214,77.566 23.378,76.637 24.997,75.131L40.418,83.82C40.335,84.315 40.281,84.82 40.281,85.34C40.281,90.35 44.345,94.405 49.348,94.405C54.357,94.405 58.415,90.349 58.415,85.34C58.415,84.875 58.369,84.423 58.302,83.978L74.471,74.867C76.116,76.532 78.399,77.566 80.922,77.566C85.931,77.566 89.989,73.51 89.989,68.501C89.99,64.575 87.491,61.242 84,59.981ZM43.329,78.575L27.788,69.818C27.85,69.387 27.894,68.95 27.894,68.502C27.894,64.244 24.956,60.683 20.999,59.707L20.999,41.511C22.447,41.155 23.755,40.453 24.836,39.495L40.988,49.004C40.907,49.492 40.854,49.99 40.854,50.502C40.854,54.486 43.429,57.859 46.999,59.076L46.999,76.593C45.618,76.964 44.368,77.65 43.329,78.575ZM55.704,43.517C54.135,42.217 52.12,41.435 49.923,41.435C47.604,41.435 45.493,42.314 43.889,43.749L27.756,34.251C27.841,33.752 27.895,33.242 27.895,32.718C27.895,31.88 27.772,31.072 27.56,30.301L43.21,21.483C44.826,22.974 46.979,23.892 49.35,23.892C51.779,23.892 53.98,22.933 55.607,21.379L72.098,30.671C71.946,31.33 71.857,32.013 71.857,32.719C71.857,33.02 71.874,33.317 71.902,33.61L55.704,43.517ZM55.485,78.68C54.756,78.007 53.92,77.451 53,77.045L53,59.021C56.491,57.76 58.99,54.429 58.99,50.501C58.99,49.868 58.925,49.251 58.801,48.654L74.463,39.073C75.442,40.068 76.651,40.831 78,41.292L78,59.924C74.431,61.142 71.855,64.517 71.855,68.5C71.855,68.813 71.871,69.122 71.902,69.427L55.485,78.68Z" style="fill-rule:nonzero;"/>
    </g>
</svg>
