<?xml version="1.0" encoding="UTF-8" standalone="no"?><!DOCTYPE svg PUBLIC "-//W3C//DTD SVG 1.1//EN" "http://www.w3.org/Graphics/SVG/1.1/DTD/svg11.dtd"><svg width="100%" height="100%" viewBox="0 0 125 110" version="1.1" xmlns="http://www.w3.org/2000/svg" xmlns:xlink="http://www.w3.org/1999/xlink" xml:space="preserve" xmlns:serif="http://www.serif.com/" style="fill-rule:evenodd;clip-rule:evenodd;stroke-linejoin:round;stroke-miterlimit:1.41421;"><g><path d="M96.286,56.25c4.388,13.236 11.329,25 28.714,25l0,-6.25c-17.439,0 -21.376,-14.624 -25.932,-31.555c-4.473,-16.621 -9.554,-35.314 -30.318,-37.026l0,-6.419l-6.25,0l0,6.415c-19.968,1.674 -25.525,19.312 -30.428,34.997c-5.398,17.273 -10.499,33.588 -32.072,33.588l0,6.25c19.857,0 28.269,-11.621 33.607,-25l28.893,0l0,31.25l-62.5,0l0,6.25l62.5,0l0,15.625l6.25,0l0,-15.625l56.25,0l0,-6.25l-56.25,0l0,-31.25l27.536,0Zm-3.253,-11.182c0.438,1.629 0.889,3.28 1.353,4.932l-25.636,0l0,-37.337c15.988,1.626 19.856,15.954 24.283,32.405Zm-57.148,4.932c0.753,-2.249 1.459,-4.504 2.152,-6.723c4.848,-15.513 9.08,-29.031 24.463,-30.617l0,37.34l-26.615,0Z" style="fill-rule:nonzero;"/><rect x="0" y="100" width="6.25" height="9.375"/><rect x="28.125" y="100" width="6.25" height="9.375"/><rect x="90.625" y="100" width="6.25" height="9.375"/><rect x="118.75" y="100" width="6.25" height="9.375"/></g></svg>