<?xml version="1.0" encoding="UTF-8" standalone="no"?>
<!DOCTYPE svg PUBLIC "-//W3C//DTD SVG 1.1//EN" "http://www.w3.org/Graphics/SVG/1.1/DTD/svg11.dtd">
<svg width="100%" height="100%" viewBox="0 0 56 64" version="1.1" xmlns="http://www.w3.org/2000/svg" xmlns:xlink="http://www.w3.org/1999/xlink" xml:space="preserve" xmlns:serif="http://www.serif.com/" style="fill-rule:evenodd;clip-rule:evenodd;stroke-linejoin:round;stroke-miterlimit:1.41421;">
    <g transform="matrix(1,0,0,1,-21.9,-20.7)">
        <path d="M49.6,48.3C57.2,48.3 63.4,42.1 63.4,34.5C63.4,26.9 57.2,20.7 49.6,20.7C42,20.7 35.8,26.9 35.8,34.5C35.8,42.1 42,48.3 49.6,48.3ZM52.7,45.9L60.9,37.7C59.9,41.7 56.7,44.8 52.7,45.9ZM61.4,34.5C61.4,34.7 61.4,34.9 61.4,35.1L50.2,46.3C50,46.3 49.8,46.3 49.6,46.3C48.9,46.3 48.3,46.2 47.6,46.1L61.2,32.5C61.4,33.2 61.4,33.8 61.4,34.5ZM60.1,29C60.4,29.6 60.7,30.2 60.9,30.8L45.9,45.7C45.3,45.5 44.7,45.2 44.1,44.9L60.1,29ZM59.2,27.7L42.8,44.2C42.3,43.9 41.9,43.5 41.5,43.1L58.2,26.4C58.6,26.8 58.9,27.3 59.2,27.7ZM45.5,23.5L38.6,30.4C39.8,27.2 42.3,24.7 45.5,23.5ZM37.8,34.5C37.8,34 37.8,33.6 37.9,33.1L48.3,22.7C48.7,22.6 49.2,22.6 49.7,22.6C50,22.6 50.4,22.6 50.7,22.7L37.9,35.5C37.8,35.2 37.8,34.9 37.8,34.5ZM38.2,37.4L52.5,23.1C53.1,23.2 53.7,23.4 54.2,23.7L38.7,39.1C38.5,38.5 38.3,38 38.2,37.4ZM55.6,24.4C56.1,24.7 56.6,25.1 57.1,25.4L40.5,42C40.1,41.5 39.8,41 39.5,40.5L55.6,24.4Z" style="fill-rule:nonzero;"/>
        <path d="M31.5,68.2C28.8,68.2 26.6,70.4 26.6,73.1C26.6,75.8 28.8,78 31.5,78C34.2,78 36.4,75.8 36.4,73.1C36.4,70.4 34.2,68.2 31.5,68.2Z" style="fill-rule:nonzero;"/>
        <path d="M70.3,38.2C73,38.2 75.2,36 75.2,33.3C75.2,30.6 73,28.4 70.3,28.4C67.6,28.4 65.4,30.6 65.4,33.3C65.4,36 67.6,38.2 70.3,38.2ZM70.3,30.5C71.9,30.5 73.2,31.8 73.2,33.4C73.2,35 71.9,36.3 70.3,36.3C68.7,36.3 67.4,35 67.4,33.4C67.4,31.8 68.7,30.5 70.3,30.5Z" style="fill-rule:nonzero;"/>
        <path d="M33.5,38.1C33.5,34.9 30.9,32.3 27.7,32.3C24.5,32.3 21.9,34.9 21.9,38.1C21.9,41.3 24.5,43.9 27.7,43.9C30.9,43.9 33.5,41.3 33.5,38.1Z" style="fill-rule:nonzero;"/>
        <path d="M46.9,57.1C46.9,60.5 49.6,63.2 53,63.2C56.4,63.2 59.1,60.5 59.1,57.1C59.1,53.7 56.4,51 53,51C49.6,51 46.9,53.7 46.9,57.1ZM57.1,57.1C57.1,59.4 55.3,61.2 53,61.2C50.7,61.2 48.9,59.4 48.9,57.1C48.9,54.9 50.7,53 53,53C55.3,53 57.1,54.8 57.1,57.1Z" style="fill-rule:nonzero;"/>
        <path d="M67.4,58C62.6,58 58.7,61.9 58.7,66.7C58.7,71.5 62.6,75.4 67.4,75.4C72.2,75.4 76.1,71.5 76.1,66.7C76.1,61.9 72.3,58 67.4,58Z" style="fill-rule:nonzero;"/>
        <path d="M34,66.4C39.7,66.4 44.3,61.8 44.3,56.1C44.3,50.4 39.7,45.8 34,45.8C28.3,45.8 23.7,50.4 23.7,56.1C23.7,61.8 28.3,66.4 34,66.4ZM34,47.8C38.6,47.8 42.3,51.5 42.3,56.1C42.3,60.7 38.6,64.4 34,64.4C29.4,64.4 25.7,60.7 25.7,56.1C25.7,51.5 29.4,47.8 34,47.8Z" style="fill-rule:nonzero;"/>
        <path d="M48.2,64.9C42.9,64.9 38.6,69.2 38.6,74.5C38.6,79.8 42.9,84.1 48.2,84.1C53.5,84.1 57.8,79.8 57.8,74.5C57.8,69.2 53.5,64.9 48.2,64.9ZM47,81.9C46.2,81.8 45.5,81.5 44.8,81.2L55,71.1C55.3,71.8 55.6,72.5 55.7,73.3L47,81.9ZM49.5,67C50.2,67.1 50.9,67.4 51.5,67.7L41.4,77.8C41.1,77.2 40.9,76.5 40.7,75.8L49.5,67ZM47.4,66.9L40.6,73.7C41,70.2 43.9,67.3 47.4,66.9ZM42.2,79.1L52.8,68.5C53.3,68.9 53.7,69.3 54.1,69.8L43.5,80.4C43,80.1 42.6,79.6 42.2,79.1ZM49.1,82L55.7,75.4C55.3,78.8 52.5,81.6 49.1,82Z" style="fill-rule:nonzero;"/>
        <path d="M69.8,56.1C74.2,56.1 77.8,52.5 77.8,48.1C77.8,43.7 74.2,40.1 69.8,40.1C65.4,40.1 61.8,43.7 61.8,48.1C61.8,52.5 65.4,56.1 69.8,56.1ZM72.7,53.4L75.2,50.9C74.6,52 73.7,52.8 72.7,53.4ZM75.5,46.1C75.7,46.7 75.8,47.4 75.8,48.1L69.8,54.1C69.1,54.1 68.4,54 67.8,53.8L75.5,46.1ZM74.8,44.7L66.4,53.1C65.8,52.7 65.3,52.2 64.9,51.6L73.3,43.2C73.9,43.6 74.4,44.1 74.8,44.7ZM67.2,42.7L64.4,45.5C65,44.3 66,43.3 67.2,42.7ZM69.9,42.1C70.6,42.1 71.2,42.2 71.9,42.5L64.2,50.2C64,49.6 63.8,48.9 63.8,48.2L69.9,42.1Z" style="fill-rule:nonzero;"/>
    </g>
</svg>
