<svg xmlns="http://www.w3.org/2000/svg" xmlns:xlink="http://www.w3.org/1999/xlink" width="24" height="24" preserveAspectRatio="xMidYMid meet" viewBox="0 0 24 24" style="-ms-transform: rotate(360deg); -webkit-transform: rotate(360deg); transform: rotate(360deg);"><path d="M8 20H5a2 2 0 0 1-2-2V6a2 2 0 0 1 2-2h3a2 2 0 0 1 2 2v12a2 2 0 0 1-2 2zm8-10h4a2 2 0 0 0 2-2V5a2 2 0 0 0-2-2h-4a2 2 0 0 0-2 2v3a2 2 0 0 0 2 2zm5 10v-6a2 2 0 0 0-2-2h-5a2 2 0 0 0-2 2v6a2 2 0 0 0 2 2h5a2 2 0 0 0 2-2z" fill="black"/><rect x="0" y="0" width="24" height="24" fill="rgba(0, 0, 0, 0)" /></svg>