<?xml version="1.0" encoding="UTF-8" standalone="no"?>
<!DOCTYPE svg PUBLIC "-//W3C//DTD SVG 1.1//EN" "http://www.w3.org/Graphics/SVG/1.1/DTD/svg11.dtd">
<svg width="100%" height="100%" viewBox="0 0 90 90" version="1.1" xmlns="http://www.w3.org/2000/svg" xmlns:xlink="http://www.w3.org/1999/xlink" xml:space="preserve" xmlns:serif="http://www.serif.com/" style="fill-rule:evenodd;clip-rule:evenodd;stroke-linejoin:round;stroke-miterlimit:2;">
    <g transform="matrix(1,0,0,1,-5,-5)">
        <path d="M93.8,10.6C93.8,13.7 91.3,16.2 88.2,16.2C85.1,16.2 82.6,13.7 82.6,10.6C82.6,7.5 85,5 88.1,5C91.2,5 93.8,7.5 93.8,10.6ZM67.9,16.3C64.8,16.3 62.3,18.8 62.3,21.9C62.3,25 64.8,27.5 67.9,27.5C71,27.5 73.5,25 73.5,21.9C73.5,18.8 71,16.3 67.9,16.3ZM15.6,45C12.5,45 10,47.5 10,50.6C10,53.7 12.5,56.2 15.6,56.2C18.7,56.2 21.2,53.7 21.2,50.6C21.2,47.5 18.7,45 15.6,45ZM26.9,62.5C23.8,62.5 21.3,65 21.3,68.1C21.3,71.2 23.8,73.7 26.9,73.7C30,73.7 32.5,71.2 32.5,68.1C32.5,65 30,62.5 26.9,62.5ZM38.1,45C35,45 32.5,47.5 32.5,50.6C32.5,53.7 35,56.2 38.1,56.2C41.2,56.2 43.7,53.7 43.7,50.6C43.7,47.5 41.2,45 38.1,45ZM10.6,75.5C7.5,75.5 5,78 5,81.1C5,84.2 7.5,86.7 10.6,86.7C13.7,86.7 16.2,84.2 16.2,81.1C16.2,78 13.7,75.5 10.6,75.5ZM20.6,40C17.5,40 15,42.5 15,45.6C15,48.7 17.5,51.2 20.6,51.2C23.7,51.2 26.2,48.7 26.2,45.6C26.2,42.5 23.7,40 20.6,40ZM26.9,10C23.8,10 21.3,12.5 21.3,15.6C21.3,18.7 23.8,21.2 26.9,21.2C30,21.2 32.5,18.7 32.5,15.6C32.5,12.5 30,10 26.9,10ZM65.6,33.8C62.5,33.8 60,36.3 60,39.4C60,42.5 62.5,45 65.6,45C68.7,45 71.2,42.5 71.2,39.4C71.2,36.3 68.7,33.8 65.6,33.8ZM66.9,56.3C63.8,56.3 61.3,58.8 61.3,61.9C61.3,65 63.8,67.5 66.9,67.5C70,67.5 72.5,65 72.5,61.9C72.5,58.8 70,56.3 66.9,56.3ZM78.1,21.3C75,21.3 72.5,23.8 72.5,26.9C72.5,30 75,32.5 78.1,32.5C81.2,32.5 83.7,30 83.7,26.9C83.7,23.8 81.2,21.3 78.1,21.3ZM95,90L5,90L5,95L95,95L95,90Z" style="fill-rule:nonzero;"/>
    </g>
</svg>
