<?xml version="1.0" encoding="UTF-8" standalone="no"?>
<!DOCTYPE svg PUBLIC "-//W3C//DTD SVG 1.1//EN" "http://www.w3.org/Graphics/SVG/1.1/DTD/svg11.dtd">
<svg width="100%" height="100%" viewBox="0 0 90 90" version="1.1" xmlns="http://www.w3.org/2000/svg" xmlns:xlink="http://www.w3.org/1999/xlink" xml:space="preserve" xmlns:serif="http://www.serif.com/" style="fill-rule:evenodd;clip-rule:evenodd;stroke-linejoin:round;stroke-miterlimit:2;">
    <g transform="matrix(1,0,0,1,-5,-5.1)">
        <path d="M95,50C95,73.8 77,93.4 53,94.9L53,79.6C68,78.1 80,65.2 80,49.4C80,33.6 68,20.8 53,19.3L53,5.1C77,6.6 95,26.2 95,50ZM20,49.5C20,45.3 20.8,41.2 22.4,37.5L9.6,30.1C6.6,36.3 5,43.1 5,50C5,73.8 23,93.4 47,94.9L47,79.6C32,78.1 20,65.2 20,49.5ZM47,19.3L47,5.1C33,6 20.3,13.4 12.5,24.9L25.2,32.2C30.1,25.1 38,20.2 47,19.3Z" style="fill-rule:nonzero;"/>
    </g>
</svg>
