<svg xmlns="http://www.w3.org/2000/svg" xmlns:xlink="http://www.w3.org/1999/xlink" width="24" height="24" preserveAspectRatio="xMidYMid meet" viewBox="0 0 24 24" style="-ms-transform: rotate(360deg); -webkit-transform: rotate(360deg); transform: rotate(360deg);"><path d="M21 11h-1.184a2.982 2.982 0 0 0-5.632 0H9.816a2.982 2.982 0 0 0-5.632 0H3a1 1 0 0 0 0 2h1.184a2.982 2.982 0 0 0 5.632 0h4.368a2.982 2.982 0 0 0 5.632 0H21a1 1 0 0 0 0-2zM7 13a1 1 0 1 1 1-1a1.001 1.001 0 0 1-1 1zm10 0a1 1 0 1 1 1-1a1.001 1.001 0 0 1-1 1z" fill="black"/><rect x="0" y="0" width="24" height="24" fill="rgba(0, 0, 0, 0)" /></svg>