<?xml version="1.0" encoding="utf-8"?>
<!-- Generator: Adobe Illustrator 25.0.1, SVG Export Plug-In . SVG Version: 6.00 Build 0)  -->
<svg version="1.1" id="Layer_1" xmlns="http://www.w3.org/2000/svg" xmlns:xlink="http://www.w3.org/1999/xlink" x="0px" y="0px"
	 viewBox="0 0 90 78.6" style="enable-background:new 0 0 90 78.6;" xml:space="preserve">
<style type="text/css">
	.st0{fill-rule:evenodd;clip-rule:evenodd;}
</style>
<g>
	<polygon class="st0" points="4.4,0 4.4,2.2 7.1,2.2 7.1,4.1 4.4,4.1 4.4,8.5 7.1,8.5 7.1,10.4 4.4,10.4 4.4,14.8 7.1,14.8 
		7.1,16.7 4.4,16.7 4.4,21.1 7.1,21.1 7.1,23 4.4,23 4.4,27.5 7.1,27.5 7.1,29.4 4.4,29.4 4.4,33.8 7.1,33.8 7.1,35.7 4.4,35.7 
		4.4,37.1 90,37.1 90,41.5 4.4,41.5 4.4,42.9 7.1,42.9 7.1,44.8 4.4,44.8 4.4,49.2 7.1,49.2 7.1,51.1 4.4,51.1 4.4,55.6 7.1,55.6 
		7.1,57.5 4.4,57.5 4.4,61.9 7.1,61.9 7.1,63.8 4.4,63.8 4.4,68.2 7.1,68.2 7.1,70.1 4.4,70.1 4.4,74.5 7.1,74.5 7.1,76.4 4.4,76.4 
		4.4,78.6 0,78.6 0,0 	"/>
	<rect x="13.1" y="43.5" class="st0" width="8.9" height="35.1"/>
	<rect x="25.2" y="43.5" class="st0" width="8.9" height="17.5"/>
	<rect x="37.3" y="43.5" class="st0" width="8.9" height="8.8"/>
	<rect x="49.4" y="26.3" class="st0" width="8.9" height="8.8"/>
	<rect x="61.5" y="17.5" class="st0" width="8.9" height="17.5"/>
	<rect x="73.6" y="0" class="st0" width="8.9" height="35.1"/>
</g>
</svg>
