<?xml version="1.0" encoding="UTF-8" standalone="no"?>
<!DOCTYPE svg PUBLIC "-//W3C//DTD SVG 1.1//EN" "http://www.w3.org/Graphics/SVG/1.1/DTD/svg11.dtd">
<svg width="100%" height="100%" viewBox="0 0 58 60" version="1.1" xmlns="http://www.w3.org/2000/svg" xmlns:xlink="http://www.w3.org/1999/xlink" xml:space="preserve" xmlns:serif="http://www.serif.com/" style="fill-rule:evenodd;clip-rule:evenodd;stroke-linejoin:round;stroke-miterlimit:2;">
    <g transform="matrix(1,0,0,1,-0.0001,0)">
        <path d="M42,6C42,2.691 39.309,0 36,0C32.691,0 30,2.691 30,6C30,8.967 32.167,11.432 35,11.91L35,24L30,24L30,34L42,34L42,24L37,24L37,11.91C39.833,11.432 42,8.967 42,6"/>
        <path d="M14,13C14,9.691 11.309,7 8,7C4.691,7 2,9.691 2,13C2,15.967 4.167,18.432 7,18.91L7,24L5,24C2.243,24 0,26.243 0,29C0,31.757 2.243,34 5,34L14,34L14,24L9,24L9,18.91C11.833,18.432 14,15.967 14,13"/>
        <path d="M16,34L21,34L21,48.09C18.167,48.568 16,51.033 16,54C16,57.309 18.691,60 22,60C25.309,60 28,57.309 28,54C28,51.033 25.833,48.568 23,48.09L23,34L28,34L28,24L16,24L16,34Z"/>
        <path d="M53,34C55.757,34 58,31.757 58,29C58,26.243 55.757,24 53,24L44,24L44,34L49,34L49,40.09C46.167,40.568 44,43.033 44,46C44,49.309 46.691,52 50,52C53.309,52 56,49.309 56,46C56,43.033 53.833,40.568 51,40.09L51,34L53,34Z"/>
    </g>
</svg>
