<svg xmlns="http://www.w3.org/2000/svg" viewBox="0 0 512 640" x="0px" y="0px"><title>29. occupation, avatar, artist, man</title><g data-name="Layer 1"><path d="M256,200h16V184h-8V136H248v56A8,8,0,0,0,256,200Z"/><path d="M234.343,133.657l11.314-11.314-8-8A8,8,0,0,0,232,112H200v16h28.687Z"/><rect x="208" y="136" width="16" height="16"/><rect x="288" y="136" width="16" height="16"/><path d="M507.249,376.689l-72-32A8.007,8.007,0,0,0,432,344H400V328a8,8,0,0,0-8-8h-8V96a8,8,0,0,0-2.343-5.657L379.314,88H384a8,8,0,0,0,6.4-12.8l-24-32a8.007,8.007,0,0,0-4.015-2.836L301.863,21.451l7.794-7.794L298.343,2.343l-13.72,13.72L234.386.364A7.981,7.981,0,0,0,230.06.239l-83.882,20.97A23.967,23.967,0,0,0,128,44.492V80a8,8,0,0,0,5.2,7.486l-2.857,2.857A8,8,0,0,0,128,96V320H112a8,8,0,0,0-8,8v16H88a8,8,0,0,0-2.971.572l-80,32A8,8,0,0,0,0,384V512H512V384A8,8,0,0,0,507.249,376.689ZM305.647,384A746.444,746.444,0,0,1,216,391.864V384ZM152,464V384h48v80Zm-16-72H120v-8h16ZM302.112,112H280a8,8,0,0,0-5.657,2.343l-8,8,11.314,11.314L283.313,128H312V116.2a72.591,72.591,0,0,0,16,3.408V252.32L277.041,296H264V272H248v24H234.959L184,252.32V92.944L193.889,88h81.586A72.724,72.724,0,0,0,302.112,112ZM208,293.965l18.794,16.109A8,8,0,0,0,232,312h48a8,8,0,0,0,5.206-1.926L304,293.965V320H208ZM144,44.492a7.99,7.99,0,0,1,6.06-7.762l81.7-20.424,123.39,38.559L368,72H144ZM120,336H384v8H352v16h32v8H120Z"/><path d="M240,208a8,8,0,0,0-5.657,2.343L212.687,232H192v16h24a8,8,0,0,0,5.657-2.343L243.313,224h25.373l21.656,21.657A8,8,0,0,0,296,248h24V232H299.313l-21.656-21.657A8,8,0,0,0,272,208Z"/><path d="M239.994,240,240,256c4.562,0,27.813-.5,37.657-10.343l-11.314-11.314C262.674,238.013,248.683,239.986,239.994,240Z"/></g><text x="0" y="527" fill="#000000" font-size="5px" font-weight="bold" font-family="'Helvetica Neue', Helvetica, Arial-Unicode, Arial, Sans-serif">Created by Mangsaabguru</text><text x="0" y="532" fill="#000000" font-size="5px" font-weight="bold" font-family="'Helvetica Neue', Helvetica, Arial-Unicode, Arial, Sans-serif">from the Noun Project</text></svg>