<svg xmlns="http://www.w3.org/2000/svg" data-name="Layer 1" viewBox="0 0 64 80" x="0px" y="0px"><title>Communication</title><path d="M5.59,44.16a10.49,10.49,0,0,1,6.21-3,.74.74,0,0,0,.5-.29.74.74,0,0,0-.68-1.19A12.08,12.08,0,0,0,1.09,50.2a.75.75,0,0,0,.63.82.73.73,0,0,0,.55-.15.74.74,0,0,0,.29-.5A10.49,10.49,0,0,1,5.59,44.16Z"/><path d="M7.54,46.11a7.76,7.76,0,0,1,4.65-2.24.73.73,0,0,0,.5-.28.75.75,0,0,0-.06-1,.73.73,0,0,0-.6-.21A9.32,9.32,0,0,0,3.82,50.6h0a.74.74,0,0,0,1.48.17A7.76,7.76,0,0,1,7.54,46.11Z"/><path d="M9.49,48.06a5.1,5.1,0,0,1,3.08-1.46.76.76,0,0,0,.51-.28.74.74,0,0,0-.06-1,.74.74,0,0,0-.6-.21A6.57,6.57,0,0,0,6.55,51a.74.74,0,0,0,.63.81.73.73,0,0,0,.56-.15A.75.75,0,0,0,8,51.14,5.1,5.1,0,0,1,9.49,48.06Z"/><path d="M24.34,52.37a.73.73,0,0,0-.21-.61.74.74,0,0,0-.42-.21.73.73,0,0,0-.55.15.74.74,0,0,0-.29.5,10.59,10.59,0,0,1-9.24,9.24.74.74,0,0,0-.5.29.73.73,0,0,0-.15.56.75.75,0,0,0,.82.63A12.08,12.08,0,0,0,24.34,52.37Z"/><path d="M21.61,52a.73.73,0,0,0-.21-.6.75.75,0,0,0-1-.06.73.73,0,0,0-.28.5,7.84,7.84,0,0,1-6.9,6.9.74.74,0,0,0,.17,1.48A9.32,9.32,0,0,0,21.61,52Z"/><path d="M18.88,51.58a.74.74,0,0,0-.63-.81.73.73,0,0,0-.56.15.76.76,0,0,0-.28.51A5.08,5.08,0,0,1,12.86,56a.75.75,0,0,0-.51.28.73.73,0,0,0-.15.56.74.74,0,0,0,.81.63,6.57,6.57,0,0,0,5.87-5.87Z"/><path d="M14.36,50.76l3-3h.78l2.36-1.15-3.11-3.11-1.15,2.36v.78l-3,3a1.73,1.73,0,1,0,1.12,1.12Z"/><path d="M27.8,40.22l2.32-1.83a2.93,2.93,0,0,0,4.11,0l1.07-1.07-8.59-8.59-1.07,1.07a2.93,2.93,0,0,0,0,4.11L23.78,36.2c-4.8-3.73-10.2-4.71-12.85-2.07L29.87,53.07C32.51,50.43,31.53,45,27.8,40.22Z"/><rect x="31.26" y="22.49" width="8.35" height="12.15" transform="translate(-9.82 33.42) rotate(-45)"/><path d="M45.22,27.37a2.93,2.93,0,0,0,.2-3.93l3-3.74a2.47,2.47,0,0,0-.19-3.28l-.6-.6a2.47,2.47,0,0,0-3.28-.19l-3.74,3a2.93,2.93,0,0,0-3.93.2l-1.07,1.07,8.59,8.59Z"/><path d="M47.49,30.37l-4.3,4.3-1.83-1.83L39.7,34.5l1.83,1.83-4.3,4.3L52.66,56,62.92,45.8ZM43.24,43.7l-3.08-3.08,7.32-7.32,3.08,3.08Zm4.88,4.88-3.42-3.42L52,37.84l3.42,3.42Zm4.54,4.54L49.59,50l7.32-7.32L60,45.8Z"/><path d="M33.63,16.51,18.2,1.08,8,11.34,23.38,26.76l4.3-4.3L29.5,24.3l1.66-1.66-1.83-1.83ZM14,14.41l-3.08-3.08L18.2,4l3.08,3.08Zm4.88,4.88-3.42-3.42,7.32-7.32L26.16,12Zm4.54,4.54L20.3,20.76l7.32-7.32,3.08,3.08Z"/><text x="0" y="79" fill="#000000" font-size="5px" font-weight="bold" font-family="'Helvetica Neue', Helvetica, Arial-Unicode, Arial, Sans-serif">Created by SHAHAREA</text><text x="0" y="84" fill="#000000" font-size="5px" font-weight="bold" font-family="'Helvetica Neue', Helvetica, Arial-Unicode, Arial, Sans-serif">from the Noun Project</text></svg>