<svg xmlns="http://www.w3.org/2000/svg" data-name="Layer 1" viewBox="0 0 64 80" x="0px" y="0px"><path d="M22.6,51.884l-.465-.257a.742.742,0,0,1-.4-.748,6.164,6.164,0,0,0,0-1.758.742.742,0,0,1,.4-.748l.465-.257a.75.75,0,0,0,.294-1.049L21.6,44.933a.825.825,0,0,0-1.1-.281l-.471.26a.852.852,0,0,1-.915-.075,6.884,6.884,0,0,0-1.5-.835.788.788,0,0,1-.524-.719v-.515a.786.786,0,0,0-.8-.768H13.711a.786.786,0,0,0-.8.768v.515a.788.788,0,0,1-.524.719,6.884,6.884,0,0,0-1.5.835.852.852,0,0,1-.915.075l-.471-.26a.825.825,0,0,0-1.1.281L7.108,47.067A.75.75,0,0,0,7.4,48.116l.465.257a.742.742,0,0,1,.4.748,6.164,6.164,0,0,0,0,1.758.742.742,0,0,1-.4.748l-.465.257a.75.75,0,0,0-.294,1.049L8.4,55.067a.825.825,0,0,0,1.1.281l.471-.26a.852.852,0,0,1,.915.075,6.884,6.884,0,0,0,1.5.835.788.788,0,0,1,.524.719v.515a.786.786,0,0,0,.8.768h2.578a.786.786,0,0,0,.8-.768v-.515A.788.788,0,0,1,17.616,56a6.884,6.884,0,0,0,1.5-.835.852.852,0,0,1,.915-.075l.471.26a.825.825,0,0,0,1.1-.281l1.288-2.134A.75.75,0,0,0,22.6,51.884ZM15,53a3,3,0,1,1,3-3A3,3,0,0,1,15,53Z"/><path d="M54.035,55.088l.471.26a.825.825,0,0,0,1.1-.281l1.288-2.134a.75.75,0,0,0-.294-1.049l-.465-.257a.742.742,0,0,1-.4-.748,6.164,6.164,0,0,0,0-1.758.742.742,0,0,1,.4-.748l.465-.257a.75.75,0,0,0,.294-1.049L55.6,44.933a.825.825,0,0,0-1.1-.281l-.471.26a.852.852,0,0,1-.915-.075,6.884,6.884,0,0,0-1.5-.835.788.788,0,0,1-.524-.719v-.515a.786.786,0,0,0-.8-.768H47.711a.786.786,0,0,0-.8.768v.515a.788.788,0,0,1-.524.719,6.884,6.884,0,0,0-1.5.835.852.852,0,0,1-.915.075l-.471-.26a.825.825,0,0,0-1.1.281l-1.288,2.134a.75.75,0,0,0,.294,1.049l.465.257a.742.742,0,0,1,.4.748,6.164,6.164,0,0,0,0,1.758.742.742,0,0,1-.4.748l-.465.257a.75.75,0,0,0-.294,1.049L42.4,55.067a.825.825,0,0,0,1.1.281l.471-.26a.852.852,0,0,1,.915.075,6.884,6.884,0,0,0,1.5.835.788.788,0,0,1,.524.719v.515a.786.786,0,0,0,.8.768h2.578a.786.786,0,0,0,.8-.768v-.515A.788.788,0,0,1,51.616,56a6.884,6.884,0,0,0,1.5-.835A.852.852,0,0,1,54.035,55.088ZM49,53a3,3,0,1,1,3-3A3,3,0,0,1,49,53Z"/><rect x="31" y="32" width="2" height="2"/><rect x="14.726" y="60" width="3.919" height="2"/><rect x="22.564" y="60" width="3.919" height="2"/><path d="M5.223,45.205l-1.754-.961a11.89,11.89,0,0,0-1.346,4.035l1.98.285A9.9,9.9,0,0,1,5.223,45.205Z"/><rect x="37.493" y="38" width="3.919" height="2"/><polygon points="46.081 60 46.081 62 50.046 62 50 60 46.081 60"/><path d="M52.842,40.409A9.918,9.918,0,0,1,56.006,42l1.2-1.6a11.917,11.917,0,0,0-3.8-1.914Z"/><rect x="30.403" y="60" width="3.919" height="2"/><path d="M53.527,59.359l.7,1.873a11.922,11.922,0,0,0,3.65-2.182l-1.314-1.508A9.91,9.91,0,0,1,53.527,59.359Z"/><path d="M58.787,54.777l1.756.957A11.9,11.9,0,0,0,61.881,51.7L59.9,51.415A9.894,9.894,0,0,1,58.787,54.777Z"/><path d="M61.728,47.448A11.913,11.913,0,0,0,60.1,43.519L58.418,44.6a9.885,9.885,0,0,1,1.355,3.271Z"/><polygon points="14 40 17.896 40 17.896 38 13.977 38 14 40"/><rect x="29.654" y="38" width="3.919" height="2"/><rect x="21.815" y="38" width="3.919" height="2"/><path d="M6.771,59.58a11.946,11.946,0,0,0,3.8,1.921l.571-1.916a9.967,9.967,0,0,1-3.16-1.6Z"/><rect x="45.332" y="38" width="3.919" height="2"/><rect x="38.242" y="60" width="3.919" height="2"/><path d="M10.493,40.632l-.7-1.873a11.935,11.935,0,0,0-3.653,2.176l1.311,1.509A9.958,9.958,0,0,1,10.493,40.632Z"/><path d="M2.266,52.524a11.9,11.9,0,0,0,1.619,3.935l1.684-1.078a9.918,9.918,0,0,1-1.347-3.275Z"/><rect x="31" y="2" width="2" height="3"/><rect x="40.298" y="8.493" width="3.162" height="2" transform="translate(0.176 19.731) rotate(-26.565)"/><rect x="41.586" y="17.105" width="2" height="3.162" transform="translate(6.828 48.419) rotate(-63.435)"/><rect x="21.121" y="7.912" width="2" height="3.162" transform="translate(3.737 25.033) rotate(-63.435)"/><rect x="19.833" y="17.685" width="3.162" height="2" transform="translate(-6.096 11.549) rotate(-26.565)"/><path d="M28.769,24.732V25.7a3.232,3.232,0,1,0,6.462,0V24.57c0-.182.017-.376.036-.57H28.726A6.723,6.723,0,0,1,28.769,24.732Z"/><path d="M31.2,7.045a7.108,7.108,0,0,0-6.163,6.346,7.228,7.228,0,0,0,1.595,5.345A10.247,10.247,0,0,1,28.279,22H31V18.414l-2.707-2.707,1.414-1.414L32,16.586l2.293-2.293,1.414,1.414L33,18.414V22h2.708a10.948,10.948,0,0,1,1.7-3.314A7.2,7.2,0,0,0,39,14.15,7.059,7.059,0,0,0,31.2,7.045Z"/><text x="0" y="79" fill="#000000" font-size="5px" font-weight="bold" font-family="'Helvetica Neue', Helvetica, Arial-Unicode, Arial, Sans-serif">Created by Kamin Ginkaew</text><text x="0" y="84" fill="#000000" font-size="5px" font-weight="bold" font-family="'Helvetica Neue', Helvetica, Arial-Unicode, Arial, Sans-serif">from the Noun Project</text></svg>