<svg xmlns="http://www.w3.org/2000/svg" viewBox="0 0 26.458333 33.0729175" x="0px" y="0px"><path d="m7.9376044 272.12918c-1.13281 0-2.11666.89371-2.11666 2.03555v5.96138c0 1.14183.98385 2.03607 2.11666 2.03607h2.7005996l1.38547 1.30119c-1.08395.41043-1.91215 1.35449-2.1574896 2.50735l-2.05828-2.0588c-.43809-.43815-1.01634-.67011-1.59371-.67849-.57767-.008-1.16539.21034-1.60351.64854-.87646.87662-.84492 2.32161.0305 3.1972l5.14853 5.15009v2.3895c.00005.43837.3554096.7937.7937496.79375h5.29113c.43834-.00005.7937-.35538.79375-.79375v-2.3895l5.14906-5.15009c.87561-.87574.90628-2.32074.03-3.1972-.87622-.8764-2.32116-.84577-3.19672.0299l-2.05878 2.05931c-.24519-1.15303-1.07347-2.09735-2.15749-2.50786l1.38597-1.30119h2.70007c1.13281 0 2.11667-.89424 2.11667-2.03607v-5.96138c0-1.14184-.98386-2.03555-2.11667-2.03555zm2.6458396 4.23333c.43838 0 .79375.35537.79375.79375 0 .43839-.35537.79375-.79375.79375-.43839 0-.7937496-.35536-.7937496-.79375 0-.43838.3553596-.79375.7937496-.79375zm2.64583 0c.43839 0 .79375.35537.79375.79375 0 .43839-.35536.79375-.79375.79375s-.79375-.35536-.79375-.79375c0-.43838.35536-.79375.79375-.79375zm2.64583 0c.43839 0 .79375.35537.79375.79375 0 .43839-.35536.79375-.79375.79375s-.79375-.35536-.79375-.79375c0-.43838.35536-.79375.79375-.79375zm4.38682 8.45169c.1696-.003.33494.062.46302.19016.25622.25628.2603.66204-.03.95239l-5.38157 5.38264c-.14886.14885-.23254.3507-.23257.5612v1.92442h-3.70363v-1.92442c-.00006-.2105-.0837-.41238-.23255-.5612l-5.3810696-5.38264c-.29046-.29045-.28651-.69627-.0305-.95239.12811-.12811.28612-.18595.45837-.18343.17248.003.34917.0685.49403.21341l4.8529296 4.85396c.14883.14886.35071.23249.56121.23255h1.12964 1.12964c.2105-.00003.41238-.0837.56121-.23255l4.85293-4.85396c.14518-.14521.3193-.21691.48887-.22014zm-7.03265.0151c1.03224 0 1.85155.81981 1.85155 1.85208 0 1.0323-.81931 1.85208-1.85155 1.85208-1.03225 0-1.85208-.81978-1.85208-1.85208 0-1.03227.81983-1.85208 1.85208-1.85208z" transform="translate(0 -270.54165)"/><text x="0" y="41.458334" fill="#000000" font-size="5px" font-weight="bold" font-family="'Helvetica Neue', Helvetica, Arial-Unicode, Arial, Sans-serif">Created by Nanda Ririz</text><text x="0" y="46.458334" fill="#000000" font-size="5px" font-weight="bold" font-family="'Helvetica Neue', Helvetica, Arial-Unicode, Arial, Sans-serif">from the Noun Project</text></svg>