<svg xmlns="http://www.w3.org/2000/svg" xmlns:xlink="http://www.w3.org/1999/xlink" version="1.1" x="0px" y="0px" viewBox="0 0 402.557 422.505" style="enable-background:new 0 0 402.557 338.004;" xml:space="preserve"><g><path d="M97.59,83.627l-6.52,15.705c-1.804,4.343,0.244,9.32,4.582,11.121l23.564,9.787L67.02,245.928l-23.563-9.787   c-4.339-1.801-9.307,0.252-11.111,4.596l-6.522,15.709c-1.804,4.342,0.245,9.32,4.583,11.121l23.564,9.787l-3.262,7.852   l15.718,6.527l84.819-204.244l-15.718-6.527l-3.261,7.854l-23.564-9.785C104.365,77.227,99.396,79.281,97.59,83.627z"/><path d="M110.798,310.162c0,0,2.215-2.551,5.89-7.23l77.878,2.727c0,0,30.503-48.816,37.215-64.979   c6.718-16.172,19.769-72.236,19.769-72.236l-56.896-53.254c0.723-5.906,0.964-9.275,0.964-9.275l-40.01-16.615l-84.82,204.246   L110.798,310.162z M151.859,123.018c3.036-7.311,11.424-10.773,18.734-7.736c7.313,3.035,10.775,11.422,7.74,18.732   c-3.035,7.311-11.423,10.777-18.733,7.74C152.289,138.718,148.824,130.33,151.859,123.018z M151.892,174.121l5.722,27.523   l-4.138-1.012l-8.009-28.744L151.892,174.121z M136.667,166.666l7.5,62.5l-6,4l-3.5-55L136.667,166.666z M168.916,214.561   c11.398-27.443,23.355-78.346,23.355-78.346l40.459,37.924c-3.053,12.816-11.637,47.873-16.677,60.01   c-5.034,12.123-23.811,42.949-30.714,54.168l-55.428-1.94C129.912,286.377,157.523,241.996,168.916,214.561z M122.667,202.834   l5.5,4l-2.5,28L122,232.666L122.667,202.834z M110.765,259.352c7.312,3.035,10.774,11.422,7.739,18.732   c-3.035,7.311-11.423,10.777-18.733,7.74c-7.312-3.035-10.776-11.424-7.741-18.736C95.064,259.779,103.453,256.314,110.765,259.352   z"/><path d="M388,258.666l3.181-8.86c-2.209-1.256-4.669-2.159-7.317-2.613c-12.244-2.098-23.873,6.127-25.971,18.371   c-0.461,2.688-0.425,5.346,0.043,7.879l26.029,18.079c9.09-1.601,16.619-8.736,18.266-18.356c1.07-6.239-0.545-12.316-4.003-17.057   L388,258.666z"/><path d="M329.751,245.744c-0.636-2.594-0.225-5.279,1.159-7.563c1.385-2.287,3.576-3.895,6.17-4.529   c0.782-0.193,1.587-0.291,2.39-0.291c4.612,0,8.603,3.133,9.706,7.617l3.39,13.821c2.974-1.943,5.117-4.662,5.745-8.015   c1.622-8.648-3.736-20.727-18.65-24.891c-9.258-2.525-17.023-4.043-24.777-4.602l-4.716,10.541l-5.363-10.727   c-6.337,0.209-13.055,1.002-20.901,2.389c-15.888,4.074-16.888,15.186-16.23,24.328c0.18,2.505,0.404,4.623,0.918,6.349   l3.68,18.264l8.647,2.647l-7.481,3.142l1.358,6.743l-16.898,2.375l-3.229,7.989l-2.622-7.167l-6.787,0.954   c-6.837,0.962-11.599,7.283-10.636,14.12c0.877,6.244,6.23,10.759,12.362,10.76c0.58,0,1.166-0.041,1.757-0.124l42.666-5.999   c3.398-0.478,6.476-2.353,8.459-5.155c1.986-2.802,2.73-6.325,2.053-9.691l-5.204-25.834l17.227,7.67l-9.224,23.175   c-2.553,6.414,0.577,13.683,6.991,16.236c1.517,0.604,3.081,0.89,4.619,0.89c4.97,0,9.669-2.983,11.619-7.881l9.849-24.745   L329.751,245.744z"/><path d="M355.213,273.986l-7.981-32.53c-1.055-4.292-5.388-6.915-9.678-5.862c-4.29,1.052-6.915,5.385-5.861,9.675l8.703,35.472   c0.465,1.891,1.605,3.551,3.205,4.664l33.834,23.498c1.391,0.967,2.982,1.432,4.558,1.432c2.532,0,5.022-1.199,6.576-3.436   c2.521-3.629,1.623-8.615-2.006-11.137L355.213,273.986z"/><polygon points="209.167,201.834 209.167,185.834 217.167,178.834 205.667,180.334 200.667,169.334 198.667,183.334 190,189.666    201.667,192.084  "/><polygon points="197.667,223.078 197.068,210.5 179.101,213.496 186.886,229.668  "/><polygon points="202.951,216.404 212.233,220.094 214.167,213.334 209.185,208.406  "/><polygon points="36.886,311.666 47.667,305.078 47.068,292.5 29.101,295.494  "/><polygon points="25.804,330.969 28.175,318.559 18.462,310.545 8.599,325.859  "/><polygon points="62.95,298.98 56.719,306.978 66,310.668 67.935,303.908  "/><polygon points="21.935,281.908 16.95,276.98 10.719,284.978 20,288.668  "/><circle cx="50" cy="158" r="12"/><circle cx="73.167" cy="171.5" r="8.833"/><path d="M21,83.334c9.709,0,17.854-6.597,20.26-15.546c0.494,0.62,1.015,1.218,1.558,1.794   c-1.693,7.604-7.505,13.636-14.977,15.665c0.392,3.198,1.502,6.169,3.165,8.756c-7.609,1.543-13.338,8.269-13.338,16.332   c0,9.205,7.462,16.668,16.667,16.668c0.083,0,0.163-0.011,0.246-0.012c-0.374,1.16-0.58,2.394-0.58,3.678c0,6.627,5.373,12,12,12   c6.629,0,12.001-5.373,12.001-12c0-4.507-2.488-8.429-6.163-10.48c-3.049,3.936-7.807,6.48-13.171,6.48   c-0.28,0-0.553-0.028-0.829-0.042c7.521-1.61,13.162-8.29,13.162-16.292c0-2.39-0.512-4.657-1.418-6.712   c1.443-0.062,2.848-0.268,4.201-0.608c9.121-2.288,15.884-10.517,15.884-20.346c0-1.587-0.19-3.126-0.524-4.613   c9.007-1.743,16.512-7.696,20.376-15.735c1.016,0.222,2.067,0.348,3.149,0.348c7.229,0,13.222-5.235,14.43-12.118   c0.146-0.83,0.236-1.679,0.236-2.55c0-8.1-6.566-14.666-14.666-14.666c-6.008,0-11.164,3.615-13.432,8.784   c0.746-4.252,3.318-7.864,6.885-10.011C80.869,25.495,72.766,21.25,63.666,21.25c-4.394,0-8.556,0.992-12.277,2.759   c-3.37-6.905-10.438-11.675-18.639-11.675c-0.563,0-1.115,0.04-1.667,0.084C20.404,13.269,12,22.188,12,33.084   c0,10.898,8.404,19.814,19.083,20.666c-0.552,0.044-1.104,0.084-1.667,0.084c-7.617,0-14.258-4.117-17.866-10.235   C4.704,47.06,0,54.14,0,62.334c0,3.876,1.068,7.496,2.9,10.612C6.549,79.154,13.278,83.334,21,83.334z"/><circle cx="59.333" cy="8.333" r="8.333"/><circle cx="92.166" cy="11.833" r="11.833"/><polygon points="196.783,336.15 196.371,333.266 190.188,332.234 188.54,336.15 193.073,338.004  "/><polygon points="157.943,335.486 162.466,337.338 166.167,335.486 165.757,332.607 159.586,331.58  "/><polygon points="252.797,330.174 248.241,329.416 247.027,332.301 250.365,333.668 253.1,332.301  "/><polygon points="203.523,330.715 210.406,332.74 215.266,330.715 211.822,325.855 206.561,326.057  "/><polygon points="180.667,314.629 177.631,319.287 184.514,321.31 189.372,319.287 185.931,314.428  "/><polygon points="106.101,320.574 100.539,320.787 97.327,325.713 104.604,327.852 109.74,325.713  "/><polygon points="227.561,315.853 231.1,317.301 233.996,315.853 233.674,313.602 228.847,312.797  "/><polygon points="134.96,321.938 142.235,324.078 147.373,321.938 143.734,316.801 138.171,317.014  "/></g><text x="0" y="353.004" fill="#000000" font-size="5px" font-weight="bold" font-family="'Helvetica Neue', Helvetica, Arial-Unicode, Arial, Sans-serif">Created by Gan Khoon Lay</text><text x="0" y="358.004" fill="#000000" font-size="5px" font-weight="bold" font-family="'Helvetica Neue', Helvetica, Arial-Unicode, Arial, Sans-serif">from the Noun Project</text></svg>