<svg id="Layer_1" data-name="Layer 1" xmlns="http://www.w3.org/2000/svg" xmlns:xlink="http://www.w3.org/1999/xlink" viewBox="0 0 656.41 974.29"><defs><style>.cls-1{fill:#1b181c;}.cls-2,.cls-4,.cls-7{fill:none;}.cls-10,.cls-2,.cls-4,.cls-5,.cls-7,.cls-8,.cls-9{stroke:#3e3e40;}.cls-2,.cls-4{stroke-linecap:round;}.cls-10,.cls-11,.cls-14,.cls-15,.cls-16,.cls-2,.cls-20,.cls-24,.cls-25,.cls-4{stroke-linejoin:round;}.cls-2,.cls-5,.cls-9{stroke-width:1.27px;}.cls-3,.cls-5,.cls-6,.cls-8{fill:#3e3e40;}.cls-3,.cls-9{fill-rule:evenodd;}.cls-4{stroke-width:3.8px;}.cls-7,.cls-8{stroke-width:2.53px;}.cls-9{fill:#e21f26;}.cls-10,.cls-20,.cls-22{fill:#fff;}.cls-10{stroke-width:1.37px;}.cls-11{fill:#444545;stroke-width:1.15px;}.cls-11,.cls-12,.cls-13,.cls-14,.cls-15,.cls-16,.cls-17,.cls-18,.cls-19,.cls-20,.cls-21,.cls-22,.cls-23,.cls-24,.cls-25{stroke:#444545;}.cls-12{fill:#595045;stroke-width:0.07px;}.cls-13{stroke-width:0.06px;fill:url(#radial-gradient);}.cls-14,.cls-15,.cls-16,.cls-20{stroke-width:0.61px;}.cls-14{fill:url(#radial-gradient-2);}.cls-15{fill:#58595b;}.cls-16{fill:url(#radial-gradient-3);}.cls-17,.cls-18,.cls-19{stroke-width:0.64px;}.cls-17{fill:url(#radial-gradient-4);}.cls-18{fill:url(#radial-gradient-5);}.cls-19{fill:#7c8282;}.cls-21{fill:#eac78e;}.cls-21,.cls-22,.cls-23,.cls-24,.cls-25{stroke-width:0.57px;}.cls-23{fill:#fde92b;}.cls-24{fill:#fed500;}.cls-25{fill:url(#radial-gradient-6);}</style><radialGradient id="radial-gradient" cx="28.38" cy="2025.28" r="12.72" gradientTransform="matrix(-0.77, 0.45, -0.55, -0.16, 1288.99, 1112.04)" gradientUnits="userSpaceOnUse"><stop offset="0.01" stop-color="#d6d8d6"/><stop offset="1" stop-color="#c7ccd5"/></radialGradient><radialGradient id="radial-gradient-2" cx="-365.76" cy="1010.99" r="10.75" gradientTransform="translate(497.23)" gradientUnits="userSpaceOnUse"><stop offset="0" stop-color="#dadad8"/><stop offset="0.2" stop-color="#d6d6d3"/><stop offset="0.42" stop-color="#c9c9c6"/><stop offset="0.64" stop-color="#b3b4b0"/><stop offset="0.88" stop-color="#959791"/><stop offset="1" stop-color="#83857e"/></radialGradient><radialGradient id="radial-gradient-3" cx="-374.88" cy="996.56" r="10.11" xlink:href="#radial-gradient-2"/><radialGradient id="radial-gradient-4" cx="-2211.6" cy="911.49" r="13.41" gradientTransform="matrix(-1, -0.04, -0.04, 1, -2048.5, -4.33)" gradientUnits="userSpaceOnUse"><stop offset="0.01" stop-color="#ddcbb1"/><stop offset="0.99" stop-color="#d5ac86"/></radialGradient><radialGradient id="radial-gradient-5" cx="-2195.36" cy="1033.92" r="18.7" gradientTransform="matrix(-1, 0.01, 0.01, 1, -2077.5, 1.78)" xlink:href="#radial-gradient-4"/><radialGradient id="radial-gradient-6" cx="-1294.87" cy="943.81" r="39.46" gradientTransform="matrix(0.99, 0.1, -0.1, 0.99, 1503.86, -17.58)" xlink:href="#radial-gradient-2"/></defs><path class="cls-1" d="M310.15,102.9a5.58,5.58,0,0,1,1,1.58,4.32,4.32,0,0,1,.36,1.69,1.84,1.84,0,0,1-.37,1.26,1.19,1.19,0,0,1-1,.39,3.71,3.71,0,0,1-1.54-.54l-2.46-1.42s-.06,0-.06,0v4c0,.09,0,.11-.14.06l-1.06-.62a.24.24,0,0,1-.14-.22V99.55c0-.09,0-.11.14-.06l3.78,2.18A5.94,5.94,0,0,1,310.15,102.9Zm-.44,3.47c.31-.13.47-.44.47-1a2.84,2.84,0,0,0-.47-1.51,3.69,3.69,0,0,0-1.24-1.18l-2.34-1.35s-.06,0-.06,0v3.28s0,.06.06.09l2.34,1.35A1.46,1.46,0,0,0,309.71,106.37Z" transform="translate(-6.65 -44.9)"/><path class="cls-1" d="M319.6,117.71l-2-5.32a.11.11,0,0,0-.06-.07l-2-1.17s-.05,0-.05,0v4.13c0,.09-.05.11-.14.06l-1.06-.62a.24.24,0,0,1-.15-.22V105q0-.14.15-.06l3.76,2.18a5.91,5.91,0,0,1,1.48,1.2,5.83,5.83,0,0,1,1,1.55,4.3,4.3,0,0,1,.35,1.66,1.58,1.58,0,0,1-.52,1.36,1.51,1.51,0,0,1-1.42.1s0,0,0,0l2,5.37a.22.22,0,0,1,0,.08c0,.07,0,.08-.11,0l-1.11-.63A.4.4,0,0,1,319.6,117.71Zm-4.09-10.85V110a.11.11,0,0,0,.05.09l2.34,1.35a1.39,1.39,0,0,0,1.19.24c.3-.12.45-.42.45-.91a2.65,2.65,0,0,0-.45-1.44,3.34,3.34,0,0,0-1.19-1.14l-2.34-1.35S315.51,106.83,315.51,106.86Z" transform="translate(-6.65 -44.9)"/><path class="cls-1" d="M325.18,120.74a6.6,6.6,0,0,1-1.21-1.89,5,5,0,0,1-.44-2v-3.33A2.26,2.26,0,0,1,324,112a1.43,1.43,0,0,1,1.21-.47,4.06,4.06,0,0,1,1.81.62,7.44,7.44,0,0,1,1.82,1.47,7,7,0,0,1,1.22,1.88,5,5,0,0,1,.43,2v3.33a2.27,2.27,0,0,1-.43,1.51,1.44,1.44,0,0,1-1.22.48,4.08,4.08,0,0,1-1.82-.63A7.49,7.49,0,0,1,325.18,120.74Zm3.35.6c.39-.17.59-.57.59-1.22v-3.4a3.56,3.56,0,0,0-.59-1.91,4.48,4.48,0,0,0-1.54-1.49,1.76,1.76,0,0,0-1.53-.29c-.39.18-.58.59-.58,1.24v3.41a3.51,3.51,0,0,0,.58,1.89A4.31,4.31,0,0,0,327,121,1.78,1.78,0,0,0,328.53,121.34Z" transform="translate(-6.65 -44.9)"/><path class="cls-1" d="M332.9,125.44a.1.1,0,0,1,0-.12l2.88-3a.06.06,0,0,0,0-.08l-2.88-6.36a.33.33,0,0,1,0-.1c0-.06,0-.06.13,0l1.16.67a.53.53,0,0,1,.17.19l2.25,5,0,0a.06.06,0,0,0,.05,0l2.25-2.41a.13.13,0,0,1,.17,0l1.15.66a.29.29,0,0,1,.11.11.09.09,0,0,1,0,.11l-2.87,3v.08l2.87,6.34a.26.26,0,0,1,0,.1c0,.05,0,.06-.12,0l-1.15-.66a.49.49,0,0,1-.17-.2l-2.25-5a.12.12,0,0,0-.05-.05h0l-2.25,2.4a.14.14,0,0,1-.17,0l-1.16-.67A.19.19,0,0,1,332.9,125.44Z" transform="translate(-6.65 -44.9)"/><path class="cls-1" d="M343.06,131.21v-9.52c0-.09.05-.11.14-.06l1.06.62a.23.23,0,0,1,.14.22V132c0,.09,0,.11-.14.06l-1.06-.62A.24.24,0,0,1,343.06,131.21Z" transform="translate(-6.65 -44.9)"/><path class="cls-1" d="M354.26,128l1.06.61a.26.26,0,0,1,.15.23v9.51q0,.15-.15.06l-1.06-.61a.25.25,0,0,1-.14-.22v-7.17a.09.09,0,0,0,0-.07s0,0,0,0l-2,1.9s-.09,0-.17,0l-.53-.31a.49.49,0,0,1-.17-.18l-2-4.19s0,0,0,0,0,0,0,0v7.14c0,.09,0,.11-.13.06l-1.07-.62a.25.25,0,0,1-.14-.22V124.4c0-.09.05-.11.14-.06L349,125a.4.4,0,0,1,.16.18l2.45,5.08,0,0h.05l2.43-2.26A.15.15,0,0,1,354.26,128Z" transform="translate(-6.65 -44.9)"/><path class="cls-1" d="M358.81,140.31v-9.52c0-.1.05-.12.14-.06l1.06.61a.24.24,0,0,1,.14.22v9.52c0,.1,0,.11-.14.06l-1.06-.61A.26.26,0,0,1,358.81,140.31Z" transform="translate(-6.65 -44.9)"/><path class="cls-1" d="M369.87,137.17v.9c0,.09-.05.11-.14.06L367,136.58s-.05,0-.05,0V145c0,.09-.05.11-.14.06l-1.07-.62a.25.25,0,0,1-.14-.22v-8.43a.14.14,0,0,0-.05-.09L363,134.26a.25.25,0,0,1-.14-.23v-.89c0-.09,0-.11.14-.06l6.7,3.87A.25.25,0,0,1,369.87,137.17Z" transform="translate(-6.65 -44.9)"/><path class="cls-1" d="M374.85,149.56v-3.94a.17.17,0,0,0,0-.08l-2.91-7.15a.24.24,0,0,1,0-.08q0-.1.12,0l1.14.66a.35.35,0,0,1,.17.19l2.14,5.34s0,0,0,.06,0,0,0,0l2.14-2.86s.08,0,.17,0l1.16.68a.18.18,0,0,1,.1.11.08.08,0,0,1,0,.11l-2.93,3.79s0,0,0,.06v3.93c0,.09-.05.11-.14.06l-1.07-.61A.26.26,0,0,1,374.85,149.56Z" transform="translate(-6.65 -44.9)"/><polygon class="cls-2" points="430.14 265 224.35 146.19 224.35 0.63 430.14 119.45 430.14 265"/><path class="cls-1" d="M524.53,232.94a6.12,6.12,0,0,1-1.22-1.65,3.75,3.75,0,0,1-.43-1.69v-.41c0-.09,0-.11.14-.05l1,.59a.22.22,0,0,1,.14.22v.33a2.59,2.59,0,0,0,.62,1.53,5.39,5.39,0,0,0,1.69,1.44,2.19,2.19,0,0,0,1.46.44c.33-.08.49-.34.49-.78a1.8,1.8,0,0,0-.25-.89,5.5,5.5,0,0,0-.74-1c-.32-.36-.79-.84-1.4-1.44s-1.22-1.2-1.62-1.64a7,7,0,0,1-1-1.42,3.33,3.33,0,0,1-.39-1.55c0-.8.29-1.27.86-1.39a3.48,3.48,0,0,1,2.33.66,8.23,8.23,0,0,1,1.82,1.4,6.25,6.25,0,0,1,1.21,1.68,3.79,3.79,0,0,1,.43,1.7v.28c0,.09-.05.11-.14.06l-1-.61a.25.25,0,0,1-.14-.22v-.21a2.72,2.72,0,0,0-.58-1.55,5,5,0,0,0-1.6-1.4,2.17,2.17,0,0,0-1.35-.42c-.32,0-.47.3-.47.75a1.83,1.83,0,0,0,.23.9,5.48,5.48,0,0,0,.71.93c.31.33.79.81,1.44,1.42s1.2,1.2,1.61,1.65a7.4,7.4,0,0,1,1,1.46,3.36,3.36,0,0,1,.4,1.57c0,.82-.3,1.3-.9,1.43a3.71,3.71,0,0,1-2.48-.71A8.84,8.84,0,0,1,524.53,232.94Z" transform="translate(-6.65 -44.9)"/><path class="cls-1" d="M532.65,237.72V228.2c0-.09.05-.11.14-.06l1.07.62a.24.24,0,0,1,.14.22v9.52c0,.09,0,.11-.14.06l-1.07-.62A.25.25,0,0,1,532.65,237.72Z" transform="translate(-6.65 -44.9)"/><path class="cls-1" d="M543.85,234.53l1.07.61a.26.26,0,0,1,.14.22v9.52c0,.1,0,.12-.14.06l-1.07-.61a.26.26,0,0,1-.14-.22v-7.17a.14.14,0,0,0,0-.07s0,0-.05,0l-2,1.9s-.09,0-.16,0l-.54-.3a.59.59,0,0,1-.17-.18l-2-4.19s0-.05,0-.05,0,0,0,0v7.14c0,.09-.05.11-.14,0l-1.07-.61a.25.25,0,0,1-.14-.22v-9.52c0-.09,0-.11.14-.06l1.07.61a.52.52,0,0,1,.17.19l2.45,5.08,0,0h0l2.44-2.27A.16.16,0,0,1,543.85,234.53Z" transform="translate(-6.65 -44.9)"/><path class="cls-1" d="M548.4,246.81v-9.52c0-.09.05-.11.14,0l1.07.61a.25.25,0,0,1,.14.22v9.52c0,.09,0,.11-.14.06l-1.07-.62A.24.24,0,0,1,548.4,246.81Z" transform="translate(-6.65 -44.9)"/><path class="cls-1" d="M553.09,249.52V240c0-.09,0-.11.14-.06l1.07.62a.24.24,0,0,1,.14.22v8.44a.11.11,0,0,0,0,.09l4.83,2.79a.22.22,0,0,1,.14.22v.88c0,.09,0,.11-.14.06l-6.09-3.52A.25.25,0,0,1,553.09,249.52Z" transform="translate(-6.65 -44.9)"/><path class="cls-1" d="M568.37,258.37l-.51-1.93a.14.14,0,0,0-.05-.08l-3.94-2.27s0,0,0,0l-.51,1.35c0,.06-.08.06-.16,0l-1.14-.66c-.1-.06-.14-.13-.11-.22l3.07-7.76c0-.06.08-.07.16,0l1.4.81a.35.35,0,0,1,.17.21l3.1,11.32v.06c0,.07,0,.08-.13,0l-1.14-.66A.35.35,0,0,1,568.37,258.37Zm-4.19-5.19,0,0,3.22,1.86h0s0,0,0,0l-1.62-6.13,0,0h0l-1.62,4.26S564.16,253.16,564.18,253.18Z" transform="translate(-6.65 -44.9)"/><path class="cls-1" d="M577.89,263.88l-2-5.32a.11.11,0,0,0-.06-.07l-2-1.17s-.06,0-.06,0v4.13c0,.09,0,.11-.14.06l-1.06-.62a.23.23,0,0,1-.14-.22v-9.52c0-.09,0-.11.14-.06l3.76,2.18a5.91,5.91,0,0,1,1.48,1.2,5.83,5.83,0,0,1,1,1.55,4.3,4.3,0,0,1,.35,1.66,1.58,1.58,0,0,1-.52,1.36,1.51,1.51,0,0,1-1.42.1s0,0,0,.05l2,5.37a.22.22,0,0,1,0,.08c0,.07,0,.08-.11,0l-1.11-.63A.4.4,0,0,1,577.89,263.88ZM573.8,253v3.14a.1.1,0,0,0,.06.09l2.33,1.35a1.39,1.39,0,0,0,1.19.24c.3-.12.45-.42.45-.91a2.65,2.65,0,0,0-.45-1.44,3.26,3.26,0,0,0-1.19-1.14L573.86,253S573.8,253,573.8,253Z" transform="translate(-6.65 -44.9)"/><path class="cls-1" d="M582.09,266.26v-9.52c0-.09,0-.11.14-.06l1.06.62a.22.22,0,0,1,.14.22V267c0,.09,0,.11-.14.06l-1.06-.62A.25.25,0,0,1,582.09,266.26Z" transform="translate(-6.65 -44.9)"/><path class="cls-1" d="M593.15,263.13V264c0,.1,0,.12-.14.06l-2.69-1.55s-.06,0-.06,0V271c0,.09,0,.11-.14.06l-1.06-.61a.26.26,0,0,1-.14-.22v-8.43a.1.1,0,0,0-.06-.09l-2.56-1.48a.25.25,0,0,1-.14-.22v-.9c0-.09.05-.11.14-.06l6.71,3.88A.24.24,0,0,1,593.15,263.13Z" transform="translate(-6.65 -44.9)"/><path class="cls-1" d="M598.13,275.51v-3.93s0-.07,0-.08l-2.92-7.16s0,0,0-.08,0-.07.11,0l1.15.66a.36.36,0,0,1,.17.2l2.14,5.34a.1.1,0,0,0,0,.05h.05l2.14-2.87c0-.05.08-.05.17,0l1.16.67a.27.27,0,0,1,.1.11.13.13,0,0,1,0,.12l-2.93,3.78s0,0,0,.06v3.94c0,.09-.05.11-.14.06l-1.07-.62A.25.25,0,0,1,598.13,275.51Z" transform="translate(-6.65 -44.9)"/><polygon class="cls-2" points="655.78 393.95 449.98 275.14 449.98 129.58 655.78 248.4 655.78 393.95"/><path class="cls-1" d="M295.66,273.62a6.57,6.57,0,0,1-1.2-1.83,4.77,4.77,0,0,1-.43-1.94v-3.62a2.06,2.06,0,0,1,.43-1.43,1.36,1.36,0,0,1,1.2-.42,4.12,4.12,0,0,1,1.78.63,7.48,7.48,0,0,1,1.78,1.41,6.52,6.52,0,0,1,1.2,1.77,4.66,4.66,0,0,1,.43,1.88h0a.09.09,0,0,1-.05.09.11.11,0,0,1-.09,0l-1.07-.56a.23.23,0,0,1-.14-.2v0a3.18,3.18,0,0,0-.56-1.77,4.24,4.24,0,0,0-1.5-1.41,1.79,1.79,0,0,0-1.5-.32q-.57.21-.57,1.11v3.72a3.2,3.2,0,0,0,.57,1.77,4.35,4.35,0,0,0,1.5,1.42,1.8,1.8,0,0,0,1.5.32c.38-.15.56-.52.56-1.12v0c0-.08.05-.1.14,0l1.07.67a.24.24,0,0,1,.14.22,2,2,0,0,1-.43,1.38,1.42,1.42,0,0,1-1.2.41,4.5,4.5,0,0,1-1.78-.63A7.72,7.72,0,0,1,295.66,273.62Z" transform="translate(-6.65 -44.9)"/><path class="cls-1" d="M305.23,279.12a6.86,6.86,0,0,1-1.22-1.89,5,5,0,0,1-.43-2v-3.34a2.26,2.26,0,0,1,.43-1.5,1.47,1.47,0,0,1,1.22-.47,4.07,4.07,0,0,1,1.8.62,7.08,7.08,0,0,1,1.82,1.48,6.69,6.69,0,0,1,1.22,1.87,5.06,5.06,0,0,1,.44,2v3.34a2.26,2.26,0,0,1-.44,1.5,1.4,1.4,0,0,1-1.22.48,4.12,4.12,0,0,1-1.82-.63A7.26,7.26,0,0,1,305.23,279.12Zm3.34.6c.4-.16.59-.57.59-1.21V275.1a3.48,3.48,0,0,0-.59-1.91,4.28,4.28,0,0,0-1.54-1.48,1.69,1.69,0,0,0-1.53-.29c-.39.17-.58.58-.58,1.24v3.4a3.51,3.51,0,0,0,.58,1.89,4.49,4.49,0,0,0,1.53,1.47A1.75,1.75,0,0,0,308.57,279.72Z" transform="translate(-6.65 -44.9)"/><path class="cls-1" d="M319.51,277.86l1.06.61a.26.26,0,0,1,.14.22v9.52c0,.1,0,.12-.14.06l-1-.59a.46.46,0,0,1-.17-.19L315,277.8a.09.09,0,0,0,0-.06s0,0,0,0v7.1c0,.1,0,.12-.14.06l-1.06-.61a.26.26,0,0,1-.14-.22v-9.52c0-.1,0-.12.14-.06l1,.6a.39.39,0,0,1,.16.19l4.37,9.68a.15.15,0,0,0,0,.06s0,0,0,0v-7.1C319.37,277.82,319.41,277.8,319.51,277.86Z" transform="translate(-6.65 -44.9)"/><path class="cls-1" d="M330.44,284.31v.9c0,.09-.05.11-.14.06l-2.69-1.56s-.05,0-.05,0v8.42c0,.1-.05.12-.14.06l-1.07-.61a.25.25,0,0,1-.14-.22V283a.11.11,0,0,0,0-.09l-2.56-1.48a.22.22,0,0,1-.14-.22v-.89c0-.1,0-.12.14-.06l6.7,3.87A.25.25,0,0,1,330.44,284.31Z" transform="translate(-6.65 -44.9)"/><path class="cls-1" d="M333.16,295.4v-9.52c0-.1,0-.11.14-.06l1.06.61a.24.24,0,0,1,.14.22v9.52c0,.1,0,.12-.14.06l-1.06-.61A.25.25,0,0,1,333.16,295.4Z" transform="translate(-6.65 -44.9)"/><path class="cls-1" d="M343.76,291.86l1.06.61a.26.26,0,0,1,.14.22v9.52c0,.1,0,.11-.14.06l-1-.59a.46.46,0,0,1-.17-.19l-4.38-9.69a.15.15,0,0,0,0-.06s0,0,0,0v7.1c0,.1-.05.11-.14.06l-1.06-.61a.24.24,0,0,1-.14-.22v-9.52c0-.1,0-.12.14-.06l1,.59a.49.49,0,0,1,.17.2l4.37,9.68a.09.09,0,0,0,0,.06s0,0,0,0v-7.1C343.62,291.82,343.66,291.8,343.76,291.86Z" transform="translate(-6.65 -44.9)"/><path class="cls-1" d="M349.87,304.9a6.61,6.61,0,0,1-1.21-1.83,4.82,4.82,0,0,1-.44-1.94v-6.55c0-.1,0-.12.14-.06l1.07.61a.25.25,0,0,1,.14.22v6.58a3.28,3.28,0,0,0,.58,1.81,4.35,4.35,0,0,0,1.52,1.43,1.81,1.81,0,0,0,1.51.32q.57-.24.57-1.14v-6.58c0-.1.05-.12.14-.06l1.07.61a.26.26,0,0,1,.14.22v6.56a2.17,2.17,0,0,1-.43,1.44,1.42,1.42,0,0,1-1.2.44,4.41,4.41,0,0,1-1.8-.64A7.5,7.5,0,0,1,349.87,304.9Z" transform="translate(-6.65 -44.9)"/><path class="cls-1" d="M358.34,309.94v-9.52c0-.09.05-.11.14-.06l1.07.61a.27.27,0,0,1,.14.23v9.52c0,.09-.05.11-.14,0l-1.07-.61A.25.25,0,0,1,358.34,309.94Z" transform="translate(-6.65 -44.9)"/><path class="cls-1" d="M369.4,306.8v.9c0,.09,0,.11-.14.06l-2.68-1.55s-.06,0-.06,0v8.43c0,.09,0,.11-.14.06l-1.06-.62a.22.22,0,0,1-.14-.22v-8.42a.1.1,0,0,0-.06-.09l-2.56-1.48a.24.24,0,0,1-.14-.22v-.9c0-.09,0-.11.14-.06l6.7,3.87A.24.24,0,0,1,369.4,306.8Z" transform="translate(-6.65 -44.9)"/><path class="cls-1" d="M374.39,319.19v-3.94a.12.12,0,0,0,0-.07L371.46,308a.19.19,0,0,1,0-.08c0-.06,0-.07.11,0l1.15.66a.41.41,0,0,1,.17.2l2.14,5.34a.1.1,0,0,0,0,.05s0,0,0,0l2.14-2.86c0-.05.09-.05.17,0l1.16.67a.29.29,0,0,1,.11.11.09.09,0,0,1,0,.11L375.75,316s0,0,0,.06V320c0,.1,0,.12-.14.06l-1.06-.61A.23.23,0,0,1,374.39,319.19Z" transform="translate(-6.65 -44.9)"/><path class="cls-3" d="M366.21,324.39l4.11,2.37a44.25,44.25,0,0,1,4.55,6.28,3.74,3.74,0,0,0,.92,2.81c.45,4.67-1.73,5.18-3.66,6.11-.35-.11-.89-.52-.9-.07a16.58,16.58,0,0,1-5.94-3.43,40.32,40.32,0,0,1-4.1-6.48c-.13-1.62-.73-3-.45-4.82.52.23.48-.44.45-1.1C362.42,324.8,364.25,324.5,366.21,324.39Z" transform="translate(-6.65 -44.9)"/><path class="cls-3" d="M363.92,342.23l3.2,1.84a25.59,25.59,0,0,1,5.47,7.73c1.41,7-2,9.74-8.67,5.49-2.14-2-3.38-4.35-5-6.56-.4-2-1.24-3.72-.91-6C359,342.35,361.15,341.8,363.92,342.23Z" transform="translate(-6.65 -44.9)"/><path class="cls-3" d="M350.24,364.89c-.41-6.88,4.31-7.58,10.5-2.6a26.36,26.36,0,0,1,4.55,8.1c.58,7.38-5.29,7.62-11.4,1.63C352.63,369.67,351,367.47,350.24,364.89Z" transform="translate(-6.65 -44.9)"/><path class="cls-3" d="M337.92,364.17c10.69,4.57,11.51,20.07,3.2,16.9l-3.2-1.85c-4.2-3.67-7.52-10.59-5-14.3A8.6,8.6,0,0,1,337.92,364.17Z" transform="translate(-6.65 -44.9)"/><path class="cls-3" d="M274.51,330.75l3.19,1.85a27.8,27.8,0,0,1,5.47,7.72c1.79,7.78-3.25,10-10,4.24a25.71,25.71,0,0,1-4.09-6.93c0-1.52-.78-2.72-.46-4.37C269.77,331.19,271.62,330.14,274.51,330.75Z" transform="translate(-6.65 -44.9)"/><path class="cls-3" d="M293.21,344.3c5.65,2.77,8,6.93,9.58,11.45.45,4.67-1.72,5.18-3.64,6.1-.54-.38-.82-.37-.92-.06-2.34-.56-4.87-2.48-6.84-4.41-1-1.87-2.32-3.58-3.19-5.49C286.49,345.57,289.88,344.1,293.21,344.3Z" transform="translate(-6.65 -44.9)"/><path class="cls-3" d="M323.32,366.69c5.27,15.63-13.81,7.06-14.14-4.06-.15-4.91,4-6.57,10-1.5A37.18,37.18,0,0,1,323.32,366.69Z" transform="translate(-6.65 -44.9)"/><path class="cls-3" d="M361.19,326.06c.22-2.4,2.48-1.57,3.65-2.46l1.37.79C364.25,324.5,362.42,324.8,361.19,326.06Z" transform="translate(-6.65 -44.9)"/><path class="cls-3" d="M360.74,327.16c-.28,1.78.32,3.2.45,4.82C360.12,331,359.79,327.44,360.74,327.16Z" transform="translate(-6.65 -44.9)"/><path class="cls-3" d="M365.29,338.46a16.58,16.58,0,0,0,5.94,3.43C370.5,342.82,366,340.23,365.29,338.46Z" transform="translate(-6.65 -44.9)"/><path class="cls-3" d="M372.13,342c1.93-.93,4.11-1.44,3.66-6.11C377.2,340.22,374.94,342.72,372.13,342Z" transform="translate(-6.65 -44.9)"/><path class="cls-3" d="M374.87,333a44.25,44.25,0,0,0-4.55-6.28l1.36.79C372.75,329.38,374.53,330.9,374.87,333Z" transform="translate(-6.65 -44.9)"/><path class="cls-3" d="M358,344.73q.62-5,5.92-2.5C361.15,341.8,359,342.35,358,344.73Z" transform="translate(-6.65 -44.9)"/><path class="cls-3" d="M367.12,344.07a12,12,0,0,1,5.47,7.73A25.59,25.59,0,0,0,367.12,344.07Z" transform="translate(-6.65 -44.9)"/><path class="cls-3" d="M358.91,350.73c1.63,2.21,2.87,4.57,5,6.56A11,11,0,0,1,358.91,350.73Z" transform="translate(-6.65 -44.9)"/><path class="cls-3" d="M350.24,364.89c.75,2.58,2.39,4.78,3.65,7.13C351.88,370,350.22,367.79,350.24,364.89Z" transform="translate(-6.65 -44.9)"/><path class="cls-3" d="M360.74,362.29c2.48,2.29,4.47,4.8,4.55,8.1A26.36,26.36,0,0,0,360.74,362.29Z" transform="translate(-6.65 -44.9)"/><path class="cls-3" d="M337.92,379.22c-5.15-2.92-8.33-12.13-5-14.3C330.4,368.63,333.72,375.55,337.92,379.22Z" transform="translate(-6.65 -44.9)"/><path class="cls-3" d="M337.92,364.17c10.24,2.28,13.22,22.16,3.2,16.9C349.43,384.24,348.61,368.74,337.92,364.17Z" transform="translate(-6.65 -44.9)"/><path class="cls-3" d="M268.58,333.26c.47-3.2,2.46-4,5.93-2.51C271.62,330.14,269.77,331.19,268.58,333.26Z" transform="translate(-6.65 -44.9)"/><path class="cls-3" d="M273.13,344.56c-2.28-1.63-4.71-5.59-4.09-6.93A25.71,25.71,0,0,0,273.13,344.56Z" transform="translate(-6.65 -44.9)"/><path class="cls-3" d="M277.7,332.6a11.94,11.94,0,0,1,5.47,7.72A27.8,27.8,0,0,0,277.7,332.6Z" transform="translate(-6.65 -44.9)"/><path class="cls-3" d="M364.38,385.38c7.46,8.17,2.71,17.45-5.93,10.71C348.42,388.28,353.37,373.31,364.38,385.38Z" transform="translate(-6.65 -44.9)"/><path class="cls-3" d="M288.2,351.89c-2.45-5.65.7-9.66,5-7.59C289.88,344.1,286.49,345.57,288.2,351.89Z" transform="translate(-6.65 -44.9)"/><path class="cls-3" d="M291.39,357.38c2,1.93,4.5,3.85,6.84,4.41C297.08,362.68,292.09,359.46,291.39,357.38Z" transform="translate(-6.65 -44.9)"/><path class="cls-3" d="M299.15,361.85c1.92-.92,4.09-1.43,3.64-6.1C304.2,360.13,302,362.63,299.15,361.85Z" transform="translate(-6.65 -44.9)"/><path class="cls-3" d="M323.32,366.69c7,17.51-16.09,6.67-14.6-5.69.48-4,7-5.07,10.5.13-6-5.07-10.19-3.41-10,1.5C309.51,373.75,328.59,382.32,323.32,366.69Z" transform="translate(-6.65 -44.9)"/><path class="cls-3" d="M309.64,346.47c1.22-.34,4.39,2.38,6.38,3.24C314.8,350.05,311.62,347.32,309.64,346.47Z" transform="translate(-6.65 -44.9)"/><path class="cls-3" d="M378.07,403.32c12.92,5.49,11,24.3-.91,14.53C370.53,412.42,370.52,400.11,378.07,403.32Z" transform="translate(-6.65 -44.9)"/><path class="cls-3" d="M393.58,431c12.53,5.31,11.72,24.27-.46,14.79C387.4,441.31,384.49,427.12,393.58,431Z" transform="translate(-6.65 -44.9)"/><path class="cls-3" d="M316,349.71c15.29,6.76,23.92,3.05,29.2-6-1.72-1.85-5-.47-7.3-3.3.49-3.79,7.75.69,10,1.24,2.43,2.68,3.82,8,3.19,10.51-2.53-1.21-2.35-3.56-3.19-5.49-6.82,9.39-18,15.2-40.6,1.19-4-2.48-9.19-5.62-12.32-9.84,3.74-.31,9.69,6.19,14.6,8.42C311.62,347.32,314.8,350.05,316,349.71Z" transform="translate(-6.65 -44.9)"/><path class="cls-3" d="M361.19,409.08c1.34-.93.13-5.88,1.82-6.25,4,3.13.31,7.4.91,11-2.33,0-6.18-.12-9.12-2.54-.46-3.3,2.61-1.05,4.57-.55-4.25-6.37-9.62-13.2-16.43-17.7-8.81-5.82-17.7-5.11-25.09-9.46.61-3.45,5.79-.2,9.12.69,5,1.36,10.3,2.56,15.51,5.77C350.17,394.8,356.46,403.45,361.19,409.08Z" transform="translate(-6.65 -44.9)"/><polygon class="cls-2" points="430.14 432.71 224.35 313.9 224.35 168.34 430.14 287.16 430.14 432.71"/><path class="cls-1" d="M497.54,390.7a6.84,6.84,0,0,1-1.21-1.83,4.93,4.93,0,0,1-.43-1.93v-3.63a2.11,2.11,0,0,1,.43-1.43,1.42,1.42,0,0,1,1.21-.42,4.16,4.16,0,0,1,1.78.63,7.69,7.69,0,0,1,1.78,1.41,6.8,6.8,0,0,1,1.2,1.78,4.57,4.57,0,0,1,.42,1.87h0s0,.08,0,.09a.12.12,0,0,1-.1,0l-1.06-.56a.26.26,0,0,1-.14-.21v0a3.26,3.26,0,0,0-.56-1.77,4.24,4.24,0,0,0-1.5-1.41,1.81,1.81,0,0,0-1.51-.32c-.37.14-.56.52-.56,1.11v3.73a3.29,3.29,0,0,0,.56,1.77,4.44,4.44,0,0,0,1.51,1.41,1.8,1.8,0,0,0,1.5.32c.37-.15.56-.52.56-1.12v0c0-.08.05-.09.14,0l1.06.67a.23.23,0,0,1,.14.22,2,2,0,0,1-.42,1.38,1.4,1.4,0,0,1-1.2.41,4.16,4.16,0,0,1-1.78-.63A7.51,7.51,0,0,1,497.54,390.7Z" transform="translate(-6.65 -44.9)"/><path class="cls-1" d="M507.1,396.2a6.93,6.93,0,0,1-1.21-1.88,5.11,5.11,0,0,1-.44-2V389a2.22,2.22,0,0,1,.44-1.5,1.42,1.42,0,0,1,1.21-.48,4.09,4.09,0,0,1,1.81.63,7.44,7.44,0,0,1,1.82,1.47A7,7,0,0,1,512,391a5,5,0,0,1,.43,2v3.33a2.3,2.3,0,0,1-.43,1.51,1.44,1.44,0,0,1-1.22.48,4.35,4.35,0,0,1-1.82-.63A7.78,7.78,0,0,1,507.1,396.2Zm3.35.6c.39-.16.59-.57.59-1.21v-3.4a3.59,3.59,0,0,0-.59-1.92,4.37,4.37,0,0,0-1.54-1.48,1.72,1.72,0,0,0-1.53-.29c-.39.17-.58.59-.58,1.24v3.4a3.51,3.51,0,0,0,.58,1.89,4.31,4.31,0,0,0,1.53,1.47A1.75,1.75,0,0,0,510.45,396.8Z" transform="translate(-6.65 -44.9)"/><path class="cls-1" d="M521.38,394.94l1.07.61a.27.27,0,0,1,.14.23v9.52c0,.09-.05.11-.14.05l-1-.59a.36.36,0,0,1-.17-.19l-4.38-9.68s0-.06,0-.06,0,0,0,0V402c0,.09-.05.11-.14,0l-1.06-.61a.23.23,0,0,1-.14-.22v-9.52c0-.09,0-.11.14-.06l1,.6a.46.46,0,0,1,.17.19l4.37,9.68a.09.09,0,0,0,0,.06,0,0,0,0,0,0,0l0-7.11C521.24,394.91,521.29,394.89,521.38,394.94Z" transform="translate(-6.65 -44.9)"/><path class="cls-1" d="M531.7,400.9l1.07.61a.26.26,0,0,1,.14.22v9.52c0,.1,0,.12-.14.06l-1-.59a.4.4,0,0,1-.17-.19l-4.39-9.69a.07.07,0,0,0,0-.06s0,0,0,0v7.1c0,.1,0,.12-.14.06l-1.06-.61a.25.25,0,0,1-.15-.22v-9.52q0-.15.15-.06l1,.6a.4.4,0,0,1,.17.19l4.37,9.68a.09.09,0,0,0,0,.06s0,0,0,0l0-7.1C531.56,400.86,531.61,400.84,531.7,400.9Z" transform="translate(-6.65 -44.9)"/><path class="cls-1" d="M542.48,408.28l-5-2.87s0,0,0,0v3s0,.06,0,.09l3.42,2a.25.25,0,0,1,.14.22v.88c0,.09-.05.11-.14.06l-3.42-2s0,0,0,0v3.08a.11.11,0,0,0,0,.09l5,2.87a.23.23,0,0,1,.14.22v.88c0,.1,0,.12-.14.06l-6.23-3.6a.24.24,0,0,1-.14-.22v-9.52c0-.09,0-.11.14-.06l6.23,3.6a.24.24,0,0,1,.14.22v.88C542.62,408.32,542.58,408.34,542.48,408.28Z" transform="translate(-6.65 -44.9)"/><path class="cls-1" d="M546.9,419.2a6.57,6.57,0,0,1-1.2-1.83,4.76,4.76,0,0,1-.43-1.93v-3.63a2.06,2.06,0,0,1,.43-1.43,1.39,1.39,0,0,1,1.2-.42,4.12,4.12,0,0,1,1.78.63,7.48,7.48,0,0,1,1.78,1.41,6.57,6.57,0,0,1,1.2,1.78,4.58,4.58,0,0,1,.43,1.87h0s0,.08-.05.09a.1.1,0,0,1-.09,0l-1.07-.56a.26.26,0,0,1-.14-.21v0a3.18,3.18,0,0,0-.56-1.77,4.24,4.24,0,0,0-1.5-1.41,1.79,1.79,0,0,0-1.5-.32c-.38.14-.57.52-.57,1.11v3.73a3.22,3.22,0,0,0,.57,1.77,4.41,4.41,0,0,0,1.5,1.41,1.8,1.8,0,0,0,1.5.32c.38-.15.56-.52.56-1.12v0c0-.08,0-.09.14,0l1.07.67a.25.25,0,0,1,.14.22,2,2,0,0,1-.43,1.38,1.39,1.39,0,0,1-1.2.41,4.21,4.21,0,0,1-1.78-.63A7.72,7.72,0,0,1,546.9,419.2Z" transform="translate(-6.65 -44.9)"/><path class="cls-1" d="M561.33,418.14v.9c0,.09-.05.11-.14.06l-2.69-1.56s-.06,0-.06,0V426c0,.09,0,.11-.14.05l-1.06-.61a.23.23,0,0,1-.14-.22v-8.43a.1.1,0,0,0-.06-.09l-2.56-1.48a.24.24,0,0,1-.14-.22v-.89c0-.1,0-.12.14-.06l6.71,3.87A.25.25,0,0,1,561.33,418.14Z" transform="translate(-6.65 -44.9)"/><path class="cls-1" d="M570.41,424.41l-5-2.87s-.05,0-.05,0v3a.11.11,0,0,0,.05.09l3.42,2a.26.26,0,0,1,.14.22v.89c0,.09,0,.11-.14.06l-3.42-2s-.05,0-.05,0v3.08a.1.1,0,0,0,.05.08l5,2.87a.25.25,0,0,1,.14.23V433c0,.09,0,.11-.14.06l-6.23-3.6a.25.25,0,0,1-.14-.22v-9.52c0-.09.05-.11.14-.06l6.23,3.6a.22.22,0,0,1,.14.22v.88C570.55,424.44,570.51,424.46,570.41,424.41Z" transform="translate(-6.65 -44.9)"/><path class="cls-1" d="M573.46,434.67v-9.52c0-.09,0-.11.14-.06l3.39,2a7.08,7.08,0,0,1,2.33,2.1,4.51,4.51,0,0,1,.86,2.54v4.2c0,.85-.29,1.36-.86,1.53a3.1,3.1,0,0,1-2.33-.57l-3.39-2A.25.25,0,0,1,573.46,434.67Zm1.4-.21,2.19,1.26a1.48,1.48,0,0,0,1.29.25c.33-.15.49-.5.5-1.05v-3.81a3,3,0,0,0-.48-1.62,3.74,3.74,0,0,0-1.31-1.25L574.86,427s-.05,0-.05,0v7.37A.14.14,0,0,0,574.86,434.46Z" transform="translate(-6.65 -44.9)"/><path class="cls-1" d="M589.07,434l1.07.62a.24.24,0,0,1,.14.22v9.52c0,.09,0,.11-.14.06l-1-.59a.49.49,0,0,1-.17-.2L584.57,434s0-.06-.05-.06,0,0,0,0v7.11c0,.09,0,.11-.14.06l-1.06-.62a.23.23,0,0,1-.14-.22v-9.52c0-.09,0-.11.14-.06l1,.6a.46.46,0,0,1,.17.19l4.37,9.68a.09.09,0,0,0,0,.06s0,0,0,0v-7.11C588.94,434,589,434,589.07,434Z" transform="translate(-6.65 -44.9)"/><path class="cls-1" d="M599.85,441.41l-5-2.87s-.06,0-.06,0v3a.1.1,0,0,0,.06.09l3.41,2a.26.26,0,0,1,.14.22v.88c0,.1-.05.12-.14.06l-3.41-2s-.06,0-.06,0v3.08a.09.09,0,0,0,.06.08l5,2.87a.24.24,0,0,1,.14.22V450c0,.09,0,.11-.14.06l-6.23-3.6a.26.26,0,0,1-.14-.22v-9.52c0-.1,0-.12.14-.06l6.23,3.59a.25.25,0,0,1,.14.23v.88C600,441.44,600,441.46,599.85,441.41Z" transform="translate(-6.65 -44.9)"/><path class="cls-1" d="M604.06,452.25a6.38,6.38,0,0,1-1.22-1.66,3.79,3.79,0,0,1-.42-1.68v-.41c0-.09,0-.11.14-.06l1,.59a.25.25,0,0,1,.14.22v.34a2.61,2.61,0,0,0,.61,1.53,5.71,5.71,0,0,0,1.7,1.44,2.15,2.15,0,0,0,1.45.43c.33-.08.49-.34.49-.78a1.76,1.76,0,0,0-.25-.88,5.56,5.56,0,0,0-.73-1c-.32-.35-.79-.83-1.41-1.43s-1.22-1.21-1.62-1.65a6.79,6.79,0,0,1-1-1.42,3.3,3.3,0,0,1-.4-1.54c0-.81.29-1.27.87-1.4a3.6,3.6,0,0,1,2.33.66,8.8,8.8,0,0,1,1.82,1.4,6.83,6.83,0,0,1,1.21,1.68,3.94,3.94,0,0,1,.42,1.7v.28c0,.1,0,.12-.14.06l-1.05-.6a.26.26,0,0,1-.14-.22v-.21a2.7,2.7,0,0,0-.58-1.55,4.81,4.81,0,0,0-1.6-1.41,2.3,2.3,0,0,0-1.34-.42c-.32.06-.48.31-.48.76a1.83,1.83,0,0,0,.24.89,4.42,4.42,0,0,0,.71.93c.31.34.79.81,1.43,1.43s1.2,1.19,1.61,1.65a6.86,6.86,0,0,1,1,1.46,3.31,3.31,0,0,1,.41,1.57c0,.82-.3,1.3-.9,1.43a3.8,3.8,0,0,1-2.49-.72A8.73,8.73,0,0,1,604.06,452.25Z" transform="translate(-6.65 -44.9)"/><path class="cls-1" d="M613.34,457.61a6.33,6.33,0,0,1-1.21-1.66,3.68,3.68,0,0,1-.43-1.68v-.41c0-.09,0-.11.14-.06l1,.59a.25.25,0,0,1,.14.22V455a2.64,2.64,0,0,0,.62,1.53,5.66,5.66,0,0,0,1.69,1.44,2.16,2.16,0,0,0,1.46.43c.32-.08.49-.34.49-.78a1.94,1.94,0,0,0-.25-.89,6,6,0,0,0-.74-1c-.32-.36-.79-.83-1.41-1.43s-1.22-1.21-1.61-1.65a6.72,6.72,0,0,1-1-1.42,3.3,3.3,0,0,1-.39-1.55c0-.8.28-1.26.86-1.39a3.54,3.54,0,0,1,2.33.66,8.54,8.54,0,0,1,1.82,1.4,6.58,6.58,0,0,1,1.21,1.68,4,4,0,0,1,.43,1.7V454c0,.1,0,.12-.14.06l-1-.6a.24.24,0,0,1-.14-.22V453a2.74,2.74,0,0,0-.58-1.55A5,5,0,0,0,615,450a2.28,2.28,0,0,0-1.34-.42c-.32.06-.48.31-.48.76a1.83,1.83,0,0,0,.24.89,4.42,4.42,0,0,0,.71.93c.31.34.79.81,1.43,1.43s1.2,1.19,1.61,1.65a7.06,7.06,0,0,1,1,1.45,3.27,3.27,0,0,1,.41,1.58c0,.82-.3,1.29-.9,1.43a3.82,3.82,0,0,1-2.49-.72A8.73,8.73,0,0,1,613.34,457.61Z" transform="translate(-6.65 -44.9)"/><polygon class="cls-2" points="655.78 563.28 449.98 444.46 449.98 298.91 655.78 417.72 655.78 563.28"/><path class="cls-1" d="M306.65,445.22a6.57,6.57,0,0,1-1.2-1.83,4.76,4.76,0,0,1-.43-1.93v-3.63a2.06,2.06,0,0,1,.43-1.43,1.39,1.39,0,0,1,1.2-.42,4.2,4.2,0,0,1,1.79.63,7.63,7.63,0,0,1,1.77,1.41,6.35,6.35,0,0,1,1.2,1.78,4.43,4.43,0,0,1,.43,1.87h0a.1.1,0,0,1,0,.09.1.1,0,0,1-.1,0l-1.06-.55a.25.25,0,0,1-.15-.21v0a3.25,3.25,0,0,0-.55-1.77,4.41,4.41,0,0,0-1.5-1.41,1.81,1.81,0,0,0-1.51-.32c-.38.14-.57.52-.57,1.11v3.73a3.25,3.25,0,0,0,.57,1.77,4.35,4.35,0,0,0,1.51,1.41,1.79,1.79,0,0,0,1.5.32c.37-.15.55-.52.55-1.12v0c0-.08.05-.1.15,0l1.06.67a.25.25,0,0,1,.14.22,1.92,1.92,0,0,1-.43,1.38,1.38,1.38,0,0,1-1.2.41,4.13,4.13,0,0,1-1.77-.63A7.56,7.56,0,0,1,306.65,445.22Z" transform="translate(-6.65 -44.9)"/><path class="cls-1" d="M314.83,450.08v-9.52q0-.15.15-.06l1.06.61a.25.25,0,0,1,.14.22v8.44a.1.1,0,0,0,.06.09l4.82,2.79a.23.23,0,0,1,.14.22v.88c0,.1,0,.12-.14.06L315,450.3A.25.25,0,0,1,314.83,450.08Z" transform="translate(-6.65 -44.9)"/><path class="cls-1" d="M325.18,455.89A7,7,0,0,1,324,454a5.09,5.09,0,0,1-.43-2v-3.33a2.26,2.26,0,0,1,.43-1.5,1.41,1.41,0,0,1,1.22-.47,4.1,4.1,0,0,1,1.81.62,7.63,7.63,0,0,1,1.82,1.47,6.7,6.7,0,0,1,1.21,1.88,5,5,0,0,1,.44,2V456a2.29,2.29,0,0,1-.44,1.51,1.41,1.41,0,0,1-1.21.48,4,4,0,0,1-1.82-.63A7.34,7.34,0,0,1,325.18,455.89Zm3.35.61c.39-.17.58-.57.58-1.22v-3.4a3.55,3.55,0,0,0-.58-1.91,4.39,4.39,0,0,0-1.54-1.49,1.74,1.74,0,0,0-1.54-.29c-.38.17-.58.59-.58,1.24v3.4a3.54,3.54,0,0,0,.58,1.89A4.37,4.37,0,0,0,327,456.2,1.81,1.81,0,0,0,328.53,456.5Z" transform="translate(-6.65 -44.9)"/><path class="cls-1" d="M334.71,461.46a6.12,6.12,0,0,1-1.22-1.65,3.75,3.75,0,0,1-.43-1.69v-.4c0-.1.05-.12.14-.06l1,.59a.24.24,0,0,1,.14.22v.33a2.57,2.57,0,0,0,.61,1.53,5.43,5.43,0,0,0,1.7,1.44,2.16,2.16,0,0,0,1.45.44c.33-.08.49-.34.49-.78a1.8,1.8,0,0,0-.25-.89,5.5,5.5,0,0,0-.74-1c-.32-.36-.79-.84-1.4-1.44s-1.22-1.2-1.62-1.64a7,7,0,0,1-1-1.42,3.33,3.33,0,0,1-.39-1.55c0-.8.29-1.27.86-1.39a3.47,3.47,0,0,1,2.33.66,8.23,8.23,0,0,1,1.82,1.4,6,6,0,0,1,1.21,1.68,3.79,3.79,0,0,1,.43,1.7v.28c0,.09-.05.11-.14.06l-1.05-.61a.25.25,0,0,1-.14-.22v-.21a2.67,2.67,0,0,0-.58-1.54,4.91,4.91,0,0,0-1.6-1.41,2.17,2.17,0,0,0-1.35-.42c-.31,0-.47.3-.47.75a1.94,1.94,0,0,0,.23.9,5.48,5.48,0,0,0,.71.93c.32.33.79.81,1.44,1.42s1.2,1.2,1.61,1.65a7.12,7.12,0,0,1,1,1.46,3.37,3.37,0,0,1,.41,1.57c0,.82-.31,1.3-.91,1.43a3.71,3.71,0,0,1-2.48-.71A8.84,8.84,0,0,1,334.71,461.46Z" transform="translate(-6.65 -44.9)"/><path class="cls-1" d="M344.38,467a6.73,6.73,0,0,1-1.21-1.84,4.72,4.72,0,0,1-.43-1.93v-6.56c0-.09,0-.11.14-.05l1.06.61a.25.25,0,0,1,.14.22V464a3.28,3.28,0,0,0,.58,1.81,4.53,4.53,0,0,0,1.52,1.43,1.81,1.81,0,0,0,1.51.32c.39-.16.58-.54.58-1.14v-6.58c0-.1,0-.12.14-.06l1.06.61a.26.26,0,0,1,.14.22v6.56a2.12,2.12,0,0,1-.43,1.44,1.36,1.36,0,0,1-1.2.43,4.13,4.13,0,0,1-1.8-.64A7.62,7.62,0,0,1,344.38,467Z" transform="translate(-6.65 -44.9)"/><path class="cls-1" d="M358.29,475.21l-2-5.32a.16.16,0,0,0-.06-.08l-2-1.16s-.06,0-.06,0v4.13c0,.1,0,.12-.14.06l-1.06-.61a.26.26,0,0,1-.14-.22v-9.52c0-.1.05-.11.14-.06l3.76,2.17a6,6,0,0,1,1.48,1.21,5.44,5.44,0,0,1,1,1.55,4.26,4.26,0,0,1,.35,1.65,1.62,1.62,0,0,1-.51,1.37,1.52,1.52,0,0,1-1.42.09s0,0,0,.06l2,5.37a.19.19,0,0,1,0,.08c0,.06,0,.07-.11,0l-1.11-.64A.34.34,0,0,1,358.29,475.21Zm-4.09-10.85v3.14a.1.1,0,0,0,.06.09l2.34,1.35a1.42,1.42,0,0,0,1.19.24c.29-.12.44-.42.44-.91a2.75,2.75,0,0,0-.44-1.45,3.39,3.39,0,0,0-1.19-1.13l-2.34-1.35S354.2,464.32,354.2,464.36Z" transform="translate(-6.65 -44.9)"/><path class="cls-1" d="M368.86,472.77l-5-2.87s-.06,0-.06,0v3a.1.1,0,0,0,.06.09l3.42,2a.26.26,0,0,1,.14.22v.89c0,.09-.05.11-.14.06l-3.42-2s-.06,0-.06,0v3.08a.12.12,0,0,0,.06.09l5,2.86a.27.27,0,0,1,.14.23v.88c0,.09-.05.11-.14.06l-6.23-3.6a.25.25,0,0,1-.14-.22v-9.52c0-.09.05-.11.14-.06l6.23,3.6a.24.24,0,0,1,.14.22v.88C369,472.8,369,472.82,368.86,472.77Z" transform="translate(-6.65 -44.9)"/><polygon class="cls-2" points="430.14 600.42 224.35 481.61 224.35 336.05 430.14 454.86 430.14 600.42"/><path class="cls-1" d="M522.64,571.63a6.16,6.16,0,0,1-1.22-1.66,3.72,3.72,0,0,1-.43-1.69v-.4c0-.1,0-.12.14-.06l1,.59a.23.23,0,0,1,.14.22V569a2.64,2.64,0,0,0,.62,1.53,5.79,5.79,0,0,0,1.69,1.44,2.23,2.23,0,0,0,1.46.43c.33-.08.49-.34.49-.78a1.82,1.82,0,0,0-.25-.89,5.5,5.5,0,0,0-.74-1c-.32-.36-.79-.84-1.4-1.43s-1.22-1.21-1.62-1.65a6.72,6.72,0,0,1-1-1.42,3.33,3.33,0,0,1-.39-1.55c0-.8.29-1.26.86-1.39a3.48,3.48,0,0,1,2.33.66,8.54,8.54,0,0,1,1.82,1.4,6.41,6.41,0,0,1,1.21,1.68,3.79,3.79,0,0,1,.43,1.7V568c0,.1,0,.12-.14.06l-1-.61a.24.24,0,0,1-.14-.22V567a2.67,2.67,0,0,0-.58-1.54,4.91,4.91,0,0,0-1.6-1.41,2.23,2.23,0,0,0-1.35-.42c-.32.05-.47.31-.47.75a1.94,1.94,0,0,0,.23.9,4.79,4.79,0,0,0,.71.93c.31.34.79.81,1.44,1.42s1.2,1.2,1.61,1.65a7.4,7.4,0,0,1,1,1.46,3.36,3.36,0,0,1,.4,1.57c0,.83-.3,1.3-.9,1.44a3.79,3.79,0,0,1-2.48-.72A8.49,8.49,0,0,1,522.64,571.63Z" transform="translate(-6.65 -44.9)"/><path class="cls-1" d="M532.79,577.56v-3.93s0-.07,0-.08l-2.91-7.16a.19.19,0,0,1,0-.07c0-.07,0-.08.12,0l1.14.67a.32.32,0,0,1,.17.19l2.14,5.34.05,0h0l2.14-2.87s.08,0,.17,0l1.16.67a.38.38,0,0,1,.11.11.1.1,0,0,1,0,.12l-2.93,3.78s0,0,0,.06v3.94c0,.09,0,.11-.14.06l-1.06-.62A.24.24,0,0,1,532.79,577.56Z" transform="translate(-6.65 -44.9)"/><path class="cls-1" d="M546.28,575.7l1.06.61a.26.26,0,0,1,.14.22v9.52c0,.1-.05.12-.14.06l-1.06-.61a.24.24,0,0,1-.14-.22v-7.17a.09.09,0,0,0,0-.07s0,0,0,0l-2,1.9s-.09,0-.16,0l-.54-.31a.47.47,0,0,1-.16-.18l-2-4.19s0,0,0,0,0,0,0,0v7.14c0,.09-.05.11-.14.06l-1.06-.62a.23.23,0,0,1-.14-.22v-9.52c0-.09,0-.11.14-.06l1.06.62a.42.42,0,0,1,.17.18l2.45,5.08,0,0h0l2.44-2.26A.15.15,0,0,1,546.28,575.7Z" transform="translate(-6.65 -44.9)"/><path class="cls-1" d="M557.34,582.08l1.06.62a.25.25,0,0,1,.14.22v9.52c0,.09,0,.11-.14.06l-1.06-.62a.22.22,0,0,1-.14-.22V584.5a.11.11,0,0,0,0-.08s0,0,0,0l-2,1.89s-.09,0-.16,0l-.54-.31a.36.36,0,0,1-.16-.18l-2-4.19s0,0,0,0,0,0,0,0v7.14c0,.1,0,.11-.14.06l-1.06-.61a.24.24,0,0,1-.14-.22v-9.52c0-.1,0-.12.14-.06L552,579a.42.42,0,0,1,.17.18l2.45,5.08,0,0s0,0,0,0l2.44-2.26S557.27,582.05,557.34,582.08Z" transform="translate(-6.65 -44.9)"/><path class="cls-1" d="M568.26,589.55l-5-2.87s-.06,0-.06,0v3a.09.09,0,0,0,.06.08l3.41,2a.22.22,0,0,1,.14.22v.88c0,.09,0,.11-.14.06l-3.41-2s-.06,0-.06,0v3.08a.1.1,0,0,0,.06.09l5,2.87a.24.24,0,0,1,.14.22v.88c0,.09,0,.11-.14.06l-6.23-3.6a.23.23,0,0,1-.14-.22v-9.52c0-.09,0-.11.14-.06l6.23,3.6a.25.25,0,0,1,.14.22v.88C568.4,589.59,568.35,589.61,568.26,589.55Z" transform="translate(-6.65 -44.9)"/><path class="cls-1" d="M577.68,594v.89c0,.1,0,.12-.14.06l-2.69-1.55s-.06,0-.06,0v8.42c0,.1,0,.12-.14.06l-1.06-.61a.26.26,0,0,1-.14-.22v-8.43a.1.1,0,0,0-.06-.09l-2.56-1.48a.25.25,0,0,1-.14-.22v-.89c0-.1,0-.12.14-.06l6.71,3.87A.25.25,0,0,1,577.68,594Z" transform="translate(-6.65 -44.9)"/><path class="cls-1" d="M585.83,608.24l-2-5.32a.12.12,0,0,0-.06-.08l-2-1.16s0,0,0,0v4.13c0,.1,0,.12-.14.06l-1.07-.61a.26.26,0,0,1-.14-.22v-9.52c0-.1.05-.12.14-.06l3.77,2.17a6.18,6.18,0,0,1,1.48,1.21,5.5,5.5,0,0,1,1,1.54,4.16,4.16,0,0,1,.35,1.66,1.62,1.62,0,0,1-.51,1.37,1.54,1.54,0,0,1-1.42.09s0,0,0,.06l2,5.37a.19.19,0,0,1,0,.08c0,.06,0,.07-.11,0l-1.11-.64A.3.3,0,0,1,585.83,608.24Zm-4.09-10.85v3.14a.14.14,0,0,0,0,.09l2.34,1.35a1.42,1.42,0,0,0,1.19.24c.3-.12.45-.42.45-.91a2.68,2.68,0,0,0-.45-1.45,3.31,3.31,0,0,0-1.19-1.13l-2.34-1.35S581.74,597.35,581.74,597.39Z" transform="translate(-6.65 -44.9)"/><path class="cls-1" d="M592,611.77v-3.94s0-.06,0-.07l-2.91-7.16a.19.19,0,0,1,0-.08c0-.06,0-.07.11,0l1.15.66a.36.36,0,0,1,.17.2l2.14,5.34a.1.1,0,0,0,0,0s0,0,0,0l2.14-2.86s.08,0,.17,0l1.16.67a.27.27,0,0,1,.1.11.09.09,0,0,1,0,.11l-2.93,3.79s0,0,0,.06v3.93c0,.1,0,.12-.14.06l-1.07-.61A.25.25,0,0,1,592,611.77Z" transform="translate(-6.65 -44.9)"/><polygon class="cls-2" points="655.78 732.6 449.98 613.78 449.98 468.24 655.78 587.04 655.78 732.6"/><path class="cls-1" d="M287.37,603.64a6.38,6.38,0,0,1-1.2-1.82,4.77,4.77,0,0,1-.43-1.94v-3.62a2.06,2.06,0,0,1,.43-1.43,1.39,1.39,0,0,1,1.2-.43,4.37,4.37,0,0,1,1.79.64,7.14,7.14,0,0,1,1.77,1.41,6.3,6.3,0,0,1,1.2,1.77,4.49,4.49,0,0,1,.43,1.87v0a.13.13,0,0,1,0,.09.12.12,0,0,1-.1,0l-1.07-.56a.23.23,0,0,1-.14-.2v0a3.18,3.18,0,0,0-.56-1.76,4.29,4.29,0,0,0-1.49-1.41,1.86,1.86,0,0,0-1.51-.33c-.38.15-.57.52-.57,1.12v3.72a3.2,3.2,0,0,0,.57,1.77,4.29,4.29,0,0,0,1.51,1.42,1.81,1.81,0,0,0,1.49.32c.38-.15.56-.53.56-1.12v0c0-.08.05-.1.14,0l1.07.66a.27.27,0,0,1,.14.23,2,2,0,0,1-.43,1.38,1.41,1.41,0,0,1-1.2.41,4.3,4.3,0,0,1-1.77-.64A7.09,7.09,0,0,1,287.37,603.64Z" transform="translate(-6.65 -44.9)"/><path class="cls-1" d="M296.94,609.15a6.86,6.86,0,0,1-1.22-1.89,5,5,0,0,1-.43-2v-3.33a2.26,2.26,0,0,1,.43-1.5,1.47,1.47,0,0,1,1.22-.47,4.14,4.14,0,0,1,1.81.62,7.63,7.63,0,0,1,1.82,1.47,7.08,7.08,0,0,1,1.21,1.88,5,5,0,0,1,.44,2v3.34a2.26,2.26,0,0,1-.44,1.5,1.42,1.42,0,0,1-1.21.48,4,4,0,0,1-1.82-.63A7.13,7.13,0,0,1,296.94,609.15Zm3.35.6c.39-.17.58-.57.58-1.21v-3.41a3.55,3.55,0,0,0-.58-1.91,4.45,4.45,0,0,0-1.54-1.48,1.75,1.75,0,0,0-1.54-.3c-.38.18-.58.59-.58,1.24v3.41a3.59,3.59,0,0,0,.58,1.89,4.43,4.43,0,0,0,1.54,1.47A1.74,1.74,0,0,0,300.29,609.75Z" transform="translate(-6.65 -44.9)"/><path class="cls-1" d="M311.82,608.23l1.07.62a.25.25,0,0,1,.14.22v9.52c0,.09,0,.11-.14.06l-1.07-.62a.24.24,0,0,1-.14-.22v-7.17a.11.11,0,0,0,0-.07s0,0,0,0l-2,1.89s-.09,0-.17,0l-.53-.31a.49.49,0,0,1-.17-.18l-2-4.19s0,0-.05,0,0,0,0,0v7.14c0,.09-.05.11-.14.06l-1.07-.61a.26.26,0,0,1-.14-.22v-9.53c0-.09.05-.11.14-.05l1.07.61a.4.4,0,0,1,.16.18l2.45,5.08a.1.1,0,0,0,.05,0s0,0,0,0l2.43-2.26A.17.17,0,0,1,311.82,608.23Z" transform="translate(-6.65 -44.9)"/><path class="cls-1" d="M322.88,614.62l1.07.61a.26.26,0,0,1,.14.22V625c0,.09,0,.11-.14,0l-1.07-.61a.26.26,0,0,1-.14-.22V617a.09.09,0,0,0,0-.07s0,0,0,0l-2,1.9s-.09,0-.17,0l-.53-.31a.49.49,0,0,1-.17-.18l-2-4.19s0,0-.05,0,0,0,0,0v7.14c0,.09-.05.11-.14.06l-1.07-.62a.25.25,0,0,1-.14-.22V611c0-.09.05-.11.14-.06l1.07.62a.35.35,0,0,1,.16.18l2.45,5.08.05,0h0l2.43-2.26A.15.15,0,0,1,322.88,614.62Z" transform="translate(-6.65 -44.9)"/><path class="cls-1" d="M328.82,627.55a6.73,6.73,0,0,1-1.22-1.88,5.09,5.09,0,0,1-.43-2v-3.33a2.22,2.22,0,0,1,.43-1.5,1.43,1.43,0,0,1,1.22-.48,4.1,4.1,0,0,1,1.8.63,7.44,7.44,0,0,1,1.82,1.47,6.73,6.73,0,0,1,1.22,1.88,5,5,0,0,1,.44,2v3.33a2.3,2.3,0,0,1-.44,1.51,1.43,1.43,0,0,1-1.22.48,4.35,4.35,0,0,1-1.82-.63A7.53,7.53,0,0,1,328.82,627.55Zm3.34.6c.4-.16.59-.57.59-1.21v-3.4a3.51,3.51,0,0,0-.59-1.92,4.37,4.37,0,0,0-1.54-1.48,1.72,1.72,0,0,0-1.53-.29c-.39.17-.58.59-.58,1.24v3.4a3.51,3.51,0,0,0,.58,1.89,4.31,4.31,0,0,0,1.53,1.47A1.75,1.75,0,0,0,332.16,628.15Z" transform="translate(-6.65 -44.9)"/><path class="cls-1" d="M343.1,626.29l1.06.61a.27.27,0,0,1,.14.23v9.52c0,.09-.05.11-.14.05l-1-.59a.4.4,0,0,1-.17-.19l-4.38-9.68s0-.06,0-.06,0,0,0,0v7.11c0,.09,0,.11-.14,0l-1.06-.61a.25.25,0,0,1-.14-.22V623c0-.09.05-.11.14-.06l1,.6a.44.44,0,0,1,.16.19l4.37,9.68a.09.09,0,0,0,0,.06s0,0,0,0v-7.11C343,626.26,343,626.24,343.1,626.29Z" transform="translate(-6.65 -44.9)"/><path class="cls-1" d="M357.87,636l-5-2.86s-.06,0-.06,0v3a.1.1,0,0,0,.06.09l3.4,2a.25.25,0,0,1,.14.23v.88c0,.09,0,.11-.14.06l-3.4-2s-.06,0-.06,0v4.15c0,.1,0,.12-.13.06l-1.07-.61a.25.25,0,0,1-.14-.22v-9.52c0-.1.05-.11.14-.06l6.22,3.59a.25.25,0,0,1,.14.22v.88C358,636,358,636,357.87,636Z" transform="translate(-6.65 -44.9)"/><path class="cls-1" d="M365.41,648.86l-.5-1.93a.13.13,0,0,0-.06-.07l-3.93-2.27s-.05,0-.06,0l-.5,1.34c0,.06-.09.07-.17,0l-1.13-.65a.19.19,0,0,1-.12-.22l3.07-7.77c0-.06.09-.06.17,0l1.4.81a.34.34,0,0,1,.17.2l3.09,11.33v.06c0,.07,0,.07-.12,0l-1.15-.66A.39.39,0,0,1,365.41,648.86Zm-4.19-5.18a.12.12,0,0,0,0,.05l3.22,1.86h.05s0,0,0,0l-1.63-6.13a.09.09,0,0,0,0-.06s0,0,0,0l-1.63,4.25S361.21,643.65,361.22,643.68Z" transform="translate(-6.65 -44.9)"/><path class="cls-1" d="M374.86,644.77v.9c0,.09,0,.11-.14.06L372,644.17s-.06,0-.06,0v8.43c0,.09-.05.11-.14.06l-1.06-.62a.23.23,0,0,1-.14-.22v-8.43s0-.06-.06-.09L368,641.86a.25.25,0,0,1-.14-.23v-.89c0-.1,0-.12.14-.06l6.7,3.87A.23.23,0,0,1,374.86,644.77Z" transform="translate(-6.65 -44.9)"/><path class="cls-1" d="M384,651l-5-2.87s-.06,0-.06,0v3a.1.1,0,0,0,.06.09l3.41,2a.24.24,0,0,1,.14.22v.89c0,.09,0,.11-.14.06l-3.41-2s-.06,0-.06,0v3.08a.12.12,0,0,0,.06.09l5,2.86a.27.27,0,0,1,.14.23v.88c0,.09,0,.11-.14.06l-6.23-3.6a.25.25,0,0,1-.14-.22v-9.52c0-.09.05-.11.14-.06l6.23,3.6a.24.24,0,0,1,.14.22V651C384.09,651.07,384,651.09,384,651Z" transform="translate(-6.65 -44.9)"/><polygon class="cls-2" points="430.98 768.28 225.19 649.48 225.19 503.91 430.98 622.74 430.98 768.28"/><path class="cls-1" d="M335.85,71.07a11.58,11.58,0,0,1-2.06-3.14,8.23,8.23,0,0,1-.73-3.31V58.47a3.64,3.64,0,0,1,.73-2.48,2.39,2.39,0,0,1,2.06-.74,7.34,7.34,0,0,1,3.06,1.08,13,13,0,0,1,3,2.43A11.51,11.51,0,0,1,344,61.81a7.46,7.46,0,0,1,.74,3.1v.26c0,.16-.08.2-.24.1l-1.83-1a.42.42,0,0,1-.24-.38v-.21a5.24,5.24,0,0,0-1-2.91,7.58,7.58,0,0,0-2.56-2.37,3.15,3.15,0,0,0-2.58-.56c-.64.25-1,.9-1,1.94V66a5.56,5.56,0,0,0,1,3.08A7.8,7.8,0,0,0,339,71.56a3.35,3.35,0,0,0,2.51.62c.61-.2.92-.78.92-1.74V68.59a.18.18,0,0,0-.09-.15l-3.24-1.87a.42.42,0,0,1-.24-.38V64.7c0-.15.08-.19.24-.1l5.4,3.12a.42.42,0,0,1,.24.38v3.05c0,1.84-.53,2.95-1.58,3.34s-2.46.06-4.26-1A13.24,13.24,0,0,1,335.85,71.07Z" transform="translate(-6.65 -44.9)"/><path class="cls-1" d="M360.35,70.89,351.83,66c-.07,0-.1,0-.1,0v5.16a.15.15,0,0,0,.1.15l5.85,3.38a.43.43,0,0,1,.24.38v1.51c0,.16-.08.2-.24.11l-5.85-3.39c-.07,0-.1,0-.1,0v5.28a.17.17,0,0,0,.1.15l8.52,4.92a.41.41,0,0,1,.24.37V85.6c0,.16-.08.19-.24.1l-10.68-6.17a.4.4,0,0,1-.24-.38V62.83c0-.16.07-.19.24-.1l10.68,6.17a.42.42,0,0,1,.24.38v1.51C360.59,71,360.51,71,360.35,70.89Z" transform="translate(-6.65 -44.9)"/><path class="cls-1" d="M367,89.13a10.64,10.64,0,0,1-2.09-2.84,6.44,6.44,0,0,1-.73-2.89v-.7c0-.16.08-.19.24-.1l1.75,1a.43.43,0,0,1,.24.38v.58a4.42,4.42,0,0,0,1.06,2.62,9.4,9.4,0,0,0,2.9,2.47,3.78,3.78,0,0,0,2.5.75c.56-.14.84-.59.84-1.34a3.1,3.1,0,0,0-.44-1.52,9.11,9.11,0,0,0-1.26-1.7c-.55-.62-1.35-1.44-2.41-2.46s-2.09-2.07-2.77-2.83a11.54,11.54,0,0,1-1.69-2.43,5.64,5.64,0,0,1-.67-2.65c0-1.38.49-2.17,1.47-2.39s2.32.16,4,1.13a14.69,14.69,0,0,1,3.12,2.4,11.34,11.34,0,0,1,2.07,2.88,6.65,6.65,0,0,1,.74,2.92v.48c0,.16-.08.19-.24.1l-1.8-1a.42.42,0,0,1-.24-.38v-.36a4.69,4.69,0,0,0-1-2.65,8.47,8.47,0,0,0-2.75-2.41,3.79,3.79,0,0,0-2.3-.72c-.55.09-.82.52-.82,1.29a3.13,3.13,0,0,0,.41,1.53,8.1,8.1,0,0,0,1.21,1.6c.54.58,1.36,1.39,2.46,2.44s2.06,2,2.76,2.83a12.15,12.15,0,0,1,1.75,2.5,5.69,5.69,0,0,1,.7,2.7c0,1.4-.52,2.22-1.55,2.45s-2.45-.18-4.26-1.22A15.05,15.05,0,0,1,367,89.13Z" transform="translate(-6.65 -44.9)"/><path class="cls-1" d="M390.8,86.72v1.54c0,.16-.08.19-.24.1L386,85.7c-.06,0-.09,0-.09,0v14.45c0,.16-.08.19-.24.1l-1.83-1.05a.43.43,0,0,1-.24-.38V84.41a.18.18,0,0,0-.09-.15l-4.39-2.54a.42.42,0,0,1-.24-.38V79.81c0-.16.08-.2.24-.1l11.49,6.63A.43.43,0,0,1,390.8,86.72Z" transform="translate(-6.65 -44.9)"/><path class="cls-1" d="M403.35,110.34l-.86-3.31a.22.22,0,0,0-.1-.13L395.65,103s-.08,0-.1,0l-.86,2.3c-.05.1-.14.11-.29,0l-1.94-1.12c-.18-.1-.24-.23-.19-.38l5.25-13.31c.05-.1.15-.11.29,0l2.4,1.38a.68.68,0,0,1,.29.36l5.3,19.41,0,.11c0,.11-.08.12-.22,0l-2-1.14A.63.63,0,0,1,403.35,110.34Zm-7.18-8.89a.3.3,0,0,0,.08.08l5.52,3.19a.08.08,0,0,0,.08,0s0,0,0-.08l-2.79-10.51a.16.16,0,0,0-.07-.09,0,0,0,0,0-.07,0l-2.79,7.3A.08.08,0,0,0,396.17,101.45Z" transform="translate(-6.65 -44.9)"/><path class="cls-1" d="M409.76,114V97.67c0-.16.08-.2.24-.1l1.82,1.05a.42.42,0,0,1,.24.38v14.47a.18.18,0,0,0,.1.15l8.28,4.78a.42.42,0,0,1,.24.38v1.51c0,.16-.08.2-.24.1l-10.44-6A.43.43,0,0,1,409.76,114Z" transform="translate(-6.65 -44.9)"/><path class="cls-1" d="M433.45,111.34v1.54c0,.16-.08.19-.24.1l-4.61-2.66c-.06,0-.09,0-.09,0v14.45c0,.16-.08.19-.24.1l-1.83-1a.42.42,0,0,1-.24-.38V109a.17.17,0,0,0-.1-.15l-4.39-2.54a.41.41,0,0,1-.24-.37v-1.54c0-.16.08-.19.24-.1l11.5,6.64A.41.41,0,0,1,433.45,111.34Z" transform="translate(-6.65 -44.9)"/><path class="cls-1" d="M452.66,122.78a9.78,9.78,0,0,1,1.73,2.72,7.4,7.4,0,0,1,.61,2.9,3.21,3.21,0,0,1-.62,2.15,2.08,2.08,0,0,1-1.77.67,6.16,6.16,0,0,1-2.63-.92l-4.22-2.44c-.06,0-.09,0-.09,0v6.82c0,.16-.08.19-.24.1l-1.83-1a.43.43,0,0,1-.24-.38V117c0-.16.08-.19.24-.1l6.48,3.74A10.51,10.51,0,0,1,452.66,122.78Zm-.77,6c.54-.22.81-.76.81-1.63a4.77,4.77,0,0,0-.81-2.59,6.07,6.07,0,0,0-2.12-2l-4-2.31c-.06,0-.09,0-.09,0v5.62a.18.18,0,0,0,.09.15l4,2.31A2.49,2.49,0,0,0,451.89,128.74Z" transform="translate(-6.65 -44.9)"/><path class="cls-1" d="M468.25,147.83l-3.36-9.12a.22.22,0,0,0-.1-.13l-3.45-2c-.07,0-.1,0-.1,0v7.08c0,.16-.08.19-.24.1l-1.82-1.05a.42.42,0,0,1-.24-.38V126.06c0-.16.08-.19.24-.1l6.45,3.72a10.15,10.15,0,0,1,2.53,2.07,9.56,9.56,0,0,1,1.7,2.65,7.29,7.29,0,0,1,.6,2.85,2.77,2.77,0,0,1-.88,2.34,2.64,2.64,0,0,1-2.44.16c-.06,0-.08,0,0,.09l3.48,9.21a.59.59,0,0,1,0,.14c0,.11-.06.13-.19.05l-1.9-1.09A.59.59,0,0,1,468.25,147.83Zm-7-18.59v5.37a.15.15,0,0,0,.1.15l4,2.32a2.4,2.4,0,0,0,2,.42c.52-.21.77-.73.77-1.56a4.49,4.49,0,0,0-.77-2.48,5.78,5.78,0,0,0-2-2l-4-2.31C461.27,129.16,461.24,129.17,461.24,129.24Z" transform="translate(-6.65 -44.9)"/><path class="cls-1" d="M474.85,151.57V135.25c0-.16.08-.2.24-.11l1.82,1.06a.42.42,0,0,1,.24.38V152.9c0,.16-.08.19-.24.1l-1.82-1.06A.41.41,0,0,1,474.85,151.57Z" transform="translate(-6.65 -44.9)"/><path class="cls-1" d="M492.42,145.15l1.82,1a.42.42,0,0,1,.24.38V162.9c0,.16-.08.19-.24.1l-1.75-1a.8.8,0,0,1-.29-.33l-7.51-16.61c0-.05,0-.09-.07-.1s-.05,0-.05.06l0,12.18c0,.16-.08.19-.24.1l-1.82-1a.42.42,0,0,1-.24-.38V139.54c0-.16.08-.19.24-.1l1.77,1a.76.76,0,0,1,.29.34l7.49,16.59c0,.05,0,.09.07.1s.05,0,.05-.06l0-12.18C492.18,145.09,492.26,145.06,492.42,145.15Z" transform="translate(-6.65 -44.9)"/><path class="cls-1" d="M502,167a11.09,11.09,0,0,1-2.06-3.13,8.29,8.29,0,0,1-.74-3.32v-6.21a3.55,3.55,0,0,1,.74-2.45,2.42,2.42,0,0,1,2.06-.73,7.23,7.23,0,0,1,3.06,1.09,13.08,13.08,0,0,1,3,2.41,11.43,11.43,0,0,1,2.05,3.05,7.71,7.71,0,0,1,.73,3.21v0c0,.08,0,.13-.07.15a.21.21,0,0,1-.17,0l-1.82-1a.4.4,0,0,1-.24-.36v-.07a5.52,5.52,0,0,0-1-3,7.38,7.38,0,0,0-2.57-2.42,3.12,3.12,0,0,0-2.58-.56c-.65.25-1,.89-1,1.91V162a5.51,5.51,0,0,0,1,3,7.52,7.52,0,0,0,2.58,2.43,3,3,0,0,0,2.57.54c.64-.25,1-.89,1-1.91v0c0-.15.08-.17.24-.08l1.82,1.15a.42.42,0,0,1,.24.38,3.36,3.36,0,0,1-.73,2.37,2.41,2.41,0,0,1-2.05.7,7.24,7.24,0,0,1-3-1.09A12.74,12.74,0,0,1,502,167Z" transform="translate(-6.65 -44.9)"/><path class="cls-1" d="M515.41,175V158.66c0-.16.08-.19.24-.1l1.82,1.05a.43.43,0,0,1,.24.38v16.32c0,.16-.08.2-.24.1l-1.82-1A.42.42,0,0,1,515.41,175Z" transform="translate(-6.65 -44.9)"/><path class="cls-1" d="M532,168.59a9.78,9.78,0,0,1,1.73,2.72,7.36,7.36,0,0,1,.61,2.89,3.2,3.2,0,0,1-.62,2.16A2.09,2.09,0,0,1,532,177a6.11,6.11,0,0,1-2.63-.92l-4.23-2.44c-.06,0-.09,0-.09,0v6.82c0,.16-.08.19-.24.1l-1.83-1.06a.41.41,0,0,1-.24-.37V162.85c0-.16.08-.19.24-.1l6.49,3.74A10.42,10.42,0,0,1,532,168.59Zm-.76,6c.53-.22.8-.76.8-1.63a4.84,4.84,0,0,0-.8-2.59,6.18,6.18,0,0,0-2.13-2l-4-2.31c-.06,0-.09,0-.09,0v5.62a.18.18,0,0,0,.09.15l4,2.31A2.54,2.54,0,0,0,531.24,174.55Z" transform="translate(-6.65 -44.9)"/><path class="cls-1" d="M538.28,188.19V171.87c0-.16.08-.2.24-.1l1.82,1a.42.42,0,0,1,.24.38v14.47a.19.19,0,0,0,.1.15L549,192.6a.42.42,0,0,1,.24.38v1.51c0,.16-.08.2-.24.1l-10.44-6A.43.43,0,0,1,538.28,188.19Z" transform="translate(-6.65 -44.9)"/><path class="cls-1" d="M564.08,188.52l-8.52-4.92c-.06,0-.1,0-.1,0v5.16a.19.19,0,0,0,.1.15l5.86,3.38a.42.42,0,0,1,.24.38v1.51c0,.16-.08.19-.24.1l-5.86-3.38c-.06,0-.1,0-.1,0v5.28a.18.18,0,0,0,.1.15l8.52,4.92a.42.42,0,0,1,.24.38v1.51c0,.16-.08.2-.24.1l-10.68-6.16a.43.43,0,0,1-.24-.38V180.46c0-.16.08-.2.24-.1l10.68,6.16a.43.43,0,0,1,.24.38v1.51C564.32,188.57,564.24,188.61,564.08,188.52Z" transform="translate(-6.65 -44.9)"/><path class="cls-1" d="M570.69,206.76a11,11,0,0,1-2.09-2.84,6.62,6.62,0,0,1-.73-2.9v-.69c0-.16.08-.2.24-.1l1.75,1a.42.42,0,0,1,.24.38v.57a4.51,4.51,0,0,0,1.06,2.63,9.53,9.53,0,0,0,2.9,2.47,3.83,3.83,0,0,0,2.5.74c.56-.14.84-.58.84-1.34a3.11,3.11,0,0,0-.43-1.52,10,10,0,0,0-1.26-1.7c-.55-.61-1.36-1.43-2.41-2.46s-2.1-2.06-2.78-2.82a11.92,11.92,0,0,1-1.69-2.43,5.67,5.67,0,0,1-.67-2.66c0-1.37.49-2.17,1.48-2.38s2.31.16,4,1.13a13.91,13.91,0,0,1,3.12,2.4,11,11,0,0,1,2.08,2.88,6.59,6.59,0,0,1,.73,2.92v.47c0,.16-.08.2-.24.11l-1.8-1a.43.43,0,0,1-.24-.38v-.36a4.6,4.6,0,0,0-1-2.65,8.56,8.56,0,0,0-2.74-2.42,3.88,3.88,0,0,0-2.31-.72c-.54.1-.81.53-.81,1.3a3.12,3.12,0,0,0,.4,1.53,8.5,8.5,0,0,0,1.22,1.6c.53.57,1.35,1.39,2.46,2.44s2,2,2.76,2.83a12.39,12.39,0,0,1,1.75,2.5,5.76,5.76,0,0,1,.69,2.69c0,1.41-.51,2.23-1.54,2.46s-2.46-.18-4.26-1.23A15.43,15.43,0,0,1,570.69,206.76Z" transform="translate(-6.65 -44.9)"/><line class="cls-4" x1="355.21" y1="450.11" x2="339.09" y2="440.8"/><line class="cls-4" x1="339.09" y1="440.8" x2="339.09" y2="472.2"/><line class="cls-4" x1="339.09" y1="472.2" x2="355.21" y2="481.51"/><line class="cls-4" x1="372.59" y1="460.14" x2="388.71" y2="469.45"/><line class="cls-4" x1="388.71" y1="469.45" x2="388.71" y2="500.85"/><line class="cls-4" x1="388.71" y1="500.85" x2="372.59" y2="491.54"/><line class="cls-4" x1="355.21" y1="508.47" x2="339.09" y2="499.17"/><line class="cls-4" x1="339.09" y1="499.17" x2="339.09" y2="530.56"/><line class="cls-4" x1="339.09" y1="530.56" x2="355.21" y2="539.87"/><line class="cls-4" x1="372.59" y1="518.51" x2="388.7" y2="527.81"/><line class="cls-4" x1="388.7" y1="527.81" x2="388.7" y2="559.21"/><line class="cls-4" x1="388.7" y1="559.21" x2="372.59" y2="549.9"/><line class="cls-4" x1="286.19" y1="410.26" x2="270.07" y2="400.95"/><line class="cls-4" x1="270.07" y1="400.95" x2="270.07" y2="432.35"/><line class="cls-4" x1="270.07" y1="432.35" x2="286.19" y2="441.66"/><line class="cls-4" x1="303.56" y1="420.29" x2="319.68" y2="429.6"/><line class="cls-4" x1="319.68" y1="429.6" x2="319.68" y2="461"/><line class="cls-4" x1="319.68" y1="461" x2="303.56" y2="451.69"/><line class="cls-4" x1="286.19" y1="468.62" x2="270.07" y2="459.32"/><line class="cls-4" x1="270.07" y1="459.32" x2="270.07" y2="490.71"/><line class="cls-4" x1="270.07" y1="490.71" x2="286.19" y2="500.02"/><line class="cls-4" x1="303.56" y1="478.66" x2="319.68" y2="487.96"/><line class="cls-4" x1="319.68" y1="487.96" x2="319.68" y2="519.36"/><line class="cls-4" x1="319.68" y1="519.36" x2="303.56" y2="510.05"/><path class="cls-5" d="M327.8,686.74c0,5.28-3.16,7.74-7.06,5.49s-7.05-8.36-7.05-13.64,3.16-7.74,7.05-5.49S327.8,681.46,327.8,686.74Z" transform="translate(-6.65 -44.9)"/><path class="cls-5" d="M348.76,698.84c0,5.28-3.16,7.74-7.06,5.49s-7.05-8.36-7.05-13.64,3.15-7.74,7.05-5.49S348.76,693.56,348.76,698.84Z" transform="translate(-6.65 -44.9)"/><path class="cls-5" d="M369.71,710.94c0,5.28-3.15,7.74-7,5.49s-7.06-8.36-7.06-13.64,3.16-7.74,7.06-5.49S369.71,705.66,369.71,710.94Z" transform="translate(-6.65 -44.9)"/><path class="cls-5" d="M306.84,674.64c0,5.28-3.15,7.74-7,5.49s-7.06-8.36-7.06-13.64,3.16-7.74,7.06-5.49S306.84,669.36,306.84,674.64Z" transform="translate(-6.65 -44.9)"/><line class="cls-6" x1="293.14" y1="625.67" x2="293.14" y2="657.19"/><path class="cls-6" d="M300.81,704.45c.5-1.65,1-2.73,1.49-4.05h-5a38.58,38.58,0,0,1,1.49,4.05,28.84,28.84,0,0,1,1,4.41A30.09,30.09,0,0,1,300.81,704.45Z" transform="translate(-6.65 -44.9)"/><line class="cls-7" x1="293.14" y1="625.67" x2="293.14" y2="657.19"/><path class="cls-6" d="M302.38,708.07c1.27-4.19,2.43-6.91,3.78-10.27H293.39a99.8,99.8,0,0,1,3.77,10.27,73.93,73.93,0,0,1,2.61,11.18A75.19,75.19,0,0,1,302.38,708.07Z" transform="translate(-6.65 -44.9)"/><line class="cls-6" x1="335.05" y1="649.87" x2="335.05" y2="681.39"/><path class="cls-6" d="M342.73,728.65a38.74,38.74,0,0,1,1.49-4.06h-5.05a36.75,36.75,0,0,1,1.49,4.06,30.36,30.36,0,0,1,1,4.41A28.84,28.84,0,0,1,342.73,728.65Z" transform="translate(-6.65 -44.9)"/><line class="cls-7" x1="335.05" y1="649.87" x2="335.05" y2="681.39"/><path class="cls-6" d="M344.3,732.27A107.46,107.46,0,0,1,348.07,722H335.3a101.66,101.66,0,0,1,3.78,10.27,75.19,75.19,0,0,1,2.61,11.18A73.93,73.93,0,0,1,344.3,732.27Z" transform="translate(-6.65 -44.9)"/><line class="cls-6" x1="314.1" y1="638.76" x2="314.1" y2="607.24"/><path class="cls-6" d="M319.72,649.77c-.5,1.66-1,2.73-1.49,4.06h5a41.53,41.53,0,0,1-1.49-4.06,30.09,30.09,0,0,1-1-4.41A30.09,30.09,0,0,1,319.72,649.77Z" transform="translate(-6.65 -44.9)"/><line class="cls-7" x1="314.1" y1="638.76" x2="314.1" y2="607.24"/><path class="cls-6" d="M318.15,646.15a107.35,107.35,0,0,1-3.78,10.27h12.78a99.19,99.19,0,0,1-3.78-10.27A75.39,75.39,0,0,1,320.76,635,75.39,75.39,0,0,1,318.15,646.15Z" transform="translate(-6.65 -44.9)"/><line class="cls-6" x1="356.01" y1="662.96" x2="356.01" y2="631.44"/><path class="cls-6" d="M361.63,674c-.5,1.65-1,2.73-1.49,4.06h5.05a39.31,39.31,0,0,1-1.5-4.06,30.09,30.09,0,0,1-1-4.41A28.84,28.84,0,0,1,361.63,674Z" transform="translate(-6.65 -44.9)"/><line class="cls-7" x1="356.01" y1="662.96" x2="356.01" y2="631.44"/><path class="cls-6" d="M360.06,670.35c-1.26,4.19-2.43,6.91-3.77,10.27h12.77a101.66,101.66,0,0,1-3.78-10.27,75.19,75.19,0,0,1-2.61-11.18A73.93,73.93,0,0,1,360.06,670.35Z" transform="translate(-6.65 -44.9)"/><path class="cls-8" d="M539.9,453.39c0,8.05-4.81,11.8-10.75,8.37S518.39,449,518.39,441s4.82-11.8,10.76-8.37S539.9,445.34,539.9,453.39Z" transform="translate(-6.65 -44.9)"/><path class="cls-8" d="M591.74,483.32c0,8.05-4.82,11.8-10.76,8.37S570.22,479,570.22,470.9,575,459.1,581,462.53,591.74,475.27,591.74,483.32Z" transform="translate(-6.65 -44.9)"/><line class="cls-7" x1="522.5" y1="402.28" x2="574.33" y2="432.21"/><path class="cls-8" d="M539.9,503.33c0,8.05-4.81,11.8-10.75,8.37S518.39,499,518.39,490.91s4.82-11.8,10.76-8.37S539.9,495.28,539.9,503.33Z" transform="translate(-6.65 -44.9)"/><path class="cls-8" d="M591.74,533.26c0,8-4.82,11.8-10.76,8.37s-10.76-12.74-10.76-20.79S575,509,581,512.47,591.74,525.2,591.74,533.26Z" transform="translate(-6.65 -44.9)"/><line class="cls-7" x1="522.5" y1="452.22" x2="574.33" y2="482.15"/><polygon class="cls-6" points="520.04 249.44 497.59 236.48 497.59 206.04 520.04 219.01 520.04 249.44"/><polygon class="cls-6" points="550.9 267.26 528.44 254.29 528.44 223.85 550.9 236.82 550.9 267.26"/><polygon class="cls-6" points="581.28 284.8 558.82 271.83 558.82 241.4 581.28 254.36 581.28 284.8"/><polygon class="cls-6" points="612.63 302.89 590.17 289.93 590.17 259.49 612.63 272.46 612.63 302.89"/><polygon class="cls-6" points="520.04 291.81 497.59 278.85 497.59 248.41 520.04 261.38 520.04 291.81"/><polygon class="cls-6" points="550.9 309.63 528.44 296.66 528.44 266.23 550.9 279.19 550.9 309.63"/><polygon class="cls-6" points="612.63 345.26 590.17 332.3 590.17 301.86 612.63 314.83 612.63 345.26"/><path class="cls-6" d="M589.68,357.86c0,9.71-5.81,14.24-13,10.1s-13-15.37-13-25.09,5.81-14.24,13-10.1S589.68,348.14,589.68,357.86Z" transform="translate(-6.65 -44.9)"/><path class="cls-6" d="M293.09,133.19c0,8.1-4.85,11.88-10.82,8.43s-10.82-12.82-10.82-20.93,4.84-11.87,10.82-8.42S293.09,125.09,293.09,133.19Z" transform="translate(-6.65 -44.9)"/><path class="cls-6" d="M293.09,167.13c0,8.1-4.85,11.87-10.82,8.42s-10.82-12.82-10.82-20.92,4.84-11.87,10.82-8.42S293.09,159,293.09,167.13Z" transform="translate(-6.65 -44.9)"/><path class="cls-6" d="M293.09,200.21c0,8.1-4.85,11.87-10.82,8.42s-10.82-12.82-10.82-20.92,4.84-11.87,10.82-8.42S293.09,192.11,293.09,200.21Z" transform="translate(-6.65 -44.9)"/><path class="cls-6" d="M317.69,147.82c0,8.1-4.85,11.88-10.84,8.42S296,143.42,296,135.32s4.86-11.87,10.82-8.42S317.69,139.72,317.69,147.82Z" transform="translate(-6.65 -44.9)"/><path class="cls-6" d="M317.69,181.76c0,8.1-4.85,11.87-10.84,8.42S296,177.36,296,169.26s4.86-11.88,10.82-8.43S317.69,173.66,317.69,181.76Z" transform="translate(-6.65 -44.9)"/><path class="cls-6" d="M317.69,214.84c0,8.1-4.85,11.87-10.84,8.42S296,210.44,296,202.34s4.86-11.88,10.82-8.43S317.69,206.74,317.69,214.84Z" transform="translate(-6.65 -44.9)"/><path class="cls-6" d="M381.8,220c-6-3.45-10.82-12.82-10.82-20.92s4.85-11.88,10.82-8.43,10.82,12.82,10.82,20.92S387.78,223.42,381.8,220Z" transform="translate(-6.65 -44.9)"/><path class="cls-6" d="M357.39,205.88c-6-3.45-10.82-12.83-10.82-20.93s4.85-11.87,10.82-8.42,10.83,12.82,10.83,20.92S363.38,209.33,357.39,205.88Z" transform="translate(-6.65 -44.9)"/><path class="cls-6" d="M381.8,254.16c-6-3.45-10.82-12.82-10.82-20.92s4.85-11.87,10.82-8.42,10.82,12.81,10.82,20.92S387.78,257.61,381.8,254.16Z" transform="translate(-6.65 -44.9)"/><path class="cls-6" d="M357.39,240.07c-6-3.45-10.82-12.82-10.82-20.92s4.85-11.88,10.82-8.42,10.83,12.81,10.83,20.92S363.38,243.52,357.39,240.07Z" transform="translate(-6.65 -44.9)"/><path class="cls-1" d="M495.84,717.78a5.62,5.62,0,0,1,1,1.59,4.28,4.28,0,0,1,.36,1.69,1.86,1.86,0,0,1-.37,1.26,1.2,1.2,0,0,1-1,.38,3.54,3.54,0,0,1-1.53-.53l-2.46-1.43s-.06,0-.06,0v4c0,.1,0,.12-.14.06l-1.06-.61a.24.24,0,0,1-.14-.22v-9.54c0-.09,0-.11.14-.06l3.78,2.19A5.9,5.9,0,0,1,495.84,717.78Zm-.45,3.47c.32-.12.47-.44.47-.94a2.71,2.71,0,0,0-.47-1.51,3.51,3.51,0,0,0-1.23-1.19l-2.34-1.35s-.06,0-.06,0v3.27a.1.1,0,0,0,.06.09l2.34,1.35A1.41,1.41,0,0,0,495.39,721.25Z" transform="translate(-6.65 -44.9)"/><path class="cls-1" d="M505.15,732.5l-.51-1.93a.13.13,0,0,0-.05-.07l-3.94-2.28s0,0,0,0l-.51,1.35c0,.06-.08.06-.17,0l-1.13-.66c-.1-.06-.14-.13-.11-.22l3.06-7.76c0-.06.09-.06.17,0l1.4.81a.35.35,0,0,1,.17.21l3.09,11.32,0,.07c0,.06,0,.07-.13,0l-1.15-.66A.34.34,0,0,1,505.15,732.5Zm-4.2-5.19.05.05,3.22,1.86h0a0,0,0,0,0,0-.05l-1.63-6.13a.1.1,0,0,0,0,0h0L501,727.26A0,0,0,0,0,501,727.31Z" transform="translate(-6.65 -44.9)"/><path class="cls-1" d="M509.84,735.1a6.38,6.38,0,0,1-1.22-1.66,3.8,3.8,0,0,1-.42-1.69v-.4c0-.09,0-.11.14-.06l1,.59a.25.25,0,0,1,.14.22v.34a2.57,2.57,0,0,0,.62,1.53,5.66,5.66,0,0,0,1.69,1.44,2.22,2.22,0,0,0,1.46.43c.32-.08.49-.34.49-.78a1.84,1.84,0,0,0-.26-.89,5.39,5.39,0,0,0-.73-1c-.32-.36-.79-.83-1.41-1.43s-1.22-1.21-1.62-1.65a7.06,7.06,0,0,1-1-1.42,3.3,3.3,0,0,1-.39-1.55c0-.8.28-1.26.86-1.39a3.48,3.48,0,0,1,2.33.66,8.8,8.8,0,0,1,1.82,1.4,6.83,6.83,0,0,1,1.21,1.68,3.92,3.92,0,0,1,.43,1.7v.28c0,.1,0,.12-.14.06l-1-.6a.25.25,0,0,1-.14-.23v-.2a2.69,2.69,0,0,0-.59-1.55,4.81,4.81,0,0,0-1.6-1.41,2.28,2.28,0,0,0-1.34-.42q-.48.09-.48.75a1.84,1.84,0,0,0,.24.9,4.42,4.42,0,0,0,.71.93c.31.34.79.81,1.43,1.42s1.2,1.2,1.61,1.66a7.06,7.06,0,0,1,1,1.45,3.38,3.38,0,0,1,.41,1.58c0,.82-.3,1.29-.9,1.43a3.82,3.82,0,0,1-2.49-.72A8.73,8.73,0,0,1,509.84,735.1Z" transform="translate(-6.65 -44.9)"/><path class="cls-1" d="M524.1,733.89v.9c0,.09,0,.11-.14.06l-2.69-1.55s0,0,0,0v8.43c0,.09-.05.11-.14.06l-1.07-.62a.24.24,0,0,1-.14-.22v-8.42a.11.11,0,0,0,0-.09L517.26,731a.24.24,0,0,1-.14-.22v-.9c0-.09,0-.11.14-.06l6.7,3.87A.24.24,0,0,1,524.1,733.89Z" transform="translate(-6.65 -44.9)"/><path class="cls-1" d="M537,742.39l-5-2.87s-.06,0-.06,0v3a.1.1,0,0,0,.06.09l3.41,2a.23.23,0,0,1,.14.22v.88c0,.1,0,.12-.14.06l-3.41-2s-.06,0-.06,0v3.08a.1.1,0,0,0,.06.09l5,2.87a.26.26,0,0,1,.14.22V751c0,.1,0,.12-.14.06l-6.23-3.59a.26.26,0,0,1-.14-.22v-9.52c0-.1.05-.12.14-.06l6.23,3.59a.26.26,0,0,1,.14.22v.89C537.18,742.42,537.13,742.44,537,742.39Z" transform="translate(-6.65 -44.9)"/><path class="cls-1" d="M539.43,752.36a.09.09,0,0,1,0-.11l2.88-3s0,0,0-.08l-2.88-6.36a.33.33,0,0,1,0-.1s0-.06.12,0l1.17.67a.42.42,0,0,1,.16.2l2.26,5,0,0h0l2.26-2.41a.12.12,0,0,1,.16,0l1.15.66a.23.23,0,0,1,.11.11s0,.08,0,.11l-2.87,3a.11.11,0,0,0,0,.08l2.87,6.34a.33.33,0,0,1,0,.1c0,.05,0,.06-.13,0l-1.15-.66a.47.47,0,0,1-.16-.2l-2.26-5a.1.1,0,0,0,0,0s0,0,0,0l-2.26,2.39a.12.12,0,0,1-.16,0l-1.17-.67A.29.29,0,0,1,539.43,752.36Z" transform="translate(-6.65 -44.9)"/><path class="cls-1" d="M554.85,751.85a5.62,5.62,0,0,1,1,1.59,4.27,4.27,0,0,1,.36,1.68,1.81,1.81,0,0,1-.37,1.26,1.19,1.19,0,0,1-1,.39,3.54,3.54,0,0,1-1.54-.53l-2.46-1.43s-.06,0-.06,0v4c0,.1,0,.12-.14.06l-1.06-.61a.24.24,0,0,1-.14-.22V748.5c0-.09,0-.11.14-.06l3.78,2.19A5.7,5.7,0,0,1,554.85,751.85Zm-.45,3.47c.32-.12.47-.44.47-.94a2.71,2.71,0,0,0-.47-1.51,3.51,3.51,0,0,0-1.23-1.19l-2.34-1.35s-.06,0-.06,0v3.27a.1.1,0,0,0,.06.09l2.34,1.35A1.41,1.41,0,0,0,554.4,755.32Z" transform="translate(-6.65 -44.9)"/><path class="cls-1" d="M565.23,758.66l-5-2.87s0,0,0,0v3a.11.11,0,0,0,0,.09l3.42,2a.25.25,0,0,1,.14.22V762c0,.09-.05.11-.14.06l-3.42-2s0,0,0,0v3.08a.11.11,0,0,0,0,.09l5,2.87a.23.23,0,0,1,.14.22v.88c0,.1,0,.12-.14.06L559,763.7a.24.24,0,0,1-.14-.22V754c0-.09,0-.11.14-.06l6.23,3.6a.24.24,0,0,1,.14.22v.89C565.37,758.7,565.33,758.72,565.23,758.66Z" transform="translate(-6.65 -44.9)"/><path class="cls-1" d="M573.72,772.1l-2-5.32a.13.13,0,0,0-.06-.07l-2-1.16s-.06,0-.06,0v4.13c0,.09,0,.11-.14.06l-1.06-.61a.26.26,0,0,1-.15-.23V759.4c0-.09.05-.11.15,0l3.76,2.17a5.91,5.91,0,0,1,1.48,1.2,5.7,5.7,0,0,1,1,1.55,4.18,4.18,0,0,1,.36,1.66,1.57,1.57,0,0,1-.52,1.36,1.51,1.51,0,0,1-1.42.1s0,0,0,.05l2,5.38s0,0,0,.07,0,.08-.11,0l-1.11-.64A.36.36,0,0,1,573.72,772.1Zm-4.09-10.84v3.13a.1.1,0,0,0,.06.09l2.33,1.35a1.4,1.4,0,0,0,1.19.25c.3-.12.45-.43.45-.91a2.65,2.65,0,0,0-.45-1.45,3.42,3.42,0,0,0-1.19-1.14l-2.33-1.35S569.63,761.22,569.63,761.26Z" transform="translate(-6.65 -44.9)"/><path class="cls-1" d="M577.92,774.49V765c0-.09,0-.11.14-.05l1.06.61a.25.25,0,0,1,.14.22v9.52c0,.1,0,.11-.14.06l-1.06-.61A.24.24,0,0,1,577.92,774.49Z" transform="translate(-6.65 -44.9)"/><path class="cls-1" d="M589,772.37l-5-2.87s-.06,0-.06,0v3a.09.09,0,0,0,.06.08l3.41,2a.22.22,0,0,1,.14.22v.88c0,.09,0,.11-.14.06l-3.41-2s-.06,0-.06,0v3.08a.1.1,0,0,0,.06.09l5,2.87a.25.25,0,0,1,.14.22V781c0,.09,0,.11-.14.06l-6.23-3.6a.22.22,0,0,1-.14-.22v-9.52c0-.09,0-.11.14-.06l6.23,3.6a.25.25,0,0,1,.14.22v.88C589.12,772.41,589.07,772.43,589,772.37Z" transform="translate(-6.65 -44.9)"/><path class="cls-1" d="M597.94,776.38,599,777a.25.25,0,0,1,.14.22v9.52c0,.09,0,.11-.14.06l-1-.59a.43.43,0,0,1-.17-.2l-4.38-9.68a.09.09,0,0,0,0-.06s0,0,0,0v7.11c0,.09,0,.11-.14.06l-1.06-.62a.24.24,0,0,1-.14-.22v-9.52c0-.09.05-.11.14-.06l1,.6a.42.42,0,0,1,.16.2l4.37,9.67s0,.06,0,.06,0,0,0,0v-7.11C597.8,776.35,597.84,776.33,597.94,776.38Z" transform="translate(-6.65 -44.9)"/><path class="cls-1" d="M603.87,789.33a6.54,6.54,0,0,1-1.21-1.83,4.85,4.85,0,0,1-.43-1.93v-3.63a2.08,2.08,0,0,1,.43-1.42,1.42,1.42,0,0,1,1.21-.43,4.34,4.34,0,0,1,1.78.64,7.19,7.19,0,0,1,1.78,1.41,6.76,6.76,0,0,1,1.2,1.77,4.6,4.6,0,0,1,.42,1.87v0a.1.1,0,0,1,0,.09.13.13,0,0,1-.1,0l-1.06-.56a.23.23,0,0,1-.14-.2v-.05a3.26,3.26,0,0,0-.56-1.76,4.24,4.24,0,0,0-1.5-1.41,1.84,1.84,0,0,0-1.5-.33c-.38.15-.57.52-.57,1.12v3.72a3.2,3.2,0,0,0,.57,1.77,4.35,4.35,0,0,0,1.5,1.42,1.83,1.83,0,0,0,1.5.32c.37-.15.56-.53.56-1.12v0c0-.08,0-.1.14,0l1.06.67a.25.25,0,0,1,.14.23,2,2,0,0,1-.42,1.38,1.43,1.43,0,0,1-1.2.41,4.34,4.34,0,0,1-1.78-.64A7.27,7.27,0,0,1,603.87,789.33Z" transform="translate(-6.65 -44.9)"/><path class="cls-1" d="M618.42,789.37l-5-2.87s-.06,0-.06,0v3a.1.1,0,0,0,.06.09l3.41,2a.22.22,0,0,1,.14.22v.88c0,.09,0,.11-.14.06l-3.41-2s-.06,0-.06,0v3.08a.1.1,0,0,0,.06.09l5,2.87a.24.24,0,0,1,.14.22V798c0,.09,0,.11-.14.06l-6.23-3.6a.25.25,0,0,1-.14-.22v-9.52c0-.09.05-.11.14-.06l6.23,3.6a.25.25,0,0,1,.14.22v.88C618.56,789.4,618.51,789.42,618.42,789.37Z" transform="translate(-6.65 -44.9)"/><polygon class="cls-2" points="655.01 900.46 449.21 781.64 449.21 636.1 655.01 754.9 655.01 900.46"/><path class="cls-9" d="M541.07,791.92c-1.45,3.44-3.39,5.93-5.08,8.91,1.42,4.56,4.58,9.29,7,14.39.42.86,2.27,4.85,2.26,4.74a28.74,28.74,0,0,1-2.54,3.89c-1,1.3-2,2-2.82,3,2.45,6.5,6,12.17,8.46,18.64-1.06,3.17-2.72,5.18-3.95,8,2.53.16,5.48-2.14,8.18-2.93-2.23-7.18-5.06-13.89-7.33-21,1.74-1.95,4.36-2.59,7.05-4a22.22,22.22,0,0,0,2.25-1.37c.08-.75-3.43-8.34-3.94-9.54-1.51-3.54-2.72-6.28-3.95-9.16,5.91-6.51,10-20,24.25-10.46,9.9,6.67,17.82,19.53,16.91,36.14-.81,14.84-8.59,24.14-15.22,28.66-7.82,5.33-16.37,7.89-26.51,6.48A198.17,198.17,0,0,1,519.08,827c-7.36-14.22-14.44-31.75-14.38-47.28,0-11,5.06-18.83,14.38-15C530.88,769.54,536.92,780.26,541.07,791.92Z" transform="translate(-6.65 -44.9)"/><path class="cls-3" d="M600.67,631.36c-2.39,2.61-6.27-.27-12.07-3.24-6.88-3.51-12.17-5-16-3.61-2.52.94-3.82,3.8-6.9,4.89-1,6.86,1.17,17.36,4.74,24.68-1.71.85-1.88,5.18-3.88,8-1.34,1.91-4.28,2.11-3.88,4.76.38,2.47,2.61,4.13,5.18,6.72-.13,2.13-1.77,1.74-2.16,3.43,0,1.42,1.3,2.14,2.59,2.89-.4,1.68-2,1.29-2.16,3.42.43,2.59,2.76,4.21,3.88,6.45-.54,3.49-3.39,5.5-.43,11.42,2.26,4.51,6.82,6.7,12.51,10.49,6.26,4.18,9.85,8.49,11.64,14.66l-72.88-42.08c2.94-8.89,24.19,11.32,25.88.93.55-3.42-1.19-5.22-2.16-8.71-.15-2.9,2.82-.61,3-2.93a12.78,12.78,0,0,0-1.29-4.48c.89-.23,2.22.27,2.58-.84a23.69,23.69,0,0,0-2.58-6.63c2-.62,5.95,2.1,6.9-.22-2.71-7.35-5.94-14.43-7.77-22.22,2.26-3.84,5.7-5.86,4.75-14.54a33.59,33.59,0,0,0-4.32-12.29A63.66,63.66,0,0,0,537.71,602c-5.69-5.76-12.12-9.53-18.11-13.72-2-1.37-3.72-4.93-5.18-6.73V578.3l86.25,49.79Z" transform="translate(-6.65 -44.9)"/><path class="cls-10" d="M109.47,644.76H19.38c-6.65,0-12,6.36-12,14.2v50c0,7.84,5.39,14.2,12,14.2H87.06a15,15,0,0,0-1.6,6.81,15.57,15.57,0,0,0,.51,4c-4.7.2-8.46,4.74-8.46,10.33s3.94,10.35,8.79,10.35,8.78-4.63,8.78-10.35a11.12,11.12,0,0,0-.06-1.16,9.94,9.94,0,0,0,1.73.17c6.24,0,11.29-6,11.29-13.3a15,15,0,0,0-1.6-6.81h3c6.65,0,12-6.36,12-14.2V659C121.51,651.12,116.12,644.76,109.47,644.76Z" transform="translate(-6.65 -44.9)"/><path class="cls-10" d="M103.86,762c0,4.63-3.18,8.38-7.11,8.38s-7.11-3.75-7.11-8.38,3.19-8.38,7.11-8.38S103.86,757.34,103.86,762Z" transform="translate(-6.65 -44.9)"/><path class="cls-10" d="M110.28,778.88c0,3-2.06,5.41-4.6,5.41s-4.6-2.42-4.6-5.41,2.06-5.43,4.6-5.43S110.28,775.88,110.28,778.88Z" transform="translate(-6.65 -44.9)"/><polygon class="cls-6" points="84.28 669.95 60.69 654.27 58.83 635.44 59.76 625.1 84.28 608.25 31.27 608.25 55.79 625.1 56.72 635.44 54.86 654.27 31.27 669.95 84.28 669.95"/><path class="cls-11" d="M104.28,890.69c-.56,7.42,5.31,20.91,6,23.72,1.42,6.24,6.67,22.87,6.4,24.21-.82,4-1.89,9.38-1.89,13.33,0,1.23.54,17.11.48,26.33,0,4.24-.59,5.54-1,6.64a3.26,3.26,0,0,0,1.71,3.3,9.83,9.83,0,0,1-1.62,4.41l-1.69.7s-2.16,4.74-2.19,5.62a2.65,2.65,0,0,0,.12.56,3.24,3.24,0,0,0-.12.54c0,.38.6,3.25,4.56,4.2a4.92,4.92,0,0,0,2.83,0c1-.45,2.23-1.13,3.66-1.94a5.42,5.42,0,0,0,1.05.83,6.82,6.82,0,0,1-1,3.69l-.54.17s-3,4.65-2.63,6l.06.31a1.82,1.82,0,0,0-.06.81c.25,1,.24,3.07,4.74,4.34a10.16,10.16,0,0,0,3.55,0c4.18-1.29,13.27-5.74,16-7.24a4.61,4.61,0,0,0,1.87-2.17,4.17,4.17,0,0,0,0-1.37,5.44,5.44,0,0,0-3-5.31c-1.34-.54-6.7.69-11.63,2-1-.19-.95-.54-1-1.2,1.76-1.3,1.41-4,.83-6.21,2.87-2.11,4.92-4,4.41-4.87a2.09,2.09,0,0,1-.14-.17c.21-.38.28-.7.14-.93a7.72,7.72,0,0,0-4.63-3c1.59-14.05,4.44-42.9,4.44-42.9,1-8.62,3.06-26.24,3.06-26.24a107.48,107.48,0,0,0-.57-16.92c.07-.26.14-.54.19-.83-1.3-13.24-7.15-26.3-7.15-26.3a9.91,9.91,0,0,1-.6-4.79c.24-1,1.9-3.74,3.34-7.73a9,9,0,0,1,.91-1.65c2.44,4.46,5.72,10.39,6.61,11.46a23.93,23.93,0,0,0,1.61,1.78c.73.72,3.48.32,4.06-.14,1.22-1,16.13-14.48,16.13-14.48.5-.45,2-.25,3.32-.81s6.22-3.17,6.72-3.92a2.28,2.28,0,0,0-.1-2.72l.93-.52c1.18-.69,1.46-1.43.61-1.67l-4.84-1.36,1.75-3.35-.63-.28-1.8,3.44-8.8-2.47a5.75,5.75,0,0,0-3.68.8l-1.35.76a2.13,2.13,0,0,0-.68-.26s-5.7,1-6.73,2a8.25,8.25,0,0,0-1.61,3.21l.35,0-4.28,2.4c-.68-1.84-1.29-3.56-1.7-4.81-.21-.65-.45-1.68-.71-2.79.93-1.69,1.13-3.73.4-4.77-1.73-2.47-4.15-5.65-6-6.55a6.5,6.5,0,0,0-1.47-2,36.68,36.68,0,0,0-3.29-2.2l.09,0c1.47-.45,3.31,2.06,3.31,2.06s-2.29-3.94-3.92-3.95c-.45,0-1,0-1.66.08-.51-.87.24-8.8.25-8.95a10.32,10.32,0,0,0,2.83-.46c1.15-.4,3.18-6.47,3.87-9.09a28.66,28.66,0,0,0,.66-7.84c.46.11,1.09-.2,1.35.18.5.72,1.19-2.52,1.19-2.52l.58,1.16s.07-4.85-1.35-6.48c-1.64-1.89-5.53-6.45-10.49-7.06a17.91,17.91,0,0,0-5.7.19l-.29,0A4.68,4.68,0,0,0,115,790a14.93,14.93,0,0,0-2.64,1.75,10.92,10.92,0,0,0-3.89,9.9c.8,6.08.68,9.21,1.86,11,.45,4.29-.64,9-1.84,13a3.48,3.48,0,0,0-1.39,1.46c-1.5,3.94-3.54,9.72-2.51,17.14s7,20.13,7,25.08c0,6.11-5.9,13.45-7.4,19A3.88,3.88,0,0,0,104.28,890.69Zm40.55-25.59-1.31-3.36,4.4,1.24c-.78.44-1.44.83-1.85,1.11C145.84,864.24,144.83,865.1,144.83,865.1Z" transform="translate(-6.65 -44.9)"/><path class="cls-12" d="M134.55,859.22c-.85-.24-.57-1,.61-1.67l19.89-11.17a5.75,5.75,0,0,1,3.68-.8l14.32,4c.85.24.57,1-.61,1.67l-19.89,11.17a5.82,5.82,0,0,1-3.68.81Z" transform="translate(-6.65 -44.9)"/><polygon class="cls-13" points="130.27 813.55 150.97 801.91 164.2 805.63 143.5 817.27 130.27 813.55"/><path class="cls-14" d="M118.34,1014.09c.25,1,.24,3.07,4.74,4.34a10.16,10.16,0,0,0,3.55,0c4.18-1.29,13.27-5.74,16-7.24a4.61,4.61,0,0,0,1.87-2.17,5.4,5.4,0,0,0-2.94-5.56c-2.61-1-20.63,4.62-20.63,4.62S118,1012.77,118.34,1014.09Z" transform="translate(-6.65 -44.9)"/><path class="cls-15" d="M118.34,1013c.25,1,.24,3.07,4.74,4.34a10.38,10.38,0,0,0,3.55.05c4.18-1.3,13.27-5.75,16-7.25a4.61,4.61,0,0,0,1.87-2.17,5.4,5.4,0,0,0-2.94-5.56C139,1001.33,121,1007,121,1007S118,1011.65,118.34,1013Z" transform="translate(-6.65 -44.9)"/><path class="cls-16" d="M115,1004.25c-4-1-4.57-3.82-4.56-4.2,0-.88,2.19-5.62,2.19-5.62s14.42-6.09,15.34-5.78,4.56.8,6.2,3.46c1.19,1.94-11.61,9.92-16.34,12.14A4.92,4.92,0,0,1,115,1004.25Z" transform="translate(-6.65 -44.9)"/><path class="cls-15" d="M115,1003.15c-4-.95-4.57-3.83-4.56-4.2,0-.88,2.19-5.62,2.19-5.62s14.42-6.09,15.34-5.78,4.56.79,6.2,3.46c1.19,1.94-11.61,9.93-16.34,12.14A4.92,4.92,0,0,1,115,1003.15Z" transform="translate(-6.65 -44.9)"/><path class="cls-17" d="M119.2,996.83c9.11-2.71,4.66-5.19,4.66-5.19a1.29,1.29,0,0,1-.06-.47c.08-2.4.07-16.83.14-15l-7.86.23s.69,8.23.08,10.81c-.51,2.16-.51,4-2.38,6.11C113.78,993.3,115.09,997.72,119.2,996.83Z" transform="translate(-6.65 -44.9)"/><path class="cls-18" d="M129.22,1010.48c2.38-.65,4.55-1.2,4.53-2.18-.06-2.53-3.65-3.89-3.65-3.89-1.24-.2-1.06-.59-1.2-1.4a54,54,0,0,1,.2-13.19l-8.34.2s1.9,10.2,1.79,12.88a7.35,7.35,0,0,1-1.34,4.46S122.53,1012.29,129.22,1010.48Z" transform="translate(-6.65 -44.9)"/><path class="cls-19" d="M130.12,878.33s.47,3.87-8.7,3-9.74-6.16-9.74-6.16c-1.93,2.75-6.75,9.31-7.39,15.13-.79,7.33,5.29,21.25,5.94,24.11,1.42,6.24,6.67,22.87,6.4,24.21-.82,4-1.89,9.38-1.89,13.33,0,1.23.54,17.11.48,26.33,0,4.24-.59,5.54-1,6.64,0,0-.91,4,6.37,4.59,0-.7-1.18-9-1.18-9-1.76-8.1,2.43-29.21,1.64-31.55-1.47-4.42-4.84-21.58-5.64-31.82,0,0,4.21,27.24,5.68,31.65.89,2.67-2.57,21.4-2,28,.14,1.68,1.31,10.38,1.94,16.83.23,2.37-.58,7.4-.24,7.89a6,6,0,0,0,6.74,2.37c5.31-1.2,1.19-9,1.37-10.27,1.23-9.26,5.1-48.47,5.1-48.47,1-8.62,3.06-26.24,3.06-26.24C137.92,900.3,133.43,882.84,130.12,878.33Z" transform="translate(-6.65 -44.9)"/><path class="cls-20" d="M132.25,862.27c.55-1.58,4.16-6,4.69-6.87a7.41,7.41,0,0,0,1-3.83c0-1.52-4-16.1-6.64-18.11a31.53,31.53,0,0,0-4.84-3.05s-5.61.74-9.4,1c-4.7.31-1.57-7.74-1.57-7.74s-2.45-.34-3.36.1-4.44,1.62-5.06,3.25c-1.5,3.94-3.54,9.72-2.51,17.14s7,20.13,7,25.08c0,6.11-5.9,13.45-7.4,19-1.89,4.77,12.71,21.22,22.22,19.57,3.53-.62,9.25-.94,10.24-6.73-1.3-13.24-7.15-26.3-7.15-26.3a9.91,9.91,0,0,1-.6-4.79C129.15,869,130.81,866.26,132.25,862.27Z" transform="translate(-6.65 -44.9)"/><path class="cls-21" d="M111.88,803.54c-.27-2.06-1.1-8.39,7.7-11.11s11.48,2.33,13,5.47c1.42,4.29.91,10.41.21,13s-2.72,8.69-3.87,9.09a10.32,10.32,0,0,1-2.83.46c0,.15-.78,8.35-.23,9a4.93,4.93,0,0,0,1.81,1.11c-8,3-7.32.61-11.68-1.68s-1-4.7-.91-4.88c1.87-3.61,1.68-8.3,1.51-10.24C114.79,810.63,112.09,805.13,111.88,803.54Z" transform="translate(-6.65 -44.9)"/><path class="cls-21" d="M146.07,864.09c-.23.15-1.24,1-1.24,1s-4.29-10.92-5.78-15.5c-.57-1.77-1.4-6.29-2-7.85a12.68,12.68,0,0,0-4.33-5.4c-1-.79-2.45-.19-3.24,1.24-1.21,2.23-3.34,5.06-3.4,7-.12,3.19,4.29,10.93,4.29,10.93s7.91,14.8,9.36,16.56a23.93,23.93,0,0,0,1.61,1.78c.73.72,3.48.32,4.06-.14,1.22-1,16.13-14.48,16.13-14.48.5-.45,2-.25,3.32-.81s6.22-3.17,6.72-3.92c1.89-2.78-3.21-6.18-7-4.64-2.71,1.72-2.34,1.82-3.36,3.36a17,17,0,0,0-1.44,3.57S148.6,862.36,146.07,864.09Z" transform="translate(-6.65 -44.9)"/><path class="cls-22" d="M127.84,851.74c1.66,1.52,5.88-.93,8.8-3,2.29-1.59,3.16-5.23,2.1-6.75-1.94-2.77-4.77-6.47-6.64-6.78C125.23,835.44,123.91,848.36,127.84,851.74Z" transform="translate(-6.65 -44.9)"/><polygon class="cls-23" points="159.97 806.4 163.31 799.99 162.68 799.72 159.09 806.58 159.97 806.4"/><path class="cls-22" d="M128.09,831.23c1.47-.45,3.31,2.06,3.31,2.06s-2.29-3.94-3.92-3.95c-2.65,0-9,1.14-11.3-.08-2.55-1.31-3.16-2.74-3.39-3.93s1.77-2.39,1.52-2.37c-1.77.16-2.21.91-2.21.91l-.72,2.16s-1.82,3,3.87,5.68C119.15,833.53,124.87,832.23,128.09,831.23Z" transform="translate(-6.65 -44.9)"/><path class="cls-24" d="M136.55,801.9s.07-4.85-1.35-6.48c-1.64-1.89-5.53-6.45-10.49-7.06a15.93,15.93,0,0,0-12.39,3.34,10.92,10.92,0,0,0-3.89,9.9c.8,6.08.68,9.21,1.86,11,1,9.28-5.26,20.71-4.19,21.46s.85,4.64.85,4.64.63,2.67,1.4,3.25,1.07,3.57,1.07,3.57l3.93,3.35s.11-1.94.23-3.88,6.92-7.17,6.24-9.15a5.71,5.71,0,0,1,.45-4.92c.69-.85-.4-4.08.78-7.9a21.68,21.68,0,0,1,5-7.55c1.57-1.68-.36-7.15,1.34-10.22,1.51-2.74,4.67-3.26,5.84-2.27.46.38,1.29-.16,1.6.29.5.72,1.19-2.52,1.19-2.52Z" transform="translate(-6.65 -44.9)"/><path class="cls-25" d="M127.8,803.75c1.36.29-.75-14-9.08-15.25-2,0-3.79,1-3.87,1.76C123.81,791.47,126.45,803.46,127.8,803.75Z" transform="translate(-6.65 -44.9)"/><path class="cls-21" d="M144.68,852.06a8.25,8.25,0,0,1,1.61-3.21c1-1,6.73-2,6.73-2s1.14.21.83.73-4,1.65-5.34,2.9A8.14,8.14,0,0,1,144.68,852.06Z" transform="translate(-6.65 -44.9)"/></svg>