<svg id="Layer_1" data-name="Layer 1" xmlns="http://www.w3.org/2000/svg" xmlns:xlink="http://www.w3.org/1999/xlink" viewBox="0 0 847.16 982.9"><defs><style>.cls-1,.cls-58{fill:#f1f2f2;}.cls-2,.cls-24,.cls-26,.cls-3,.cls-4,.cls-6,.cls-67,.cls-69,.cls-71,.cls-73,.cls-75{fill:none;}.cls-2,.cls-3,.cls-4,.cls-7,.cls-75{stroke:#414042;}.cls-10,.cls-11,.cls-12,.cls-13,.cls-14,.cls-15,.cls-16,.cls-17,.cls-18,.cls-19,.cls-2,.cls-20,.cls-21,.cls-22,.cls-23,.cls-24,.cls-25,.cls-26,.cls-27,.cls-28,.cls-29,.cls-3,.cls-30,.cls-31,.cls-32,.cls-33,.cls-34,.cls-35,.cls-36,.cls-37,.cls-38,.cls-39,.cls-40,.cls-41,.cls-42,.cls-43,.cls-45,.cls-46,.cls-47,.cls-48,.cls-50,.cls-51,.cls-52,.cls-53,.cls-54,.cls-55,.cls-56,.cls-57,.cls-58,.cls-59,.cls-6,.cls-60,.cls-64,.cls-65,.cls-67,.cls-68,.cls-69,.cls-7,.cls-71,.cls-72,.cls-73,.cls-75,.cls-9{stroke-linecap:round;}.cls-10,.cls-11,.cls-12,.cls-13,.cls-14,.cls-15,.cls-16,.cls-17,.cls-18,.cls-19,.cls-2,.cls-20,.cls-21,.cls-22,.cls-23,.cls-24,.cls-25,.cls-26,.cls-27,.cls-28,.cls-29,.cls-30,.cls-31,.cls-32,.cls-33,.cls-34,.cls-35,.cls-36,.cls-37,.cls-38,.cls-39,.cls-40,.cls-41,.cls-42,.cls-43,.cls-45,.cls-46,.cls-47,.cls-48,.cls-50,.cls-51,.cls-52,.cls-53,.cls-54,.cls-55,.cls-56,.cls-57,.cls-58,.cls-59,.cls-60,.cls-64,.cls-65,.cls-67,.cls-68,.cls-69,.cls-7,.cls-71,.cls-72,.cls-73,.cls-75,.cls-9{stroke-linejoin:round;}.cls-2,.cls-7{stroke-width:1.55px;}.cls-3,.cls-4,.cls-75{stroke-width:3.1px;}.cls-4,.cls-5,.cls-75{stroke-dasharray:7.65 7.65;}.cls-5,.cls-76{fill:#58595b;stroke:#58595b;}.cls-5{stroke-width:2.55px;}.cls-6{stroke:#424142;stroke-width:4.64px;}.cls-45,.cls-65,.cls-66,.cls-7{fill:#fff;}.cls-8{fill:url(#linear-gradient);}.cls-10,.cls-11,.cls-12,.cls-13,.cls-14,.cls-15,.cls-16,.cls-17,.cls-18,.cls-19,.cls-20,.cls-21,.cls-22,.cls-23,.cls-24,.cls-25,.cls-26,.cls-27,.cls-28,.cls-29,.cls-30,.cls-31,.cls-32,.cls-33,.cls-34,.cls-35,.cls-36,.cls-37,.cls-38,.cls-39,.cls-40,.cls-41,.cls-42,.cls-43,.cls-45,.cls-46,.cls-47,.cls-48,.cls-50,.cls-51,.cls-52,.cls-53,.cls-54,.cls-55,.cls-56,.cls-57,.cls-58,.cls-59,.cls-60,.cls-64,.cls-67,.cls-68,.cls-71,.cls-9{stroke:#383838;}.cls-10,.cls-12,.cls-13,.cls-14,.cls-37,.cls-57,.cls-9{stroke-width:0.83px;}.cls-9{fill:url(#linear-gradient-2);}.cls-10{fill:url(#linear-gradient-3);}.cls-11,.cls-15,.cls-16,.cls-17,.cls-18,.cls-19,.cls-20,.cls-21,.cls-22,.cls-25,.cls-26,.cls-27,.cls-28,.cls-29,.cls-30,.cls-31,.cls-32,.cls-33,.cls-34,.cls-35,.cls-36,.cls-38,.cls-39,.cls-40,.cls-41,.cls-42,.cls-43,.cls-45,.cls-46,.cls-47,.cls-48,.cls-51,.cls-52,.cls-53,.cls-54,.cls-55,.cls-56,.cls-58,.cls-59,.cls-60,.cls-72{stroke-width:0.77px;}.cls-11{fill:url(#linear-gradient-4);}.cls-12{fill:url(#linear-gradient-5);}.cls-13{fill:url(#linear-gradient-6);}.cls-14{fill:url(#linear-gradient-7);}.cls-15{fill:url(#linear-gradient-8);}.cls-16{fill:url(#linear-gradient-9);}.cls-17{fill:url(#radial-gradient);}.cls-18{fill:#7b6456;}.cls-19{fill:url(#radial-gradient-2);}.cls-20{fill:url(#radial-gradient-3);}.cls-21{fill:#637b85;}.cls-22{fill:url(#radial-gradient-4);}.cls-23,.cls-24,.cls-50{stroke-width:2.32px;}.cls-23{fill:url(#radial-gradient-5);}.cls-25{fill:url(#radial-gradient-6);}.cls-27{fill:url(#radial-gradient-7);}.cls-28{fill:url(#radial-gradient-8);}.cls-29{fill:url(#radial-gradient-9);}.cls-30{fill:url(#radial-gradient-10);}.cls-31{fill:url(#radial-gradient-11);}.cls-32{fill:#edeef0;}.cls-33{fill:url(#radial-gradient-12);}.cls-34,.cls-49{fill:#383838;}.cls-35{fill:#5d4b2c;}.cls-36{fill:url(#radial-gradient-13);}.cls-37,.cls-53{fill:#e6e7e8;}.cls-38,.cls-70{fill:#d1d3d4;}.cls-39{fill:#bcbec0;}.cls-40{fill:#90c2e6;}.cls-41{fill:#414042;}.cls-42,.cls-68{fill:#727a7c;}.cls-43{fill:#87888a;}.cls-44,.cls-47{fill:#ebcb96;}.cls-46{fill:url(#New_Gradient_Swatch_1);}.cls-48{fill:#f15b25;}.cls-50,.cls-60{fill:#fde92b;}.cls-51{fill:#d4922b;}.cls-52{fill:#a7a9ac;}.cls-54{fill:url(#radial-gradient-14);}.cls-55{fill:url(#linear-gradient-17);}.cls-56{fill:#585858;}.cls-57{fill:#dacaa2;}.cls-59{fill:#e37449;}.cls-61{fill:#515252;}.cls-62{fill:#ec2227;}.cls-63{fill:#494849;}.cls-64{fill:#7c8282;}.cls-64,.cls-65,.cls-67,.cls-68,.cls-73{stroke-width:0.75px;}.cls-65,.cls-66,.cls-72{stroke:#3a4c4e;}.cls-66{stroke-miterlimit:10;}.cls-66,.cls-69,.cls-71{stroke-width:0.5px;}.cls-69{stroke:#3b4d4f;}.cls-72{fill:#3a4c4e;}.cls-73{stroke:#494849;}.cls-74{fill:#d3a22a;}.cls-76{stroke-width:1.55px;}</style><linearGradient id="linear-gradient" x1="323.18" y1="524.66" x2="323.18" y2="488.53" gradientUnits="userSpaceOnUse"><stop offset="0" stop-color="#fff"/><stop offset="0.14" stop-color="#f6f8f9"/><stop offset="0.36" stop-color="#dee6e9"/><stop offset="0.64" stop-color="#b7c8cf"/><stop offset="0.92" stop-color="#8ba6b1"/></linearGradient><linearGradient id="linear-gradient-2" x1="212.79" y1="534.47" x2="266.88" y2="563.2" gradientUnits="userSpaceOnUse"><stop offset="0" stop-color="#757e84"/><stop offset="1" stop-color="#b3bac4"/></linearGradient><linearGradient id="linear-gradient-3" x1="265.85" y1="512.48" x2="241.87" y2="544.07" xlink:href="#linear-gradient-2"/><linearGradient id="linear-gradient-4" x1="-466.65" y1="536.76" x2="-306.41" y2="536.76" gradientTransform="matrix(-1, 0, 0, 1, -54.48, -45.74)" gradientUnits="userSpaceOnUse"><stop offset="0" stop-color="#828a92"/><stop offset="0.4" stop-color="#a5acb7"/><stop offset="1" stop-color="#788086"/></linearGradient><linearGradient id="linear-gradient-5" x1="-283.86" y1="591.66" x2="-224.53" y2="591.66" gradientTransform="matrix(-1, 0, 0, 1, -54.48, -45.74)" xlink:href="#linear-gradient-2"/><linearGradient id="linear-gradient-6" x1="324.42" y1="479.16" x2="374.16" y2="505.58" xlink:href="#linear-gradient-2"/><linearGradient id="linear-gradient-7" x1="367.89" y1="465.83" x2="350.34" y2="488.96" xlink:href="#linear-gradient-2"/><linearGradient id="linear-gradient-8" x1="229.38" y1="522.07" x2="412.18" y2="522.07" xlink:href="#linear-gradient-2"/><linearGradient id="linear-gradient-9" x1="-365.7" y1="577.7" x2="-224.52" y2="577.7" xlink:href="#linear-gradient-4"/><radialGradient id="radial-gradient" cx="300.67" cy="591.53" r="144.07" gradientUnits="userSpaceOnUse"><stop offset="0" stop-color="#707070"/><stop offset="0.71" stop-color="#3f3f3f"/></radialGradient><radialGradient id="radial-gradient-2" cx="-671.93" cy="1356.03" r="15.85" gradientTransform="matrix(-0.49, -0.87, 0.87, -0.49, -1062.06, 580.1)" gradientUnits="userSpaceOnUse"><stop offset="0" stop-color="#dadad8"/><stop offset="0.2" stop-color="#d6d6d3"/><stop offset="0.42" stop-color="#c9c9c6"/><stop offset="0.64" stop-color="#b3b4b0"/><stop offset="0.88" stop-color="#959791"/><stop offset="1" stop-color="#83857e"/></radialGradient><radialGradient id="radial-gradient-3" cx="-640.71" cy="1337.3" r="21.05" xlink:href="#radial-gradient-2"/><radialGradient id="radial-gradient-4" cx="-512.91" cy="1219.37" r="14.01" gradientTransform="matrix(-0.17, -0.99, 0.99, -0.17, -941.9, 259.18)" gradientUnits="userSpaceOnUse"><stop offset="0.3" stop-color="#816b5c"/><stop offset="1" stop-color="#61472a"/></radialGradient><radialGradient id="radial-gradient-5" cx="355.13" cy="554.32" r="101.01" gradientUnits="userSpaceOnUse"><stop offset="0.01" stop-color="#e2c09e"/><stop offset="1" stop-color="#dcaa80"/></radialGradient><radialGradient id="radial-gradient-6" cx="212.95" cy="1134.23" r="16.12" gradientTransform="translate(-837.46 772.59) rotate(-90.89)" xlink:href="#radial-gradient-5"/><radialGradient id="radial-gradient-7" cx="-495.25" cy="1159.98" r="45.1" gradientTransform="matrix(-0.11, -0.99, 0.99, -0.11, -908.23, 208.87)" gradientUnits="userSpaceOnUse"><stop offset="0" stop-color="#e7c190"/><stop offset="1" stop-color="#e59448"/></radialGradient><radialGradient id="radial-gradient-8" cx="-476.23" cy="1152.45" r="5.96" xlink:href="#radial-gradient-7"/><radialGradient id="radial-gradient-9" cx="-486.61" cy="1152.17" r="13.6" gradientTransform="matrix(-0.11, -0.99, 0.99, -0.11, -908.23, 208.87)" gradientUnits="userSpaceOnUse"><stop offset="0.01" stop-color="#c9996d"/><stop offset="0.91" stop-color="#dcaa80"/></radialGradient><radialGradient id="radial-gradient-10" cx="-490.77" cy="1152.15" r="9.5" xlink:href="#radial-gradient-7"/><radialGradient id="radial-gradient-11" cx="-505.48" cy="1220.61" r="20.95" gradientTransform="matrix(-0.11, -0.99, 0.99, -0.11, -908.23, 208.87)" xlink:href="#radial-gradient-5"/><radialGradient id="radial-gradient-12" cx="-377.97" cy="1064.6" r="13.69" gradientTransform="matrix(0.18, -0.98, 0.98, 0.18, -707.02, 1.92)" xlink:href="#radial-gradient-5"/><radialGradient id="radial-gradient-13" cx="9.34" cy="1188.81" r="19.42" gradientTransform="matrix(-0.25, -0.97, 0.97, -0.25, -847.3, 849.47)" xlink:href="#radial-gradient-5"/><linearGradient id="New_Gradient_Swatch_1" x1="282.18" y1="556.53" x2="297.17" y2="556.53" gradientUnits="userSpaceOnUse"><stop offset="0.01" stop-color="#9d9fa2"/><stop offset="0.01" stop-color="#a7a8ab"/><stop offset="0.04" stop-color="#c2c3c5"/><stop offset="0.07" stop-color="#d5d7d8"/><stop offset="0.1" stop-color="#e1e2e3"/><stop offset="0.13" stop-color="#e5e6e7"/><stop offset="0.48" stop-color="#e3e4e5"/><stop offset="0.63" stop-color="#dcddde"/><stop offset="0.75" stop-color="#cfd1d2"/><stop offset="0.81" stop-color="#c4c6c8"/><stop offset="0.9" stop-color="#c0c2c4"/><stop offset="0.98" stop-color="#b5b7b9"/><stop offset="1" stop-color="#b0b2b5"/></linearGradient><radialGradient id="radial-gradient-14" cx="964.89" cy="542.77" r="3.32" gradientTransform="translate(-846.07)" gradientUnits="userSpaceOnUse"><stop offset="0.07" stop-color="#dcdee2"/><stop offset="0.98" stop-color="#c1c5cb"/></radialGradient><linearGradient id="linear-gradient-17" x1="963.09" y1="527.88" x2="966.67" y2="527.88" gradientTransform="translate(-846.07)" gradientUnits="userSpaceOnUse"><stop offset="0.31" stop-color="#c5c9cf"/><stop offset="1" stop-color="#666e71"/></linearGradient></defs><ellipse class="cls-1" cx="53.44" cy="519.46" rx="53.44" ry="42.68"/><polygon class="cls-1" points="214.85 620.95 418.01 503.66 337.4 457.11 134.23 574.41 214.85 620.95"/><polygon class="cls-2" points="57.62 413.92 206.09 328.2 206.09 223.18 57.62 308.91 57.62 413.92"/><line class="cls-3" x1="540.69" y1="60.95" x2="629.75" y2="112.37"/><line class="cls-3" x1="541.96" y1="299.75" x2="631.01" y2="351.17"/><line class="cls-3" x1="542.14" y1="535.97" x2="631.2" y2="587.38"/><line class="cls-3" x1="541.61" y1="760.92" x2="630.67" y2="812.34"/><line class="cls-3" x1="540.69" y1="60.95" x2="540.69" y2="760.92"/><line class="cls-3" x1="390.75" y1="478.82" x2="540.69" y2="393.14"/><path class="cls-4" d="M878,657.63" transform="translate(-63.59 -45.74)"/><path class="cls-4" d="M734.66,567.63" transform="translate(-63.59 -45.74)"/><path class="cls-4" d="M813.3,698.34" transform="translate(-63.59 -45.74)"/><path class="cls-4" d="M878,657.63" transform="translate(-63.59 -45.74)"/><path class="cls-5" d="M878,657.63" transform="translate(-63.59 -45.74)"/><path class="cls-5" d="M734.66,567.63" transform="translate(-63.59 -45.74)"/><line class="cls-3" x1="540.69" y1="60.95" x2="631.01" y2="113.1"/><line class="cls-3" x1="541.96" y1="299.75" x2="631.01" y2="351.17"/><line class="cls-3" x1="542.14" y1="535.97" x2="631.2" y2="587.38"/><line class="cls-6" x1="541.61" y1="760.92" x2="630.67" y2="812.34"/><line class="cls-3" x1="540.69" y1="60.95" x2="540.69" y2="760.92"/><polygon class="cls-7" points="846.39 291.66 631.55 167.63 631.55 0.77 846.39 124.81 846.39 291.66"/><polygon class="cls-7" points="846.39 526.98 631.55 402.95 631.55 236.09 846.39 360.13 846.39 526.98"/><polygon class="cls-7" points="846.39 759.2 631.55 635.17 631.55 468.31 846.39 592.35 846.39 759.2"/><polygon class="cls-7" points="846.39 982.13 631.55 858.1 631.55 691.24 846.39 815.28 846.39 982.13"/><rect class="cls-8" x="321.11" y="490.15" width="4.13" height="36.12"/><polygon class="cls-9" points="213.77 512.23 213.97 555.75 215.78 554.61 215.78 515.54 264.09 543.24 264.32 584.6 266.1 583.46 266.1 542.23 213.77 512.23"/><polygon class="cls-10" points="211.93 513.42 211.93 554.65 213.94 555.8 213.94 516.74 262.26 544.44 262.26 583.5 264.27 584.65 264.27 543.43 211.93 513.42"/><polygon class="cls-11" points="412.18 478.75 352.84 444.75 251.94 503.28 311.27 537.28 412.18 478.75"/><polygon class="cls-12" points="229.38 565.39 170.06 531.38 170.06 526.44 229.38 560.46 229.38 565.39"/><polygon class="cls-13" points="323.25 462.61 323.45 492.48 325.26 491.33 325.26 465.92 373.57 493.62 373.8 521.32 375.58 520.18 375.58 492.61 323.25 462.61"/><polygon class="cls-14" points="321.41 463.8 321.41 491.37 323.43 492.52 323.43 467.12 371.74 494.82 371.74 520.22 373.75 521.38 373.75 493.81 321.41 463.8"/><polygon class="cls-15" points="412.18 478.75 311.27 537.28 311.27 537.43 229.38 560.45 229.38 565.39 310.78 542.51 412.18 483.69 412.18 478.75"/><polygon class="cls-16" points="311.23 537.47 251.89 503.47 170.04 526.45 229.38 560.45 311.23 537.47"/><polygon class="cls-11" points="412.18 478.75 352.84 444.75 251.94 503.28 311.27 537.28 412.18 478.75"/><path class="cls-17" d="M468.11,525.51c2.47-1.71-.37-5.82-.37-5.82l-52.92-30.33a5.26,5.26,0,0,0-4.95,0c-2.44,1.26-81.82,47.25-95.48,55.2l-2,1.14L263,557.12a48.42,48.42,0,0,0-14.17-.58c-6.68,1-15.07,13.7-12.55,14.88s52.65,30.17,52.65,30.17a11.71,11.71,0,0,0,7.08,1c3.6-.8,75.78-21.41,75.78-21.41S465.64,527.23,468.11,525.51Z" transform="translate(-63.59 -45.74)"/><path class="cls-18" d="M448.05,525.79s5.79.55,7.14-.2,3.4-22,2.89-23.39-6.78-10.69-9.65-8.32-6.56,24.31-6.56,24.31Z" transform="translate(-63.59 -45.74)"/><path class="cls-18" d="M420.84,508.64l-7.26-5.47.68-4.2s-2.07-18.18-1.22-19.17,9.23-3.27,10.31.7,5.92,26.58,5.09,28.06S420.84,508.64,420.84,508.64Z" transform="translate(-63.59 -45.74)"/><path class="cls-19" d="M447.22,526.26s5.78.56,7.14-.2,3.4-22,2.88-23.39-6.77-10.69-9.64-8.32S441,518.66,441,518.66Z" transform="translate(-63.59 -45.74)"/><path class="cls-20" d="M420,509.1l-7.27-5.46.69-4.19s-2.07-18.19-1.22-19.17,9.22-3.29,10.31.69,5.9,26.59,5.08,28.06S420,509.1,420,509.1Z" transform="translate(-63.59 -45.74)"/><path class="cls-21" d="M444.36,529.39l-23.75,12.54L402,549.13,372,571.3l-16.87,6.76-28.42-25.63s12.89-9.52,14.88-11,29-18.24,29-18.24l6.42-4s31.71-17.82,33.4-19.79a10.63,10.63,0,0,0,2.15-3.55,64.46,64.46,0,0,0,9.19,4.67c3.82,1.48,5.07,10.08,5.07,10.08l-10.4,4.23-11.63,8.51-12.9,5.81-8.89,8-5.22,2.2,14.69-6.28,10.47-2.74s28.85-10,31.81-12.53,7.55-7.15,7.55-7.15a70.62,70.62,0,0,0,7.78,6.65c3.61,2.52,2.62,9.91,2.62,9.91Z" transform="translate(-63.59 -45.74)"/><path class="cls-22" d="M334.78,544.91s10.7,2.41,15.63,12.68a30.49,30.49,0,0,1,2,20l3.19-.54a36.26,36.26,0,0,0-2.3-20.22,23.82,23.82,0,0,0-14.81-13Z" transform="translate(-63.59 -45.74)"/><path class="cls-23" d="M475.76,524.5,468,520l-.22-.33-10.36-5.94c.59-5.46.95-10.87.7-11.55-.51-1.36-6.78-10.69-9.65-8.32l-.13.15a1.59,1.59,0,0,0-.7.32c-1.3,1.08-2.78,6.23-4,11.5l-16.84-9.65c-1.27-6.55-2.84-13.64-3.41-15.7-1.06-3.9-9.16-1.76-10.25-.75a2.61,2.61,0,0,0-.89.53c-.38.44-.18,4.31.16,8.46a5.19,5.19,0,0,0-2.5.59c-2.44,1.26-81.82,47.25-95.48,55.2l-1.73,1h-3.78c3.71-3.16,8.43-7.35,11.17-11,1.41-2.58,2.42-7.29.35-9s-7.32-1.37-9.95,1.09a6.74,6.74,0,0,0-.66.78c-5.62,2.44-12.85,9.58-15.37,12.17a5.86,5.86,0,0,0-4.63-.16c-1.44.69-1.26,1.57-2.76,3.12s-4.7,3.81-5.4,4.71a16,16,0,0,0-2.35,6.05l-9.46,2.19a26.66,26.66,0,0,0-5.34-.3c0-.34,0-.55,0-.55l-2.62-1.6-1.22,1.79-1.81.11-.5,1.49a41.77,41.77,0,0,0-9.53.07c-6.68,1-15.07,13.7-12.55,14.88l.05,0-2.66.75h0v4.92l59.33,34h0l32.87-9.24v27.35l2,1.16,0-.06,1.79-1.14V600.81l44.67-12.56,61-35.36V566l2,1.15.05,0,1.79-1.15V550.66l36.59-21.23Z" transform="translate(-63.59 -45.74)"/><path class="cls-24" d="M339.72,581.27h0c0-.22,0-.39,0-.5C339.71,580.87,339.72,581,339.72,581.27Zm0,.29c0,.13,0,.25,0,.39,0-.26,0-.49,0-.67,0,.09,0,.19,0,.29Zm.08,1.39c0-.3,0-.58-.06-.83C339.78,582.37,339.8,582.65,339.82,583Zm.18,1.83.19,1.48C340.12,585.73,340.06,585.24,340,584.78Zm-.13-1.3c0,.21,0,.43.06.67C339.91,583.91,339.89,583.69,339.87,583.48Z" transform="translate(-63.59 -45.74)"/><path class="cls-25" d="M293.5,540.58S304,529.27,310.92,527s6.1,6.9,6.1,6.9L302.1,548.1Z" transform="translate(-63.59 -45.74)"/><path class="cls-26" d="M320.27,574.63l15.39,2.22.41,1,7.38.16,5.76-.41.11.23-.66,0-5.72.25-7.36-.14-.08.29c.17-.59.28-.89.27-.93S320.27,574.63,320.27,574.63Zm14.66,5.79h0Z" transform="translate(-63.59 -45.74)"/><path class="cls-27" d="M334.45,582.82c-.68,3.71-4.39,10.63-4.29,10.5s-10.63-3.31-18.3-3.26c-4.89,0-6-.1-9.25-1.39s-9.37-6.44-10.7-7.24-5.86-3.63-5.86-3.63l-4.61-1.88c-1.36-.55-2.76-1.06-4-5s2.12-9,2.12-9-.83-5.52-.48-7.62,1.14-5.22,2.53-7c.7-.9,3.89-3.14,5.4-4.71s1.32-2.43,2.76-3.12c4.93-2.35,12.81,6,12.81,6l-3.11-.29,4.26.31,26.08.07,2.36-.94,2.72-1s7.66,2.12,11.42,6.12a25.15,25.15,0,0,1,6.9,14.83,44.49,44.49,0,0,1-.67,12.7l-9.11.64-7.38-.16-.41-1-15.39-2.22s15.5,2.6,15.5,2.66A44.32,44.32,0,0,0,334.45,582.82Z" transform="translate(-63.59 -45.74)"/><path class="cls-28" d="M291,556.45c-.61-1.15.52-4.38.52-4.38l-9.3,7,.49,1.91a21.26,21.26,0,0,1,5-1.72,35.45,35.45,0,0,0,3.66-.78l5.88.66S291.57,557.58,291,556.45Z" transform="translate(-63.59 -45.74)"/><path class="cls-29" d="M273.66,575.87s10.2-2.43,14.4-.91c.16.06,8.83-5,8.83-5s-2.32.59-2.23-1.8c0-.5.77-2.6,4.18-4.82,2.52-1.63,8.08-4.5,8.08-4.5s-3.58.2-6.63.11c-4.1-.09-8.58-.19-8.88-.44-.48-.38-8.72,2-8.72,2Z" transform="translate(-63.59 -45.74)"/><path class="cls-30" d="M298.51,563.59l-4.32,3.84s-6.14,6.43-8.91,7.4a12.19,12.19,0,0,1-6.13.1s4.4,2.89,7,2.65,16.62-5.51,16.62-5.51-6.9-3-7-4S298.51,563.59,298.51,563.59Z" transform="translate(-63.59 -45.74)"/><path class="cls-31" d="M370.33,576.67l-21.67,1.15-5.72.25-7.36-.14a45.33,45.33,0,0,0-1.13,4.89,29.66,29.66,0,0,1-1.59,5l9.25-.66s5.93.77,8,.52,22.3-5.73,22.3-5.73,8.53.13,10.19-.42,5.86-4.21,5.92-5.51-.42-5.46-2.06-5.81c-.31-.07-2.72,1.71-4.56,2.21a33.58,33.58,0,0,1-3.38.43c-.57.14,3.71-4.63,2.36-5.69-.42-.87-5.41,4-5.41,4Z" transform="translate(-63.59 -45.74)"/><path class="cls-32" d="M298.93,558.91a8.41,8.41,0,0,1,1.29,1.63c.35.71-.37,2-.37,2l6.72-3.61Z" transform="translate(-63.59 -45.74)"/><path class="cls-32" d="M299.26,556.54c.48,0,.91.2.94.56s-.31.7-.8.76a.8.8,0,0,1-.95-.57C298.41,556.93,298.77,556.6,299.26,556.54Z" transform="translate(-63.59 -45.74)"/><path class="cls-32" d="M303.7,556.61a.79.79,0,0,1,.95.56c0,.36-.32.7-.8.75a.8.8,0,0,1-1-.56C302.85,557,303.22,556.66,303.7,556.61Z" transform="translate(-63.59 -45.74)"/><path class="cls-33" d="M269.91,555.55l13.6,4.54a4.51,4.51,0,0,1,3.76,2.84c1,2.66-.9,5.47-.9,5.47s-5.58,5.74-7.18,6.47-11.23,2.77-13.67,2.54-6.25-1.61-7.28-2.71-2.46-3.16-2.72-7.26.55-6,1.78-7.79a13.39,13.39,0,0,1,5.49-4.07C264.76,554.7,269.91,555.55,269.91,555.55Z" transform="translate(-63.59 -45.74)"/><polygon class="cls-34" points="209.69 513.72 208.37 510.15 210.3 510.87 210.72 514.11 209.69 513.72"/><polygon class="cls-34" points="209.65 521.21 210.25 517.16 211.27 517.63 211.21 521.76 209.65 521.21"/><path class="cls-35" d="M260.65,554.87l-1.81.11-1,3s-2.78,1.73-2.71,3.75a74.46,74.46,0,0,1-.8,7.92l2.18,4a6.77,6.77,0,0,0,2.08,3.3c1.49,1.06,7.8,1.44,7.8,1.44l3.41-.82a19.88,19.88,0,0,0,3.33-1.27s-4.89-1.32-4-2.54a3.8,3.8,0,0,1,2.3-1.44l-3-1s-1.95-1.27-3-2-3.38,0-3.38,0a8.41,8.41,0,0,1,1.16-3.82c1.1-1.7,1.31-10.74,1.31-10.74l-2.62-1.6Z" transform="translate(-63.59 -45.74)"/><path class="cls-36" d="M281.2,558.91l1.64,1.79,5.86-4.33,4.17,2.7a5.77,5.77,0,0,0,4.77-.73c2.72-1.57,3.48-2.06,4.1-3.12s.81-3.76,1.81-5.06,11.75-9.33,16.5-15.6c1.41-2.58,2.42-7.29.35-9s-7.32-1.37-9.95,1.09S299,547,299,547l-6.87,3.26Z" transform="translate(-63.59 -45.74)"/><polygon class="cls-9" points="213.77 512.23 213.97 555.75 215.78 554.61 215.78 515.54 264.09 543.24 264.32 584.6 266.1 583.46 266.1 542.23 213.77 512.23"/><polygon class="cls-10" points="211.93 513.42 211.93 554.65 213.94 555.8 213.94 516.74 262.26 544.44 262.26 583.5 264.27 584.65 264.27 543.43 211.93 513.42"/><polygon class="cls-11" points="412.18 478.75 352.84 444.75 251.94 503.28 311.27 537.28 412.18 478.75"/><polygon class="cls-37" points="229.38 565.39 170.06 531.38 170.06 526.44 229.38 560.46 229.38 565.39"/><polygon class="cls-13" points="323.25 462.61 323.45 492.48 325.26 491.33 325.26 465.92 373.57 493.62 373.8 521.32 375.58 520.18 375.58 492.61 323.25 462.61"/><polygon class="cls-14" points="321.41 463.8 321.41 491.37 323.43 492.52 323.43 467.12 371.74 494.82 371.74 520.22 373.75 521.38 373.75 493.81 321.41 463.8"/><polygon class="cls-38" points="412.18 478.75 311.27 537.28 311.27 537.43 229.38 560.45 229.38 565.39 310.78 542.51 412.18 483.69 412.18 478.75"/><polygon class="cls-16" points="311.23 537.47 251.89 503.47 170.04 526.45 229.38 560.45 311.23 537.47"/><polygon class="cls-39" points="412.18 478.75 352.84 444.75 251.94 503.28 311.27 537.28 412.18 478.75"/><path class="cls-40" d="M468.11,525.51c2.47-1.71-.37-5.82-.37-5.82l-52.92-30.33a5.26,5.26,0,0,0-4.95,0c-2.44,1.26-81.82,47.25-95.48,55.2l-2,1.14L263,557.12a48.42,48.42,0,0,0-14.17-.58c-6.68,1-15.07,13.7-12.55,14.88s52.65,30.17,52.65,30.17a11.71,11.71,0,0,0,7.08,1c3.6-.8,75.78-21.41,75.78-21.41S465.64,527.23,468.11,525.51Z" transform="translate(-63.59 -45.74)"/><path class="cls-18" d="M448.05,525.79s5.79.55,7.14-.2,3.4-22,2.89-23.39-6.78-10.69-9.65-8.32-6.56,24.31-6.56,24.31Z" transform="translate(-63.59 -45.74)"/><path class="cls-18" d="M420.84,508.64l-7.26-5.47.68-4.2s-2.07-18.18-1.22-19.17,9.23-3.27,10.31.7,5.92,26.58,5.09,28.06S420.84,508.64,420.84,508.64Z" transform="translate(-63.59 -45.74)"/><path class="cls-41" d="M447.68,526.26s5.78.56,7.13-.2,3.41-22,2.89-23.39-6.77-10.69-9.64-8.32-6.57,24.31-6.57,24.31Z" transform="translate(-63.59 -45.74)"/><path class="cls-41" d="M420.05,508.38l-7.27-5.46.69-4.2s-2.07-18.18-1.22-19.17,9.22-3.28,10.31.7,5.9,26.58,5.08,28.06S420.05,508.38,420.05,508.38Z" transform="translate(-63.59 -45.74)"/><path class="cls-42" d="M444.36,529.39l-23.75,12.54L402,549.13,372,571.3l-16.87,6.76-28.42-25.63s12.89-9.52,14.88-11,29-18.24,29-18.24l6.42-4s31.71-17.82,33.4-19.79a10.63,10.63,0,0,0,2.15-3.55,64.46,64.46,0,0,0,9.19,4.67c3.82,1.48,5.07,10.08,5.07,10.08l-10.4,4.23-11.63,8.51-12.9,5.81-8.89,8-5.22,2.2,14.69-6.28,10.47-2.74s28.85-10,31.81-12.53,7.55-7.15,7.55-7.15a70.62,70.62,0,0,0,7.78,6.65c3.61,2.52,2.62,9.91,2.62,9.91Z" transform="translate(-63.59 -45.74)"/><path class="cls-43" d="M334.78,544.91s10.7,2.41,15.63,12.68a30.49,30.49,0,0,1,2,20l3.19-.54a36.26,36.26,0,0,0-2.3-20.22,23.82,23.82,0,0,0-14.81-13Z" transform="translate(-63.59 -45.74)"/><path class="cls-24" d="M339.72,581.27h0c0-.22,0-.39,0-.5C339.71,580.87,339.72,581,339.72,581.27Zm0,.29c0,.13,0,.25,0,.39,0-.26,0-.49,0-.67,0,.09,0,.19,0,.29Zm.08,1.39c0-.3,0-.58-.06-.83C339.78,582.37,339.8,582.65,339.82,583Zm.18,1.83.19,1.48C340.12,585.73,340.06,585.24,340,584.78Zm-.13-1.3c0,.21,0,.43.06.67C339.91,583.91,339.89,583.69,339.87,583.48Z" transform="translate(-63.59 -45.74)"/><path class="cls-44" d="M293.5,540.58S304,529.27,310.92,527s6.1,6.9,6.1,6.9L302.1,548.1Z" transform="translate(-63.59 -45.74)"/><path class="cls-26" d="M320.27,574.63l15.39,2.22.41,1,7.38.16,5.76-.41.11.23-.66,0-5.72.25-7.36-.14-.08.29c.17-.59.28-.89.27-.93S320.27,574.63,320.27,574.63Zm14.66,5.79h0Z" transform="translate(-63.59 -45.74)"/><path class="cls-45" d="M334.45,582.82c-.68,3.71-4.39,10.63-4.29,10.5s-10.63-3.31-18.3-3.26c-4.89,0-6-.1-9.25-1.39s-9.37-6.44-10.7-7.24-5.86-3.63-5.86-3.63l-4.61-1.88c-1.36-.55-2.76-1.06-4-5s2.12-9,2.12-9-.83-5.52-.48-7.62,1.14-5.22,2.53-7c.7-.9,3.89-3.14,5.4-4.71s1.32-2.43,2.76-3.12c4.93-2.35,12.81,6,12.81,6l-3.11-.29,4.26.31,26.08.07,2.36-.94,2.72-1s7.66,2.12,11.42,6.12a25.15,25.15,0,0,1,6.9,14.83,44.49,44.49,0,0,1-.67,12.7l-9.11.64-7.38-.16-.41-1-15.39-2.22s15.5,2.6,15.5,2.66A44.32,44.32,0,0,0,334.45,582.82Z" transform="translate(-63.59 -45.74)"/><path class="cls-46" d="M291,556.45c-.61-1.15.52-4.38.52-4.38l-9.3,7,.49,1.91a21.26,21.26,0,0,1,5-1.72,35.45,35.45,0,0,0,3.66-.78l5.88.66S291.57,557.58,291,556.45Z" transform="translate(-63.59 -45.74)"/><path class="cls-47" d="M273.66,575.87s10.2-2.43,14.4-.91c.16.06,8.83-5,8.83-5s-2.32.59-2.23-1.8c0-.5.77-2.6,4.18-4.82,2.52-1.63,8.08-4.5,8.08-4.5s-3.58.2-6.63.11c-4.1-.09-8.58-.19-8.88-.44-.48-.38-8.72,2-8.72,2Z" transform="translate(-63.59 -45.74)"/><path class="cls-45" d="M298.51,563.59l-4.32,3.84s-6.14,6.43-8.91,7.4a12.19,12.19,0,0,1-6.13.1s4.4,2.89,7,2.65,16.62-5.51,16.62-5.51-6.9-3-7-4S298.51,563.59,298.51,563.59Z" transform="translate(-63.59 -45.74)"/><path class="cls-47" d="M370.33,576.67l-21.67,1.15-5.72.25-7.36-.14a45.33,45.33,0,0,0-1.13,4.89,29.66,29.66,0,0,1-1.59,5l9.25-.66s5.93.77,8,.52,22.3-5.73,22.3-5.73,8.53.13,10.19-.42,5.86-4.21,5.92-5.51-.42-5.46-2.06-5.81c-.31-.07-2.72,1.71-4.56,2.21a33.58,33.58,0,0,1-3.38.43c-.57.14,3.71-4.63,2.36-5.69-.42-.87-5.41,4-5.41,4Z" transform="translate(-63.59 -45.74)"/><path class="cls-48" d="M298.93,558.91a8.41,8.41,0,0,1,1.29,1.63c.35.71-.37,2-.37,2l6.72-3.61Z" transform="translate(-63.59 -45.74)"/><path class="cls-32" d="M299.26,556.54c.48,0,.91.2.94.56s-.31.7-.8.76a.8.8,0,0,1-.95-.57C298.41,556.93,298.77,556.6,299.26,556.54Z" transform="translate(-63.59 -45.74)"/><path class="cls-47" d="M269.91,555.55l13.6,4.54a4.51,4.51,0,0,1,3.76,2.84c1,2.66-.9,5.47-.9,5.47s-5.58,5.74-7.18,6.47-11.23,2.77-13.67,2.54-6.25-1.61-7.28-2.71-2.46-3.16-2.72-7.26.55-6,1.78-7.79a13.39,13.39,0,0,1,5.49-4.07C264.76,554.7,269.91,555.55,269.91,555.55Z" transform="translate(-63.59 -45.74)"/><polygon class="cls-49" points="209.69 513.72 208.37 510.15 210.3 510.87 210.72 514.11 209.69 513.72"/><polyline class="cls-49" points="211.21 521.76 209.65 521.21 210.25 517.16 211.27 517.63"/><path class="cls-34" d="M260.65,554.87l-1.81.11-1,3s-2.78,1.73-2.71,3.75a74.46,74.46,0,0,1-.8,7.92l2.18,4a6.77,6.77,0,0,0,2.08,3.3c1.49,1.06,7.8,1.44,7.8,1.44l3.41-.82a19.88,19.88,0,0,0,3.33-1.27s-4.89-1.32-4-2.54a3.8,3.8,0,0,1,2.3-1.44l-3-1s-1.95-1.27-3-2-3.38,0-3.38,0a8.41,8.41,0,0,1,1.16-3.82c1.1-1.7,1.31-10.74,1.31-10.74l-2.62-1.6Z" transform="translate(-63.59 -45.74)"/><path class="cls-47" d="M281.2,558.91l1.64,1.79,5.86-4.33,4.17,2.7a5.77,5.77,0,0,0,4.77-.73c2.72-1.57,3.48-2.06,4.1-3.12s.81-3.76,1.81-5.06,11.75-9.33,16.5-15.6c1.41-2.58,2.42-7.29.35-9s-7.32-1.37-9.95,1.09S299,547,299,547l-6.87,3.26Z" transform="translate(-63.59 -45.74)"/><path class="cls-50" d="M193.24,523.91c-1-2.43-5.79-.4-5.79-.4a1.67,1.67,0,0,1,.79.11,59,59,0,0,1-11.67,1.93l-.07-.19-1.66,0a.35.35,0,0,1,0,.07,3,3,0,0,1-1.66-.61c-1-1-2.6-3.55-4.47-7.34,1.1-2.16,2.18-4.44,2.18-4.44l-9.37-12.16-8.47-11.53a46.35,46.35,0,0,0-2.89-3.65l3.67-2.45-5.39-3.4,1.94-1.52-.46-.51-2.1,1.64-6.35-4-10.34,6.9a12,12,0,0,0-2.53-.32c-1.85,0-5.53,2-6.65,2.65-.89.52-2.91,2.22-4.56,3.21a139.39,139.39,0,0,1-6.59-12.52c0-.23,0-.46,0-.69a24.75,24.75,0,0,0-1-3.52c.78-1.64.88-3.52.18-4.5a41.76,41.76,0,0,0-3.92-4.77c-1.13-2.34-2.27-4.24-3.18-4.82a31.88,31.88,0,0,0-5-2.68l.09,0a4.91,4.91,0,0,1-1.92-.92,8.27,8.27,0,0,1-.59-3l.24-.09c.07,0-.08-.42-.33-1-.1-1.34-.16-2.58-.18-3.06,1.2,1.38,2.51,2.78,2.69,2.6a10.25,10.25,0,0,1-2-2.92,9.29,9.29,0,0,0,2.12-.63c1.11-.51,2.52-6.77,2.94-9.45a29.07,29.07,0,0,0-.53-9.92l.63.37s3.08-3.67,1.57-5.89-6.68-6.83-11.85-6.7-8,2.59-10.82,5.91-3.4,5.24-3.41,8.91,1.3,11.91,2.91,15.57A9.24,9.24,0,0,0,81,446.09c.22.22-.67-4-.42-3.75s1.87,5.12,2.26,5.46.62.52,1,.78a2.41,2.41,0,0,0-.77.24c-.88.51-2.91,1.85-3.41,3.52a42.47,42.47,0,0,0-1.75,8.28c-5.47-3.48-10.32-6.85-11.41-4.62,0,0,0,.11,0,.15a1.12,1.12,0,0,0-.5.51c-2.76,5.69,1.74,56,9.88,65.63,1.08,1.28,2.59,3.12,4,4.5.89.86,1.72,1.73,2.56,2.59C85.52,535.79,96.58,542,106,544.76L91,542.12a1.55,1.55,0,0,0-.71-.76,3.89,3.89,0,0,0-3.69,0c-.73.44-.93,1.07-.61,1.62-.32.55-.12,1.19.61,1.63a4,4,0,0,0,3.69,0A1.68,1.68,0,0,0,91,544l23.58,6.62-26,26.61a3.69,3.69,0,0,0-1.86.45c-.73.44-.93,1.08-.61,1.63-.32.55-.12,1.19.61,1.63a4,4,0,0,0,3.69,0c.75-.45.94-1.1.6-1.65a1,1,0,0,0-.11-1.17l27.95-25.7,27.94,25.69a1,1,0,0,0-.15,1.21c-.34.55-.15,1.2.6,1.65a4,4,0,0,0,3.69,0c.73-.44.93-1.08.61-1.63.32-.55.12-1.19-.61-1.63a3.7,3.7,0,0,0-1.78-.45l-26-26.64L146.57,544c0,1.26,0,2.32,0,3.06a2,2,0,0,0,1.24,1.84c0,1.68,0,3-.08,3.51-.33,2.77,0,3-3.14,7a3.55,3.55,0,0,0,.16,4.57,17.26,17.26,0,0,0,1,1.64c.67,1,1.51,5.64,1.51,5.64l2-.07,1.21-4.47s.49-.86,3.84.12,3.61,1.73,6.5,2a7.72,7.72,0,0,0,4.82-1.33c1.5-.87,3.39-2.28,2.81-3.61-.7-1.59-4.24-1.71-4.3-1.72-3.72-1.65-9.3-4.35-9.49-6.5-.09-1,0-4.46.18-8.63,2.32-1.69,4.48-3.76,4.35-4.38-.5-2.29-.93-16-1.08-25.15v-.23c1.48,2.72,2.67,4.82,2.67,4.82a5,5,0,0,0,3.1.81c1.24,1.8,2.27,3.3,2.71,4,1.56,2.37,2,2.29,2,7.45a3.24,3.24,0,0,0,.74,2.09,1.35,1.35,0,0,0,.25.92c.57.73,3.39,1.41,4.51,1.78s4.24,3.84,4.24,3.84l1.58-.92-2.55-3.74a7.28,7.28,0,0,1,4.13-3.37c3.22-1.25,3.77-.61,6.33-1.89a12.59,12.59,0,0,0,4.82-5.32A4.75,4.75,0,0,0,193.24,523.91ZM105.8,486.15c1,1.5,2.16,3.13,3.26,4.7l-5.25,1.69-.12-.4C104.23,490.75,105.07,488.7,105.8,486.15Zm40.6,26.76-.67-.48c.22-.35.45-.68.67-1,0,.44,0,.85,0,1.24A2.53,2.53,0,0,0,146.4,512.91Zm.3,18.09-.19.16c0,3.45,0,7.62.05,11l-23.72,4.2v-1.66A82.87,82.87,0,0,0,146.7,531Zm2.8-2.51-.19.19Zm3.9-5.37a2.25,2.25,0,0,1-.08.24A2.25,2.25,0,0,0,153.4,523.12Zm-.34.87-.14.27Zm-.64,1.11-.06.08Zm-.81,1.08-.23.28Zm-.92,1.07-.3.32Zm-36.42-29.11c.64.75,1.23,1.37,1.64,1.77,0,0,.1.07.15.11l-3.4,2.25c-1.5.42-3.1.94-4.76,1.53-.47-.48-1-.95-1.5-1.42-.33-1.39-.68-2.76-1-4.12,2.07-1.08,4.37-2.32,6.45-3.46C113,496.47,113.91,497.72,114.27,498.14Zm39.07,23.05a3.86,3.86,0,0,1,.12.42A3.86,3.86,0,0,0,153.34,521.19Zm.16.6a2.71,2.71,0,0,1,.05.56A2.71,2.71,0,0,0,153.5,521.79ZM97.36,454.68c-.45.27-1.2.72-2.14,1.23C95.85,455.51,96.56,455.1,97.36,454.68Zm17.43,91.59v.05l-.3-.05Zm2,5.09.1-.1h0Zm4,0-.11-.11h0Z" transform="translate(-63.59 -45.74)"/><path class="cls-38" d="M174,539.14c1.14.37,4.24,3.84,4.24,3.84l1.58-.92-2.55-3.74a7.28,7.28,0,0,1,4.13-3.37c3.22-1.25,3.77-.61,6.33-1.89s7.38-6.89,4.42-9.63-22.67,12.06-22.67,12.06-.55,1.15,0,1.87S172.91,538.77,174,539.14Z" transform="translate(-63.59 -45.74)"/><path class="cls-51" d="M156.11,511.76s8.85,12.77,10.42,15.14,2,2.29,2,7.45c0,3.56,4.82,4.54,7.75,2.58s3.28-2.81,5.53-3.67,7.5,0,9.28-3.43,1.9-5.91.78-6.38a4.38,4.38,0,0,0-3.22.06c-3.85,1-13.6,3.16-15.46,1.35s-5.88-9.28-9.76-19.79Z" transform="translate(-63.59 -45.74)"/><path class="cls-38" d="M174.84,525.4a47.37,47.37,0,0,1,.4,4.91,45.18,45.18,0,0,1-1.06,7.66l3.45-1.74a45.87,45.87,0,0,0,.1-6.14,28.12,28.12,0,0,0-1.23-4.73Z" transform="translate(-63.59 -45.74)"/><path class="cls-38" d="M188.5,532.43a7.85,7.85,0,0,1,.31-2.71c.78-2.29,2.17-5.09.68-5.61-1.56-.75-2-.6-2-.6s4.79-2,5.79.4C194.54,527.57,188.5,532.43,188.5,532.43Z" transform="translate(-63.59 -45.74)"/><path class="cls-52" d="M150.9,578.73a3.47,3.47,0,0,0-1-.36l.15-.09-29.38-27,26-7.3a1.64,1.64,0,0,0,.6.56,4,4,0,0,0,3.69,0,1.18,1.18,0,0,0,0-2.21,4,4,0,0,0-2.75-.37l-.1-.06-29.38,5.33-29.38-5.33-.2.12a4,4,0,0,0-2.6.39,1.19,1.19,0,0,0,0,2.22,4,4,0,0,0,3.69,0A1.68,1.68,0,0,0,91,544l26,7.28-29.38,27,.1.06a3.47,3.47,0,0,0-1,.36,1.19,1.19,0,0,0,0,2.22,4,4,0,0,0,3.69,0,1.19,1.19,0,0,0,0-2.22l-.1-.06,28.54-26.24,28.55,26.25-.16.08a1.19,1.19,0,0,0,0,2.22,4,4,0,0,0,3.69,0A1.19,1.19,0,0,0,150.9,578.73Z" transform="translate(-63.59 -45.74)"/><path class="cls-53" d="M150.9,577.69a3.7,3.7,0,0,0-1.78-.45l-28.4-29.07,26.62-4.7h0a4,4,0,0,0,3.69,0,1.19,1.19,0,0,0,0-2.22,4,4,0,0,0-3.69,0,1.5,1.5,0,0,0-.73.86L118.82,547,91,542.12a1.55,1.55,0,0,0-.71-.76,3.89,3.89,0,0,0-3.69,0,1.18,1.18,0,0,0,0,2.21,4,4,0,0,0,3.69,0l.12-.08,26.47,4.68-28.37,29a3.69,3.69,0,0,0-1.86.45,1.19,1.19,0,0,0,0,2.22,4,4,0,0,0,3.69,0c.86-.51,1-1.29.42-1.89l28-28.68,28,28.67c-.63.6-.51,1.4.37,1.93a4,4,0,0,0,3.69,0A1.19,1.19,0,0,0,150.9,577.69Z" transform="translate(-63.59 -45.74)"/><path class="cls-39" d="M122.84,548.66v-5.9h-8v6h0a2.07,2.07,0,0,0,1.18,1.72,6.07,6.07,0,0,0,5.68,0A2,2,0,0,0,122.84,548.66Z" transform="translate(-63.59 -45.74)"/><path class="cls-54" d="M121.66,541.06c1.57.94,1.57,2.47,0,3.41a6.07,6.07,0,0,1-5.68,0c-1.57-.94-1.57-2.47,0-3.41A6.07,6.07,0,0,1,121.66,541.06Z" transform="translate(-63.59 -45.74)"/><path class="cls-55" d="M120.61,541.6V513.06H117v28.57h0a.91.91,0,0,0,.52.76,2.7,2.7,0,0,0,2.53,0A.9.9,0,0,0,120.61,541.6Z" transform="translate(-63.59 -45.74)"/><path class="cls-38" d="M145.73,565.59c.67,1,1.51,5.64,1.51,5.64l2-.07,1.21-4.47s.49-.86,3.84.12,3.61,1.73,6.5,2,7.21-2,7-5c-5.77.36-23.34-3.91-23.34-3.91s-.14,1.68-.14,2.61A6.53,6.53,0,0,0,145.73,565.59Z" transform="translate(-63.59 -45.74)"/><path class="cls-51" d="M147.15,528.88s.88,20.78.54,23.54,0,3-3.14,7c-2.19,2.78.67,6.39,4,6.6s4.1-.23,6.25.44,5.44,3.56,8.83,2,5.19-3.49,4.67-4.52-1.41-.46-2.57-1c-3.4-1.48-10.89-4.71-11.11-7.21s.58-20.5,1.72-26.41Z" transform="translate(-63.59 -45.74)"/><path class="cls-38" d="M149.49,566s3.48-2.07,4.45-4.07a14.31,14.31,0,0,0,.88-5.35l1.5,1.5s-.08,3.78-.73,5.28a12,12,0,0,1-2,2.92Z" transform="translate(-63.59 -45.74)"/><path class="cls-38" d="M168.39,563.91c-.71-1.6-4.31-1.72-4.31-1.72s1.91.72,2.07,2.09-2.24,4.1-2.24,4.1S169.33,566,168.39,563.91Z" transform="translate(-63.59 -45.74)"/><path class="cls-56" d="M115.37,546.26c-10.19.41-32.19-9.64-33.86-19.25-2-11.37,30.91-24,39-23.68s33.3,12.57,33,19S128.05,545.76,115.37,546.26Z" transform="translate(-63.59 -45.74)"/><path class="cls-48" d="M115.92,544.61c-12.66,1-33.38-8.52-34.63-20s30.91-24,39-23.68,33.31,13.76,33,20.21S128.57,543.65,115.92,544.61Z" transform="translate(-63.59 -45.74)"/><path class="cls-42" d="M87.27,517.06c.21-5-1.19-2,5.76-7.5s19,4.89,19,4.89,33.06-23.31,41.57-22a16.25,16.25,0,0,1,4,3.42c.95,1,1.58,3.65,1.88,4.67.83,2.84-1.53,9.17-1.49,13.65,0,1,0,2.12,0,3.32.15,9.16.58,22.86,1.08,25.15.18.84-3.92,4.4-6.85,6s-5.84.24-5.75-1.61c.13-2.81-.08-10.31,0-15.91,4.15-3.43,6.94-6.69,7-8.81a3.72,3.72,0,0,0-.61-2c-.9-2-3.32-4.26-6.5-6.58,0-.38-.05-.74-.05-1.12s0-.8,0-1.24c-9.28,15.1-19.33,20.6-25.54,24.28-4.36,2.57-10.53,3-15,2.33-9.29-1.29-11.23-4.51-15.79-10.38C87.55,524.37,87.06,522.06,87.27,517.06Z" transform="translate(-63.59 -45.74)"/><path class="cls-42" d="M170.9,513.08l-9.37-12.16-8.47-11.53a39.15,39.15,0,0,0-5.28-6.05c-1.38-1.19-5.44-.78-8.55,1.3C125.59,493.72,98,512,98,512l12.61,4.47S139.44,498,143.2,498.26A8.25,8.25,0,0,1,146,499c3,1.35,7.07,8.38,7.5,9.35,2.21,5,7.2,13.75,7.2,13.75a4.26,4.26,0,0,0,6.16-1.26C168,519.13,170.9,513.08,170.9,513.08Z" transform="translate(-63.59 -45.74)"/><path class="cls-57" d="M102.26,460.16a23.35,23.35,0,0,1-3-2.42,7.21,7.21,0,0,1-1.62-2.23l-1,.64a14.72,14.72,0,0,0,1.74,2.41,9.45,9.45,0,0,0,3.09,2.28Z" transform="translate(-63.59 -45.74)"/><polygon class="cls-58" points="55.61 444.61 67.97 452.41 90.26 437.55 77.89 429.75 55.61 444.61"/><path class="cls-51" d="M98.16,494.43c4.88-1.72,16.55-5.34,18.06-5.89,1.71-.63,4.62-3.17,5.74-3.82s4.8-2.66,6.65-2.65,4.55.72,4.94,1.23-.78,1.43-1.64,1.63-3.36-.14-4.52,1c-1.31,1.31-1.91,2-2.09,2.24s-.65.57.45.81c.79.17,2.9-.33,3.54-.14a1.9,1.9,0,0,1,1.13,1.33s-4.3.68-5.72.79-4.9,0-6.63.58-12.16,6.7-16.83,8.71c-.2.08-.52.26-.93.47Z" transform="translate(-63.59 -45.74)"/><path class="cls-45" d="M78.32,469.64c1.58,7.4,6.81,19.73,7.46,24.64s-.52,8.43-1.3,13.83c-.65,4.55-.54,6.82.3,10.11s4.12,7.2,6.89,9.83,7.49,5.28,13.45,1.83,14.33-16.11,1.21-27.57c-1.33-1.17-3.62-6.07-3.2-8.52.17-1,1.63-3.87,2.77-8,.45-1.61,3.72-6.25,4.19-7.2a7.45,7.45,0,0,0,.71-3.9c-.13-1.51-5.12-15.8-8-17.61a32.46,32.46,0,0,0-5.06-2.7s-6,3.82-9.77,4.35c-4.68.66-1.67-10.28-1.67-10.28s-2.48-.17-3.36.34-2.91,1.85-3.41,3.52C78.37,456.38,76.75,462.3,78.32,469.64Z" transform="translate(-63.59 -45.74)"/><path class="cls-51" d="M79.29,430.64c-.47-2-1.94-8.25,6.55-11.85s11.69,1.17,13.5,4.15c1.85,4.14,1.94,10.28,1.51,12.95s-1.83,8.94-2.94,9.45a10,10,0,0,1-2.78.74c0,.16.26,6.79.87,7.39a4.91,4.91,0,0,0,1.92.92c-7.7,3.84-7.31,7.3-11.88,5.45s-1.59-8.92-1.52-9.11c1.5-3.79.84-8.44.48-10.35C82.91,437.42,79.66,432.21,79.29,430.64Z" transform="translate(-63.59 -45.74)"/><path class="cls-34" d="M95.65,450.39c.22-.08-1.75-4.08-2.63-6.58.17.19,4.47,5.41,4.81,5.08-2.79-2.6-4.72-9.67-3.62-11.85s3.1-3.62,3.08-7.41,2.26-4.12,2.26-4.12l1.4.83s3.08-3.67,1.57-5.89-6.68-6.83-11.85-6.7-8,2.59-10.82,5.91-3.4,5.24-3.41,8.91,1.3,11.91,2.91,15.57A9.24,9.24,0,0,0,81,446.09c.22.22-.67-4-.42-3.75s1.87,5.12,2.26,5.46c2.09,1.79,4.65,3.57,6.36,3.77A16.31,16.31,0,0,0,95.65,450.39Z" transform="translate(-63.59 -45.74)"/><path class="cls-59" d="M110.14,540.68c-1.09,1-2.33.51-4.42.08a19.84,19.84,0,0,1-3.06-.94c-6.66-2.58-15.5-9-21.65-15-1.42-1.39-2.71-2.75-3.79-4-8.13-9.67-13.56-59.13-10.8-64.82,1.27-2.61,7.69,2.45,14.23,6.37s10.52,4.95,14.71,9.6C103.12,480.59,115.47,536,110.14,540.68Z" transform="translate(-63.59 -45.74)"/><path class="cls-51" d="M121,490.38l-1.71.71s-7.31-12.25-8.86-16.81c-.6-1.77-1.51-6.29-2.09-7.84a12.61,12.61,0,0,0-4.42-5.35c-1-.77-2.45-.15-3.21,1.3-1.19,2.25-3.28,5.12-3.31,7.06-.07,3.2,4.46,10.88,4.46,10.88s11,16.08,12.46,17.81c.64.75,1.23,1.37,1.64,1.77.73.7,2.5.46,3.17.13a24.83,24.83,0,0,1,3-1.33c1.84-.61,15.9-9.29,15.9-9.29.6-.32,2,.18,3.43-.06s6.77-1.75,7.42-2.36c2.46-2.3-1.78-6.74-5.8-6.06-3,1.08-2.69,1.26-4,2.54a17,17,0,0,0-2.2,3.17S123.81,489.25,121,490.38Z" transform="translate(-63.59 -45.74)"/><path class="cls-48" d="M109.12,541.56c-1.09,1-2.79,1.11-4.88.68a19.23,19.23,0,0,1-3.13-.65,55.18,55.18,0,0,1-12-6.15c-3.78-2.66-6.26-5.69-9.3-8.65-1.43-1.38-2.94-3.22-4-4.5-8.14-9.67-12.64-59.94-9.88-65.63,1.27-2.62,6.76,3.27,13.3,7.19s10.85,4.28,15,8.94C102,481.4,114.44,536.93,109.12,541.56Z" transform="translate(-63.59 -45.74)"/><path class="cls-45" d="M99.18,476.58c1.68,1.5,5.87-1,8.77-3.08,2.26-1.63,3.09-5.29,2-6.8-2-2.74-4.87-6.4-6.75-6.69C96.33,460.29,95.2,473.26,99.18,476.58Z" transform="translate(-63.59 -45.74)"/><polygon class="cls-60" points="81.1 437.09 86.81 432.63 86.35 432.12 80.23 436.89 81.1 437.09"/><path class="cls-61" d="M198.6,372.8l-3.23,1.87a3.77,3.77,0,0,0-1.57,3v6.23c0,1.17.7,1.72,1.57,1.22l.09-.06v10c0,1.17.71,1.72,1.57,1.22a3.8,3.8,0,0,0,1.57-3v-10a3.79,3.79,0,0,0,1.56-3V374c0-1.17-.7-1.72-1.56-1.22m-1.62-.13a3.77,3.77,0,0,0,1.57-3c0-1.18-.7-1.72-1.57-1.22a3.8,3.8,0,0,0-1.57,3c0,1.17.71,1.71,1.57,1.21" transform="translate(-63.59 -45.74)"/><path class="cls-61" d="M180.35,394.44l-3.23,1.87a3.79,3.79,0,0,0-1.57,3v6.23c0,1.18.7,1.72,1.57,1.22l.1-.06v9.95c0,1.17.7,1.72,1.56,1.22a3.77,3.77,0,0,0,1.57-3v-10a3.79,3.79,0,0,0,1.56-3v-6.24c0-1.17-.7-1.72-1.56-1.22m-1.62-.12a3.79,3.79,0,0,0,1.57-3c0-1.17-.7-1.72-1.57-1.22a3.81,3.81,0,0,0-1.56,3c0,1.17.7,1.72,1.56,1.22" transform="translate(-63.59 -45.74)"/><path class="cls-61" d="M161.35,389.84l-3.23,1.87a3.78,3.78,0,0,0-1.57,3V401c0,1.17.71,1.71,1.57,1.22l.1-.06v9.95c0,1.17.7,1.72,1.56,1.22a3.79,3.79,0,0,0,1.57-3v-9.95a3.77,3.77,0,0,0,1.57-3v-6.23c0-1.17-.7-1.72-1.57-1.22m-1.61-.13a3.79,3.79,0,0,0,1.56-3c0-1.18-.7-1.72-1.56-1.22a3.77,3.77,0,0,0-1.57,3c0,1.18.7,1.72,1.57,1.22" transform="translate(-63.59 -45.74)"/><path class="cls-61" d="M172.29,388.78l-3.23,1.87a3.77,3.77,0,0,0-1.56,3v6.23c0,1.18.7,1.72,1.56,1.23l.1-.06V411c0,1.17.7,1.72,1.57,1.22a3.81,3.81,0,0,0,1.56-3v-9.95a3.79,3.79,0,0,0,1.57-3V390c0-1.17-.7-1.72-1.57-1.22m-1.61-.13a3.77,3.77,0,0,0,1.56-3c0-1.18-.7-1.72-1.56-1.22a3.77,3.77,0,0,0-1.57,3c0,1.18.7,1.72,1.57,1.22" transform="translate(-63.59 -45.74)"/><path class="cls-61" d="M208,352.42l-3.23,1.87a3.77,3.77,0,0,0-1.57,3v6.24c0,1.17.7,1.72,1.57,1.22l.1-.06v10c0,1.17.7,1.72,1.56,1.22a3.79,3.79,0,0,0,1.57-3v-10a3.8,3.8,0,0,0,1.57-3v-6.24c0-1.17-.71-1.72-1.57-1.22m-1.62-.13a3.77,3.77,0,0,0,1.57-3c0-1.17-.7-1.72-1.57-1.22a3.81,3.81,0,0,0-1.56,3c0,1.17.7,1.71,1.56,1.21" transform="translate(-63.59 -45.74)"/><path class="cls-61" d="M215.46,367.33l-3.23,1.86a3.79,3.79,0,0,0-1.57,3v6.24c0,1.17.7,1.71,1.57,1.21l.1-.05v9.95c0,1.17.7,1.71,1.56,1.22a3.79,3.79,0,0,0,1.57-3v-9.95a3.82,3.82,0,0,0,1.57-3v-6.23c0-1.17-.71-1.72-1.57-1.22m-1.62-.13a3.77,3.77,0,0,0,1.57-3c0-1.17-.7-1.71-1.57-1.22a3.81,3.81,0,0,0-1.56,3c0,1.17.7,1.72,1.56,1.22" transform="translate(-63.59 -45.74)"/><path class="cls-61" d="M229.53,360.29l-3.23,1.86a3.79,3.79,0,0,0-1.57,3v6.23c0,1.17.7,1.72,1.57,1.22l.09-.05v9.95c0,1.17.7,1.71,1.57,1.21a3.8,3.8,0,0,0,1.57-3v-10a3.81,3.81,0,0,0,1.56-3V361.5c0-1.17-.7-1.71-1.56-1.21m-1.62-.13a3.8,3.8,0,0,0,1.57-3c0-1.17-.71-1.72-1.57-1.22a3.82,3.82,0,0,0-1.57,3c0,1.17.71,1.72,1.57,1.22" transform="translate(-63.59 -45.74)"/><path class="cls-61" d="M153.89,376.55l-3.23,1.87a3.8,3.8,0,0,0-1.57,3v6.24c0,1.17.71,1.72,1.57,1.22l.1-.06v10c0,1.17.7,1.72,1.56,1.22a3.79,3.79,0,0,0,1.57-3V387a3.77,3.77,0,0,0,1.57-3v-6.24c0-1.17-.7-1.72-1.57-1.22m-1.61-.13a3.79,3.79,0,0,0,1.56-3c0-1.18-.7-1.72-1.56-1.22a3.77,3.77,0,0,0-1.57,3c0,1.17.7,1.72,1.57,1.21" transform="translate(-63.59 -45.74)"/><path class="cls-61" d="M167.57,365.83l-3.23,1.86a3.77,3.77,0,0,0-1.57,3V377c0,1.18.7,1.72,1.57,1.22l.09-.06v10c0,1.17.7,1.71,1.57,1.21a3.77,3.77,0,0,0,1.57-3v-10a3.77,3.77,0,0,0,1.56-3V367c0-1.17-.7-1.71-1.56-1.21M166,365.7a3.79,3.79,0,0,0,1.57-3c0-1.17-.7-1.72-1.57-1.21a3.77,3.77,0,0,0-1.56,3c0,1.17.7,1.72,1.56,1.22" transform="translate(-63.59 -45.74)"/><path class="cls-61" d="M171.21,337.63,168,339.5a3.77,3.77,0,0,0-1.57,3v6.24c0,1.17.7,1.72,1.57,1.22l.1-.06v9.95c0,1.17.7,1.72,1.56,1.22a3.79,3.79,0,0,0,1.57-3v-9.95a3.79,3.79,0,0,0,1.56-3v-6.24c0-1.17-.7-1.72-1.56-1.22m-1.62-.12a3.79,3.79,0,0,0,1.57-3c0-1.17-.7-1.72-1.57-1.22a3.81,3.81,0,0,0-1.56,3c0,1.17.7,1.72,1.56,1.22" transform="translate(-63.59 -45.74)"/><path class="cls-61" d="M209.23,320.53,206,322.39a3.79,3.79,0,0,0-1.56,3v6.23c0,1.17.7,1.72,1.56,1.22l.1-.06v9.95c0,1.17.7,1.72,1.57,1.22a3.79,3.79,0,0,0,1.56-3V331a3.78,3.78,0,0,0,1.57-3v-6.24c0-1.17-.71-1.71-1.57-1.21m-1.61-.13a3.81,3.81,0,0,0,1.56-3c0-1.17-.7-1.72-1.56-1.22a3.79,3.79,0,0,0-1.57,3c0,1.17.7,1.72,1.57,1.22" transform="translate(-63.59 -45.74)"/><path class="cls-61" d="M190.16,393l-3.23,1.86a3.77,3.77,0,0,0-1.57,3v6.23c0,1.18.7,1.72,1.57,1.22l.1-.05v9.94c0,1.18.7,1.72,1.56,1.22a3.77,3.77,0,0,0,1.57-3v-9.94a3.81,3.81,0,0,0,1.56-3v-6.24c0-1.17-.7-1.71-1.56-1.21m-1.62-.13a3.79,3.79,0,0,0,1.57-3c0-1.17-.7-1.72-1.57-1.22a3.81,3.81,0,0,0-1.56,3c0,1.17.7,1.72,1.56,1.22" transform="translate(-63.59 -45.74)"/><path class="cls-62" d="M179.14,355.2l-3.23,1.87a3.79,3.79,0,0,0-1.56,3v6.24c0,1.17.7,1.72,1.56,1.22l.1-.06v9.95c0,1.17.7,1.72,1.57,1.22a3.81,3.81,0,0,0,1.56-3v-9.95a3.8,3.8,0,0,0,1.57-3v-6.23c0-1.17-.71-1.72-1.57-1.22m-1.61-.12a3.81,3.81,0,0,0,1.56-3c0-1.17-.7-1.72-1.56-1.22a3.77,3.77,0,0,0-1.57,3c0,1.18.7,1.72,1.57,1.23" transform="translate(-63.59 -45.74)"/><path class="cls-62" d="M189.2,329.48,186,331.34a3.82,3.82,0,0,0-1.57,3v6.23c0,1.18.71,1.72,1.57,1.22l.1-.05v10c0,1.16.7,1.71,1.57,1.21a3.79,3.79,0,0,0,1.56-3V340a3.82,3.82,0,0,0,1.57-3v-6.24c0-1.17-.71-1.71-1.57-1.21m-1.61-.13a3.81,3.81,0,0,0,1.56-3c0-1.17-.7-1.72-1.56-1.22a3.79,3.79,0,0,0-1.57,3c0,1.17.7,1.72,1.57,1.22" transform="translate(-63.59 -45.74)"/><path class="cls-62" d="M198.26,339.83,195,341.69a3.81,3.81,0,0,0-1.56,3V351c0,1.18.7,1.72,1.56,1.22l.1-.05v9.95c0,1.17.7,1.71,1.57,1.22a3.81,3.81,0,0,0,1.56-3v-9.95a3.79,3.79,0,0,0,1.57-3v-6.23c0-1.18-.7-1.72-1.57-1.22m-1.61-.13a3.77,3.77,0,0,0,1.57-3c0-1.17-.7-1.71-1.57-1.21a3.77,3.77,0,0,0-1.57,3c0,1.17.7,1.72,1.57,1.22" transform="translate(-63.59 -45.74)"/><path class="cls-62" d="M190.44,361.09,187.21,363a3.79,3.79,0,0,0-1.57,3v6.23c0,1.18.7,1.72,1.57,1.22l.1-.05v9.95c0,1.17.7,1.72,1.56,1.22a3.79,3.79,0,0,0,1.57-3v-9.95a3.81,3.81,0,0,0,1.56-3v-6.23c0-1.17-.7-1.72-1.56-1.22m-1.62-.13a3.77,3.77,0,0,0,1.57-3c0-1.18-.7-1.72-1.57-1.22a3.79,3.79,0,0,0-1.56,3c0,1.17.7,1.72,1.56,1.22" transform="translate(-63.59 -45.74)"/><path class="cls-61" d="M218.29,330.47l-3.22,1.87a3.77,3.77,0,0,0-1.57,3v6.24c0,1.17.7,1.72,1.57,1.22l.09-.06v9.95c0,1.17.7,1.72,1.57,1.22a3.81,3.81,0,0,0,1.56-3V341a3.77,3.77,0,0,0,1.57-3v-6.24c0-1.17-.7-1.71-1.57-1.22m-1.61-.12a3.81,3.81,0,0,0,1.56-3c0-1.17-.7-1.72-1.56-1.22a3.77,3.77,0,0,0-1.57,3c0,1.17.7,1.71,1.57,1.22" transform="translate(-63.59 -45.74)"/><path class="cls-61" d="M221.83,354.32l-3.23,1.86a3.77,3.77,0,0,0-1.57,3v6.23c0,1.17.7,1.72,1.57,1.22l.09-.06v9.95c0,1.17.71,1.72,1.57,1.22a3.8,3.8,0,0,0,1.57-3v-9.95a3.79,3.79,0,0,0,1.56-3v-6.24c0-1.17-.7-1.71-1.56-1.21m-1.62-.13a3.79,3.79,0,0,0,1.57-3c0-1.17-.7-1.72-1.57-1.22a3.79,3.79,0,0,0-1.56,3c0,1.17.7,1.72,1.56,1.22" transform="translate(-63.59 -45.74)"/><path class="cls-61" d="M233.21,325.39,230,327.26a3.79,3.79,0,0,0-1.57,3v6.23c0,1.17.7,1.72,1.57,1.22l.1-.06v9.95c0,1.18.7,1.72,1.56,1.22a3.77,3.77,0,0,0,1.57-3v-9.95a3.77,3.77,0,0,0,1.56-3v-6.24c0-1.17-.7-1.71-1.56-1.22m-1.62-.12a3.79,3.79,0,0,0,1.57-3c0-1.17-.7-1.72-1.57-1.22a3.81,3.81,0,0,0-1.56,3c0,1.17.7,1.72,1.56,1.22" transform="translate(-63.59 -45.74)"/><path class="cls-61" d="M226.24,301.91,223,303.77a3.79,3.79,0,0,0-1.57,3V313c0,1.18.7,1.72,1.57,1.22l.09-.06v9.95c0,1.18.71,1.72,1.57,1.22a3.77,3.77,0,0,0,1.57-3v-9.95a3.81,3.81,0,0,0,1.56-3v-6.24c0-1.17-.7-1.71-1.56-1.21m-1.62-.13a3.79,3.79,0,0,0,1.57-3c0-1.17-.7-1.72-1.57-1.22a3.81,3.81,0,0,0-1.56,3c0,1.17.7,1.72,1.56,1.22" transform="translate(-63.59 -45.74)"/><path class="cls-63" d="M625,133.51l-6.37-3.68s-.07,0-.07,0v3.87a.11.11,0,0,0,.07.11l4.38,2.53a.3.3,0,0,1,.17.28v1.14c0,.12-.05.14-.17.07l-4.38-2.52s-.07,0-.07,0v5.34c0,.12-.06.15-.18.08l-1.37-.79a.31.31,0,0,1-.18-.28V127.48c0-.12.06-.15.18-.08l8,4.61a.33.33,0,0,1,.18.29v1.13C625.22,133.55,625.16,133.58,625,133.51Z" transform="translate(-63.59 -45.74)"/><path class="cls-63" d="M628.77,146.39A8.86,8.86,0,0,1,627.2,144a6.56,6.56,0,0,1-.56-2.58V137.1a2.9,2.9,0,0,1,.56-1.93,1.86,1.86,0,0,1,1.57-.61,5.31,5.31,0,0,1,2.32.8,9.34,9.34,0,0,1,2.34,1.89,9.2,9.2,0,0,1,1.57,2.42,6.48,6.48,0,0,1,.56,2.57v4.29a2.92,2.92,0,0,1-.56,1.93,1.85,1.85,0,0,1-1.57.62,5.36,5.36,0,0,1-2.34-.81A9.81,9.81,0,0,1,628.77,146.39Zm4.3.77c.51-.21.76-.73.76-1.56v-4.37a4.57,4.57,0,0,0-.76-2.47,5.55,5.55,0,0,0-2-1.9,2.21,2.21,0,0,0-2-.38c-.5.23-.75.76-.75,1.6v4.37a4.49,4.49,0,0,0,.75,2.43,5.58,5.58,0,0,0,2,1.89A2.27,2.27,0,0,0,633.07,147.16Z" transform="translate(-63.59 -45.74)"/><path class="cls-63" d="M645.17,156.11l-2.52-6.84a.2.2,0,0,0-.08-.1L640,147.68c-.05,0-.07,0-.07,0V153c0,.12-.06.14-.18.07l-1.37-.79a.31.31,0,0,1-.18-.28V139.78c0-.12.06-.15.18-.08l4.84,2.8a7.34,7.34,0,0,1,1.9,1.55,7.07,7.07,0,0,1,1.27,2,5.43,5.43,0,0,1,.45,2.13,2.08,2.08,0,0,1-.65,1.75,2,2,0,0,1-1.83.13c-.05,0-.06,0,0,.07l2.61,6.9a.22.22,0,0,1,0,.11c0,.08,0,.09-.14,0l-1.43-.82A.45.45,0,0,1,645.17,156.11Zm-5.26-14v4a.13.13,0,0,0,.07.11l3,1.74a1.81,1.81,0,0,0,1.53.31c.38-.15.58-.55.58-1.17a3.44,3.44,0,0,0-.58-1.86,4.29,4.29,0,0,0-1.53-1.46l-3-1.74C639.93,142.11,639.91,142.12,639.91,142.16Z" transform="translate(-63.59 -45.74)"/><path class="cls-63" d="M657.59,150.8l1.37.79a.35.35,0,0,1,.18.29v12.24c0,.12-.07.14-.18.07l-1.37-.79a.31.31,0,0,1-.18-.28V153.9a.18.18,0,0,0,0-.09s0,0,0,0l-2.58,2.43c0,.05-.12,0-.21,0l-.69-.4a.59.59,0,0,1-.21-.23L651,150.22s0-.06-.06-.06,0,0,0,.05v9.18c0,.12-.05.14-.17.07l-1.37-.79a.3.3,0,0,1-.18-.28V146.15c0-.12.06-.15.18-.08l1.37.79a.61.61,0,0,1,.21.24l3.15,6.53a.12.12,0,0,0,0,.05s.05,0,.06,0l3.13-2.9A.2.2,0,0,1,657.59,150.8Z" transform="translate(-63.59 -45.74)"/><path class="cls-63" d="M617.49,379.07a8.78,8.78,0,0,1-1.55-2.35,6.34,6.34,0,0,1-.55-2.49v-4.66a2.71,2.71,0,0,1,.55-1.84,1.85,1.85,0,0,1,1.55-.54,5.41,5.41,0,0,1,2.3.81,9.83,9.83,0,0,1,2.28,1.81,8.54,8.54,0,0,1,1.54,2.29,5.73,5.73,0,0,1,.55,2.4v0c0,.06,0,.1,0,.11a.13.13,0,0,1-.13,0l-1.37-.71a.31.31,0,0,1-.18-.27v-.05a4.13,4.13,0,0,0-.72-2.27,5.59,5.59,0,0,0-1.92-1.82,2.35,2.35,0,0,0-1.94-.41c-.48.19-.73.66-.73,1.43v4.79a4.15,4.15,0,0,0,.73,2.27,5.56,5.56,0,0,0,1.94,1.82,2.27,2.27,0,0,0,1.92.41q.72-.29.72-1.44v0q0-.16.18-.06l1.37.86a.33.33,0,0,1,.18.29,2.53,2.53,0,0,1-.55,1.78,1.81,1.81,0,0,1-1.54.52,5.47,5.47,0,0,1-2.28-.81A9.8,9.8,0,0,1,617.49,379.07Z" transform="translate(-63.59 -45.74)"/><path class="cls-63" d="M628.44,385.36a8.63,8.63,0,0,1-1.56-2.42,6.56,6.56,0,0,1-.56-2.58v-4.29a2.88,2.88,0,0,1,.56-1.92,1.81,1.81,0,0,1,1.56-.61,5.22,5.22,0,0,1,2.33.8,9.71,9.71,0,0,1,2.34,1.89,8.77,8.77,0,0,1,1.56,2.42,6.48,6.48,0,0,1,.56,2.57v4.28a3,3,0,0,1-.56,1.94,1.84,1.84,0,0,1-1.56.62,5.19,5.19,0,0,1-2.34-.82A9.39,9.39,0,0,1,628.44,385.36Zm4.31.78q.75-.33.75-1.56V380.2a4.59,4.59,0,0,0-.75-2.46,5.74,5.74,0,0,0-2-1.91,2.23,2.23,0,0,0-2-.37q-.75.33-.75,1.59v4.38a4.49,4.49,0,0,0,.75,2.43,5.49,5.49,0,0,0,2,1.89A2.29,2.29,0,0,0,632.75,386.14Z" transform="translate(-63.59 -45.74)"/><path class="cls-63" d="M637.86,391V378.76c0-.12.06-.15.18-.08l1.37.79a.31.31,0,0,1,.18.28v10.86a.12.12,0,0,0,.07.11l6.21,3.59a.31.31,0,0,1,.18.28v1.14c0,.12-.06.14-.18.07L638,391.28A.31.31,0,0,1,637.86,391Z" transform="translate(-63.59 -45.74)"/><path class="cls-63" d="M649.81,397.7a9.09,9.09,0,0,1-1.57-2.43,6.47,6.47,0,0,1-.55-2.58v-4.28a2.9,2.9,0,0,1,.55-1.93,1.9,1.9,0,0,1,1.57-.61,5.31,5.31,0,0,1,2.32.8,9.61,9.61,0,0,1,2.34,1.9A8.76,8.76,0,0,1,656,391a6.48,6.48,0,0,1,.56,2.57v4.29a2.92,2.92,0,0,1-.56,1.93,1.83,1.83,0,0,1-1.57.62,5.36,5.36,0,0,1-2.34-.81A9.57,9.57,0,0,1,649.81,397.7Zm4.3.77c.51-.21.76-.73.76-1.56v-4.37a4.52,4.52,0,0,0-.76-2.46,5.57,5.57,0,0,0-2-1.91,2.23,2.23,0,0,0-2-.38c-.5.23-.75.76-.75,1.6v4.37a4.49,4.49,0,0,0,.75,2.43,5.78,5.78,0,0,0,2,1.9A2.26,2.26,0,0,0,654.11,398.47Z" transform="translate(-63.59 -45.74)"/><path class="cls-63" d="M666.21,407.42l-2.52-6.84a.16.16,0,0,0-.07-.09L661,399s-.07,0-.07,0v5.31c0,.12-.06.15-.18.08l-1.37-.79a.33.33,0,0,1-.18-.29V391.09c0-.12.06-.14.18-.07l4.85,2.79a7.46,7.46,0,0,1,1.89,1.55,7.07,7.07,0,0,1,1.27,2,5.47,5.47,0,0,1,.45,2.13,2.1,2.1,0,0,1-.65,1.76,2,2,0,0,1-1.83.12s-.06,0,0,.07l2.61,6.91a.16.16,0,0,1,0,.1c0,.08-.05.1-.14,0l-1.42-.82A.42.42,0,0,1,666.21,407.42ZM661,393.48v4a.14.14,0,0,0,.07.11l3,1.74a1.81,1.81,0,0,0,1.53.31c.38-.15.58-.54.58-1.17a3.5,3.5,0,0,0-.58-1.86,4.29,4.29,0,0,0-1.53-1.46l-3-1.73S661,393.43,661,393.48Z" transform="translate(-63.59 -45.74)"/><path class="cls-63" d="M622.63,605.71l1.37.79a.33.33,0,0,1,.18.29V619c0,.12-.06.14-.18.07l-1.37-.79a.31.31,0,0,1-.18-.28v-9.22a.16.16,0,0,0,0-.09s0,0-.06,0l-2.57,2.44c0,.05-.12,0-.22,0l-.68-.4a.55.55,0,0,1-.22-.23l-2.59-5.39s0-.06-.06-.06,0,0,0,0v9.18c0,.12-.06.14-.18.07l-1.37-.79a.31.31,0,0,1-.18-.28V601.06c0-.12.06-.15.18-.08l1.37.79a.54.54,0,0,1,.21.24l3.16,6.53a.08.08,0,0,0,.05.05s0,0,0,0l3.14-2.9A.18.18,0,0,1,622.63,605.71Z" transform="translate(-63.59 -45.74)"/><path class="cls-63" d="M628.91,621.56a8.92,8.92,0,0,1-1.56-2.42,6.39,6.39,0,0,1-.56-2.58v-4.29a2.87,2.87,0,0,1,.56-1.93,1.83,1.83,0,0,1,1.56-.6,5.1,5.1,0,0,1,2.33.8,9.71,9.71,0,0,1,2.34,1.89,8.72,8.72,0,0,1,1.56,2.41,6.53,6.53,0,0,1,.56,2.58v4.28a3,3,0,0,1-.56,1.94,1.81,1.81,0,0,1-1.56.61,5.16,5.16,0,0,1-2.34-.81A9.39,9.39,0,0,1,628.91,621.56Zm4.31.78c.5-.22.75-.74.75-1.57V616.4a4.59,4.59,0,0,0-.75-2.46,5.74,5.74,0,0,0-2-1.91,2.21,2.21,0,0,0-2-.37c-.49.22-.74.75-.74,1.59v4.38a4.56,4.56,0,0,0,.74,2.42,5.55,5.55,0,0,0,2,1.9A2.29,2.29,0,0,0,633.22,622.34Z" transform="translate(-63.59 -45.74)"/><path class="cls-63" d="M646.35,619.59v1.15c0,.12-.06.15-.18.08l-3.45-2c-.05,0-.07,0-.07,0v10.84c0,.12-.06.14-.18.07L641.1,629a.3.3,0,0,1-.18-.28V617.86a.15.15,0,0,0-.07-.12l-3.3-1.9a.31.31,0,0,1-.18-.28V614.4c0-.12.06-.14.18-.07l8.62,5A.34.34,0,0,1,646.35,619.59Z" transform="translate(-63.59 -45.74)"/><path class="cls-63" d="M648.5,633.07V620.83c0-.12.06-.15.18-.08l1.37.79a.32.32,0,0,1,.17.28v12.24c0,.12-.06.15-.17.08l-1.37-.79A.31.31,0,0,1,648.5,633.07Z" transform="translate(-63.59 -45.74)"/><path class="cls-63" d="M655,636.6a8.86,8.86,0,0,1-1.57-2.43,6.56,6.56,0,0,1-.56-2.58v-4.28a2.9,2.9,0,0,1,.56-1.93,1.86,1.86,0,0,1,1.57-.61,5.35,5.35,0,0,1,2.32.8,9.81,9.81,0,0,1,2.34,1.89,9.2,9.2,0,0,1,1.57,2.42,6.46,6.46,0,0,1,.55,2.57v4.29a2.92,2.92,0,0,1-.55,1.93,1.85,1.85,0,0,1-1.57.62,5.36,5.36,0,0,1-2.34-.81A9.39,9.39,0,0,1,655,636.6Zm4.3.77c.5-.21.76-.73.76-1.56v-4.37a4.6,4.6,0,0,0-.76-2.46,5.49,5.49,0,0,0-2-1.91,2.24,2.24,0,0,0-2-.38c-.5.23-.75.76-.75,1.6v4.37a4.49,4.49,0,0,0,.75,2.43,5.69,5.69,0,0,0,2,1.9A2.26,2.26,0,0,0,659.26,637.37Z" transform="translate(-63.59 -45.74)"/><path class="cls-63" d="M672,634.2l1.37.79a.31.31,0,0,1,.18.28v12.24c0,.12-.06.15-.18.08l-1.32-.76a.6.6,0,0,1-.21-.25l-5.64-12.45a.1.1,0,0,0,0-.08s0,0,0,0l0,9.14c0,.12-.06.15-.18.08l-1.37-.79a.33.33,0,0,1-.18-.29V630c0-.12.06-.14.18-.07l1.34.77a.54.54,0,0,1,.21.25l5.62,12.44a.1.1,0,0,0,0,.07s0,0,0,0l0-9.14C671.79,634.15,671.85,634.13,672,634.2Z" transform="translate(-63.59 -45.74)"/><path class="cls-63" d="M601.15,834.45a8,8,0,0,1-1.56-2.13,4.78,4.78,0,0,1-.55-2.17v-.52c0-.12.06-.14.18-.07l1.31.75a.33.33,0,0,1,.18.29V831a3.33,3.33,0,0,0,.79,2,7.19,7.19,0,0,0,2.18,1.85,2.86,2.86,0,0,0,1.87.56c.42-.11.63-.44.63-1a2.41,2.41,0,0,0-.32-1.15,7.44,7.44,0,0,0-1-1.27c-.41-.46-1-1.08-1.81-1.85S601.54,828.6,601,828a8.91,8.91,0,0,1-1.26-1.83,4.18,4.18,0,0,1-.51-2c0-1,.37-1.63,1.11-1.79a4.53,4.53,0,0,1,3,.85,11,11,0,0,1,2.34,1.8,8.26,8.26,0,0,1,1.55,2.16,4.92,4.92,0,0,1,.55,2.19v.36c0,.12-.06.14-.18.07l-1.35-.77a.33.33,0,0,1-.18-.29v-.27a3.54,3.54,0,0,0-.74-2,6.47,6.47,0,0,0-2.07-1.81,2.85,2.85,0,0,0-1.72-.54c-.41.07-.62.4-.62,1a2.39,2.39,0,0,0,.31,1.15,6.12,6.12,0,0,0,.91,1.2c.4.43,1,1,1.84,1.83s1.55,1.54,2.07,2.12a9.41,9.41,0,0,1,1.32,1.88,4.28,4.28,0,0,1,.52,2c0,1.06-.39,1.67-1.16,1.84a4.83,4.83,0,0,1-3.2-.92A11.47,11.47,0,0,1,601.15,834.45Z" transform="translate(-63.59 -45.74)"/><path class="cls-63" d="M617.12,831.8a7.16,7.16,0,0,1,1.29,2,5.46,5.46,0,0,1,.46,2.17,2.37,2.37,0,0,1-.47,1.62,1.53,1.53,0,0,1-1.32.49,4.5,4.5,0,0,1-2-.68l-3.17-1.83c-.05,0-.07,0-.07,0v5.11c0,.12-.06.15-.18.08l-1.37-.79a.33.33,0,0,1-.18-.29V827.49c0-.12.06-.14.18-.07l4.86,2.8A8,8,0,0,1,617.12,831.8Zm-.58,4.46c.4-.16.6-.57.6-1.21a3.59,3.59,0,0,0-.6-1.94,4.48,4.48,0,0,0-1.59-1.53l-3-1.73c-.05,0-.07,0-.07,0v4.21a.12.12,0,0,0,.07.11l3,1.74A1.84,1.84,0,0,0,616.54,836.26Z" transform="translate(-63.59 -45.74)"/><path class="cls-63" d="M627.73,849.94l-.65-2.48a.13.13,0,0,0-.07-.09L622,844.45s-.06,0-.07,0l-.65,1.73c0,.07-.11.08-.21,0l-1.46-.84c-.14-.08-.18-.17-.15-.28l3.94-10c0-.07.11-.08.22,0l1.8,1a.52.52,0,0,1,.22.27l4,14.56,0,.08c0,.08-.05.09-.16,0l-1.48-.85A.48.48,0,0,1,627.73,849.94Zm-5.39-6.67.06.07,4.14,2.39h.06s0,0,0-.06l-2.09-7.88a.1.1,0,0,0,0-.07,0,0,0,0,0-.05,0l-2.09,5.48A0,0,0,0,0,622.34,843.27Z" transform="translate(-63.59 -45.74)"/><path class="cls-63" d="M638.53,843.9v1.15c0,.12-.06.15-.18.08l-3.46-2s-.07,0-.07,0V854c0,.12-.06.15-.18.08l-1.37-.79a.33.33,0,0,1-.18-.29V842.17a.13.13,0,0,0-.07-.12l-3.29-1.9a.31.31,0,0,1-.18-.28v-1.16c0-.12.06-.14.18-.07l8.62,5A.31.31,0,0,1,638.53,843.9Z" transform="translate(-63.59 -45.74)"/><path class="cls-63" d="M640.67,857.38V845.14c0-.12.06-.15.18-.08l1.37.79a.31.31,0,0,1,.18.28v12.24c0,.12-.06.15-.18.08l-1.37-.79A.31.31,0,0,1,640.67,857.38Z" transform="translate(-63.59 -45.74)"/><path class="cls-63" d="M652.78,864.41l-.64-2.48a.16.16,0,0,0-.08-.1l-5-2.92s-.06,0-.08,0l-.64,1.74c0,.07-.11.08-.22,0l-1.46-.84c-.13-.07-.18-.17-.14-.28l3.94-10c0-.08.11-.08.22,0l1.8,1a.44.44,0,0,1,.21.27l4,14.55,0,.09c0,.08-.06.09-.16,0l-1.48-.85A.52.52,0,0,1,652.78,864.41Zm-5.39-6.67a.13.13,0,0,0,.07.06l4.14,2.39a0,0,0,0,0,.06,0s0,0,0-.06l-2.09-7.88a.18.18,0,0,0-.05-.07s0,0-.06,0l-2.09,5.47S647.38,857.71,647.39,857.74Z" transform="translate(-63.59 -45.74)"/><path class="cls-63" d="M656.69,866.63V854.39c0-.12.06-.15.18-.08l1.37.79a.31.31,0,0,1,.18.28v10.86a.12.12,0,0,0,.07.11l6.21,3.59a.31.31,0,0,1,.18.28v1.13c0,.12-.06.15-.18.08l-7.83-4.52A.31.31,0,0,1,656.69,866.63Z" transform="translate(-63.59 -45.74)"/><path class="cls-63" d="M601.42,856.13a8.78,8.78,0,0,1-1.55-2.35,6.34,6.34,0,0,1-.55-2.49v-4.61a2.75,2.75,0,0,1,.55-1.86,1.79,1.79,0,0,1,1.55-.55,5.41,5.41,0,0,1,2.3.81A9.62,9.62,0,0,1,606,846.9a8.54,8.54,0,0,1,1.54,2.29,5.53,5.53,0,0,1,.55,2.32v.2c0,.12-.06.14-.18.07l-1.37-.79a.31.31,0,0,1-.18-.28v-.16a3.89,3.89,0,0,0-.73-2.18,5.63,5.63,0,0,0-1.91-1.78,2.4,2.4,0,0,0-1.94-.42c-.48.19-.73.68-.73,1.46v4.71a4.1,4.1,0,0,0,.76,2.31,5.86,5.86,0,0,0,2,1.85,2.5,2.5,0,0,0,1.88.46c.46-.15.69-.58.69-1.3v-1.39a.13.13,0,0,0-.07-.11l-2.43-1.4a.33.33,0,0,1-.18-.29v-1.11c0-.12.06-.15.18-.08l4,2.34a.31.31,0,0,1,.18.28v2.29c0,1.38-.39,2.21-1.18,2.5s-1.85,0-3.19-.72A9.8,9.8,0,0,1,601.42,856.13Z" transform="translate(-63.59 -45.74)"/><path class="cls-63" d="M617.68,865.76l-2.51-6.84a.18.18,0,0,0-.08-.09l-2.59-1.5s-.07,0-.07,0v5.31c0,.12-.06.15-.18.08l-1.37-.79a.33.33,0,0,1-.18-.29V849.43c0-.12.06-.14.18-.07l4.84,2.79a7.73,7.73,0,0,1,1.9,1.55,7.21,7.21,0,0,1,1.27,2,5.51,5.51,0,0,1,.45,2.13,2.07,2.07,0,0,1-.66,1.76,1.93,1.93,0,0,1-1.82.12c-.05,0-.06,0,0,.07l2.61,6.91a.3.3,0,0,1,0,.1c0,.08-.05.1-.14,0l-1.43-.82A.44.44,0,0,1,617.68,865.76Zm-5.25-13.94v4a.11.11,0,0,0,.07.11l3,1.74A1.77,1.77,0,0,0,617,858q.57-.22.57-1.17A3.48,3.48,0,0,0,617,855a4.55,4.55,0,0,0-1.53-1.46l-3-1.73S612.43,851.77,612.43,851.82Z" transform="translate(-63.59 -45.74)"/><path class="cls-63" d="M623.52,868.88a8.63,8.63,0,0,1-1.57-2.43,6.56,6.56,0,0,1-.56-2.58v-4.28a2.89,2.89,0,0,1,.56-1.93,1.82,1.82,0,0,1,1.57-.61,5.22,5.22,0,0,1,2.32.8,9.34,9.34,0,0,1,2.34,1.89,8.77,8.77,0,0,1,1.56,2.42,6.31,6.31,0,0,1,.56,2.57V869a2.88,2.88,0,0,1-.56,1.94,1.84,1.84,0,0,1-1.56.62,5.36,5.36,0,0,1-2.34-.81A9.62,9.62,0,0,1,623.52,868.88Zm4.3.77q.75-.31.75-1.56v-4.38a4.59,4.59,0,0,0-.75-2.46,5.83,5.83,0,0,0-2-1.91,2.23,2.23,0,0,0-2-.37q-.75.33-.75,1.59v4.38a4.49,4.49,0,0,0,.75,2.43,5.49,5.49,0,0,0,2,1.89A2.29,2.29,0,0,0,627.82,869.65Z" transform="translate(-63.59 -45.74)"/><path class="cls-63" d="M634.92,875.47a8.49,8.49,0,0,1-1.56-2.36,6.15,6.15,0,0,1-.56-2.49V862.2c0-.12.06-.15.18-.08l1.37.79a.31.31,0,0,1,.18.28v8.46a4.2,4.2,0,0,0,.75,2.32,5.66,5.66,0,0,0,2,1.85,2.28,2.28,0,0,0,1.95.4c.49-.19.73-.68.73-1.46V866.3c0-.12.06-.14.18-.08l1.37.79a.33.33,0,0,1,.18.29v8.42a2.69,2.69,0,0,1-.55,1.85,1.77,1.77,0,0,1-1.54.57,5.56,5.56,0,0,1-2.32-.82A10.16,10.16,0,0,1,634.92,875.47Z" transform="translate(-63.59 -45.74)"/><path class="cls-63" d="M651.34,873.16a7.42,7.42,0,0,1,1.29,2,5.5,5.5,0,0,1,.46,2.17,2.43,2.43,0,0,1-.47,1.62,1.54,1.54,0,0,1-1.32.5,4.53,4.53,0,0,1-2-.69L646.16,877s-.07,0-.07,0v5.12c0,.12-.06.14-.18.07l-1.37-.79a.31.31,0,0,1-.18-.28V868.85c0-.12.06-.15.18-.08l4.86,2.81A7.77,7.77,0,0,1,651.34,873.16Zm-.58,4.46c.4-.16.6-.57.6-1.22a3.59,3.59,0,0,0-.6-1.94,4.54,4.54,0,0,0-1.59-1.52l-3-1.74s-.07,0-.07,0v4.22a.13.13,0,0,0,.07.11l3,1.73A1.89,1.89,0,0,0,650.76,877.62Z" transform="translate(-63.59 -45.74)"/><path class="cls-63" d="M655.14,887.33V875.09c0-.12.06-.14.18-.07l1.37.79a.31.31,0,0,1,.18.28v12.24c0,.12-.06.15-.18.08l-1.37-.79A.33.33,0,0,1,655.14,887.33Z" transform="translate(-63.59 -45.74)"/><path class="cls-63" d="M667.42,882l1.37.79a.31.31,0,0,1,.18.28v12.24c0,.12-.06.15-.18.08l-1.32-.76a.6.6,0,0,1-.21-.25l-5.64-12.45a.12.12,0,0,0,0-.08s0,0,0,0l0,9.13c0,.12-.06.15-.18.08l-1.37-.79a.33.33,0,0,1-.18-.29V877.79c0-.12.06-.14.18-.07l1.33.77a.55.55,0,0,1,.22.25l5.62,12.44s0,.07.05.07,0,0,0,0l0-9.13C667.24,882,667.3,881.93,667.42,882Z" transform="translate(-63.59 -45.74)"/><path class="cls-63" d="M673.69,897.85a8.4,8.4,0,0,1-1.55-2.35,6.3,6.3,0,0,1-.55-2.49v-4.6a2.75,2.75,0,0,1,.55-1.86,1.79,1.79,0,0,1,1.55-.56,5.41,5.41,0,0,1,2.3.81,9.66,9.66,0,0,1,2.28,1.83,8.57,8.57,0,0,1,1.54,2.28,5.53,5.53,0,0,1,.55,2.32v.2c0,.12-.06.15-.18.08l-1.37-.79a.33.33,0,0,1-.18-.29v-.16a3.86,3.86,0,0,0-.73-2.17,5.66,5.66,0,0,0-1.91-1.79,2.35,2.35,0,0,0-1.94-.41c-.49.19-.73.67-.73,1.45v4.72a4.1,4.1,0,0,0,.76,2.31,5.84,5.84,0,0,0,2,1.84,2.45,2.45,0,0,0,1.88.46c.46-.14.69-.58.69-1.3V896a.13.13,0,0,0-.07-.12l-2.43-1.4a.31.31,0,0,1-.18-.28v-1.12c0-.12.06-.14.18-.08l4,2.34a.33.33,0,0,1,.18.29v2.28c0,1.38-.39,2.22-1.18,2.51s-1.85.05-3.19-.73A9.55,9.55,0,0,1,673.69,897.85Z" transform="translate(-63.59 -45.74)"/><path class="cls-63" d="M482.45,491.38a2.08,2.08,0,0,1-1.81-.66,3.22,3.22,0,0,1-.64-2.16v-5.44a7.22,7.22,0,0,1,.64-2.88,10.16,10.16,0,0,1,1.81-2.72,10.94,10.94,0,0,1,2.68-2.14,6.35,6.35,0,0,1,2.66-1,2.1,2.1,0,0,1,1.8.59,2.94,2.94,0,0,1,.64,2.06v0a.35.35,0,0,1-.07.21.67.67,0,0,1-.14.15l-1.6,1c-.14.08-.21.06-.21-.07v-.06c0-.9-.28-1.45-.84-1.68a2.68,2.68,0,0,0-2.24.48,6.49,6.49,0,0,0-2.26,2.12,4.83,4.83,0,0,0-.85,2.66v5.58c0,.9.28,1.46.85,1.68a2.78,2.78,0,0,0,2.26-.49,6.51,6.51,0,0,0,2.24-2.12,4.83,4.83,0,0,0,.84-2.64v-.05a.36.36,0,0,1,.21-.31l1.6-.83q.21-.12.21.09a6.94,6.94,0,0,1-.64,2.81,10.06,10.06,0,0,1-1.8,2.69,11.75,11.75,0,0,1-2.66,2.13A6.4,6.4,0,0,1,482.45,491.38Z" transform="translate(-63.59 -45.74)"/><path class="cls-63" d="M502.05,465.77l1.6-.92q.21-.12.21.09v14.28a.37.37,0,0,1-.21.33l-1.6.92q-.21.12-.21-.09v-6.23c0-.06,0-.07-.08,0l-6,3.46a.14.14,0,0,0-.08.13v6.24a.37.37,0,0,1-.21.33l-1.6.92q-.21.12-.21-.09V470.82a.37.37,0,0,1,.21-.33l1.6-.92q.21-.12.21.09v6.13c0,.06,0,.07.08,0l6-3.45a.16.16,0,0,0,.08-.13V466.1A.37.37,0,0,1,502.05,465.77Z" transform="translate(-63.59 -45.74)"/><path class="cls-63" d="M516.54,471.94l-.76-2s0,0-.08,0l-5.9,3.41a.18.18,0,0,0-.08.11l-.76,2.9a.55.55,0,0,1-.25.31l-1.7,1c-.16.09-.21.05-.17-.13l4.6-17a.51.51,0,0,1,.25-.31l2.1-1.21c.13-.08.21-.07.25,0l4.64,11.62,0,.07a.31.31,0,0,1-.18.26l-1.73,1C516.67,472,516.58,472,516.54,471.94Zm-6.29-.52a.06.06,0,0,0,.07,0l4.83-2.79a.18.18,0,0,0,.08-.07.08.08,0,0,0,0-.08l-2.44-6.38s0,0-.06,0a.12.12,0,0,0-.06.08l-2.44,9.2S510.23,471.41,510.25,471.42Z" transform="translate(-63.59 -45.74)"/><path class="cls-63" d="M530.48,449.36l1.6-.92c.14-.08.21-.06.21.08V462.8a.38.38,0,0,1-.21.34l-1.53.88a.2.2,0,0,1-.25,0l-6.58-6.94s0,0-.06,0a.1.1,0,0,0,0,.09l0,10.64a.37.37,0,0,1-.21.33l-1.6.92q-.21.12-.21-.09V454.68a.37.37,0,0,1,.21-.33l1.56-.89a.2.2,0,0,1,.25,0l6.55,6.94s0,0,.06,0a.11.11,0,0,0,0-.1l0-10.63A.39.39,0,0,1,530.48,449.36Z" transform="translate(-63.59 -45.74)"/><path class="cls-63" d="M544.91,441l1.6-.92c.14-.08.21-.05.21.08v14.29a.38.38,0,0,1-.21.33l-1.54.88a.2.2,0,0,1-.25,0l-6.57-6.94s0,0-.06,0a.11.11,0,0,0,0,.1l0,10.63a.37.37,0,0,1-.21.33l-1.6.92q-.21.12-.21-.09V446.35a.37.37,0,0,1,.21-.33l1.55-.89a.21.21,0,0,1,.26,0l6.55,6.95s0,0,.06,0a.11.11,0,0,0,0-.1l0-10.63A.37.37,0,0,1,544.91,441Z" transform="translate(-63.59 -45.74)"/><path class="cls-63" d="M560,434l-7.45,4.31a.14.14,0,0,0-.09.13V443c0,.06,0,.07.09,0l5.12-3q.21-.12.21.09v1.32a.37.37,0,0,1-.21.33l-5.12,3a.15.15,0,0,0-.09.13v4.62c0,.06,0,.07.09,0l7.45-4.3c.14-.09.21-.06.21.08v1.33a.37.37,0,0,1-.21.33l-9.34,5.39c-.14.08-.21.05-.21-.08V438a.38.38,0,0,1,.21-.34L560,432.3q.21-.12.21.09v1.32A.37.37,0,0,1,560,434Z" transform="translate(-63.59 -45.74)"/><path class="cls-63" d="M563.56,444.75V430.47a.37.37,0,0,1,.21-.33l1.6-.92q.21-.12.21.09V442c0,.06,0,.07.08,0l7.25-4.19q.21-.12.21.09v1.32a.38.38,0,0,1-.21.34l-9.14,5.27Q563.56,445,563.56,444.75Z" transform="translate(-63.59 -45.74)"/><path class="cls-63" d="M577.79,436.41A2.19,2.19,0,0,1,576,436a2.25,2.25,0,0,1-.64-1.79v-.61a.39.39,0,0,1,.21-.34l1.53-.88q.21-.12.21.09v.5a1.07,1.07,0,0,0,.93,1.23,4.14,4.14,0,0,0,2.54-.77,6.84,6.84,0,0,0,2.18-1.87,3.5,3.5,0,0,0,.74-2,1,1,0,0,0-.38-.9,1.91,1.91,0,0,0-1.1-.21,17.93,17.93,0,0,0-2.11.28,16.51,16.51,0,0,1-2.43.33,2.24,2.24,0,0,1-1.48-.41,2,2,0,0,1-.59-1.65,6.05,6.05,0,0,1,1.29-3.58,11.17,11.17,0,0,1,3.5-3.05,8,8,0,0,1,2.73-1.05,2.21,2.21,0,0,1,1.82.42,2.37,2.37,0,0,1,.64,1.82V422a.37.37,0,0,1-.21.33l-1.58.91q-.21.12-.21-.09v-.31a1.18,1.18,0,0,0-.87-1.32,3.48,3.48,0,0,0-2.4.67,6.65,6.65,0,0,0-2,1.69,3.22,3.22,0,0,0-.71,2,1.07,1.07,0,0,0,.35.93,1.66,1.66,0,0,0,1.06.17,19.84,19.84,0,0,0,2.16-.35,19.12,19.12,0,0,1,2.41-.31,2.24,2.24,0,0,1,1.53.42,1.92,1.92,0,0,1,.61,1.65,6.3,6.3,0,0,1-1.35,3.71,11.81,11.81,0,0,1-3.73,3.24A8.41,8.41,0,0,1,577.79,436.41Z" transform="translate(-63.59 -45.74)"/><path class="cls-63" d="M150,278.8l-8.5,4.9a.18.18,0,0,0-.09.15V289c0,.07,0,.08.09,0l5.83-3.36c.16-.1.24-.06.24.1v1.51a.42.42,0,0,1-.24.38l-5.83,3.37a.16.16,0,0,0-.09.15v7.13a.41.41,0,0,1-.24.37l-1.83,1.06c-.16.09-.24.06-.24-.1V283.34a.42.42,0,0,1,.24-.38L150,276.8c.16-.09.24-.05.24.11v1.51A.42.42,0,0,1,150,278.8Z" transform="translate(-63.59 -45.74)"/><path class="cls-63" d="M164.78,270.26l-8.52,4.92a.18.18,0,0,0-.09.15v5.16c0,.07,0,.08.09,0l5.86-3.38c.16-.09.24-.06.24.1v1.51a.42.42,0,0,1-.24.38l-5.86,3.38a.18.18,0,0,0-.09.16V288c0,.06,0,.07.09,0l8.52-4.92c.16-.1.24-.06.24.1v1.51a.42.42,0,0,1-.24.38l-10.68,6.17c-.16.09-.24.05-.24-.11V274.81a.41.41,0,0,1,.24-.37l10.68-6.17c.16-.09.24-.06.24.1v1.51A.42.42,0,0,1,164.78,270.26Z" transform="translate(-63.59 -45.74)"/><path class="cls-63" d="M179.33,276.48l-.87-2.31s-.05,0-.09,0l-6.75,3.9a.18.18,0,0,0-.09.13l-.87,3.3a.58.58,0,0,1-.29.36L168.43,283c-.18.11-.24.05-.19-.15l5.25-19.38a.68.68,0,0,1,.29-.36l2.4-1.38c.15-.09.24-.08.29,0l5.3,13.29,0,.08a.34.34,0,0,1-.22.29l-2,1.14C179.47,276.59,179.37,276.58,179.33,276.48Zm-7.19-.59a.08.08,0,0,0,.08,0l5.52-3.19.09-.08a.1.1,0,0,0,0-.09l-2.79-7.3a0,0,0,0,0-.07,0,.22.22,0,0,0-.07.09l-2.78,10.51C172.11,275.86,172.11,275.88,172.14,275.89Z" transform="translate(-63.59 -45.74)"/><path class="cls-63" d="M194.93,251.11v1.53a.41.41,0,0,1-.25.38l-4.6,2.66a.17.17,0,0,0-.1.15v14.45a.42.42,0,0,1-.24.38l-1.82,1c-.16.09-.24.06-.24-.1V257.16c0-.06,0-.07-.1,0l-4.39,2.54c-.16.09-.24.06-.24-.1V258a.42.42,0,0,1,.24-.38L194.68,251C194.85,250.91,194.93,251,194.93,251.11Z" transform="translate(-63.59 -45.74)"/><path class="cls-63" d="M201.63,263.3a2.41,2.41,0,0,1-2.07-.74,3.59,3.59,0,0,1-.75-2.47V248.86a.43.43,0,0,1,.24-.38l1.83-1c.16-.09.24-.06.24.1v11.28q0,1.56,1,1.95a3.16,3.16,0,0,0,2.61-.55,7.51,7.51,0,0,0,2.59-2.45,5.62,5.62,0,0,0,1-3.09V243.39a.42.42,0,0,1,.24-.38l1.83-1c.16-.1.24-.06.24.1v11.23a8.45,8.45,0,0,1-.73,3.32,11.35,11.35,0,0,1-2.07,3.13,13,13,0,0,1-3.08,2.47A7.43,7.43,0,0,1,201.63,263.3Z" transform="translate(-63.59 -45.74)"/><path class="cls-63" d="M224.88,250.21,221.52,245s-.05-.05-.1,0L218,247a.16.16,0,0,0-.1.15v7.08a.42.42,0,0,1-.24.38l-1.82,1.05c-.17.09-.24.06-.24-.1V239.19a.4.4,0,0,1,.24-.38l6.45-3.73a5.58,5.58,0,0,1,2.53-.86,2,2,0,0,1,1.7.71,3.29,3.29,0,0,1,.6,2.14,7.2,7.2,0,0,1-.88,3.35,9.71,9.71,0,0,1-2.44,3c-.06.07-.08.12-.05.15l3.49,5.19a.27.27,0,0,1,0,.11.33.33,0,0,1-.19.28l-1.9,1.09C225,250.3,224.93,250.29,224.88,250.21Zm-7-10.5v5.37c0,.07,0,.08.1,0l4-2.31a5.81,5.81,0,0,0,2-1.93,4.44,4.44,0,0,0,.77-2.45c0-.85-.25-1.38-.77-1.6a2.39,2.39,0,0,0-2,.41l-4,2.32A.15.15,0,0,0,217.87,239.71Z" transform="translate(-63.59 -45.74)"/><path class="cls-63" d="M242.4,225.45l-8.52,4.92a.17.17,0,0,0-.1.15v5.16c0,.06,0,.08.1,0l5.85-3.38c.16-.09.24-.06.24.1V234a.42.42,0,0,1-.24.38l-5.85,3.38a.17.17,0,0,0-.1.15v5.29c0,.06,0,.07.1,0l8.52-4.92c.16-.1.24-.06.24.1v1.51a.42.42,0,0,1-.24.38l-10.68,6.16c-.16.1-.24.06-.24-.1V230a.43.43,0,0,1,.24-.38l10.68-6.16c.16-.09.24-.06.24.1v1.51A.42.42,0,0,1,242.4,225.45Z" transform="translate(-63.59 -45.74)"/><path class="cls-63" d="M127.16,319.38a2,2,0,0,1,1.73.72,3.38,3.38,0,0,1,.61,2.19,7.29,7.29,0,0,1-.62,2.88,9.79,9.79,0,0,1-1.77,2.69,10.74,10.74,0,0,1-2.62,2.12l-4.23,2.44a.18.18,0,0,0-.09.15v6.82a.43.43,0,0,1-.24.38l-1.83,1.05c-.16.09-.24.06-.24-.1V324.37a.41.41,0,0,1,.24-.37l6.48-3.75A5.7,5.7,0,0,1,127.16,319.38Zm-.77,6.84a4.68,4.68,0,0,0,.81-2.56c0-.88-.27-1.43-.81-1.66a2.47,2.47,0,0,0-2.12.43l-4,2.31a.18.18,0,0,0-.09.15v5.62c0,.06,0,.08.09,0l4-2.32A6,6,0,0,0,126.39,326.22Z" transform="translate(-63.59 -45.74)"/><path class="cls-63" d="M142.75,326.42l-3.36-5.23s0-.05-.1,0l-3.45,2a.17.17,0,0,0-.1.16v7.08a.41.41,0,0,1-.24.37l-1.82,1.06c-.16.09-.24.06-.24-.1V315.41a.42.42,0,0,1,.24-.38l6.45-3.73a5.65,5.65,0,0,1,2.54-.86,2,2,0,0,1,1.69.7,3.34,3.34,0,0,1,.6,2.15,7.08,7.08,0,0,1-.88,3.35,9.79,9.79,0,0,1-2.43,3c-.07.07-.08.12-.05.15l3.48,5.19a.25.25,0,0,1,0,.1.31.31,0,0,1-.19.28l-1.9,1.1C142.89,326.51,142.8,326.51,142.75,326.42Zm-7-10.5v5.38c0,.06,0,.08.1,0l4-2.31a6,6,0,0,0,2-1.94,4.48,4.48,0,0,0,.76-2.45c0-.84-.25-1.37-.76-1.59a2.34,2.34,0,0,0-2,.41l-4,2.31A.17.17,0,0,0,135.74,315.92Z" transform="translate(-63.59 -45.74)"/><path class="cls-63" d="M151.73,320.9a2.42,2.42,0,0,1-2.09-.82,3.89,3.89,0,0,1-.75-2.58v-5.71a8.54,8.54,0,0,1,.75-3.43,11.66,11.66,0,0,1,2.09-3.23,12.47,12.47,0,0,1,3.09-2.5,6.93,6.93,0,0,1,3.12-1.08,2.45,2.45,0,0,1,2.09.81,3.83,3.83,0,0,1,.74,2.57v5.71a8.6,8.6,0,0,1-.74,3.44,11.6,11.6,0,0,1-2.09,3.23,12.6,12.6,0,0,1-3.12,2.53A6.93,6.93,0,0,1,151.73,320.9Zm5.73-5.59a6,6,0,0,0,1-3.24v-5.84c0-1.12-.34-1.82-1-2.12a3,3,0,0,0-2.64.51,7.44,7.44,0,0,0-2.63,2.54,6.11,6.11,0,0,0-1,3.27v5.83c0,1.11.33,1.8,1,2.09a3,3,0,0,0,2.63-.51A7.44,7.44,0,0,0,157.46,315.31Z" transform="translate(-63.59 -45.74)"/><path class="cls-63" d="M167.82,311.65a2.4,2.4,0,0,1-2.07-.75,3.71,3.71,0,0,1-.73-2.47v-6.22a8.24,8.24,0,0,1,.73-3.29,11.4,11.4,0,0,1,2.07-3.11,12.74,12.74,0,0,1,3.06-2.45,7.42,7.42,0,0,1,3.05-1.1,2.42,2.42,0,0,1,2,.67,3.34,3.34,0,0,1,.73,2.36v0a.39.39,0,0,1-.07.23.55.55,0,0,1-.17.17l-1.82,1.15c-.16.09-.24.07-.24-.08v-.07q0-1.53-1-1.92a3.09,3.09,0,0,0-2.57.55,7.52,7.52,0,0,0-2.58,2.43,5.46,5.46,0,0,0-1,3v6.38c0,1,.32,1.66,1,1.91a3.1,3.1,0,0,0,2.58-.55,7.47,7.47,0,0,0,2.57-2.42,5.52,5.52,0,0,0,1-3v0a.42.42,0,0,1,.24-.36l1.82-.95c.16-.1.24-.06.24.1a7.83,7.83,0,0,1-.73,3.22,11.48,11.48,0,0,1-2,3.06,12.94,12.94,0,0,1-3.05,2.44A7.34,7.34,0,0,1,167.82,311.65Z" transform="translate(-63.59 -45.74)"/><path class="cls-63" d="M192.17,283.25l-8.52,4.92a.17.17,0,0,0-.1.15v5.16c0,.07,0,.08.1,0l5.85-3.38c.16-.09.24-.06.24.1v1.51a.42.42,0,0,1-.24.38l-5.85,3.38a.17.17,0,0,0-.1.16V301c0,.06,0,.07.1,0l8.52-4.92c.16-.1.24-.06.24.1v1.51a.42.42,0,0,1-.24.38l-10.68,6.17c-.16.09-.24,0-.24-.11V287.8a.41.41,0,0,1,.24-.37l10.68-6.17c.16-.09.24-.06.24.1v1.51A.42.42,0,0,1,192.17,283.25Z" transform="translate(-63.59 -45.74)"/><path class="cls-63" d="M198.78,293.86a2.49,2.49,0,0,1-2.09-.43,2.56,2.56,0,0,1-.73-2.05v-.69a.42.42,0,0,1,.24-.38l1.75-1c.16-.1.24-.06.24.1V290a1.23,1.23,0,0,0,1.06,1.41,4.75,4.75,0,0,0,2.9-.88,7.92,7.92,0,0,0,2.5-2.14,4,4,0,0,0,.84-2.31,1.11,1.11,0,0,0-.44-1,2.12,2.12,0,0,0-1.26-.25,17.61,17.61,0,0,0-2.41.33,19.18,19.18,0,0,1-2.77.37,2.51,2.51,0,0,1-1.69-.47,2.23,2.23,0,0,1-.68-1.88,6.93,6.93,0,0,1,1.48-4.09,12.69,12.69,0,0,1,4-3.49,8.81,8.81,0,0,1,3.12-1.2,2.49,2.49,0,0,1,2.07.48,2.66,2.66,0,0,1,.73,2.08v.48a.41.41,0,0,1-.24.37l-1.79,1c-.17.1-.24.06-.24-.1v-.36a1.35,1.35,0,0,0-1-1.5,4,4,0,0,0-2.75.76,7.5,7.5,0,0,0-2.3,1.94,3.65,3.65,0,0,0-.82,2.24,1.19,1.19,0,0,0,.41,1.06,1.93,1.93,0,0,0,1.21.2c.54-.05,1.36-.18,2.46-.4a20.94,20.94,0,0,1,2.76-.36,2.61,2.61,0,0,1,1.75.48,2.2,2.2,0,0,1,.7,1.89,7.2,7.2,0,0,1-1.55,4.24,13.39,13.39,0,0,1-4.26,3.69A9.48,9.48,0,0,1,198.78,293.86Z" transform="translate(-63.59 -45.74)"/><path class="cls-63" d="M214.09,285a2.49,2.49,0,0,1-2.09-.43,2.56,2.56,0,0,1-.73-2v-.69a.42.42,0,0,1,.24-.38l1.75-1c.16-.1.24-.06.24.1v.57a1.23,1.23,0,0,0,1.06,1.41,4.75,4.75,0,0,0,2.9-.88,7.7,7.7,0,0,0,2.5-2.14,4,4,0,0,0,.84-2.31,1.13,1.13,0,0,0-.43-1,2.18,2.18,0,0,0-1.27-.25,17.61,17.61,0,0,0-2.41.33,19.18,19.18,0,0,1-2.77.37,2.53,2.53,0,0,1-1.69-.47,2.23,2.23,0,0,1-.67-1.88,7,7,0,0,1,1.47-4.1,12.79,12.79,0,0,1,4-3.48,8.81,8.81,0,0,1,3.12-1.2,2.45,2.45,0,0,1,2.07.48,2.66,2.66,0,0,1,.74,2.08v.48a.41.41,0,0,1-.24.37l-1.8,1c-.16.1-.24.06-.24-.1v-.36a1.34,1.34,0,0,0-1-1.5,4,4,0,0,0-2.75.76,7.5,7.5,0,0,0-2.3,1.94,3.65,3.65,0,0,0-.82,2.24,1.19,1.19,0,0,0,.41,1.06,2,2,0,0,0,1.21.2c.54-.05,1.36-.18,2.46-.4a20.94,20.94,0,0,1,2.76-.36,2.61,2.61,0,0,1,1.75.48,2.2,2.2,0,0,1,.7,1.89,7.14,7.14,0,0,1-1.55,4.24,13.39,13.39,0,0,1-4.26,3.69A9.48,9.48,0,0,1,214.09,285Z" transform="translate(-63.59 -45.74)"/><path class="cls-63" d="M227.42,277.46V261.15a.41.41,0,0,1,.24-.38l1.82-1.06c.16-.09.24-.06.24.11v16.31a.42.42,0,0,1-.24.38l-1.82,1.06C227.5,277.66,227.42,277.62,227.42,277.46Z" transform="translate(-63.59 -45.74)"/><path class="cls-63" d="M245,250.76l1.82-1c.16-.09.24-.06.24.1v16.32a.42.42,0,0,1-.24.38l-1.75,1a.24.24,0,0,1-.29,0l-7.51-7.93s0,0-.07,0a.16.16,0,0,0-.05.11l0,12.16a.42.42,0,0,1-.24.38l-1.82,1c-.16.09-.24.06-.24-.1V256.85a.42.42,0,0,1,.24-.38l1.78-1a.21.21,0,0,1,.28,0l7.49,7.94s0,0,.07,0a.13.13,0,0,0,.05-.11l0-12.16A.42.42,0,0,1,245,250.76Z" transform="translate(-63.59 -45.74)"/><path class="cls-63" d="M254.55,261.55a2.42,2.42,0,0,1-2.06-.75,3.66,3.66,0,0,1-.73-2.47v-6.15a8.17,8.17,0,0,1,.73-3.32,11.54,11.54,0,0,1,2.06-3.13,13,13,0,0,1,3.06-2.45,7.43,7.43,0,0,1,3.05-1.09,2.46,2.46,0,0,1,2,.68,3.13,3.13,0,0,1,.73,2.25v.27a.41.41,0,0,1-.24.37l-1.82,1.06c-.16.09-.24.06-.24-.1v-.22c0-1-.32-1.55-1-1.78a3.25,3.25,0,0,0-2.56.58,7.49,7.49,0,0,0-2.58,2.42,5.63,5.63,0,0,0-1,3.06v6.29c0,1,.34,1.68,1,1.91a3.28,3.28,0,0,0,2.64-.59,7.47,7.47,0,0,0,2.51-2.27,5,5,0,0,0,.92-2.8v-1.85c0-.07,0-.08-.09,0l-3.24,1.87c-.17.09-.25.06-.25-.1v-1.49a.41.41,0,0,1,.25-.38l5.39-3.12c.16-.09.24-.06.24.1v3.05a9.23,9.23,0,0,1-1.57,5.16,12.48,12.48,0,0,1-4.26,4A7.34,7.34,0,0,1,254.55,261.55Z" transform="translate(-63.59 -45.74)"/><polyline class="cls-64" points="314.43 493.61 301.27 500.67 287.65 506.32 285.09 504.21 291.75 501.37 296.4 499.4 298.59 499.4 300.92 499.4 301.49 500.03"/><path class="cls-65" d="M307.26,558.78l8.11-.66,7-.86,7.67-.88,7-1.11a39.8,39.8,0,0,0,5.73-.62,21.74,21.74,0,0,0,2.7-1.43l3.41-1.46" transform="translate(-63.59 -45.74)"/><polyline class="cls-66" points="224.5 495.5 229.38 496.1 231.99 497.61 234.29 498.94 235.9 499.45"/><polyline class="cls-66" points="268.82 530.94 267.56 536.21 266.1 540.52 264.27 543.43 263.08 545.92"/><polyline class="cls-67" points="293.25 520.56 297.58 520.56 300.97 521.29 304.64 522.63 306.8 523.12"/><polyline class="cls-67" points="278.94 498.08 280.55 496.43 280.55 495.5"/><polyline class="cls-67" points="322.43 483.82 325.26 483.82 326.85 483.14"/><polyline class="cls-67" points="336.29 503.1 332.69 503.47 329.86 504.05"/><polyline class="cls-67" points="327.21 482.03 327.21 480.71 326.51 479.1"/><polyline class="cls-67" points="337.8 502.08 338.55 500.49 339 498.44"/><polyline class="cls-67" points="347.89 453.33 350.99 454.86 353.63 456.36 355.79 457.3 357.1 458.06 358.07 459.05 358.62 459.85 359.49 461.66 360 463.5 360.4 464.95 360.64 465.87"/><polyline class="cls-68" points="377.04 467.66 379.42 469.85 380.78 471.33 382.26 472.62 383.6 473.59 384.75 474.25 385.7 475.85 386.33 477.85 386.43 479.7 386.43 481.82"/><polyline class="cls-69" points="252.7 524.59 253.59 525.44 254.58 527.03 255.57 527.74"/><polyline class="cls-69" points="256.36 528.88 253.67 528.88 251.27 529.37"/><polyline class="cls-69" points="267.04 500.48 269.27 501 272.07 502.08"/><polygon class="cls-70" points="233.89 519.94 234.29 521.53 235.89 522.81 238.97 525.81 233.91 523.26 232.6 522.24 233.01 521.37 233.89 519.94"/><polygon class="cls-70" points="258.24 528.48 268.56 529.45 273.75 530.34 276.51 530.5 278.19 530.08 282.58 529.94 286.55 530.22 288.57 530.5 288.47 531.05 280.29 531.67 272.92 531.51 272.4 530.57 258.24 528.48"/><path class="cls-71" d="M145.73,509.71a9.42,9.42,0,0,0-1-1.84,6.65,6.65,0,0,0-1.35-.71" transform="translate(-63.59 -45.74)"/><path class="cls-71" d="M146.7,510a6.11,6.11,0,0,1,.82-1.13c.19-.15.73-.28.85-.5s0-.56,0-.56" transform="translate(-63.59 -45.74)"/><path class="cls-71" d="M144.91,497.58l-.33-.79a11.6,11.6,0,0,0-1.16-2,2.14,2.14,0,0,0-.43-.25" transform="translate(-63.59 -45.74)"/><path class="cls-71" d="M145.73,497.58s0-1.14,0-1.52a5.09,5.09,0,0,1,.33-1.26,8.19,8.19,0,0,1,.64-.84" transform="translate(-63.59 -45.74)"/><path class="cls-72" d="M343.68,551.58a.79.79,0,0,1,.94.57c0,.35-.32.7-.8.75a.8.8,0,0,1-.95-.56C342.83,552,343.19,551.64,343.68,551.58Z" transform="translate(-63.59 -45.74)"/><path class="cls-72" d="M323.68,554.61a.8.8,0,0,1,.95.57c0,.35-.32.7-.8.75a.8.8,0,0,1-.95-.56C322.83,555,323.2,554.67,323.68,554.61Z" transform="translate(-63.59 -45.74)"/><path class="cls-72" d="M335.59,553.09a.8.8,0,0,1,1,.57c0,.35-.32.7-.8.75a.81.81,0,0,1-1-.56C334.74,553.48,335.1,553.15,335.59,553.09Z" transform="translate(-63.59 -45.74)"/><path class="cls-72" d="M311,555.94a.8.8,0,0,1,1,.57c0,.35-.32.7-.81.75a.8.8,0,0,1-1-.57C310.11,556.33,310.47,556,311,555.94Z" transform="translate(-63.59 -45.74)"/><path class="cls-73" d="M80.43,423.68A5.43,5.43,0,0,0,79,426.19a18.84,18.84,0,0,0-.23,4.83c0,1.54.51,6,.51,6l1.32,4.82" transform="translate(-63.59 -45.74)"/><path class="cls-73" d="M93.78,428.62a14.43,14.43,0,0,0-1.82,4,20,20,0,0,0-.35,6c.38,2.18,3,8.3,3,8.3" transform="translate(-63.59 -45.74)"/><path class="cls-73" d="M85.07,424.34A15.12,15.12,0,0,0,83,428.2,57.58,57.58,0,0,0,82,435c0,1.54.52,6,.52,6l1.32,4.82" transform="translate(-63.59 -45.74)"/><polygon class="cls-74" points="282.98 504.31 284.63 503.57 287.61 507.23 285.9 508.09 282.98 504.31"/><line class="cls-75" x1="671.08" y1="521.88" x2="814.46" y2="611.89"/><line class="cls-75" x1="814.45" y1="611.89" x2="749.71" y2="652.6"/><path class="cls-76" d="M738.14,561.39l-6.95-4c-1.87-1.08-3.38.1-3.38,2.62v13.44c0,2.52,1.51,5.44,3.38,6.52l.2.12V601.5c0,2.53,1.51,5.43,3.37,6.51s3.38-.09,3.38-2.62V584c1.86,1.08,3.37-.1,3.37-2.62V567.9c0-2.52-1.51-5.44-3.37-6.51m-3.48-4.3c1.87,1.08,3.37-.09,3.37-2.62s-1.5-5.44-3.37-6.52-3.37.1-3.37,2.62,1.51,5.44,3.37,6.52" transform="translate(-63.59 -45.74)"/><path class="cls-76" d="M881.52,651.32l-7-4c-1.86-1.07-3.37.1-3.37,2.63v13.43c0,2.53,1.51,5.44,3.37,6.52l.21.12v21.43c0,2.53,1.51,5.44,3.37,6.51s3.38-.09,3.38-2.62V673.89c1.86,1.08,3.37-.09,3.37-2.62V657.83c0-2.52-1.51-5.44-3.37-6.51M878,647c1.86,1.08,3.37-.09,3.37-2.62S879.9,639,878,637.88s-3.37.1-3.37,2.62S876.18,646,878,647" transform="translate(-63.59 -45.74)"/><path class="cls-76" d="M816.77,688l-6.95-4c-1.86-1.07-3.37.11-3.37,2.63v13.43c0,2.53,1.51,5.45,3.37,6.52l.21.12v21.43c0,2.53,1.51,5.44,3.37,6.51s3.37-.08,3.37-2.62V710.6c1.87,1.08,3.38-.1,3.38-2.63V694.54c0-2.52-1.51-5.44-3.38-6.52m-3.47-4.29c1.86,1.07,3.37-.1,3.37-2.63s-1.51-5.44-3.37-6.51-3.37.1-3.37,2.62,1.5,5.44,3.37,6.52" transform="translate(-63.59 -45.74)"/><path class="cls-76" d="M742.65,832.38l-7.36-4.25c-2-1.14-3.57.1-3.57,2.78v14.22c0,2.67,1.59,5.76,3.57,6.91l.22.12v22.71c0,2.67,1.6,5.76,3.57,6.9s3.57-.11,3.57-2.78v-22.7c2,1.14,3.58-.1,3.58-2.78V839.29c0-2.68-1.6-5.77-3.58-6.91M739,827.83c2,1.14,3.58-.1,3.58-2.78s-1.61-5.76-3.58-6.9-3.57.11-3.57,2.78,1.6,5.77,3.57,6.9" transform="translate(-63.59 -45.74)"/><path class="cls-76" d="M765.61,800.19l-7.37-4.25c-2-1.14-3.58.1-3.58,2.77v14.23c0,2.67,1.6,5.76,3.58,6.91l.21.12v22.7c0,2.67,1.61,5.77,3.59,6.92s3.57-.12,3.57-2.79V824.1c2,1.14,3.57-.11,3.57-2.78V807.1c0-2.68-1.6-5.77-3.57-6.91m-3.69-4.54c2,1.14,3.57-.11,3.57-2.79s-1.6-5.76-3.57-6.9-3.57.1-3.57,2.78,1.6,5.77,3.57,6.91" transform="translate(-63.59 -45.74)"/><path class="cls-76" d="M786.29,847.68l-7.38-4.25c-2-1.14-3.57.11-3.57,2.78v14.23c0,2.67,1.6,5.76,3.57,6.9l.23.13v22.71c0,2.66,1.6,5.75,3.57,6.9s3.58-.11,3.58-2.78V871.6c2,1.13,3.57-.11,3.57-2.78V854.6c0-2.68-1.6-5.78-3.57-6.92m-3.69-4.54c2,1.14,3.58-.11,3.58-2.78s-1.6-5.76-3.58-6.91-3.57.12-3.57,2.78,1.6,5.77,3.57,6.91" transform="translate(-63.59 -45.74)"/><path class="cls-76" d="M768.43,875.57l-7.37-4.25c-2-1.14-3.57.11-3.57,2.78v14.22c0,2.68,1.6,5.77,3.57,6.91l.22.13v22.7c0,2.67,1.6,5.77,3.57,6.9s3.58-.1,3.58-2.78v-22.7c2,1.14,3.57-.1,3.57-2.78V882.48c0-2.67-1.6-5.77-3.57-6.91M764.74,871c2,1.14,3.58-.11,3.58-2.78s-1.61-5.77-3.58-6.91-3.57.11-3.57,2.78,1.6,5.77,3.57,6.91" transform="translate(-63.59 -45.74)"/><path class="cls-62" d="M842.75,890.09l-7.37-4.25c-2-1.14-3.57.1-3.57,2.77v14.23c0,2.68,1.59,5.77,3.57,6.91l.23.12v22.71c0,2.67,1.59,5.76,3.56,6.9s3.58-.11,3.58-2.78V914c2,1.14,3.57-.11,3.57-2.78V897c0-2.68-1.6-5.77-3.57-6.91m-3.69-4.55c2,1.14,3.58-.1,3.58-2.77s-1.61-5.78-3.58-6.91-3.57.11-3.57,2.78,1.6,5.77,3.57,6.9" transform="translate(-63.59 -45.74)"/><path class="cls-62" d="M865.69,857.9l-7.36-4.25c-2-1.14-3.58.1-3.58,2.77v14.23c0,2.67,1.6,5.76,3.58,6.91l.22.12v22.7c0,2.67,1.61,5.77,3.58,6.92s3.56-.12,3.56-2.79v-22.7c2,1.14,3.59-.11,3.59-2.78V864.81c0-2.68-1.61-5.77-3.59-6.91M862,853.36c2,1.14,3.57-.11,3.57-2.79s-1.6-5.76-3.57-6.9-3.58.1-3.58,2.78,1.6,5.77,3.58,6.91" transform="translate(-63.59 -45.74)"/><path class="cls-62" d="M886.38,905.39,879,901.14c-2-1.14-3.56.11-3.56,2.79v14.22c0,2.67,1.59,5.75,3.56,6.9l.23.12v22.72c0,2.66,1.6,5.75,3.58,6.9s3.57-.11,3.57-2.78v-22.7c2,1.13,3.57-.11,3.57-2.78V912.31c0-2.68-1.6-5.78-3.57-6.92m-3.69-4.54c2,1.14,3.58-.11,3.58-2.79s-1.6-5.75-3.58-6.9-3.57.12-3.57,2.78,1.6,5.77,3.57,6.91" transform="translate(-63.59 -45.74)"/><path class="cls-62" d="M868.52,933.28,861.15,929c-2-1.15-3.57.11-3.57,2.78V946c0,2.68,1.6,5.77,3.57,6.91l.22.13v22.7c0,2.67,1.6,5.77,3.58,6.9s3.57-.1,3.57-2.78v-22.7c2,1.14,3.57-.1,3.57-2.78V940.18c0-2.67-1.6-5.76-3.57-6.9m-3.69-4.54c2,1.14,3.58-.11,3.58-2.78s-1.6-5.77-3.58-6.91-3.57.11-3.57,2.79,1.6,5.75,3.57,6.9" transform="translate(-63.59 -45.74)"/><path class="cls-76" d="M777.73,378.16,765,370.83c-3.4-2-6.15.19-6.15,4.79v24.53c0,4.61,2.75,9.94,6.15,11.91l.39.22V451.4c0,4.62,2.75,9.93,6.15,11.89s6.16-.16,6.16-4.78V419.38c3.4,2,6.16-.17,6.16-4.78V390.06c0-4.6-2.76-9.93-6.16-11.9m-6.35-7.83c3.4,2,6.16-.18,6.16-4.79s-2.76-9.94-6.16-11.9-6.15.18-6.15,4.78,2.75,9.94,6.15,11.91" transform="translate(-63.59 -45.74)"/><path class="cls-62" d="M857.69,418.7,845,411.37c-3.4-2-6.15.19-6.15,4.79v24.53c0,4.61,2.75,9.93,6.15,11.9l.38.22v39.12c0,4.62,2.76,9.93,6.16,11.9s6.16-.17,6.16-4.79V459.92c3.4,2,6.16-.18,6.16-4.79V430.6c0-4.6-2.76-9.94-6.16-11.9m-6.35-7.84c3.4,2,6.16-.18,6.16-4.79s-2.76-9.93-6.16-11.9-6.16.19-6.16,4.79,2.76,9.94,6.16,11.9" transform="translate(-63.59 -45.74)"/><path class="cls-76" d="M781.71,170.16l-7-4c-1.87-1.08-3.38.1-3.38,2.62V182.2c0,2.53,1.51,5.44,3.38,6.52l.2.12v21.43c0,2.53,1.51,5.43,3.37,6.51s3.38-.09,3.38-2.62V192.73c1.86,1.08,3.37-.1,3.37-2.62V176.67c0-2.52-1.51-5.44-3.37-6.51m-3.48-4.3c1.87,1.08,3.37-.09,3.37-2.62s-1.5-5.44-3.37-6.52-3.37.1-3.37,2.63,1.51,5.44,3.37,6.51" transform="translate(-63.59 -45.74)"/><path class="cls-76" d="M857.69,190.1,845,182.77c-3.4-2-6.15.19-6.15,4.79v24.53c0,4.61,2.75,9.93,6.15,11.9l.39.22v39.12c0,4.62,2.75,9.93,6.15,11.9s6.16-.17,6.16-4.79V231.32c3.4,2,6.16-.18,6.16-4.79V202c0-4.6-2.76-9.94-6.16-11.9m-6.35-7.84c3.4,2,6.16-.18,6.16-4.79s-2.76-9.93-6.16-11.9-6.16.19-6.16,4.79,2.76,9.94,6.16,11.9" transform="translate(-63.59 -45.74)"/></svg>